<svg version="1.1" width="494" height="272" viewBox="-1 -1 494 272" xmlns="http://www.w3.org/2000/svg" xmlns:xlink="http://www.w3.org/1999/xlink">
  <!-- Exported by Scratch - http://scratch.mit.edu/ -->
  <g id="ID0.799722264520824" transform="matrix(1, 0, 0, 1, 5, -75)">
    <path id="ID0.3755401107482612" fill="#E5E5E5" stroke="#7F7F7F" stroke-width="2" stroke-linecap="round" d="M 120.450 97 C 125.738 94.071 132.586 91.362 138.300 93.350 C 144.722 95.587 148.014 102.913 152.750 107.800 C 153.934 109.022 154.171 110.690 155.550 111.150 C 159.439 112.446 163.799 111.708 167.750 112.800 C 169.291 113.226 170.559 114.432 171.650 115.600 C 173.192 117.251 173.420 120.397 175.550 121.150 C 179.745 122.633 184.678 120.296 188.900 121.700 C 191.261 122.485 192.870 124.986 193.900 127.250 C 194.820 129.273 195.092 131.773 194.450 133.900 C 193.881 135.786 192.120 137.159 190.550 138.350 C 187.443 140.708 183.636 142.064 180.550 144.450 C 175.464 148.381 172.187 155.183 166.100 157.250 C 161.289 158.884 156.175 154.679 151.100 154.450 C 136.237 153.780 121.273 156.763 106.550 155.200 C 97.072 153.774 88.165 149.305 79.450 145.600 C 75.375 143.869 71.642 141.256 68.300 138.350 C 65.822 136.195 63.340 133.680 62.200 130.600 C 61.360 128.329 61.490 125.418 62.750 123.350 C 64.332 120.754 67.083 118.657 70 117.800 C 73.722 116.707 77.788 117.487 81.650 117.800 C 85.635 118.140 91.953 120.684 92.700 119.100 C 93.855 117.710 85.441 114.624 85.550 111.700 C 85.656 109.476 91.040 109.790 93.900 109.450 C 97.389 109.035 100.949 109.159 104.450 109.450 C 105.610 109.546 106.523 111.592 107.750 110.600 C 112.657 106.633 115.066 100.098 120.450 97 Z " transform="matrix(0.6328645348548889, 0, 0, 0.6328645348548889, 252.25, 17.75)"/>
    <path id="ID0.3755401107482612" fill="#E5E5E5" stroke="#7F7F7F" stroke-width="2" stroke-linecap="round" d="M 120.450 97 C 125.738 94.071 132.586 91.362 138.300 93.350 C 144.722 95.587 148.014 102.913 152.750 107.800 C 153.934 109.022 154.171 110.690 155.550 111.150 C 159.439 112.446 163.799 111.708 167.750 112.800 C 169.291 113.226 170.559 114.432 171.650 115.600 C 173.192 117.251 173.420 120.397 175.550 121.150 C 179.745 122.633 184.678 120.296 188.900 121.700 C 191.261 122.485 192.870 124.986 193.900 127.250 C 194.820 129.273 195.092 131.773 194.450 133.900 C 193.881 135.786 192.120 137.159 190.550 138.350 C 187.443 140.708 183.636 142.064 180.550 144.450 C 175.464 148.381 172.187 155.183 166.100 157.250 C 161.289 158.884 156.175 154.679 151.100 154.450 C 136.237 153.780 121.273 156.763 106.550 155.200 C 97.072 153.774 88.165 149.305 79.450 145.600 C 75.375 143.869 71.642 141.256 68.300 138.350 C 65.822 136.195 63.340 133.680 62.200 130.600 C 61.360 128.329 61.490 125.418 62.750 123.350 C 64.332 120.754 67.083 118.657 70 117.800 C 73.722 116.707 77.788 117.487 81.650 117.800 C 85.635 118.140 91.953 120.684 92.700 119.100 C 93.855 117.710 85.441 114.624 85.550 111.700 C 85.656 109.476 91.040 109.790 93.900 109.450 C 97.389 109.035 100.949 109.159 104.450 109.450 C 105.610 109.546 106.523 111.592 107.750 110.600 C 112.657 106.633 115.066 100.098 120.450 97 Z " transform="matrix(1, 0, 0, 1, -2.25, -7.25)"/>
    <path id="ID0.3733469992876053" fill="#00CC44" stroke="#00FF55" stroke-width="15" stroke-linecap="round" d="M 357 276 C 354.192 270.973 382.520 259.254 394 251 C 398.411 247.855 401.906 243.943 406 240 C 437.275 208.188 451.312 201.646 460 184 C 473.885 154.799 483.537 89.510 485 90 C 486.746 90.633 481.142 157.557 480 191 C 479.444 207.307 480 223.683 480 240 C 480 249.990 483.159 260.523 480 270 C 478.335 274.995 472.156 277.933 467 279 C 461.692 280.098 456.296 277.158 451 276 C 445.635 274.826 440.422 272.875 435 272 C 430.058 271.203 425.024 270.529 420 271 C 386.939 277.710 360.084 281.063 357 276 Z "/>
    <path id="ID0.8183496701531112" fill="none" stroke="#00FF55" stroke-width="15" stroke-linecap="round" d="M 444 247 L 444.300 247.300 "/>
    <path id="ID0.5351353315636516" fill="none" stroke="#00FF55" stroke-width="15" stroke-linecap="round" d="M 462 216 L 462.300 216.300 "/>
    <path id="ID0.32894602976739407" fill="none" stroke="#00FF55" stroke-width="15" stroke-linecap="round" d="M 419 249 L 419.300 249.300 "/>
    <g id="ID0.6520062009803951" transform="matrix(1, 0, 0, 1, -5, 75)">
      <path id="ID0.351609640289098" fill="#00FF55" stroke="none" d="M 0 253 L 480 253 L 480 294 L 0 294 L 0 253 Z " transform="matrix(1, 0, 0, 1, 5, -75)"/>
      <path id="ID0.49307857686653733" fill="#00CC44" stroke="none" d="M 0 290 L 480 290 L 480 360 L 0 360 L 0 290 Z " transform="matrix(1, 0, 0, 1, 5, -75)"/>
      <path id="ID0.9706237115897238" fill="#00FF55" stroke="none" d="M 25.500 297 C 27.569 297 29.444 297.728 30.802 298.905 C 32.160 300.082 33 301.707 33 303.500 C 33 305.293 32.160 306.918 30.802 308.095 C 29.444 309.272 27.569 310 25.500 310 C 23.431 310 21.556 309.272 20.198 308.095 C 18.840 306.918 18 305.293 18 303.500 C 18 301.707 18.840 300.082 20.198 298.905 C 21.556 297.728 23.431 297 25.500 297 Z " transform="matrix(1, 0, 0, 1, 5, -75)"/>
      <path id="ID0.9706237115897238" fill="#00FF55" stroke="none" d="M 25.500 297 C 27.569 297 29.444 297.728 30.802 298.905 C 32.160 300.082 33 301.707 33 303.500 C 33 305.293 32.160 306.918 30.802 308.095 C 29.444 309.272 27.569 310 25.500 310 C 23.431 310 21.556 309.272 20.198 308.095 C 18.840 306.918 18 305.293 18 303.500 C 18 301.707 18.840 300.082 20.198 298.905 C 21.556 297.728 23.431 297 25.500 297 Z " transform="matrix(1, 0, 0, 1, 47, -42)"/>
      <path id="ID0.9706237115897238" fill="#00FF55" stroke="none" d="M 25.500 297 C 27.569 297 29.444 297.728 30.802 298.905 C 32.160 300.082 33 301.707 33 303.500 C 33 305.293 32.160 306.918 30.802 308.095 C 29.444 309.272 27.569 310 25.500 310 C 23.431 310 21.556 309.272 20.198 308.095 C 18.840 306.918 18 305.293 18 303.500 C 18 301.707 18.840 300.082 20.198 298.905 C 21.556 297.728 23.431 297 25.500 297 Z " transform="matrix(1, 0, 0, 1, 122.5, -73.5)"/>
      <path id="ID0.9706237115897238" fill="#00FF55" stroke="none" d="M 25.500 297 C 27.569 297 29.444 297.728 30.802 298.905 C 32.160 300.082 33 301.707 33 303.500 C 33 305.293 32.160 306.918 30.802 308.095 C 29.444 309.272 27.569 310 25.500 310 C 23.431 310 21.556 309.272 20.198 308.095 C 18.840 306.918 18 305.293 18 303.500 C 18 301.707 18.840 300.082 20.198 298.905 C 21.556 297.728 23.431 297 25.500 297 Z " transform="matrix(1, 0, 0, 1, 76.5, -80.5)"/>
      <path id="ID0.9706237115897238" fill="#00FF55" stroke="none" d="M 25.500 297 C 27.569 297 29.444 297.728 30.802 298.905 C 32.160 300.082 33 301.707 33 303.500 C 33 305.293 32.160 306.918 30.802 308.095 C 29.444 309.272 27.569 310 25.500 310 C 23.431 310 21.556 309.272 20.198 308.095 C 18.840 306.918 18 305.293 18 303.500 C 18 301.707 18.840 300.082 20.198 298.905 C 21.556 297.728 23.431 297 25.500 297 Z " transform="matrix(1, 0, 0, 1, 262.5, -61.5)"/>
      <path id="ID0.9706237115897238" fill="#00FF55" stroke="none" d="M 25.500 297 C 27.569 297 29.444 297.728 30.802 298.905 C 32.160 300.082 33 301.707 33 303.500 C 33 305.293 32.160 306.918 30.802 308.095 C 29.444 309.272 27.569 310 25.500 310 C 23.431 310 21.556 309.272 20.198 308.095 C 18.840 306.918 18 305.293 18 303.500 C 18 301.707 18.840 300.082 20.198 298.905 C 21.556 297.728 23.431 297 25.500 297 Z " transform="matrix(1, 0, 0, 1, 168.5, -26.5)"/>
      <path id="ID0.9706237115897238" fill="#00FF55" stroke="none" d="M 25.500 297 C 27.569 297 29.444 297.728 30.802 298.905 C 32.160 300.082 33 301.707 33 303.500 C 33 305.293 32.160 306.918 30.802 308.095 C 29.444 309.272 27.569 310 25.500 310 C 23.431 310 21.556 309.272 20.198 308.095 C 18.840 306.918 18 305.293 18 303.500 C 18 301.707 18.840 300.082 20.198 298.905 C 21.556 297.728 23.431 297 25.500 297 Z " transform="matrix(1, 0, 0, 1, 175.5, -67.5)"/>
      <path id="ID0.9706237115897238" fill="#00FF55" stroke="none" d="M 25.500 297 C 27.569 297 29.444 297.728 30.802 298.905 C 32.160 300.082 33 301.707 33 303.500 C 33 305.293 32.160 306.918 30.802 308.095 C 29.444 309.272 27.569 310 25.500 310 C 23.431 310 21.556 309.272 20.198 308.095 C 18.840 306.918 18 305.293 18 303.500 C 18 301.707 18.840 300.082 20.198 298.905 C 21.556 297.728 23.431 297 25.500 297 Z " transform="matrix(1, 0, 0, 1, 395.5, -34.5)"/>
      <path id="ID0.9706237115897238" fill="#00FF55" stroke="none" d="M 25.500 297 C 27.569 297 29.444 297.728 30.802 298.905 C 32.160 300.082 33 301.707 33 303.500 C 33 305.293 32.160 306.918 30.802 308.095 C 29.444 309.272 27.569 310 25.500 310 C 23.431 310 21.556 309.272 20.198 308.095 C 18.840 306.918 18 305.293 18 303.500 C 18 301.707 18.840 300.082 20.198 298.905 C 21.556 297.728 23.431 297 25.500 297 Z " transform="matrix(1, 0, 0, 1, 452.5, -73.5)"/>
      <path id="ID0.9706237115897238" fill="#00FF55" stroke="none" d="M 25.500 297 C 27.569 297 29.444 297.728 30.802 298.905 C 32.160 300.082 33 301.707 33 303.500 C 33 305.293 32.160 306.918 30.802 308.095 C 29.444 309.272 27.569 310 25.500 310 C 23.431 310 21.556 309.272 20.198 308.095 C 18.840 306.918 18 305.293 18 303.500 C 18 301.707 18.840 300.082 20.198 298.905 C 21.556 297.728 23.431 297 25.500 297 Z " transform="matrix(1, 0, 0, 1, 350, -75)"/>
      <path id="ID0.9706237115897238" fill="#00FF55" stroke="none" d="M 25.500 297 C 27.569 297 29.444 297.728 30.802 298.905 C 32.160 300.082 33 301.707 33 303.500 C 33 305.293 32.160 306.918 30.802 308.095 C 29.444 309.272 27.569 310 25.500 310 C 23.431 310 21.556 309.272 20.198 308.095 C 18.840 306.918 18 305.293 18 303.500 C 18 301.707 18.840 300.082 20.198 298.905 C 21.556 297.728 23.431 297 25.500 297 Z " transform="matrix(1, 0, 0, 1, 319, -29)"/>
      <path id="ID0.9706237115897238" fill="#00FF55" stroke="none" d="M 25.500 297 C 27.569 297 29.444 297.728 30.802 298.905 C 32.160 300.082 33 301.707 33 303.500 C 33 305.293 32.160 306.918 30.802 308.095 C 29.444 309.272 27.569 310 25.500 310 C 23.431 310 21.556 309.272 20.198 308.095 C 18.840 306.918 18 305.293 18 303.500 C 18 301.707 18.840 300.082 20.198 298.905 C 21.556 297.728 23.431 297 25.500 297 Z " transform="matrix(1, 0, 0, 1, -18, -42)"/>
      <path id="ID0.9706237115897238" fill="#00FF55" stroke="none" d="M 25.500 297 C 27.569 297 29.444 297.728 30.802 298.905 C 32.160 300.082 33 301.707 33 303.500 C 33 305.293 32.160 306.918 30.802 308.095 C 29.444 309.272 27.569 310 25.500 310 C 23.431 310 21.556 309.272 20.198 308.095 C 18.840 306.918 18 305.293 18 303.500 C 18 301.707 18.840 300.082 20.198 298.905 C 21.556 297.728 23.431 297 25.500 297 Z " transform="matrix(1, 0, 0, 1, 443, -26)"/>
    </g>
    <g id="ID0.9876274089328945" transform="matrix(1, 0, 0, 1, -5, 75)">
      <path id="ID0.3071222472935915" fill="none" stroke="#000000" stroke-width="15" stroke-linecap="round" d="M 61 121 L 61.300 121.300 " transform="matrix(1, 0, 0, 1, 49, -79)"/>
      <path id="ID0.6142811272293329" fill="none" stroke="#000000" stroke-width="15" stroke-linecap="round" d="M 106 124 L 106.300 124.300 " transform="matrix(1, 0, 0, 1, 49, -79)"/>
      <path id="ID0.5112718306481838" fill="none" stroke="#000000" stroke-width="7" stroke-linecap="round" d="M 74 131 C 74 131 74.058 137.058 76 139 C 77.942 140.942 81.395 141.868 84 141 C 86.278 140.241 87.006 137.186 88 135 C 88.703 133.454 89 130 89 130 " transform="matrix(1, 0, 0, 1, 49, -79)"/>
    </g>
    <g id="ID0.9876274089328945" transform="matrix(1, 0, 0, 1, -5, 75)">
      <path id="ID0.3071222472935915" fill="none" stroke="#000000" stroke-width="15" stroke-linecap="round" d="M 61 121 L 61.300 121.300 " transform="matrix(0.613598644733429, 0, 0, 0.613598644733429, 287.5, -53.4)"/>
      <path id="ID0.6142811272293329" fill="none" stroke="#000000" stroke-width="15" stroke-linecap="round" d="M 106 124 L 106.300 124.300 " transform="matrix(0.613598644733429, 0, 0, 0.613598644733429, 287.5, -53.4)"/>
      <path id="ID0.5112718306481838" fill="none" stroke="#000000" stroke-width="7" stroke-linecap="round" d="M 74 131 C 74 131 74.058 137.058 76 139 C 77.942 140.942 81.395 141.868 84 141 C 86.278 140.241 87.006 137.186 88 135 C 88.703 133.454 89 130 89 130 " transform="matrix(0.613598644733429, 0, 0, 0.613598644733429, 287.5, -53.4)"/>
    </g>
  </g>
</svg>