<svg version="1.1" width="486" height="134" viewBox="-1 -1 486 134" xmlns="http://www.w3.org/2000/svg" xmlns:xlink="http://www.w3.org/1999/xlink">
  <!-- Exported by Scratch - http://scratch.mit.edu/ -->
  <path id="ID0.6372868926264346" fill="#AC7D41" stroke="#000000" stroke-width="4" stroke-linecap="round" d="M 380 243.700 L 393.350 243.700 L 393.350 329.600 L 380 329.600 L 380 243.700 Z " transform="matrix(1, 0, 0, 0.8795110583305359, 3, -189.5)"/>
  <path id="ID0.9288982353173196" fill="#AC7D41" stroke="#000000" stroke-width="4" stroke-linecap="round" d="M 371.100 234.050 L 480 234.050 L 480 254.800 L 371.100 254.800 L 371.100 234.050 Z " transform="matrix(1, 0, 0, 1, 3, -229)"/>
  <path id="ID0.13688632007688284" fill="#995900" stroke="#000000" stroke-width="4" d="M 0 325.900 L 480 325.900 L 480 360 L 0 360 L 0 325.900 Z " transform="matrix(1, 0, 0, 1, 3, -229)"/>
  <path id="ID0.2501529506407678" fill="#906936" stroke="#000000" stroke-width="4" d="M 391.100 287.400 L 480 287.400 L 480 305.150 L 391.100 305.150 L 391.100 287.400 Z " transform="matrix(1, 0, 0, 1, 3, -229)"/>
  <path id="ID0.7896964466199279" fill="#9D723B" stroke="#000000" stroke-width="4" stroke-linecap="round" d="M 142.200 131.850 L 251.100 131.850 L 251.100 150.350 L 142.200 150.350 L 142.200 131.850 Z " transform="matrix(0.0026063283439725637, -0.6460798382759094, 0.6460798382759094, 0.0026063283439725637, 199.95, 189.25)"/>
  <path id="ID0.7841230086050928" fill="#906936" stroke="#000000" stroke-width="4" d="M 138.500 150.350 L 153.350 150.350 L 153.350 218.500 L 138.500 218.500 L 138.500 150.350 Z " transform="matrix(0.0026063283439725637, -0.6460798382759094, 0.6460798382759094, 0.0026063283439725637, 200.8, 189.25)"/>
  <path id="ID0.7841230086050928" fill="#906936" stroke="#000000" stroke-width="4" d="M 138.500 150.350 L 153.350 150.350 L 153.350 218.500 L 138.500 218.500 L 138.500 150.350 Z " transform="matrix(0.0026063283439725637, -0.6460798382759094, 0.6460798382759094, 0.0026063283439725637, 202.05, 124.3)"/>
  <path id="ID0.926279372535646" fill="#906936" stroke="#000000" stroke-width="4" d="M 148.900 178.500 L 242.950 178.500 L 242.950 191.850 L 148.900 191.850 L 148.900 178.500 Z " transform="matrix(0.0026063283439725637, -0.6460798382759094, 0.6460798382759094, 0.0026063283439725637, 199.95, 189.25)"/>
  <path id="ID0.19318073382601142" fill="#906936" stroke="#000000" stroke-width="4" d="M 135.550 51.850 L 155.550 51.850 L 155.550 129.600 L 135.550 129.600 L 135.550 51.850 Z " transform="matrix(0.0026063283439725637, -0.6460798382759094, 0.6460798382759094, 0.0026063283439725637, 199.95, 187.3)"/>
  <path id="ID0.12988204089924693" fill="#AC7D41" stroke="#000000" stroke-width="4" stroke-linecap="round" d="M 133.350 34.050 L 162.950 34.050 L 162.950 58.500 L 133.350 58.500 L 133.350 34.050 Z " transform="matrix(0.0026063283439725637, -0.6460798382759094, 0.6460798382759094, 0.0026063283439725637, 199.95, 189.25)"/>
  <path id="ID0.6518860589712858" fill="#604624" stroke="#000000" stroke-width="4" d="M 97.800 231.850 L 117.800 231.850 L 117.800 327.400 L 97.800 327.400 L 97.800 231.850 Z " transform="matrix(1, 0, 0, 1, 3, -229)"/>
  <path id="ID0.7988489191047847" fill="#604624" stroke="#000000" stroke-width="4" d="M 0 305.900 L 91.850 305.900 L 91.850 319.250 L 0 319.250 L 0 305.900 Z " transform="matrix(1.06477952003479, 0, 0, 1, 3, -229)"/>
</svg>