<svg version="1.1" width="51" height="50" viewBox="0 -1 51 50" xmlns="http://www.w3.org/2000/svg" xmlns:xlink="http://www.w3.org/1999/xlink">
  <!-- Exported by Scratch - http://scratch.mit.edu/ -->
  <g id="ID0.8060927535407245" transform="matrix(1, 0, 0, 1, 0, 4)">
    <path id="ID0.08809070056304336" fill="#FFD499" stroke="#FFD499" stroke-width="2" stroke-linecap="round" d="M 246 185.300 C 245.980 186.048 246.001 186.757 246 187.550 C 245.996 188.249 245.967 188.955 246 189.650 C 246.032 190.318 246.125 190.985 246.200 191.650 C 246.275 192.317 246.350 192.986 246.450 193.650 C 246.550 194.319 246.487 195.051 246.800 195.650 C 247.116 196.255 247.648 196.777 248.250 197.100 C 248.849 197.421 249.571 197.509 250.250 197.500 C 250.916 197.492 251.639 197.409 252.200 197.050 C 252.769 196.685 253.158 196.060 253.450 195.450 C 253.738 194.849 253.850 194.164 253.900 193.500 C 254.047 191.545 254.095 189.568 254.150 187.600 C 254.143 186.901 254.142 186.200 254.150 185.500 C 253.991 181.252 254.228 180.358 253.900 178.850 C 253.715 178.142 253.282 177.502 252.700 177.150 C 251.952 176.691 251.161 176.494 250.350 176.500 C 249.410 176.507 248.387 176.551 247.600 177.050 C 246.923 177.494 246.549 178.360 246.350 179.150 C 246.053 182.515 246.050 183.695 246 185.300 Z " transform="matrix(2.163856029510498, 0, 0, 1.5215190649032593, -516.3, -266.5)"/>
    <path id="ID0.0726902256719768" fill="#FF0000" stroke="#CC0000" stroke-width="2" stroke-linecap="round" d="M 209.500 227.500 L 209 179.500 L 218 180 L 223 191 L 228 179.500 L 240.500 179.500 L 241.500 227.500 L 239 231.500 L 233.500 233.500 L 224 234.500 L 213.500 232.500 L 209.500 227.500 Z " transform="matrix(0.6907622814178467, 0, 0, 0.3100942075252533, -130.15, -34.05)"/>
    <path id="ID0.8850112343207002" fill="none" stroke="#000000" stroke-width="2" stroke-linecap="round" d="M 240.500 194 L 240.800 194.300 " transform="matrix(0.5249185562133789, 0, 0, 0.3100942075252533, -102.4, -34.55)"/>
    <path id="ID0.16972909634932876" fill="none" stroke="#000000" stroke-width="2" stroke-linecap="round" d="M 240.500 199.500 L 240.800 199.800 " transform="matrix(0.5249185562133789, 0, 0, 0.3100942075252533, -102.4, -34.55)"/>
  </g>
  <g id="ID0.1477178898639977" transform="matrix(1, 0, 0, 1, 0, 4)">
    <path id="ID0.5619839346036315" fill="#FF0000" stroke="#CC0000" stroke-width="2" stroke-linecap="round" d="M 282.550 231 C 306.841 200.371 308.320 199.171 315.500 193 C 318.114 191.163 320.546 191.730 322.500 193 C 324.499 194.299 326.520 196.941 325.500 199.500 C 309.865 219.642 303.238 227.753 292 235 C 288.841 236.950 281.120 234.340 282.550 231 Z " transform="matrix(-0.2308531254529953, -0.03614567592740059, 0.055285096168518066, -0.35309159755706787, 100.1, 105.65)"/>
    <path id="ID0.6155663500539958" fill="#FFD499" stroke="none" d="M 241.250 209 C 243.526 209 245.589 209.924 247.082 211.418 C 248.576 212.911 249.500 214.974 249.500 217.250 C 249.500 219.526 248.576 221.589 247.082 223.082 C 245.589 224.576 243.526 225.500 241.250 225.500 C 238.974 225.500 236.911 224.576 235.418 223.082 C 233.924 221.589 233 219.526 233 217.250 C 233 214.974 233.924 212.911 235.418 211.418 C 236.911 209.924 238.974 209 241.250 209 Z " transform="matrix(-0.26317453384399414, -0.19884754717350006, 0.19282189011573792, -0.2551995813846588, 68.15, 116.2)"/>
  </g>
  <path id="ID0.5486297779716551" fill="#935301" stroke="#663B00" stroke-width="6" stroke-linecap="round" d="M 319.350 238.550 C 307.238 245.500 295.597 266.776 302 278 C 311.189 288.839 325.526 285.577 337.700 286.950 C 347.701 288.070 358.478 286.995 368.500 283.850 C 376.746 282.212 390.961 281.771 391.550 272.850 C 392.439 259.122 383.380 242.675 371 237 C 355.369 229.848 334.427 229.344 319.350 238.550 Z " transform="matrix(0.168414905667305, 0.0003453500976320356, -0.00037301439442671835, 0.18190442025661469, -24.65, -4.25)"/>
  <path id="ID0.5486297779716551" fill="#935301" stroke="#663B00" stroke-width="6" stroke-linecap="round" d="M 319.350 238.550 C 307.238 245.500 295.597 266.776 302 278 C 311.189 288.839 325.526 285.577 337.700 286.950 C 347.701 288.070 358.478 286.995 368.500 283.850 C 376.746 282.212 390.961 281.771 391.550 272.850 C 392.439 259.122 383.380 242.675 371 237 C 355.369 229.848 334.427 229.344 319.350 238.550 Z " transform="matrix(0.1681816279888153, 0.00886785052716732, -0.009578150697052479, 0.18165245652198792, -37.75, -7.15)"/>
  <path id="ID0.643749819137156" fill="#FFFFFF" stroke="#000000" stroke-width="2" d="M 234.750 143.750 C 236.336 143.750 237.774 144.576 238.815 145.911 C 239.856 147.247 240.500 149.090 240.500 151.125 C 240.500 153.160 239.856 155.003 238.815 156.339 C 237.774 157.674 236.336 158.500 234.750 158.500 C 233.164 158.500 231.726 157.674 230.685 156.339 C 229.644 155.003 229 153.160 229 151.125 C 229 149.090 229.644 147.247 230.685 145.911 C 231.726 144.576 233.164 143.750 234.750 143.750 Z " transform="matrix(-0.46586522459983826, 0, 0, 0.46586522459983826, 137, -59.55)"/>
  <path id="ID0.643749819137156" fill="#FFFFFF" stroke="#000000" stroke-width="2" d="M 234.750 143.750 C 236.336 143.750 237.774 144.576 238.815 145.911 C 239.856 147.247 240.500 149.090 240.500 151.125 C 240.500 153.160 239.856 155.003 238.815 156.339 C 237.774 157.674 236.336 158.500 234.750 158.500 C 233.164 158.500 231.726 157.674 230.685 156.339 C 229.644 155.003 229 153.160 229 151.125 C 229 149.090 229.644 147.247 230.685 145.911 C 231.726 144.576 233.164 143.750 234.750 143.750 Z " transform="matrix(-0.46586522459983826, 0, 0, 0.46586522459983826, 132.6, -59.65)"/>
  <path id="ID0.7692075585946441" fill="none" stroke="#000000" stroke-width="2" stroke-linecap="round" d="M 233.750 150.250 L 234.050 150.550 " transform="matrix(-0.46586522459983826, 0, 0, 0.46586522459983826, 136.95, -59.55)"/>
  <path id="ID0.731148752849549" fill="none" stroke="#000000" stroke-width="2" stroke-linecap="round" d="M 242.500 150 L 242.800 150.300 " transform="matrix(-0.46586522459983826, 0, 0, 0.46586522459983826, 136.95, -59.55)"/>
  <path id="ID0.8540973095223308" fill="none" stroke="#000000" stroke-width="2" stroke-linecap="round" d="M 255.250 160.850 C 255.250 160.850 253.312 160.956 252.400 161.250 C 251.731 161.466 251.089 161.846 250.600 162.350 C 250.012 162.957 249.545 163.708 249.250 164.500 C 248.999 165.176 249.042 165.930 249 166.650 C 248.959 167.348 248.664 168.136 249 168.750 C 249.330 169.354 250.102 169.617 250.750 169.850 C 251.430 170.094 252.182 170.234 252.900 170.150 C 253.936 170.029 255.900 169.250 255.900 169.250 " transform="matrix(-0.3146975040435791, 0, 0, 0.3146975040435791, 105.55, -36.55)"/>
  <g id="ID0.1477178898639977" transform="matrix(1, 0, 0, 1, 0, 4)">
    <path id="ID0.5619839346036315" fill="#FF0000" stroke="#CC0000" stroke-width="2" stroke-linecap="round" d="M 282.550 231 C 306.841 200.371 308.320 199.171 315.500 193 C 318.114 191.163 320.546 191.730 322.500 193 C 324.499 194.299 326.520 196.941 325.500 199.500 C 309.865 219.642 303.238 227.753 292 235 C 288.841 236.950 281.120 234.340 282.550 231 Z " transform="matrix(0.2290717512369156, -0.04610653966665268, -0.07052031904459, -0.3503669798374176, -45.65, 108.9)"/>
    <path id="ID0.6155663500539958" fill="#FFD499" stroke="none" d="M 241.250 209 C 243.526 209 245.589 209.924 247.082 211.418 C 248.576 212.911 249.500 214.974 249.500 217.250 C 249.500 219.526 248.576 221.589 247.082 223.082 C 245.589 224.576 243.526 225.500 241.250 225.500 C 238.974 225.500 236.911 224.576 235.418 223.082 C 233.924 221.589 233 219.526 233 217.250 C 233 214.974 233.924 212.911 235.418 211.418 C 236.911 209.924 238.974 209 241.250 209 Z " transform="matrix(0.2543186843395233, -0.2100551873445511, -0.20368991792201996, -0.24661210179328918, -13.3, 118)"/>
  </g>
  <g id="ID0.5765378917567432" transform="matrix(1, 0, 0, 1, 0, 4)">
    <path id="ID0.9737518369220197" fill="#000000" stroke="none" d="M 241.500 174.500 C 243.224 174.500 244.787 175.312 245.918 176.625 C 247.050 177.937 247.750 179.750 247.750 181.750 C 247.750 183.750 247.050 185.563 245.918 186.875 C 244.787 188.188 243.224 189 241.500 189 C 239.776 189 238.213 188.188 237.082 186.875 C 235.950 185.563 235.250 183.750 235.250 181.750 C 235.250 179.750 235.950 177.937 237.082 176.625 C 238.213 175.312 239.776 174.500 241.500 174.500 Z " transform="matrix(1, 0, 0, 1, -216, -163.5)"/>
    <path id="ID0.5146417417563498" fill="#FF9999" stroke="none" d="M 240.750 184.500 C 241.509 184.500 242.196 184.752 242.694 185.159 C 243.192 185.567 243.500 186.129 243.500 186.750 C 243.500 187.371 243.192 187.933 242.694 188.341 C 242.196 188.748 241.509 189 240.750 189 C 239.991 189 239.304 188.748 238.806 188.341 C 238.308 187.933 238 187.371 238 186.750 C 238 186.129 238.308 185.567 238.806 185.159 C 239.304 184.752 239.991 184.500 240.750 184.500 Z " transform="matrix(1, 0, 0, 1, -214.5, -163.5)"/>
  </g>
  <path id="ID0.9797205151990056" fill="none" stroke="#FFFF00" stroke-width="2" stroke-linecap="round" d="M 251.750 147 C 251.750 147 253.104 148.208 253.500 149 C 253.800 149.600 253.398 150.428 253.750 151 C 254.125 151.610 255.200 151.600 255.500 152.250 C 255.781 152.859 255.250 153.579 255.250 154.250 C 255.250 154.921 255.200 155.650 255.500 156.250 C 255.816 156.882 256.684 157.118 257 157.750 C 257.300 158.350 257.550 159.150 257.250 159.750 C 256.950 160.350 255.800 160.150 255.500 160.750 C 255.200 161.350 255.626 162.090 255.750 162.750 C 255.877 163.425 256.452 164.094 256.250 164.750 C 256.059 165.371 254.750 166 254.750 166 " transform="matrix(1, 0, 0, 1, -217, -145)"/>
  <path id="ID0.9797205151990056" fill="none" stroke="#FFFF00" stroke-width="2" stroke-linecap="round" d="M 251.750 147 C 251.750 147 253.104 148.208 253.500 149 C 253.800 149.600 253.398 150.428 253.750 151 C 254.125 151.610 255.200 151.600 255.500 152.250 C 255.781 152.859 255.250 153.579 255.250 154.250 C 255.250 154.921 255.200 155.650 255.500 156.250 C 255.816 156.882 256.684 157.118 257 157.750 C 257.300 158.350 257.550 159.150 257.250 159.750 C 256.950 160.350 255.800 160.150 255.500 160.750 C 255.200 161.350 255.626 162.090 255.750 162.750 C 255.877 163.425 256.452 164.094 256.250 164.750 C 256.059 165.371 254.750 166 254.750 166 " transform="matrix(-1, 0, 0, 1, 265.1, -145.25)"/>
</svg>