<svg version="1.1" width="105" height="99" viewBox="7 -1 105 99" xmlns="http://www.w3.org/2000/svg" xmlns:xlink="http://www.w3.org/1999/xlink">
  <defs>
    <linearGradient id="grad_1" y2="1">
      <stop offset="0" stop-color="#B2B2B2" stop-opacity="1"/>
      <stop offset="1" stop-color="#FFFFFF" stop-opacity="1"/>
    </linearGradient>
    <linearGradient id="grad_2" x2="1">
      <stop offset="0" stop-color="#FFFFFF" stop-opacity="1"/>
      <stop offset="1" stop-color="#FF9400" stop-opacity="1"/>
    </linearGradient>
    <linearGradient id="grad_3" y2="1">
      <stop offset="0" stop-color="#E5E5E5" stop-opacity="1"/>
      <stop offset="1" stop-color="#FF9400" stop-opacity="1"/>
    </linearGradient>
    <linearGradient id="grad_4" y2="1">
      <stop offset="0" stop-color="#B2B2B2" stop-opacity="1"/>
      <stop offset="1" stop-color="#FFFFFF" stop-opacity="1"/>
    </linearGradient>
    <linearGradient id="grad_5" y2="1">
      <stop offset="0" stop-color="#FFFFFF" stop-opacity="1"/>
      <stop offset="1" stop-color="#B2B2B2" stop-opacity="1"/>
    </linearGradient>
    <linearGradient id="grad_6" y2="1">
      <stop offset="0" stop-color="#FFFFFF" stop-opacity="1"/>
      <stop offset="1" stop-color="#B2B2B2" stop-opacity="1"/>
    </linearGradient>
  </defs>
  <!-- Exported by Scratch - http://scratch.mit.edu/ -->
  <path id="ID0.23091162228956819" fill="#FFFFFF" stroke="url(#grad_1)" stroke-width="2" stroke-linecap="round" d="M 216 176 C 216.726 173.922 219.231 172.473 220.250 170.250 C 221.429 166.253 220.284 161.321 222.750 157.850 C 224.581 155.222 229.100 155.547 231.250 153.500 C 233.414 151.455 232.707 147.283 235.250 145.500 C 241.111 141.406 252.247 136.218 255.250 137.650 C 257.715 138.842 248.259 146.152 245.750 151.100 C 245.342 152.552 247.548 154.246 247 155.750 C 245.829 158.954 241.179 160.477 240.250 163.850 C 239.773 167.226 243.566 170.467 243.250 173.750 C 243.080 175.446 239.938 175.856 239.750 177.550 C 239.670 183.175 242.580 188.641 242.500 194.250 C 242.480 195.652 239.658 196.184 240 197.500 C 240.533 199.474 243.990 199.842 245 201.850 C 245.886 204.086 243.925 207.172 245.250 209.250 C 247.284 212.435 251.289 213.694 253.750 216.400 C 255.334 217.907 256.189 219.909 257.250 221.750 C 257.736 222.600 257.453 224.079 258.250 224.800 C 259.367 225.514 261.041 224.900 262.250 225.500 C 263.632 226.185 264.702 227.428 265.500 228.800 C 268.279 233.702 269.913 236.805 272.750 240.350 C 275.272 243.497 283.458 247.618 281.250 248.550 C 277.780 250.227 267.726 247.247 261 245.750 C 255.125 244.442 251.325 243.539 243.750 240.350 C 239.682 238.575 236.076 235.421 233.500 231.800 C 228.718 225.077 225.809 217.296 221.750 210.150 C 220.480 207.452 217.694 205.190 217.500 202.250 C 217.370 200.203 221.531 199.409 221.250 197.350 C 220.540 194.783 216.076 194.196 215.250 191.750 C 214.799 190.365 217.022 189.355 217.250 187.800 C 217.365 184.039 215.459 180.113 216.250 176.250 Z " transform="matrix(-0.6571341753005981, 0, 0, 0.8237125277519226, 226.75, -108)"/>
  <path id="ID0.005961917340755463" fill="url(#grad_2)" stroke="url(#grad_3)" stroke-width="2" stroke-linecap="round" d="M 233.250 192.250 C 233.956 194.442 234.971 195.117 235.750 196 C 236.224 196.537 236.734 197.085 237 197.750 C 237.249 198.373 237.250 199.079 237.250 199.750 C 237.250 201.085 236.889 202.420 237 203.750 C 237.059 204.459 237.432 205.114 237.750 205.750 C 238.101 206.452 238.515 207.132 239 207.750 C 239.436 208.305 240.021 208.731 240.500 209.250 C 241.021 209.814 241.605 210.342 242 211 C 242.366 211.610 242.619 212.301 242.750 213 C 242.873 213.655 242.588 214.354 242.750 215 C 242.931 215.722 243.290 216.414 243.750 217 C 244.224 217.604 245.436 217.735 245.500 218.500 C 245.559 219.204 244.436 219.445 244 220 C 243.515 220.618 242.972 221.247 242.750 222 C 242.539 222.719 242.627 223.511 242.750 224.250 C 242.880 225.029 243.147 225.794 243.500 226.500 C 243.820 227.141 244.308 227.687 244.750 228.250 C 245.224 228.854 245.686 229.479 246.250 230 C 246.776 230.486 247.398 230.863 248 231.250 C 248.565 231.613 249.113 232.038 249.750 232.250 C 250.387 232.462 251.084 232.583 251.750 232.500 C 252.456 232.412 253.247 232.253 253.750 231.750 C 254.253 231.247 254.772 230.407 254.500 229.750 C 253.679 227.765 251.512 226.119 250.750 224.500 C 250.512 223.994 251.968 225.091 252.500 225.500 C 253.060 225.931 253.500 226.500 254 227 C 254.500 227.500 254.906 228.118 255.500 228.500 C 256.098 228.885 256.789 229.250 257.500 229.250 C 258.211 229.250 259.254 229.167 259.500 228.500 C 259.961 227.248 259.723 225.748 259.250 224.500 C 258.766 223.223 257.816 222.103 256.750 221.250 C 255.674 220.389 253 220.375 253 219.500 C 253 218.625 255.776 218.724 256.750 217.750 C 257.221 217.279 257.048 216.346 256.750 215.750 C 256.407 215.064 255.583 214.750 255 214.250 C 254.417 213.750 253.946 213.075 253.250 212.750 C 252.642 212.466 251.873 212.749 251.250 212.500 C 250.585 212.234 250.026 211.736 249.500 211.250 C 248.936 210.729 248.426 210.139 248 209.500 C 247.587 208.880 247.365 208.149 247 207.500 C 246.615 206.815 246.305 206.055 245.750 205.500 C 245.195 204.945 244.368 204.735 243.750 204.250 C 243.195 203.814 242.613 203.356 242.250 202.750 C 241.844 202.073 241.681 201.269 241.500 200.500 C 241.346 199.847 241.292 199.170 241.250 198.500 C 241.208 197.835 241.333 197.161 241.250 196.500 C 241.165 195.819 241.040 195.122 240.750 194.500 C 240.447 193.851 239.947 193.309 239.500 192.750 C 238.614 191.643 237.884 190.351 236.750 189.500 C 236.136 189.039 235.174 188.632 234.500 189 C 233.897 189.329 234.167 190.334 234 191 C 233.833 191.666 233.697 192.342 233.500 193 C 233.447 193.178 233.073 193.265 233.250 193.500 Z " transform="matrix(0.370243638753891, 0.7580814957618713, 0.7580814957618713, -0.370243638753891, -163.7, -43.05)"/>
  <path id="ID0.25329854991286993" fill="#000000" stroke="#000000" stroke-width="2" stroke-linecap="round" d="M 199.500 214.500 L 204.500 194.500 L 209 188 L 209.500 181.500 L 206 175 L 213.500 177 L 219.500 185.500 L 220.500 190.500 L 218.500 199 L 219 207 L 222 212.500 L 222 218.500 L 220 226 L 221.500 233 L 218 241 L 205 228 L 202 244 L 186 228.500 L 178 247 L 163.500 230.500 L 155 246 L 145 192 L 156 215 L 164.500 192 L 176.500 214.500 L 187.500 192.500 L 198.500 215.500 Z " transform="matrix(-0.18811777234077454, 0, 0, 0.18811777234077454, 112.6, 11.25)"/>
  <g id="ID0.9368052235804498">
    <path id="ID0.8351161554455757" fill="#000000" stroke="#000000" stroke-width="2" stroke-linecap="round" d="M 250.500 169.900 L 265 161.600 L 266.600 168 L 265.750 170.750 L 263.600 174.100 L 260.100 177 L 254.100 175.250 L 250.750 170.400 Z " transform="matrix(-0.45086702704429626, 0, 0, 0.45086702704429626, 192.35, -37.4)"/>
    <path id="ID0.6134866434149444" fill="#FF0000" stroke="none" d="M 258.250 165.600 C 258.622 165.600 258.960 166.267 259.204 167.344 C 259.449 168.421 259.600 169.908 259.600 171.550 C 259.600 173.192 259.449 174.679 259.204 175.756 C 258.960 176.833 258.622 177.500 258.250 177.500 C 257.878 177.500 257.540 176.833 257.296 175.756 C 257.051 174.679 256.900 173.192 256.900 171.550 C 256.900 169.908 257.051 168.421 257.296 167.344 C 257.540 166.267 257.878 165.600 258.250 165.600 Z " transform="matrix(-0.45086702704429626, 0, 0, 0.45086702704429626, 192.35, -37.4)"/>
  </g>
  <path id="ID0.6895877583883703" fill="#000000" stroke="none" d="M 220.875 168.500 C 221.185 168.500 221.467 168.822 221.670 169.343 C 221.874 169.863 222 170.582 222 171.375 C 222 172.168 221.874 172.887 221.670 173.407 C 221.467 173.928 221.185 174.250 220.875 174.250 C 220.565 174.250 220.283 173.928 220.080 173.407 C 219.876 172.887 219.750 172.168 219.750 171.375 C 219.750 170.582 219.876 169.863 220.080 169.343 C 220.283 168.822 220.565 168.500 220.875 168.500 Z " transform="matrix(-0.44285130500793457, 0, 0, 0.44285130500793457, 178.95, -31.4)"/>
  <path id="ID0.6895877583883703" fill="#000000" stroke="none" d="M 220.875 168.500 C 221.185 168.500 221.467 168.822 221.670 169.343 C 221.874 169.863 222 170.582 222 171.375 C 222 172.168 221.874 172.887 221.670 173.407 C 221.467 173.928 221.185 174.250 220.875 174.250 C 220.565 174.250 220.283 173.928 220.080 173.407 C 219.876 172.887 219.750 172.168 219.750 171.375 C 219.750 170.582 219.876 169.863 220.080 169.343 C 220.283 168.822 220.565 168.500 220.875 168.500 Z " transform="matrix(-0.44285130500793457, 0, 0, 0.44285130500793457, 180.55, -31.3)"/>
  <path id="ID0.23091162228956819" fill="#FFFFFF" stroke="url(#grad_4)" stroke-width="2" stroke-linecap="round" d="M 216 176 C 216.726 173.922 219.231 172.473 220.250 170.250 C 221.429 166.253 220.284 161.321 222.750 157.850 C 224.581 155.222 229.100 155.547 231.250 153.500 C 233.414 151.455 232.707 147.283 235.250 145.500 C 241.111 141.406 252.247 136.218 255.250 137.650 C 257.715 138.842 248.259 146.152 245.750 151.100 C 245.342 152.552 247.548 154.246 247 155.750 C 245.829 158.954 241.179 160.477 240.250 163.850 C 239.773 167.226 243.566 170.467 243.250 173.750 C 243.080 175.446 239.938 175.856 239.750 177.550 C 239.670 183.175 242.580 188.641 242.500 194.250 C 242.480 195.652 239.658 196.184 240 197.500 C 240.533 199.474 243.990 199.842 245 201.850 C 245.886 204.086 243.925 207.172 245.250 209.250 C 247.284 212.435 251.289 213.694 253.750 216.400 C 255.334 217.907 256.189 219.909 257.250 221.750 C 257.736 222.600 257.453 224.079 258.250 224.800 C 259.367 225.514 261.041 224.900 262.250 225.500 C 263.632 226.185 264.702 227.428 265.500 228.800 C 268.279 233.702 269.913 236.805 272.750 240.350 C 275.272 243.497 283.458 247.618 281.250 248.550 C 277.780 250.227 267.726 247.247 261 245.750 C 255.125 244.442 251.325 243.539 243.750 240.350 C 239.682 238.575 236.076 235.421 233.500 231.800 C 228.718 225.077 225.809 217.296 221.750 210.150 C 220.480 207.452 217.694 205.190 217.500 202.250 C 217.370 200.203 221.531 199.409 221.250 197.350 C 220.540 194.783 216.076 194.196 215.250 191.750 C 214.799 190.365 217.022 189.355 217.250 187.800 C 217.365 184.039 215.459 180.113 216.250 176.250 Z " transform="matrix(0.19933068752288818, -9.782091016775316e-17, -3.182078848498976e-16, 0.8237125277519226, -17.65, -111.75)"/>
  <g id="ID0.19045853288844228">
    <g id="ID0.4911339618265629">
      <path id="ID0.43543971981853247" fill="#000000" stroke="none" d="M 269 138.200 C 269.966 138.200 270.841 138.601 271.474 139.248 C 272.108 139.895 272.500 140.789 272.500 141.775 C 272.500 142.761 272.108 143.655 271.474 144.302 C 270.841 144.949 269.966 145.350 269 145.350 C 268.034 145.350 267.159 144.949 266.526 144.302 C 265.892 143.655 265.500 142.761 265.500 141.775 C 265.500 140.789 265.892 139.895 266.526 139.248 C 267.159 138.601 268.034 138.200 269 138.200 Z " transform="matrix(-0.7931034564971924, 0, 0, 0.7931034564971924, 243.65, -90.7)"/>
      <path id="ID0.43543971981853247" fill="#000000" stroke="none" d="M 269 138.200 C 269.966 138.200 270.841 138.601 271.474 139.248 C 272.108 139.895 272.500 140.789 272.500 141.775 C 272.500 142.761 272.108 143.655 271.474 144.302 C 270.841 144.949 269.966 145.350 269 145.350 C 268.034 145.350 267.159 144.949 266.526 144.302 C 265.892 143.655 265.500 142.761 265.500 141.775 C 265.500 140.789 265.892 139.895 266.526 139.248 C 267.159 138.601 268.034 138.200 269 138.200 Z " transform="matrix(-0.7931034564971924, 0, 0, 0.7931034564971924, 237.65, -91.2)"/>
    </g>
    <path id="ID0.3574093491770327" fill="none" stroke="#000000" stroke-width="1" stroke-linecap="round" d="M 285.150 145.200 L 290.800 144.500 " transform="matrix(-1, 0, 0, 1, 314.7, -117.25)"/>
    <path id="ID0.8017133981920779" fill="#FFFF99" stroke="#FFFF99" stroke-width="1" stroke-linecap="round" d="M 289.400 145 L 287.500 145.350 L 287.900 148.600 L 290.800 148 L 289.400 145 Z " transform="matrix(-1, 0, 0, 1, 314.7, -117.25)"/>
  </g>
  <path id="ID0.5964140393771231" fill="none" stroke="#FF0000" stroke-width="2" stroke-linecap="round" d="M 260.750 164.250 C 260.750 164.250 260 162.619 260 161.750 C 260 161.039 260.150 160.132 260.750 159.750 C 261.316 159.390 262.150 159.700 262.750 160 C 263.542 160.396 263.901 161.500 264.750 161.750 C 265.486 161.967 266.368 161.685 267 161.250 C 267.782 160.712 268.142 159.729 268.750 159 C 268.976 158.729 269.500 158.250 269.500 158.250 " transform="matrix(1, 0, 0, 1, -169, -103)"/>
  <path id="ID0.6106984964571893" fill="none" stroke="#FF0000" stroke-width="2" stroke-linecap="round" d="M 253.250 171.250 C 253.250 171.250 254.107 173.515 255 174.250 C 255.655 174.790 256.652 174.703 257.500 174.750 C 258.170 174.787 258.834 174.583 259.500 174.500 C 260.166 174.417 261.049 173.753 261.500 174.250 C 262.181 174.999 261.949 176.238 262 177.250 C 262.034 177.920 261.913 178.599 261.750 179.250 C 261.709 179.413 261.500 179.250 261.500 179.250 " transform="matrix(1, 0, 0, 1, -169, -103)"/>
  <path id="ID0.3336248667910695" fill="none" stroke="#FF0000" stroke-width="2" stroke-linecap="round" d="M 268.750 177.750 C 268.750 177.750 270.965 176.841 272 176.250 C 272.723 175.837 273.435 175.362 274 174.750 C 274.455 174.257 274.442 173.372 275 173 C 275.558 172.628 276.330 172.792 277 172.750 C 277.665 172.708 278.461 173.142 279 172.750 C 279.575 172.332 279.844 171.455 279.750 170.750 C 279.655 170.040 278.500 169 278.500 169 " transform="matrix(1, 0, 0, 1, -169, -103)"/>
  <path id="ID0.005961917340755463" fill="#FFFFFF" stroke="url(#grad_5)" stroke-width="2" stroke-linecap="round" d="M 233.250 192.250 C 233.956 194.442 234.971 195.117 235.750 196 C 236.224 196.537 236.734 197.085 237 197.750 C 237.249 198.373 237.250 199.079 237.250 199.750 C 237.250 201.085 236.889 202.420 237 203.750 C 237.059 204.459 237.432 205.114 237.750 205.750 C 238.101 206.452 238.515 207.132 239 207.750 C 239.436 208.305 240.021 208.731 240.500 209.250 C 241.021 209.814 241.605 210.342 242 211 C 242.366 211.610 242.619 212.301 242.750 213 C 242.873 213.655 242.588 214.354 242.750 215 C 242.931 215.722 243.290 216.414 243.750 217 C 244.224 217.604 245.436 217.735 245.500 218.500 C 245.559 219.204 244.436 219.445 244 220 C 243.515 220.618 242.972 221.247 242.750 222 C 242.539 222.719 242.627 223.511 242.750 224.250 C 242.880 225.029 243.147 225.794 243.500 226.500 C 243.820 227.141 244.308 227.687 244.750 228.250 C 245.224 228.854 245.686 229.479 246.250 230 C 246.776 230.486 247.398 230.863 248 231.250 C 248.565 231.613 249.113 232.038 249.750 232.250 C 250.387 232.462 251.084 232.583 251.750 232.500 C 252.456 232.412 253.247 232.253 253.750 231.750 C 254.253 231.247 254.772 230.407 254.500 229.750 C 253.679 227.765 251.512 226.119 250.750 224.500 C 250.512 223.994 251.968 225.091 252.500 225.500 C 253.060 225.931 253.500 226.500 254 227 C 254.500 227.500 254.906 228.118 255.500 228.500 C 256.098 228.885 256.789 229.250 257.500 229.250 C 258.211 229.250 259.254 229.167 259.500 228.500 C 259.961 227.248 259.723 225.748 259.250 224.500 C 258.766 223.223 257.816 222.103 256.750 221.250 C 255.674 220.389 253 220.375 253 219.500 C 253 218.625 255.776 218.724 256.750 217.750 C 257.221 217.279 257.048 216.346 256.750 215.750 C 256.407 215.064 255.583 214.750 255 214.250 C 254.417 213.750 253.946 213.075 253.250 212.750 C 252.642 212.466 251.873 212.749 251.250 212.500 C 250.585 212.234 250.026 211.736 249.500 211.250 C 248.936 210.729 248.426 210.139 248 209.500 C 247.587 208.880 247.365 208.149 247 207.500 C 246.615 206.815 246.305 206.055 245.750 205.500 C 245.195 204.945 244.368 204.735 243.750 204.250 C 243.195 203.814 242.613 203.356 242.250 202.750 C 241.844 202.073 241.681 201.269 241.500 200.500 C 241.346 199.847 241.292 199.170 241.250 198.500 C 241.208 197.835 241.333 197.161 241.250 196.500 C 241.165 195.819 240.432 196.036 240.750 194.500 C 242.020 188.355 245.570 182.100 245.900 175.600 C 245.979 173.822 243.735 170.413 242.900 171.650 C 238.366 177.361 236.550 184.729 234 191 C 233.362 192.568 233.697 192.342 233.500 193 C 233.447 193.178 233.073 193.265 233.250 193.500 Z " transform="matrix(-0.4970886707305908, 0.0027463464066386223, -0.0031988583505153656, -0.5789933204650879, 154.75, 152.9)"/>
  <path id="ID0.005961917340755463" fill="#CCCCCC" stroke="url(#grad_6)" stroke-width="2" stroke-linecap="round" d="M 199.300 198.800 C 211.468 198.603 223.816 196.261 235.750 196 C 238.733 195.935 236.734 197.085 237 197.750 C 237.249 198.373 237.250 199.079 237.250 199.750 C 237.250 201.085 236.889 202.420 237 203.750 C 237.059 204.459 237.432 205.114 237.750 205.750 C 238.101 206.452 238.515 207.132 239 207.750 C 239.436 208.305 240.021 208.731 240.500 209.250 C 241.021 209.814 241.605 210.342 242 211 C 242.366 211.610 242.619 212.301 242.750 213 C 242.873 213.655 242.588 214.354 242.750 215 C 242.931 215.722 243.290 216.414 243.750 217 C 244.224 217.604 245.436 217.735 245.500 218.500 C 245.559 219.204 244.436 219.445 244 220 C 243.515 220.618 242.972 221.247 242.750 222 C 242.539 222.719 242.627 223.511 242.750 224.250 C 242.880 225.029 243.147 225.794 243.500 226.500 C 243.820 227.141 244.308 227.687 244.750 228.250 C 245.224 228.854 245.686 229.479 246.250 230 C 246.776 230.486 247.398 230.863 248 231.250 C 248.565 231.613 249.113 232.038 249.750 232.250 C 250.387 232.462 251.084 232.583 251.750 232.500 C 252.456 232.412 253.247 232.253 253.750 231.750 C 254.253 231.247 254.772 230.407 254.500 229.750 C 253.679 227.765 251.512 226.119 250.750 224.500 C 250.512 223.994 251.968 225.091 252.500 225.500 C 253.060 225.931 253.500 226.500 254 227 C 254.500 227.500 254.906 228.118 255.500 228.500 C 256.098 228.885 256.789 229.250 257.500 229.250 C 258.211 229.250 259.254 229.167 259.500 228.500 C 259.961 227.248 259.723 225.748 259.250 224.500 C 258.766 223.223 257.816 222.103 256.750 221.250 C 255.674 220.389 253 220.375 253 219.500 C 253 218.625 255.776 218.724 256.750 217.750 C 257.221 217.279 257.048 216.346 256.750 215.750 C 256.407 215.064 255.583 214.750 255 214.250 C 254.417 213.750 253.946 213.075 253.250 212.750 C 252.642 212.466 251.873 212.749 251.250 212.500 C 250.585 212.234 250.026 211.736 249.500 211.250 C 248.936 210.729 248.426 210.139 248 209.500 C 247.587 208.880 247.365 208.149 247 207.500 C 246.615 206.815 246.305 206.055 245.750 205.500 C 245.195 204.945 244.368 204.735 243.750 204.250 C 243.195 203.814 242.613 203.356 242.250 202.750 C 241.844 202.073 241.681 201.269 241.500 200.500 C 241.346 199.847 241.292 199.170 241.250 198.500 C 241.208 197.835 241.333 197.161 241.250 196.500 C 241.165 195.819 241.040 195.122 240.750 194.500 C 240.447 193.851 239.947 193.309 239.500 192.750 C 238.614 191.643 239.777 189.200 236.750 189.500 C 224.644 190.701 212.155 193.731 199.850 196.800 C 197.054 197.481 196.257 198.849 199.300 198.800 Z " transform="matrix(-0.37469378113746643, -0.3266638517379761, 0.4618631899356842, -0.5297716856002808, 11.3, 224.05)"/>
  <path id="ID0.18217902956530452" fill="#003FFF" stroke="#003FFF" stroke-width="2" stroke-linecap="round" d="M 203.750 117.750 C 204.298 117.408 205.662 117.353 207 117.250 C 207.830 117.186 208.676 117.132 209.500 117.250 C 210.440 117.384 211.354 117.686 212.250 118 C 213.024 118.271 213.874 118.470 214.500 119 C 215.012 119.434 215.368 120.092 215.500 120.750 C 215.632 121.408 215.622 122.192 215.250 122.750 C 214.878 123.308 214.137 123.538 213.500 123.750 C 212.863 123.962 212.160 124.124 211.500 124 C 210.768 123.863 210.120 123.413 209.500 123 C 208.861 122.574 208.442 121.831 207.750 121.500 C 206.491 120.898 204.975 120.918 203.750 120.250 C 203.076 119.882 202.471 119.235 202.250 118.500 C 202.149 118.162 202.658 117.840 203 117.750 Z " transform="matrix(0.44676172733306885, 0.09861629456281662, -0.09861629456281662, 0.44676172733306885, -43.9, -53.8)"/>
  <path id="ID0.18217902956530452" fill="#003FFF" stroke="#003FFF" stroke-width="2" stroke-linecap="round" d="M 203.750 117.750 C 204.298 117.408 205.662 117.353 207 117.250 C 207.830 117.186 208.676 117.132 209.500 117.250 C 210.440 117.384 211.354 117.686 212.250 118 C 213.024 118.271 213.874 118.470 214.500 119 C 215.012 119.434 215.368 120.092 215.500 120.750 C 215.632 121.408 215.622 122.192 215.250 122.750 C 214.878 123.308 214.137 123.538 213.500 123.750 C 212.863 123.962 212.160 124.124 211.500 124 C 210.768 123.863 210.120 123.413 209.500 123 C 208.861 122.574 208.442 121.831 207.750 121.500 C 206.491 120.898 204.975 120.918 203.750 120.250 C 203.076 119.882 202.471 119.235 202.250 118.500 C 202.149 118.162 202.658 117.840 203 117.750 Z " transform="matrix(-0.44676172733306885, 0.09861629456281662, 0.09861629456281662, 0.44676172733306885, 97.3, -59.85)"/>
  <path id="ID0.18217902956530452" fill="#003FFF" stroke="#003FFF" stroke-width="2" stroke-linecap="round" d="M 203.750 117.750 C 204.298 117.408 205.662 117.353 207 117.250 C 207.830 117.186 208.676 117.132 209.500 117.250 C 210.440 117.384 211.354 117.686 212.250 118 C 213.024 118.271 213.874 118.470 214.500 119 C 215.012 119.434 215.368 120.092 215.500 120.750 C 215.632 121.408 215.622 122.192 215.250 122.750 C 214.878 123.308 214.137 123.538 213.500 123.750 C 212.863 123.962 212.160 124.124 211.500 124 C 210.768 123.863 210.120 123.413 209.500 123 C 208.861 122.574 208.442 121.831 207.750 121.500 C 206.491 120.898 204.975 120.918 203.750 120.250 C 203.076 119.882 202.471 119.235 202.250 118.500 C 202.149 118.162 202.658 117.840 203 117.750 Z " transform="matrix(0.41052916646003723, -0.20195795595645905, 0.20195795595645905, 0.41052916646003723, -71.1, 1.9)"/>
</svg>