<svg version="1.1" width="37" height="25" viewBox="-1 0 37 25" xmlns="http://www.w3.org/2000/svg" xmlns:xlink="http://www.w3.org/1999/xlink">
  <defs>
    <linearGradient id="grad_1" y2="1">
      <stop offset="0" stop-color="#00FF55" stop-opacity="1"/>
      <stop offset="1" stop-color="#00FF55" stop-opacity="0"/>
    </linearGradient>
  </defs>
  <!-- Exported by Scratch - http://scratch.mit.edu/ -->
  <g id="ID0.8511621891520917" transform="matrix(1.5530145168304443, 0, 0, 1.5530145168304443, -0.75, -0.75)">
    <path id="ID0.3587041120044887" fill="url(#grad_1)" stroke="#00CC44" stroke-width="2" stroke-linecap="round" d="M 238.750 163 C 237.227 164.173 236.979 164.333 236.750 164.500 C 236.110 164.968 235.526 165.513 234.900 166 C 234.243 166.512 233.537 166.964 232.900 167.500 C 232.269 168.031 231.610 168.552 231.100 169.200 C 230.551 169.898 230.125 170.695 229.750 171.500 C 229.455 172.135 229.319 172.835 229.100 173.500 C 228.869 174.200 228.626 174.898 228.400 175.600 C 228.176 176.297 228.007 177.015 227.750 177.700 C 227.507 178.349 227.127 178.945 226.900 179.600 C 226.675 180.249 226.507 180.922 226.400 181.600 C 226.290 182.292 226.217 183 226.250 183.700 C 226.284 184.425 226.459 185.138 226.600 185.850 C 226.743 186.571 226.995 187.272 227.100 188 C 227.212 188.776 227.223 189.566 227.250 190.350 C 227.273 191.016 227.226 191.684 227.250 192.350 C 227.276 193.067 227.139 193.831 227.400 194.500 C 227.662 195.174 228.269 195.660 228.750 196.200 C 229.220 196.728 229.742 197.209 230.250 197.700 C 230.741 198.175 231.185 198.716 231.750 199.100 C 232.860 199.855 234.031 200.539 235.250 201.100 C 235.925 201.411 236.669 201.568 237.400 201.700 C 238.057 201.819 238.733 201.826 239.400 201.850 C 240.132 201.876 240.870 201.909 241.600 201.850 C 242.323 201.792 243.049 201.687 243.750 201.500 C 244.488 201.303 245.218 201.043 245.900 200.700 C 247.804 199.742 249.982 199.097 251.500 197.600 C 252.521 196.593 252.559 194.929 253.100 193.600 C 253.359 192.964 253.641 192.336 253.900 191.700 C 254.441 190.371 255.109 189.080 255.500 187.700 C 255.682 187.058 255.654 186.365 255.600 185.700 C 255.486 184.292 255.136 182.906 255 181.500 C 254.936 180.837 255.096 180.159 255 179.500 C 254.795 178.101 254.456 176.719 254.100 175.350 C 253.922 174.667 253.739 173.969 253.400 173.350 C 252.700 172.075 251.968 170.785 251 169.700 C 250.016 168.598 248.748 167.780 247.600 166.850 C 246.550 165.998 245.530 165.092 244.400 164.350 C 243.821 163.969 243.177 163.648 242.500 163.500 C 241.849 163.358 241.161 163.421 240.500 163.500 C 239.488 163.621 238.484 163.837 237.500 164.100 Z " transform="matrix(-0.5643072128295898, 0, 0, 0.5643072128295898, 154.35, -89.95)"/>
    <path id="ID0.7443890641443431" fill="none" stroke="#009933" stroke-width="2" stroke-linecap="round" d="M 255.400 180.800 L 265.400 188.200 L 261.500 190.200 L 259 196.600 " transform="matrix(-0.5643072128295898, 0, 0, 0.5643072128295898, 154.35, -89.95)"/>
    <path id="ID0.49578921450302005" fill="none" stroke="#009933" stroke-width="2" stroke-linecap="round" d="M 265.750 196.500 L 262.750 194.600 L 265.400 188.600 L 270.100 191.300 L 271.250 195.200 " transform="matrix(-0.5643072128295898, 0, 0, 0.5643072128295898, 154.35, -89.95)"/>
    <path id="ID0.5159912728704512" fill="none" stroke="#009933" stroke-width="2" stroke-linecap="round" d="M 227.750 178.800 L 219.400 183.500 L 214.100 182.300 L 210.250 187.350 " transform="matrix(-0.5643072128295898, 0, 0, 0.5643072128295898, 154.35, -89.95)"/>
    <path id="ID0.7139761378057301" fill="none" stroke="#009933" stroke-width="2" stroke-linecap="round" d="M 214.100 182.850 L 214 189.100 " transform="matrix(-0.5643072128295898, 0, 0, 0.5643072128295898, 154.35, -89.95)"/>
    <path id="ID0.8083316585980356" fill="none" stroke="#009933" stroke-width="2" stroke-linecap="round" d="M 218.750 183 L 218.400 190.700 " transform="matrix(-0.5643072128295898, 0, 0, 0.5643072128295898, 154.35, -89.95)"/>
    <path id="ID0.2335642226971686" fill="#FFFF00" stroke="#FF9400" stroke-width="2" d="M 237.200 169.850 C 238.359 169.850 239.409 170.508 240.169 171.572 C 240.929 172.635 241.400 174.104 241.400 175.725 C 241.400 177.346 240.929 178.815 240.169 179.878 C 239.409 180.942 238.359 181.600 237.200 181.600 C 236.041 181.600 234.991 180.942 234.231 179.878 C 233.471 178.815 233 177.346 233 175.725 C 233 174.104 233.471 172.635 234.231 171.572 C 234.991 170.508 236.041 169.850 237.200 169.850 Z " transform="matrix(-0.5643072128295898, 0, 0, 0.5643072128295898, 155.1, -90.5)"/>
    <path id="ID0.2335642226971686" fill="#FFFF00" stroke="#FF9400" stroke-width="2" d="M 237.200 169.850 C 238.359 169.850 239.409 170.508 240.169 171.572 C 240.929 172.635 241.400 174.104 241.400 175.725 C 241.400 177.346 240.929 178.815 240.169 179.878 C 239.409 180.942 238.359 181.600 237.200 181.600 C 236.041 181.600 234.991 180.942 234.231 179.878 C 233.471 178.815 233 177.346 233 175.725 C 233 174.104 233.471 172.635 234.231 171.572 C 234.991 170.508 236.041 169.850 237.200 169.850 Z " transform="matrix(-0.5643072128295898, 0, 0, 0.5643072128295898, 151.4, -90.55)"/>
    <path id="ID0.6735104932449758" fill="none" stroke="#000000" stroke-width="2" stroke-linecap="round" d="M 230 183 C 230 183 231.659 185.620 232.750 186.700 C 233.279 187.224 234.047 187.454 234.750 187.700 C 235.391 187.924 236.074 188.032 236.750 188.100 C 237.413 188.166 238.086 188.154 238.750 188.100 C 240.137 187.987 241.546 187.925 242.900 187.600 C 243.653 187.419 244.313 186.957 245 186.600 C 245.596 186.291 246.210 185.999 246.750 185.600 C 247.300 185.194 247.771 184.687 248.250 184.200 C 248.721 183.721 249.140 183.190 249.600 182.700 C 249.715 182.577 249.750 182.600 249.750 182.600 " transform="matrix(-0.5643072128295898, 0, 0, 0.5643072128295898, 154.35, -89.95)"/>
    <path id="ID0.32582709565758705" fill="none" stroke="#000000" stroke-width="2" stroke-linecap="round" d="M 229.600 165.850 C 229.600 165.850 232.541 166.243 234 166.500 C 235.373 166.742 236.753 166.991 238.100 167.350 C 238.757 167.525 239.335 167.955 240 168.100 C 240.652 168.242 241.355 168.368 242 168.200 C 243.314 167.857 244.523 167.180 245.750 166.600 C 246.357 166.313 246.898 165.896 247.500 165.600 C 247.983 165.362 249 165 249 165 " transform="matrix(-0.5643072128295898, 0, 0, 0.5643072128295898, 154.35, -89.95)"/>
  </g>
</svg>