<svg version="1.1" width="44" height="60" viewBox="2 -1 44 60" xmlns="http://www.w3.org/2000/svg" xmlns:xlink="http://www.w3.org/1999/xlink">
  <!-- Exported by Scratch - http://scratch.mit.edu/ -->
  <g id="ID0.5903293360024691" transform="matrix(1, 0, 0, 1, 0, -0.3)">
    <path id="ID0.7179879313334823" fill="none" stroke="#000000" stroke-width="2" stroke-linecap="round" d="M 253.200 179.750 L 265.500 184.850 L 255 190.350 " transform="matrix(-0.5343077182769775, 0.5308369398117065, 0.5308369398117065, 0.5343077182769775, 75.05, -197.2)"/>
    <path id="ID0.26264452934265137" fill="none" stroke="#000000" stroke-width="2" stroke-linecap="round" d="M 268.500 169.150 L 260.150 164.500 L 259.600 173.750 " transform="matrix(0.4726644456386566, 0.3955777883529663, 0.3955777883529663, -0.4726644456386566, -148.8, 14.15)"/>
    <path id="ID0.1994128692895174" fill="none" stroke="#000000" stroke-width="2" stroke-linecap="round" d="M 260.850 165.500 L 264.500 173.250 " transform="matrix(0.4726644456386566, 0.3955777883529663, 0.3955777883529663, -0.4726644456386566, -148.8, 14.15)"/>
  </g>
  <path id="ID0.8365832129493356" fill="none" stroke="#666666" stroke-width="2" stroke-linecap="round" d="M 177.350 190 " transform="matrix(1, 0, 0, 1, -242, -210)"/>
  <path id="ID0.8365832129493356" fill="none" stroke="#666666" stroke-width="2" stroke-linecap="round" d="M 177.350 190 " transform="matrix(1, 0, 0, 1, -400, -276)"/>
  <path id="ID0.8365832129493356" fill="none" stroke="#666666" stroke-width="2" stroke-linecap="round" d="M 177.350 190 " transform="matrix(1, 0, 0, 1, -361, -117)"/>
  <path id="ID0.8365832129493356" fill="none" stroke="#666666" stroke-width="2" stroke-linecap="round" d="M 177.350 190 " transform="matrix(1, 0, 0, 1, -246, -320)"/>
  <path id="ID0.5099258632399142" fill="#009933" stroke="#006622" stroke-width="2" stroke-linecap="round" d="M 232 176 C 231.209 174.762 231.462 174.349 231.350 174 C 231.121 173.291 230.697 172.659 230.350 172 C 230.031 171.393 229.750 170.757 229.350 170.200 C 228.514 169.036 227.663 167.863 226.650 166.850 C 225.653 165.853 224.639 164.771 223.350 164.200 C 221.926 163.569 220.301 163.491 218.750 163.350 C 218.082 163.289 217.370 163.342 216.750 163.600 C 216.126 163.860 215.593 164.339 215.150 164.850 C 214.710 165.357 214.420 165.986 214.150 166.600 C 213.868 167.241 213.568 167.903 213.500 168.600 C 213.432 169.301 213.535 170.029 213.750 170.700 C 213.959 171.353 214.299 171.983 214.750 172.500 C 215.234 173.054 215.958 173.352 216.500 173.850 C 216.995 174.305 217.336 174.917 217.850 175.350 C 218.394 175.808 219.006 176.199 219.650 176.500 C 221.610 177.417 223.699 178.063 225.650 179 C 226.275 179.300 226.812 179.763 227.350 180.200 C 227.880 180.631 228.289 181.209 228.850 181.600 C 229.400 181.983 229.984 182.578 230.650 182.500 C 231.332 182.420 231.813 181.729 232.250 181.200 C 232.696 180.660 233.160 180.044 233.250 179.350 C 233.338 178.669 233.030 177.977 232.750 177.350 C 232.390 176.544 231.690 175.914 231.350 175.100 Z " transform="matrix(-0.4205758273601532, 0, 0, 0.4205758273601532, 120.5, -67.75)"/>
  <path id="ID0.5099258632399142" fill="#009933" stroke="#006622" stroke-width="2" stroke-linecap="round" d="M 232 176 C 231.209 174.762 231.462 174.349 231.350 174 C 231.121 173.291 230.697 172.659 230.350 172 C 230.031 171.393 229.750 170.757 229.350 170.200 C 228.514 169.036 227.663 167.863 226.650 166.850 C 225.653 165.853 224.639 164.771 223.350 164.200 C 221.926 163.569 220.301 163.491 218.750 163.350 C 218.082 163.289 217.370 163.342 216.750 163.600 C 216.126 163.860 215.593 164.339 215.150 164.850 C 214.710 165.357 214.420 165.986 214.150 166.600 C 213.868 167.241 213.568 167.903 213.500 168.600 C 213.432 169.301 213.535 170.029 213.750 170.700 C 213.959 171.353 214.299 171.983 214.750 172.500 C 215.234 173.054 215.958 173.352 216.500 173.850 C 216.995 174.305 217.336 174.917 217.850 175.350 C 218.394 175.808 219.006 176.199 219.650 176.500 C 221.610 177.417 223.699 178.063 225.650 179 C 226.275 179.300 226.812 179.763 227.350 180.200 C 227.880 180.631 228.289 181.209 228.850 181.600 C 229.400 181.983 229.984 182.578 230.650 182.500 C 231.332 182.420 231.813 181.729 232.250 181.200 C 232.696 180.660 233.160 180.044 233.250 179.350 C 233.338 178.669 233.030 177.977 232.750 177.350 C 232.390 176.544 231.690 175.914 231.350 175.100 Z " transform="matrix(0.4205757975578308, 0, 0, 0.4205757975578308, -73.85, -67.5)"/>
  <path id="ID0.5099258632399142" fill="#009933" stroke="#006622" stroke-width="2" stroke-linecap="round" d="M 232 176 C 231.209 174.762 231.462 174.349 231.350 174 C 231.121 173.291 230.697 172.659 230.350 172 C 230.031 171.393 229.750 170.757 229.350 170.200 C 228.514 169.036 227.663 167.863 226.650 166.850 C 225.653 165.853 224.639 164.771 223.350 164.200 C 221.926 163.569 220.301 163.491 218.750 163.350 C 218.082 163.289 217.370 163.342 216.750 163.600 C 216.126 163.860 215.593 164.339 215.150 164.850 C 214.710 165.357 214.420 165.986 214.150 166.600 C 213.868 167.241 213.568 167.903 213.500 168.600 C 213.432 169.301 213.535 170.029 213.750 170.700 C 213.959 171.353 214.299 171.983 214.750 172.500 C 215.234 173.054 215.958 173.352 216.500 173.850 C 216.995 174.305 217.336 174.917 217.850 175.350 C 218.394 175.808 219.006 176.199 219.650 176.500 C 221.610 177.417 223.699 178.063 225.650 179 C 226.275 179.300 226.812 179.763 227.350 180.200 C 227.880 180.631 228.289 181.209 228.850 181.600 C 229.400 181.983 229.984 182.578 230.650 182.500 C 231.332 182.420 231.813 181.729 232.250 181.200 C 232.696 180.660 233.160 180.044 233.250 179.350 C 233.338 178.669 233.030 177.977 232.750 177.350 C 232.390 176.544 231.690 175.914 231.350 175.100 Z " transform="matrix(-0.4205757975578308, 0, 0, 0.4205757975578308, 121.25, -65)"/>
  <path id="ID0.5099258632399142" fill="#009933" stroke="#006622" stroke-width="2" stroke-linecap="round" d="M 232 176 C 231.209 174.762 231.462 174.349 231.350 174 C 231.121 173.291 230.697 172.659 230.350 172 C 230.031 171.393 229.750 170.757 229.350 170.200 C 228.514 169.036 227.663 167.863 226.650 166.850 C 225.653 165.853 224.639 164.771 223.350 164.200 C 221.926 163.569 220.301 163.491 218.750 163.350 C 218.082 163.289 217.370 163.342 216.750 163.600 C 216.126 163.860 215.593 164.339 215.150 164.850 C 214.710 165.357 214.420 165.986 214.150 166.600 C 213.868 167.241 213.568 167.903 213.500 168.600 C 213.432 169.301 213.535 170.029 213.750 170.700 C 213.959 171.353 214.299 171.983 214.750 172.500 C 215.234 173.054 215.958 173.352 216.500 173.850 C 216.995 174.305 217.336 174.917 217.850 175.350 C 218.394 175.808 219.006 176.199 219.650 176.500 C 221.610 177.417 223.699 178.063 225.650 179 C 226.275 179.300 226.812 179.763 227.350 180.200 C 227.880 180.631 228.289 181.209 228.850 181.600 C 229.400 181.983 229.984 182.578 230.650 182.500 C 231.332 182.420 231.813 181.729 232.250 181.200 C 232.696 180.660 233.160 180.044 233.250 179.350 C 233.338 178.669 233.030 177.977 232.750 177.350 C 232.390 176.544 231.690 175.914 231.350 175.100 Z " transform="matrix(0.4205757975578308, 0, 0, 0.4205757975578308, -74.65, -64.75)"/>
  <path id="ID0.5099258632399142" fill="#009933" stroke="#006622" stroke-width="2" stroke-linecap="round" d="M 232 176 C 231.209 174.762 231.462 174.349 231.350 174 C 231.121 173.291 230.697 172.659 230.350 172 C 230.031 171.393 229.750 170.757 229.350 170.200 C 228.514 169.036 227.663 167.863 226.650 166.850 C 225.653 165.853 224.639 164.771 223.350 164.200 C 221.926 163.569 220.301 163.491 218.750 163.350 C 218.082 163.289 217.370 163.342 216.750 163.600 C 216.126 163.860 215.593 164.339 215.150 164.850 C 214.710 165.357 214.420 165.986 214.150 166.600 C 213.868 167.241 213.568 167.903 213.500 168.600 C 213.432 169.301 213.535 170.029 213.750 170.700 C 213.959 171.353 214.299 171.983 214.750 172.500 C 215.234 173.054 215.958 173.352 216.500 173.850 C 216.995 174.305 217.336 174.917 217.850 175.350 C 218.394 175.808 219.006 176.199 219.650 176.500 C 221.610 177.417 223.699 178.063 225.650 179 C 226.275 179.300 226.812 179.763 227.350 180.200 C 227.880 180.631 228.289 181.209 228.850 181.600 C 229.400 181.983 229.984 182.578 230.650 182.500 C 231.332 182.420 231.813 181.729 232.250 181.200 C 232.696 180.660 233.160 180.044 233.250 179.350 C 233.338 178.669 233.030 177.977 232.750 177.350 C 232.390 176.544 231.690 175.914 231.350 175.100 Z " transform="matrix(0.4205757975578308, 0, 0, 0.4205757975578308, -79.65, -63.2)"/>
  <path id="ID0.5099258632399142" fill="#009933" stroke="#006622" stroke-width="2" stroke-linecap="round" d="M 232 176 C 231.209 174.762 231.462 174.349 231.350 174 C 231.121 173.291 230.697 172.659 230.350 172 C 230.031 171.393 229.750 170.757 229.350 170.200 C 228.514 169.036 227.663 167.863 226.650 166.850 C 225.653 165.853 224.639 164.771 223.350 164.200 C 221.926 163.569 220.301 163.491 218.750 163.350 C 218.082 163.289 217.370 163.342 216.750 163.600 C 216.126 163.860 215.593 164.339 215.150 164.850 C 214.710 165.357 214.420 165.986 214.150 166.600 C 213.868 167.241 213.568 167.903 213.500 168.600 C 213.432 169.301 213.535 170.029 213.750 170.700 C 213.959 171.353 214.299 171.983 214.750 172.500 C 215.234 173.054 215.958 173.352 216.500 173.850 C 216.995 174.305 217.336 174.917 217.850 175.350 C 218.394 175.808 219.006 176.199 219.650 176.500 C 221.610 177.417 223.699 178.063 225.650 179 C 226.275 179.300 226.812 179.763 227.350 180.200 C 227.880 180.631 228.289 181.209 228.850 181.600 C 229.400 181.983 229.984 182.578 230.650 182.500 C 231.332 182.420 231.813 181.729 232.250 181.200 C 232.696 180.660 233.160 180.044 233.250 179.350 C 233.338 178.669 233.030 177.977 232.750 177.350 C 232.390 176.544 231.690 175.914 231.350 175.100 Z " transform="matrix(-0.4205757975578308, 0, 0, 0.4205757975578308, 126, -63)"/>
  <path id="ID0.22532706055790186" fill="#E9FF51" stroke="#D0E448" stroke-width="2" d="M 239.500 153 C 250.122 153 259.747 158.491 266.716 167.361 C 273.686 176.231 278 188.481 278 202 C 278 215.519 273.686 227.769 266.716 236.639 C 259.747 245.509 250.122 251 239.500 251 C 228.878 251 219.253 245.509 212.284 236.639 C 205.314 227.769 201 215.519 201 202 C 201 188.481 205.314 176.231 212.284 167.361 C 219.253 158.491 228.878 153 239.500 153 Z " transform="matrix(-0.3318413197994232, 0, 0, 0.3318413197994232, 102.1, -34.2)"/>
  <path id="ID0.8235992449335754" fill="none" stroke="#D0E448" stroke-width="2" stroke-linecap="round" d="M 213.250 189.400 L 219.850 183.500 L 226.250 189.500 L 234 183 L 240.150 189.400 L 247.250 182.700 L 254.350 190.150 " transform="matrix(-0.37486669421195984, 0, 0, 0.37486669421195984, 110.25, -50.45)"/>
  <path id="ID0.5099258632399142" fill="#009933" stroke="#006622" stroke-width="2" stroke-linecap="round" d="M 232 176 C 231.209 174.762 231.462 174.349 231.350 174 C 231.121 173.291 230.697 172.659 230.350 172 C 230.031 171.393 229.750 170.757 229.350 170.200 C 228.514 169.036 227.663 167.863 226.650 166.850 C 225.653 165.853 224.639 164.771 223.350 164.200 C 221.926 163.569 220.301 163.491 218.750 163.350 C 218.082 163.289 217.370 163.342 216.750 163.600 C 216.126 163.860 215.593 164.339 215.150 164.850 C 214.710 165.357 214.420 165.986 214.150 166.600 C 213.868 167.241 213.568 167.903 213.500 168.600 C 213.432 169.301 213.535 170.029 213.750 170.700 C 213.959 171.353 214.299 171.983 214.750 172.500 C 215.234 173.054 215.958 173.352 216.500 173.850 C 216.995 174.305 217.336 174.917 217.850 175.350 C 218.394 175.808 219.006 176.199 219.650 176.500 C 221.610 177.417 223.699 178.063 225.650 179 C 226.275 179.300 226.812 179.763 227.350 180.200 C 227.880 180.631 228.289 181.209 228.850 181.600 C 229.400 181.983 229.984 182.578 230.650 182.500 C 231.332 182.420 231.813 181.729 232.250 181.200 C 232.696 180.660 233.160 180.044 233.250 179.350 C 233.338 178.669 233.030 177.977 232.750 177.350 C 232.390 176.544 231.690 175.914 231.350 175.100 Z " transform="matrix(-0.4205757975578308, 0, 0, 0.4205757975578308, 124.55, -57.95)"/>
  <path id="ID0.5099258632399142" fill="#009933" stroke="#006622" stroke-width="2" stroke-linecap="round" d="M 232 176 C 231.209 174.762 231.462 174.349 231.350 174 C 231.121 173.291 230.697 172.659 230.350 172 C 230.031 171.393 229.750 170.757 229.350 170.200 C 228.514 169.036 227.663 167.863 226.650 166.850 C 225.653 165.853 224.639 164.771 223.350 164.200 C 221.926 163.569 220.301 163.491 218.750 163.350 C 218.082 163.289 217.370 163.342 216.750 163.600 C 216.126 163.860 215.593 164.339 215.150 164.850 C 214.710 165.357 214.420 165.986 214.150 166.600 C 213.868 167.241 213.568 167.903 213.500 168.600 C 213.432 169.301 213.535 170.029 213.750 170.700 C 213.959 171.353 214.299 171.983 214.750 172.500 C 215.234 173.054 215.958 173.352 216.500 173.850 C 216.995 174.305 217.336 174.917 217.850 175.350 C 218.394 175.808 219.006 176.199 219.650 176.500 C 221.610 177.417 223.699 178.063 225.650 179 C 226.275 179.300 226.812 179.763 227.350 180.200 C 227.880 180.631 228.289 181.209 228.850 181.600 C 229.400 181.983 229.984 182.578 230.650 182.500 C 231.332 182.420 231.813 181.729 232.250 181.200 C 232.696 180.660 233.160 180.044 233.250 179.350 C 233.338 178.669 233.030 177.977 232.750 177.350 C 232.390 176.544 231.690 175.914 231.350 175.100 Z " transform="matrix(0.4205757975578308, 0, 0, 0.4205757975578308, -79.85, -57.9)"/>
  <path id="ID0.5099258632399142" fill="#009933" stroke="#006622" stroke-width="2" stroke-linecap="round" d="M 232 176 C 231.209 174.762 231.462 174.349 231.350 174 C 231.121 173.291 230.697 172.659 230.350 172 C 230.031 171.393 229.750 170.757 229.350 170.200 C 228.514 169.036 227.663 167.863 226.650 166.850 C 225.653 165.853 224.639 164.771 223.350 164.200 C 221.926 163.569 220.301 163.491 218.750 163.350 C 218.082 163.289 217.370 163.342 216.750 163.600 C 216.126 163.860 215.593 164.339 215.150 164.850 C 214.710 165.357 214.420 165.986 214.150 166.600 C 213.868 167.241 213.568 167.903 213.500 168.600 C 213.432 169.301 213.535 170.029 213.750 170.700 C 213.959 171.353 214.299 171.983 214.750 172.500 C 215.234 173.054 215.958 173.352 216.500 173.850 C 216.995 174.305 217.336 174.917 217.850 175.350 C 218.394 175.808 219.006 176.199 219.650 176.500 C 221.610 177.417 223.699 178.063 225.650 179 C 226.275 179.300 226.812 179.763 227.350 180.200 C 227.880 180.631 228.289 181.209 228.850 181.600 C 229.400 181.983 229.984 182.578 230.650 182.500 C 231.332 182.420 231.813 181.729 232.250 181.200 C 232.696 180.660 233.160 180.044 233.250 179.350 C 233.338 178.669 233.030 177.977 232.750 177.350 C 232.390 176.544 231.690 175.914 231.350 175.100 Z " transform="matrix(-0.4205757975578308, 0, 0, 0.4205757975578308, 121.8, -59.45)"/>
  <path id="ID0.5099258632399142" fill="#009933" stroke="#006622" stroke-width="2" stroke-linecap="round" d="M 232 176 C 231.209 174.762 231.462 174.349 231.350 174 C 231.121 173.291 230.697 172.659 230.350 172 C 230.031 171.393 229.750 170.757 229.350 170.200 C 228.514 169.036 227.663 167.863 226.650 166.850 C 225.653 165.853 224.639 164.771 223.350 164.200 C 221.926 163.569 220.301 163.491 218.750 163.350 C 218.082 163.289 217.370 163.342 216.750 163.600 C 216.126 163.860 215.593 164.339 215.150 164.850 C 214.710 165.357 214.420 165.986 214.150 166.600 C 213.868 167.241 213.568 167.903 213.500 168.600 C 213.432 169.301 213.535 170.029 213.750 170.700 C 213.959 171.353 214.299 171.983 214.750 172.500 C 215.234 173.054 215.958 173.352 216.500 173.850 C 216.995 174.305 217.336 174.917 217.850 175.350 C 218.394 175.808 219.006 176.199 219.650 176.500 C 221.610 177.417 223.699 178.063 225.650 179 C 226.275 179.300 226.812 179.763 227.350 180.200 C 227.880 180.631 228.289 181.209 228.850 181.600 C 229.400 181.983 229.984 182.578 230.650 182.500 C 231.332 182.420 231.813 181.729 232.250 181.200 C 232.696 180.660 233.160 180.044 233.250 179.350 C 233.338 178.669 233.030 177.977 232.750 177.350 C 232.390 176.544 231.690 175.914 231.350 175.100 Z " transform="matrix(0.4205757975578308, 0, 0, 0.4205757975578308, -76.9, -59.3)"/>
  <path id="ID0.5099258632399142" fill="#009933" stroke="#006622" stroke-width="2" stroke-linecap="round" d="M 232 176 C 231.209 174.762 231.462 174.349 231.350 174 C 231.121 173.291 230.697 172.659 230.350 172 C 230.031 171.393 229.750 170.757 229.350 170.200 C 228.514 169.036 227.663 167.863 226.650 166.850 C 225.653 165.853 224.639 164.771 223.350 164.200 C 221.926 163.569 220.301 163.491 218.750 163.350 C 218.082 163.289 217.370 163.342 216.750 163.600 C 216.126 163.860 215.593 164.339 215.150 164.850 C 214.710 165.357 214.420 165.986 214.150 166.600 C 213.868 167.241 213.568 167.903 213.500 168.600 C 213.432 169.301 213.535 170.029 213.750 170.700 C 213.959 171.353 214.299 171.983 214.750 172.500 C 215.234 173.054 215.958 173.352 216.500 173.850 C 216.995 174.305 217.336 174.917 217.850 175.350 C 218.394 175.808 219.006 176.199 219.650 176.500 C 221.610 177.417 223.699 178.063 225.650 179 C 226.275 179.300 226.812 179.763 227.350 180.200 C 227.880 180.631 228.289 181.209 228.850 181.600 C 229.400 181.983 229.984 182.578 230.650 182.500 C 231.332 182.420 231.813 181.729 232.250 181.200 C 232.696 180.660 233.160 180.044 233.250 179.350 C 233.338 178.669 233.030 177.977 232.750 177.350 C 232.390 176.544 231.690 175.914 231.350 175.100 Z " transform="matrix(-0.4205757975578308, 0, 0, 0.4205757975578308, 119.3, -59.8)"/>
  <path id="ID0.5099258632399142" fill="#009933" stroke="#006622" stroke-width="2" stroke-linecap="round" d="M 232 176 C 231.209 174.762 231.462 174.349 231.350 174 C 231.121 173.291 230.697 172.659 230.350 172 C 230.031 171.393 229.750 170.757 229.350 170.200 C 228.514 169.036 227.663 167.863 226.650 166.850 C 225.653 165.853 224.639 164.771 223.350 164.200 C 221.926 163.569 220.301 163.491 218.750 163.350 C 218.082 163.289 217.370 163.342 216.750 163.600 C 216.126 163.860 215.593 164.339 215.150 164.850 C 214.710 165.357 214.420 165.986 214.150 166.600 C 213.868 167.241 213.568 167.903 213.500 168.600 C 213.432 169.301 213.535 170.029 213.750 170.700 C 213.959 171.353 214.299 171.983 214.750 172.500 C 215.234 173.054 215.958 173.352 216.500 173.850 C 216.995 174.305 217.336 174.917 217.850 175.350 C 218.394 175.808 219.006 176.199 219.650 176.500 C 221.610 177.417 223.699 178.063 225.650 179 C 226.275 179.300 226.812 179.763 227.350 180.200 C 227.880 180.631 228.289 181.209 228.850 181.600 C 229.400 181.983 229.984 182.578 230.650 182.500 C 231.332 182.420 231.813 181.729 232.250 181.200 C 232.696 180.660 233.160 180.044 233.250 179.350 C 233.338 178.669 233.030 177.977 232.750 177.350 C 232.390 176.544 231.690 175.914 231.350 175.100 Z " transform="matrix(0.4205757975578308, 0, 0, 0.4205757975578308, -74.4, -59.7)"/>
  <path id="ID0.8235992449335754" fill="none" stroke="#D0E448" stroke-width="2" stroke-linecap="round" d="M 213.250 189.400 L 219.850 183.500 L 226.250 189.500 L 234 183 L 240.150 189.400 L 247.250 182.700 L 254.350 190.150 " transform="matrix(-0.37486669421195984, 0, 0, 0.37486669421195984, 110.25, -25.8)"/>
  <path id="ID0.8235992449335754" fill="none" stroke="#D0E448" stroke-width="2" stroke-linecap="round" d="M 213.250 189.400 L 219.850 183.500 L 226.250 189.500 L 234 183 L 240.150 189.400 L 247.250 182.700 L 254.350 190.150 " transform="matrix(-0.528691291809082, 0, 0, 0.37486669421195984, 146.3, -30.05)"/>
  <path id="ID0.8235992449335754" fill="none" stroke="#D0E448" stroke-width="2" stroke-linecap="round" d="M 213.250 189.400 L 219.850 183.500 L 226.250 189.500 L 234 183 L 240.150 189.400 L 247.250 182.700 L 254.350 190.150 " transform="matrix(-0.5816896557807922, 0, 0, 0.37486669421195984, 158.75, -34.55)"/>
  <path id="ID0.8235992449335754" fill="none" stroke="#D0E448" stroke-width="2" stroke-linecap="round" d="M 213.250 189.400 L 219.850 183.500 L 226.250 189.500 L 234 183 L 240.150 189.400 L 247.250 182.700 L 254.350 190.150 " transform="matrix(-0.5907381772994995, 0, 0, 0.37486669421195984, 160.75, -38.7)"/>
  <path id="ID0.8235992449335754" fill="none" stroke="#D0E448" stroke-width="2" stroke-linecap="round" d="M 213.250 189.400 L 219.850 183.500 L 226.250 189.500 L 234 183 L 240.150 189.400 L 247.250 182.700 L 254.350 190.150 " transform="matrix(-0.5816896557807922, 0, 0, 0.37486669421195984, 158.85, -42.3)"/>
  <path id="ID0.8235992449335754" fill="none" stroke="#D0E448" stroke-width="2" stroke-linecap="round" d="M 213.250 189.400 L 219.850 183.500 L 226.250 189.500 L 234 183 L 240.150 189.400 L 247.250 182.700 L 254.350 190.150 " transform="matrix(-0.528691291809082, 0, 0, 0.37486669421195984, 146.2, -46.3)"/>
  <path id="ID0.6061547710560262" fill="#000000" stroke="#000000" stroke-width="2" stroke-linecap="round" d="M 222.100 186.850 L 218.600 177.250 L 239.350 177.250 L 236.700 186.350 L 222.100 186.850 Z " transform="matrix(-0.5731709599494934, 0, 0, 0.5731709599494934, 162.25, -76.6)"/>
  <path id="ID0.6061547710560262" fill="#000000" stroke="#000000" stroke-width="2" stroke-linecap="round" d="M 222.100 186.850 L 218.600 177.250 L 239.350 177.250 L 236.700 186.350 L 222.100 186.850 Z " transform="matrix(-0.5731709599494934, 0, 0, 0.5731709599494934, 147.8, -76.8)"/>
  <path id="ID0.7489708689972758" fill="#000000" stroke="none" d="M 236.500 173.750 L 241.350 173.750 L 241.350 175.250 L 236.500 175.250 L 236.500 173.750 Z " transform="matrix(-1.1155515909194946, 0, 0, 1.1155515909194946, 290.4, -167.3)"/>
  <path id="ID0.2612604680471122" fill="#FFFFFF" stroke="none" d="M 213.200 176.650 L 215.100 176.650 L 215.100 188.350 L 213.200 188.350 L 213.200 176.650 Z " transform="matrix(-0.3722831606864929, -0.2351866066455841, -0.2351866066455841, 0.3722831606864929, 157.6, 10.25)"/>
  <path id="ID0.2612604680471122" fill="#FFFFFF" stroke="none" d="M 213.200 176.650 L 215.100 176.650 L 215.100 188.350 L 213.200 188.350 L 213.200 176.650 Z " transform="matrix(-0.3722831606864929, -0.2351866066455841, -0.2351866066455841, 0.3722831606864929, 142.75, 9.5)"/>
  <path id="ID0.6025561904534698" fill="none" stroke="#000000" stroke-width="2" stroke-linecap="round" d="M 235.850 194.350 L 230.050 196.500 L 232.150 202.400 L 226.550 196.050 " transform="matrix(-0.7649572491645813, -0.8119702935218811, -0.8119702935218811, 0.7649572491645813, 355.65, 91.35)"/>
  <path id="ID0.8365832129493356" fill="none" stroke="#666666" stroke-width="2" stroke-linecap="round" d="M 177.350 190 " transform="matrix(1, 0, 0, 1, -55, -69)"/>
  <path id="ID0.8365832129493356" fill="none" stroke="#666666" stroke-width="2" stroke-linecap="round" d="M 177.350 190 " transform="matrix(1, 0, 0, 1, -240, -147)"/>
  <path id="ID0.8365832129493356" fill="none" stroke="#666666" stroke-width="2" stroke-linecap="round" d="M 177.350 190 " transform="matrix(1, 0, 0, 1, -41, -77)"/>
  <path id="ID0.8365832129493356" fill="none" stroke="#666666" stroke-width="2" stroke-linecap="round" d="M 177.350 190 " transform="matrix(1, 0, 0, 1, -252, -67)"/>
  <g id="ID0.5903293360024691" transform="matrix(1, 0, 0, 1, 0, -0.3)">
    <path id="ID0.7179879313334823" fill="none" stroke="#000000" stroke-width="2" stroke-linecap="round" d="M 253.200 179.750 L 265.500 184.850 L 255 190.350 " transform="matrix(-0.6365905404090881, 0.4025234282016754, 0.4025234282016754, 0.6365905404090881, 99.2, -180.95)"/>
    <path id="ID0.26264452934265137" fill="none" stroke="#000000" stroke-width="2" stroke-linecap="round" d="M 268.500 169.150 L 260.150 164.500 L 259.600 173.750 " transform="matrix(0.3757763206958771, 0.48855462670326233, 0.48855462670326233, -0.3757763206958771, -165.1, -23.05)"/>
    <path id="ID0.1994128692895174" fill="none" stroke="#000000" stroke-width="2" stroke-linecap="round" d="M 260.850 165.500 L 264.500 173.250 " transform="matrix(0.3757763206958771, 0.48855462670326233, 0.48855462670326233, -0.3757763206958771, -165.1, -23.05)"/>
  </g>
  <path id="ID0.6025561904534698" fill="none" stroke="#000000" stroke-width="2" stroke-linecap="round" d="M 235.850 194.350 L 230.050 196.500 L 232.150 202.400 L 226.550 196.050 " transform="matrix(-0.7649572491645813, -0.8119702935218811, -0.8119702935218811, 0.7649572491645813, 365, 91.3)"/>
</svg>