<svg version="1.1" width="117" height="95" viewBox="-1 -1 117 95" xmlns="http://www.w3.org/2000/svg" xmlns:xlink="http://www.w3.org/1999/xlink">
  <defs>
    <linearGradient id="grad_1" y2="1">
      <stop offset="0" stop-color="#B2B2B2" stop-opacity="1"/>
      <stop offset="1" stop-color="#FFFFFF" stop-opacity="1"/>
    </linearGradient>
    <linearGradient id="grad_2" y2="1">
      <stop offset="0" stop-color="#FFFFFF" stop-opacity="1"/>
      <stop offset="1" stop-color="#B2B2B2" stop-opacity="1"/>
    </linearGradient>
    <radialGradient id="grad_3" cx="0.4556" cy="0.6079" r="0.79027">
      <stop offset="0" stop-color="#000000" stop-opacity="1"/>
      <stop offset="1" stop-color="#FF0000" stop-opacity="1"/>
    </radialGradient>
    <linearGradient id="grad_4" y2="1">
      <stop offset="0" stop-color="#FFFFFF" stop-opacity="1"/>
      <stop offset="1" stop-color="#B2B2B2" stop-opacity="1"/>
    </linearGradient>
    <linearGradient id="grad_5" y2="1">
      <stop offset="0" stop-color="#B2B2B2" stop-opacity="1"/>
      <stop offset="1" stop-color="#FFFFFF" stop-opacity="1"/>
    </linearGradient>
    <linearGradient id="grad_6" y2="1">
      <stop offset="0" stop-color="#FFFFFF" stop-opacity="1"/>
      <stop offset="1" stop-color="#B2B2B2" stop-opacity="1"/>
    </linearGradient>
    <linearGradient id="grad_7" x2="1">
      <stop offset="0" stop-color="#7CC352" stop-opacity="0"/>
      <stop offset="1" stop-color="#7CC352" stop-opacity="1"/>
    </linearGradient>
    <linearGradient id="grad_8" x2="1">
      <stop offset="0" stop-color="#7CC352" stop-opacity="0"/>
      <stop offset="1" stop-color="#7CC352" stop-opacity="1"/>
    </linearGradient>
    <linearGradient id="grad_9" x2="1">
      <stop offset="0" stop-color="#7CC352" stop-opacity="1"/>
      <stop offset="1" stop-color="#7CC352" stop-opacity="0"/>
    </linearGradient>
    <linearGradient id="grad_10" x2="1">
      <stop offset="0" stop-color="#7CC352" stop-opacity="1"/>
      <stop offset="1" stop-color="#7CC352" stop-opacity="0"/>
    </linearGradient>
  </defs>
  <!-- Exported by Scratch - http://scratch.mit.edu/ -->
  <path id="ID0.23091162228956819" fill="#FFFFFF" stroke="url(#grad_1)" stroke-width="2" stroke-linecap="round" d="M 216 176 C 216.726 173.922 219.231 172.473 220.250 170.250 C 221.429 166.253 220.284 161.321 222.750 157.850 C 224.581 155.222 229.100 155.547 231.250 153.500 C 233.414 151.455 232.707 147.283 235.250 145.500 C 241.111 141.406 252.247 136.218 255.250 137.650 C 257.715 138.842 248.259 146.152 245.750 151.100 C 245.342 152.552 247.548 154.246 247 155.750 C 245.829 158.954 241.179 160.477 240.250 163.850 C 239.773 167.226 243.566 170.467 243.250 173.750 C 243.080 175.446 239.938 175.856 239.750 177.550 C 239.670 183.175 242.580 188.641 242.500 194.250 C 242.480 195.652 239.658 196.184 240 197.500 C 240.533 199.474 243.990 199.842 245 201.850 C 245.886 204.086 243.925 207.172 245.250 209.250 C 247.284 212.435 251.289 213.694 253.750 216.400 C 255.334 217.907 256.189 219.909 257.250 221.750 C 257.736 222.600 257.453 224.079 258.250 224.800 C 259.367 225.514 261.041 224.900 262.250 225.500 C 263.632 226.185 264.702 227.428 265.500 228.800 C 268.279 233.702 269.913 236.805 272.750 240.350 C 275.272 243.497 283.458 247.618 281.250 248.550 C 277.780 250.227 267.726 247.247 261 245.750 C 255.125 244.442 251.325 243.539 243.750 240.350 C 239.682 238.575 236.076 235.421 233.500 231.800 C 228.718 225.077 225.809 217.296 221.750 210.150 C 220.480 207.452 217.694 205.190 217.500 202.250 C 217.370 200.203 221.531 199.409 221.250 197.350 C 220.540 194.783 216.076 194.196 215.250 191.750 C 214.799 190.365 217.022 189.355 217.250 187.800 C 217.365 184.039 215.459 180.113 216.250 176.250 Z " transform="matrix(-0.6571341753005981, 0, 0, 0.8237125277519226, 211.25, -111.5)"/>
  <path id="ID0.005961917340755463" fill="#FFFFFF" stroke="url(#grad_2)" stroke-width="2" stroke-linecap="round" d="M 233.250 192.250 C 233.956 194.442 234.971 195.117 235.750 196 C 236.224 196.537 236.734 197.085 237 197.750 C 237.249 198.373 237.250 199.079 237.250 199.750 C 237.250 201.085 236.889 202.420 237 203.750 C 237.059 204.459 237.432 205.114 237.750 205.750 C 238.101 206.452 238.515 207.132 239 207.750 C 239.436 208.305 240.021 208.731 240.500 209.250 C 241.021 209.814 241.605 210.342 242 211 C 242.366 211.610 242.619 212.301 242.750 213 C 242.873 213.655 242.588 214.354 242.750 215 C 242.931 215.722 243.290 216.414 243.750 217 C 244.224 217.604 245.436 217.735 245.500 218.500 C 245.559 219.204 244.436 219.445 244 220 C 243.515 220.618 242.972 221.247 242.750 222 C 242.539 222.719 242.627 223.511 242.750 224.250 C 242.880 225.029 243.147 225.794 243.500 226.500 C 243.820 227.141 244.308 227.687 244.750 228.250 C 245.224 228.854 245.686 229.479 246.250 230 C 246.776 230.486 247.398 230.863 248 231.250 C 248.565 231.613 249.113 232.038 249.750 232.250 C 250.387 232.462 251.084 232.583 251.750 232.500 C 252.456 232.412 253.247 232.253 253.750 231.750 C 254.253 231.247 254.772 230.407 254.500 229.750 C 253.679 227.765 251.512 226.119 250.750 224.500 C 250.512 223.994 251.968 225.091 252.500 225.500 C 253.060 225.931 253.500 226.500 254 227 C 254.500 227.500 254.906 228.118 255.500 228.500 C 256.098 228.885 256.789 229.250 257.500 229.250 C 258.211 229.250 259.254 229.167 259.500 228.500 C 259.961 227.248 259.723 225.748 259.250 224.500 C 258.766 223.223 257.816 222.103 256.750 221.250 C 255.674 220.389 253 220.375 253 219.500 C 253 218.625 255.776 218.724 256.750 217.750 C 257.221 217.279 257.048 216.346 256.750 215.750 C 256.407 215.064 255.583 214.750 255 214.250 C 254.417 213.750 253.946 213.075 253.250 212.750 C 252.642 212.466 251.873 212.749 251.250 212.500 C 250.585 212.234 250.026 211.736 249.500 211.250 C 248.936 210.729 248.426 210.139 248 209.500 C 247.587 208.880 247.365 208.149 247 207.500 C 246.615 206.815 246.305 206.055 245.750 205.500 C 245.195 204.945 244.368 204.735 243.750 204.250 C 243.195 203.814 242.613 203.356 242.250 202.750 C 241.844 202.073 241.681 201.269 241.500 200.500 C 241.346 199.847 241.292 199.170 241.250 198.500 C 241.208 197.835 241.333 197.161 241.250 196.500 C 241.165 195.819 241.040 195.122 240.750 194.500 C 240.447 193.851 239.947 193.309 239.500 192.750 C 238.614 191.643 237.884 190.351 236.750 189.500 C 236.136 189.039 235.174 188.632 234.500 189 C 233.897 189.329 234.167 190.334 234 191 C 233.833 191.666 233.697 192.342 233.500 193 C 233.447 193.178 233.073 193.265 233.250 193.500 Z " transform="matrix(-0.46033915877342224, 0, 0, 0.46033915877342224, 166.95, -28.9)"/>
  <path id="ID0.25329854991286993" fill="url(#grad_3)" stroke="#000000" stroke-width="2" stroke-linecap="round" d="M 199.500 214.500 L 204.500 194.500 L 209 188 L 209.500 181.500 L 206 175 L 213.500 177 L 219.500 185.500 L 220.500 190.500 L 218.500 199 L 219 207 L 222 212.500 L 222 218.500 L 220 226 L 221.500 233 L 218 241 L 205 228 L 202 244 L 186 228.500 L 178 247 L 163.500 230.500 L 155 246 L 145 192 L 156 215 L 164.500 192 L 176.500 214.500 L 187.500 192.500 L 198.500 215.500 Z " transform="matrix(-0.2963680028915405, 0, 0, 0.2963680028915405, 113.05, -12.75)"/>
  <g id="ID0.9368052235804498">
    <path id="ID0.8351161554455757" fill="#000000" stroke="#000000" stroke-width="2" stroke-linecap="round" d="M 250.500 169.900 L 265 161.600 L 266.600 168 L 265.750 170.750 L 263.600 174.100 L 260.100 177 L 254.100 175.250 L 250.750 170.400 Z " transform="matrix(-0.45086702704429626, 0, 0, 0.45086702704429626, 176.85, -39.4)"/>
    <path id="ID0.6134866434149444" fill="#FF0000" stroke="none" d="M 258.250 165.600 C 258.622 165.600 258.960 166.267 259.204 167.344 C 259.449 168.421 259.600 169.908 259.600 171.550 C 259.600 173.192 259.449 174.679 259.204 175.756 C 258.960 176.833 258.622 177.500 258.250 177.500 C 257.878 177.500 257.540 176.833 257.296 175.756 C 257.051 174.679 256.900 173.192 256.900 171.550 C 256.900 169.908 257.051 168.421 257.296 167.344 C 257.540 166.267 257.878 165.600 258.250 165.600 Z " transform="matrix(-0.45086702704429626, 0, 0, 0.45086702704429626, 176.85, -39.4)"/>
  </g>
  <g id="ID0.959263410884887">
    <path id="ID0.005961917340755463" fill="#CCCCCC" stroke="url(#grad_4)" stroke-width="2" stroke-linecap="round" d="M 233.250 192.250 C 233.956 194.442 234.971 195.117 235.750 196 C 236.224 196.537 236.734 197.085 237 197.750 C 237.249 198.373 237.250 199.079 237.250 199.750 C 237.250 201.085 236.889 202.420 237 203.750 C 237.059 204.459 237.432 205.114 237.750 205.750 C 238.101 206.452 238.515 207.132 239 207.750 C 239.436 208.305 240.021 208.731 240.500 209.250 C 241.021 209.814 241.605 210.342 242 211 C 242.366 211.610 242.619 212.301 242.750 213 C 242.873 213.655 242.588 214.354 242.750 215 C 242.931 215.722 243.290 216.414 243.750 217 C 244.224 217.604 245.436 217.735 245.500 218.500 C 245.559 219.204 244.436 219.445 244 220 C 243.515 220.618 242.972 221.247 242.750 222 C 242.539 222.719 242.627 223.511 242.750 224.250 C 242.880 225.029 243.147 225.794 243.500 226.500 C 243.820 227.141 244.308 227.687 244.750 228.250 C 245.224 228.854 245.686 229.479 246.250 230 C 246.776 230.486 247.398 230.863 248 231.250 C 248.565 231.613 249.113 232.038 249.750 232.250 C 250.387 232.462 251.084 232.583 251.750 232.500 C 252.456 232.412 253.247 232.253 253.750 231.750 C 254.253 231.247 254.772 230.407 254.500 229.750 C 253.679 227.765 251.512 226.119 250.750 224.500 C 250.512 223.994 251.968 225.091 252.500 225.500 C 253.060 225.931 253.500 226.500 254 227 C 254.500 227.500 254.906 228.118 255.500 228.500 C 256.098 228.885 256.789 229.250 257.500 229.250 C 258.211 229.250 259.254 229.167 259.500 228.500 C 259.961 227.248 259.723 225.748 259.250 224.500 C 258.766 223.223 257.816 222.103 256.750 221.250 C 255.674 220.389 253 220.375 253 219.500 C 253 218.625 255.776 218.724 256.750 217.750 C 257.221 217.279 257.048 216.346 256.750 215.750 C 256.407 215.064 255.583 214.750 255 214.250 C 254.417 213.750 253.946 213.075 253.250 212.750 C 252.642 212.466 251.873 212.749 251.250 212.500 C 250.585 212.234 250.026 211.736 249.500 211.250 C 248.936 210.729 248.426 210.139 248 209.500 C 247.587 208.880 247.365 208.149 247 207.500 C 246.615 206.815 246.305 206.055 245.750 205.500 C 245.195 204.945 244.368 204.735 243.750 204.250 C 243.195 203.814 242.613 203.356 242.250 202.750 C 241.844 202.073 241.681 201.269 241.500 200.500 C 241.346 199.847 241.292 199.170 241.250 198.500 C 241.208 197.835 241.333 197.161 241.250 196.500 C 241.165 195.819 241.040 195.122 240.750 194.500 C 240.447 193.851 239.947 193.309 239.500 192.750 C 238.614 191.643 237.884 190.351 236.750 189.500 C 236.136 189.039 235.174 188.632 234.500 189 C 233.897 189.329 234.167 190.334 234 191 C 233.833 191.666 233.697 192.342 233.500 193 C 233.447 193.178 233.073 193.265 233.250 193.500 Z " transform="matrix(0.4213310480117798, 0.07030560076236725, -0.32252946496009827, 0.6080817580223083, -22.35, -75.5)"/>
    <path id="ID0.23091162228956819" fill="#FFFFFF" stroke="url(#grad_5)" stroke-width="2" stroke-linecap="round" d="M 216 176 C 216.726 173.922 219.231 172.473 220.250 170.250 C 221.429 166.253 220.284 161.321 222.750 157.850 C 224.581 155.222 229.100 155.547 231.250 153.500 C 233.414 151.455 232.707 147.283 235.250 145.500 C 241.111 141.406 252.247 136.218 255.250 137.650 C 257.715 138.842 248.259 146.152 245.750 151.100 C 245.342 152.552 247.548 154.246 247 155.750 C 245.829 158.954 241.179 160.477 240.250 163.850 C 239.773 167.226 243.566 170.467 243.250 173.750 C 243.080 175.446 239.938 175.856 239.750 177.550 C 239.670 183.175 242.580 188.641 242.500 194.250 C 242.480 195.652 239.658 196.184 240 197.500 C 240.533 199.474 243.990 199.842 245 201.850 C 245.886 204.086 243.925 207.172 245.250 209.250 C 247.284 212.435 251.289 213.694 253.750 216.400 C 255.334 217.907 256.189 219.909 257.250 221.750 C 257.736 222.600 257.453 224.079 258.250 224.800 C 259.367 225.514 261.041 224.900 262.250 225.500 C 263.632 226.185 264.702 227.428 265.500 228.800 C 268.279 233.702 269.913 236.805 272.750 240.350 C 275.272 243.497 283.458 247.618 281.250 248.550 C 277.780 250.227 267.726 247.247 261 245.750 C 255.125 244.442 251.325 243.539 243.750 240.350 C 239.682 238.575 236.076 235.421 233.500 231.800 C 228.718 225.077 225.809 217.296 221.750 210.150 C 220.480 207.452 217.694 205.190 217.500 202.250 C 217.370 200.203 221.531 199.409 221.250 197.350 C 220.540 194.783 216.076 194.196 215.250 191.750 C 214.799 190.365 217.022 189.355 217.250 187.800 C 217.365 184.039 215.459 180.113 216.250 176.250 Z " transform="matrix(0.17626763880252838, -4.851875528533067e-17, -2.8139045959696656e-16, 0.4085578918457031, -23.55, -10.15)"/>
    <path id="ID0.005961917340755463" fill="#FFFFFF" stroke="url(#grad_6)" stroke-width="2" stroke-linecap="round" d="M 233.250 192.250 C 233.956 194.442 234.971 195.117 235.750 196 C 236.224 196.537 236.734 197.085 237 197.750 C 237.249 198.373 237.250 199.079 237.250 199.750 C 237.250 201.085 236.889 202.420 237 203.750 C 237.059 204.459 237.432 205.114 237.750 205.750 C 238.101 206.452 238.515 207.132 239 207.750 C 239.436 208.305 240.021 208.731 240.500 209.250 C 241.021 209.814 241.605 210.342 242 211 C 242.366 211.610 242.619 212.301 242.750 213 C 242.873 213.655 242.588 214.354 242.750 215 C 242.931 215.722 243.290 216.414 243.750 217 C 244.224 217.604 245.436 217.735 245.500 218.500 C 245.559 219.204 244.436 219.445 244 220 C 243.515 220.618 242.972 221.247 242.750 222 C 242.539 222.719 242.627 223.511 242.750 224.250 C 242.880 225.029 243.147 225.794 243.500 226.500 C 243.820 227.141 244.308 227.687 244.750 228.250 C 245.224 228.854 245.686 229.479 246.250 230 C 246.776 230.486 247.398 230.863 248 231.250 C 248.565 231.613 249.113 232.038 249.750 232.250 C 250.387 232.462 251.084 232.583 251.750 232.500 C 252.456 232.412 253.247 232.253 253.750 231.750 C 254.253 231.247 254.772 230.407 254.500 229.750 C 253.679 227.765 251.512 226.119 250.750 224.500 C 250.512 223.994 251.968 225.091 252.500 225.500 C 253.060 225.931 253.500 226.500 254 227 C 254.500 227.500 254.906 228.118 255.500 228.500 C 256.098 228.885 256.789 229.250 257.500 229.250 C 258.211 229.250 259.254 229.167 259.500 228.500 C 259.961 227.248 259.723 225.748 259.250 224.500 C 258.766 223.223 257.816 222.103 256.750 221.250 C 255.674 220.389 253 220.375 253 219.500 C 253 218.625 255.776 218.724 256.750 217.750 C 257.221 217.279 257.048 216.346 256.750 215.750 C 256.407 215.064 255.583 214.750 255 214.250 C 254.417 213.750 253.946 213.075 253.250 212.750 C 252.642 212.466 251.873 212.749 251.250 212.500 C 250.585 212.234 250.026 211.736 249.500 211.250 C 248.936 210.729 248.426 210.139 248 209.500 C 247.587 208.880 247.365 208.149 247 207.500 C 246.615 206.815 246.305 206.055 245.750 205.500 C 245.195 204.945 244.368 204.735 243.750 204.250 C 243.195 203.814 242.613 203.356 242.250 202.750 C 241.844 202.073 241.681 201.269 241.500 200.500 C 241.346 199.847 241.292 199.170 241.250 198.500 C 241.208 197.835 241.333 197.161 241.250 196.500 C 241.165 195.819 241.040 195.122 240.750 194.500 C 240.447 193.851 239.947 193.309 239.500 192.750 C 238.614 191.643 237.884 190.351 236.750 189.500 C 236.136 189.039 235.174 188.632 234.500 189 C 233.897 189.329 234.167 190.334 234 191 C 233.833 191.666 233.697 192.342 233.500 193 C 233.447 193.178 233.073 193.265 233.250 193.500 Z " transform="matrix(0.4395810067653656, -4.749953973048978e-17, -8.46856658522153e-17, 0.6344208121299744, -84.5, -58.1)"/>
    <g id="ID0.19045853288844228">
      <g id="ID0.4911339618265629">
        <path id="ID0.43543971981853247" fill="#000000" stroke="none" d="M 269 138.200 C 269.966 138.200 270.841 138.601 271.474 139.248 C 272.108 139.895 272.500 140.789 272.500 141.775 C 272.500 142.761 272.108 143.655 271.474 144.302 C 270.841 144.949 269.966 145.350 269 145.350 C 268.034 145.350 267.159 144.949 266.526 144.302 C 265.892 143.655 265.500 142.761 265.500 141.775 C 265.500 140.789 265.892 139.895 266.526 139.248 C 267.159 138.601 268.034 138.200 269 138.200 Z " transform="matrix(-0.7013394236564636, 0, 0, 0.3933759331703186, 207.5, 0.3)"/>
        <path id="ID0.43543971981853247" fill="#000000" stroke="none" d="M 269 138.200 C 269.966 138.200 270.841 138.601 271.474 139.248 C 272.108 139.895 272.500 140.789 272.500 141.775 C 272.500 142.761 272.108 143.655 271.474 144.302 C 270.841 144.949 269.966 145.350 269 145.350 C 268.034 145.350 267.159 144.949 266.526 144.302 C 265.892 143.655 265.500 142.761 265.500 141.775 C 265.500 140.789 265.892 139.895 266.526 139.248 C 267.159 138.601 268.034 138.200 269 138.200 Z " transform="matrix(-0.7013394236564636, 0, 0, 0.3933759331703186, 202.15, 0.05)"/>
      </g>
      <path id="ID0.3574093491770327" fill="none" stroke="#000000" stroke-width="1" stroke-linecap="round" d="M 285.150 145.200 L 290.800 144.500 " transform="matrix(-0.8842975497245789, 0, 0, 0.49599573016166687, 270.3, -12.9)"/>
      <path id="ID0.8017133981920779" fill="#FFFF99" stroke="#FFFF99" stroke-width="1" stroke-linecap="round" d="M 289.400 145 L 287.500 145.350 L 287.900 148.600 L 290.800 148 L 289.400 145 Z " transform="matrix(-0.8842975497245789, 0, 0, 0.49599573016166687, 270.3, -12.9)"/>
    </g>
  </g>
  <g id="ID0.9483528411947191">
    <path id="ID0.6895877583883703" fill="#000000" stroke="none" d="M 220.875 168.500 C 221.185 168.500 221.467 168.822 221.670 169.343 C 221.874 169.863 222 170.582 222 171.375 C 222 172.168 221.874 172.887 221.670 173.407 C 221.467 173.928 221.185 174.250 220.875 174.250 C 220.565 174.250 220.283 173.928 220.080 173.407 C 219.876 172.887 219.750 172.168 219.750 171.375 C 219.750 170.582 219.876 169.863 220.080 169.343 C 220.283 168.822 220.565 168.500 220.875 168.500 Z " transform="matrix(-0.44285130500793457, 0, 0, 0.44285130500793457, 161.95, -33.9)"/>
    <path id="ID0.6895877583883703" fill="#000000" stroke="none" d="M 220.875 168.500 C 221.185 168.500 221.467 168.822 221.670 169.343 C 221.874 169.863 222 170.582 222 171.375 C 222 172.168 221.874 172.887 221.670 173.407 C 221.467 173.928 221.185 174.250 220.875 174.250 C 220.565 174.250 220.283 173.928 220.080 173.407 C 219.876 172.887 219.750 172.168 219.750 171.375 C 219.750 170.582 219.876 169.863 220.080 169.343 C 220.283 168.822 220.565 168.500 220.875 168.500 Z " transform="matrix(-0.44285130500793457, 0, 0, 0.44285130500793457, 163.55, -33.8)"/>
  </g>
  <path id="ID0.38314290810376406" fill="url(#grad_7)" stroke="url(#grad_8)" stroke-width="2" stroke-linecap="round" d="M 237.250 155 C 239.945 154.140 241.176 152.625 242.750 151.750 C 243.440 151.366 244.276 151.317 245 151 C 245.615 150.731 246.127 150.249 246.750 150 C 247.387 149.745 248.075 149.627 248.750 149.500 C 249.410 149.376 250.080 149.215 250.750 149.250 C 251.679 149.299 252.589 149.558 253.500 149.750 C 254.172 149.891 254.863 149.995 255.500 150.250 C 256.123 150.499 256.775 150.775 257.250 151.250 C 258.381 152.381 259.237 153.762 260.250 155 C 260.736 155.594 261.276 156.146 261.750 156.750 C 262.192 157.313 262.411 158.092 263 158.500 C 263.564 158.891 264.315 159.043 265 159 C 265.710 158.956 266.380 158.599 267 158.250 C 267.726 157.842 268.371 157.295 269 156.750 C 269.623 156.210 270.146 155.561 270.750 155 C 271.312 154.478 271.936 154.021 272.500 153.500 C 273.019 153.021 273.425 152.411 274 152 C 274.606 151.567 275.278 151.181 276 151 C 276.646 150.838 277.345 150.877 278 151 C 278.699 151.131 279.325 151.975 280 151.750 C 280.840 151.470 281.197 150.441 281.750 149.750 C 282.197 149.191 282.613 148.602 283 148 C 283.363 147.435 283.545 146.743 284 146.250 C 284.565 145.638 285.242 145.094 286 144.750 C 287.103 144.248 288.313 143.997 289.500 143.750 C 290.319 143.579 291.164 143.532 292 143.500 C 293.331 143.449 294.668 143.500 296 143.500 C 296.749 143.500 297.552 143.228 298.250 143.500 C 299.135 143.844 299.783 144.628 300.500 145.250 C 301.034 145.713 301.618 146.156 302 146.750 C 302.385 147.348 302.424 148.118 302.750 148.750 C 303.842 150.871 305.137 152.890 306.250 155 C 306.720 155.890 307.087 156.833 307.500 157.750 C 307.836 158.498 308.203 159.236 308.500 160 C 308.786 160.736 309.012 161.497 309.250 162.250 C 309.512 163.079 309.771 163.911 310 164.750 C 310.271 165.743 310.566 166.737 310.750 167.750 C 310.900 168.573 310.912 169.418 311 170.250 C 311.079 171 311.250 171.746 311.250 172.500 C 311.250 173.420 311.143 174.342 311 175.250 C 310.893 175.928 310.694 176.591 310.500 177.250 C 310.277 178.008 310.169 178.830 309.750 179.500 C 309.313 180.199 308.644 180.735 308 181.250 C 307.387 181.741 306.735 182.224 306 182.500 C 305.372 182.736 304.670 182.708 304 182.750 C 303.335 182.792 302.661 182.833 302 182.750 C 301.319 182.665 300.637 182.505 300 182.250 C 299.377 182.001 298.815 181.613 298.250 181.250 C 297.648 180.863 297.047 180.463 296.500 180 C 295.961 179.544 295.548 178.945 295 178.500 C 294.211 177.859 293.302 177.374 292.500 176.750 C 291.801 176.207 291.229 175.501 290.500 175 C 289.886 174.578 289.211 174.222 288.500 174 C 287.859 173.800 287.171 173.750 286.500 173.750 C 285.829 173.750 285.144 173.811 284.500 174 C 283.713 174.231 282.983 174.633 282.250 175 C 281.650 175.300 281.032 175.591 280.500 176 C 279.940 176.431 279.624 177.169 279 177.500 C 278.161 177.944 277.189 178.109 276.250 178.250 C 275.509 178.361 274.718 178.465 274 178.250 C 273.001 177.950 272.183 177.216 271.250 176.750 C 270.517 176.383 269.682 176.205 269 175.750 C 267.171 174.531 265.588 172.954 263.750 171.750 C 263.155 171.360 262.460 170.956 261.750 171 C 261.007 171.046 260.472 171.819 259.750 172 C 259.104 172.162 258.396 172.162 257.750 172 C 257.028 171.819 256.424 171.317 255.750 171 C 255.008 170.651 254.142 170.509 253.500 170 C 251.701 168.573 250.369 166.585 248.500 165.250 C 247.954 164.860 247.170 164.958 246.500 165 C 245.815 165.043 245.162 165.681 244.500 165.500 C 243.205 165.147 242.109 164.256 241 163.500 C 240.269 163.001 239.576 162.422 239 161.750 C 238.563 161.240 238.212 160.637 238 160 C 237.788 159.363 237.913 158.651 237.750 158 C 237.577 157.310 237.212 156.679 237 156 C 236.795 155.345 236.175 154.325 236.500 154 C 236.800 153.700 237.653 154.965 238.250 154.750 Z " transform="matrix(0.7644762992858887, 0, 0, 1, -122.7, -105)"/>
  <path id="ID0.16326526133343577" fill="url(#grad_9)" stroke="url(#grad_10)" stroke-width="2" stroke-linecap="round" d="M 193 164.750 C 192.267 164.957 191.524 164.655 190.750 164.500 C 189.434 164.237 188.088 163.889 186.750 164 C 186.008 164.062 185.461 164.778 184.750 165 C 184.109 165.200 183.410 165.374 182.750 165.250 C 182.018 165.113 181.487 164.145 180.750 164.250 C 180.051 164.350 179.488 165.085 179.250 165.750 C 179.024 166.382 178.913 167.424 179.500 167.750 C 180.746 168.442 182.326 168.195 183.750 168.250 C 184.503 168.279 185.251 167.912 186 168 C 186.706 168.083 187.289 168.750 188 168.750 C 188.711 168.750 189.402 168.385 190 168 C 190.594 167.618 190.940 166.931 191.500 166.500 C 192.032 166.091 192.734 165.930 193.250 165.500 C 193.379 165.393 193.183 165.323 193 165.250 Z " transform="matrix(0.9846153855323792, 0, 0, 1, -175.1, -105)"/>
</svg>