<svg version="1.1" width="19" height="19" viewBox="-1 -1 19 19" xmlns="http://www.w3.org/2000/svg" xmlns:xlink="http://www.w3.org/1999/xlink">
  <!-- Exported by Scratch - http://scratch.mit.edu/ -->
  <g id="ID0.4958313135430217" transform="matrix(1.8028168678283691, 0, 0, 1.8028168678283691, -0.5, 0)">
    <path id="ID0.06126575591042638" fill="#B2B2B2" stroke="#666666" stroke-width="2" d="M 241.175 171.100 C 245.017 171.100 248.498 172.646 251.019 175.145 C 253.540 177.643 255.100 181.093 255.100 184.900 C 255.100 188.707 253.540 192.157 251.019 194.655 C 248.498 197.154 245.017 198.700 241.175 198.700 C 237.333 198.700 233.852 197.154 231.331 194.655 C 228.810 192.157 227.250 188.707 227.250 184.900 C 227.250 181.093 228.810 177.643 231.331 175.145 C 233.852 172.646 237.333 171.100 241.175 171.100 Z " transform="matrix(0.5945945978164673, 0, 0, 0.5945945978164673, -134.15, -100.95)"/>
    <path id="ID0.24650624301284552" fill="none" stroke="#666666" stroke-width="2" stroke-linecap="round" d="M 250.250 171.100 L 239.400 178 L 241.250 182.600 L 237.900 191.700 " transform="matrix(0.5945945978164673, 0, 0, 0.5945945978164673, -133.5, -97.9)"/>
    <path id="ID0.16219489928334951" fill="none" stroke="#666666" stroke-width="2" stroke-linecap="round" d="M 241.100 185.350 L 249.250 189.350 " transform="matrix(0.5945945978164673, 0, 0, 0.5945945978164673, -133.5, -97.9)"/>
    <path id="ID0.42272206023335457" fill="none" stroke="#666666" stroke-width="2" stroke-linecap="round" d="M 238.500 177.200 L 232.250 174 L 227.100 177.100 " transform="matrix(0.5945945978164673, 0, 0, 0.5945945978164673, -133.5, -97.9)"/>
    <path id="ID0.6972105372697115" fill="none" stroke="#666666" stroke-width="2" stroke-linecap="round" d="M 242.400 167.100 L 231.500 174.600 " transform="matrix(0.5945945978164673, 0, 0, 0.5945945978164673, -133.5, -97.9)"/>
    <path id="ID0.22902737092226744" fill="none" stroke="#00FF55" stroke-width="2" stroke-linecap="round" d="M 228.600 180.500 L 231.100 185.500 " transform="matrix(0.5945945978164673, 0, 0, 0.5945945978164673, -133.5, -97.9)"/>
    <path id="ID0.22902737092226744" fill="none" stroke="#FF0000" stroke-width="2" stroke-linecap="round" d="M 228.600 180.500 L 231.100 185.500 " transform="matrix(0.5945945978164673, 0, 0, 0.5945945978164673, -131.8, -98.55)"/>
    <path id="ID0.22902737092226744" fill="none" stroke="#FF0000" stroke-width="2" stroke-linecap="round" d="M 228.600 180.500 L 231.100 185.500 " transform="matrix(0.5945945978164673, 0, 0, 0.5945945978164673, -130.1, -99.05)"/>
    <path id="ID0.9208447597920895" fill="none" stroke="#003FFF" stroke-width="2" d="M 247.700 177.850 C 248.472 177.850 249.172 178.178 249.679 178.707 C 250.186 179.237 250.500 179.968 250.500 180.775 C 250.500 181.582 250.186 182.313 249.679 182.843 C 249.172 183.372 248.472 183.700 247.700 183.700 C 246.928 183.700 246.228 183.372 245.721 182.843 C 245.214 182.313 244.900 181.582 244.900 180.775 C 244.900 179.968 245.214 179.237 245.721 178.707 C 246.228 178.178 246.928 177.850 247.700 177.850 Z " transform="matrix(0.5945945978164673, 0, 0, 0.5945945978164673, -133.5, -97.9)"/>
  </g>
</svg>