<svg version="1.1" width="70" height="117" viewBox="9 -1 70 117" xmlns="http://www.w3.org/2000/svg" xmlns:xlink="http://www.w3.org/1999/xlink">
  <!-- Exported by Scratch - http://scratch.mit.edu/ -->
  <g id="ID0.1477178898639977" transform="matrix(0.5331858396530151, 0, 0, 0.5331858396530151, 0, 0.4)">
    <path id="ID0.5619839346036315" fill="#0033CC" stroke="#002699" stroke-width="2" stroke-linecap="round" d="M 282.550 231 C 306.841 200.371 308.320 199.171 315.500 193 C 318.114 191.163 320.546 191.730 322.500 193 C 324.499 194.299 326.520 196.941 325.500 199.500 C 309.865 219.642 303.238 227.753 292 235 C 288.841 236.950 281.120 234.340 282.550 231 Z " transform="matrix(0.4506014287471771, -0.37419983744621277, 0.5723413825035095, 0.6891982555389404, -191.85, 55.05)"/>
    <path id="ID0.6155663500539958" fill="#FFD499" stroke="none" d="M 241.250 209 C 243.526 209 245.589 209.924 247.082 211.418 C 248.576 212.911 249.500 214.974 249.500 217.250 C 249.500 219.526 248.576 221.589 247.082 223.082 C 245.589 224.576 243.526 225.500 241.250 225.500 C 238.974 225.500 236.911 224.576 235.418 223.082 C 233.924 221.589 233 219.526 233 217.250 C 233 214.974 233.924 212.911 235.418 211.418 C 236.911 209.924 238.974 209 241.250 209 Z " transform="matrix(0.8101272583007813, -0.16530634462833405, 0.16029706597328186, 0.7855780124664307, -158.85, -22.55)"/>
  </g>
  <path id="ID0.5486297779716551" fill="#935301" stroke="#663B00" stroke-width="6" stroke-linecap="round" d="M 319.350 238.550 C 307.238 245.500 295.597 266.776 302 278 C 311.189 288.839 325.526 285.577 337.700 286.950 C 347.701 288.070 358.478 286.995 368.500 283.850 C 376.746 282.212 390.961 281.771 391.550 272.850 C 392.439 259.122 383.380 242.675 371 237 C 355.369 229.848 334.427 229.344 319.350 238.550 Z " transform="matrix(-0.17104271054267883, 0.002926786197349429, 0.0031612187158316374, 0.18474271893501282, 89.1, 18.05)"/>
  <path id="ID0.08809070056304336" fill="#FFD499" stroke="#FFD499" stroke-width="2" stroke-linecap="round" d="M 246 185.300 C 245.980 186.048 246.001 186.757 246 187.550 C 245.996 188.249 245.967 188.955 246 189.650 C 246.032 190.318 246.125 190.985 246.200 191.650 C 246.275 192.317 246.350 192.986 246.450 193.650 C 246.550 194.319 246.487 195.051 246.800 195.650 C 247.116 196.255 247.648 196.777 248.250 197.100 C 248.849 197.421 249.571 197.509 250.250 197.500 C 250.916 197.492 251.639 197.409 252.200 197.050 C 252.769 196.685 253.158 196.060 253.450 195.450 C 253.738 194.849 253.850 194.164 253.900 193.500 C 254.047 191.545 254.095 189.568 254.150 187.600 C 254.143 186.901 254.142 186.200 254.150 185.500 C 253.991 181.252 254.228 180.358 253.900 178.850 C 253.715 178.142 253.282 177.502 252.700 177.150 C 251.952 176.691 251.161 176.494 250.350 176.500 C 249.410 176.507 248.387 176.551 247.600 177.050 C 246.923 177.494 246.549 178.360 246.350 179.150 C 246.053 182.515 246.050 183.695 246 185.300 Z " transform="matrix(-2.1979362964630127, 0, 0, 2.6161482334136963, 573.5, -458.5)"/>
  <path id="ID0.0726902256719768" fill="#003FFF" stroke="#0032CC" stroke-width="2" stroke-linecap="round" d="M 209.500 227.500 L 209 179.500 L 215.100 179.250 L 219.300 189.750 L 224.600 179.250 L 240.500 179.500 L 241.500 227.500 L 239 231.500 L 233.500 233.500 L 224 234.500 L 213.500 232.500 L 209.500 227.500 Z " transform="matrix(-0.7016415596008301, 0, 0, 0.5331858396530151, 181.25, -58.85)"/>
  <path id="ID0.8850112343207002" fill="none" stroke="#000000" stroke-width="2" stroke-linecap="round" d="M 240.500 194 L 240.800 194.300 " transform="matrix(-0.5331858396530151, 0, 0, 0.5331858396530151, 156.85, -59.65)"/>
  <path id="ID0.16972909634932876" fill="none" stroke="#000000" stroke-width="2" stroke-linecap="round" d="M 240.500 199.500 L 240.800 199.800 " transform="matrix(-0.5331858396530151, 0, 0, 0.5331858396530151, 156.85, -59.65)"/>
  <g id="ID0.1477178898639977" transform="matrix(0.5331858396530151, 0, 0, 0.5331858396530151, 0, 0.4)">
    <path id="ID0.5619839346036315" fill="#003FFF" stroke="#0033CC" stroke-width="2" stroke-linecap="round" d="M 282.550 231 C 306.841 200.371 308.320 199.171 315.500 193 C 318.114 191.163 320.546 191.730 322.500 193 C 324.499 194.299 326.520 196.941 325.500 199.500 C 309.865 219.642 303.238 227.753 292 235 C 288.841 236.950 281.120 234.340 282.550 231 Z " transform="matrix(-0.46383270621299744, -0.3576680123806, -0.5470558404922485, 0.7094356417655945, 281.45, 45.25)"/>
    <path id="ID0.6155663500539958" fill="#FFD499" stroke="none" d="M 241.250 209 C 243.526 209 245.589 209.924 247.082 211.418 C 248.576 212.911 249.500 214.974 249.500 217.250 C 249.500 219.526 248.576 221.589 247.082 223.082 C 245.589 224.576 243.526 225.500 241.250 225.500 C 238.974 225.500 236.911 224.576 235.418 223.082 C 233.924 221.589 233 219.526 233 217.250 C 233 214.974 233.924 212.911 235.418 211.418 C 236.911 209.924 238.974 209 241.250 209 Z " transform="matrix(-0.8155730366706848, -0.13591568171977997, -0.13179700076580048, 0.7908587455749512, 245.6, -31.05)"/>
  </g>
  <path id="ID0.5486297779716551" fill="#935301" stroke="#663B00" stroke-width="6" stroke-linecap="round" d="M 319.350 238.550 C 307.238 245.500 295.597 266.776 302 278 C 311.189 288.839 325.526 285.577 337.700 286.950 C 347.701 288.070 358.478 286.995 368.500 283.850 C 376.746 282.212 390.961 281.771 391.550 272.850 C 392.439 259.122 383.380 242.675 371 237 C 355.369 229.848 334.427 229.344 319.350 238.550 Z " transform="matrix(-0.17104271054267883, 0.002926786197349429, 0.0031612187158316374, 0.18474271893501282, 76.75, 18.4)"/>
  <path id="ID0.643749819137156" fill="#FFFFFF" stroke="#000000" stroke-width="2" d="M 234.750 143.750 C 236.336 143.750 237.774 144.576 238.815 145.911 C 239.856 147.247 240.500 149.090 240.500 151.125 C 240.500 153.160 239.856 155.003 238.815 156.339 C 237.774 157.674 236.336 158.500 234.750 158.500 C 233.164 158.500 231.726 157.674 230.685 156.339 C 229.644 155.003 229 153.160 229 151.125 C 229 149.090 229.644 147.247 230.685 145.911 C 231.726 144.576 233.164 143.750 234.750 143.750 Z " transform="matrix(-0.5331858396530151, 0, 0, 0.5331858396530151, 153.8, -61.65)"/>
  <path id="ID0.643749819137156" fill="#FFFFFF" stroke="#000000" stroke-width="2" d="M 234.750 143.750 C 236.336 143.750 237.774 144.576 238.815 145.911 C 239.856 147.247 240.500 149.090 240.500 151.125 C 240.500 153.160 239.856 155.003 238.815 156.339 C 237.774 157.674 236.336 158.500 234.750 158.500 C 233.164 158.500 231.726 157.674 230.685 156.339 C 229.644 155.003 229 153.160 229 151.125 C 229 149.090 229.644 147.247 230.685 145.911 C 231.726 144.576 233.164 143.750 234.750 143.750 Z " transform="matrix(-0.5331858396530151, 0, 0, 0.5331858396530151, 148.8, -61.8)"/>
  <path id="ID0.7692075585946441" fill="none" stroke="#000000" stroke-width="2" stroke-linecap="round" d="M 233.750 150.250 L 234.050 150.550 " transform="matrix(-0.5331858396530151, 0, 0, 0.5331858396530151, 153.5, -61.65)"/>
  <path id="ID0.731148752849549" fill="none" stroke="#000000" stroke-width="2" stroke-linecap="round" d="M 242.500 150 L 242.800 150.300 " transform="matrix(-0.5331858396530151, 0, 0, 0.5331858396530151, 153.5, -61.65)"/>
  <path id="ID0.17161718104034662" fill="none" stroke="#000000" stroke-width="2" stroke-linecap="round" d="M 219.500 178 L 268 177.500 " transform="matrix(-0.36132103204727173, 0.011455358937382698, 0.024149566888809204, 0.7617174983024597, 109.35, -109)"/>
  <path id="ID0.8540973095223308" fill="none" stroke="#000000" stroke-width="2" stroke-linecap="round" d="M 255.250 160.850 C 255.250 160.850 253.312 160.956 252.400 161.250 C 251.731 161.466 251.089 161.846 250.600 162.350 C 250.012 162.957 249.545 163.708 249.250 164.500 C 248.999 165.176 249.042 165.930 249 166.650 C 248.959 167.348 248.664 168.136 249 168.750 C 249.330 169.354 250.102 169.617 250.750 169.850 C 251.430 170.094 252.182 170.234 252.900 170.150 C 253.936 170.029 255.900 169.250 255.900 169.250 " transform="matrix(-0.36017340421676636, 0, 0, 0.36017340421676636, 117.5, -35.4)"/>
</svg>