<svg version="1.1" width="103" height="77" viewBox="-1 -1 103 77" xmlns="http://www.w3.org/2000/svg" xmlns:xlink="http://www.w3.org/1999/xlink">
  <defs>
    <linearGradient id="grad_1" y2="1">
      <stop offset="0" stop-color="#FF9400" stop-opacity="1"/>
      <stop offset="1" stop-color="#FF9400" stop-opacity="0"/>
    </linearGradient>
    <linearGradient id="grad_2" y2="1">
      <stop offset="0" stop-color="#FF9400" stop-opacity="1"/>
      <stop offset="1" stop-color="#FF9400" stop-opacity="0"/>
    </linearGradient>
    <linearGradient id="grad_3" y2="1">
      <stop offset="0" stop-color="#FF9400" stop-opacity="1"/>
      <stop offset="1" stop-color="#FF9400" stop-opacity="0"/>
    </linearGradient>
    <linearGradient id="grad_4" y2="1">
      <stop offset="0" stop-color="#FF9400" stop-opacity="1"/>
      <stop offset="1" stop-color="#FF9400" stop-opacity="0"/>
    </linearGradient>
  </defs>
  <!-- Exported by Scratch - http://scratch.mit.edu/ -->
  <path id="ID0.05454619135707617" fill="url(#grad_1)" stroke="url(#grad_2)" stroke-width="2" stroke-linecap="round" d="M 281.100 158.600 L 260.550 157.800 L 252.750 137.250 L 264.700 142.500 L 268.350 130.300 L 279.450 144.200 L 291.950 134.450 L 281.100 158.600 Z " transform="matrix(1, 0, 0, 1, -250.85, -126)"/>
  <path id="ID0.05454619135707617" fill="url(#grad_3)" stroke="url(#grad_4)" stroke-width="2" stroke-linecap="round" d="M 281.100 158.600 L 260.550 157.800 L 252.750 137.250 L 264.700 142.500 L 268.350 130.300 L 279.450 144.200 L 291.950 134.450 L 281.100 158.600 Z " transform="matrix(1, 0, 0, 1, -191, -129.3)"/>
  <g id="ID0.6676402115263045">
    <path id="ID0.6670698802918196" fill="#00FFFF" stroke="#00CCCC" stroke-width="2" stroke-linecap="round" d="M 274.700 157.250 C 275.696 155.768 276.744 155.599 277.750 155.300 C 278.593 155.049 279.413 154.721 280.250 154.450 C 281.728 153.972 283.189 153.409 284.700 153.050 C 285.514 152.857 286.365 152.844 287.200 152.800 C 287.948 152.761 288.701 152.800 289.450 152.800 C 290.282 152.800 291.139 152.614 291.950 152.800 C 293.567 153.171 295.126 153.795 296.650 154.450 C 297.270 154.716 297.819 155.135 298.350 155.550 C 299.121 156.153 299.840 156.826 300.550 157.500 C 301.123 158.043 301.847 158.494 302.200 159.200 C 302.531 159.861 302.703 160.689 302.500 161.400 C 302.302 162.093 301.633 162.565 301.100 163.050 C 300.509 163.588 299.898 164.167 299.150 164.450 C 297.182 165.196 295.081 165.549 293.050 166.100 C 292.317 166.299 291.582 166.497 290.850 166.700 C 290.200 166.880 289.542 167.044 288.900 167.250 C 288.143 167.493 287.361 167.694 286.650 168.050 C 286.051 168.350 285.534 168.796 285 169.200 C 284.434 169.629 283.919 170.125 283.350 170.550 C 282.802 170.959 282.137 171.221 281.650 171.700 C 281.090 172.251 280.806 173.044 280.250 173.600 C 279.776 174.074 279.070 174.273 278.600 174.750 C 278.039 175.320 277.635 176.030 277.200 176.700 C 276.802 177.313 276.643 178.110 276.100 178.600 C 275.574 179.074 274.799 179.167 274.150 179.450 C 273.501 179.733 272.801 179.925 272.200 180.300 C 271.589 180.682 271.011 181.146 270.550 181.700 C 270.082 182.262 269.659 182.899 269.450 183.600 C 269.182 184.499 269.108 185.463 269.150 186.400 C 269.192 187.349 270.152 188.666 269.700 189.200 C 269.327 189.641 268.172 188.756 267.500 188.350 C 266.308 187.631 265.198 186.766 264.150 185.850 C 263.607 185.376 263.281 184.687 262.750 184.200 C 262.257 183.747 261.689 183.369 261.100 183.050 C 260.300 182.616 259.033 182.750 258.600 181.950 C 258.263 181.327 258.871 180.408 259.450 180 C 260.578 179.205 262.344 179.545 263.350 178.600 C 263.960 178.027 263.474 176.927 263.600 176.100 C 263.741 175.177 263.898 174.249 264.150 173.350 C 264.366 172.579 264.679 171.834 265 171.100 C 265.329 170.350 265.713 169.622 266.100 168.900 C 267.096 167.041 268.159 165.212 269.150 163.350 C 269.542 162.614 269.833 161.822 270.250 161.100 C 270.585 160.520 270.996 159.984 271.400 159.450 C 271.829 158.884 272.248 158.302 272.750 157.800 C 273.269 157.281 273.897 156.882 274.450 156.400 C 274.588 156.280 274.451 156.183 274.700 156.100 Z " transform="matrix(-0.35239914059638977, 0.15972048044204712, 0.15972048044204712, 0.35239914059638977, 92.65, -76.2)"/>
    <path id="ID0.6049854294396937" fill="#00CCCC" stroke="#00CCCC" stroke-width="2" stroke-linecap="round" d="M 278.350 152.800 C 279.752 151.984 276.484 153.018 275 153.050 C 272.586 153.102 270.164 153.050 267.750 153.050 C 266.551 153.050 265.140 152.375 264.150 153.050 C 263.525 153.476 264.094 154.633 264.450 155.300 C 264.790 155.936 265.590 156.190 266.100 156.700 C 266.693 157.293 267.179 157.987 267.750 158.600 C 268.295 159.186 268.659 160.178 269.450 160.300 C 270.260 160.425 270.985 159.678 271.650 159.200 C 272.300 158.733 272.731 158.008 273.350 157.500 C 275.332 155.873 278.966 154.104 279.450 152.800 Z " transform="matrix(-0.35239914059638977, 0.15972048044204712, 0.15972048044204712, 0.35239914059638977, 92.65, -76.2)"/>
    <text id="ID0.7668859916739166" fill="#000000" x="200.35" y="213.95" text-anchor="start" font-family="Helvetica" font-size="22" transform="matrix(-0.23318785429000854, 0.01564895175397396, 0.01564895175397396, 0.23318785429000854, 22.35, 22.7)">030</text>
  </g>
  <path id="ID0.8365832129493356" fill="none" stroke="#666666" stroke-width="2" stroke-linecap="round" d="M 177.350 190 " transform="matrix(1, 0, 0, 1, -214, -193)"/>
  <path id="ID0.8365832129493356" fill="none" stroke="#666666" stroke-width="2" stroke-linecap="round" d="M 177.350 190 " transform="matrix(1, 0, 0, 1, -372, -259)"/>
  <path id="ID0.8365832129493356" fill="none" stroke="#666666" stroke-width="2" stroke-linecap="round" d="M 177.350 190 " transform="matrix(1, 0, 0, 1, -333, -100)"/>
  <path id="ID0.8365832129493356" fill="none" stroke="#666666" stroke-width="2" stroke-linecap="round" d="M 177.350 190 " transform="matrix(1, 0, 0, 1, -218, -303)"/>
  <path id="ID0.5099258632399142" fill="#009933" stroke="#006622" stroke-width="2" stroke-linecap="round" d="M 232 176 C 231.209 174.762 231.462 174.349 231.350 174 C 231.121 173.291 230.697 172.659 230.350 172 C 230.031 171.393 229.750 170.757 229.350 170.200 C 228.514 169.036 227.663 167.863 226.650 166.850 C 225.653 165.853 224.639 164.771 223.350 164.200 C 221.926 163.569 220.301 163.491 218.750 163.350 C 218.082 163.289 217.370 163.342 216.750 163.600 C 216.126 163.860 215.593 164.339 215.150 164.850 C 214.710 165.357 214.420 165.986 214.150 166.600 C 213.868 167.241 213.568 167.903 213.500 168.600 C 213.432 169.301 213.535 170.029 213.750 170.700 C 213.959 171.353 214.299 171.983 214.750 172.500 C 215.234 173.054 215.958 173.352 216.500 173.850 C 216.995 174.305 217.336 174.917 217.850 175.350 C 218.394 175.808 219.006 176.199 219.650 176.500 C 221.610 177.417 223.699 178.063 225.650 179 C 226.275 179.300 226.812 179.763 227.350 180.200 C 227.880 180.631 228.289 181.209 228.850 181.600 C 229.400 181.983 229.984 182.578 230.650 182.500 C 231.332 182.420 231.813 181.729 232.250 181.200 C 232.696 180.660 233.160 180.044 233.250 179.350 C 233.338 178.669 233.030 177.977 232.750 177.350 C 232.390 176.544 231.690 175.914 231.350 175.100 Z " transform="matrix(-0.4205758273601532, 0, 0, 0.4205758273601532, 148.5, -55.45)"/>
  <path id="ID0.5099258632399142" fill="#009933" stroke="#006622" stroke-width="2" stroke-linecap="round" d="M 232 176 C 231.209 174.762 231.462 174.349 231.350 174 C 231.121 173.291 230.697 172.659 230.350 172 C 230.031 171.393 229.750 170.757 229.350 170.200 C 228.514 169.036 227.663 167.863 226.650 166.850 C 225.653 165.853 224.639 164.771 223.350 164.200 C 221.926 163.569 220.301 163.491 218.750 163.350 C 218.082 163.289 217.370 163.342 216.750 163.600 C 216.126 163.860 215.593 164.339 215.150 164.850 C 214.710 165.357 214.420 165.986 214.150 166.600 C 213.868 167.241 213.568 167.903 213.500 168.600 C 213.432 169.301 213.535 170.029 213.750 170.700 C 213.959 171.353 214.299 171.983 214.750 172.500 C 215.234 173.054 215.958 173.352 216.500 173.850 C 216.995 174.305 217.336 174.917 217.850 175.350 C 218.394 175.808 219.006 176.199 219.650 176.500 C 221.610 177.417 223.699 178.063 225.650 179 C 226.275 179.300 226.812 179.763 227.350 180.200 C 227.880 180.631 228.289 181.209 228.850 181.600 C 229.400 181.983 229.984 182.578 230.650 182.500 C 231.332 182.420 231.813 181.729 232.250 181.200 C 232.696 180.660 233.160 180.044 233.250 179.350 C 233.338 178.669 233.030 177.977 232.750 177.350 C 232.390 176.544 231.690 175.914 231.350 175.100 Z " transform="matrix(0.4205757975578308, 0, 0, 0.4205757975578308, -45.8, -55.2)"/>
  <path id="ID0.5099258632399142" fill="#009933" stroke="#006622" stroke-width="2" stroke-linecap="round" d="M 232 176 C 231.209 174.762 231.462 174.349 231.350 174 C 231.121 173.291 230.697 172.659 230.350 172 C 230.031 171.393 229.750 170.757 229.350 170.200 C 228.514 169.036 227.663 167.863 226.650 166.850 C 225.653 165.853 224.639 164.771 223.350 164.200 C 221.926 163.569 220.301 163.491 218.750 163.350 C 218.082 163.289 217.370 163.342 216.750 163.600 C 216.126 163.860 215.593 164.339 215.150 164.850 C 214.710 165.357 214.420 165.986 214.150 166.600 C 213.868 167.241 213.568 167.903 213.500 168.600 C 213.432 169.301 213.535 170.029 213.750 170.700 C 213.959 171.353 214.299 171.983 214.750 172.500 C 215.234 173.054 215.958 173.352 216.500 173.850 C 216.995 174.305 217.336 174.917 217.850 175.350 C 218.394 175.808 219.006 176.199 219.650 176.500 C 221.610 177.417 223.699 178.063 225.650 179 C 226.275 179.300 226.812 179.763 227.350 180.200 C 227.880 180.631 228.289 181.209 228.850 181.600 C 229.400 181.983 229.984 182.578 230.650 182.500 C 231.332 182.420 231.813 181.729 232.250 181.200 C 232.696 180.660 233.160 180.044 233.250 179.350 C 233.338 178.669 233.030 177.977 232.750 177.350 C 232.390 176.544 231.690 175.914 231.350 175.100 Z " transform="matrix(-0.4205757975578308, 0, 0, 0.4205757975578308, 149.25, -52.7)"/>
  <path id="ID0.5099258632399142" fill="#009933" stroke="#006622" stroke-width="2" stroke-linecap="round" d="M 232 176 C 231.209 174.762 231.462 174.349 231.350 174 C 231.121 173.291 230.697 172.659 230.350 172 C 230.031 171.393 229.750 170.757 229.350 170.200 C 228.514 169.036 227.663 167.863 226.650 166.850 C 225.653 165.853 224.639 164.771 223.350 164.200 C 221.926 163.569 220.301 163.491 218.750 163.350 C 218.082 163.289 217.370 163.342 216.750 163.600 C 216.126 163.860 215.593 164.339 215.150 164.850 C 214.710 165.357 214.420 165.986 214.150 166.600 C 213.868 167.241 213.568 167.903 213.500 168.600 C 213.432 169.301 213.535 170.029 213.750 170.700 C 213.959 171.353 214.299 171.983 214.750 172.500 C 215.234 173.054 215.958 173.352 216.500 173.850 C 216.995 174.305 217.336 174.917 217.850 175.350 C 218.394 175.808 219.006 176.199 219.650 176.500 C 221.610 177.417 223.699 178.063 225.650 179 C 226.275 179.300 226.812 179.763 227.350 180.200 C 227.880 180.631 228.289 181.209 228.850 181.600 C 229.400 181.983 229.984 182.578 230.650 182.500 C 231.332 182.420 231.813 181.729 232.250 181.200 C 232.696 180.660 233.160 180.044 233.250 179.350 C 233.338 178.669 233.030 177.977 232.750 177.350 C 232.390 176.544 231.690 175.914 231.350 175.100 Z " transform="matrix(0.4205757975578308, 0, 0, 0.4205757975578308, -46.65, -52.45)"/>
  <path id="ID0.5099258632399142" fill="#009933" stroke="#006622" stroke-width="2" stroke-linecap="round" d="M 232 176 C 231.209 174.762 231.462 174.349 231.350 174 C 231.121 173.291 230.697 172.659 230.350 172 C 230.031 171.393 229.750 170.757 229.350 170.200 C 228.514 169.036 227.663 167.863 226.650 166.850 C 225.653 165.853 224.639 164.771 223.350 164.200 C 221.926 163.569 220.301 163.491 218.750 163.350 C 218.082 163.289 217.370 163.342 216.750 163.600 C 216.126 163.860 215.593 164.339 215.150 164.850 C 214.710 165.357 214.420 165.986 214.150 166.600 C 213.868 167.241 213.568 167.903 213.500 168.600 C 213.432 169.301 213.535 170.029 213.750 170.700 C 213.959 171.353 214.299 171.983 214.750 172.500 C 215.234 173.054 215.958 173.352 216.500 173.850 C 216.995 174.305 217.336 174.917 217.850 175.350 C 218.394 175.808 219.006 176.199 219.650 176.500 C 221.610 177.417 223.699 178.063 225.650 179 C 226.275 179.300 226.812 179.763 227.350 180.200 C 227.880 180.631 228.289 181.209 228.850 181.600 C 229.400 181.983 229.984 182.578 230.650 182.500 C 231.332 182.420 231.813 181.729 232.250 181.200 C 232.696 180.660 233.160 180.044 233.250 179.350 C 233.338 178.669 233.030 177.977 232.750 177.350 C 232.390 176.544 231.690 175.914 231.350 175.100 Z " transform="matrix(0.4205757975578308, 0, 0, 0.4205757975578308, -51.65, -50.9)"/>
  <path id="ID0.5099258632399142" fill="#009933" stroke="#006622" stroke-width="2" stroke-linecap="round" d="M 232 176 C 231.209 174.762 231.462 174.349 231.350 174 C 231.121 173.291 230.697 172.659 230.350 172 C 230.031 171.393 229.750 170.757 229.350 170.200 C 228.514 169.036 227.663 167.863 226.650 166.850 C 225.653 165.853 224.639 164.771 223.350 164.200 C 221.926 163.569 220.301 163.491 218.750 163.350 C 218.082 163.289 217.370 163.342 216.750 163.600 C 216.126 163.860 215.593 164.339 215.150 164.850 C 214.710 165.357 214.420 165.986 214.150 166.600 C 213.868 167.241 213.568 167.903 213.500 168.600 C 213.432 169.301 213.535 170.029 213.750 170.700 C 213.959 171.353 214.299 171.983 214.750 172.500 C 215.234 173.054 215.958 173.352 216.500 173.850 C 216.995 174.305 217.336 174.917 217.850 175.350 C 218.394 175.808 219.006 176.199 219.650 176.500 C 221.610 177.417 223.699 178.063 225.650 179 C 226.275 179.300 226.812 179.763 227.350 180.200 C 227.880 180.631 228.289 181.209 228.850 181.600 C 229.400 181.983 229.984 182.578 230.650 182.500 C 231.332 182.420 231.813 181.729 232.250 181.200 C 232.696 180.660 233.160 180.044 233.250 179.350 C 233.338 178.669 233.030 177.977 232.750 177.350 C 232.390 176.544 231.690 175.914 231.350 175.100 Z " transform="matrix(-0.4205757975578308, 0, 0, 0.4205757975578308, 154, -50.7)"/>
  <path id="ID0.22532706055790186" fill="#E9FF51" stroke="#D0E448" stroke-width="2" d="M 239.500 153 C 250.122 153 259.747 158.491 266.716 167.361 C 273.686 176.231 278 188.481 278 202 C 278 215.519 273.686 227.769 266.716 236.639 C 259.747 245.509 250.122 251 239.500 251 C 228.878 251 219.253 245.509 212.284 236.639 C 205.314 227.769 201 215.519 201 202 C 201 188.481 205.314 176.231 212.284 167.361 C 219.253 158.491 228.878 153 239.500 153 Z " transform="matrix(-0.3318413197994232, 0, 0, 0.3318413197994232, 130.1, -21.9)"/>
  <path id="ID0.8235992449335754" fill="none" stroke="#D0E448" stroke-width="2" stroke-linecap="round" d="M 213.250 189.400 L 219.850 183.500 L 226.250 189.500 L 234 183 L 240.150 189.400 L 247.250 182.700 L 254.350 190.150 " transform="matrix(-0.37486669421195984, 0, 0, 0.37486669421195984, 138.25, -38.15)"/>
  <path id="ID0.5099258632399142" fill="#009933" stroke="#006622" stroke-width="2" stroke-linecap="round" d="M 232 176 C 231.209 174.762 231.462 174.349 231.350 174 C 231.121 173.291 230.697 172.659 230.350 172 C 230.031 171.393 229.750 170.757 229.350 170.200 C 228.514 169.036 227.663 167.863 226.650 166.850 C 225.653 165.853 224.639 164.771 223.350 164.200 C 221.926 163.569 220.301 163.491 218.750 163.350 C 218.082 163.289 217.370 163.342 216.750 163.600 C 216.126 163.860 215.593 164.339 215.150 164.850 C 214.710 165.357 214.420 165.986 214.150 166.600 C 213.868 167.241 213.568 167.903 213.500 168.600 C 213.432 169.301 213.535 170.029 213.750 170.700 C 213.959 171.353 214.299 171.983 214.750 172.500 C 215.234 173.054 215.958 173.352 216.500 173.850 C 216.995 174.305 217.336 174.917 217.850 175.350 C 218.394 175.808 219.006 176.199 219.650 176.500 C 221.610 177.417 223.699 178.063 225.650 179 C 226.275 179.300 226.812 179.763 227.350 180.200 C 227.880 180.631 228.289 181.209 228.850 181.600 C 229.400 181.983 229.984 182.578 230.650 182.500 C 231.332 182.420 231.813 181.729 232.250 181.200 C 232.696 180.660 233.160 180.044 233.250 179.350 C 233.338 178.669 233.030 177.977 232.750 177.350 C 232.390 176.544 231.690 175.914 231.350 175.100 Z " transform="matrix(-0.4205757975578308, 0, 0, 0.4205757975578308, 152.55, -45.65)"/>
  <path id="ID0.5099258632399142" fill="#009933" stroke="#006622" stroke-width="2" stroke-linecap="round" d="M 232 176 C 231.209 174.762 231.462 174.349 231.350 174 C 231.121 173.291 230.697 172.659 230.350 172 C 230.031 171.393 229.750 170.757 229.350 170.200 C 228.514 169.036 227.663 167.863 226.650 166.850 C 225.653 165.853 224.639 164.771 223.350 164.200 C 221.926 163.569 220.301 163.491 218.750 163.350 C 218.082 163.289 217.370 163.342 216.750 163.600 C 216.126 163.860 215.593 164.339 215.150 164.850 C 214.710 165.357 214.420 165.986 214.150 166.600 C 213.868 167.241 213.568 167.903 213.500 168.600 C 213.432 169.301 213.535 170.029 213.750 170.700 C 213.959 171.353 214.299 171.983 214.750 172.500 C 215.234 173.054 215.958 173.352 216.500 173.850 C 216.995 174.305 217.336 174.917 217.850 175.350 C 218.394 175.808 219.006 176.199 219.650 176.500 C 221.610 177.417 223.699 178.063 225.650 179 C 226.275 179.300 226.812 179.763 227.350 180.200 C 227.880 180.631 228.289 181.209 228.850 181.600 C 229.400 181.983 229.984 182.578 230.650 182.500 C 231.332 182.420 231.813 181.729 232.250 181.200 C 232.696 180.660 233.160 180.044 233.250 179.350 C 233.338 178.669 233.030 177.977 232.750 177.350 C 232.390 176.544 231.690 175.914 231.350 175.100 Z " transform="matrix(0.4205757975578308, 0, 0, 0.4205757975578308, -51.85, -45.55)"/>
  <path id="ID0.5099258632399142" fill="#009933" stroke="#006622" stroke-width="2" stroke-linecap="round" d="M 232 176 C 231.209 174.762 231.462 174.349 231.350 174 C 231.121 173.291 230.697 172.659 230.350 172 C 230.031 171.393 229.750 170.757 229.350 170.200 C 228.514 169.036 227.663 167.863 226.650 166.850 C 225.653 165.853 224.639 164.771 223.350 164.200 C 221.926 163.569 220.301 163.491 218.750 163.350 C 218.082 163.289 217.370 163.342 216.750 163.600 C 216.126 163.860 215.593 164.339 215.150 164.850 C 214.710 165.357 214.420 165.986 214.150 166.600 C 213.868 167.241 213.568 167.903 213.500 168.600 C 213.432 169.301 213.535 170.029 213.750 170.700 C 213.959 171.353 214.299 171.983 214.750 172.500 C 215.234 173.054 215.958 173.352 216.500 173.850 C 216.995 174.305 217.336 174.917 217.850 175.350 C 218.394 175.808 219.006 176.199 219.650 176.500 C 221.610 177.417 223.699 178.063 225.650 179 C 226.275 179.300 226.812 179.763 227.350 180.200 C 227.880 180.631 228.289 181.209 228.850 181.600 C 229.400 181.983 229.984 182.578 230.650 182.500 C 231.332 182.420 231.813 181.729 232.250 181.200 C 232.696 180.660 233.160 180.044 233.250 179.350 C 233.338 178.669 233.030 177.977 232.750 177.350 C 232.390 176.544 231.690 175.914 231.350 175.100 Z " transform="matrix(-0.4205757975578308, 0, 0, 0.4205757975578308, 149.8, -47.15)"/>
  <path id="ID0.5099258632399142" fill="#009933" stroke="#006622" stroke-width="2" stroke-linecap="round" d="M 232 176 C 231.209 174.762 231.462 174.349 231.350 174 C 231.121 173.291 230.697 172.659 230.350 172 C 230.031 171.393 229.750 170.757 229.350 170.200 C 228.514 169.036 227.663 167.863 226.650 166.850 C 225.653 165.853 224.639 164.771 223.350 164.200 C 221.926 163.569 220.301 163.491 218.750 163.350 C 218.082 163.289 217.370 163.342 216.750 163.600 C 216.126 163.860 215.593 164.339 215.150 164.850 C 214.710 165.357 214.420 165.986 214.150 166.600 C 213.868 167.241 213.568 167.903 213.500 168.600 C 213.432 169.301 213.535 170.029 213.750 170.700 C 213.959 171.353 214.299 171.983 214.750 172.500 C 215.234 173.054 215.958 173.352 216.500 173.850 C 216.995 174.305 217.336 174.917 217.850 175.350 C 218.394 175.808 219.006 176.199 219.650 176.500 C 221.610 177.417 223.699 178.063 225.650 179 C 226.275 179.300 226.812 179.763 227.350 180.200 C 227.880 180.631 228.289 181.209 228.850 181.600 C 229.400 181.983 229.984 182.578 230.650 182.500 C 231.332 182.420 231.813 181.729 232.250 181.200 C 232.696 180.660 233.160 180.044 233.250 179.350 C 233.338 178.669 233.030 177.977 232.750 177.350 C 232.390 176.544 231.690 175.914 231.350 175.100 Z " transform="matrix(0.4205757975578308, 0, 0, 0.4205757975578308, -48.9, -47)"/>
  <path id="ID0.5099258632399142" fill="#009933" stroke="#006622" stroke-width="2" stroke-linecap="round" d="M 232 176 C 231.209 174.762 231.462 174.349 231.350 174 C 231.121 173.291 230.697 172.659 230.350 172 C 230.031 171.393 229.750 170.757 229.350 170.200 C 228.514 169.036 227.663 167.863 226.650 166.850 C 225.653 165.853 224.639 164.771 223.350 164.200 C 221.926 163.569 220.301 163.491 218.750 163.350 C 218.082 163.289 217.370 163.342 216.750 163.600 C 216.126 163.860 215.593 164.339 215.150 164.850 C 214.710 165.357 214.420 165.986 214.150 166.600 C 213.868 167.241 213.568 167.903 213.500 168.600 C 213.432 169.301 213.535 170.029 213.750 170.700 C 213.959 171.353 214.299 171.983 214.750 172.500 C 215.234 173.054 215.958 173.352 216.500 173.850 C 216.995 174.305 217.336 174.917 217.850 175.350 C 218.394 175.808 219.006 176.199 219.650 176.500 C 221.610 177.417 223.699 178.063 225.650 179 C 226.275 179.300 226.812 179.763 227.350 180.200 C 227.880 180.631 228.289 181.209 228.850 181.600 C 229.400 181.983 229.984 182.578 230.650 182.500 C 231.332 182.420 231.813 181.729 232.250 181.200 C 232.696 180.660 233.160 180.044 233.250 179.350 C 233.338 178.669 233.030 177.977 232.750 177.350 C 232.390 176.544 231.690 175.914 231.350 175.100 Z " transform="matrix(-0.4205757975578308, 0, 0, 0.4205757975578308, 147.3, -47.5)"/>
  <path id="ID0.5099258632399142" fill="#009933" stroke="#006622" stroke-width="2" stroke-linecap="round" d="M 232 176 C 231.209 174.762 231.462 174.349 231.350 174 C 231.121 173.291 230.697 172.659 230.350 172 C 230.031 171.393 229.750 170.757 229.350 170.200 C 228.514 169.036 227.663 167.863 226.650 166.850 C 225.653 165.853 224.639 164.771 223.350 164.200 C 221.926 163.569 220.301 163.491 218.750 163.350 C 218.082 163.289 217.370 163.342 216.750 163.600 C 216.126 163.860 215.593 164.339 215.150 164.850 C 214.710 165.357 214.420 165.986 214.150 166.600 C 213.868 167.241 213.568 167.903 213.500 168.600 C 213.432 169.301 213.535 170.029 213.750 170.700 C 213.959 171.353 214.299 171.983 214.750 172.500 C 215.234 173.054 215.958 173.352 216.500 173.850 C 216.995 174.305 217.336 174.917 217.850 175.350 C 218.394 175.808 219.006 176.199 219.650 176.500 C 221.610 177.417 223.699 178.063 225.650 179 C 226.275 179.300 226.812 179.763 227.350 180.200 C 227.880 180.631 228.289 181.209 228.850 181.600 C 229.400 181.983 229.984 182.578 230.650 182.500 C 231.332 182.420 231.813 181.729 232.250 181.200 C 232.696 180.660 233.160 180.044 233.250 179.350 C 233.338 178.669 233.030 177.977 232.750 177.350 C 232.390 176.544 231.690 175.914 231.350 175.100 Z " transform="matrix(0.4205757975578308, 0, 0, 0.4205757975578308, -46.4, -47.4)"/>
  <path id="ID0.8235992449335754" fill="none" stroke="#D0E448" stroke-width="2" stroke-linecap="round" d="M 213.250 189.400 L 219.850 183.500 L 226.250 189.500 L 234 183 L 240.150 189.400 L 247.250 182.700 L 254.350 190.150 " transform="matrix(-0.37486669421195984, 0, 0, 0.37486669421195984, 138.25, -13.5)"/>
  <path id="ID0.8235992449335754" fill="none" stroke="#D0E448" stroke-width="2" stroke-linecap="round" d="M 213.250 189.400 L 219.850 183.500 L 226.250 189.500 L 234 183 L 240.150 189.400 L 247.250 182.700 L 254.350 190.150 " transform="matrix(-0.528691291809082, 0, 0, 0.37486669421195984, 174.3, -17.75)"/>
  <path id="ID0.8235992449335754" fill="none" stroke="#D0E448" stroke-width="2" stroke-linecap="round" d="M 213.250 189.400 L 219.850 183.500 L 226.250 189.500 L 234 183 L 240.150 189.400 L 247.250 182.700 L 254.350 190.150 " transform="matrix(-0.5816896557807922, 0, 0, 0.37486669421195984, 186.75, -22.25)"/>
  <path id="ID0.8235992449335754" fill="none" stroke="#D0E448" stroke-width="2" stroke-linecap="round" d="M 213.250 189.400 L 219.850 183.500 L 226.250 189.500 L 234 183 L 240.150 189.400 L 247.250 182.700 L 254.350 190.150 " transform="matrix(-0.5907381772994995, 0, 0, 0.37486669421195984, 188.75, -26.4)"/>
  <path id="ID0.8235992449335754" fill="none" stroke="#D0E448" stroke-width="2" stroke-linecap="round" d="M 213.250 189.400 L 219.850 183.500 L 226.250 189.500 L 234 183 L 240.150 189.400 L 247.250 182.700 L 254.350 190.150 " transform="matrix(-0.5816896557807922, 0, 0, 0.37486669421195984, 186.85, -30)"/>
  <path id="ID0.8235992449335754" fill="none" stroke="#D0E448" stroke-width="2" stroke-linecap="round" d="M 213.250 189.400 L 219.850 183.500 L 226.250 189.500 L 234 183 L 240.150 189.400 L 247.250 182.700 L 254.350 190.150 " transform="matrix(-0.528691291809082, 0, 0, 0.37486669421195984, 174.2, -34)"/>
  <path id="ID0.6061547710560262" fill="#000000" stroke="#000000" stroke-width="2" stroke-linecap="round" d="M 222.100 186.850 L 218.600 177.250 L 239.350 177.250 L 236.700 186.350 L 222.100 186.850 Z " transform="matrix(-0.5731709599494934, 0, 0, 0.5731709599494934, 190.25, -64.3)"/>
  <path id="ID0.6061547710560262" fill="#000000" stroke="#000000" stroke-width="2" stroke-linecap="round" d="M 222.100 186.850 L 218.600 177.250 L 239.350 177.250 L 236.700 186.350 L 222.100 186.850 Z " transform="matrix(-0.5731709599494934, 0, 0, 0.5731709599494934, 175.8, -64.5)"/>
  <path id="ID0.7489708689972758" fill="#000000" stroke="none" d="M 236.500 173.750 L 241.350 173.750 L 241.350 175.250 L 236.500 175.250 L 236.500 173.750 Z " transform="matrix(-1.1155515909194946, 0, 0, 1.1155515909194946, 318.4, -155.55)"/>
  <path id="ID0.2612604680471122" fill="#FFFFFF" stroke="none" d="M 213.200 176.650 L 215.100 176.650 L 215.100 188.350 L 213.200 188.350 L 213.200 176.650 Z " transform="matrix(-0.3722831606864929, -0.2351866066455841, -0.2351866066455841, 0.3722831606864929, 185.6, 22.55)"/>
  <path id="ID0.2612604680471122" fill="#FFFFFF" stroke="none" d="M 213.200 176.650 L 215.100 176.650 L 215.100 188.350 L 213.200 188.350 L 213.200 176.650 Z " transform="matrix(-0.3722831606864929, -0.2351866066455841, -0.2351866066455841, 0.3722831606864929, 170.75, 21.9)"/>
  <path id="ID0.6025561904534698" fill="none" stroke="#000000" stroke-width="2" stroke-linecap="round" d="M 235.850 194.350 L 231.350 200.850 L 237.350 206.150 L 227.100 206.250 " transform="matrix(-0.9605797529220581, 0.5672229528427124, 0.5672229528427124, 0.9605797529220581, 173.45, -259.75)"/>
  <path id="ID0.6025561904534698" fill="none" stroke="#000000" stroke-width="2" stroke-linecap="round" d="M 235.850 194.350 L 231.350 200.850 L 237.350 206.150 L 227.100 206.250 " transform="matrix(0.990389347076416, 0.5134046673774719, -0.5134046673774719, 0.990389347076416, -88.35, -252.85)"/>
  <path id="ID0.8365832129493356" fill="none" stroke="#666666" stroke-width="2" stroke-linecap="round" d="M 177.350 190 " transform="matrix(1, 0, 0, 1, -27, -52)"/>
  <path id="ID0.8365832129493356" fill="none" stroke="#666666" stroke-width="2" stroke-linecap="round" d="M 177.350 190 " transform="matrix(1, 0, 0, 1, -212, -130)"/>
  <path id="ID0.8365832129493356" fill="none" stroke="#666666" stroke-width="2" stroke-linecap="round" d="M 177.350 190 " transform="matrix(1, 0, 0, 1, -13, -60)"/>
  <path id="ID0.8365832129493356" fill="none" stroke="#666666" stroke-width="2" stroke-linecap="round" d="M 177.350 190 " transform="matrix(1, 0, 0, 1, -224, -50)"/>
  <g id="ID0.6676402115263045">
    <path id="ID0.6670698802918196" fill="#00FFFF" stroke="#00CCCC" stroke-width="2" stroke-linecap="round" d="M 274.700 157.250 C 275.696 155.768 276.744 155.599 277.750 155.300 C 278.593 155.049 279.413 154.721 280.250 154.450 C 281.728 153.972 283.189 153.409 284.700 153.050 C 285.514 152.857 286.365 152.844 287.200 152.800 C 287.948 152.761 288.701 152.800 289.450 152.800 C 290.282 152.800 291.139 152.614 291.950 152.800 C 293.567 153.171 295.126 153.795 296.650 154.450 C 297.270 154.716 297.819 155.135 298.350 155.550 C 299.121 156.153 299.840 156.826 300.550 157.500 C 301.123 158.043 301.847 158.494 302.200 159.200 C 302.531 159.861 302.703 160.689 302.500 161.400 C 302.302 162.093 301.633 162.565 301.100 163.050 C 300.509 163.588 299.898 164.167 299.150 164.450 C 297.182 165.196 295.081 165.549 293.050 166.100 C 292.317 166.299 291.582 166.497 290.850 166.700 C 290.200 166.880 289.542 167.044 288.900 167.250 C 288.143 167.493 287.361 167.694 286.650 168.050 C 286.051 168.350 285.534 168.796 285 169.200 C 284.434 169.629 283.919 170.125 283.350 170.550 C 282.802 170.959 282.137 171.221 281.650 171.700 C 281.090 172.251 280.806 173.044 280.250 173.600 C 279.776 174.074 279.070 174.273 278.600 174.750 C 278.039 175.320 277.635 176.030 277.200 176.700 C 276.802 177.313 276.643 178.110 276.100 178.600 C 275.574 179.074 274.799 179.167 274.150 179.450 C 273.501 179.733 272.801 179.925 272.200 180.300 C 271.589 180.682 271.011 181.146 270.550 181.700 C 270.082 182.262 269.659 182.899 269.450 183.600 C 269.182 184.499 269.108 185.463 269.150 186.400 C 269.192 187.349 270.152 188.666 269.700 189.200 C 269.327 189.641 268.172 188.756 267.500 188.350 C 266.308 187.631 265.198 186.766 264.150 185.850 C 263.607 185.376 263.281 184.687 262.750 184.200 C 262.257 183.747 261.689 183.369 261.100 183.050 C 260.300 182.616 259.033 182.750 258.600 181.950 C 258.263 181.327 258.871 180.408 259.450 180 C 260.578 179.205 262.344 179.545 263.350 178.600 C 263.960 178.027 263.474 176.927 263.600 176.100 C 263.741 175.177 263.898 174.249 264.150 173.350 C 264.366 172.579 264.679 171.834 265 171.100 C 265.329 170.350 265.713 169.622 266.100 168.900 C 267.096 167.041 268.159 165.212 269.150 163.350 C 269.542 162.614 269.833 161.822 270.250 161.100 C 270.585 160.520 270.996 159.984 271.400 159.450 C 271.829 158.884 272.248 158.302 272.750 157.800 C 273.269 157.281 273.897 156.882 274.450 156.400 C 274.588 156.280 274.451 156.183 274.700 156.100 Z " transform="matrix(0.35239914059638977, 0.15972048044204712, -0.15972048044204712, 0.35239914059638977, 7.95, -77.7)"/>
    <path id="ID0.6049854294396937" fill="#00CCCC" stroke="#00CCCC" stroke-width="2" stroke-linecap="round" d="M 278.350 152.800 C 279.752 151.984 276.484 153.018 275 153.050 C 272.586 153.102 270.164 153.050 267.750 153.050 C 266.551 153.050 265.140 152.375 264.150 153.050 C 263.525 153.476 264.094 154.633 264.450 155.300 C 264.790 155.936 265.590 156.190 266.100 156.700 C 266.693 157.293 267.179 157.987 267.750 158.600 C 268.295 159.186 268.659 160.178 269.450 160.300 C 270.260 160.425 270.985 159.678 271.650 159.200 C 272.300 158.733 272.731 158.008 273.350 157.500 C 275.332 155.873 278.966 154.104 279.450 152.800 Z " transform="matrix(0.35239914059638977, 0.15972048044204712, -0.15972048044204712, 0.35239914059638977, 7.95, -77.7)"/>
    <text id="ID0.7668859916739166" fill="#000000" x="200.35" y="213.95" text-anchor="start" font-family="Helvetica" font-size="22" transform="matrix(0.23318785429000854, 0.01564895175397396, -0.01564895175397396, 0.23318785429000854, 78.25, 21.2)">030</text>
  </g>
  <g id="ID0.2014256427064538">
    <path id="ID0.7179879313334823" fill="none" stroke="#000000" stroke-width="2" stroke-linecap="round" d="M 253.200 179.750 L 265.750 195.850 L 278.350 195.800 " transform="matrix(0.06773499399423599, -0.7501230239868164, 0.7501230239868164, 0.06773499399423599, -91.5, 232.2)"/>
    <path id="ID0.26264452934265137" fill="none" stroke="#000000" stroke-width="2" stroke-linecap="round" d="M 296.100 124.500 L 284.300 137.650 L 283.550 121.300 " transform="matrix(0.6162273287773132, 0.01254306174814701, -0.01254306174814701, 0.6162273287773132, -99.1, -52.45)"/>
    <path id="ID0.1994128692895174" fill="none" stroke="#000000" stroke-width="2" stroke-linecap="round" d="M 290.750 120.450 L 285.650 135.100 " transform="matrix(0.6162273287773132, 0.01254306174814701, -0.01254306174814701, 0.6162273287773132, -99.1, -52.45)"/>
  </g>
  <g id="ID0.2014256427064538">
    <path id="ID0.7179879313334823" fill="none" stroke="#000000" stroke-width="2" stroke-linecap="round" d="M 253.200 179.750 L 265.750 195.850 L 278.350 195.800 " transform="matrix(-0.06773499399423599, -0.7501230239868164, -0.7501230239868164, 0.06773499399423599, 191.75, 231.65)"/>
    <path id="ID0.26264452934265137" fill="none" stroke="#000000" stroke-width="2" stroke-linecap="round" d="M 296.100 124.500 L 284.300 137.650 L 283.550 121.300 " transform="matrix(-0.6162273287773132, 0.01254306174814701, 0.01254306174814701, 0.6162273287773132, 199.35, -53)"/>
    <path id="ID0.1994128692895174" fill="none" stroke="#000000" stroke-width="2" stroke-linecap="round" d="M 290.750 120.450 L 285.650 135.100 " transform="matrix(-0.6162273287773132, 0.01254306174814701, 0.01254306174814701, 0.6162273287773132, 199.35, -53)"/>
  </g>
</svg>