<svg version="1.1" width="508" height="266" viewBox="-1 -1 508 266" xmlns="http://www.w3.org/2000/svg" xmlns:xlink="http://www.w3.org/1999/xlink">
  <!-- Exported by Scratch - http://scratch.mit.edu/ -->
  <g id="ID0.7704593222588301" transform="matrix(1, 0, 0, 1, 3, -96)">
    <path id="ID0.6420053881593049" fill="#7F7F7F" stroke="#666666" stroke-width="5" stroke-linecap="round" d="M 0 321 L 480 321 L 480 341 L 0 341 L 0 321 Z " transform="matrix(1, 0, 0, 0.2539999783039093, 2, 211.85)"/>
    <path id="ID0.9703943287022412" fill="#006622" stroke="none" d="M 0 345 L 480 345 L 480 360 L 0 360 L 0 345 Z " transform="matrix(1, 0, 0, 1.8666666746139526, 0, -312)"/>
    <path id="ID0.6420053881593049" fill="#7F7F7F" stroke="#666666" stroke-width="5" stroke-linecap="round" d="M 0 321 L 480 321 L 480 341 L 0 341 L 0 321 Z " transform="matrix(1, 0, 0, 0.8999999761581421, 0, 34.05)"/>
    <path id="ID0.10902618849650025" fill="#000000" stroke="none" d="M 0 299 L 480 299 L 480 324 L 0 324 L 0 299 Z "/>
    <path id="ID0.3529828772880137" fill="#FFFF00" stroke="none" d="M 0 301 L 69 301 L 69 305 L 0 305 L 0 301 Z "/>
    <path id="ID0.3529828772880137" fill="#FFFF00" stroke="none" d="M 0 301 L 69 301 L 69 305 L 0 305 L 0 301 Z " transform="matrix(1, 0, 0, 1, 101.5, 0)"/>
    <path id="ID0.3529828772880137" fill="#FFFF00" stroke="none" d="M 0 301 L 69 301 L 69 305 L 0 305 L 0 301 Z " transform="matrix(1, 0, 0, 1, 210.5, 0)"/>
    <path id="ID0.3529828772880137" fill="#FFFF00" stroke="none" d="M 0 301 L 69 301 L 69 305 L 0 305 L 0 301 Z " transform="matrix(1, 0, 0, 1, 317.5, 0)"/>
    <path id="ID0.3529828772880137" fill="#FFFF00" stroke="none" d="M 0 301 L 69 301 L 69 305 L 0 305 L 0 301 Z " transform="matrix(1, 0, 0, 1, 434.5, -1)"/>
    <path id="ID0.2967764255590737" fill="#660000" stroke="none" d="M 23 98 L 186 98 L 186 293 L 23 293 L 23 98 Z " transform="matrix(1, 0, 0, 1, -24, -2)"/>
    <path id="ID0.3531597387045622" fill="#990000" stroke="none" d="M 34 238 L 75 238 L 75 258 L 34 258 L 34 238 Z "/>
    <path id="ID0.3531597387045622" fill="#990000" stroke="none" d="M 34 238 L 75 238 L 75 258 L 34 258 L 34 238 Z " transform="matrix(1, 0, 0, 1, 41, -14)"/>
    <path id="ID0.3531597387045622" fill="#990000" stroke="none" d="M 34 238 L 75 238 L 75 258 L 34 258 L 34 238 Z " transform="matrix(1, 0, 0, 1, 28, -26)"/>
    <path id="ID0.3531597387045622" fill="#990000" stroke="none" d="M 34 238 L 75 238 L 75 258 L 34 258 L 34 238 Z " transform="matrix(1, 0, 0, 1, 58.5, 15)"/>
    <path id="ID0.3531597387045622" fill="#990000" stroke="none" d="M 34 238 L 75 238 L 75 258 L 34 258 L 34 238 Z " transform="matrix(1, 0, 0, 1, 36, 23)"/>
    <path id="ID0.3531597387045622" fill="#990000" stroke="none" d="M 34 238 L 75 238 L 75 258 L 34 258 L 34 238 Z " transform="matrix(1, 0, 0, 1, -30.5, 32)"/>
    <path id="ID0.3531597387045622" fill="#990000" stroke="none" d="M 34 238 L 75 238 L 75 258 L 34 258 L 34 238 Z " transform="matrix(1, 0, 0, 1, 69, -135)"/>
    <path id="ID0.3531597387045622" fill="#990000" stroke="none" d="M 34 238 L 75 238 L 75 258 L 34 258 L 34 238 Z " transform="matrix(1, 0, 0, 1, 41, -125)"/>
    <path id="ID0.3531597387045622" fill="#990000" stroke="none" d="M 34 238 L 75 238 L 75 258 L 34 258 L 34 238 Z " transform="matrix(1, 0, 0, 1, -31.5, -139)"/>
    <path id="ID0.3531597387045622" fill="#990000" stroke="none" d="M 34 238 L 75 238 L 75 258 L 34 258 L 34 238 Z " transform="matrix(1, 0, 0, 1, -19, -93)"/>
    <path id="ID0.3531597387045622" fill="#990000" stroke="none" d="M 34 238 L 75 238 L 75 258 L 34 258 L 34 238 Z " transform="matrix(1, 0, 0, 1, 19.5, -76)"/>
    <path id="ID0.3531597387045622" fill="#990000" stroke="none" d="M 34 238 L 75 238 L 75 258 L 34 258 L 34 238 Z " transform="matrix(1, 0, 0, 1, 62.5, -88)"/>
    <path id="ID0.3531597387045622" fill="#990000" stroke="none" d="M 34 238 L 75 238 L 75 258 L 34 258 L 34 238 Z " transform="matrix(1, 0, 0, 1, 51.5, -79)"/>
    <path id="ID0.3531597387045622" fill="#990000" stroke="none" d="M 34 238 L 75 238 L 75 258 L 34 258 L 34 238 Z " transform="matrix(1, 0, 0, 1, -30.5, -47)"/>
    <path id="ID0.02985670743510127" fill="#995900" stroke="none" d="M 162 121 L 196 121 L 196 130 L 162 130 L 162 121 Z "/>
    <path id="ID0.02985670743510127" fill="#995900" stroke="none" d="M 162 121 L 196 121 L 196 130 L 162 130 L 162 121 Z " transform="matrix(1, 0, 0, 1, 0, 33.5)"/>
    <path id="ID0.8944864110089839" fill="#FFFF99" stroke="#FFFF00" stroke-width="5" stroke-linecap="round" d="M 192 101 L 254 101 L 254 179 L 192 179 L 192 101 Z "/>
    <text id="ID0.33032648684456944" fill="#FF9400" x="219" y="211.35" text-anchor="start" font-family="Gloria" font-size="22" transform="matrix(0.5828759670257568, 0, 0, 0.5828759670257568, 196, 100.15)">Bob'sBurgers</text>
    <path id="ID0.23290915181860328" fill="#995900" stroke="none" stroke-linecap="round" d="M 243.250 169 C 247.319 169 251.007 169.821 253.677 171.147 C 256.347 172.473 257.712 174.105 258 176.325 C 258.338 178.919 257.653 182.606 255.350 184.050 C 251.870 186.231 247.262 186.008 243.150 186.050 C 239.154 185.923 234.701 185.935 231.350 183.800 C 229.104 182.369 228.284 178.875 228.500 176.325 C 228.685 174.092 230.153 172.473 232.823 171.147 C 235.493 169.821 239.181 169 243.250 169 Z " transform="matrix(0.7037814855575562, 0, 0, 0.48963233828544617, 52.15, 81.1)"/>
    <path id="ID0.5440721549093723" fill="#CC7700" stroke="none" d="M 242.125 176.800 C 246.229 176.800 249.948 177.310 252.640 178.134 C 255.333 178.957 257 180.095 257 181.350 C 257 182.605 255.333 183.743 252.640 184.566 C 249.948 185.390 246.229 185.900 242.125 185.900 C 238.021 185.900 234.302 185.390 231.610 184.566 C 228.917 183.743 227.250 182.605 227.250 181.350 C 227.250 180.095 228.917 178.957 231.610 178.134 C 234.302 177.310 238.021 176.800 242.125 176.800 Z " transform="matrix(0.7037814855575562, 0, 0, 0.7884689569473267, 53.05, 22)"/>
    <path id="ID0.6329789543524384" fill="none" stroke="#99FFBB" stroke-width="2" stroke-linecap="round" d="M 226.250 176 C 226.250 176 227.468 177.563 228.250 178.150 C 228.829 178.584 229.527 178.974 230.250 179 C 231.002 179.027 231.648 178.264 232.400 178.300 C 233.804 178.367 235.099 179.412 236.500 179.300 C 237.936 179.185 239.079 177.887 240.500 177.650 C 241.191 177.535 241.892 177.953 242.500 178.300 C 243.083 178.633 243.396 179.356 244 179.650 C 244.608 179.945 245.350 180.186 246 180 C 246.646 179.815 246.967 179.060 247.500 178.650 C 248.053 178.225 248.554 177.548 249.250 177.500 C 249.933 177.453 250.418 178.468 251.100 178.400 C 251.786 178.331 252.223 177.594 252.750 177.150 C 252.882 177.039 253 176.800 253 176.800 " transform="matrix(0.7037814855575562, 0, 0, 0.7884689569473267, 54.4, 24)"/>
    <path id="ID0.9657369954511523" fill="none" stroke="#FF0000" stroke-width="2" stroke-linecap="round" d="M 226.600 179 C 226.600 179 227.621 180.451 228.400 180.500 C 229.940 180.598 231.359 179.330 232.900 179.400 C 233.740 179.438 234.287 180.355 235 180.800 C 235.620 181.187 236.177 181.789 236.900 181.900 C 237.579 182.004 238.243 181.600 238.900 181.400 C 239.610 181.183 240.291 180.872 241 180.650 C 242.523 180.173 244.005 179.235 245.600 179.300 C 246.330 179.330 246.412 180.656 247.100 180.900 C 247.826 181.158 248.673 180.905 249.400 180.650 C 250.045 180.424 250.520 179.861 251.100 179.500 C 251.245 179.410 251.250 179.500 251.250 179.500 " transform="matrix(0.7037814855575562, 0, 0, 0.7884689569473267, 54.4, 24)"/>
    <path id="ID0.23841308988630772" fill="none" stroke="#006622" stroke-width="2" stroke-linecap="round" d="M 225.400 179 C 225.400 179 223.909 180.046 224 180.800 C 224.082 181.483 225.085 181.723 225.750 181.900 C 226.394 182.072 227.095 181.672 227.750 181.800 C 228.415 181.930 228.928 182.563 229.600 182.650 C 230.270 182.737 230.924 182.317 231.600 182.300 C 232.933 182.267 234.286 182.270 235.600 182.500 C 237.351 182.806 238.986 183.683 240.750 183.900 C 241.480 183.990 242.204 183.635 242.900 183.400 C 243.592 183.167 244.203 182.718 244.900 182.500 C 245.545 182.298 246.224 182.150 246.900 182.150 C 247.576 182.150 248.235 182.625 248.900 182.500 C 249.647 182.360 250.235 181.767 250.900 181.400 C 251.350 181.151 252.250 180.650 252.250 180.650 " transform="matrix(0.7037814855575562, 0, 0, 0.7884689569473267, 54.4, 24)"/>
    <path id="ID0.23290915181860328" fill="#995900" stroke="none" stroke-linecap="round" d="M 243.250 169 C 247.319 169 251.007 169.821 253.677 171.147 C 256.347 172.473 257.712 174.105 258 176.325 C 258.338 178.919 257.653 182.606 255.350 184.050 C 251.870 186.231 247.262 186.008 243.150 186.050 C 239.154 185.923 234.701 185.935 231.350 183.800 C 229.104 182.369 228.284 178.875 228.500 176.325 C 228.685 174.092 230.153 172.473 232.823 171.147 C 235.493 169.821 239.181 169 243.250 169 Z " transform="matrix(0.7037814855575562, 0, 0, 0.48963233828544617, 51.8, 72.85)"/>
    <path id="ID0.41660013934597373" fill="#CCCCCC" stroke="none" d="M 160 282 L 192 282 L 192 291 L 160 291 L 160 282 Z " transform="matrix(1, 0, 0, 1, 2, 0)"/>
  </g>
</svg>