<svg version="1.1" width="111" height="100" viewBox="-1 -1 111 100" xmlns="http://www.w3.org/2000/svg" xmlns:xlink="http://www.w3.org/1999/xlink">
  <defs>
    <linearGradient id="grad_1" y2="1">
      <stop offset="0" stop-color="#FFFF00" stop-opacity="1"/>
      <stop offset="1" stop-color="#FFFF00" stop-opacity="0"/>
    </linearGradient>
    <linearGradient id="grad_2" y2="1">
      <stop offset="0" stop-color="#FFFF00" stop-opacity="1"/>
      <stop offset="1" stop-color="#FFFF00" stop-opacity="0"/>
    </linearGradient>
  </defs>
  <!-- Exported by Scratch - http://scratch.mit.edu/ -->
  <g id="ID0.06211272021755576" transform="matrix(1, 0, 0, 1, 0, 34)">
    <g id="ID0.6635523047298193">
      <path id="ID0.6345311719924212" fill="none" stroke="#000000" stroke-width="1" stroke-linecap="round" d="M 122.600 183.200 L 131.200 186.300 L 132.300 198.800 " transform="matrix(0.9516190886497498, 0.12447139620780945, -0.13573379814624786, 1.0377233028411865, -58.6, -125.25)"/>
      <path id="ID0.14267688943073153" fill="none" stroke="#000000" stroke-width="1" stroke-linecap="round" d="M 124.800 181 L 131.500 180.850 L 136.350 194.450 " transform="matrix(0.9516190886497498, 0.12447139620780945, -0.13573379814624786, 1.0377233028411865, -58.6, -125.25)"/>
      <path id="ID0.8930265191011131" fill="none" stroke="#000000" stroke-width="1" stroke-linecap="round" d="M 125.700 178.900 L 134 177.900 L 140.100 192.100 " transform="matrix(0.9516190886497498, 0.12447139620780945, -0.13573379814624786, 1.0377233028411865, -58.6, -125.25)"/>
    </g>
    <g id="ID0.6635523047298193">
      <path id="ID0.6345311719924212" fill="none" stroke="#000000" stroke-width="1" stroke-linecap="round" d="M 122.600 183.200 L 131.200 186.300 L 132.300 198.800 " transform="matrix(-0.9516190886497498, -0.12447139620780945, -0.13573379814624786, 1.0377233028411865, 160.45, -96.6)"/>
      <path id="ID0.14267688943073153" fill="none" stroke="#000000" stroke-width="1" stroke-linecap="round" d="M 124.800 181 L 131.500 180.850 L 136.350 194.450 " transform="matrix(-0.9516190886497498, -0.12447139620780945, -0.13573379814624786, 1.0377233028411865, 160.45, -96.6)"/>
      <path id="ID0.8930265191011131" fill="none" stroke="#000000" stroke-width="1" stroke-linecap="round" d="M 125.700 178.900 L 134 177.900 L 140.100 192.100 " transform="matrix(-0.9516190886497498, -0.12447139620780945, -0.13573379814624786, 1.0377233028411865, 160.45, -96.6)"/>
    </g>
    <path id="ID0.4570708512328565" fill="#000000" stroke="#000000" stroke-width="4" stroke-linecap="round" d="M 187.550 217.550 C 132.381 221.563 76.605 217.041 21.450 213.800 C 7.635 212.954 3.163 214.766 8.650 205.500 C 30.748 168.795 57.996 134.938 86.400 102.850 C 93.508 94.830 96.296 91.032 104.500 98.750 C 137.311 129.620 166.814 165.045 192.850 202.500 C 199.235 211.420 201.344 216.496 187.550 217.550 Z " transform="matrix(0.1750902384519577, 0.022901732474565506, -0.024973923340439796, 0.19093270599842072, 14.3, 29.8)"/>
    <path id="ID0.7457816582173109" fill="none" stroke="#FFFFFF" stroke-width="4" stroke-linecap="round" d="M 106.500 166.550 L 114.450 173.200 " transform="matrix(0.9516190886497498, 0.12447139620780945, -0.13573379814624786, 1.0377233028411865, -58.6, -125.25)"/>
    <path id="ID0.6700390479527414" fill="none" stroke="#FFFFFF" stroke-width="4" stroke-linecap="round" d="M 113.100 158.400 L 120.400 165 " transform="matrix(0.9516190886497498, 0.12447139620780945, -0.13573379814624786, 1.0377233028411865, -58.6, -125.25)"/>
    <path id="ID0.009304857812821865" fill="#666666" stroke="#000000" stroke-width="4" d="M 104.750 156 C 121.924 156 137.487 162.051 148.756 171.826 C 160.025 181.602 167 195.102 167 210 C 167 224.898 160.025 238.398 148.756 248.174 C 137.487 257.949 121.924 264 104.750 264 C 87.576 264 72.013 257.949 60.744 248.174 C 49.475 238.398 42.500 224.898 42.500 210 C 42.500 195.102 49.475 181.602 60.744 171.826 C 72.013 162.051 87.576 156 104.750 156 Z " transform="matrix(0.1750902384519577, 0.022901732474565506, -0.024973923340439796, 0.19093270599842072, 14.3, 29.8)"/>
    <g id="ID0.3696245732717216">
      <path id="ID0.16718173073604703" fill="none" stroke="#000000" stroke-width="2" stroke-linecap="round" d="M 98.950 197.300 C 98.950 197.300 106.394 192.582 110.600 191.600 C 115.712 190.407 121.488 189.767 126.750 190.900 C 131.519 191.926 139.800 197.850 139.800 197.850 " transform="matrix(0.34521928429603577, 0.045154545456171036, -0.04924020916223526, 0.3764553368091583, -4.8, -2.9)"/>
      <path id="ID0.5049492884427309" fill="#FFFFFF" stroke="#000000" stroke-width="2" stroke-linecap="round" d="M 153.600 175.550 L 141.500 175.850 L 149.800 190 L 153.600 175.550 Z " transform="matrix(0.1354193389415741, 0.14194126427173615, -0.13359865546226501, 0.1504434049129486, 36.55, 29.7)"/>
      <path id="ID0.5049492884427309" fill="#FFFFFF" stroke="#000000" stroke-width="2" stroke-linecap="round" d="M 153.600 175.550 L 141.500 175.850 L 149.800 190 L 153.600 175.550 Z " transform="matrix(-0.1673707664012909, 0.10233644396066666, 0.09041032195091248, 0.179743692278862, 29.3, 28.95)"/>
      <path id="ID0.5049492884427309" fill="#FFFFFF" stroke="#000000" stroke-width="2" stroke-linecap="round" d="M 153.600 175.550 L 141.500 175.850 L 149.800 190 L 153.600 175.550 Z " transform="matrix(0.1557975858449936, 0.11487282067537308, -0.10915178060531616, 0.17200225591659546, 27.45, 28.85)"/>
      <path id="ID0.5049492884427309" fill="#FFFFFF" stroke="#000000" stroke-width="2" stroke-linecap="round" d="M 153.600 175.550 L 141.500 175.850 L 149.800 190 L 153.600 175.550 Z " transform="matrix(0.1827271580696106, -0.06192786246538162, 0.05289416387677193, 0.19734610617160797, -13.45, 49.35)"/>
      <path id="ID0.5049492884427309" fill="#FFFFFF" stroke="#000000" stroke-width="2" stroke-linecap="round" d="M 153.600 175.550 L 141.500 175.850 L 149.800 190 L 153.600 175.550 Z " transform="matrix(0.17280937731266022, 0.08225325495004654, -0.07952309399843216, 0.18977604806423187, 17.85, 29.65)"/>
      <path id="ID0.5049492884427309" fill="#FFFFFF" stroke="#000000" stroke-width="2" stroke-linecap="round" d="M 153.600 175.550 L 141.500 175.850 L 149.800 190 L 153.600 175.550 Z " transform="matrix(0.1898520290851593, -0.017611755058169365, 0.011966917663812637, 0.20608340203762054, -5, 40.95)"/>
      <path id="ID0.5049492884427309" fill="#FFFFFF" stroke="#000000" stroke-width="2" stroke-linecap="round" d="M 153.600 175.550 L 141.500 175.850 L 149.800 190 L 153.600 175.550 Z " transform="matrix(0.1836480051279068, 0.049466121941804886, -0.04960254952311516, 0.20083238184452057, 8.75, 31.85)"/>
    </g>
    <path id="ID0.3702503303065896" fill="#FF0000" stroke="#660000" stroke-width="2" stroke-linecap="round" d="M 106.900 172.100 L 133 182.100 L 133.200 188.200 L 131.100 190.700 L 119.800 193.750 L 112.200 191.650 L 108.600 185.700 L 106.800 172.800 Z " transform="matrix(0.2395801693201065, 0.03133699297904968, -0.0341724194586277, 0.2612578272819519, -0.6, 18.6)"/>
    <path id="ID0.3702503303065896" fill="#FF0000" stroke="#660000" stroke-width="2" stroke-linecap="round" d="M 106.900 172.100 L 133 182.100 L 133.200 188.200 L 131.100 190.700 L 119.800 193.750 L 112.200 191.650 L 108.600 185.700 L 106.800 172.800 Z " transform="matrix(-0.2395801693201065, -0.03133699297904968, -0.0341724194586277, 0.2612578272819519, 67.9, 27.55)"/>
  </g>
  <path id="ID0.8365832129493356" fill="none" stroke="#666666" stroke-width="2" stroke-linecap="round" d="M 177.350 190 " transform="matrix(1, 0, 0, 1, -301, -145)"/>
  <path id="ID0.8365832129493356" fill="none" stroke="#666666" stroke-width="2" stroke-linecap="round" d="M 177.350 190 " transform="matrix(1, 0, 0, 1, -459, -211)"/>
  <path id="ID0.8365832129493356" fill="none" stroke="#666666" stroke-width="2" stroke-linecap="round" d="M 177.350 190 " transform="matrix(1, 0, 0, 1, -420, -52)"/>
  <path id="ID0.8365832129493356" fill="none" stroke="#666666" stroke-width="2" stroke-linecap="round" d="M 177.350 190 " transform="matrix(1, 0, 0, 1, -305, -255)"/>
  <g id="ID0.4428577395156026" transform="matrix(1, 0, 0, 1, 0, 34)">
    <path id="ID0.8188485014252365" fill="none" stroke="#00CC44" stroke-width="4" stroke-linecap="round" d="M 137.500 254.500 C 137.500 254.500 141.381 257.092 143.500 258 C 146.904 259.423 152.284 258.752 154.300 262.250 C 155.752 264.201 151.177 266.281 150.500 269 C 150.143 270.448 152.045 272.653 151 273.500 C 149.618 274.499 145.617 271.095 144.300 272.250 C 143.624 273.586 147 278.500 147 278.500 " transform="matrix(0.17671158909797668, 0.05124498903751373, -0.05124498903751373, 0.17671158909797668, 24.2, 6.1)"/>
    <path id="ID0.4570708512328565" fill="#00CC44" stroke="#009933" stroke-width="4" stroke-linecap="round" d="M 51 218.350 C 39.661 217.821 17.337 221.870 18 210.850 C 19.531 184.567 41.430 163.892 55.500 141.850 C 66.387 124.782 76.209 106.663 92.500 96 C 99.957 90.392 112.338 92.391 119.500 98 C 133.782 109.172 143.073 124.802 153 141 C 166.945 163.755 187.063 185.615 189.500 212.350 C 190.211 222.115 169.414 215.854 159.500 216.350 C 123.410 218.161 87.095 220.032 51 218.350 Z " transform="matrix(0.17671158909797668, 0.05124498903751373, -0.05124498903751373, 0.17671158909797668, 24.25, 6.15)"/>
    <path id="ID0.009304857812821865" fill="#00FF55" stroke="#00CC44" stroke-width="4" d="M 104.750 156 C 121.924 156 137.487 162.051 148.756 171.826 C 160.025 181.602 167 195.102 167 210 C 167 224.898 160.025 238.398 148.756 248.174 C 137.487 257.949 121.924 264 104.750 264 C 87.576 264 72.013 257.949 60.744 248.174 C 49.475 238.398 42.500 224.898 42.500 210 C 42.500 195.102 49.475 181.602 60.744 171.826 C 72.013 162.051 87.576 156 104.750 156 Z " transform="matrix(0.17671158909797668, 0.05124498903751373, -0.05124498903751373, 0.17671158909797668, 24.2, 6.1)"/>
    <path id="ID0.6319951475597918" fill="none" stroke="#00CC44" stroke-width="4" stroke-linecap="round" d="M 71.250 228.250 C 71.250 228.250 69.423 234.115 69 236.500 C 68.753 237.817 68.796 239.357 69.500 240.500 C 70.251 241.720 71.708 242.382 73 243 C 75.567 244.228 78.215 245.420 81 246 C 82.314 246.274 83.774 246.042 85 245.500 C 87.090 244.577 88.752 242.748 90.950 242.050 C 92.254 241.478 93.759 241.381 95.200 241.800 C 97.421 242.435 99.432 244.060 101.450 244.800 C 102.708 245.265 104.150 245.550 105.450 245.300 C 108.250 244.700 110.900 243.500 113.450 242.300 C 114.750 241.650 116.200 241 116.950 239.800 C 117.700 238.650 117.700 237.100 117.450 235.800 C 117.050 233.400 115.200 227.550 115.200 227.550 " transform="matrix(-0.17671158909797668, -0.05124498903751373, -0.05124498903751373, 0.17671158909797668, 59.2, 15.2)"/>
    <path id="ID0.3833936583250761" fill="none" stroke="#00CC44" stroke-width="4" stroke-linecap="round" d="M 154 243 C 154 243 157.486 244.845 158 246.500 C 158.521 248.353 154.496 251.279 155.650 252.950 C 157.721 254.504 162.025 252.104 164.500 253 C 165.796 253.508 166.280 255.313 167.500 256 C 170.284 257.526 175.864 256.065 177.600 258.900 C 178.579 261.742 173.349 264.630 173 267.500 C 172.720 270.181 174.933 272.865 174.500 275.500 C 174.080 277.578 169.819 278.300 168.950 280.900 C 169.104 282.354 172.670 282.516 173 284 C 173.196 284.978 172 287 172 287 " transform="matrix(0.17671158909797668, 0.05124498903751373, -0.05124498903751373, 0.17671158909797668, 24.2, 6.1)"/>
    <path id="ID0.877939498052001" fill="none" stroke="#00CC44" stroke-width="4" stroke-linecap="round" d="M 163 235 C 163 235 166.855 237.625 169 237.500 C 171.923 237.278 175.643 231.971 177.600 232.950 C 179.392 234.470 175.791 239.764 176.500 242.500 C 176.882 243.863 179.496 243.681 180 245 C 180.896 247.546 177.945 252.168 179.600 254.250 C 181.181 255.404 184.379 251.209 186.500 251.500 C 187.861 251.733 188.174 254.042 189.500 254.500 C 192.442 255.450 198.492 253.097 200.250 254.950 C 200.990 256.845 195.261 259.526 194.500 262 C 194.094 263.459 196.540 265.405 195.500 266.500 C 193.378 268.595 185.929 267.621 185.600 269.550 C 185.929 271.621 193.242 272.151 195.500 274.500 C 196.389 275.471 194.955 277.310 195.500 278.500 C 196.573 280.658 201.820 282.247 201.550 284.200 C 200.573 286.235 194.751 284.675 193 286.500 C 190.083 289.657 187 298 187 298 " transform="matrix(0.17671158909797668, 0.05124498903751373, -0.05124498903751373, 0.17671158909797668, 24.2, 6.1)"/>
    <path id="ID0.6539682173170149" fill="#FFFFFF" stroke="none" d="M 326.625 177.750 C 328.729 177.750 330.635 178.338 332.015 179.289 C 333.396 180.239 334.250 181.552 334.250 183 C 334.250 184.448 333.396 185.761 332.015 186.711 C 330.635 187.662 328.729 188.250 326.625 188.250 C 324.521 188.250 322.615 187.662 321.235 186.711 C 319.854 185.761 319 184.448 319 183 C 319 181.552 319.854 180.239 321.235 179.289 C 322.615 178.338 324.521 177.750 326.625 177.750 Z " transform="matrix(0.47049084305763245, 0.13643868267536163, -0.13643868267536163, 0.47049084305763245, -100.2, -85.2)"/>
    <path id="ID0.6539682173170149" fill="#FFFFFF" stroke="none" d="M 326.625 177.750 C 328.729 177.750 330.635 178.338 332.015 179.289 C 333.396 180.239 334.250 181.552 334.250 183 C 334.250 184.448 333.396 185.761 332.015 186.711 C 330.635 187.662 328.729 188.250 326.625 188.250 C 324.521 188.250 322.615 187.662 321.235 186.711 C 319.854 185.761 319 184.448 319 183 C 319 181.552 319.854 180.239 321.235 179.289 C 322.615 178.338 324.521 177.750 326.625 177.750 Z " transform="matrix(0.47049084305763245, 0.13643868267536163, -0.13643868267536163, 0.47049084305763245, -92.6, -82.9)"/>
    <path id="ID0.28278583008795977" fill="#000000" stroke="none" d="M 322 181.500 C 322.690 181.500 323.315 181.794 323.767 182.269 C 324.220 182.745 324.500 183.401 324.500 184.125 C 324.500 184.849 324.220 185.505 323.767 185.981 C 323.315 186.456 322.690 186.750 322 186.750 C 321.310 186.750 320.685 186.456 320.233 185.981 C 319.780 185.505 319.500 184.849 319.500 184.125 C 319.500 183.401 319.780 182.745 320.233 182.269 C 320.685 181.794 321.310 181.500 322 181.500 Z " transform="matrix(0.47049084305763245, 0.13643868267536163, -0.13643868267536163, 0.47049084305763245, -100.2, -85.2)"/>
    <path id="ID0.28278583008795977" fill="#000000" stroke="none" d="M 322 181.500 C 322.690 181.500 323.315 181.794 323.767 182.269 C 324.220 182.745 324.500 183.401 324.500 184.125 C 324.500 184.849 324.220 185.505 323.767 185.981 C 323.315 186.456 322.690 186.750 322 186.750 C 321.310 186.750 320.685 186.456 320.233 185.981 C 319.780 185.505 319.500 184.849 319.500 184.125 C 319.500 183.401 319.780 182.745 320.233 182.269 C 320.685 181.794 321.310 181.500 322 181.500 Z " transform="matrix(0.47049084305763245, 0.13643868267536163, -0.13643868267536163, 0.47049084305763245, -87.8, -82.65)"/>
    <path id="ID0.877939498052001" fill="none" stroke="#00CC44" stroke-width="4" stroke-linecap="round" d="M 163 235 C 163 235 166.855 237.625 169 237.500 C 171.923 237.278 175.643 231.971 177.600 232.950 C 179.392 234.470 175.791 239.764 176.500 242.500 C 176.882 243.863 179.496 243.681 180 245 C 180.896 247.546 177.945 252.168 179.600 254.250 C 181.181 255.404 184.379 251.209 186.500 251.500 C 187.861 251.733 188.174 254.042 189.500 254.500 C 192.442 255.450 198.492 253.097 200.250 254.950 C 200.990 256.845 195.261 259.526 194.500 262 C 194.094 263.459 196.540 265.405 195.500 266.500 C 193.378 268.595 185.929 267.621 185.600 269.550 C 185.929 271.621 193.242 272.151 195.500 274.500 C 196.389 275.471 194.955 277.310 195.500 278.500 C 196.573 280.658 201.820 282.247 201.550 284.200 C 200.573 286.235 194.751 284.675 193 286.500 C 190.083 289.657 187 298 187 298 " transform="matrix(-0.17671158909797668, -0.05124498903751373, -0.05124498903751373, 0.17671158909797668, 61.95, 17.4)"/>
    <path id="ID0.3833936583250761" fill="none" stroke="#00CC44" stroke-width="4" stroke-linecap="round" d="M 154 243 C 154 243 157.486 244.845 158 246.500 C 158.521 248.353 154.496 251.279 155.650 252.950 C 157.721 254.504 162.025 252.104 164.500 253 C 165.796 253.508 166.280 255.313 167.500 256 C 170.284 257.526 175.864 256.065 177.600 258.900 C 178.579 261.742 173.349 264.630 173 267.500 C 172.720 270.181 174.933 272.865 174.500 275.500 C 174.080 277.578 169.819 278.300 168.950 280.900 C 169.104 282.354 172.670 282.516 173 284 C 173.196 284.978 172 287 172 287 " transform="matrix(-0.17671158909797668, -0.05124498903751373, -0.05124498903751373, 0.17671158909797668, 62.5, 18.4)"/>
    <path id="ID0.8188485014252365" fill="none" stroke="#00CC44" stroke-width="4" stroke-linecap="round" d="M 137.500 254.500 C 137.500 254.500 141.381 257.092 143.500 258 C 146.904 259.423 152.284 258.752 154.300 262.250 C 155.752 264.201 151.177 266.281 150.500 269 C 150.143 270.448 152.045 272.653 151 273.500 C 149.618 274.499 145.617 271.095 144.300 272.250 C 143.624 273.586 147 278.500 147 278.500 " transform="matrix(-0.17671158909797668, -0.05124498903751373, -0.05124498903751373, 0.17671158909797668, 62.2, 18.4)"/>
  </g>
  <path id="ID0.8365832129493356" fill="none" stroke="#666666" stroke-width="2" stroke-linecap="round" d="M 177.350 190 " transform="matrix(1, 0, 0, 1, -114, -4)"/>
  <path id="ID0.8365832129493356" fill="none" stroke="#666666" stroke-width="2" stroke-linecap="round" d="M 177.350 190 " transform="matrix(1, 0, 0, 1, -299, -82)"/>
  <path id="ID0.8365832129493356" fill="none" stroke="#666666" stroke-width="2" stroke-linecap="round" d="M 177.350 190 " transform="matrix(1, 0, 0, 1, -100, -12)"/>
  <path id="ID0.8365832129493356" fill="none" stroke="#666666" stroke-width="2" stroke-linecap="round" d="M 177.350 190 " transform="matrix(1, 0, 0, 1, -311, -2)"/>
  <g id="ID0.7827755282633007" transform="matrix(1, 0, 0, 1, 0, 34)">
    <path id="ID0.8188485014252365" fill="none" stroke="#003FFF" stroke-width="4" stroke-linecap="round" d="M 137.500 254.500 C 137.500 254.500 141.674 256.580 143.500 258 C 144.712 258.942 145.676 260.205 146.500 261.500 C 148.020 263.888 149.506 266.350 150.500 269 C 151.029 270.412 151.366 272.037 151 273.500 C 150.653 274.890 149.395 275.882 148.500 277 C 148.059 277.552 147 278.500 147 278.500 " transform="matrix(0.1380854696035385, 0.10774669051170349, -0.10774669051170349, 0.1380854696035385, 52.5, -14.3)"/>
    <path id="ID0.4570708512328565" fill="#003FFF" stroke="#0033CC" stroke-width="4" stroke-linecap="round" d="M 51 218.350 C 39.661 217.821 17.337 221.870 18 210.850 C 19.531 184.567 41.430 163.892 55.500 141.850 C 66.387 124.782 76.209 106.663 92.500 96 C 99.957 90.392 112.338 92.391 119.500 98 C 133.782 109.172 143.073 124.802 153 141 C 166.945 163.755 187.063 185.615 189.500 212.350 C 190.211 222.115 169.414 215.854 159.500 216.350 C 123.410 218.161 87.095 220.032 51 218.350 Z " transform="matrix(0.1380854696035385, 0.10774669051170349, -0.10774669051170349, 0.1380854696035385, 52.6, -14.2)"/>
    <path id="ID0.009304857812821865" fill="#99B2FF" stroke="#003FFF" stroke-width="4" d="M 104.750 156 C 121.924 156 137.487 162.051 148.756 171.826 C 160.025 181.602 167 195.102 167 210 C 167 224.898 160.025 238.398 148.756 248.174 C 137.487 257.949 121.924 264 104.750 264 C 87.576 264 72.013 257.949 60.744 248.174 C 49.475 238.398 42.500 224.898 42.500 210 C 42.500 195.102 49.475 181.602 60.744 171.826 C 72.013 162.051 87.576 156 104.750 156 Z " transform="matrix(0.1380854696035385, 0.10774669051170349, -0.10774669051170349, 0.1380854696035385, 52.5, -14.3)"/>
    <g id="ID0.21643680380657315">
      <path id="ID0.39615850523114204" fill="#000000" stroke="none" d="M 83.500 186.500 C 88.880 186.500 93.755 188.573 97.285 191.922 C 100.815 195.271 103 199.896 103 205 C 103 210.104 100.815 214.729 97.285 218.078 C 93.755 221.427 88.880 223.500 83.500 223.500 C 78.120 223.500 73.245 221.427 69.715 218.078 C 66.185 214.729 64 210.104 64 205 C 64 199.896 66.185 195.271 69.715 191.922 C 73.245 188.573 78.120 186.500 83.500 186.500 Z " transform="matrix(-0.1380854696035385, -0.10774669051170349, -0.10774669051170349, 0.1380854696035385, 75.4, 2.1)"/>
      <path id="ID0.3251188797876239" fill="#FFFFFF" stroke="none" d="M 84.250 182 C 86.388 182 88.326 182.980 89.729 184.564 C 91.132 186.148 92 188.336 92 190.750 C 92 193.164 91.132 195.352 89.729 196.936 C 88.326 198.520 86.388 199.500 84.250 199.500 C 82.112 199.500 80.174 198.520 78.771 196.936 C 77.368 195.352 76.500 193.164 76.500 190.750 C 76.500 188.336 77.368 186.148 78.771 184.564 C 80.174 182.980 82.112 182 84.250 182 Z " transform="matrix(-0.1380854696035385, -0.10774669051170349, -0.10774669051170349, 0.1380854696035385, 73.8, 2.3)"/>
      <path id="ID0.01969422632828355" fill="#FFFFFF" stroke="none" d="M 71.500 198.500 C 72.604 198.500 73.604 199.004 74.328 199.819 C 75.052 200.633 75.500 201.758 75.500 203 C 75.500 204.242 75.052 205.367 74.328 206.181 C 73.604 206.996 72.604 207.500 71.500 207.500 C 70.396 207.500 69.396 206.996 68.672 206.181 C 67.948 205.367 67.500 204.242 67.500 203 C 67.500 201.758 67.948 200.633 68.672 199.819 C 69.396 199.004 70.396 198.500 71.500 198.500 Z " transform="matrix(-0.1380854696035385, -0.10774669051170349, -0.10774669051170349, 0.1380854696035385, 73.8, 2.3)"/>
    </g>
    <g id="ID0.21643680380657315">
      <path id="ID0.39615850523114204" fill="#000000" stroke="none" d="M 83.500 186.500 C 88.880 186.500 93.755 188.573 97.285 191.922 C 100.815 195.271 103 199.896 103 205 C 103 210.104 100.815 214.729 97.285 218.078 C 93.755 221.427 88.880 223.500 83.500 223.500 C 78.120 223.500 73.245 221.427 69.715 218.078 C 66.185 214.729 64 210.104 64 205 C 64 199.896 66.185 195.271 69.715 191.922 C 73.245 188.573 78.120 186.500 83.500 186.500 Z " transform="matrix(-0.1380854696035385, -0.10774669051170349, -0.10774669051170349, 0.1380854696035385, 82.4, 7.65)"/>
      <path id="ID0.3251188797876239" fill="#FFFFFF" stroke="none" d="M 84.250 182 C 86.388 182 88.326 182.980 89.729 184.564 C 91.132 186.148 92 188.336 92 190.750 C 92 193.164 91.132 195.352 89.729 196.936 C 88.326 198.520 86.388 199.500 84.250 199.500 C 82.112 199.500 80.174 198.520 78.771 196.936 C 77.368 195.352 76.500 193.164 76.500 190.750 C 76.500 188.336 77.368 186.148 78.771 184.564 C 80.174 182.980 82.112 182 84.250 182 Z " transform="matrix(-0.1380854696035385, -0.10774669051170349, -0.10774669051170349, 0.1380854696035385, 80.8, 7.85)"/>
      <path id="ID0.01969422632828355" fill="#FFFFFF" stroke="none" d="M 71.500 198.500 C 72.604 198.500 73.604 199.004 74.328 199.819 C 75.052 200.633 75.500 201.758 75.500 203 C 75.500 204.242 75.052 205.367 74.328 206.181 C 73.604 206.996 72.604 207.500 71.500 207.500 C 70.396 207.500 69.396 206.996 68.672 206.181 C 67.948 205.367 67.500 204.242 67.500 203 C 67.500 201.758 67.948 200.633 68.672 199.819 C 69.396 199.004 70.396 198.500 71.500 198.500 Z " transform="matrix(-0.1380854696035385, -0.10774669051170349, -0.10774669051170349, 0.1380854696035385, 80.8, 7.85)"/>
    </g>
    <path id="ID0.6319951475597918" fill="none" stroke="#003FFF" stroke-width="4" stroke-linecap="round" d="M 71.250 228.250 C 71.250 228.250 69.423 234.115 69 236.500 C 68.753 237.817 68.796 239.357 69.500 240.500 C 70.251 241.720 71.708 242.382 73 243 C 75.567 244.228 78.215 245.420 81 246 C 82.314 246.274 83.774 246.042 85 245.500 C 87.090 244.577 88.752 242.748 90.950 242.050 C 92.254 241.478 93.759 241.381 95.200 241.800 C 97.421 242.435 99.432 244.060 101.450 244.800 C 102.708 245.265 104.150 245.550 105.450 245.300 C 108.250 244.700 110.900 243.500 113.450 242.300 C 114.750 241.650 116.200 241 116.950 239.800 C 117.700 238.650 117.700 237.100 117.450 235.800 C 117.050 233.400 115.200 227.550 115.200 227.550 " transform="matrix(-0.1380854696035385, -0.10774669051170349, -0.10774669051170349, 0.1380854696035385, 80.25, 6.1)"/>
    <path id="ID0.3833936583250761" fill="none" stroke="#003FFF" stroke-width="4" stroke-linecap="round" d="M 154 243 C 154 243 156.662 245.341 158 246.500 C 159.160 247.505 160.415 248.415 161.500 249.500 C 162.585 250.585 163.459 251.872 164.500 253 C 165.458 254.038 166.617 254.897 167.500 256 C 169.289 258.237 171.264 260.416 172.500 263 C 173.151 264.360 172.762 266.011 173 267.500 C 173.428 270.176 174.177 272.809 174.500 275.500 C 174.679 276.988 174.760 278.524 174.500 280 C 174.253 281.401 173.478 282.660 173 284 C 172.646 284.992 172 287 172 287 " transform="matrix(0.1380854696035385, 0.10774669051170349, -0.10774669051170349, 0.1380854696035385, 52.5, -14.3)"/>
    <path id="ID0.877939498052001" fill="none" stroke="#003FFF" stroke-width="4" stroke-linecap="round" d="M 163 235 C 163 235 167.127 236.416 169 237.500 C 170.328 238.269 171.223 239.649 172.500 240.500 C 173.739 241.326 175.223 241.734 176.500 242.500 C 177.728 243.237 178.913 244.068 180 245 C 181.251 246.073 182.334 247.334 183.500 248.500 C 184.499 249.499 185.501 250.501 186.500 251.500 C 187.499 252.499 188.581 253.427 189.500 254.500 C 190.584 255.764 191.576 257.115 192.500 258.500 C 193.245 259.617 194.029 260.743 194.500 262 C 195.039 263.437 195.321 264.975 195.500 266.500 C 195.656 267.823 195.500 269.168 195.500 270.500 C 195.500 271.832 195.500 273.168 195.500 274.500 C 195.500 275.832 195.745 277.191 195.500 278.500 C 195.238 279.898 194.424 281.142 194 282.500 C 193.590 283.810 193.565 285.249 193 286.500 C 191.222 290.437 187 298 187 298 " transform="matrix(0.1380854696035385, 0.10774669051170349, -0.10774669051170349, 0.1380854696035385, 52.5, -14.3)"/>
    <path id="ID0.8188485014252365" fill="none" stroke="#003FFF" stroke-width="4" stroke-linecap="round" d="M 137.500 254.500 C 137.500 254.500 141.674 256.580 143.500 258 C 144.712 258.942 145.676 260.205 146.500 261.500 C 148.020 263.888 149.506 266.350 150.500 269 C 151.029 270.412 151.366 272.037 151 273.500 C 150.653 274.890 149.395 275.882 148.500 277 C 148.059 277.552 147 278.500 147 278.500 " transform="matrix(-0.1380854696035385, -0.10774669051170349, -0.10774669051170349, 0.1380854696035385, 81.4, 9.15)"/>
    <path id="ID0.3833936583250761" fill="none" stroke="#003FFF" stroke-width="4" stroke-linecap="round" d="M 154 243 C 154 243 156.662 245.341 158 246.500 C 159.160 247.505 160.415 248.415 161.500 249.500 C 162.585 250.585 163.459 251.872 164.500 253 C 165.458 254.038 166.617 254.897 167.500 256 C 169.289 258.237 171.264 260.416 172.500 263 C 173.151 264.360 172.762 266.011 173 267.500 C 173.428 270.176 174.177 272.809 174.500 275.500 C 174.679 276.988 174.760 278.524 174.500 280 C 174.253 281.401 173.478 282.660 173 284 C 172.646 284.992 172 287 172 287 " transform="matrix(-0.1380854696035385, -0.10774669051170349, -0.10774669051170349, 0.1380854696035385, 81.1, 9.35)"/>
    <path id="ID0.877939498052001" fill="none" stroke="#003FFF" stroke-width="4" stroke-linecap="round" d="M 163 235 C 163 235 167.127 236.416 169 237.500 C 170.328 238.269 171.223 239.649 172.500 240.500 C 173.739 241.326 175.223 241.734 176.500 242.500 C 177.728 243.237 178.913 244.068 180 245 C 181.251 246.073 182.334 247.334 183.500 248.500 C 184.499 249.499 185.501 250.501 186.500 251.500 C 187.499 252.499 188.581 253.427 189.500 254.500 C 190.584 255.764 191.576 257.115 192.500 258.500 C 193.245 259.617 194.029 260.743 194.500 262 C 195.039 263.437 195.321 264.975 195.500 266.500 C 195.656 267.823 195.500 269.168 195.500 270.500 C 195.500 271.832 195.500 273.168 195.500 274.500 C 195.500 275.832 195.745 277.191 195.500 278.500 C 195.238 279.898 194.424 281.142 194 282.500 C 193.590 283.810 193.565 285.249 193 286.500 C 191.222 290.437 187 298 187 298 " transform="matrix(-0.1380854696035385, -0.10774669051170349, -0.10774669051170349, 0.1380854696035385, 81.4, 8.8)"/>
  </g>
  <path id="ID0.8900197502225637" fill="url(#grad_1)" stroke="url(#grad_2)" stroke-width="2" stroke-linecap="round" d="M 287.750 127.750 L 260 105.550 L 276.100 68.850 L 278.300 98.300 L 300.550 88.850 L 295 112.750 L 322.750 112.200 L 287.750 127.750 Z " transform="matrix(1, 0, 0, 1, -214, -67)"/>
</svg>