<svg version="1.1" width="60" height="93" viewBox="-1 -1 60 93" xmlns="http://www.w3.org/2000/svg" xmlns:xlink="http://www.w3.org/1999/xlink">
  <!-- Exported by Scratch - http://scratch.mit.edu/ -->
  <g id="ID0.06211272021755576">
    <g id="ID0.6635523047298193">
      <path id="ID0.6345311719924212" fill="none" stroke="#000000" stroke-width="1" stroke-linecap="round" d="M 122.600 183.200 L 131.200 186.300 L 132.300 198.800 " transform="matrix(0.9597249627113342, 0, 0, 0.9597249627113342, -79.7, -99.35)"/>
      <path id="ID0.14267688943073153" fill="none" stroke="#000000" stroke-width="1" stroke-linecap="round" d="M 124.800 181 L 131.500 180.850 L 135.350 194.500 " transform="matrix(0.9597249627113342, 0, 0, 0.9597249627113342, -79.7, -99.35)"/>
      <path id="ID0.8930265191011131" fill="none" stroke="#000000" stroke-width="1" stroke-linecap="round" d="M 125.700 178.900 L 136.250 176.250 L 144.650 182.650 " transform="matrix(0.9597249627113342, 0, 0, 0.9597249627113342, -79.7, -99.35)"/>
    </g>
    <g id="ID0.6635523047298193">
      <path id="ID0.6345311719924212" fill="none" stroke="#000000" stroke-width="1" stroke-linecap="round" d="M 122.600 183.200 L 138.550 180.050 L 145.750 189.850 " transform="matrix(-0.9597249627113342, 0, 0, 0.9597249627113342, 141.25, -99.35)"/>
      <path id="ID0.14267688943073153" fill="none" stroke="#000000" stroke-width="1" stroke-linecap="round" d="M 124.800 181 L 131.500 180.850 L 132.150 194.800 " transform="matrix(-0.9597249627113342, 0, 0, 0.9597249627113342, 141.25, -99.35)"/>
      <path id="ID0.8930265191011131" fill="none" stroke="#000000" stroke-width="1" stroke-linecap="round" d="M 125.700 178.900 L 134 177.900 L 140.100 192.100 " transform="matrix(-0.9597249627113342, 0, 0, 0.9597249627113342, 141.25, -99.35)"/>
    </g>
    <path id="ID0.4570708512328565" fill="#000000" stroke="#000000" stroke-width="4" stroke-linecap="round" d="M 187.550 217.550 C 132.381 221.563 76.605 217.041 21.450 213.800 C 7.635 212.954 3.163 214.766 8.650 205.500 C 30.748 168.795 57.996 134.938 86.400 102.850 C 93.508 94.830 96.296 91.032 104.500 98.750 C 137.311 129.620 166.814 165.045 192.850 202.500 C 199.235 211.420 201.344 216.496 187.550 217.550 Z " transform="matrix(0.17658165097236633, 0, 0, 0.17658165097236633, 12.75, 33)"/>
    <path id="ID0.7457816582173109" fill="none" stroke="#FFFFFF" stroke-width="4" stroke-linecap="round" d="M 106.500 166.550 L 114.450 173.200 " transform="matrix(0.9597249627113342, 0, 0, 0.9597249627113342, -79.7, -99.35)"/>
    <path id="ID0.6700390479527414" fill="none" stroke="#FFFFFF" stroke-width="4" stroke-linecap="round" d="M 113.100 158.400 L 120.400 165 " transform="matrix(0.9597249627113342, 0, 0, 0.9597249627113342, -79.7, -99.35)"/>
    <path id="ID0.009304857812821865" fill="#666666" stroke="#000000" stroke-width="4" d="M 104.750 156 C 121.924 156 137.487 162.051 148.756 171.826 C 160.025 181.602 167 195.102 167 210 C 167 224.898 160.025 238.398 148.756 248.174 C 137.487 257.949 121.924 264 104.750 264 C 87.576 264 72.013 257.949 60.744 248.174 C 49.475 238.398 42.500 224.898 42.500 210 C 42.500 195.102 49.475 181.602 60.744 171.826 C 72.013 162.051 87.576 156 104.750 156 Z " transform="matrix(0.17658165097236633, 0, 0, 0.17658165097236633, 12.75, 33)"/>
    <g id="ID0.3696245732717216">
      <path id="ID0.16718173073604703" fill="none" stroke="#000000" stroke-width="2" stroke-linecap="round" d="M 98.950 197.300 C 98.950 197.300 106.394 192.582 110.600 191.600 C 115.712 190.407 121.488 189.767 126.750 190.900 C 131.519 191.926 139.800 197.850 139.800 197.850 " transform="matrix(0.3481598496437073, 0, 0, 0.3481598496437073, -10.5, 5.5)"/>
      <path id="ID0.5049492884427309" fill="#FFFFFF" stroke="#000000" stroke-width="2" stroke-linecap="round" d="M 153.600 175.550 L 141.500 175.850 L 149.800 190 L 153.600 175.550 Z " transform="matrix(0.15268462896347046, 0.11295854300260544, -0.11295854300260544, 0.15268462896347046, 34.8, 30.3)"/>
      <path id="ID0.5049492884427309" fill="#FFFFFF" stroke="#000000" stroke-width="2" stroke-linecap="round" d="M 153.600 175.550 L 141.500 175.850 L 149.800 190 L 153.600 175.550 Z " transform="matrix(-0.15268462896347046, 0.11295854300260544, 0.11295854300260544, 0.15268462896347046, 27.5, 30.45)"/>
      <path id="ID0.5049492884427309" fill="#FFFFFF" stroke="#000000" stroke-width="2" stroke-linecap="round" d="M 153.600 175.550 L 141.500 175.850 L 149.800 190 L 153.600 175.550 Z " transform="matrix(0.16938012838363647, 0.08592206984758377, -0.08592206984758377, 0.16938012838363647, 25.65, 30.6)"/>
      <path id="ID0.5049492884427309" fill="#FFFFFF" stroke="#000000" stroke-width="2" stroke-linecap="round" d="M 153.600 175.550 L 141.500 175.850 L 149.800 190 L 153.600 175.550 Z " transform="matrix(0.1731521040201187, -0.07804219424724579, 0.07804219424724579, 0.1731521040201187, -12.3, 54.1)"/>
      <path id="ID0.5049492884427309" fill="#FFFFFF" stroke="#000000" stroke-width="2" stroke-linecap="round" d="M 153.600 175.550 L 141.500 175.850 L 149.800 190 L 153.600 175.550 Z " transform="matrix(0.18201763927936554, 0.054238460958004, -0.054238460958004, 0.18201763927936554, 16.25, 32.45)"/>
      <path id="ID0.5049492884427309" fill="#FFFFFF" stroke="#000000" stroke-width="2" stroke-linecap="round" d="M 153.600 175.550 L 141.500 175.850 L 149.800 190 L 153.600 175.550 Z " transform="matrix(0.18596437573432922, -0.038593802601099014, 0.038593802601099014, 0.18596437573432922, -5, 45.45)"/>
      <path id="ID0.5049492884427309" fill="#FFFFFF" stroke="#000000" stroke-width="2" stroke-linecap="round" d="M 153.600 175.550 L 141.500 175.850 L 149.800 190 L 153.600 175.550 Z " transform="matrix(0.1885123997926712, 0.023136677220463753, -0.023136677220463753, 0.1885123997926712, 7.5, 35.55)"/>
    </g>
    <path id="ID0.3702503303065896" fill="#FF0000" stroke="#660000" stroke-width="2" stroke-linecap="round" d="M 106.900 172.100 L 133 182.100 L 133.200 188.200 L 131.100 190.700 L 119.800 193.750 L 112.200 191.650 L 108.600 185.700 L 106.800 172.800 Z " transform="matrix(0.24162091314792633, 0, 0, 0.24162091314792633, -3.55, 24.6)"/>
    <path id="ID0.3702503303065896" fill="#FF0000" stroke="#660000" stroke-width="2" stroke-linecap="round" d="M 106.900 172.100 L 133 182.100 L 133.200 188.200 L 131.100 190.700 L 119.800 193.750 L 112.200 191.650 L 108.600 185.700 L 106.800 172.800 Z " transform="matrix(-0.24162091314792633, 0, 0, 0.24162091314792633, 65.6, 24.6)"/>
  </g>
  <path id="ID0.8365832129493356" fill="none" stroke="#666666" stroke-width="2" stroke-linecap="round" d="M 177.350 190 " transform="matrix(1, 0, 0, 1, -297, -183)"/>
  <path id="ID0.8365832129493356" fill="none" stroke="#666666" stroke-width="2" stroke-linecap="round" d="M 177.350 190 " transform="matrix(1, 0, 0, 1, -455, -249)"/>
  <path id="ID0.8365832129493356" fill="none" stroke="#666666" stroke-width="2" stroke-linecap="round" d="M 177.350 190 " transform="matrix(1, 0, 0, 1, -416, -90)"/>
  <path id="ID0.8365832129493356" fill="none" stroke="#666666" stroke-width="2" stroke-linecap="round" d="M 177.350 190 " transform="matrix(1, 0, 0, 1, -301, -293)"/>
  <g id="ID0.4428577395156026">
    <path id="ID0.8188485014252365" fill="none" stroke="#00CC44" stroke-width="4" stroke-linecap="round" d="M 137.500 254.500 C 137.500 254.500 141.381 257.092 143.500 258 C 146.904 259.423 152.284 258.752 154.300 262.250 C 155.752 264.201 151.177 266.281 150.500 269 C 150.143 270.448 152.045 272.653 151 273.500 C 149.618 274.499 145.617 271.095 144.300 272.250 C 143.624 273.586 147 278.500 147 278.500 " transform="matrix(0.183991938829422, 0, 0, 0.183991938829422, 11.45, 9.5)"/>
    <path id="ID0.4570708512328565" fill="#00CC44" stroke="#009933" stroke-width="4" stroke-linecap="round" d="M 51 218.350 C 39.661 217.821 17.337 221.870 18 210.850 C 19.531 184.567 41.430 163.892 55.500 141.850 C 66.387 124.782 76.209 106.663 92.500 96 C 99.957 90.392 112.338 92.391 119.500 98 C 133.782 109.172 143.073 124.802 153 141 C 166.945 163.755 187.063 185.615 189.500 212.350 C 190.211 222.115 169.414 215.854 159.500 216.350 C 123.410 218.161 87.095 220.032 51 218.350 Z " transform="matrix(0.183991938829422, 0, 0, 0.183991938829422, 11.5, 9.5)"/>
    <path id="ID0.009304857812821865" fill="#00FF55" stroke="#00CC44" stroke-width="4" d="M 104.750 156 C 121.924 156 137.487 162.051 148.756 171.826 C 160.025 181.602 167 195.102 167 210 C 167 224.898 160.025 238.398 148.756 248.174 C 137.487 257.949 121.924 264 104.750 264 C 87.576 264 72.013 257.949 60.744 248.174 C 49.475 238.398 42.500 224.898 42.500 210 C 42.500 195.102 49.475 181.602 60.744 171.826 C 72.013 162.051 87.576 156 104.750 156 Z " transform="matrix(0.183991938829422, 0, 0, 0.183991938829422, 11.45, 9.5)"/>
    <path id="ID0.6319951475597918" fill="none" stroke="#00CC44" stroke-width="4" stroke-linecap="round" d="M 71.250 228.250 C 71.250 228.250 69.423 234.115 69 236.500 C 68.753 237.817 68.796 239.357 69.500 240.500 C 70.251 241.720 71.708 242.382 73 243 C 75.567 244.228 78.215 245.420 81 246 C 82.314 246.274 83.774 246.042 85 245.500 C 87.090 244.577 88.752 242.748 90.950 242.050 C 92.254 241.478 93.759 241.381 95.200 241.800 C 97.421 242.435 99.432 244.060 101.450 244.800 C 102.708 245.265 104.150 245.550 105.450 245.300 C 108.250 244.700 110.900 243.500 113.450 242.300 C 114.750 241.650 116.200 241 116.950 239.800 C 117.700 238.650 117.700 237.100 117.450 235.800 C 117.050 233.400 115.200 227.550 115.200 227.550 " transform="matrix(-0.183991938829422, 0, 0, 0.183991938829422, 47.6, 8.5)"/>
    <path id="ID0.3833936583250761" fill="none" stroke="#00CC44" stroke-width="4" stroke-linecap="round" d="M 154 243 C 154 243 157.486 244.845 158 246.500 C 158.521 248.353 154.496 251.279 155.650 252.950 C 157.721 254.504 162.025 252.104 164.500 253 C 165.796 253.508 166.280 255.313 167.500 256 C 170.284 257.526 175.864 256.065 177.600 258.900 C 178.579 261.742 173.349 264.630 173 267.500 C 172.720 270.181 174.933 272.865 174.500 275.500 C 174.080 277.578 169.819 278.300 168.950 280.900 C 169.104 282.354 172.670 282.516 173 284 C 173.196 284.978 172 287 172 287 " transform="matrix(0.183991938829422, 0, 0, 0.183991938829422, 11.45, 9.5)"/>
    <path id="ID0.877939498052001" fill="none" stroke="#00CC44" stroke-width="4" stroke-linecap="round" d="M 163 235 C 163 235 166.855 237.625 169 237.500 C 171.923 237.278 175.643 231.971 177.600 232.950 C 179.392 234.470 175.791 239.764 176.500 242.500 C 176.882 243.863 179.496 243.681 180 245 C 180.896 247.546 177.945 252.168 179.600 254.250 C 181.181 255.404 184.379 251.209 186.500 251.500 C 187.861 251.733 188.174 254.042 189.500 254.500 C 192.442 255.450 198.492 253.097 200.250 254.950 C 200.990 256.845 195.261 259.526 194.500 262 C 194.094 263.459 196.540 265.405 195.500 266.500 C 193.378 268.595 185.929 267.621 185.600 269.550 C 185.929 271.621 193.242 272.151 195.500 274.500 C 196.389 275.471 194.955 277.310 195.500 278.500 C 196.573 280.658 201.820 282.247 201.550 284.200 C 200.573 286.235 194.751 284.675 193 286.500 C 190.083 289.657 187 298 187 298 " transform="matrix(0.183991938829422, 0, 0, 0.183991938829422, 11.45, 9.5)"/>
    <path id="ID0.6539682173170149" fill="#FFFFFF" stroke="none" d="M 326.625 177.750 C 328.729 177.750 330.635 178.338 332.015 179.289 C 333.396 180.239 334.250 181.552 334.250 183 C 334.250 184.448 333.396 185.761 332.015 186.711 C 330.635 187.662 328.729 188.250 326.625 188.250 C 324.521 188.250 322.615 187.662 321.235 186.711 C 319.854 185.761 319 184.448 319 183 C 319 181.552 319.854 180.239 321.235 179.289 C 322.615 178.338 324.521 177.750 326.625 177.750 Z " transform="matrix(0.48987460136413574, 0, 0, 0.48987460136413574, -133.55, -43.6)"/>
    <path id="ID0.6539682173170149" fill="#FFFFFF" stroke="none" d="M 326.625 177.750 C 328.729 177.750 330.635 178.338 332.015 179.289 C 333.396 180.239 334.250 181.552 334.250 183 C 334.250 184.448 333.396 185.761 332.015 186.711 C 330.635 187.662 328.729 188.250 326.625 188.250 C 324.521 188.250 322.615 187.662 321.235 186.711 C 319.854 185.761 319 184.448 319 183 C 319 181.552 319.854 180.239 321.235 179.289 C 322.615 178.338 324.521 177.750 326.625 177.750 Z " transform="matrix(0.48987460136413574, 0, 0, 0.48987460136413574, -125.6, -43.5)"/>
    <path id="ID0.28278583008795977" fill="#000000" stroke="none" d="M 322 181.500 C 322.690 181.500 323.315 181.794 323.767 182.269 C 324.220 182.745 324.500 183.401 324.500 184.125 C 324.500 184.849 324.220 185.505 323.767 185.981 C 323.315 186.456 322.690 186.750 322 186.750 C 321.310 186.750 320.685 186.456 320.233 185.981 C 319.780 185.505 319.500 184.849 319.500 184.125 C 319.500 183.401 319.780 182.745 320.233 182.269 C 320.685 181.794 321.310 181.500 322 181.500 Z " transform="matrix(0.48987460136413574, 0, 0, 0.48987460136413574, -133.55, -43.6)"/>
    <path id="ID0.28278583008795977" fill="#000000" stroke="none" d="M 322 181.500 C 322.690 181.500 323.315 181.794 323.767 182.269 C 324.220 182.745 324.500 183.401 324.500 184.125 C 324.500 184.849 324.220 185.505 323.767 185.981 C 323.315 186.456 322.690 186.750 322 186.750 C 321.310 186.750 320.685 186.456 320.233 185.981 C 319.780 185.505 319.500 184.849 319.500 184.125 C 319.500 183.401 319.780 182.745 320.233 182.269 C 320.685 181.794 321.310 181.500 322 181.500 Z " transform="matrix(0.48987460136413574, 0, 0, 0.48987460136413574, -120.9, -44.6)"/>
    <path id="ID0.877939498052001" fill="none" stroke="#00CC44" stroke-width="4" stroke-linecap="round" d="M 163 235 C 163 235 166.855 237.625 169 237.500 C 171.923 237.278 175.643 231.971 177.600 232.950 C 179.392 234.470 175.791 239.764 176.500 242.500 C 176.882 243.863 179.496 243.681 180 245 C 180.896 247.546 177.945 252.168 179.600 254.250 C 181.181 255.404 184.379 251.209 186.500 251.500 C 187.861 251.733 188.174 254.042 189.500 254.500 C 192.442 255.450 198.492 253.097 200.250 254.950 C 200.990 256.845 195.261 259.526 194.500 262 C 194.094 263.459 196.540 265.405 195.500 266.500 C 193.378 268.595 185.929 267.621 185.600 269.550 C 185.929 271.621 193.242 272.151 195.500 274.500 C 196.389 275.471 194.955 277.310 195.500 278.500 C 196.573 280.658 201.820 282.247 201.550 284.200 C 200.573 286.235 194.751 284.675 193 286.500 C 190.083 289.657 187 298 187 298 " transform="matrix(-0.183991938829422, 0, 0, 0.183991938829422, 50.85, 9.8)"/>
    <path id="ID0.3833936583250761" fill="none" stroke="#00CC44" stroke-width="4" stroke-linecap="round" d="M 154 243 C 154 243 157.486 244.845 158 246.500 C 158.521 248.353 154.496 251.279 155.650 252.950 C 157.721 254.504 162.025 252.104 164.500 253 C 165.796 253.508 166.280 255.313 167.500 256 C 170.284 257.526 175.864 256.065 177.600 258.900 C 178.579 261.742 173.349 264.630 173 267.500 C 172.720 270.181 174.933 272.865 174.500 275.500 C 174.080 277.578 169.819 278.300 168.950 280.900 C 169.104 282.354 172.670 282.516 173 284 C 173.196 284.978 172 287 172 287 " transform="matrix(-0.183991938829422, 0, 0, 0.183991938829422, 51.65, 10.65)"/>
    <path id="ID0.8188485014252365" fill="none" stroke="#00CC44" stroke-width="4" stroke-linecap="round" d="M 137.500 254.500 C 137.500 254.500 141.381 257.092 143.500 258 C 146.904 259.423 152.284 258.752 154.300 262.250 C 155.752 264.201 151.177 266.281 150.500 269 C 150.143 270.448 152.045 272.653 151 273.500 C 149.618 274.499 145.617 271.095 144.300 272.250 C 143.624 273.586 147 278.500 147 278.500 " transform="matrix(-0.183991938829422, 0, 0, 0.183991938829422, 51.35, 10.7)"/>
  </g>
  <path id="ID0.8365832129493356" fill="none" stroke="#666666" stroke-width="2" stroke-linecap="round" d="M 177.350 190 " transform="matrix(1, 0, 0, 1, -110, -42)"/>
  <path id="ID0.8365832129493356" fill="none" stroke="#666666" stroke-width="2" stroke-linecap="round" d="M 177.350 190 " transform="matrix(1, 0, 0, 1, -295, -120)"/>
  <path id="ID0.8365832129493356" fill="none" stroke="#666666" stroke-width="2" stroke-linecap="round" d="M 177.350 190 " transform="matrix(1, 0, 0, 1, -96, -50)"/>
  <path id="ID0.8365832129493356" fill="none" stroke="#666666" stroke-width="2" stroke-linecap="round" d="M 177.350 190 " transform="matrix(1, 0, 0, 1, -307, -40)"/>
  <g id="ID0.7827755282633007">
    <path id="ID0.8188485014252365" fill="none" stroke="#003FFF" stroke-width="4" stroke-linecap="round" d="M 137.500 254.500 C 137.500 254.500 141.674 256.580 143.500 258 C 144.712 258.942 145.676 260.205 146.500 261.500 C 148.020 263.888 149.506 266.350 150.500 269 C 151.029 270.412 151.366 272.037 151 273.500 C 150.653 274.890 149.395 275.882 148.500 277 C 148.059 277.552 147 278.500 147 278.500 " transform="matrix(0.1751483529806137, 0, 0, 0.1751483529806137, 12.05, -15)"/>
    <path id="ID0.4570708512328565" fill="#003FFF" stroke="#0033CC" stroke-width="4" stroke-linecap="round" d="M 51 218.350 C 39.661 217.821 17.337 221.870 18 210.850 C 19.531 184.567 41.430 163.892 55.500 141.850 C 66.387 124.782 76.209 106.663 92.500 96 C 99.957 90.392 112.338 92.391 119.500 98 C 133.782 109.172 143.073 124.802 153 141 C 166.945 163.755 187.063 185.615 189.500 212.350 C 190.211 222.115 169.414 215.854 159.500 216.350 C 123.410 218.161 87.095 220.032 51 218.350 Z " transform="matrix(0.1751483529806137, 0, 0, 0.1751483529806137, 12.15, -15)"/>
    <path id="ID0.009304857812821865" fill="#99B2FF" stroke="#003FFF" stroke-width="4" d="M 104.750 156 C 121.924 156 137.487 162.051 148.756 171.826 C 160.025 181.602 167 195.102 167 210 C 167 224.898 160.025 238.398 148.756 248.174 C 137.487 257.949 121.924 264 104.750 264 C 87.576 264 72.013 257.949 60.744 248.174 C 49.475 238.398 42.500 224.898 42.500 210 C 42.500 195.102 49.475 181.602 60.744 171.826 C 72.013 162.051 87.576 156 104.750 156 Z " transform="matrix(0.1751483529806137, 0, 0, 0.1751483529806137, 12.05, -15)"/>
    <g id="ID0.21643680380657315">
      <path id="ID0.39615850523114204" fill="#000000" stroke="none" d="M 83.500 186.500 C 88.880 186.500 93.755 188.573 97.285 191.922 C 100.815 195.271 103 199.896 103 205 C 103 210.104 100.815 214.729 97.285 218.078 C 93.755 221.427 88.880 223.500 83.500 223.500 C 78.120 223.500 73.245 221.427 69.715 218.078 C 66.185 214.729 64 210.104 64 205 C 64 199.896 66.185 195.271 69.715 191.922 C 73.245 188.573 78.120 186.500 83.500 186.500 Z " transform="matrix(-0.1751483529806137, 0, 0, 0.1751483529806137, 40.2, -16.1)"/>
      <path id="ID0.3251188797876239" fill="#FFFFFF" stroke="none" d="M 84.250 182 C 86.388 182 88.326 182.980 89.729 184.564 C 91.132 186.148 92 188.336 92 190.750 C 92 193.164 91.132 195.352 89.729 196.936 C 88.326 198.520 86.388 199.500 84.250 199.500 C 82.112 199.500 80.174 198.520 78.771 196.936 C 77.368 195.352 76.500 193.164 76.500 190.750 C 76.500 188.336 77.368 186.148 78.771 184.564 C 80.174 182.980 82.112 182 84.250 182 Z " transform="matrix(-0.1751483529806137, 0, 0, 0.1751483529806137, 39.05, -15)"/>
      <path id="ID0.01969422632828355" fill="#FFFFFF" stroke="none" d="M 71.500 198.500 C 72.604 198.500 73.604 199.004 74.328 199.819 C 75.052 200.633 75.500 201.758 75.500 203 C 75.500 204.242 75.052 205.367 74.328 206.181 C 73.604 206.996 72.604 207.500 71.500 207.500 C 70.396 207.500 69.396 206.996 68.672 206.181 C 67.948 205.367 67.500 204.242 67.500 203 C 67.500 201.758 67.948 200.633 68.672 199.819 C 69.396 199.004 70.396 198.500 71.500 198.500 Z " transform="matrix(-0.1751483529806137, 0, 0, 0.1751483529806137, 39.05, -15)"/>
    </g>
    <g id="ID0.21643680380657315">
      <path id="ID0.39615850523114204" fill="#000000" stroke="none" d="M 83.500 186.500 C 88.880 186.500 93.755 188.573 97.285 191.922 C 100.815 195.271 103 199.896 103 205 C 103 210.104 100.815 214.729 97.285 218.078 C 93.755 221.427 88.880 223.500 83.500 223.500 C 78.120 223.500 73.245 221.427 69.715 218.078 C 66.185 214.729 64 210.104 64 205 C 64 199.896 66.185 195.271 69.715 191.922 C 73.245 188.573 78.120 186.500 83.500 186.500 Z " transform="matrix(-0.1751483529806137, 0, 0, 0.1751483529806137, 49.15, -16.05)"/>
      <path id="ID0.3251188797876239" fill="#FFFFFF" stroke="none" d="M 84.250 182 C 86.388 182 88.326 182.980 89.729 184.564 C 91.132 186.148 92 188.336 92 190.750 C 92 193.164 91.132 195.352 89.729 196.936 C 88.326 198.520 86.388 199.500 84.250 199.500 C 82.112 199.500 80.174 198.520 78.771 196.936 C 77.368 195.352 76.500 193.164 76.500 190.750 C 76.500 188.336 77.368 186.148 78.771 184.564 C 80.174 182.980 82.112 182 84.250 182 Z " transform="matrix(-0.1751483529806137, 0, 0, 0.1751483529806137, 48, -14.9)"/>
      <path id="ID0.01969422632828355" fill="#FFFFFF" stroke="none" d="M 71.500 198.500 C 72.604 198.500 73.604 199.004 74.328 199.819 C 75.052 200.633 75.500 201.758 75.500 203 C 75.500 204.242 75.052 205.367 74.328 206.181 C 73.604 206.996 72.604 207.500 71.500 207.500 C 70.396 207.500 69.396 206.996 68.672 206.181 C 67.948 205.367 67.500 204.242 67.500 203 C 67.500 201.758 67.948 200.633 68.672 199.819 C 69.396 199.004 70.396 198.500 71.500 198.500 Z " transform="matrix(-0.1751483529806137, 0, 0, 0.1751483529806137, 48, -14.9)"/>
    </g>
    <path id="ID0.6319951475597918" fill="none" stroke="#003FFF" stroke-width="4" stroke-linecap="round" d="M 71.250 228.250 C 71.250 228.250 69.423 234.115 69 236.500 C 68.753 237.817 68.796 239.357 69.500 240.500 C 70.251 241.720 71.708 242.382 73 243 C 75.567 244.228 78.215 245.420 81 246 C 82.314 246.274 83.774 246.042 85 245.500 C 87.090 244.577 88.752 242.748 90.950 242.050 C 92.254 241.478 93.759 241.381 95.200 241.800 C 97.421 242.435 99.432 244.060 101.450 244.800 C 102.708 245.265 104.150 245.550 105.450 245.300 C 108.250 244.700 110.900 243.500 113.450 242.300 C 114.750 241.650 116.200 241 116.950 239.800 C 117.700 238.650 117.700 237.100 117.450 235.800 C 117.050 233.400 115.200 227.550 115.200 227.550 " transform="matrix(-0.1751483529806137, 0, 0, 0.1751483529806137, 46.5, -15.95)"/>
    <path id="ID0.3833936583250761" fill="none" stroke="#003FFF" stroke-width="4" stroke-linecap="round" d="M 154 243 C 154 243 156.662 245.341 158 246.500 C 159.160 247.505 160.415 248.415 161.500 249.500 C 162.585 250.585 163.459 251.872 164.500 253 C 165.458 254.038 166.617 254.897 167.500 256 C 169.289 258.237 171.264 260.416 172.500 263 C 173.151 264.360 172.762 266.011 173 267.500 C 173.428 270.176 174.177 272.809 174.500 275.500 C 174.679 276.988 174.760 278.524 174.500 280 C 174.253 281.401 173.478 282.660 173 284 C 172.646 284.992 172 287 172 287 " transform="matrix(0.1751483529806137, 0, 0, 0.1751483529806137, 12.05, -15)"/>
    <path id="ID0.877939498052001" fill="none" stroke="#003FFF" stroke-width="4" stroke-linecap="round" d="M 163 235 C 163 235 167.127 236.416 169 237.500 C 170.328 238.269 171.223 239.649 172.500 240.500 C 173.739 241.326 175.223 241.734 176.500 242.500 C 177.728 243.237 178.913 244.068 180 245 C 181.251 246.073 182.334 247.334 183.500 248.500 C 184.499 249.499 185.501 250.501 186.500 251.500 C 187.499 252.499 188.581 253.427 189.500 254.500 C 190.584 255.764 191.576 257.115 192.500 258.500 C 193.245 259.617 194.029 260.743 194.500 262 C 195.039 263.437 195.321 264.975 195.500 266.500 C 195.656 267.823 195.500 269.168 195.500 270.500 C 195.500 271.832 195.500 273.168 195.500 274.500 C 195.500 275.832 195.745 277.191 195.500 278.500 C 195.238 279.898 194.424 281.142 194 282.500 C 193.590 283.810 193.565 285.249 193 286.500 C 191.222 290.437 187 298 187 298 " transform="matrix(0.1751483529806137, 0, 0, 0.1751483529806137, 12.05, -15)"/>
    <path id="ID0.8188485014252365" fill="none" stroke="#003FFF" stroke-width="4" stroke-linecap="round" d="M 137.500 254.500 C 137.500 254.500 141.674 256.580 143.500 258 C 144.712 258.942 145.676 260.205 146.500 261.500 C 148.020 263.888 149.506 266.350 150.500 269 C 151.029 270.412 151.366 272.037 151 273.500 C 150.653 274.890 149.395 275.882 148.500 277 C 148.059 277.552 147 278.500 147 278.500 " transform="matrix(-0.1751483529806137, 0, 0, 0.1751483529806137, 49.25, -14.25)"/>
    <path id="ID0.3833936583250761" fill="none" stroke="#003FFF" stroke-width="4" stroke-linecap="round" d="M 154 243 C 154 243 156.662 245.341 158 246.500 C 159.160 247.505 160.415 248.415 161.500 249.500 C 162.585 250.585 163.459 251.872 164.500 253 C 165.458 254.038 166.617 254.897 167.500 256 C 169.289 258.237 171.264 260.416 172.500 263 C 173.151 264.360 172.762 266.011 173 267.500 C 173.428 270.176 174.177 272.809 174.500 275.500 C 174.679 276.988 174.760 278.524 174.500 280 C 174.253 281.401 173.478 282.660 173 284 C 172.646 284.992 172 287 172 287 " transform="matrix(-0.1751483529806137, 0, 0, 0.1751483529806137, 49.15, -13.9)"/>
    <path id="ID0.877939498052001" fill="none" stroke="#003FFF" stroke-width="4" stroke-linecap="round" d="M 163 235 C 163 235 167.127 236.416 169 237.500 C 170.328 238.269 171.223 239.649 172.500 240.500 C 173.739 241.326 175.223 241.734 176.500 242.500 C 177.728 243.237 178.913 244.068 180 245 C 181.251 246.073 182.334 247.334 183.500 248.500 C 184.499 249.499 185.501 250.501 186.500 251.500 C 187.499 252.499 188.581 253.427 189.500 254.500 C 190.584 255.764 191.576 257.115 192.500 258.500 C 193.245 259.617 194.029 260.743 194.500 262 C 195.039 263.437 195.321 264.975 195.500 266.500 C 195.656 267.823 195.500 269.168 195.500 270.500 C 195.500 271.832 195.500 273.168 195.500 274.500 C 195.500 275.832 195.745 277.191 195.500 278.500 C 195.238 279.898 194.424 281.142 194 282.500 C 193.590 283.810 193.565 285.249 193 286.500 C 191.222 290.437 187 298 187 298 " transform="matrix(-0.1751483529806137, 0, 0, 0.1751483529806137, 49.05, -14.55)"/>
  </g>
  <path id="ID0.009156565647572279" fill="#00FFFF" stroke="none" d="M 262.375 168.350 C 262.796 168.350 263.177 168.504 263.453 168.753 C 263.729 169.002 263.900 169.346 263.900 169.725 C 263.900 170.104 263.729 170.448 263.453 170.697 C 263.177 170.946 262.796 171.100 262.375 171.100 C 261.954 171.100 261.573 170.946 261.297 170.697 C 261.021 170.448 260.850 170.104 260.850 169.725 C 260.850 169.346 261.021 169.002 261.297 168.753 C 261.573 168.504 261.954 168.350 262.375 168.350 Z " transform="matrix(1, 0, 0, 1, -210, -105)"/>
  <path id="ID0.009645052254199982" fill="#00FFFF" stroke="none" d="M 213.875 166.700 C 214.641 166.700 215.334 166.994 215.837 167.469 C 216.339 167.945 216.650 168.601 216.650 169.325 C 216.650 170.049 216.339 170.705 215.837 171.181 C 215.334 171.656 214.641 171.950 213.875 171.950 C 213.109 171.950 212.416 171.656 211.913 171.181 C 211.411 170.705 211.100 170.049 211.100 169.325 C 211.100 168.601 211.411 167.945 211.913 167.469 C 212.416 166.994 213.109 166.700 213.875 166.700 Z " transform="matrix(1, 0, 0, 1, -210, -105)"/>
  <path id="ID0.9242598661221564" fill="#00FFFF" stroke="none" d="M 260.825 157.800 C 261.135 157.800 261.417 157.940 261.620 158.166 C 261.824 158.393 261.950 158.705 261.950 159.050 C 261.950 159.395 261.824 159.707 261.620 159.934 C 261.417 160.160 261.135 160.300 260.825 160.300 C 260.515 160.300 260.233 160.160 260.030 159.934 C 259.826 159.707 259.700 159.395 259.700 159.050 C 259.700 158.705 259.826 158.393 260.030 158.166 C 260.233 157.940 260.515 157.800 260.825 157.800 Z " transform="matrix(1, 0, 0, 1, -248.3, -108.85)"/>
</svg>