<svg version="1.1" width="54" height="74" viewBox="-1 -1 54 74" xmlns="http://www.w3.org/2000/svg" xmlns:xlink="http://www.w3.org/1999/xlink">
  <defs>
    <linearGradient id="grad_1" y2="1">
      <stop offset="0" stop-color="#FFFF00" stop-opacity="0"/>
      <stop offset="1" stop-color="#FFFF00" stop-opacity="1"/>
    </linearGradient>
    <linearGradient id="grad_2" y2="1">
      <stop offset="0" stop-color="#FFFF00" stop-opacity="0"/>
      <stop offset="1" stop-color="#FFFF00" stop-opacity="1"/>
    </linearGradient>
  </defs>
  <!-- Exported by Scratch - http://scratch.mit.edu/ -->
  <g id="ID0.1477178898639977">
    <path id="ID0.5619839346036315" fill="#0033CC" stroke="#002699" stroke-width="2" stroke-linecap="round" d="M 282.550 231 C 306.841 200.371 308.320 199.171 315.500 193 C 318.114 191.163 320.546 191.730 322.500 193 C 324.499 194.299 326.520 196.941 325.500 199.500 C 309.865 219.642 303.238 227.753 292 235 C 288.841 236.950 281.120 234.340 282.550 231 Z " transform="matrix(0.24025429785251617, -0.19951805472373962, 0.30516430735588074, 0.36747074127197266, -92.25, 29.75)"/>
    <path id="ID0.6155663500539958" fill="#FFD499" stroke="none" d="M 241.250 209 C 243.526 209 245.589 209.924 247.082 211.418 C 248.576 212.911 249.500 214.974 249.500 217.250 C 249.500 219.526 248.576 221.589 247.082 223.082 C 245.589 224.576 243.526 225.500 241.250 225.500 C 238.974 225.500 236.911 224.576 235.418 223.082 C 233.924 221.589 233 219.526 233 217.250 C 233 214.974 233.924 212.911 235.418 211.418 C 236.911 209.924 238.974 209 241.250 209 Z " transform="matrix(0.43194839358329773, -0.08813900500535965, 0.08546812832355499, 0.41885906457901, -74.65, -11.6)"/>
  </g>
  <path id="ID0.5486297779716551" fill="#935301" stroke="#663B00" stroke-width="6" stroke-linecap="round" d="M 319.350 238.550 C 307.238 245.500 295.597 266.776 302 278 C 311.189 288.839 325.526 285.577 337.700 286.950 C 347.701 288.070 358.478 286.995 368.500 283.850 C 376.746 282.212 390.961 281.771 391.550 272.850 C 392.439 259.122 383.380 242.675 371 237 C 355.369 229.848 334.427 229.344 319.350 238.550 Z " transform="matrix(-0.17104271054267883, 0.002926786197349429, 0.0031612187158316374, 0.18474271893501282, 99.1, 18.05)"/>
  <path id="ID0.08809070056304336" fill="#FFD499" stroke="#FFD499" stroke-width="2" stroke-linecap="round" d="M 246 185.300 C 245.980 186.048 246.001 186.757 246 187.550 C 245.996 188.249 245.967 188.955 246 189.650 C 246.032 190.318 246.125 190.985 246.200 191.650 C 246.275 192.317 246.350 192.986 246.450 193.650 C 246.550 194.319 246.487 195.051 246.800 195.650 C 247.116 196.255 247.648 196.777 248.250 197.100 C 248.849 197.421 249.571 197.509 250.250 197.500 C 250.916 197.492 251.639 197.409 252.200 197.050 C 252.769 196.685 253.158 196.060 253.450 195.450 C 253.738 194.849 253.850 194.164 253.900 193.500 C 254.047 191.545 254.095 189.568 254.150 187.600 C 254.143 186.901 254.142 186.200 254.150 185.500 C 253.991 181.252 254.228 180.358 253.900 178.850 C 253.715 178.142 253.282 177.502 252.700 177.150 C 251.952 176.691 251.161 176.494 250.350 176.500 C 249.410 176.507 248.387 176.551 247.600 177.050 C 246.923 177.494 246.549 178.360 246.350 179.150 C 246.053 182.515 246.050 183.695 246 185.300 Z " transform="matrix(-2.1979362964630127, 0, 0, 2.6161482334136963, 583.5, -458.5)"/>
  <path id="ID0.0726902256719768" fill="#003FFF" stroke="#0032CC" stroke-width="2" stroke-linecap="round" d="M 209.500 227.500 L 209 179.500 L 215.100 179.250 L 219.300 189.750 L 224.600 179.250 L 240.500 179.500 L 241.500 227.500 L 239 231.500 L 233.500 233.500 L 224 234.500 L 213.500 232.500 L 209.500 227.500 Z " transform="matrix(-0.7016415596008301, 0, 0, 0.5331858396530151, 191.25, -58.85)"/>
  <path id="ID0.8850112343207002" fill="none" stroke="#000000" stroke-width="2" stroke-linecap="round" d="M 240.500 194 L 240.800 194.300 " transform="matrix(-0.5331858396530151, 0, 0, 0.5331858396530151, 166.85, -59.65)"/>
  <path id="ID0.16972909634932876" fill="none" stroke="#000000" stroke-width="2" stroke-linecap="round" d="M 240.500 199.500 L 240.800 199.800 " transform="matrix(-0.5331858396530151, 0, 0, 0.5331858396530151, 166.85, -59.65)"/>
  <g id="ID0.1477178898639977">
    <path id="ID0.5619839346036315" fill="#003FFF" stroke="#0033CC" stroke-width="2" stroke-linecap="round" d="M 282.550 231 C 306.841 200.371 308.320 199.171 315.500 193 C 318.114 191.163 320.546 191.730 322.500 193 C 324.499 194.299 326.520 196.941 325.500 199.500 C 309.865 219.642 303.238 227.753 292 235 C 288.841 236.950 281.120 234.340 282.550 231 Z " transform="matrix(0.30913931131362915, -0.044299837201833725, -0.06775698065757751, -0.4728308916091919, -63.05, 147.35)"/>
    <path id="ID0.6155663500539958" fill="#FFD499" stroke="none" d="M 241.250 209 C 243.526 209 245.589 209.924 247.082 211.418 C 248.576 212.911 249.500 214.974 249.500 217.250 C 249.500 219.526 248.576 221.589 247.082 223.082 C 245.589 224.576 243.526 225.500 241.250 225.500 C 238.974 225.500 236.911 224.576 235.418 223.082 C 233.924 221.589 233 219.526 233 217.250 C 233 214.974 233.924 212.911 235.418 211.418 C 236.911 209.924 238.974 209 241.250 209 Z " transform="matrix(0.35515648126602173, -0.26117387413978577, -0.2532595694065094, -0.34439417719841003, -20.6, 162)"/>
  </g>
  <path id="ID0.5486297779716551" fill="#935301" stroke="#663B00" stroke-width="6" stroke-linecap="round" d="M 319.350 238.550 C 307.238 245.500 295.597 266.776 302 278 C 311.189 288.839 325.526 285.577 337.700 286.950 C 347.701 288.070 358.478 286.995 368.500 283.850 C 376.746 282.212 390.961 281.771 391.550 272.850 C 392.439 259.122 383.380 242.675 371 237 C 355.369 229.848 334.427 229.344 319.350 238.550 Z " transform="matrix(-0.17104271054267883, 0.002926786197349429, 0.0031612187158316374, 0.18474271893501282, 86.75, 18.4)"/>
  <path id="ID0.643749819137156" fill="#FFFFFF" stroke="#000000" stroke-width="2" d="M 234.750 143.750 C 236.336 143.750 237.774 144.576 238.815 145.911 C 239.856 147.247 240.500 149.090 240.500 151.125 C 240.500 153.160 239.856 155.003 238.815 156.339 C 237.774 157.674 236.336 158.500 234.750 158.500 C 233.164 158.500 231.726 157.674 230.685 156.339 C 229.644 155.003 229 153.160 229 151.125 C 229 149.090 229.644 147.247 230.685 145.911 C 231.726 144.576 233.164 143.750 234.750 143.750 Z " transform="matrix(-0.5331858396530151, 0, 0, 0.5331858396530151, 163.8, -61.65)"/>
  <path id="ID0.643749819137156" fill="#FFFFFF" stroke="#000000" stroke-width="2" d="M 234.750 143.750 C 236.336 143.750 237.774 144.576 238.815 145.911 C 239.856 147.247 240.500 149.090 240.500 151.125 C 240.500 153.160 239.856 155.003 238.815 156.339 C 237.774 157.674 236.336 158.500 234.750 158.500 C 233.164 158.500 231.726 157.674 230.685 156.339 C 229.644 155.003 229 153.160 229 151.125 C 229 149.090 229.644 147.247 230.685 145.911 C 231.726 144.576 233.164 143.750 234.750 143.750 Z " transform="matrix(-0.5331858396530151, 0, 0, 0.5331858396530151, 158.8, -61.8)"/>
  <path id="ID0.7692075585946441" fill="none" stroke="#000000" stroke-width="2" stroke-linecap="round" d="M 233.750 150.250 L 234.050 150.550 " transform="matrix(-0.5331858396530151, 0, 0, 0.5331858396530151, 163.5, -61.65)"/>
  <path id="ID0.731148752849549" fill="none" stroke="#000000" stroke-width="2" stroke-linecap="round" d="M 242.500 150 L 242.800 150.300 " transform="matrix(-0.5331858396530151, 0, 0, 0.5331858396530151, 163.5, -61.65)"/>
  <path id="ID0.8540973095223308" fill="none" stroke="#000000" stroke-width="2" stroke-linecap="round" d="M 255.250 160.850 C 255.250 160.850 253.312 160.956 252.400 161.250 C 251.731 161.466 251.089 161.846 250.600 162.350 C 250.012 162.957 249.545 163.708 249.250 164.500 C 248.999 165.176 249.042 165.930 249 166.650 C 248.959 167.348 248.664 168.136 249 168.750 C 249.330 169.354 250.102 169.617 250.750 169.850 C 251.430 170.094 252.182 170.234 252.900 170.150 C 253.936 170.029 255.900 169.250 255.900 169.250 " transform="matrix(-0.36017340421676636, 0, 0, 0.36017340421676636, 127.5, -35.4)"/>
  <path id="ID0.07236457336694002" fill="url(#grad_1)" stroke="url(#grad_2)" stroke-width="2" stroke-linecap="round" d="M 215.500 161.250 C 218.490 163.226 220.654 166.333 223 168.750 C 223.597 169.365 224.065 169.808 224.250 170.500 C 224.423 171.149 224.284 171.892 224 172.500 C 223.675 173.196 222.785 173.537 222.500 174.250 C 222.253 174.868 222.359 175.599 222.500 176.250 C 222.780 177.536 223.205 178.802 223.750 180 C 224.046 180.652 224.432 181.313 225 181.750 C 225.564 182.184 226.402 182.115 227 182.500 C 227.594 182.882 228.262 183.335 228.500 184 C 228.726 184.632 228.333 185.334 228.250 186 C 228.167 186.666 228.083 187.334 228 188 C 227.917 188.666 228.225 189.525 227.750 190 C 227.275 190.475 226.411 190.367 225.750 190.250 C 224.943 190.108 224.233 189.617 223.500 189.250 C 222.733 188.867 221.985 188.441 221.250 188 C 219.903 187.192 218.445 186.520 217.250 185.500 C 215.011 183.589 213.013 181.397 211 179.250 C 210.497 178.713 210.087 178.132 209.750 177.500 C 209.415 176.872 209.173 176.190 209 175.500 C 208.671 174.185 208.363 172.851 208.250 171.500 C 208.194 170.831 208.288 170.137 208.500 169.500 C 208.712 168.863 209.167 168.333 209.500 167.750 C 209.833 167.167 210.091 166.532 210.500 166 C 210.931 165.440 211.481 164.979 212 164.500 C 212.564 163.979 213.171 163.502 213.750 163 C 214.317 162.505 214.723 160.874 215.500 161.250 Z " transform="matrix(1, 0, 0, 1, -207, -133)"/>
  <g id="ID0.4722441751509905" transform="matrix(0.43478259444236755, 0, 0, 0.43478259444236755, 28.5, 26.15)">
    <path id="ID0.36374237248674035" fill="#FFFFFF" stroke="#FFFFFF" stroke-width="2" stroke-linecap="round" d="M 255.650 198 C 256.477 197.339 257.355 198.205 258.300 198.500 C 258.955 198.705 259.634 198.833 260.300 199 C 260.966 199.167 261.640 199.311 262.300 199.500 C 263.039 199.711 263.759 199.996 264.500 200.200 C 265.209 200.395 265.936 200.525 266.650 200.700 C 268.650 201.191 270.653 201.695 272.650 202.200 C 273.484 202.411 274.315 202.643 275.150 202.850 C 275.864 203.026 276.579 203.206 277.300 203.350 C 277.995 203.489 278.696 203.616 279.400 203.700 C 280.096 203.783 280.801 203.799 281.500 203.850 C 282.166 203.899 282.837 203.917 283.500 204 C 284.171 204.084 285.007 203.887 285.500 204.350 C 286 204.820 285.915 205.669 286 206.350 C 286.083 207.011 286 207.684 286 208.350 C 286 209.016 286.033 209.685 286 210.350 C 285.967 211.018 286.113 211.758 285.800 212.350 C 285.453 213.006 284.849 213.612 284.150 213.850 C 280.526 213.723 279.179 213.736 277.400 213.600 C 276.723 213.550 276.054 213.384 275.400 213.200 C 274.716 212.966 274.100 212.519 273.400 212.350 C 272.668 212.173 271.897 212.196 271.150 212.100 C 269.900 211.943 268.782 211.629 267.650 211.500 C 266.694 211.429 265.720 211.664 264.900 211.500 C 264.228 211.362 263.702 210.887 263 210.700 C 256.578 209.278 255.252 209.498 253.300 207.500 C 253.546 203.385 254.079 202.581 254.300 201.200 C 254.412 200.500 254.431 199.774 254.650 199.100 C 254.836 198.526 254.905 197.598 255.500 197.500 Z " transform="matrix(1, 0, 0, 1, -251.5, -196.25)"/>
    <path id="ID0.22580166859552264" fill="none" stroke="#000000" stroke-width="2" stroke-linecap="round" d="M 253.100 202.400 L 263 204.400 " transform="matrix(1, 0, 0, 1, -251.5, -196.25)"/>
    <path id="ID0.35463656252250075" fill="none" stroke="#000000" stroke-width="2" stroke-linecap="round" d="M 286.750 209.150 L 275.900 207.300 " transform="matrix(1, 0, 0, 1, -251.5, -196.25)"/>
  </g>
</svg>