<svg version="1.1" width="127" height="48" viewBox="-1 -1 127 48" xmlns="http://www.w3.org/2000/svg" xmlns:xlink="http://www.w3.org/1999/xlink">
  <!-- Exported by Scratch - http://scratch.mit.edu/ -->
  <path id="ID0.8058409756049514" fill="#7F00FF" stroke="#7F00FF" stroke-width="2" stroke-linecap="round" d="M 292.500 213.900 C 292.322 213.404 291.310 214.549 290 214.750 C 289.300 214.857 288.646 214.282 288.050 213.900 C 287.334 213.441 286.559 212.966 286.100 212.250 C 285.684 211.601 285.228 210.701 285.550 210 C 285.843 209.362 287.500 209.761 287.500 209.200 C 287.500 208.511 286.102 208.161 285.550 207.500 C 285.072 206.928 284.507 206.293 284.450 205.550 C 284.396 204.850 284.731 204.072 285.250 203.600 C 285.749 203.146 286.525 203.050 287.200 203.050 C 287.875 203.050 288.865 203.935 289.150 203.600 C 289.440 203.260 288.677 202.304 288.350 201.700 C 288.024 201.099 287.200 200.683 287.200 200 C 287.200 199.330 287.790 198.718 288.350 198.350 C 288.981 197.935 289.801 197.701 290.550 197.800 C 291.289 197.898 292.152 199.173 292.500 198.900 C 292.852 198.623 291.950 197.455 291.950 196.700 C 291.950 196.025 291.950 195.140 292.500 194.750 C 293.098 194.326 293.982 194.897 294.700 194.750 C 295.394 194.608 296.067 194.302 296.650 193.900 C 297.847 193.075 298.797 191.917 300 191.100 C 300.581 190.706 301.248 190.300 301.950 190.300 C 302.904 190.300 303.845 190.677 304.700 191.100 C 305.357 191.425 305.961 191.912 306.400 192.500 C 306.820 193.063 306.637 194.031 307.200 194.450 C 308.499 195.415 310.312 195.491 311.650 196.400 C 312.955 197.287 314.263 198.355 315 199.750 C 315.315 200.347 314.808 201.128 314.450 201.700 C 314.032 202.369 313.437 202.962 312.750 203.350 C 312.092 203.721 311.022 203.310 310.550 203.900 C 310.092 204.472 310.362 205.392 310.550 206.100 C 310.741 206.821 311.650 207.304 311.650 208.050 C 311.650 208.724 311.027 209.273 310.550 209.750 C 309.992 210.308 309.306 210.747 308.600 211.100 C 307.992 211.404 307.308 211.530 306.650 211.700 C 305.825 211.913 304.809 211.710 304.150 212.250 C 303.628 212.678 303.689 213.531 303.600 214.200 C 303.504 214.926 304.064 215.833 303.600 216.400 C 303.043 217.080 301.977 217.191 301.100 217.250 C 300.427 217.295 299.722 217.058 299.150 216.700 C 298.481 216.282 298.243 215.267 297.500 215 C 296.789 214.745 295.947 215.591 295.250 215.300 C 294.628 215.040 294.549 214.144 294.150 213.600 C 293.997 213.391 293.919 212.961 293.600 213.050 Z " transform="matrix(1, 0, 0, 1, -195.3, -176.3)"/>
  <path id="ID0.8365832129493356" fill="none" stroke="#666666" stroke-width="2" stroke-linecap="round" d="M 177.350 190 " transform="matrix(1, 0, 0, 1, -334, -187)"/>
  <path id="ID0.8365832129493356" fill="none" stroke="#666666" stroke-width="2" stroke-linecap="round" d="M 177.350 190 " transform="matrix(1, 0, 0, 1, -492, -253)"/>
  <path id="ID0.8365832129493356" fill="none" stroke="#666666" stroke-width="2" stroke-linecap="round" d="M 177.350 190 " transform="matrix(1, 0, 0, 1, -453, -94)"/>
  <path id="ID0.8365832129493356" fill="none" stroke="#666666" stroke-width="2" stroke-linecap="round" d="M 177.350 190 " transform="matrix(1, 0, 0, 1, -338, -297)"/>
  <path id="ID0.8365832129493356" fill="none" stroke="#666666" stroke-width="2" stroke-linecap="round" d="M 177.350 190 " transform="matrix(1, 0, 0, 1, -147, -46)"/>
  <path id="ID0.8365832129493356" fill="none" stroke="#666666" stroke-width="2" stroke-linecap="round" d="M 177.350 190 " transform="matrix(1, 0, 0, 1, -332, -124)"/>
  <path id="ID0.8365832129493356" fill="none" stroke="#666666" stroke-width="2" stroke-linecap="round" d="M 177.350 190 " transform="matrix(1, 0, 0, 1, -133, -54)"/>
  <path id="ID0.8365832129493356" fill="none" stroke="#666666" stroke-width="2" stroke-linecap="round" d="M 177.350 190 " transform="matrix(1, 0, 0, 1, -344, -44)"/>
  <path id="ID0.3500674394890666" fill="#FFD499" stroke="#FFD499" stroke-width="2" stroke-linecap="round" d="M 296.950 199.450 C 296.299 201.100 295.529 202.309 295 203.600 C 294.696 204.341 294.487 205.124 294.150 205.850 C 293.836 206.526 293.416 207.151 293.050 207.800 C 292.684 208.449 292.004 209.006 291.950 209.750 C 291.894 210.528 292.228 211.371 292.750 211.950 C 293.224 212.476 294.024 212.587 294.700 212.800 C 295.513 213.056 296.394 213.073 297.200 213.350 C 298.534 213.808 299.705 214.797 301.100 215 C 301.795 215.101 302.507 214.645 303.050 214.200 C 303.571 213.773 303.858 213.108 304.150 212.500 C 305.060 210.604 305.562 208.500 306.650 206.700 C 307.003 206.115 307.770 205.912 308.350 205.550 C 308.970 205.163 309.677 204.904 310.250 204.450 C 310.970 203.880 311.872 203.358 312.200 202.500 C 312.499 201.718 312.227 200.789 311.950 200 C 311.662 199.181 311.019 198.531 310.550 197.800 C 310.186 197.232 309.927 196.577 309.450 196.100 C 308.973 195.623 308.411 195.135 307.750 195 C 307.026 194.851 306.200 194.948 305.550 195.300 C 304.916 195.643 304.868 197.014 304.150 196.950 C 303.235 196.868 302.951 195.529 302.200 195 C 301.626 194.596 300.950 194.145 300.250 194.200 C 299.521 194.257 298.908 194.827 298.350 195.300 C 297.693 195.857 296.957 196.445 296.650 197.250 C 296.353 198.028 296.859 198.944 296.650 199.750 Z " transform="matrix(1, 0, 0, 1, -197.15, -177.05)"/>
  <path id="ID0.8305870303884149" fill="none" stroke="#7F00FF" stroke-width="2" stroke-linecap="round" d="M 297.200 183.900 L 297.500 184.200 " transform="matrix(1, 0, 0, 1, -197.15, -177.05)"/>
  <path id="ID0.42248405143618584" fill="none" stroke="#7F00FF" stroke-width="2" stroke-linecap="round" d="M 318.050 193.050 L 318.350 193.350 " transform="matrix(1, 0, 0, 1, -197.15, -177.05)"/>
  <path id="ID0.4725553123280406" fill="none" stroke="#7F00FF" stroke-width="2" stroke-linecap="round" d="M 275.550 205.550 L 275.850 205.850 " transform="matrix(1, 0, 0, 1, -197.15, -177.05)"/>
  <path id="ID0.8233923525549471" fill="none" stroke="#7F00FF" stroke-width="2" stroke-linecap="round" d="M 280.250 194.200 L 280.550 194.500 " transform="matrix(1, 0, 0, 1, -197.15, -177.05)"/>
  <path id="ID0.24063042271882296" fill="none" stroke="#7F00FF" stroke-width="2" stroke-linecap="round" d="M 316.100 213.050 L 316.400 213.350 " transform="matrix(1, 0, 0, 1, -197.15, -177.05)"/>
  <path id="ID0.35411326168105006" fill="none" stroke="#7F00FF" stroke-width="2" stroke-linecap="round" d="M 291.950 222.500 L 292.250 222.800 " transform="matrix(1, 0, 0, 1, -197.15, -177.05)"/>
  <path id="ID0.2819539625197649" fill="none" stroke="#7F00FF" stroke-width="2" stroke-linecap="round" d="M 321.950 203.900 L 322.250 204.200 " transform="matrix(1, 0, 0, 1, -197.15, -177.05)"/>
  <path id="ID0.5271869120188057" fill="none" stroke="#7F00FF" stroke-width="2" stroke-linecap="round" d="M 288.350 186.700 L 288.650 187 " transform="matrix(1, 0, 0, 1, -197.15, -177.05)"/>
  <path id="ID0.003341877367347479" fill="none" stroke="#7F00FF" stroke-width="2" stroke-linecap="round" d="M 308.350 221.400 L 308.650 221.700 " transform="matrix(1, 0, 0, 1, -197.15, -177.05)"/>
  <path id="ID0.759892538189888" fill="none" stroke="#7F00FF" stroke-width="2" stroke-linecap="round" d="M 311.100 185.300 L 311.400 185.600 " transform="matrix(1, 0, 0, 1, -197.15, -177.05)"/>
  <path id="ID0.784277809318155" fill="none" stroke="#7F00FF" stroke-width="2" stroke-linecap="round" d="M 280.850 213.600 L 281.150 213.900 " transform="matrix(1, 0, 0, 1, -197.15, -177.05)"/>
  <g id="ID0.828434064052999" transform="matrix(0.974120020866394, 0.22603149712085724, -0.22603149712085724, 0.974120020866394, 6.8, -9.25)">
    <path id="ID0.2175996652804315" fill="#CC7700" stroke="#663B00" stroke-width="2" stroke-linecap="round" d="M 225.500 172.350 C 225.520 173.169 225.628 173.933 225.500 174.700 C 225.329 175.658 225.019 176.491 224.900 177.400 C 224.748 178.226 224.917 179.124 224.900 180 C 224.705 181.243 224.247 182.451 224.250 183.750 C 224.217 184.720 223.883 185.912 224.600 186.650 C 225.133 187.200 226.156 186.592 226.900 186.600 C 227.565 186.601 228.200 186.600 228.900 186.600 C 229.700 186.600 230.550 186.500 231.400 186.600 C 232.050 186.600 232.700 186.800 233.400 186.800 C 234.200 186.800 235.050 186.900 235.900 186.800 C 237.500 186.700 239.100 186.400 240.750 186.300 C 242.800 186.200 244.900 186.200 247 186.500 C 249.050 186.700 251 187.800 253.100 187.800 C 253.800 187.800 254.600 187.100 254.900 186.500 C 255.400 185.200 255.150 183.700 255.250 182.300 C 255.300 180.900 255.250 179.500 255.250 178.200 C 255.250 177.500 255.200 176.800 255.250 176.200 C 255.400 173.500 255.750 170.800 255.900 168.200 C 255.950 166.800 255.700 165.500 255.900 164.200 C 255.950 163.400 256.200 162.700 256.600 162.200 C 257.300 161 258.450 160.100 259.250 159 C 259.600 158.400 259.750 157.700 259.900 157.100 C 260.050 156.200 260.250 154.500 260.250 154.500 C 260.250 154 260.100 152.550 260.100 151.850 C 260.050 151.150 260.150 150.500 260.100 149.850 C 260 149.150 259.800 148.450 259.600 147.850 C 259.350 147.200 259.100 146.550 258.750 146 C 257.900 144.850 257 143.800 256 142.850 C 255.450 142.350 254.850 142 254.250 141.700 C 253.550 141.300 252.800 141.150 252.100 140.850 C 251.450 140.550 250.900 140.150 250.250 140 C 249.600 139.800 248.900 139.750 248.250 139.850 C 247.450 139.950 246.750 140.250 246.100 140.600 C 245.450 140.850 244.900 141.300 244.400 141.700 C 243.800 142.100 243.400 142.950 242.750 143 C 242.050 143 241.550 142.300 241.100 141.850 C 240.600 141.350 240.550 140.550 240.100 140.100 C 239.550 139.550 238.900 139.150 238.250 138.850 C 237.600 138.500 236.900 138.250 236.250 138.100 C 235.550 137.900 234.900 137.600 234.250 137.700 C 233.450 137.750 232.700 138.150 232 138.500 C 231.350 138.750 230.800 139.100 230.250 139.500 C 229.650 139.900 229.100 140.300 228.600 140.850 C 228.050 141.350 227.600 141.900 227.250 142.500 C 226.800 143.100 226.550 143.800 226.250 144.500 C 225.950 145.100 225.646 145.719 225.400 146.350 C 225.128 147.051 224.760 147.861 224.600 148.700 C 224.491 149.764 224.616 150.829 224.600 152 C 224.584 153.166 224.660 154.337 224.600 155.500 C 224.569 156.095 224.532 156.636 224.500 157.200 C 224.435 157.854 224.388 158.472 224.500 159.100 C 224.524 160.029 224.818 161.351 224.900 161.850 C 224.951 162.086 224.594 160.487 224.600 160.750 C 224.618 161.350 224.958 162.779 225 163.750 C 225.041 168.609 225.422 169.534 225.500 172.350 Z " transform="matrix(-0.8162464499473572, 0, 0, 0.8162464499473572, 251.25, -109.6)"/>
    <path id="ID0.2175996652804315" fill="#CC7700" stroke="#663B00" stroke-width="2" stroke-linecap="round" d="M 225.500 172.350 C 225.520 173.169 225.628 173.933 225.500 174.700 C 225.329 175.658 225.019 176.491 224.900 177.400 C 224.748 178.226 224.917 179.124 224.900 180 C 224.705 181.243 224.247 182.451 224.250 183.750 C 224.217 184.720 223.883 185.912 224.600 186.650 C 225.133 187.200 226.156 186.592 226.900 186.600 C 227.565 186.601 228.200 186.600 228.900 186.600 C 229.700 186.600 230.550 186.500 231.400 186.600 C 232.050 186.600 232.700 186.800 233.400 186.800 C 234.200 186.800 235.050 186.900 235.900 186.800 C 237.500 186.700 239.100 186.400 240.750 186.300 C 242.800 186.200 244.900 186.200 247 186.500 C 249.050 186.700 251 187.800 253.100 187.800 C 253.800 187.800 254.600 187.100 254.900 186.500 C 255.400 185.200 255.150 183.700 255.250 182.300 C 255.300 180.900 255.250 179.500 255.250 178.200 C 255.250 177.500 255.200 176.800 255.250 176.200 C 255.400 173.500 255.750 170.800 255.900 168.200 C 255.950 166.800 255.700 165.500 255.900 164.200 C 255.950 163.400 256.200 162.700 256.600 162.200 C 257.300 161 258.450 160.100 259.250 159 C 259.600 158.400 259.750 157.700 259.900 157.100 C 260.050 156.200 260.250 154.500 260.250 154.500 C 260.250 154 260.100 152.550 260.100 151.850 C 260.050 151.150 260.150 150.500 260.100 149.850 C 260 149.150 259.800 148.450 259.600 147.850 C 259.350 147.200 259.100 146.550 258.750 146 C 257.900 144.850 257 143.800 256 142.850 C 255.450 142.350 254.850 142 254.250 141.700 C 253.550 141.300 252.800 141.150 252.100 140.850 C 251.450 140.550 250.900 140.150 250.250 140 C 249.600 139.800 248.900 139.750 248.250 139.850 C 247.450 139.950 246.750 140.250 246.100 140.600 C 245.450 140.850 244.900 141.300 244.400 141.700 C 243.800 142.100 243.400 142.950 242.750 143 C 242.050 143 241.550 142.300 241.100 141.850 C 240.600 141.350 240.550 140.550 240.100 140.100 C 239.550 139.550 238.900 139.150 238.250 138.850 C 237.600 138.500 236.900 138.250 236.250 138.100 C 235.550 137.900 234.900 137.600 234.250 137.700 C 233.450 137.750 232.700 138.150 232 138.500 C 231.350 138.750 230.800 139.100 230.250 139.500 C 229.650 139.900 229.100 140.300 228.600 140.850 C 228.050 141.350 227.600 141.900 227.250 142.500 C 226.800 143.100 226.550 143.800 226.250 144.500 C 225.950 145.100 225.646 145.719 225.400 146.350 C 225.128 147.051 224.760 147.861 224.600 148.700 C 224.491 149.764 224.616 150.829 224.600 152 C 224.584 153.166 224.660 154.337 224.600 155.500 C 224.569 156.095 224.532 156.636 224.500 157.200 C 224.435 157.854 224.388 158.472 224.500 159.100 C 224.524 160.029 224.818 161.351 224.900 161.850 C 224.951 162.086 224.594 160.487 224.600 160.750 C 224.618 161.350 224.958 162.779 225 163.750 C 225.041 168.609 225.422 169.534 225.500 172.350 Z " transform="matrix(-0.8162464499473572, 0, 0, 0.8162464499473572, 253.35, -111.2)"/>
    <path id="ID0.50003443332389" fill="#FFFFFF" stroke="#000000" stroke-width="2" d="M 227.875 148 C 228.599 148 229.255 148.266 229.731 148.696 C 230.206 149.126 230.500 149.720 230.500 150.375 C 230.500 151.030 230.206 151.624 229.731 152.054 C 229.255 152.484 228.599 152.750 227.875 152.750 C 227.151 152.750 226.495 152.484 226.019 152.054 C 225.544 151.624 225.250 151.030 225.250 150.375 C 225.250 149.720 225.544 149.126 226.019 148.696 C 226.495 148.266 227.151 148 227.875 148 Z " transform="matrix(-0.8162464499473572, 0, 0, 0.8162464499473572, 251.25, -109.6)"/>
    <path id="ID0.50003443332389" fill="#FFFFFF" stroke="#000000" stroke-width="2" d="M 227.875 148 C 228.599 148 229.255 148.266 229.731 148.696 C 230.206 149.126 230.500 149.720 230.500 150.375 C 230.500 151.030 230.206 151.624 229.731 152.054 C 229.255 152.484 228.599 152.750 227.875 152.750 C 227.151 152.750 226.495 152.484 226.019 152.054 C 225.544 151.624 225.250 151.030 225.250 150.375 C 225.250 149.720 225.544 149.126 226.019 148.696 C 226.495 148.266 227.151 148 227.875 148 Z " transform="matrix(-0.8162464499473572, 0, 0, 0.8162464499473572, 235.6, -108.4)"/>
    <path id="ID0.9616830768063664" fill="#FF0000" stroke="#000000" stroke-width="2" stroke-linecap="round" d="M 228.750 167.250 C 228.418 168.512 228.409 169.872 229 171 C 229.386 171.737 230.255 172.128 231 172.500 C 231.614 172.807 232.314 173 233 173 C 233.686 173 234.404 172.841 235 172.500 C 235.613 172.150 236.069 171.560 236.500 171 C 236.909 170.468 237.300 169.891 237.500 169.250 C 237.725 168.530 238.047 167.693 237.750 167 C 237.468 166.342 236.685 165.959 236 165.750 C 234.716 165.359 233.342 165.250 232 165.250 C 231.314 165.250 230.596 165.409 230 165.750 C 229.387 166.100 229.036 166.790 228.500 167.250 C 228.366 167.365 228.208 166.934 228.250 167.250 Z " transform="matrix(-0.8162464499473572, 0, 0, 0.8162464499473572, 251.25, -109.6)"/>
    <path id="ID0.6713176881894469" fill="none" stroke="#000000" stroke-width="2" stroke-linecap="round" d="M 234 164.750 C 234 164.750 234.493 166.355 235 167 C 235.442 167.563 236.136 167.882 236.750 168.250 C 237.388 168.633 238.016 169.378 238.750 169.250 C 240.144 169.008 241.306 168.010 242.500 167.250 C 243.148 166.838 243.729 166.314 244.250 165.750 C 244.736 165.224 245.084 164.583 245.500 164 C 245.604 163.854 245.500 164 245.500 164 " transform="matrix(-0.8162464499473572, 0, 0, 0.8162464499473572, 251.25, -109.6)"/>
    <path id="ID0.538668405264616" fill="none" stroke="#000000" stroke-width="2" stroke-linecap="round" d="M 224.500 158.750 C 224.500 158.750 225.402 160.556 225.750 161.500 C 225.987 162.144 226.001 162.860 226.250 163.500 C 226.587 164.367 226.894 165.293 227.500 166 C 227.937 166.510 228.592 166.868 229.250 167 C 229.908 167.132 230.627 166.999 231.250 166.750 C 231.915 166.484 232.437 165.942 233 165.500 C 233.604 165.026 234.276 164.604 234.750 164 C 235.210 163.414 235.312 162.602 235.750 162 C 235.995 161.663 236.750 161.250 236.750 161.250 " transform="matrix(-0.8162464499473572, 0, 0, 0.8162464499473572, 251.25, -109.6)"/>
    <path id="ID0.8349651619791985" fill="none" stroke="#000000" stroke-width="2" stroke-linecap="round" d="M 254.250 168.750 C 254.250 168.750 256.269 168.796 257.250 169 C 258.281 169.215 259.241 169.697 260.250 170 C 260.908 170.197 261.575 170.373 262.250 170.500 C 262.910 170.624 263.592 170.882 264.250 170.750 C 264.908 170.618 265.392 170.034 266 169.750 C 266.645 169.449 267.334 169.250 268 169 C 268.666 168.750 269.348 168.535 270 168.250 C 270.682 167.952 271.362 167.633 272 167.250 C 272.614 166.882 273.136 166.368 273.750 166 C 274.388 165.617 275.036 165.210 275.750 165 C 276.473 164.787 277.255 164.632 278 164.750 C 278.886 164.890 279.681 165.386 280.500 165.750 C 281.180 166.052 281.894 166.317 282.500 166.750 C 283.075 167.161 283.451 167.806 284 168.250 C 285.204 169.224 286.353 170.332 287.750 171 C 288.351 171.287 289.085 170.973 289.750 171 C 291.167 171.057 292.591 171.403 294 171.250 C 296.451 170.984 298.835 170.245 301.250 169.750 C 302.082 169.579 302.921 169.434 303.750 169.250 C 304.420 169.101 305.088 168.931 305.750 168.750 C 306.004 168.681 306.500 168.500 306.500 168.500 " transform="matrix(-0.8162464499473572, 0, 0, 0.8162464499473572, 251.25, -109.6)"/>
    <path id="ID0.5208532242104411" fill="none" stroke="#000000" stroke-width="2" stroke-linecap="round" d="M 222.750 167.250 C 222.750 167.250 221.253 167.599 220.500 167.750 C 219.587 167.933 218.633 167.956 217.750 168.250 C 217.113 168.462 216.625 169.005 216 169.250 C 214.700 169.759 213.377 170.271 212 170.500 C 211.338 170.610 210.583 170.583 210 170.250 C 209.334 169.869 208.974 169.104 208.500 168.500 C 208.058 167.937 207.736 167.276 207.250 166.750 C 206.729 166.186 206.213 165.535 205.500 165.250 C 204.882 165.003 204.155 165.127 203.500 165.250 C 202.801 165.381 202.179 165.788 201.500 166 C 200.845 166.205 200.182 166.420 199.500 166.500 C 198.756 166.588 197.999 166.500 197.250 166.500 C 196.584 166.500 195.915 166.535 195.250 166.500 C 194.332 166.452 193.409 166.386 192.500 166.250 C 191.741 166.136 190.997 165.926 190.250 165.750 C 189.582 165.593 188.758 165.712 188.250 165.250 C 187.724 164.772 187.709 163.930 187.500 163.250 C 187.375 162.844 187.250 162 187.250 162 " transform="matrix(-0.8162464499473572, 0, 0, 0.8162464499473572, 251.25, -109.6)"/>
  </g>
</svg>