<svg version="1.1" width="99" height="66" viewBox="2 0 99 66" xmlns="http://www.w3.org/2000/svg" xmlns:xlink="http://www.w3.org/1999/xlink">
  <defs>
    <linearGradient id="grad_1" y2="1">
      <stop offset="0" stop-color="#FFFF00" stop-opacity="1"/>
      <stop offset="1" stop-color="#FFFF00" stop-opacity="0"/>
    </linearGradient>
    <linearGradient id="grad_2" y2="1">
      <stop offset="0" stop-color="#FFFF00" stop-opacity="1"/>
      <stop offset="1" stop-color="#FFFF00" stop-opacity="0"/>
    </linearGradient>
  </defs>
  <!-- Exported by Scratch - http://scratch.mit.edu/ -->
  <path id="ID0.5951664317399263" fill="url(#grad_1)" stroke="url(#grad_2)" stroke-width="2" stroke-linecap="round" d="M 293.600 161.400 L 272.200 143.600 L 273.050 127.800 L 281.950 141.400 L 296.400 130.850 L 296.400 152.250 L 310.550 154.750 L 293.600 161.400 Z " transform="matrix(0.711589515209198, 0.7025954723358154, -0.7025954723358154, 0.711589515209198, -19.25, -280.25)"/>
  <path id="ID0.8365832129493356" fill="none" stroke="#666666" stroke-width="2" stroke-linecap="round" d="M 177.350 190 " transform="matrix(1, 0, 0, 1, -363, -172)"/>
  <path id="ID0.8365832129493356" fill="none" stroke="#666666" stroke-width="2" stroke-linecap="round" d="M 177.350 190 " transform="matrix(1, 0, 0, 1, -521, -238)"/>
  <path id="ID0.8365832129493356" fill="none" stroke="#666666" stroke-width="2" stroke-linecap="round" d="M 177.350 190 " transform="matrix(1, 0, 0, 1, -482, -79)"/>
  <path id="ID0.8365832129493356" fill="none" stroke="#666666" stroke-width="2" stroke-linecap="round" d="M 177.350 190 " transform="matrix(1, 0, 0, 1, -367, -282)"/>
  <path id="ID0.2175996652804315" fill="#CC7700" stroke="#663B00" stroke-width="2" stroke-linecap="round" d="M 225.500 172.350 C 225.520 173.169 225.628 173.933 225.500 174.700 C 225.329 175.658 225.019 176.491 224.900 177.400 C 224.748 178.226 224.917 179.124 224.900 180 C 224.705 181.243 224.247 182.451 224.250 183.750 C 224.217 184.720 223.883 185.912 224.600 186.650 C 225.133 187.200 226.156 186.592 226.900 186.600 C 227.565 186.601 228.200 186.600 228.900 186.600 C 229.700 186.600 230.550 186.500 231.400 186.600 C 232.050 186.600 232.700 186.800 233.400 186.800 C 234.200 186.800 235.050 186.900 235.900 186.800 C 237.500 186.700 239.100 186.400 240.750 186.300 C 242.800 186.200 244.900 186.200 247 186.500 C 249.050 186.700 251 187.800 253.100 187.800 C 253.800 187.800 254.600 187.100 254.900 186.500 C 255.400 185.200 255.150 183.700 255.250 182.300 C 255.300 180.900 255.250 179.500 255.250 178.200 C 255.250 177.500 255.200 176.800 255.250 176.200 C 255.400 173.500 255.750 170.800 255.900 168.200 C 255.950 166.800 255.700 165.500 255.900 164.200 C 255.950 163.400 256.200 162.700 256.600 162.200 C 257.300 161 258.450 160.100 259.250 159 C 259.600 158.400 259.750 157.700 259.900 157.100 C 260.050 156.200 260.250 154.500 260.250 154.500 C 260.250 154 260.100 152.550 260.100 151.850 C 260.050 151.150 260.150 150.500 260.100 149.850 C 260 149.150 259.800 148.450 259.600 147.850 C 259.350 147.200 259.100 146.550 258.750 146 C 257.900 144.850 257 143.800 256 142.850 C 255.450 142.350 254.850 142 254.250 141.700 C 253.550 141.300 252.800 141.150 252.100 140.850 C 251.450 140.550 250.900 140.150 250.250 140 C 249.600 139.800 248.900 139.750 248.250 139.850 C 247.450 139.950 246.750 140.250 246.100 140.600 C 245.450 140.850 244.900 141.300 244.400 141.700 C 243.800 142.100 243.400 142.950 242.750 143 C 242.050 143 241.550 142.300 241.100 141.850 C 240.600 141.350 240.550 140.550 240.100 140.100 C 239.550 139.550 238.900 139.150 238.250 138.850 C 237.600 138.500 236.900 138.250 236.250 138.100 C 235.550 137.900 234.900 137.600 234.250 137.700 C 233.450 137.750 232.700 138.150 232 138.500 C 231.350 138.750 230.800 139.100 230.250 139.500 C 229.650 139.900 229.100 140.300 228.600 140.850 C 228.050 141.350 227.600 141.900 227.250 142.500 C 226.800 143.100 226.550 143.800 226.250 144.500 C 225.950 145.100 225.646 145.719 225.400 146.350 C 225.128 147.051 224.760 147.861 224.600 148.700 C 224.491 149.764 224.616 150.829 224.600 152 C 224.584 153.166 224.660 154.337 224.600 155.500 C 224.569 156.095 224.532 156.636 224.500 157.200 C 224.435 157.854 224.388 158.472 224.500 159.100 C 224.524 160.029 224.818 161.351 224.900 161.850 C 224.951 162.086 224.594 160.487 224.600 160.750 C 224.618 161.350 224.958 162.779 225 163.750 C 225.041 168.609 225.422 169.534 225.500 172.350 Z " transform="matrix(-0.7696908116340637, 0.27172476053237915, 0.27172476053237915, 0.7696908116340637, 164.75, -149.15)"/>
  <path id="ID0.2175996652804315" fill="#CC7700" stroke="#663B00" stroke-width="2" stroke-linecap="round" d="M 225.500 172.350 C 225.520 173.169 225.628 173.933 225.500 174.700 C 225.329 175.658 225.019 176.491 224.900 177.400 C 224.748 178.226 224.917 179.124 224.900 180 C 224.705 181.243 224.247 182.451 224.250 183.750 C 224.217 184.720 223.883 185.912 224.600 186.650 C 225.133 187.200 226.156 186.592 226.900 186.600 C 227.565 186.601 228.200 186.600 228.900 186.600 C 229.700 186.600 230.550 186.500 231.400 186.600 C 232.050 186.600 232.700 186.800 233.400 186.800 C 234.200 186.800 235.050 186.900 235.900 186.800 C 237.500 186.700 239.100 186.400 240.750 186.300 C 242.800 186.200 244.900 186.200 247 186.500 C 249.050 186.700 251 187.800 253.100 187.800 C 253.800 187.800 254.600 187.100 254.900 186.500 C 255.400 185.200 255.150 183.700 255.250 182.300 C 255.300 180.900 255.250 179.500 255.250 178.200 C 255.250 177.500 255.200 176.800 255.250 176.200 C 255.400 173.500 255.750 170.800 255.900 168.200 C 255.950 166.800 255.700 165.500 255.900 164.200 C 255.950 163.400 256.200 162.700 256.600 162.200 C 257.300 161 258.450 160.100 259.250 159 C 259.600 158.400 259.750 157.700 259.900 157.100 C 260.050 156.200 260.250 154.500 260.250 154.500 C 260.250 154 260.100 152.550 260.100 151.850 C 260.050 151.150 260.150 150.500 260.100 149.850 C 260 149.150 259.800 148.450 259.600 147.850 C 259.350 147.200 259.100 146.550 258.750 146 C 257.900 144.850 257 143.800 256 142.850 C 255.450 142.350 254.850 142 254.250 141.700 C 253.550 141.300 252.800 141.150 252.100 140.850 C 251.450 140.550 250.900 140.150 250.250 140 C 249.600 139.800 248.900 139.750 248.250 139.850 C 247.450 139.950 246.750 140.250 246.100 140.600 C 245.450 140.850 244.900 141.300 244.400 141.700 C 243.800 142.100 243.400 142.950 242.750 143 C 242.050 143 241.550 142.300 241.100 141.850 C 240.600 141.350 240.550 140.550 240.100 140.100 C 239.550 139.550 238.900 139.150 238.250 138.850 C 237.600 138.500 236.900 138.250 236.250 138.100 C 235.550 137.900 234.900 137.600 234.250 137.700 C 233.450 137.750 232.700 138.150 232 138.500 C 231.350 138.750 230.800 139.100 230.250 139.500 C 229.650 139.900 229.100 140.300 228.600 140.850 C 228.050 141.350 227.600 141.900 227.250 142.500 C 226.800 143.100 226.550 143.800 226.250 144.500 C 225.950 145.100 225.646 145.719 225.400 146.350 C 225.128 147.051 224.760 147.861 224.600 148.700 C 224.491 149.764 224.616 150.829 224.600 152 C 224.584 153.166 224.660 154.337 224.600 155.500 C 224.569 156.095 224.532 156.636 224.500 157.200 C 224.435 157.854 224.388 158.472 224.500 159.100 C 224.524 160.029 224.818 161.351 224.900 161.850 C 224.951 162.086 224.594 160.487 224.600 160.750 C 224.618 161.350 224.958 162.779 225 163.750 C 225.041 168.609 225.422 169.534 225.500 172.350 Z " transform="matrix(-0.7696908116340637, 0.27172476053237915, 0.27172476053237915, 0.7696908116340637, 166.2, -151.3)"/>
  <path id="ID0.50003443332389" fill="#FFFFFF" stroke="#000000" stroke-width="2" d="M 227.875 148 C 228.599 148 229.255 148.266 229.731 148.696 C 230.206 149.126 230.500 149.720 230.500 150.375 C 230.500 151.030 230.206 151.624 229.731 152.054 C 229.255 152.484 228.599 152.750 227.875 152.750 C 227.151 152.750 226.495 152.484 226.019 152.054 C 225.544 151.624 225.250 151.030 225.250 150.375 C 225.250 149.720 225.544 149.126 226.019 148.696 C 226.495 148.266 227.151 148 227.875 148 Z " transform="matrix(-0.7696908116340637, 0.27172476053237915, 0.27172476053237915, 0.7696908116340637, 164.75, -149.15)"/>
  <path id="ID0.50003443332389" fill="#FFFFFF" stroke="#000000" stroke-width="2" d="M 227.875 148 C 228.599 148 229.255 148.266 229.731 148.696 C 230.206 149.126 230.500 149.720 230.500 150.375 C 230.500 151.030 230.206 151.624 229.731 152.054 C 229.255 152.484 228.599 152.750 227.875 152.750 C 227.151 152.750 226.495 152.484 226.019 152.054 C 225.544 151.624 225.250 151.030 225.250 150.375 C 225.250 149.720 225.544 149.126 226.019 148.696 C 226.495 148.266 227.151 148 227.875 148 Z " transform="matrix(-0.7696908116340637, 0.27172476053237915, 0.27172476053237915, 0.7696908116340637, 150.35, -142.8)"/>
  <path id="ID0.9616830768063664" fill="#FF0000" stroke="#000000" stroke-width="2" stroke-linecap="round" d="M 228.750 167.250 C 228.418 168.512 228.409 169.872 229 171 C 229.386 171.737 230.255 172.128 231 172.500 C 231.614 172.807 232.314 173 233 173 C 233.686 173 234.404 172.841 235 172.500 C 235.613 172.150 236.069 171.560 236.500 171 C 236.909 170.468 237.300 169.891 237.500 169.250 C 237.725 168.530 238.047 167.693 237.750 167 C 237.468 166.342 236.685 165.959 236 165.750 C 234.716 165.359 233.342 165.250 232 165.250 C 231.314 165.250 230.596 165.409 230 165.750 C 229.387 166.100 229.036 166.790 228.500 167.250 C 228.366 167.365 228.208 166.934 228.250 167.250 Z " transform="matrix(-0.7696908116340637, 0.27172476053237915, 0.27172476053237915, 0.7696908116340637, 164.75, -149.15)"/>
  <path id="ID0.6713176881894469" fill="none" stroke="#000000" stroke-width="2" stroke-linecap="round" d="M 234 164.750 C 234 164.750 234.493 166.355 235 167 C 235.442 167.563 236.136 167.882 236.750 168.250 C 237.388 168.633 238.016 169.378 238.750 169.250 C 240.144 169.008 241.306 168.010 242.500 167.250 C 243.148 166.838 243.729 166.314 244.250 165.750 C 244.736 165.224 245.084 164.583 245.500 164 C 245.604 163.854 245.500 164 245.500 164 " transform="matrix(-0.7696908116340637, 0.27172476053237915, 0.27172476053237915, 0.7696908116340637, 164.75, -149.15)"/>
  <path id="ID0.538668405264616" fill="none" stroke="#000000" stroke-width="2" stroke-linecap="round" d="M 224.500 158.750 C 224.500 158.750 225.402 160.556 225.750 161.500 C 225.987 162.144 226.001 162.860 226.250 163.500 C 226.587 164.367 226.894 165.293 227.500 166 C 227.937 166.510 228.592 166.868 229.250 167 C 229.908 167.132 230.627 166.999 231.250 166.750 C 231.915 166.484 232.437 165.942 233 165.500 C 233.604 165.026 234.276 164.604 234.750 164 C 235.210 163.414 235.312 162.602 235.750 162 C 235.995 161.663 236.750 161.250 236.750 161.250 " transform="matrix(-0.7696908116340637, 0.27172476053237915, 0.27172476053237915, 0.7696908116340637, 164.75, -149.15)"/>
  <path id="ID0.8349651619791985" fill="none" stroke="#000000" stroke-width="2" stroke-linecap="round" d="M 254.250 168.750 C 254.250 168.750 256.269 168.796 257.250 169 C 258.281 169.215 259.241 169.697 260.250 170 C 260.908 170.197 261.575 170.373 262.250 170.500 C 262.910 170.624 263.592 170.882 264.250 170.750 C 264.908 170.618 265.392 170.034 266 169.750 C 266.645 169.449 267.334 169.250 268 169 C 268.666 168.750 269.348 168.535 270 168.250 C 270.682 167.952 271.362 167.633 272 167.250 C 272.614 166.882 273.136 166.368 273.750 166 C 274.388 165.617 275.036 165.210 275.750 165 C 276.473 164.787 277.255 164.632 278 164.750 C 278.886 164.890 279.681 165.386 280.500 165.750 C 281.180 166.052 281.894 166.317 282.500 166.750 C 283.075 167.161 283.451 167.806 284 168.250 C 285.204 169.224 286.353 170.332 287.750 171 C 288.351 171.287 289.085 170.973 289.750 171 C 291.167 171.057 292.591 171.403 294 171.250 C 296.451 170.984 298.835 170.245 301.250 169.750 C 302.082 169.579 302.921 169.434 303.750 169.250 C 304.420 169.101 305.088 168.931 305.750 168.750 C 306.004 168.681 306.500 168.500 306.500 168.500 " transform="matrix(0.8060650825500488, 0.12851980328559875, -0.12851980328559875, 0.8060650825500488, -170.45, -120)"/>
  <path id="ID0.5208532242104411" fill="none" stroke="#000000" stroke-width="2" stroke-linecap="round" d="M 222.750 167.250 C 222.750 167.250 221.253 167.599 220.500 167.750 C 219.587 167.933 218.633 167.956 217.750 168.250 C 217.113 168.462 216.625 169.005 216 169.250 C 214.700 169.759 213.377 170.271 212 170.500 C 211.338 170.610 210.583 170.583 210 170.250 C 209.334 169.869 208.974 169.104 208.500 168.500 C 208.058 167.937 207.736 167.276 207.250 166.750 C 206.729 166.186 206.213 165.535 205.500 165.250 C 204.882 165.003 204.155 165.127 203.500 165.250 C 202.801 165.381 202.179 165.788 201.500 166 C 200.845 166.205 200.182 166.420 199.500 166.500 C 198.756 166.588 197.999 166.500 197.250 166.500 C 196.584 166.500 195.915 166.535 195.250 166.500 C 194.332 166.452 193.409 166.386 192.500 166.250 C 191.741 166.136 190.997 165.926 190.250 165.750 C 189.582 165.593 188.758 165.712 188.250 165.250 C 187.724 164.772 187.709 163.930 187.500 163.250 C 187.375 162.844 187.250 162 187.250 162 " transform="matrix(-0.7696908116340637, 0.27172476053237915, 0.27172476053237915, 0.7696908116340637, 164.75, -149.15)"/>
  <path id="ID0.8365832129493356" fill="none" stroke="#666666" stroke-width="2" stroke-linecap="round" d="M 177.350 190 " transform="matrix(1, 0, 0, 1, -176, -31)"/>
  <path id="ID0.8365832129493356" fill="none" stroke="#666666" stroke-width="2" stroke-linecap="round" d="M 177.350 190 " transform="matrix(1, 0, 0, 1, -361, -109)"/>
  <path id="ID0.8365832129493356" fill="none" stroke="#666666" stroke-width="2" stroke-linecap="round" d="M 177.350 190 " transform="matrix(1, 0, 0, 1, -162, -39)"/>
  <path id="ID0.8365832129493356" fill="none" stroke="#666666" stroke-width="2" stroke-linecap="round" d="M 177.350 190 " transform="matrix(1, 0, 0, 1, -373, -29)"/>
  <g id="ID0.35447443975135684" transform="matrix(1, 0, 0, 1, 0, -7)">
    <path id="ID0.2186891157180071" fill="#FFD499" stroke="#E6CD86" stroke-width="2" stroke-linecap="round" d="M 183.900 144.200 C 182.925 145.300 182.243 145.529 181.650 145.850 C 181.016 146.193 180.457 146.693 180 147.250 C 179.527 147.826 179.082 148.477 178.900 149.200 C 178.424 151.093 177.773 153.068 178.050 155 C 178.250 156.391 179.417 157.468 180.250 158.600 C 180.724 159.245 181.362 159.756 181.950 160.300 C 182.479 160.789 183.600 161.007 183.600 161.700 C 183.600 162.382 182.425 162.523 181.950 163.050 C 181.498 163.551 181.282 164.233 180.850 164.750 C 180.344 165.355 179.485 165.686 179.150 166.400 C 178.794 167.157 178.900 168.063 178.900 168.900 C 178.900 169.737 178.841 170.623 179.150 171.400 C 179.416 172.070 180.065 172.517 180.550 173.050 C 181.081 173.633 181.595 174.244 182.200 174.750 C 182.717 175.182 183.305 175.532 183.900 175.850 C 184.525 176.184 185.147 176.613 185.850 176.700 C 186.682 176.803 187.568 176.702 188.350 176.400 C 189.083 176.117 189.673 175.533 190.250 175 C 190.779 174.511 191.184 173.899 191.650 173.350 C 192.116 172.801 192.707 172.334 193.050 171.700 C 193.371 171.107 193.466 170.411 193.600 169.750 C 193.750 169.009 193.945 168.255 193.900 167.500 C 193.860 166.827 193.620 166.168 193.350 165.550 C 193.049 164.859 192.688 164.175 192.200 163.600 C 191.741 163.059 190.550 162.960 190.550 162.250 C 190.550 161.461 191.754 161.201 192.200 160.550 C 192.600 159.966 192.824 159.271 193.050 158.600 C 193.291 157.884 193.549 157.153 193.600 156.400 C 193.650 155.664 193.586 154.899 193.350 154.200 C 193.109 153.486 192.537 152.924 192.200 152.250 C 191.886 151.622 191.797 150.879 191.400 150.300 C 190.948 149.639 190.284 149.147 189.700 148.600 C 188.702 147.665 187.853 146.501 186.650 145.850 C 185.742 145.359 184.632 145.300 183.600 145.300 Z " transform="matrix(1, 0, 0, 1, -117.85, -124.35)"/>
    <path id="ID0.12265920173376799" fill="none" stroke="#E6CD86" stroke-width="2" stroke-linecap="round" d="M 178.600 152.800 C 178.600 152.800 180.618 153.406 181.650 153.600 C 182.572 153.773 183.514 153.847 184.450 153.900 C 185.281 153.947 186.124 154.002 186.950 153.900 C 187.620 153.817 188.265 153.578 188.900 153.350 C 189.567 153.111 190.850 152.500 190.850 152.500 " transform="matrix(1, 0, 0, 1, -117.85, -124.35)"/>
    <path id="ID0.04314426006749272" fill="none" stroke="#E6CD86" stroke-width="2" stroke-linecap="round" d="M 181.650 158.900 C 181.650 158.900 184.009 159.826 185.250 160 C 187.363 160.296 191.650 160.300 191.650 160.300 " transform="matrix(1, 0, 0, 1, -117.85, -124.35)"/>
    <path id="ID0.6701030004769564" fill="none" stroke="#E6CD86" stroke-width="2" stroke-linecap="round" d="M 179.150 166.700 C 179.150 166.700 180.818 166.864 181.650 166.950 C 182.583 167.047 183.513 167.202 184.450 167.250 C 185.464 167.302 186.489 167.346 187.500 167.250 C 188.430 167.162 189.343 166.922 190.250 166.700 C 190.910 166.539 191.594 166.407 192.200 166.100 C 192.729 165.832 193.600 165 193.600 165 " transform="matrix(1, 0, 0, 1, -117.85, -124.35)"/>
    <path id="ID0.8635134850628674" fill="none" stroke="#E6CD86" stroke-width="2" stroke-linecap="round" d="M 180.850 171.950 C 180.850 171.950 184.744 172.024 186.650 171.700 C 188.010 171.469 189.264 170.801 190.550 170.300 C 190.932 170.151 191.650 169.750 191.650 169.750 " transform="matrix(1, 0, 0, 1, -117.85, -124.35)"/>
    <path id="ID0.8934063892811537" fill="none" stroke="#E6CD86" stroke-width="2" stroke-linecap="round" d="M 182.500 145.300 C 182.500 145.300 182.261 147.498 182.200 148.600 C 182.077 150.829 182.088 153.072 181.950 155.300 C 181.904 156.038 181.700 156.762 181.650 157.500 C 181.600 158.248 181.650 159.750 181.650 159.750 " transform="matrix(1, 0, 0, 1, -117.85, -124.35)"/>
    <path id="ID0.8541403189301491" fill="none" stroke="#E6CD86" stroke-width="2" stroke-linecap="round" d="M 182.200 163.900 C 182.200 163.900 182.368 166.671 182.500 168.050 C 182.651 169.635 182.876 171.217 183.050 172.800 C 183.094 173.196 183.050 173.050 183.050 173.050 " transform="matrix(1, 0, 0, 1, -117.85, -124.35)"/>
    <path id="ID0.08545873034745455" fill="none" stroke="#E6CD86" stroke-width="2" stroke-linecap="round" d="M 188.350 149.450 C 188.350 149.450 187.850 152 187.750 153.350 C 187.650 154.050 187.750 154.800 187.750 155.550 C 187.750 157 187.750 158.500 187.750 160 C 187.750 160.350 187.750 160.300 187.750 160.300 C 188.050 160.300 188.679 163.057 188.900 164.450 C 189.046 165.375 189.210 166.316 189.150 167.250 C 189.026 169.196 188.350 173.050 188.350 173.050 " transform="matrix(1, 0, 0, 1, -117.85, -124.35)"/>
  </g>
</svg>