<svg version="1.1" width="50" height="73" viewBox="-1 -1 50 73" xmlns="http://www.w3.org/2000/svg" xmlns:xlink="http://www.w3.org/1999/xlink">
  <defs>
    <radialGradient id="grad_1" cx="0.5412" cy="0.5069" r="0.70356">
      <stop offset="0" stop-color="#FFFF00" stop-opacity="1"/>
      <stop offset="1" stop-color="#FFFF00" stop-opacity="0"/>
    </radialGradient>
  </defs>
  <!-- Exported by Scratch - http://scratch.mit.edu/ -->
  <g id="ID0.06211272021755576" transform="matrix(1, 0, 0, 1, 0, 38)">
    <g id="ID0.6635523047298193">
      <path id="ID0.6345311719924212" fill="none" stroke="#000000" stroke-width="1" stroke-linecap="round" d="M 122.600 183.200 L 131.200 186.300 L 132.300 198.800 " transform="matrix(0.9597249627113342, 0, 0, 0.8181381225585938, -85.7, -106.2)"/>
      <path id="ID0.14267688943073153" fill="none" stroke="#000000" stroke-width="1" stroke-linecap="round" d="M 124.800 181 L 131.500 180.850 L 136.350 194.450 " transform="matrix(0.9597249627113342, 0, 0, 0.8181381225585938, -85.7, -106.2)"/>
      <path id="ID0.8930265191011131" fill="none" stroke="#000000" stroke-width="1" stroke-linecap="round" d="M 125.700 178.900 L 134 177.900 L 140.100 192.100 " transform="matrix(0.9597249627113342, 0, 0, 0.8181381225585938, -85.7, -106.2)"/>
    </g>
    <g id="ID0.6635523047298193">
      <path id="ID0.6345311719924212" fill="none" stroke="#000000" stroke-width="1" stroke-linecap="round" d="M 122.600 183.200 L 131.200 186.300 L 132.300 198.800 " transform="matrix(-0.9597249627113342, 0, 0, 0.8181381225585938, 135.25, -106.2)"/>
      <path id="ID0.14267688943073153" fill="none" stroke="#000000" stroke-width="1" stroke-linecap="round" d="M 124.800 181 L 131.500 180.850 L 136.350 194.450 " transform="matrix(-0.9597249627113342, 0, 0, 0.8181381225585938, 135.25, -106.2)"/>
      <path id="ID0.8930265191011131" fill="none" stroke="#000000" stroke-width="1" stroke-linecap="round" d="M 125.700 178.900 L 134 177.900 L 140.100 192.100 " transform="matrix(-0.9597249627113342, 0, 0, 0.8181381225585938, 135.25, -106.2)"/>
    </g>
    <path id="ID0.4570708512328565" fill="#000000" stroke="#000000" stroke-width="4" stroke-linecap="round" d="M 187.550 217.550 C 132.381 221.563 76.605 217.041 21.450 213.800 C 7.635 212.954 3.163 214.766 8.650 205.500 C 30.748 168.795 57.996 134.938 86.400 102.850 C 93.508 94.830 96.296 91.032 104.500 98.750 C 137.311 129.620 166.814 165.045 192.850 202.500 C 199.235 211.420 201.344 216.496 187.550 217.550 Z " transform="matrix(0.17658165097236633, 0, 0, 0.15053081512451172, 6.75, 6.55)"/>
    <path id="ID0.7457816582173109" fill="none" stroke="#FFFFFF" stroke-width="4" stroke-linecap="round" d="M 106.500 166.550 L 114.450 173.200 " transform="matrix(0.9597249627113342, 0, 0, 0.8181381225585938, -85.7, -106.2)"/>
    <path id="ID0.6700390479527414" fill="none" stroke="#FFFFFF" stroke-width="4" stroke-linecap="round" d="M 113.100 158.400 L 120.400 165 " transform="matrix(0.9597249627113342, 0, 0, 0.8181381225585938, -85.7, -106.2)"/>
    <path id="ID0.009304857812821865" fill="#666666" stroke="#000000" stroke-width="4" d="M 104.750 156 C 121.924 156 137.487 162.051 148.756 171.826 C 160.025 181.602 167 195.102 167 210 C 167 224.898 160.025 238.398 148.756 248.174 C 137.487 257.949 121.924 264 104.750 264 C 87.576 264 72.013 257.949 60.744 248.174 C 49.475 238.398 42.500 224.898 42.500 210 C 42.500 195.102 49.475 181.602 60.744 171.826 C 72.013 162.051 87.576 156 104.750 156 Z " transform="matrix(0.17658165097236633, 0, 0, 0.15053081512451172, 6.75, 6.55)"/>
    <g id="ID0.3696245732717216">
      <path id="ID0.16718173073604703" fill="none" stroke="#000000" stroke-width="2" stroke-linecap="round" d="M 98.950 197.300 C 98.950 197.300 106.394 192.582 110.600 191.600 C 115.712 190.407 121.488 189.767 126.750 190.900 C 131.519 191.926 139.800 197.850 139.800 197.850 " transform="matrix(0.3481598496437073, 0, 0, 0.29679635167121887, -16.5, -16.85)"/>
      <path id="ID0.5049492884427309" fill="#FFFFFF" stroke="#000000" stroke-width="2" stroke-linecap="round" d="M 153.600 175.550 L 141.500 175.850 L 149.800 190 L 153.600 175.550 Z " transform="matrix(0.15268462896347046, 0.09629393368959427, -0.11295854300260544, 0.13015928864479065, 28.8, 4.25)"/>
      <path id="ID0.5049492884427309" fill="#FFFFFF" stroke="#000000" stroke-width="2" stroke-linecap="round" d="M 153.600 175.550 L 141.500 175.850 L 149.800 190 L 153.600 175.550 Z " transform="matrix(-0.15268462896347046, 0.09629393368959427, 0.11295854300260544, 0.13015928864479065, 21.5, 4.4)"/>
      <path id="ID0.5049492884427309" fill="#FFFFFF" stroke="#000000" stroke-width="2" stroke-linecap="round" d="M 153.600 175.550 L 141.500 175.850 L 149.800 190 L 153.600 175.550 Z " transform="matrix(0.16938012838363647, 0.07324611395597458, -0.08592206984758377, 0.144391730427742, 19.65, 4.5)"/>
      <path id="ID0.5049492884427309" fill="#FFFFFF" stroke="#000000" stroke-width="2" stroke-linecap="round" d="M 153.600 175.550 L 141.500 175.850 L 149.800 190 L 153.600 175.550 Z " transform="matrix(0.1731521040201187, -0.06652874499559402, 0.07804219424724579, 0.14760722219944, -18.3, 24.55)"/>
      <path id="ID0.5049492884427309" fill="#FFFFFF" stroke="#000000" stroke-width="2" stroke-linecap="round" d="M 153.600 175.550 L 141.500 175.850 L 149.800 190 L 153.600 175.550 Z " transform="matrix(0.18201763927936554, 0.04623674228787422, -0.054238460958004, 0.15516483783721924, 10.25, 6.1)"/>
      <path id="ID0.5049492884427309" fill="#FFFFFF" stroke="#000000" stroke-width="2" stroke-linecap="round" d="M 153.600 175.550 L 141.500 175.850 L 149.800 190 L 153.600 175.550 Z " transform="matrix(0.18596437573432922, -0.032900117337703705, 0.038593802601099014, 0.15852932631969452, -11, 17.15)"/>
      <path id="ID0.5049492884427309" fill="#FFFFFF" stroke="#000000" stroke-width="2" stroke-linecap="round" d="M 153.600 175.550 L 141.500 175.850 L 149.800 190 L 153.600 175.550 Z " transform="matrix(0.1885123997926712, 0.019723357632756233, -0.023136677220463753, 0.1607014387845993, 1.5, 8.75)"/>
    </g>
    <path id="ID0.3702503303065896" fill="#FF0000" stroke="#660000" stroke-width="2" stroke-linecap="round" d="M 106.900 172.100 L 133 182.100 L 133.200 188.200 L 131.100 190.700 L 119.800 193.750 L 112.200 191.650 L 108.600 185.700 L 106.800 172.800 Z " transform="matrix(0.24162091314792633, 0, 0, 0.20597493648529053, -9.55, -0.55)"/>
    <path id="ID0.3702503303065896" fill="#FF0000" stroke="#660000" stroke-width="2" stroke-linecap="round" d="M 106.900 172.100 L 133 182.100 L 133.200 188.200 L 131.100 190.700 L 119.800 193.750 L 112.200 191.650 L 108.600 185.700 L 106.800 172.800 Z " transform="matrix(-0.24162091314792633, 0, 0, 0.20597493648529053, 59.6, -0.55)"/>
  </g>
  <path id="ID0.8365832129493356" fill="none" stroke="#666666" stroke-width="2" stroke-linecap="round" d="M 177.350 190 " transform="matrix(1, 0, 0, 1, -303, -180)"/>
  <path id="ID0.8365832129493356" fill="none" stroke="#666666" stroke-width="2" stroke-linecap="round" d="M 177.350 190 " transform="matrix(1, 0, 0, 1, -461, -246)"/>
  <path id="ID0.8365832129493356" fill="none" stroke="#666666" stroke-width="2" stroke-linecap="round" d="M 177.350 190 " transform="matrix(1, 0, 0, 1, -422, -87)"/>
  <path id="ID0.8365832129493356" fill="none" stroke="#666666" stroke-width="2" stroke-linecap="round" d="M 177.350 190 " transform="matrix(1, 0, 0, 1, -307, -290)"/>
  <path id="ID0.8188485014252365" fill="none" stroke="#00CC44" stroke-width="4" stroke-linecap="round" d="M 137.500 254.500 C 137.500 254.500 141.381 257.092 143.500 258 C 146.904 259.423 152.284 258.752 154.300 262.250 C 155.752 264.201 151.177 266.281 150.500 269 C 150.143 270.448 152.045 272.653 151 273.500 C 149.618 274.499 145.617 271.095 144.300 272.250 C 143.624 273.586 147 278.500 147 278.500 " transform="matrix(0.183991938829422, 0, 0, 0.15684787929058075, 5.4, 24.5)"/>
  <path id="ID0.4570708512328565" fill="#00CC44" stroke="#009933" stroke-width="4" stroke-linecap="round" d="M 51 218.350 C 39.661 217.821 17.337 221.870 18 210.850 C 19.531 184.567 41.430 163.892 55.500 141.850 C 66.387 124.782 76.209 106.663 92.500 96 C 99.957 90.392 112.338 92.391 119.500 98 C 133.782 109.172 143.073 124.802 153 141 C 166.945 163.755 187.063 185.615 189.500 212.350 C 190.211 222.115 169.414 215.854 159.500 216.350 C 123.410 218.161 87.095 220.032 51 218.350 Z " transform="matrix(0.183991938829422, 0, 0, 0.15684787929058075, 5.5, 24.5)"/>
  <path id="ID0.009304857812821865" fill="#00FF55" stroke="#00CC44" stroke-width="4" d="M 104.750 156 C 121.924 156 137.487 162.051 148.756 171.826 C 160.025 181.602 167 195.102 167 210 C 167 224.898 160.025 238.398 148.756 248.174 C 137.487 257.949 121.924 264 104.750 264 C 87.576 264 72.013 257.949 60.744 248.174 C 49.475 238.398 42.500 224.898 42.500 210 C 42.500 195.102 49.475 181.602 60.744 171.826 C 72.013 162.051 87.576 156 104.750 156 Z " transform="matrix(0.183991938829422, 0, 0, 0.15684787929058075, 5.4, 24.5)"/>
  <path id="ID0.6319951475597918" fill="none" stroke="#00CC44" stroke-width="4" stroke-linecap="round" d="M 71.250 228.250 C 71.250 228.250 69.423 234.115 69 236.500 C 68.753 237.817 68.796 239.357 69.500 240.500 C 70.251 241.720 71.708 242.382 73 243 C 75.567 244.228 78.215 245.420 81 246 C 82.314 246.274 83.774 246.042 85 245.500 C 87.090 244.577 88.752 242.748 90.950 242.050 C 92.254 241.478 93.759 241.381 95.200 241.800 C 97.421 242.435 99.432 244.060 101.450 244.800 C 102.708 245.265 104.150 245.550 105.450 245.300 C 108.250 244.700 110.900 243.500 113.450 242.300 C 114.750 241.650 116.200 241 116.950 239.800 C 117.700 238.650 117.700 237.100 117.450 235.800 C 117.050 233.400 115.200 227.550 115.200 227.550 " transform="matrix(-0.183991938829422, 0, 0, 0.15684787929058075, 41.6, 23.7)"/>
  <path id="ID0.3833936583250761" fill="none" stroke="#00CC44" stroke-width="4" stroke-linecap="round" d="M 154 243 C 154 243 157.486 244.845 158 246.500 C 158.521 248.353 154.496 251.279 155.650 252.950 C 157.721 254.504 162.025 252.104 164.500 253 C 165.796 253.508 166.280 255.313 167.500 256 C 170.284 257.526 175.864 256.065 177.600 258.900 C 178.579 261.742 173.349 264.630 173 267.500 C 172.720 270.181 174.933 272.865 174.500 275.500 C 174.080 277.578 169.819 278.300 168.950 280.900 C 169.104 282.354 172.670 282.516 173 284 C 173.196 284.978 172 287 172 287 " transform="matrix(0.183991938829422, 0, 0, 0.15684787929058075, 5.4, 24.5)"/>
  <path id="ID0.877939498052001" fill="none" stroke="#00CC44" stroke-width="4" stroke-linecap="round" d="M 163 235 C 163 235 166.855 237.625 169 237.500 C 171.923 237.278 175.643 231.971 177.600 232.950 C 179.392 234.470 175.791 239.764 176.500 242.500 C 176.882 243.863 179.496 243.681 180 245 C 180.896 247.546 177.945 252.168 179.600 254.250 C 181.181 255.404 184.379 251.209 186.500 251.500 C 187.861 251.733 188.174 254.042 189.500 254.500 C 192.442 255.450 198.492 253.097 200.250 254.950 C 200.990 256.845 195.261 259.526 194.500 262 C 194.094 263.459 196.540 265.405 195.500 266.500 C 193.378 268.595 185.929 267.621 185.600 269.550 C 185.929 271.621 193.242 272.151 195.500 274.500 C 196.389 275.471 194.955 277.310 195.500 278.500 C 196.573 280.658 201.820 282.247 201.550 284.200 C 200.573 286.235 194.751 284.675 193 286.500 C 190.083 289.657 187 298 187 298 " transform="matrix(0.183991938829422, 0, 0, 0.15684787929058075, 5.4, 24.5)"/>
  <path id="ID0.6539682173170149" fill="#FFFFFF" stroke="none" d="M 326.625 177.750 C 328.729 177.750 330.635 178.338 332.015 179.289 C 333.396 180.239 334.250 181.552 334.250 183 C 334.250 184.448 333.396 185.761 332.015 186.711 C 330.635 187.662 328.729 188.250 326.625 188.250 C 324.521 188.250 322.615 187.662 321.235 186.711 C 319.854 185.761 319 184.448 319 183 C 319 181.552 319.854 180.239 321.235 179.289 C 322.615 178.338 324.521 177.750 326.625 177.750 Z " transform="matrix(0.48987460136413574, 0, 0, 0.41760411858558655, -139.6, -20.75)"/>
  <path id="ID0.6539682173170149" fill="#FFFFFF" stroke="none" d="M 326.625 177.750 C 328.729 177.750 330.635 178.338 332.015 179.289 C 333.396 180.239 334.250 181.552 334.250 183 C 334.250 184.448 333.396 185.761 332.015 186.711 C 330.635 187.662 328.729 188.250 326.625 188.250 C 324.521 188.250 322.615 187.662 321.235 186.711 C 319.854 185.761 319 184.448 319 183 C 319 181.552 319.854 180.239 321.235 179.289 C 322.615 178.338 324.521 177.750 326.625 177.750 Z " transform="matrix(0.48987460136413574, 0, 0, 0.41760411858558655, -131.6, -20.7)"/>
  <path id="ID0.28278583008795977" fill="#000000" stroke="none" d="M 322 181.500 C 322.690 181.500 323.315 181.794 323.767 182.269 C 324.220 182.745 324.500 183.401 324.500 184.125 C 324.500 184.849 324.220 185.505 323.767 185.981 C 323.315 186.456 322.690 186.750 322 186.750 C 321.310 186.750 320.685 186.456 320.233 185.981 C 319.780 185.505 319.500 184.849 319.500 184.125 C 319.500 183.401 319.780 182.745 320.233 182.269 C 320.685 181.794 321.310 181.500 322 181.500 Z " transform="matrix(0.48987460136413574, 0, 0, 0.41760411858558655, -135.45, -22.15)"/>
  <path id="ID0.28278583008795977" fill="#000000" stroke="none" d="M 322 181.500 C 322.690 181.500 323.315 181.794 323.767 182.269 C 324.220 182.745 324.500 183.401 324.500 184.125 C 324.500 184.849 324.220 185.505 323.767 185.981 C 323.315 186.456 322.690 186.750 322 186.750 C 321.310 186.750 320.685 186.456 320.233 185.981 C 319.780 185.505 319.500 184.849 319.500 184.125 C 319.500 183.401 319.780 182.745 320.233 182.269 C 320.685 181.794 321.310 181.500 322 181.500 Z " transform="matrix(0.48987460136413574, 0, 0, 0.41760411858558655, -130.6, -20.25)"/>
  <path id="ID0.877939498052001" fill="none" stroke="#00CC44" stroke-width="4" stroke-linecap="round" d="M 163 235 C 163 235 166.855 237.625 169 237.500 C 171.923 237.278 175.643 231.971 177.600 232.950 C 179.392 234.470 175.791 239.764 176.500 242.500 C 176.882 243.863 179.496 243.681 180 245 C 180.896 247.546 177.945 252.168 179.600 254.250 C 181.181 255.404 184.379 251.209 186.500 251.500 C 187.861 251.733 188.174 254.042 189.500 254.500 C 192.442 255.450 198.492 253.097 200.250 254.950 C 200.990 256.845 195.261 259.526 194.500 262 C 194.094 263.459 196.540 265.405 195.500 266.500 C 193.378 268.595 185.929 267.621 185.600 269.550 C 185.929 271.621 193.242 272.151 195.500 274.500 C 196.389 275.471 194.955 277.310 195.500 278.500 C 196.573 280.658 201.820 282.247 201.550 284.200 C 200.573 286.235 194.751 284.675 193 286.500 C 190.083 289.657 187 298 187 298 " transform="matrix(-0.183991938829422, 0, 0, 0.15684787929058075, 44.85, 24.75)"/>
  <path id="ID0.3833936583250761" fill="none" stroke="#00CC44" stroke-width="4" stroke-linecap="round" d="M 154 243 C 154 243 157.486 244.845 158 246.500 C 158.521 248.353 154.496 251.279 155.650 252.950 C 157.721 254.504 162.025 252.104 164.500 253 C 165.796 253.508 166.280 255.313 167.500 256 C 170.284 257.526 175.864 256.065 177.600 258.900 C 178.579 261.742 173.349 264.630 173 267.500 C 172.720 270.181 174.933 272.865 174.500 275.500 C 174.080 277.578 169.819 278.300 168.950 280.900 C 169.104 282.354 172.670 282.516 173 284 C 173.196 284.978 172 287 172 287 " transform="matrix(-0.183991938829422, 0, 0, 0.15684787929058075, 45.6, 25.5)"/>
  <path id="ID0.8188485014252365" fill="none" stroke="#00CC44" stroke-width="4" stroke-linecap="round" d="M 137.500 254.500 C 137.500 254.500 141.381 257.092 143.500 258 C 146.904 259.423 152.284 258.752 154.300 262.250 C 155.752 264.201 151.177 266.281 150.500 269 C 150.143 270.448 152.045 272.653 151 273.500 C 149.618 274.499 145.617 271.095 144.300 272.250 C 143.624 273.586 147 278.500 147 278.500 " transform="matrix(-0.183991938829422, 0, 0, 0.15684787929058075, 45.35, 25.5)"/>
  <path id="ID0.8365832129493356" fill="none" stroke="#666666" stroke-width="2" stroke-linecap="round" d="M 177.350 190 " transform="matrix(1, 0, 0, 1, -116, -39)"/>
  <path id="ID0.8365832129493356" fill="none" stroke="#666666" stroke-width="2" stroke-linecap="round" d="M 177.350 190 " transform="matrix(1, 0, 0, 1, -301, -117)"/>
  <path id="ID0.8365832129493356" fill="none" stroke="#666666" stroke-width="2" stroke-linecap="round" d="M 177.350 190 " transform="matrix(1, 0, 0, 1, -102, -47)"/>
  <path id="ID0.8365832129493356" fill="none" stroke="#666666" stroke-width="2" stroke-linecap="round" d="M 177.350 190 " transform="matrix(1, 0, 0, 1, -313, -37)"/>
  <path id="ID0.003743355628103018" fill="url(#grad_1)" stroke="none" d="M 247.075 109.200 C 252.172 109.200 256.791 111.223 260.135 114.490 C 263.480 117.758 265.550 122.270 265.550 127.250 C 265.550 132.230 263.480 136.742 260.135 140.010 C 256.791 143.277 252.172 145.300 247.075 145.300 C 241.978 145.300 237.359 143.277 234.015 140.010 C 230.670 136.742 228.600 132.230 228.600 127.250 C 228.600 122.270 230.670 117.758 234.015 114.490 C 237.359 111.223 241.978 109.200 247.075 109.200 Z " transform="matrix(1, 0, 0, 1, -222.65, -108.55)"/>
</svg>