<svg version="1.1" width="116" height="101" viewBox="-1 -1 116 101" xmlns="http://www.w3.org/2000/svg" xmlns:xlink="http://www.w3.org/1999/xlink">
  <defs>
    <linearGradient id="grad_1" y2="1">
      <stop offset="0" stop-color="#003FFF" stop-opacity="1"/>
      <stop offset="1" stop-color="#001966" stop-opacity="1"/>
    </linearGradient>
  </defs>
  <!-- Exported by Scratch - http://scratch.mit.edu/ -->
  <path id="ID0.9883057754486799" fill="url(#grad_1)" stroke="#001966" stroke-width="4" stroke-linecap="round" d="M 217.500 269.500 L 220.500 229 L 192 252.500 L 205 221 L 159.500 204 L 199 201.500 L 182.500 151.250 L 215 194.250 L 211.750 140.250 L 229.750 198.250 L 253.250 137.750 L 245 203.500 L 289 148.500 L 262.250 207.750 L 305.500 199 L 268 220.500 L 293.500 243.500 L 253.500 230 L 272.500 265 L 237 235 L 217.500 269.500 Z " transform="matrix(0.6029736995697021, 0, 0, 0.6029736995697021, -82.95, -72.1)"/>
  <path id="ID0.3712550294585526" fill="#00FFFF" stroke="#00CCCC" stroke-width="2" d="M 313.675 77.350 C 350.182 77.350 383.264 91.805 407.218 115.157 C 431.172 138.510 446 170.760 446 206.350 C 446 241.940 431.172 274.190 407.218 297.543 C 383.264 320.895 350.182 335.350 313.675 335.350 C 277.168 335.350 244.086 320.895 220.132 297.543 C 196.178 274.190 181.350 241.940 181.350 206.350 C 181.350 170.760 196.178 138.510 220.132 115.157 C 244.086 91.805 277.168 77.350 313.675 77.350 Z " transform="matrix(0.19269107282161713, 0, 0, 0.19269107282161713, -2.3, 11.3)"/>
  <path id="ID0.7472577039152384" fill="#FFFFFF" stroke="#00CCCC" stroke-width="2" d="M 231.350 64 C 237.056 65.186 238.034 73.845 241.850 78.850 C 245.412 82.121 252.621 83.277 253.350 88.675 C 254.215 94.876 250.885 101.651 246.902 106.118 C 242.920 110.585 237.420 113.350 231.350 113.350 C 225.280 113.350 219.780 110.585 215.798 106.118 C 211.815 101.651 209.350 95.483 209.350 88.675 C 209.350 81.867 211.815 75.699 215.798 71.232 C 219.780 66.765 225.736 62.848 231.350 64 Z " transform="matrix(0.19269107282161713, 0, 0, 0.19269107282161713, 11.9, 26.55)"/>
  <path id="ID0.7472577039152384" fill="#FFFFFF" stroke="#00CCCC" stroke-width="2" d="M 231.350 64 C 236.552 61.843 242.920 66.765 246.902 71.232 C 250.885 75.699 253.350 81.867 253.350 88.675 C 253.350 95.483 250.885 101.651 246.902 106.118 C 242.920 110.585 237.420 113.350 231.350 113.350 C 225.280 113.350 219.780 110.585 215.798 106.118 C 211.815 101.651 207.402 94.539 209.350 88.675 C 211.173 83.288 219.869 84.601 222.900 80.400 C 227.557 75.978 225.847 66.284 231.350 64 Z " transform="matrix(0.19269107282161713, 0, 0, 0.19269107282161713, 29.55, 26.25)"/>
  <path id="ID0.8638461250811815" fill="#000000" stroke="#000000" stroke-width="2" d="M 186.675 88.650 C 187.413 88.650 188.082 89.025 188.566 89.632 C 189.050 90.238 189.350 91.076 189.350 92 C 189.350 92.924 189.050 93.762 188.566 94.368 C 188.082 94.975 187.413 95.350 186.675 95.350 C 185.937 95.350 185.268 94.975 184.784 94.368 C 184.300 93.762 184 92.924 184 92 C 184 91.076 184.300 90.238 184.784 89.632 C 185.268 89.025 185.937 88.650 186.675 88.650 Z " transform="matrix(0.19269107282161713, 0, 0, 0.19269107282161713, 21.8, 25.65)"/>
  <path id="ID0.8638461250811815" fill="#000000" stroke="#000000" stroke-width="2" d="M 186.675 88.650 C 187.413 88.650 188.082 89.025 188.566 89.632 C 189.050 90.238 189.350 91.076 189.350 92 C 189.350 92.924 189.050 93.762 188.566 94.368 C 188.082 94.975 187.413 95.350 186.675 95.350 C 185.937 95.350 185.268 94.975 184.784 94.368 C 184.300 93.762 184 92.924 184 92 C 184 91.076 184.300 90.238 184.784 89.632 C 185.268 89.025 185.937 88.650 186.675 88.650 Z " transform="matrix(0.19269107282161713, 0, 0, 0.19269107282161713, 39.55, 25.65)"/>
  <path id="ID0.33346087811514735" fill="#000000" stroke="#000000" stroke-width="2" d="M 215.500 184.350 L 224.400 181.700 L 232.650 181.550 L 245.800 182.150 L 284.850 184.350 L 284.850 184.350 L 215.500 184.350 L 215.500 184.350 Z " transform="matrix(0.5138556957244873, 0, 0, 0.7964762449264526, -64.05, -90.7)"/>
  <path id="ID0.8033891315571964" fill="none" stroke="#003FFF" stroke-width="4" stroke-linecap="round" d="M 268.500 135.500 C 268.500 135.500 271.364 132.963 273 132 C 274.226 131.279 275.632 130.109 277 130.500 C 278.476 130.922 279.278 132.646 280 134 C 280.646 135.211 281.462 136.707 281 138 C 280.484 139.446 278.149 139.609 277.500 141 C 276.866 142.358 277.412 144.004 277.500 145.500 C 277.579 146.840 278.424 148.227 278 149.500 C 277.515 150.956 275.921 151.772 275 153 C 274.417 153.777 273.500 155.500 273.500 155.500 " transform="matrix(0.5405405163764954, 0, 0, 0.5405405163764954, -53.3, -62.9)"/>
  <path id="ID0.3469535605981946" fill="none" stroke="#003FFF" stroke-width="2" stroke-linecap="round" d="M 278 168 C 278 168 280.323 166.971 281.500 166.500 C 282.821 165.972 284.109 165.298 285.500 165 C 286.477 164.791 287.539 164.726 288.500 165 C 289.932 165.409 291.309 166.106 292.500 167 C 293.353 167.640 294.309 168.451 294.500 169.500 C 294.688 170.536 294.190 171.704 293.500 172.500 C 291.950 174.288 288.992 174.851 288 177 C 287.553 177.968 289.498 178.636 290.500 179 C 291.439 179.341 293.170 178.229 293.500 179 C 293.920 179.979 292.722 181.457 292 182.500 C 291.196 183.662 290.264 184.868 289 185.500 C 288.106 185.947 286.831 186.054 286 185.500 C 285.071 184.880 285.335 183.242 284.500 182.500 C 283.713 181.800 282.549 181.413 281.500 181.500 C 280.387 181.593 279.247 182.170 278.500 183 C 277.652 183.943 277 186.500 277 186.500 " transform="matrix(1, 0, 0, 1, -181, -125)"/>
  <path id="ID0.18021468725055456" fill="none" stroke="#003FFF" stroke-width="2" stroke-linecap="round" d="M 277.500 196 C 277.500 196 279.965 196.519 280.500 197.500 C 281.138 198.669 280.719 200.186 280.500 201.500 C 280.378 202.234 279.985 202.935 279.500 203.500 C 278.958 204.132 278.279 204.708 277.500 205 C 276.876 205.234 276.166 205 275.500 205 C 274.834 205 274.124 205.234 273.500 205 C 272.721 204.708 272.290 203.763 271.500 203.500 C 270.710 203.237 269.832 203.500 269 203.500 C 268.792 203.500 269 203.500 269 203.500 " transform="matrix(1, 0, 0, 1, -181, -125)"/>
  <path id="ID0.48348939372226596" fill="none" stroke="#003FFF" stroke-width="2" stroke-linecap="round" d="M 267 211.500 C 267 211.500 267.901 213.109 268 214 C 268.076 214.682 267.939 215.473 267.500 216 C 267.023 216.572 266.180 216.698 265.500 217 C 264.681 217.364 263.875 217.805 263 218 C 262.350 218.144 261.612 218.262 261 218 C 260.351 217.722 260.075 216.911 259.500 216.500 C 258.894 216.067 258.245 215.500 257.500 215.500 C 256.755 215.500 255.500 216.500 255.500 216.500 " transform="matrix(1, 0, 0, 1, -181, -125)"/>
  <path id="ID0.7307823528535664" fill="none" stroke="#003FFF" stroke-width="2" stroke-linecap="round" d="M 225 209.500 C 225 209.500 223.433 211.026 223 212 C 222.730 212.609 223 213.334 223 214 C 223 214.666 222.766 215.376 223 216 C 223.292 216.779 223.958 217.368 224.500 218 C 224.960 218.536 225.589 218.925 226 219.500 C 226.433 220.106 226.819 220.778 227 221.500 C 227.162 222.146 226.584 222.980 227 223.500 C 227.429 224.036 228.334 224.167 229 224 C 229.808 223.798 230.516 223.177 231 222.500 C 231.399 221.941 231.259 221.143 231.500 220.500 C 231.761 219.803 231.935 218.985 232.500 218.500 C 233.181 217.916 235 217.500 235 217.500 " transform="matrix(1, 0, 0, 1, -181, -125)"/>
  <path id="ID0.06482036784291267" fill="none" stroke="#003FFF" stroke-width="2" stroke-linecap="round" d="M 212 198 C 212 198 209.925 198.089 209 198.500 C 208.354 198.787 208 199.500 207.500 200 C 207 200.500 206.248 200.839 206 201.500 C 205.708 202.279 205.908 203.173 206 204 C 206.076 204.682 205.964 205.571 206.500 206 C 207.020 206.416 207.980 205.584 208.500 206 C 209.036 206.429 209.167 207.334 209 208 C 208.798 208.808 207.500 209.167 207.500 210 C 207.500 210.833 208.277 211.587 209 212 C 209.578 212.330 210.339 212.083 211 212 C 211.681 211.915 212.473 211.939 213 211.500 C 213.572 211.023 213.617 210.138 214 209.500 C 214.121 209.298 214.500 209 214.500 209 " transform="matrix(1, 0, 0, 1, -181, -125)"/>
  <path id="ID0.5846027978695929" fill="none" stroke="#003FFF" stroke-width="2" stroke-linecap="round" d="M 195 170.500 C 195 170.500 187.590 170.252 184 171 C 183.103 171.187 183.261 172.303 183 173 C 182.759 173.643 182.259 174.357 182.500 175 C 182.831 175.882 183.791 176.380 184.500 177 C 185.127 177.548 185.755 178.128 186.500 178.500 C 187.772 179.136 189.599 178.899 190.500 180 C 191.350 181.039 190.889 182.662 191 184 C 191.055 184.664 190.631 185.446 191 186 C 191.413 186.620 192.267 186.867 193 187 C 194.147 187.208 195.334 187 196.500 187 C 197.166 187 198.500 187 198.500 187 " transform="matrix(1, 0, 0, 1, -181, -125)"/>
  <path id="ID0.3663986809551716" fill="none" stroke="#003FFF" stroke-width="2" stroke-linecap="round" d="M 207 153.500 C 207 153.500 205.549 151.914 205 151 C 204.539 150.231 204.475 149.260 204 148.500 C 203.626 147.901 202.960 147.536 202.500 147 C 201.958 146.368 201.372 145.745 201 145 C 200.693 144.386 200.667 143.666 200.500 143 C 200.333 142.334 200 141.686 200 141 C 200 140.314 200.061 139.527 200.500 139 C 200.977 138.428 201.773 138.162 202.500 138 C 203.313 137.819 204.187 138.181 205 138 C 205.727 137.838 206.587 137.620 207 137 C 207.369 136.446 206.584 135.520 207 135 C 207.429 134.464 208.357 134.259 209 134.500 C 209.882 134.831 210.435 135.747 211 136.500 C 211.447 137.096 211.819 137.778 212 138.500 C 212.162 139.146 211.613 139.958 212 140.500 C 212.564 141.290 213.667 141.500 214.500 142 C 214.708 142.125 214.500 142 214.500 142 " transform="matrix(1, 0, 0, 1, -181, -125)"/>
  <path id="ID0.08560945466160774" fill="none" stroke="#003FFF" stroke-width="2" stroke-linecap="round" d="M 222 138.500 C 222 138.500 222.601 136.508 222.500 135.500 C 222.426 134.759 221.408 134.239 221.500 133.500 C 221.603 132.674 222.368 132.042 223 131.500 C 223.565 131.015 224.278 130.681 225 130.500 C 225.646 130.338 226.339 130.417 227 130.500 C 227.681 130.585 228.619 130.429 229 131 C 229.462 131.693 229 132.667 229 133.500 C 229 134.166 229 134.834 229 135.500 C 229 136.166 228.529 137.029 229 137.500 C 229.471 137.971 230.341 137.594 231 137.500 C 231.521 137.426 232.500 137 232.500 137 " transform="matrix(1, 0, 0, 1, -181, -125)"/>
  <path id="ID0.8114951960742474" fill="none" stroke="#003FFF" stroke-width="2" stroke-linecap="round" d="M 245.500 134 C 245.500 134 246.417 132.277 247 131.500 C 247.424 130.935 247.968 130.465 248.500 130 C 249.302 129.298 250.127 128.611 251 128 C 251.795 127.443 252.537 126.380 253.500 126.500 C 254.326 126.603 254.708 127.721 255 128.500 C 255.234 129.124 255 129.834 255 130.500 C 255 131.666 255 134 255 134 " transform="matrix(1, 0, 0, 1, -181, -125)"/>
</svg>