<svg version="1.1" width="39" height="29" viewBox="-1 -1 39 29" xmlns="http://www.w3.org/2000/svg" xmlns:xlink="http://www.w3.org/1999/xlink">
  <!-- Exported by Scratch - http://scratch.mit.edu/ -->
  <g id="ID0.25069514010101557" transform="matrix(0.6613756418228149, 0, 0, 0.6613756418228149, 0, 0.05)">
    <path id="ID0.992913631722331" fill="#663B00" stroke="#663B00" stroke-width="2" stroke-linecap="round" d="M 292.500 211.750 C 291.743 210.846 291.147 209.633 290.750 208.500 C 290.528 207.866 290.667 207.083 291 206.500 C 291.381 205.834 292.125 205.446 292.750 205 C 293.296 204.610 294.162 204.580 294.500 204 C 294.836 203.425 294.218 202.604 294.500 202 C 294.849 201.253 295.624 200.786 296.250 200.250 C 296.794 199.784 297.759 199.674 298 199 C 298.258 198.277 297.410 197.512 297.500 196.750 C 297.587 196.010 298.019 195.318 298.500 194.750 C 298.963 194.203 299.558 193.685 300.250 193.500 C 300.899 193.327 301.584 193.833 302.250 193.750 C 302.956 193.662 303.622 193.335 304.250 193 C 304.882 192.663 305.285 191.798 306 191.750 C 306.743 191.700 307.451 192.247 308 192.750 C 308.495 193.204 308.827 193.851 309 194.500 C 309.172 195.144 309.262 195.888 309 196.500 C 308.722 197.149 307.987 197.488 307.500 198 C 306.405 199.153 305.068 200.136 304.250 201.500 C 303.532 202.697 303.555 204.220 303 205.500 C 302.466 206.732 301.770 207.900 301 209 C 300.595 209.579 300.060 210.069 299.500 210.500 C 298.968 210.909 298.387 211.288 297.750 211.500 C 297.113 211.712 296.421 211.750 295.750 211.750 C 294.748 211.750 293.591 212.046 292.750 211.500 Z " transform="matrix(1, 0, 0, 1, -287.5, -190)"/>
    <path id="ID0.6222776756621897" fill="#FFE9CC" stroke="#FFD499" stroke-width="2" stroke-linecap="round" d="M 308.750 191.750 C 307.217 192.073 306.200 192.482 305.250 193 C 304.358 193.487 303.512 194.078 302.750 194.750 C 302.086 195.336 301.604 196.103 301 196.750 C 300.438 197.352 299.812 197.898 299.250 198.500 C 298.646 199.147 298.058 199.813 297.500 200.500 C 296.975 201.146 296.492 201.829 296 202.500 C 295.576 203.078 295.037 203.594 294.750 204.250 C 294.442 204.953 294.468 205.764 294.250 206.500 C 293.801 208.014 293.112 209.462 292.750 211 C 292.443 212.307 291.174 214.334 292.250 215 C 293.799 215.959 296.105 214.620 298 214.250 C 299.526 213.952 301.005 213.427 302.500 213 C 303.336 212.761 304.159 212.471 305 212.250 C 305.742 212.055 306.515 211.971 307.250 211.750 C 308.183 211.470 309.073 211.050 310 210.750 C 311.904 210.134 313.823 209.542 315.750 209 C 316.489 208.792 317.251 208.667 318 208.500 C 318.749 208.333 319.494 208.133 320.250 208 C 320.911 207.883 321.678 208.102 322.250 207.750 C 322.860 207.375 323.411 206.711 323.500 206 C 323.598 205.216 323.013 204.495 322.750 203.750 C 322.513 203.079 322.335 202.378 322 201.750 C 321.663 201.118 321.137 200.602 320.750 200 C 320.387 199.435 320.140 198.796 319.750 198.250 C 319.304 197.625 318.771 197.064 318.250 196.500 C 317.771 195.981 317.289 195.456 316.750 195 C 316.203 194.537 315.629 194.093 315 193.750 C 313.790 193.090 312.552 192.453 311.250 192 C 310.616 191.780 309.919 191.806 309.250 191.750 C 308.918 191.722 308.568 191.651 308.250 191.750 Z " transform="matrix(1, 0, 0, 1, -286.5, -189.25)"/>
    <path id="ID0.3124932083301246" fill="none" stroke="#FFD499" stroke-width="2" stroke-linecap="round" d="M 308 197.750 L 308.300 198.050 " transform="matrix(1, 0, 0, 1, -286.5, -189.25)"/>
    <path id="ID0.9572450704872608" fill="none" stroke="#FFD499" stroke-width="2" stroke-linecap="round" d="M 301 205 L 301.300 205.300 " transform="matrix(1, 0, 0, 1, -286.5, -189.25)"/>
    <path id="ID0.47139537055045366" fill="none" stroke="#FFD499" stroke-width="2" stroke-linecap="round" d="M 304.500 200 L 304.800 200.300 " transform="matrix(1, 0, 0, 1, -286.5, -189.25)"/>
    <path id="ID0.7218485129997134" fill="none" stroke="#FFD499" stroke-width="2" stroke-linecap="round" d="M 315.500 202.250 L 315.800 202.550 " transform="matrix(1, 0, 0, 1, -286.5, -189.25)"/>
    <path id="ID0.8525959886610508" fill="none" stroke="#FFD499" stroke-width="2" stroke-linecap="round" d="M 307.500 206 L 307.800 206.300 " transform="matrix(1, 0, 0, 1, -286.5, -189.25)"/>
    <path id="ID0.5829547746106982" fill="none" stroke="#FFD499" stroke-width="2" stroke-linecap="round" d="M 298.750 209.250 L 299.050 209.550 " transform="matrix(1, 0, 0, 1, -286.5, -189.25)"/>
    <path id="ID0.6622264669276774" fill="none" stroke="#FFD499" stroke-width="2" stroke-linecap="round" d="M 314 196.250 L 314.300 196.550 " transform="matrix(1, 0, 0, 1, -286.5, -189.25)"/>
    <path id="ID0.42803058959543705" fill="none" stroke="#FFD499" stroke-width="2" stroke-linecap="round" d="M 312.750 206 L 313.050 206.300 " transform="matrix(1, 0, 0, 1, -286.5, -189.25)"/>
    <path id="ID0.8569887303747237" fill="none" stroke="#00FF55" stroke-width="2" stroke-linecap="round" d="M 302.750 190.250 C 302.750 190.250 299.761 190.086 298.500 190.750 C 297.893 191.070 298.442 192.225 298 192.750 C 297.045 193.884 295.576 194.481 294.500 195.500 C 293.980 195.993 293.553 196.601 293.250 197.250 C 292.960 197.872 293.121 198.673 292.750 199.250 C 292.335 199.896 291.446 200.125 291 200.750 C 290.587 201.329 290.585 202.122 290.250 202.750 C 289.913 203.382 289.416 203.917 289 204.500 C 288.584 205.083 287.935 205.558 287.750 206.250 C 287.577 206.899 288 207.579 288 208.250 C 288 208.921 287.573 209.602 287.750 210.250 C 287.860 210.652 288.750 211 288.750 211 " transform="matrix(1, 0, 0, 1, -286.5, -189.25)"/>
    <path id="ID0.9102713759057224" fill="none" stroke="#FFFF00" stroke-width="2" stroke-linecap="round" d="M 306.750 190.500 C 306.750 190.500 305.188 190.863 304.500 191.250 C 303.831 191.626 303.389 192.324 302.750 192.750 C 302.130 193.163 301.336 193.290 300.750 193.750 C 300.146 194.224 299.729 194.901 299.250 195.500 C 298.730 196.150 298.339 196.911 297.750 197.500 C 297.244 198.006 296.547 198.287 296 198.750 C 295.461 199.206 294.850 199.637 294.500 200.250 C 294.159 200.846 294.166 201.584 294 202.250 C 293.834 202.916 293.871 203.673 293.500 204.250 C 293.085 204.896 292.196 205.125 291.750 205.750 C 291.337 206.329 290.906 207.045 291 207.750 C 291.095 208.460 291.839 208.913 292.250 209.500 C 292.422 209.746 292.750 210.250 292.750 210.250 " transform="matrix(1, 0, 0, 1, -286.5, -189.25)"/>
  </g>
  <g id="ID0.25069514010101557" transform="matrix(0.6613756418228149, 0, 0, 0.6613756418228149, 0, 0.05)">
    <path id="ID0.992913631722331" fill="#663B00" stroke="#663B00" stroke-width="2" stroke-linecap="round" d="M 292.500 211.750 C 291.743 210.846 291.147 209.633 290.750 208.500 C 290.528 207.866 290.667 207.083 291 206.500 C 291.381 205.834 292.125 205.446 292.750 205 C 293.296 204.610 294.162 204.580 294.500 204 C 294.836 203.425 294.218 202.604 294.500 202 C 294.849 201.253 295.624 200.786 296.250 200.250 C 296.794 199.784 297.759 199.674 298 199 C 298.258 198.277 297.410 197.512 297.500 196.750 C 297.587 196.010 298.019 195.318 298.500 194.750 C 298.963 194.203 299.558 193.685 300.250 193.500 C 300.899 193.327 301.584 193.833 302.250 193.750 C 302.956 193.662 303.622 193.335 304.250 193 C 304.882 192.663 305.285 191.798 306 191.750 C 306.743 191.700 307.451 192.247 308 192.750 C 308.495 193.204 308.827 193.851 309 194.500 C 309.172 195.144 309.262 195.888 309 196.500 C 308.722 197.149 307.987 197.488 307.500 198 C 306.405 199.153 305.068 200.136 304.250 201.500 C 303.532 202.697 303.555 204.220 303 205.500 C 302.466 206.732 301.770 207.900 301 209 C 300.595 209.579 300.060 210.069 299.500 210.500 C 298.968 210.909 298.387 211.288 297.750 211.500 C 297.113 211.712 296.421 211.750 295.750 211.750 C 294.748 211.750 293.591 212.046 292.750 211.500 Z " transform="matrix(1, 0, 0, 1, -287.5, -190)"/>
    <path id="ID0.6222776756621897" fill="#FFE9CC" stroke="#FFD499" stroke-width="2" stroke-linecap="round" d="M 308.750 191.750 C 307.217 192.073 306.200 192.482 305.250 193 C 304.358 193.487 303.512 194.078 302.750 194.750 C 302.086 195.336 301.604 196.103 301 196.750 C 300.438 197.352 299.812 197.898 299.250 198.500 C 298.646 199.147 298.058 199.813 297.500 200.500 C 296.975 201.146 296.492 201.829 296 202.500 C 295.576 203.078 295.037 203.594 294.750 204.250 C 294.442 204.953 294.468 205.764 294.250 206.500 C 293.801 208.014 293.112 209.462 292.750 211 C 292.443 212.307 291.174 214.334 292.250 215 C 293.799 215.959 296.105 214.620 298 214.250 C 299.526 213.952 301.005 213.427 302.500 213 C 303.336 212.761 304.159 212.471 305 212.250 C 305.742 212.055 306.515 211.971 307.250 211.750 C 308.183 211.470 309.073 211.050 310 210.750 C 311.904 210.134 313.823 209.542 315.750 209 C 316.489 208.792 317.251 208.667 318 208.500 C 318.749 208.333 319.494 208.133 320.250 208 C 320.911 207.883 321.678 208.102 322.250 207.750 C 322.860 207.375 323.411 206.711 323.500 206 C 323.598 205.216 323.013 204.495 322.750 203.750 C 322.513 203.079 322.335 202.378 322 201.750 C 321.663 201.118 321.137 200.602 320.750 200 C 320.387 199.435 320.140 198.796 319.750 198.250 C 319.304 197.625 318.771 197.064 318.250 196.500 C 317.771 195.981 317.289 195.456 316.750 195 C 316.203 194.537 315.629 194.093 315 193.750 C 313.790 193.090 312.552 192.453 311.250 192 C 310.616 191.780 309.919 191.806 309.250 191.750 C 308.918 191.722 308.568 191.651 308.250 191.750 Z " transform="matrix(1, 0, 0, 1, -286.5, -189.25)"/>
    <path id="ID0.3124932083301246" fill="none" stroke="#FFD499" stroke-width="2" stroke-linecap="round" d="M 308 197.750 L 308.300 198.050 " transform="matrix(1, 0, 0, 1, -286.5, -189.25)"/>
    <path id="ID0.9572450704872608" fill="none" stroke="#FFD499" stroke-width="2" stroke-linecap="round" d="M 301 205 L 301.300 205.300 " transform="matrix(1, 0, 0, 1, -286.5, -189.25)"/>
    <path id="ID0.47139537055045366" fill="none" stroke="#FFD499" stroke-width="2" stroke-linecap="round" d="M 304.500 200 L 304.800 200.300 " transform="matrix(1, 0, 0, 1, -286.5, -189.25)"/>
    <path id="ID0.7218485129997134" fill="none" stroke="#FFD499" stroke-width="2" stroke-linecap="round" d="M 315.500 202.250 L 315.800 202.550 " transform="matrix(1, 0, 0, 1, -286.5, -189.25)"/>
    <path id="ID0.8525959886610508" fill="none" stroke="#FFD499" stroke-width="2" stroke-linecap="round" d="M 307.500 206 L 307.800 206.300 " transform="matrix(1, 0, 0, 1, -286.5, -189.25)"/>
    <path id="ID0.5829547746106982" fill="none" stroke="#FFD499" stroke-width="2" stroke-linecap="round" d="M 298.750 209.250 L 299.050 209.550 " transform="matrix(1, 0, 0, 1, -286.5, -189.25)"/>
    <path id="ID0.6622264669276774" fill="none" stroke="#FFD499" stroke-width="2" stroke-linecap="round" d="M 314 196.250 L 314.300 196.550 " transform="matrix(1, 0, 0, 1, -286.5, -189.25)"/>
    <path id="ID0.42803058959543705" fill="none" stroke="#FFD499" stroke-width="2" stroke-linecap="round" d="M 312.750 206 L 313.050 206.300 " transform="matrix(1, 0, 0, 1, -286.5, -189.25)"/>
    <path id="ID0.8569887303747237" fill="none" stroke="#00FF55" stroke-width="2" stroke-linecap="round" d="M 302.750 190.250 C 302.750 190.250 299.761 190.086 298.500 190.750 C 297.893 191.070 298.442 192.225 298 192.750 C 297.045 193.884 295.576 194.481 294.500 195.500 C 293.980 195.993 293.553 196.601 293.250 197.250 C 292.960 197.872 293.121 198.673 292.750 199.250 C 292.335 199.896 291.446 200.125 291 200.750 C 290.587 201.329 290.585 202.122 290.250 202.750 C 289.913 203.382 289.416 203.917 289 204.500 C 288.584 205.083 287.935 205.558 287.750 206.250 C 287.577 206.899 288 207.579 288 208.250 C 288 208.921 287.573 209.602 287.750 210.250 C 287.860 210.652 288.750 211 288.750 211 " transform="matrix(1, 0, 0, 1, -286.5, -189.25)"/>
    <path id="ID0.9102713759057224" fill="none" stroke="#FFFF00" stroke-width="2" stroke-linecap="round" d="M 306.750 190.500 C 306.750 190.500 305.188 190.863 304.500 191.250 C 303.831 191.626 303.389 192.324 302.750 192.750 C 302.130 193.163 301.336 193.290 300.750 193.750 C 300.146 194.224 299.729 194.901 299.250 195.500 C 298.730 196.150 298.339 196.911 297.750 197.500 C 297.244 198.006 296.547 198.287 296 198.750 C 295.461 199.206 294.850 199.637 294.500 200.250 C 294.159 200.846 294.166 201.584 294 202.250 C 293.834 202.916 293.871 203.673 293.500 204.250 C 293.085 204.896 292.196 205.125 291.750 205.750 C 291.337 206.329 290.906 207.045 291 207.750 C 291.095 208.460 291.839 208.913 292.250 209.500 C 292.422 209.746 292.750 210.250 292.750 210.250 " transform="matrix(1, 0, 0, 1, -286.5, -189.25)"/>
  </g>
</svg>