<svg version="1.1" width="533" height="388" viewBox="-1 -1 533 388" xmlns="http://www.w3.org/2000/svg" xmlns:xlink="http://www.w3.org/1999/xlink">
  <!-- Exported by Scratch - http://scratch.mit.edu/ -->
  <path id="ID0.4936823034659028" fill="none" stroke="#000000" stroke-width="4" d="M 0 330 L 480 330 L 480 360 L 0 360 L 0 330 Z " transform="matrix(1.0971074104309082, 0, 0, 1.6470588445663452, 2.25, -209.2)"/>
  <path id="ID0.5653538089245558" fill="none" stroke="#00FF55" stroke-width="4" stroke-linecap="round" d="M 0 343 C 0 343 4.236 338.754 7 338 C 8.437 337.608 10.174 338.761 11 340 C 11.739 341.108 11 342.668 11 344 C 11 345.665 9.904 347.904 11 349 C 11.904 349.904 13.668 348.333 15 348 C 16.332 347.667 18.250 346.250 19 347 C 19.750 347.750 18.614 349.772 18 351 C 17.255 352.489 15.882 353.588 15 355 C 14.211 356.263 14.180 359 13 359 C 11.680 359 10 356.665 10 355 C 10 353.335 11.916 352.264 13 351 C 13.919 349.927 14.897 348.883 16 348 C 18.237 346.211 20.513 344.421 23 343 C 25.202 341.742 27.594 340.802 30 340 C 32.605 339.132 35.395 338.868 38 338 C 39.413 337.529 41.823 335.646 42 336 C 42.177 336.354 40.084 338.736 39 340 C 38.081 341.073 36.999 342.001 36 343 C 34.002 344.998 31.909 346.917 30 349 C 28.243 350.917 26.728 353.056 25 355 C 24.061 356.056 21.893 358.107 22 358 C 22.107 357.893 24.668 355.332 26 354 C 26.999 353.001 27.870 351.848 29 351 C 30.553 349.835 32.295 348.930 34 348 C 35.961 346.930 37.926 345.830 40 345 C 41.275 344.490 42.675 344.361 44 344 C 46.339 343.362 48.741 341.355 51 342 C 52.241 342.355 51.468 344.753 51 346 C 50.415 347.559 49.084 348.736 48 350 C 47.081 351.073 45.999 352.001 45 353 C 43.335 354.665 41.859 356.554 40 358 C 38.824 358.914 37.301 360.520 36 360 C 34.801 359.520 34.386 357.228 35 356 C 35.666 354.668 37.606 354.523 39 354 C 40.286 353.518 41.697 353.434 43 353 C 44.701 352.433 46.249 351.389 48 351 C 49.300 350.711 50.960 350.168 52 351 C 53.072 351.858 53.170 353.638 53 355 C 52.815 356.478 50.691 359.154 51 359 C 51.309 358.846 53.574 355.585 55 354 C 56.575 352.250 58.240 350.564 60 349 C 61.244 347.894 62.511 346.745 64 346 C 65.884 345.058 68.021 344.720 70 344 C 71.685 343.387 73.218 342.198 75 342 C 76.365 341.848 78.142 341.928 79 343 C 79.832 344.040 79 345.668 79 347 C 79 348.332 79.165 349.678 79 351 C 78.830 352.362 78.879 353.945 78 355 C 77.047 356.144 75.168 357.701 74 357 C 72.668 356.201 73 353.698 73 352 C 73 350.627 73.319 349.192 74 348 C 74.701 346.773 76.001 345.999 77 345 C 77.999 344.001 78.783 341.757 80 342 C 81.283 342.257 81.639 344.555 82 346 C 82.323 347.292 82.323 348.708 82 350 C 81.639 351.445 80.354 354 80 354 C 79.646 354 79.261 351.108 80 350 C 80.826 348.761 82.699 347.480 84 348 C 85.199 348.480 85.681 350.808 85 352 C 84.037 353.686 81.697 354.057 80 355 C 78.698 355.723 77.383 356.447 76 357 C 74.045 357.782 72.065 358.587 70 359 C 68.694 359.261 67.332 359 66 359 C 64.668 359 63.040 359.832 62 359 C 60.928 358.142 60.702 356.340 61 355 C 61.421 353.105 62.627 351.373 64 350 C 65.698 348.302 67.974 347.289 70 346 C 71.638 344.958 73.226 343.789 75 343 C 76.255 342.442 77.654 342.269 79 342 C 80.986 341.603 82.984 341.202 85 341 C 86.325 340.867 87.668 341 89 341 C 90.998 341 93.105 340.368 95 341 C 96.340 341.447 98 342.587 98 344 C 98 345.413 96.150 346.179 95 347 C 93.788 347.866 91.122 349.122 91 349 C 90.878 348.878 92.780 346.712 94 346 C 96.833 344.347 99.907 343.092 103 342 C 105.589 341.086 108.510 339.066 111 340 C 112.510 340.566 111.184 343.345 111 345 C 110.848 346.365 110.614 347.772 110 349 C 109.255 350.489 106.338 352.558 107 353 C 107.717 353.478 110.935 351.413 113 351 C 114.306 350.739 116.168 349.960 117 351 C 118.040 352.300 117.676 354.479 117 356 C 116.235 357.721 114.685 359.158 113 360 C 111.809 360.596 109.832 361.040 109 360 C 107.960 358.700 108.473 356.580 109 355 C 109.527 353.420 110.756 352.106 112 351 C 113.795 349.405 115.974 348.289 118 347 C 119.638 345.958 121.215 344.765 123 344 C 125.904 342.756 128.981 341.929 132 341 C 133.312 340.596 134.660 340.298 136 340 C 137.658 339.632 140.270 338.027 141 339 C 141.770 340.027 139.666 342.335 139 344 C 138.334 345.665 137.950 347.479 137 349 C 136.251 350.198 134 350.587 134 352 C 134 353.665 137.235 354.352 137 356 C 136.765 357.648 134.489 358.255 133 359 C 131.772 359.614 130.365 359.848 129 360 C 127.345 360.184 125.665 360 124 360 C 122.668 360 121.324 360.147 120 360 C 118.312 359.812 116.440 359.900 115 359 C 113.588 358.118 112.745 356.489 112 355 C 111.386 353.772 111.971 351.971 111 351 C 110.029 350.029 108.373 350 107 350 C 105.302 350 103.658 350.632 102 351 C 100.660 351.298 99.286 351.518 98 352 C 96.606 352.523 95.056 354.528 94 354 C 93.056 353.528 93.058 350.942 94 350 C 94.942 349.058 98 349.333 98 350 C 98 350.751 93.898 352.898 94 353 C 94.102 353.102 97.270 351.472 99 351 C 100.954 350.467 102.998 350.308 105 350 C 107.327 349.642 109.673 349.358 112 349 C 114.002 348.692 115.995 348.286 118 348 C 120.658 347.620 123.346 347.408 126 347 C 127.678 346.742 129.335 346.333 131 346 C 132.665 345.667 134.312 345.188 136 345 C 137.324 344.853 138.668 345 140 345 C 141.665 345 143.441 344.415 145 345 C 146.323 345.496 146.701 347.443 148 348 C 149.224 348.525 150.708 348.323 152 348 C 153.445 347.639 154.587 346.471 156 346 C 157.611 345.463 159.362 345.447 161 345 C 163.032 344.446 164.983 343.605 167 343 C 168.315 342.605 169.985 341.239 171 342 C 171.985 342.739 171.323 344.708 171 346 C 170.639 347.445 169.969 348.869 169 350 C 167.916 351.264 166.385 352.076 165 353 C 163.384 354.077 161.842 355.386 160 356 C 158.736 356.421 157.040 356.832 156 356 C 154.928 355.142 154.459 353.262 155 352 C 155.656 350.470 157.588 349.882 159 349 C 160.263 348.211 161.587 347.471 163 347 C 164.611 346.463 166.342 346.368 168 346 C 169.340 345.702 171.250 344.250 172 345 C 172.750 345.750 171.843 347.916 171 349 C 169.403 351.053 166.998 352.335 165 354 C 163.002 355.665 161.361 357.910 159 359 C 156.862 359.987 154.347 359.804 152 360 C 150.341 360.138 148.665 360 147 360 C 145.668 360 143.942 360.942 143 360 C 142.058 359.058 142.711 357.300 143 356 C 143.389 354.249 143.809 352.340 145 351 C 146.595 349.205 148.892 348.150 151 347 C 152.574 346.141 154.253 345.403 156 345 C 158.616 344.396 161.339 344.355 164 344 C 166.334 343.689 168.652 343.181 171 343 C 172.992 342.847 175.002 343 177 343 C 178.332 343 180.147 341.977 181 343 C 182.297 344.556 181.798 346.984 182 349 C 182.133 350.325 182.358 353.179 182 353 C 181.642 352.821 179.802 349.782 180 348 C 180.184 346.345 181.747 345.096 183 344 C 184.461 342.721 186.070 341.214 188 341 C 189.480 340.836 191.047 341.856 192 343 C 192.879 344.055 192.830 345.638 193 347 C 193.165 348.322 193.165 349.678 193 351 C 192.830 352.362 191.663 355.169 192 355 C 192.337 354.831 193.835 351.553 195 350 C 195.848 348.870 196.927 347.919 198 347 C 199.264 345.916 200.668 344.999 202 344 C 203.332 343.001 204.668 341.999 206 341 C 207.332 340.001 208.556 337.519 210 338 C 211.556 338.519 212.178 341.216 212 343 C 211.807 344.932 209.943 346.303 209 348 C 208.277 349.302 206.310 352.345 207 352 C 208.036 351.482 211.002 347.998 213 346 C 213.999 345.001 214.773 343.701 216 343 C 217.192 342.319 218.745 342.558 220 342 C 221.774 341.211 223.158 339.614 225 339 C 226.264 338.579 228.058 338.058 229 339 C 229.942 339.942 229.165 341.678 229 343 C 228.830 344.362 228.434 345.697 228 347 C 227.433 348.701 226.728 350.361 226 352 C 225.395 353.361 223.454 356.364 224 356 C 224.661 355.559 227.251 351.924 229 350 C 230.584 348.258 232.141 346.446 234 345 C 235.176 344.086 236.587 343.471 238 343 C 239.611 342.463 241.312 342.188 243 342 C 244.324 341.853 245.977 341.147 247 342 C 248.378 343.148 248.433 345.299 249 347 C 249.434 348.303 249.830 349.638 250 351 C 250.165 352.322 249.272 354.757 250 355 C 250.772 355.257 251.885 352.867 253 352 C 254.895 350.526 256.852 349.074 259 348 C 261.545 346.728 264.155 345 267 345 C 268.413 345 269.251 346.802 270 348 C 270.950 349.521 271.611 351.249 272 353 C 272.289 354.300 272.525 355.776 272 357 C 271.443 358.299 268.444 360.185 269 360 C 269.622 359.793 273.105 357.474 275 356 C 276.115 355.133 276.773 353.701 278 353 C 279.192 352.319 280.685 352.395 282 352 C 284.017 351.395 285.928 350.377 288 350 C 289.638 349.702 291.721 348.934 293 350 C 294.304 351.087 293.831 353.310 294 355 C 294.166 356.657 295.040 358.700 294 360 C 293.168 361.040 291.332 360 290 360 C 288.002 360 285.998 360 284 360 C 282.002 360 279.998 360 278 360 C 276.668 360 275.332 360 274 360 C 272.668 360 271.332 360 270 360 C 268.335 360 266.665 360 265 360 C 263.335 360 261.665 360 260 360 C 258.002 360 255.998 360 254 360 C 252.335 360 250.559 360.585 249 360 C 247.677 359.504 247.413 357 246 357 C 243.464 357 241.447 359.333 239 360 C 237.715 360.350 236.332 360 235 360 C 232.336 360 229.664 360 227 360 C 225.668 360 224.332 360 223 360 C 221.668 360 220.023 360.853 219 360 C 217.622 358.852 217.389 356.751 217 355 C 216.711 353.700 216.579 352.264 217 351 C 217.614 349.158 218.447 347.165 220 346 C 221.358 344.981 223.342 345.368 225 345 C 226.340 344.702 227.668 344.333 229 344 C 230.332 343.667 231.638 343.170 233 343 C 234.322 342.835 236.058 342.058 237 343 C 237.942 343.942 237.421 345.736 237 347 C 236.386 348.842 235.373 350.627 234 352 C 232.627 353.373 230.677 354.022 229 355 C 226.681 356.353 224.576 358.242 222 359 C 218.789 359.944 215.342 359.833 212 360 C 208.674 360.166 205.330 360 202 360 C 199.336 360 196.664 360 194 360 C 191.669 360 189.331 360 187 360 C 185.335 360 181.932 360 182 360 C 182.068 360 186.002 360 188 360 C 189.998 360 192.002 360 194 360 C 196.331 360 198.696 360.354 201 360 C 203.082 359.680 204.965 358.543 207 358 C 209.966 357.209 212.977 356.534 216 356 C 218.644 355.533 221.334 355.314 224 355 C 226.995 354.648 230.021 354.470 233 354 C 236.354 353.470 239.646 352.530 243 352 C 245.979 351.530 248.989 351.167 252 351 C 254.992 350.834 258.008 351.166 261 351 C 264.011 350.833 266.993 350.231 270 350 C 271.328 349.898 272.960 349.168 274 350 C 275.072 350.858 273.870 353.774 275 354 C 276.370 354.274 277.668 351.999 279 351 C 280.332 350.001 281.636 348.955 283 348 C 284.967 346.623 286.852 345.074 289 344 C 290.228 343.386 291.668 343.333 293 343 C 294.332 342.667 295.985 341.239 297 342 C 297.985 342.739 297 344.668 297 346 C 297 347.665 297 349.335 297 351 C 297 352.332 297.525 353.776 297 355 C 296.443 356.299 294.174 358.349 294 358 C 293.826 357.651 294.924 354.435 296 353 C 296.999 351.668 298.636 350.955 300 350 C 301.967 348.623 303.926 347.210 306 346 C 307.930 344.874 309.938 343.859 312 343 C 313.944 342.190 315.983 341.605 318 341 C 319.315 340.605 320.660 340.298 322 340 C 323.658 339.632 325.851 337.851 327 339 C 328.351 340.351 327.166 343.009 327 345 C 326.832 347.019 326.823 349.149 326 351 C 325.426 352.291 323 354.581 323 354 C 323 353.383 324.851 349.915 326 348 C 326.857 346.572 327.886 345.238 329 344 C 330.890 341.900 332.685 339.620 335 338 C 336.125 337.213 337.772 336.386 339 337 C 340.332 337.666 340.677 339.546 341 341 C 341.361 342.625 341 344.335 341 346 C 341 347.332 341.165 348.678 341 350 C 340.830 351.362 339.172 353.793 340 354 C 341.172 354.293 343.303 351.943 345 351 C 346.302 350.277 347.587 349.471 349 349 C 350.611 348.463 352.335 348.333 354 348 C 355.665 347.667 357.310 347.169 359 347 C 360.657 346.834 362.362 346.702 364 347 C 366.072 347.377 368.401 347.629 370 349 C 371.042 349.894 370.667 351.668 371 353 C 371.333 354.332 370.870 356.774 372 357 C 373.370 357.274 374.615 354.924 376 354 C 377.616 352.923 379.303 351.943 381 351 C 382.302 350.277 383.606 349.523 385 349 C 386.286 348.518 387.638 348.170 389 348 C 390.322 347.835 391.675 348.133 393 348 C 395.016 347.798 396.983 347.183 399 347 C 400.658 346.849 402.554 346.174 404 347 C 405.293 347.739 404.555 350.639 406 351 C 408.043 351.511 410.045 349.782 412 349 C 413.383 348.447 414.606 347.523 416 347 C 417.286 346.518 418.668 346.333 420 346 C 421.332 345.667 422.714 344.518 424 345 C 425.764 345.661 427.002 347.403 428 349 C 428.728 350.164 428.566 351.697 429 353 C 429.567 354.701 429.487 358 431 358 C 432.987 358 434.250 354.575 436 353 C 437.585 351.574 439.317 350.309 441 349 C 442.314 347.978 443.511 346.745 445 346 C 446.228 345.386 447.928 344.142 449 345 C 450.326 346.061 449.812 348.312 450 350 C 450.147 351.324 450 352.668 450 354 C 450 355.332 449.039 358 450 358 C 451.539 358 453.172 355.097 455 354 C 456.538 353.077 458.299 352.567 460 352 C 461.303 351.566 462.680 350.623 464 351 C 465.358 351.388 465.736 354.632 467 354 C 469.562 352.719 470.315 349.317 472 347 C 472.979 345.653 473.736 344.084 475 343 C 476.131 342.031 478.783 340.349 479 341 C 479.230 341.691 477.077 344.384 476 346 C 475.076 347.385 474.238 348.886 473 350 C 470.871 351.916 468.440 353.499 466 355 C 464.098 356.171 462.099 357.237 460 358 C 458.404 358.580 456.561 359.669 455 359 C 453.631 358.413 453.361 356.445 453 355 C 452.677 353.708 453 352.332 453 351 C 453 349.002 452.834 346.991 453 345 C 453.168 342.981 455.088 340.360 454 339 C 453.088 337.860 450.552 339.310 449 340 C 447.479 340.676 446.428 342.143 445 343 C 443.085 344.149 440.915 344.851 439 346 C 437.572 346.857 436.466 348.211 435 349 C 432.112 350.555 428.933 351.533 426 353 C 423.599 354.201 421.460 355.924 419 357 C 416.106 358.266 413.111 359.451 410 360 C 407.377 360.463 404.664 360 402 360 C 399.336 360 396.664 360 394 360 C 392.002 360 389.998 360 388 360 C 386.668 360 385.247 360.468 384 360 C 382.441 359.415 381.625 357.361 380 357 C 378.342 356.632 376.626 357.512 375 358 C 373.282 358.515 371.751 359.611 370 360 C 368.700 360.289 367.332 360 366 360 C 364.002 360 361.998 360 360 360 C 358.002 360 355.998 360 354 360 C 352.668 360 351.247 360.468 350 360 C 348.441 359.415 346.826 358.446 346 357 C 345.339 355.844 345.532 354.247 346 353 C 346.585 351.441 347.747 350.096 349 349 C 350.461 347.721 354.067 346 354 346 C 353.940 346 349.998 348.001 348 349 C 346.002 349.999 343.998 351.001 342 352 C 340.002 352.999 338.085 354.198 336 355 C 333.737 355.870 331.342 356.375 329 357 C 326.347 357.708 323.699 358.494 321 359 C 318.361 359.495 315.679 359.821 313 360 C 310.674 360.155 308.331 360 306 360 C 304.335 360 302.665 360 301 360 C 298.336 360 295.664 360 293 360 C 291.335 360 289.300 361.040 288 360 C 286.960 359.168 287.532 357.247 288 356 C 288.585 354.441 289.904 353.253 291 352 C 292.240 350.582 293.668 349.332 295 348 C 295.999 347.001 298.616 345.822 298 345 C 297.116 343.822 294.026 344 292 344 C 289.974 344 288.017 344.817 286 345 C 284.342 345.151 282.665 345 281 345 C 279.668 345 278.264 344.579 277 345 C 275.158 345.614 273.774 347.211 272 348 C 270.745 348.558 267.919 349 268 349 C 268.081 349 271.329 348.304 273 348 C 274.993 347.638 276.995 347.286 279 347 C 281.658 346.620 284.319 346.149 287 346 C 290.325 345.815 293.673 346.151 297 346 C 301.006 345.818 304.994 345.174 309 345 C 312.660 344.841 316.337 345 320 345 C 325.661 345 331.349 345.332 337 345 C 342.690 344.665 348.326 343.549 354 343 C 358.652 342.550 363.342 342.388 368 342 C 371.335 341.722 374.699 341.550 378 341 C 380.709 340.549 383.301 339.506 386 339 C 388.639 338.505 391.346 338.408 394 338 C 395.678 337.742 397.342 337.368 399 337 C 400.340 336.702 403.381 335.619 403 336 C 402.608 336.392 399.034 338.076 397 339 C 395.367 339.742 393.701 340.433 392 341 C 390.697 341.434 388.201 342.401 388 342 C 387.799 341.599 389.885 339.867 391 339 C 392.895 337.526 395.026 336.367 397 335 C 399.355 333.369 401.763 331.789 404 330 C 405.103 329.117 405.736 327.632 407 327 C 408.519 326.241 410.851 324.851 412 326 C 413.351 327.351 412.357 330.034 412 332 C 411.679 333.764 410.871 335.432 410 337 C 409.191 338.455 408.332 340.001 407 341 C 405.565 342.076 402.349 343.174 402 343 C 401.651 342.826 405.315 339.842 405 340 C 404.685 340.158 401.907 343.046 400 344 C 398.481 344.759 396.665 344.667 395 345 C 393.335 345.333 391.678 345.742 390 346 C 387.346 346.408 384.666 346.686 382 347 C 379.005 347.352 375.999 347.684 373 348 C 369.672 348.350 366.344 348.861 363 349 C 358.342 349.194 353.662 349 349 349 C 344.671 349 340.326 349.173 336 349 C 331.993 348.840 327.918 348.852 324 348 C 320.191 347.172 316.733 345.120 313 344 C 310.059 343.118 306.978 342.745 304 342 C 301.648 341.412 299.263 340.870 297 340 C 294.915 339.198 293.062 337.859 291 337 C 289.056 336.190 286.955 335.782 285 335 C 283.617 334.447 282.332 333.666 281 333 C 279.668 332.334 278.413 331.471 277 331 C 275.389 330.463 273.626 330.488 272 330 C 270.282 329.485 268.764 328.321 267 328 C 265.034 327.643 262.980 327.736 261 328 C 257.957 328.406 255.018 329.434 252 330 C 249.686 330.434 247.275 330.393 245 331 C 242.251 331.733 239.664 333.001 237 334 C 234.336 334.999 231.652 335.969 229 337 C 225.657 338.300 222.456 340.040 219 341 C 216.413 341.719 213.664 341.667 211 342 C 208.336 342.333 205.677 342.794 203 343 C 201.340 343.128 199.633 342.673 198 343 C 196.242 343.352 193.250 344.251 193 345 C 192.783 345.650 195.635 345.848 197 346 C 198.655 346.184 200.335 346 202 346 C 203.332 346 204.676 345.853 206 346 C 207.688 346.188 209.939 345.674 211 347 C 211.858 348.072 210.894 349.958 210 351 C 208.736 352.474 206.697 353.057 205 354 C 203.698 354.723 202.402 355.499 201 356 C 197.726 357.169 194.359 358.104 191 359 C 189.359 359.438 187.691 359.846 186 360 C 184.010 360.181 181.998 360 180 360 C 178.002 360 175.998 360 174 360 C 172.335 360 170.665 360 169 360 C 167.335 360 165.665 360 164 360 C 162.002 360 159.998 360 158 360 C 156.668 360 155.224 360.525 154 360 C 152.701 359.443 152.396 357.215 151 357 C 147.692 356.491 144.340 357.791 141 358 C 139.006 358.125 136.992 357.847 135 358 C 132.652 358.181 130.323 358.613 128 359 C 126.325 359.279 124.692 359.859 123 360 C 120.677 360.194 118.331 360 116 360 C 114.002 360 111.998 360 110 360 C 108.335 360 106.665 360 105 360 C 103.668 360 101.942 360.942 101 360 C 100.058 359.058 100.475 357.224 101 356 C 101.557 354.701 103.070 354.063 104 353 C 105.404 351.395 106.817 349.774 108 348 C 108.826 346.761 110.854 344.854 110 344 C 108.854 342.854 105.998 344 104 344 C 102.002 344 99.998 344 98 344 C 96.668 344 95.311 343.762 94 344 C 91.615 344.434 89.339 345.362 87 346 C 85.675 346.361 84.325 346.639 83 347 C 80.661 347.638 78.317 348.287 76 349 C 73.987 349.619 71.998 350.334 70 351 C 68.002 351.666 66.043 352.489 64 353 C 62.035 353.491 59.993 353.638 58 354 C 56.329 354.304 54.665 354.667 53 355 C 51.335 355.333 49.671 355.696 48 356 C 46.007 356.362 43.986 356.603 42 357 C 40.654 357.269 39.262 358.541 38 358 C 36.470 357.344 35.882 355.412 35 354 C 34.211 352.737 33.523 351.394 33 350 C 32.518 348.714 32.558 347.255 32 346 C 31.211 344.226 29.614 342.842 29 341 C 28.579 339.736 28.168 338.040 29 337 C 29.858 335.928 31.638 335.830 33 336 C 34.478 336.185 35.947 336.947 37 338 C 38.053 339.053 38.639 340.555 39 342 C 39.323 343.292 39.133 344.675 39 346 C 38.798 348.016 38.823 350.149 38 352 C 37.426 353.291 36.150 354.179 35 355 C 33.788 355.866 32.474 357.211 31 357 C 29.601 356.800 27.757 355.217 28 354 C 28.257 352.717 30.644 352.616 32 352 C 34.309 350.951 36.633 349.910 39 349 C 40.966 348.244 42.948 347.474 45 347 C 47.294 346.471 49.666 346.311 52 346 C 54.661 345.645 57.320 345.167 60 345 C 62.659 344.834 65.336 345 68 345 C 71.330 345 74.690 344.632 78 345 C 80.729 345.303 83.379 346.181 86 347 C 88.716 347.849 91.321 349.043 94 350 C 95.983 350.708 98.045 351.218 100 352 C 101.383 352.553 102.617 353.447 104 354 C 105.955 354.782 107.983 355.395 110 356 C 111.315 356.395 112.635 356.848 114 357 C 115.655 357.184 117.342 357.151 119 357 C 121.017 356.817 123.026 356.455 125 356 C 127.362 355.455 129.749 354.900 132 354 C 134.765 352.894 137.174 350.942 140 350 C 143.222 348.926 146.705 348.824 150 348 C 153.373 347.157 156.702 346.099 160 345 C 161.701 344.433 163.367 343.742 165 343 C 167.034 342.076 168.915 340.802 171 340 C 173.263 339.130 175.638 338.545 178 338 C 179.974 337.545 182.014 337.397 184 337 C 185.346 336.731 186.654 336.269 188 336 C 189.986 335.603 192.007 335.362 194 335 C 195.671 334.696 197.342 334.368 199 334 C 200.340 333.702 201.638 333.170 203 333 C 204.322 332.835 205.673 333.111 207 333 C 209.675 332.777 212.336 332.333 215 332 C 217.664 331.667 220.339 331.355 223 331 C 225.334 330.689 227.664 330.292 230 330 C 232.992 329.626 236.005 329.352 239 329 C 241.666 328.686 244.336 328.333 247 328 C 249.664 327.667 252.320 327.167 255 327 C 257.659 326.834 260.341 327.166 263 327 C 265.680 326.833 268.320 326.167 271 326 C 273.659 325.834 276.341 326.166 279 326 C 281.680 325.833 284.321 325.179 287 325 C 289.326 324.845 291.669 325 294 325 C 295.665 325 297.335 325 299 325 C 301.331 325 303.676 324.821 306 325 C 308.020 325.155 310.007 325.638 312 326 C 313.671 326.304 315.481 326.241 317 327 C 318.264 327.632 318.765 329.314 320 330 C 321.841 331.023 323.948 331.526 326 332 C 328.294 332.529 330.683 332.579 333 333 C 334.351 333.246 335.635 333.848 337 334 C 338.655 334.184 340.342 333.849 342 334 C 344.017 334.183 346.002 334.667 348 335 C 349.998 335.333 352.007 335.638 354 336 C 355.671 336.304 357.309 336.846 359 337 C 360.990 337.181 363.002 337 365 337 C 366.332 337 367.668 337 369 337 C 370.998 337 373.034 336.643 375 337 C 376.764 337.321 378.299 338.433 380 339 C 381.303 339.434 382.697 339.566 384 340 C 385.701 340.567 387.479 341.050 389 342 C 390.198 342.749 390.870 344.152 392 345 C 393.553 346.165 395.303 347.057 397 348 C 398.302 348.723 399.668 349.334 401 350 C 402.332 350.666 403.555 351.639 405 352 C 406.292 352.323 407.668 352 409 352 C 410.998 352 413.002 352 415 352 C 416.332 352 417.678 352.165 419 352 C 420.362 351.830 421.635 351.152 423 351 C 424.655 350.816 426.342 351.151 428 351 C 430.017 350.817 432.014 350.397 434 350 C 435.346 349.731 438.782 349 438 349 C 436.576 349 431.989 349.601 429 350 C 426.992 350.268 425.008 350.732 423 351 C 420.011 351.399 417.003 351.727 414 352 C 409.676 352.393 405.338 352.811 401 353 C 397.673 353.145 394.330 353 391 353 C 388.003 353 384.997 353 382 353 C 378.337 353 374.655 353.236 371 353 C 364.321 352.569 357.655 351.713 351 351 C 348.331 350.714 345.639 350.495 343 350 C 340.301 349.494 337.704 348.477 335 348 C 332.030 347.476 328.995 347.352 326 347 C 323.334 346.686 320.666 346.314 318 346 C 315.005 345.648 311.999 345.316 309 345 C 305.672 344.650 302.328 344.350 299 344 C 296.001 343.684 293.010 343.177 290 343 C 287.341 342.844 284.659 343.166 282 343 C 279.320 342.833 276.680 342.167 274 342 C 271.341 341.834 268.659 342.166 266 342 C 263.320 341.833 260.661 341.355 258 341 C 255.666 340.689 253.349 340.168 251 340 C 248.675 339.834 246.326 340.155 244 340 C 241.321 339.821 238.658 339.380 236 339 C 233.995 338.714 231.993 338.362 230 338 C 228.329 337.696 226.671 337.304 225 337 C 223.007 336.638 221.016 336.202 219 336 C 217.675 335.867 216.292 336.323 215 336 C 213.555 335.639 212.332 334.666 211 334 C 209.668 333.334 208.332 332.666 207 332 C 205.668 331.334 204.413 330.471 203 330 C 201.389 329.463 199.688 329.188 198 329 C 196.676 328.853 195.327 328.889 194 329 C 191.325 329.223 188.648 329.559 186 330 C 184.646 330.226 183.346 330.731 182 331 C 180.014 331.397 177.993 331.638 176 332 C 174.329 332.304 172.665 332.667 171 333 C 169.335 333.333 167.626 333.512 166 334 C 164.282 334.515 162.718 335.485 161 336 C 159.374 336.488 157.665 336.667 156 337 C 154.335 337.333 152.626 337.512 151 338 C 149.282 338.515 147.521 339.050 146 340 C 144.802 340.749 144.227 342.299 143 343 C 141.808 343.681 140.286 343.518 139 344 C 137.606 344.523 136.394 345.477 135 346 C 133.714 346.482 132.332 346.667 131 347 C 129.668 347.333 128.346 347.731 127 348 C 125.014 348.397 123.017 348.817 121 349 C 119.342 349.151 117.665 349 116 349 C 114.668 349 113.332 349 112 349 C 110.668 349 109.322 349.165 108 349 C 106.638 348.830 105.362 348.170 104 348 C 102.678 347.835 101.324 348.147 100 348 C 98.312 347.812 96.690 347.169 95 347 C 93.343 346.834 91.655 347.184 90 347 C 88.635 346.848 87.286 346.482 86 346 C 84.606 345.477 83.239 344.826 82 344 C 80.226 342.817 78.828 341.097 77 340 C 75.462 339.077 73.604 338.802 72 338 C 70.263 337.132 68.842 335.614 67 335 C 65.736 334.579 64.332 335 63 335 C 61.668 335 60.324 334.853 59 335 C 57.312 335.188 55.665 335.667 54 336 C 52.335 336.333 50.688 336.812 49 337 C 47.676 337.147 46.324 336.853 45 337 C 43.312 337.188 41.671 337.696 40 338 C 38.007 338.362 35.998 338.667 34 339 C 32.002 339.333 29.965 339.509 28 340 C 25.957 340.511 24.096 342.210 22 342 C 20.343 341.834 19.314 340.022 18 339 C 16.317 337.691 14.828 336.097 13 335 C 11.462 334.077 9.685 333.613 8 333 C 6.021 332.280 3.685 332.264 2 331 C 0.809 330.106 -1.830 327.183 0 327 C 7.320 326.268 14.680 328.268 22 329 C 24.671 329.267 27.336 329.667 30 330 C 32.664 330.333 35.352 330.559 38 331 C 41.350 331.558 44.670 332.334 48 333 C 49.665 333.333 51.362 333.553 53 334 C 55.032 334.554 57.116 335.058 59 336 C 60.489 336.745 61.916 337.736 63 339 C 63.969 340.131 63.947 341.947 65 343 C 66.373 344.373 68.108 345.563 70 346 C 72.596 346.599 75.344 345.796 78 346 C 79.693 346.130 81.309 346.846 83 347 C 84.990 347.181 87.002 347 89 347 C 91.664 347 94.336 347 97 347 C 99.331 347 101.677 347.194 104 347 C 105.692 346.859 107.310 346.169 109 346 C 110.657 345.834 112.343 346.166 114 346 C 115.690 345.831 117.374 345.488 119 345 C 120.718 344.485 122.432 343.871 124 343 C 125.455 342.191 126.562 340.839 128 340 C 130.573 338.499 133.336 337.332 136 336 C 137.998 335.001 139.938 333.859 142 333 C 143.944 332.190 145.968 331.554 148 331 C 149.638 330.553 151.346 330.382 153 330 C 155.676 329.383 158.319 327.404 161 328 C 162.340 328.298 160.945 331.121 162 332 C 163.304 333.087 165.335 332.667 167 333 C 168.665 333.333 170.335 333.667 172 334 C 173.665 334.333 175.325 334.721 177 335 C 179.323 335.387 181.651 335.843 184 336 C 186.658 336.177 189.336 336 192 336 C 194.331 336 196.674 336.145 199 336 C 202.010 335.812 205.001 335.316 208 335 C 211.328 334.650 214.674 334.370 218 334 C 220.668 333.704 223.336 333.333 226 333 C 228.664 332.667 231.320 332.167 234 332 C 236.659 331.834 239.336 332 242 332 C 244.664 332 247.336 332 250 332 C 251.998 332 254.002 332 256 332 C 257.665 332 259.335 332 261 332 C 263.331 332 265.674 332.155 268 332 C 270.679 331.821 273.320 331.167 276 331 C 278.659 330.834 281.341 331.166 284 331 C 286.680 330.833 289.319 330.149 292 330 C 295.325 329.815 298.670 330 302 330 C 304.664 330 307.336 330 310 330 C 312.664 330 315.336 330 318 330 C 320.664 330 323.341 329.834 326 330 C 328.680 330.167 331.336 330.667 334 331 C 336.664 331.333 339.320 331.842 342 332 C 344.992 332.176 348.008 331.834 351 332 C 354.011 332.167 357.011 332.601 360 333 C 362.008 333.268 363.981 333.832 366 334 C 367.991 334.166 370.002 334 372 334 C 374.664 334 377.336 334 380 334 C 382.331 334 384.669 334 387 334 C 388.998 334 391.002 334 393 334 C 394.998 334 397.002 334 399 334 C 400.998 334 403.009 333.834 405 334 C 407.019 334.168 409.014 334.603 411 335 C 412.346 335.269 413.660 335.702 415 336 C 416.658 336.368 418.335 336.667 420 337 C 421.665 337.333 423.329 337.696 425 338 C 426.993 338.362 429.002 338.667 431 339 C 432.998 339.333 434.983 339.817 437 340 C 438.658 340.151 440.341 339.862 442 340 C 444.347 340.196 446.683 340.579 449 341 C 450.351 341.246 453.556 341.815 453 342 C 452.360 342.213 448.331 342 446 342 C 444.335 342 442.638 341.702 441 342 C 438.928 342.377 437.052 343.526 435 344 C 432.706 344.529 430.345 344.787 428 345 C 426.673 345.121 425.327 344.889 424 345 C 421.325 345.223 418.680 345.833 416 346 C 413.341 346.166 410.659 345.844 408 346 C 404.990 346.177 402.002 346.714 399 347 C 395.008 347.380 391.006 347.833 387 348 C 383.007 348.166 378.996 348 375 348 C 370.671 348 366.329 348 362 348 C 358.004 348 353.996 348 350 348 C 345.005 348 339.995 348 335 348 C 330.338 348 325.659 348.166 321 348 C 316.329 347.833 311.670 347.180 307 347 C 303.007 346.846 298.996 347 295 347 C 292.003 347 288.997 347 286 347 C 283.003 347 279.997 347 277 347 C 274.336 347 271.664 347 269 347 C 266.336 347 263.664 347 261 347 C 258.669 347 256.331 347 254 347 C 252.002 347 249.998 347 248 347 C 246.335 347 244.665 347 243 347 C 241.002 347 238.998 347 237 347 C 235.668 347 234.332 347 233 347 C 230.336 347 227.657 346.810 225 347 C 222.980 347.144 220.993 347.638 219 348 C 217.329 348.304 215.675 348.721 214 349 C 211.677 349.387 209.317 349.579 207 350 C 205.649 350.246 204.346 350.731 203 351 C 201.014 351.397 199.020 351.845 197 352 C 194.676 352.179 192.331 352 190 352 C 188.002 352 185.998 352 184 352 C 182.002 352 179.966 352.357 178 352 C 176.236 351.679 174.730 350.472 173 350 C 171.046 349.467 168.993 349.362 167 349 C 165.329 348.696 163.658 348.368 162 348 C 160.660 347.702 159.332 347.333 158 347 C 155.336 346.334 152.664 345.666 150 345 C 148.668 344.667 147.303 344.434 146 344 C 144.299 343.433 142.701 342.567 141 342 C 139.697 341.566 138.315 341.395 137 341 C 134.983 340.395 133.072 339.377 131 339 C 129.362 338.702 127.657 339.166 126 339 C 124.310 338.831 122.658 338.368 121 338 C 119.660 337.702 118.340 337.298 117 337 C 115.342 336.632 113.671 336.304 112 336 C 110.007 335.638 107.993 335.362 106 335 C 104.329 334.696 102.671 334.304 101 334 C 99.007 333.638 96.986 333.397 95 333 C 93.654 332.731 92.365 332.152 91 332 C 89.345 331.816 87.665 332 86 332 C 84.668 332 83.332 332 82 332 C 80.668 332 79.332 332 78 332 C 76.668 332 75.324 331.853 74 332 C 72.312 332.188 70.626 332.512 69 333 C 67.282 333.515 65.751 334.611 64 335 C 62.700 335.289 61.292 334.677 60 335 C 58.555 335.361 56 335.820 56 337 C 56 338.320 58.511 339.255 60 340 C 61.228 340.614 62.635 340.848 64 341 C 65.655 341.184 67.335 341 69 341 C 70.998 341 73.002 341 75 341 C 76.998 341 79.010 341.181 81 341 C 82.691 340.846 84.319 340.240 86 340 C 88.985 339.574 92.005 339.352 95 339 C 97.666 338.686 100.336 338.333 103 338 C 105.664 337.667 108.336 337.333 111 337 C 113.664 336.667 116.336 336.333 119 336 C 121.664 335.667 124.336 335.333 127 335 C 129.664 334.667 132.334 334.314 135 334 C 137.995 333.648 141.005 333.352 144 333 C 146.666 332.686 149.320 332.167 152 332 C 154.659 331.834 157.336 332 160 332 C 162.664 332 165.342 332.177 168 332 C 170.349 331.843 172.653 331.196 175 331 C 176.659 330.862 178.342 331.151 180 331 C 182.017 330.817 183.983 330.183 186 330 C 187.658 329.849 189.335 330 191 330 C 192.998 330 195.002 330 197 330 C 198.665 330 200.341 329.862 202 330 C 204.347 330.196 206.652 330.819 209 331 C 210.992 331.153 213.009 330.834 215 331 C 217.019 331.168 218.998 331.692 221 332 C 223.327 332.358 225.669 332.667 228 333 C 230.331 333.333 232.673 333.642 235 334 C 237.002 334.308 238.995 334.714 241 335 C 243.658 335.380 246.339 335.645 249 336 C 251.334 336.311 253.651 336.832 256 337 C 258.325 337.166 260.669 337 263 337 C 265.664 337 268.336 337 271 337 C 272.998 337 275.002 337 277 337 C 278.998 337 281.002 337 283 337 C 284.665 337 286.335 337 288 337 C 289.665 337 291.335 337 293 337 C 294.665 337 296.335 337 298 337 C 299.998 337 302.002 337 304 337 C 305.665 337 307.335 337 309 337 C 310.998 337 313.002 337 315 337 C 316.665 337 318.335 337 320 337 C 321.332 337 322.668 337 324 337 C 325.998 337 328.002 337 330 337 C 331.665 337 333.335 337 335 337 C 336.665 337 338.341 336.862 340 337 C 342.347 337.196 344.664 337.708 347 338 C 349.992 338.374 353.015 338.574 356 339 C 357.681 339.240 359.329 339.696 361 340 C 362.993 340.362 365.007 340.638 367 341 C 368.671 341.304 370.310 341.831 372 342 C 373.657 342.166 375.335 342 377 342 C 378.998 342 381.002 342 383 342 C 385.331 342 387.669 342 390 342 C 391.998 342 394.002 342 396 342 C 397.665 342 399.335 342 401 342 C 403.331 342 405.679 342.211 408 342 C 409.367 341.876 410.638 341.170 412 341 C 413.322 340.835 414.668 341 416 341 C 417.332 341 418.668 341 420 341 C 421.665 341 423.345 340.816 425 341 C 426.365 341.152 427.660 341.702 429 342 C 430.658 342.368 432.342 342.632 434 343 C 435.340 343.298 436.635 343.848 438 344 C 439.655 344.184 441.335 344 443 344 C 444.332 344 445.676 344.147 447 344 C 448.688 343.812 450.389 343.537 452 343 C 453.413 342.529 454.668 341.666 456 341 C 457.998 340.001 459.966 338.924 462 338 C 463.633 337.258 465.361 336.728 467 336 C 468.361 335.395 470.299 333.299 471 334 C 471.799 334.799 470.690 337.448 470 339 C 469.324 340.521 467.809 341.545 467 343 C 466.129 344.568 465.666 346.335 465 348 C 464.334 349.665 463.950 351.479 463 353 C 462.251 354.198 460.999 355.001 460 356 C 459.001 356.999 458.103 358.117 457 359 C 456.419 359.465 455 360 455 360 " transform="matrix(1, 0, 0, 1, 24, 3)"/>
  <path id="ID0.09438917273655534" fill="none" stroke="#663B00" stroke-width="4" stroke-linecap="round" d="M 83 331 C 83 331 80.900 325.699 80 323 C 79.566 321.697 79.614 320.228 79 319 C 78.255 317.511 76.797 316.462 76 315 C 74.786 312.774 74.134 310.268 73 308 C 72.132 306.263 71.165 304.553 70 303 C 69.152 301.870 67.749 301.198 67 300 C 66.050 298.479 65.728 296.639 65 295 C 64.395 293.639 63.523 292.394 63 291 C 62.518 289.714 62.558 288.255 62 287 C 61.211 285.226 59.789 283.774 59 282 C 58.442 280.745 58.395 279.315 58 278 C 57.395 275.983 56.511 274.043 56 272 C 55.509 270.035 55.397 267.986 55 266 C 54.731 264.654 54.482 263.286 54 262 C 53.477 260.606 52.323 259.454 52 258 C 51.639 256.375 52.184 254.655 52 253 C 51.848 251.635 51.170 250.362 51 249 C 50.835 247.678 51 246.332 51 245 C 51 243.335 51 241.665 51 240 C 51 238.335 51 236.665 51 235 C 51 233.668 51 232.332 51 231 C 51 229.668 51 228.332 51 227 C 51 225.668 51 224.332 51 223 C 51 221.668 51 220.332 51 219 C 51 217.668 50.835 216.322 51 215 C 51.170 213.638 51.848 212.365 52 211 C 52.184 209.345 52 207.665 52 206 C 52 204.335 52 202.665 52 201 C 52 199.335 52.184 197.655 52 196 C 51.848 194.635 51.333 193.332 51 192 C 50.667 190.668 50.170 189.362 50 188 C 49.835 186.678 50 185.332 50 184 C 50 182.668 50 181.332 50 180 C 50 178.668 49.711 177.300 50 176 C 50.389 174.249 51.272 172.639 52 171 C 52.605 169.639 53.477 168.394 54 167 C 54.482 165.714 54.702 164.340 55 163 C 55.368 161.342 55.632 159.658 56 158 C 56.298 156.660 56.667 155.332 57 154 C 57.333 152.668 57.830 151.362 58 150 C 58.165 148.678 57.835 147.322 58 146 C 58.170 144.638 58.667 143.332 59 142 C 59.333 140.668 59.702 139.340 60 138 C 60.368 136.342 60.632 134.658 61 133 C 61.298 131.660 61.702 130.340 62 129 C 62.368 127.342 62.632 125.658 63 124 C 63.298 122.660 63.848 121.365 64 120 C 64.184 118.345 63.834 116.657 64 115 C 64.169 113.310 64.831 111.690 65 110 C 65.166 108.343 64.673 106.633 65 105 C 65.352 103.242 66.433 101.701 67 100 C 67.434 98.697 67.566 97.303 68 96 C 68.567 94.299 69.433 92.701 70 91 C 70.434 89.697 70.518 88.286 71 87 C 71.523 85.606 72.277 84.302 73 83 C 73.943 81.303 74.835 79.553 76 78 C 76.848 76.870 78.179 76.150 79 75 C 79.866 73.788 80.211 72.263 81 71 C 81.882 69.588 83.255 68.489 84 67 C 84.614 65.772 84.605 64.315 85 63 C 85.605 60.983 86.218 58.955 87 57 C 87.553 55.617 88.334 54.332 89 53 C 89.666 51.668 90.211 50.263 91 49 C 91.882 47.588 93.001 46.332 94 45 C 94.999 43.668 96.255 42.489 97 41 C 97.614 39.772 97.319 38.192 98 37 C 98.701 35.773 100.081 35.073 101 34 C 102.084 32.736 102.916 31.264 104 30 C 104.919 28.927 106.081 28.073 107 27 C 108.084 25.736 108.916 24.264 110 23 C 110.919 21.927 111.927 20.919 113 20 C 114.264 18.916 116.730 18.623 117 17 C 117.230 15.623 115.240 14.677 114 14 C 111.502 12.638 108.626 12.094 106 11 C 104.625 10.427 103.426 9.428 102 9 C 100.060 8.418 98.016 8.202 96 8 C 94.675 7.867 93.325 7.867 92 8 C 89.984 8.202 87.986 8.603 86 9 C 84.654 9.269 83.340 9.702 82 10 C 80.342 10.368 78.611 10.463 77 11 C 75.587 11.471 74.394 12.477 73 13 C 71.714 13.482 70.332 13.667 69 14 C 67.668 14.333 66.286 14.518 65 15 C 63.606 15.523 62.332 16.334 61 17 C 59.668 17.666 58.383 18.447 57 19 C 55.045 19.782 52.998 20.334 51 21 C 48.003 21.999 44.979 22.949 42 24 C 39.317 24.947 36.713 26.143 34 27 C 30.379 28.143 26.694 29.121 23 30 C 19.696 30.787 16.350 31.442 13 32 C 10.352 32.441 7.648 32.559 5 33 C 3.646 33.226 1.971 33.029 1 34 C 0.029 34.971 -0.720 37.520 0 38 C 0.780 38.520 2.761 36.826 4 36 C 5.774 34.817 7.247 33.214 9 32 C 11.583 30.212 14.190 28.405 17 27 C 18.884 26.058 20.983 25.605 23 25 C 24.315 24.605 25.633 24.124 27 24 C 29.321 23.789 31.679 23.789 34 24 C 35.367 24.124 37.442 23.745 38 25 C 39.082 27.434 38.311 30.354 38 33 C 37.641 36.049 37.436 39.287 36 42 C 34.344 45.128 31.503 47.497 29 50 C 25.167 53.833 20.640 56.983 17 61 C 10.958 67.667 3.931 73.907 0 82 C -2.037 86.194 0 91.338 0 96 C 0 100.662 0 105.338 0 110 C 0 112.331 0 114.669 0 117 C 0 118.665 0 122.250 0 122 C 0 121.750 0 117.331 0 115 C 0 112.003 0 108.997 0 106 C 0 104.002 0 101.998 0 100 C 0 98.002 0 95.998 0 94 C 0 92.002 0 89.998 0 88 C 0 86.002 0 83.998 0 82 C 0 79.336 0 76.664 0 74 C 0 71.669 0 69.331 0 67 C 0 63.004 -0.969 58.877 0 55 C 0.457 53.173 2.373 51.949 4 51 C 6.458 49.566 9.336 48.999 12 48 C 14.664 47.001 17.344 46.021 20 45 C 21.674 44.356 23.315 43.613 25 43 C 26.979 42.280 29.162 40.387 31 41 C 32.162 41.387 31.289 43.700 31 45 C 30.611 46.751 29.644 48.326 29 50 C 27.979 52.656 27.121 55.385 26 58 C 25.120 60.053 24.095 62.053 23 64 C 21.096 67.385 19.239 70.827 17 74 C 15.230 76.508 12.965 78.641 11 81 C 7.970 84.636 4.196 87.808 2 92 C 0.424 95.008 0.397 98.627 0 102 C -0.272 104.315 0 106.669 0 109 C 0 111.331 0 113.669 0 116 C 0 117.332 0 120 0 120 C 0 120 0 117.332 0 116 C 0 114.002 0 111.998 0 110 C 0 107.336 0 104.664 0 102 C 0 98.670 0 95.330 0 92 C 0 89.003 0 85.997 0 83 C 0 80.669 -0.565 78.261 0 76 C 0.795 72.818 2.407 69.867 4 67 C 5.749 63.851 8.002 60.997 10 58 C 11.332 56.002 12.405 53.795 14 52 C 15.106 50.756 16.736 50.084 18 49 C 19.073 48.081 20.589 45.384 21 46 C 21.524 46.786 20.373 50.009 20 52 C 19.374 55.338 18.635 58.664 18 62 C 17.303 65.657 16.825 69.370 16 73 C 15.159 76.702 14.201 80.398 13 84 C 11.533 88.400 9.696 92.683 8 97 C 6.033 102.007 3.478 106.827 2 112 C 0.797 116.211 0.349 120.634 0 125 C -0.319 128.983 0 133.004 0 137 C 0 139.997 0 143.003 0 146 C 0 147.665 0 151.714 0 151 C 0 150.142 0 144.997 0 142 C 0 139.336 -0.646 136.584 0 134 C 0.722 131.110 2.490 128.567 4 126 C 5.826 122.895 8.195 120.117 10 117 C 11.865 113.778 13.335 110.330 15 107 C 16.998 103.004 19.240 99.106 21 95 C 23.242 89.770 25.067 84.352 27 79 C 29.397 72.363 31.262 65.503 34 59 C 36.601 52.824 40.259 47.115 43 41 C 44.594 37.443 45.417 33.562 47 30 C 48.090 27.547 49.647 25.319 51 23 C 51.978 21.323 53.806 17.225 54 18 C 54.206 18.823 52.781 24.031 52 27 C 51.115 30.362 49.873 33.635 49 37 C 47.541 42.629 46.488 48.378 45 54 C 43.490 59.704 41.390 65.265 40 71 C 38.723 76.268 38.272 81.730 37 87 C 35.937 91.403 33.962 95.574 33 100 C 32.289 103.270 32.370 106.674 32 110 C 31.704 112.668 31.441 115.352 31 118 C 30.774 119.354 30.298 120.660 30 122 C 29.632 123.658 28.907 127.093 29 127 C 29.093 126.907 30.190 122.944 31 121 C 31.859 118.938 33.141 117.062 34 115 C 34.810 113.056 35.356 111.005 36 109 C 38.353 101.681 40.739 94.348 43 87 C 44.735 81.360 46.184 75.614 48 70 C 49.848 64.288 52.152 58.712 54 53 C 55.816 47.386 57.251 41.636 59 36 C 60.248 31.977 61.321 27.863 63 24 C 64.664 20.174 67.048 16.688 69 13 C 70.045 11.026 71.076 9.034 72 7 C 72.742 5.367 73.309 1.136 74 2 C 75.234 3.542 75.693 8.618 76 12 C 76.362 15.980 76.143 20.007 76 24 C 75.809 29.335 75.417 34.678 75 40 C 74.085 51.662 73.059 63.350 72 75 C 71.394 81.666 70.760 88.350 70 95 C 69.428 100.007 68.443 104.980 68 110 C 67.443 116.311 67 127.402 67 129 C 67 130.469 67.615 121.658 68 118 C 68.947 109.003 69.905 99.980 71 91 C 71.570 86.325 72.357 81.665 73 77 C 73.689 72.008 74.499 67.014 75 62 C 75.498 57.019 75.815 52.003 76 47 C 76.148 43.007 75.826 38.992 76 35 C 76.160 31.325 76.615 27.658 77 24 C 77.281 21.330 77.559 18.648 78 16 C 78.226 14.646 79.155 11.227 79 12 C 78.713 13.435 77.566 17.982 77 21 C 76.566 23.314 76.462 25.691 76 28 C 75.461 30.693 74.636 33.329 74 36 C 72.971 40.322 72.115 44.699 71 49 C 69.783 53.693 68.352 58.344 67 63 C 65.355 68.667 63.820 74.387 62 80 C 59.823 86.712 57.801 93.523 55 100 C 52.458 105.879 48.547 111.123 46 117 C 44.199 121.156 43.887 125.883 42 130 C 40.191 133.947 37.504 137.453 35 141 C 33.500 143.125 31.665 145.002 30 147 C 28.335 148.998 26.625 150.969 25 153 C 23.960 154.300 22.329 157 22 157 C 21.671 157 22.442 154.255 23 153 C 23.789 151.226 25.057 149.697 26 148 C 26.723 146.698 27.465 145.390 28 144 C 29.134 141.051 29.891 137.958 31 135 C 31.890 132.625 33.058 130.355 34 128 C 35.057 125.358 35.917 122.631 37 120 C 38.249 116.967 39.751 114.033 41 111 C 42.083 108.369 42.661 105.510 44 103 C 45.348 100.472 47.462 98.417 49 96 C 49.800 94.744 50.465 91.286 51 92 C 51.898 93.198 52 97.315 52 100 C 52 103.015 51.316 106.001 51 109 C 50.650 112.328 50.105 115.655 50 119 C 49.771 126.322 50 133.674 50 141 C 50 144.330 50.301 147.684 50 151 C 49.633 155.034 49.009 159.077 48 163 C 46.006 170.754 43.458 178.381 41 186 C 40.127 188.708 38.918 193.541 38 194 C 37.168 194.416 36.865 190.021 37 188 C 37.204 184.937 38.297 181.988 39 179 C 39.629 176.327 40.494 173.699 41 171 C 41.495 168.361 41.667 165.664 42 163 C 42.333 160.336 42.809 157.678 43 155 C 43.142 153.007 43 150.998 43 149 C 43 147.335 43 145.665 43 144 C 43 142.002 43 139.998 43 138 C 43 136.668 43.903 133.819 43 134 C 41.403 134.319 39.665 137.335 38 139 C 36.335 140.665 34.665 142.335 33 144 C 31.335 145.665 29.742 147.416 28 149 C 26.076 150.749 23.917 152.243 22 154 C 19.917 155.909 18.091 158.099 16 160 C 14.422 161.434 12.605 162.596 11 164 C 9.937 164.930 8.821 165.850 8 167 C 7.134 168.212 6.553 169.617 6 171 C 5.218 172.955 4.441 174.941 4 177 C 3.437 179.625 3.333 182.336 3 185 C 2.667 187.664 2.495 190.361 2 193 C 1.494 195.699 0.341 198.275 0 201 C -0.330 203.643 0 206.336 0 209 C 0 211.331 0 213.669 0 216 C 0 217.998 0 221.932 0 222 C 0 222.068 0 218.665 0 217 C 0 215.002 0 212.998 0 211 C 0 208.003 -0.493 204.956 0 202 C 0.850 196.901 2.515 191.952 4 187 C 4.515 185.282 6 181.932 6 182 C 6 182.064 4.782 186.045 4 188 C 2.782 191.045 0.711 193.798 0 197 C -0.650 199.926 0 203.003 0 206 C 0 209.663 0 213.337 0 217 C 0 224.992 0 233.008 0 241 C 0 243.997 0 247.003 0 250 C 0 252.664 0 255.336 0 258 C 0 260.997 0 267 0 267 C 0 267 -0.588 260.939 0 258 C 0.438 255.810 1.874 253.930 3 252 C 4.210 249.926 5.559 247.921 7 246 C 8.560 243.919 10.440 242.081 12 240 C 13.441 238.079 14.394 235.785 16 234 C 17.426 232.415 19.226 231.183 21 230 C 22.239 229.174 23.606 228.523 25 228 C 26.286 227.518 28.029 226.029 29 227 C 30.714 228.714 30.601 231.609 31 234 C 31.274 235.642 31 237.335 31 239 C 31 241.664 31.148 244.340 31 247 C 30.814 250.341 30.350 253.672 30 257 C 29.684 259.999 29.188 262.990 29 266 C 28.855 268.326 29 270.669 29 273 C 29 275.664 29 278.336 29 281 C 29 282.332 29 283.668 29 285 C 29 286.332 28.390 289.203 29 289 C 29.724 288.759 31.070 285.705 32 284 C 33.070 282.039 33.801 279.885 35 278 C 36.145 276.201 37.583 274.594 39 273 C 40.251 271.592 41.889 268.333 43 269 C 44.389 269.833 43.642 273.673 44 276 C 44.308 278.002 44.798 279.984 45 282 C 45.133 283.325 45 284.668 45 286 C 45 287.998 45 290.002 45 292 C 45 293.332 45 294.668 45 296 C 45 297.665 45.128 299.340 45 301 C 44.794 303.677 44.441 306.352 44 309 C 43.774 310.354 42.888 313.112 43 313 C 43.112 312.888 44.272 309.639 45 308 C 45.605 306.639 45.587 304.471 47 304 C 48.413 303.529 49.668 305.334 51 306 C 52.332 306.666 54.047 306.856 55 308 C 55.879 309.055 56.614 310.772 56 312 C 55.334 313.332 53.445 313.639 52 314 C 50.708 314.323 49.324 314.147 48 314 C 46.312 313.812 44.519 313.759 43 313 C 41.736 312.368 40.701 311.227 40 310 C 39.319 308.808 39.170 307.362 39 306 C 38.835 304.678 38.261 303.108 39 302 C 39.826 300.761 41.520 299.836 43 300 C 44.930 300.214 46.549 301.710 48 303 C 49.594 304.417 50.691 306.317 52 308 C 53.022 309.314 54.255 310.511 55 312 C 55.614 313.228 56.681 314.808 56 316 C 55.037 317.686 52.737 318.132 51 319 C 49.396 319.802 47.633 320.258 46 321 C 43.966 321.924 42.140 323.358 40 324 C 38.724 324.383 37.306 323.739 36 324 C 33.935 324.413 32.017 325.395 30 326 C 28.685 326.395 25.831 327.337 26 327 C 26.169 326.663 29.335 324.999 31 324 C 32.665 323.001 34.133 321.533 36 321 C 38.899 320.172 41.993 320.231 45 320 C 46.328 319.898 47.668 320 49 320 C 50.665 320 52.335 320 54 320 C 55.998 320 58.002 320 60 320 C 61.332 320 62.694 319.739 64 320 C 66.065 320.413 67.968 321.446 70 322 C 71.638 322.447 73.448 322.310 75 323 C 76.521 323.676 79.248 325.010 79 326 C 78.748 327.010 75.693 327.130 74 327 C 71.262 326.789 68.673 325.629 66 325 C 63.012 324.297 59.978 323.745 57 323 C 54.648 322.412 52.300 321.767 50 321 C 47.301 320.100 44.615 319.121 42 318 C 39.947 317.120 37.998 315.999 36 315 C 34.002 314.001 32.099 312.763 30 312 C 28.404 311.420 26.626 311.488 25 311 C 23.282 310.485 21.521 309.950 20 309 C 18.802 308.251 16.757 307.217 17 306 C 17.257 304.717 19.668 304.666 21 304 C 22.332 303.334 23.587 302.471 25 302 C 26.611 301.463 30.068 301 30 301 C 29.933 301 25.986 301.603 24 302 C 22.654 302.269 21.340 302.702 20 303 C 18.342 303.368 16.688 303.812 15 304 C 13.676 304.147 12.332 304 11 304 C 9.668 304 8.224 304.525 7 304 C 5.701 303.443 4 302.413 4 301 C 4 299.058 5.627 297.373 7 296 C 8.053 294.947 9.947 295.053 11 294 C 12.698 292.302 13.405 289.795 15 288 C 16.106 286.756 17.747 286.096 19 285 C 20.418 283.760 21.493 282.130 23 281 C 24.191 280.106 25.737 279.789 27 279 C 28.412 278.118 29.736 277.084 31 276 C 32.073 275.081 32.773 273.701 34 273 C 35.192 272.319 36.928 271.142 38 272 C 39.326 273.061 38.846 275.309 39 277 C 39.181 278.990 39.328 281.029 39 283 C 38.654 285.077 38.023 287.159 37 289 C 36.314 290.235 34.520 292.866 34 292 C 33.020 290.366 34.177 286.658 34 284 C 33.843 281.651 33.157 279.349 33 277 C 32.823 274.342 33.140 271.660 33 269 C 32.807 265.327 32.160 261.675 32 258 C 31.826 254.008 31.834 249.993 32 246 C 32.167 241.994 32.692 237.998 33 234 C 33.358 229.340 33.667 224.662 34 220 C 34.333 215.338 34.820 210.670 35 206 C 35.154 202.007 35 197.996 35 194 C 35 187.340 35.246 180.655 35 174 C 34.913 171.647 34.181 169.348 34 167 C 33.847 165.008 34.166 162.991 34 161 C 33.832 158.981 33.362 156.993 33 155 C 32.696 153.329 33.108 150 32 150 C 30.608 150 28.792 153.020 28 155 C 27.382 156.546 28.151 158.342 28 160 C 27.817 162.017 27.092 163.977 27 166 C 26.758 171.323 27 176.672 27 182 C 27 184.997 27 188.003 27 191 C 27 193.664 27.241 196.347 27 199 C 26.574 203.690 26.022 208.403 25 213 C 24.677 214.454 23.309 217.927 23 217 C 22.344 215.031 23 210.330 23 207 C 23 204.336 23 201.664 23 199 C 23 195.337 23.159 191.660 23 188 C 22.826 183.994 22.333 179.996 22 176 C 21.667 172.004 21.363 167.993 21 164 C 20.697 160.667 20.317 157.332 20 154 C 19.651 150.338 19.204 146.672 19 143 C 18.871 140.673 19 138.331 19 136 C 19 134.335 19 131.083 19 131 C 19 130.917 18.898 133.672 19 135 C 19.231 138.007 19.714 140.998 20 144 C 20.380 147.992 20.680 152.003 21 156 C 21.346 160.328 21.386 164.702 22 169 C 22.720 174.043 24.327 178.951 25 184 C 25.662 188.962 25.821 193.997 26 199 C 26.155 203.326 26 207.671 26 212 C 26 215.996 26.181 220.008 26 224 C 25.848 227.343 25.582 230.704 25 234 C 24.579 236.387 23.828 238.722 23 241 C 22.491 242.400 21.111 245.111 21 245 C 20.889 244.889 21.696 241.671 22 240 C 22.362 238.007 22.714 236.005 23 234 C 23.380 231.342 23.833 228.680 24 226 C 24.166 223.341 23.860 220.660 24 218 C 24.193 214.327 24.833 210.674 25 207 C 25.166 203.341 25 199.663 25 196 C 25 192.004 25 187.996 25 184 C 25 180.670 25 177.330 25 174 C 25 170.004 25.332 165.982 25 162 C 24.664 157.963 23.367 154.034 23 150 C 22.699 146.684 23 143.330 23 140 C 23 136.004 24.480 129.776 23 128 C 22.014 126.817 19.290 131.742 18 134 C 16.588 136.470 15.724 139.249 15 142 C 14.053 145.600 13.730 149.349 13 153 C 12.065 157.675 11.197 162.385 10 167 C 8.863 171.384 7.018 175.587 6 180 C 5.015 184.268 4.784 188.691 4 193 C 2.785 199.682 1.117 206.301 0 213 C -0.279 214.675 0 217.769 0 217 C 0 215.556 0 210.997 0 208 C 0 205.003 -0.143 201.994 0 199 C 0.191 194.995 0.557 190.985 1 187 C 1.556 181.992 2.245 176.982 3 172 C 3.910 165.992 5.062 160.004 6 154 C 6.727 149.347 7.609 144.693 8 140 C 8.277 136.682 8 133.330 8 130 C 8 127.336 8 124.664 8 122 C 8 118.670 8 115.330 8 112 C 8 109.003 8 105.997 8 103 C 8 100.336 8 97.664 8 95 C 8 93.002 8 90.998 8 89 C 8 87.335 7.673 85.633 8 84 C 8.352 82.242 8.653 78.615 10 79 C 12.153 79.615 13.789 83.404 15 86 C 16.161 88.488 16.334 91.336 17 94 C 17.666 96.664 18.494 99.301 19 102 C 19.495 104.639 19.667 107.336 20 110 C 20.333 112.664 20.704 115.332 21 118 C 21.370 121.326 21.824 124.658 22 128 C 22.158 130.993 21.850 134.007 22 137 C 22.184 140.674 22.728 144.332 23 148 C 23.394 153.324 23.469 158.688 24 164 C 24.137 165.366 24.536 168.773 25 168 C 25.984 166.360 26.466 162.023 27 159 C 27.467 156.356 27.667 153.664 28 151 C 28.333 148.336 28.704 145.668 29 143 C 29.370 139.674 29.630 136.326 30 133 C 30.296 130.332 30.842 127.680 31 125 C 31.176 122.008 30.779 118.989 31 116 C 31.446 109.986 32.478 104.008 33 98 C 33.144 96.341 32.834 94.657 33 93 C 33.169 91.310 34 87.280 34 88 C 34 88.849 33.333 94.003 33 97 C 32.667 99.997 32.316 103.001 32 106 C 31.650 109.328 31.522 112.694 31 116 C 30.521 119.033 29.434 121.961 29 125 C 28.433 128.970 28.296 133.001 28 137 C 27.630 141.992 27.498 147.019 27 152 C 26.499 157.014 25.485 161.984 25 167 C 24.486 172.314 24.184 177.665 24 183 C 23.851 187.326 24 191.671 24 196 C 24 200.662 24.212 205.343 24 210 C 23.878 212.682 23.408 215.346 23 218 C 22.742 219.678 22.117 222.883 22 223 C 21.883 223.117 22 220.332 22 219 C 22 217.335 21.872 215.660 22 214 C 22.206 211.323 22.645 208.661 23 206 C 23.311 203.666 23.832 201.349 24 199 C 24.166 196.675 23.821 194.324 24 192 C 24.155 189.980 24.603 187.986 25 186 C 25.269 184.654 25.566 183.303 26 182 C 26.567 180.299 26.873 176.436 28 177 C 29.873 177.936 31.058 182.174 32 185 C 32.745 187.234 32.689 189.666 33 192 C 33.355 194.661 33.851 197.319 34 200 C 34.185 203.325 34 206.670 34 210 C 34 212.997 34 216.003 34 219 C 34 222.330 34.185 225.675 34 229 C 33.851 231.681 33.480 234.359 33 237 C 32.147 241.691 31.106 247.682 30 251 C 29.612 252.165 29.805 247.654 30 246 C 30.473 241.977 31.368 238.002 32 234 C 32.367 231.674 32.613 229.323 33 227 C 33.279 225.325 33.696 223.671 34 222 C 34.362 220.007 34.798 218.016 35 216 C 35.133 214.675 34.853 213.324 35 212 C 35.188 210.312 35.382 206.588 36 207 C 36.656 207.437 37.412 211.648 38 214 C 38.412 215.647 38.696 217.329 39 219 C 39.362 220.993 39.808 222.984 40 225 C 40.475 229.984 40.750 235 41 240 C 41.083 241.663 41 243.335 41 245 C 41 246.998 41 249.002 41 251 C 41 252.665 41 255.917 41 256 C 41 256.083 41 253.332 41 252 C 41 250.335 41 248.665 41 247 C 41 245.335 41 243.665 41 242 C 41 240.002 40.834 237.991 41 236 C 41.168 233.981 41.881 232.022 42 230 C 42.215 226.343 42 222.663 42 219 C 42 217.002 42 214.998 42 213 C 42 211.002 42 207.068 42 207 C 42 206.932 42 210.335 42 212 C 42 213.998 42.181 216.010 42 218 C 41.846 219.691 41.141 221.308 41 223 C 40.806 225.323 41.155 227.674 41 230 C 40.821 232.679 40.355 235.339 40 238 C 39.689 240.334 39.311 242.666 39 245 C 38.645 247.661 38.314 250.334 38 253 C 37.648 255.995 37.591 259.043 37 262 C 36.587 264.065 35.782 266.045 35 268 C 34.447 269.383 33.087 272 33 272 C 32.913 272 33.623 269.320 34 268 C 34.955 264.657 36.157 261.373 37 258 C 37.491 256.035 37.798 254.016 38 252 C 38.133 250.675 37.711 249.300 38 248 C 38.389 246.249 39.251 243.250 40 243 C 40.650 242.783 40.848 245.635 41 247 C 41.184 248.655 40.849 250.342 41 252 C 41.183 254.017 41.845 255.980 42 258 C 42.179 260.324 42 262.669 42 265 C 42 267.331 42.194 269.677 42 272 C 41.859 273.692 41 277 41 277 C 41 277 41.463 273.611 42 272 C 42.471 270.587 43.220 268 44 268 C 44.720 268 44.863 270.634 45 272 C 45.199 273.988 45 276.002 45 278 C 45 279.665 44.816 281.345 45 283 C 45.152 284.365 45.272 285.836 46 287 C 46.998 288.597 48.955 289.433 50 291 C 50.995 292.492 51.005 294.508 52 296 C 53.045 297.567 54.493 298.870 56 300 C 57.191 300.894 58.869 301.031 60 302 C 61.264 303.084 62.415 304.441 63 306 C 63.468 307.247 63.832 308.960 63 310 C 62.142 311.072 60.346 310.731 59 311 C 57.014 311.397 55.017 311.817 53 312 C 51.342 312.151 49.665 312 48 312 C 46.335 312 44.665 312 43 312 C 40.669 312 38.325 312.166 36 312 C 33.651 311.832 31.334 311.311 29 311 C 26.339 310.645 23.633 310.527 21 310 C 18.623 309.525 16.317 308.713 14 308 C 11.987 307.381 9.998 306.666 8 306 C 6.002 305.334 3.685 305.264 2 304 C 0.809 303.106 0.323 301.454 0 300 C -0.361 298.375 0 296.665 0 295 C 0 293.668 0 292.332 0 291 C 0 289.668 -0.832 288.040 0 287 C 0.858 285.928 2.772 285.386 4 286 C 5.332 286.666 5.708 288.540 6 290 C 6.392 291.959 6 294.002 6 296 C 6 297.665 6.166 299.343 6 301 C 5.831 302.690 5.181 306.544 5 306 C 4.819 305.456 4.796 300.656 5 298 C 5.130 296.307 5.696 294.671 6 293 C 6.362 291.007 6.444 288.948 7 287 C 8.446 281.937 10.270 276.973 12 272 C 12.935 269.313 14.100 266.699 15 264 C 15.767 261.700 16.185 259.283 17 257 C 17.853 254.612 19.058 252.355 20 250 C 21.057 247.358 22.001 244.664 23 242 C 23.999 239.336 25.151 236.716 26 234 C 26.819 231.379 27.132 228.605 28 226 C 28.471 224.587 29.608 223.437 30 222 C 30.620 219.728 30.642 217.327 31 215 C 31.308 212.998 32.570 209.190 32 209 C 31.430 208.810 29.223 212.253 28 214 C 26.887 215.591 25.943 217.303 25 219 C 24.277 220.302 23.354 223.177 23 223 C 22.646 222.823 23 219.665 23 218 C 23 216.002 23 213.998 23 212 C 23 209.003 23 205.997 23 203 C 23 201.002 23 198.998 23 197 C 23 195.335 23.151 193.658 23 192 C 22.817 189.983 22.604 187.933 22 186 C 20.930 182.577 19.070 179.423 18 176 C 17.396 174.067 18.177 171.648 17 170 C 16.202 168.883 14.015 168.239 13 169 C 12.015 169.739 13.121 171.673 13 173 C 12.787 175.345 12.292 177.664 12 180 C 11.626 182.992 11.691 186.065 11 189 C 10.348 191.770 8.900 194.301 8 197 C 6.901 200.298 6.047 203.685 5 207 C 4.049 210.012 2.766 212.935 2 216 C 1.097 219.612 0.323 223.291 0 227 C -0.346 230.981 0 235.004 0 239 C 0 242.330 0 245.670 0 249 C 0 251.664 0 254.336 0 257 C 0 258.998 0 261.002 0 263 C 0 264.332 0 265.668 0 267 C 0 268.332 0 271 0 271 C 0 271 0 268.332 0 267 C 0 264.003 0 260.997 0 258 C 0 256.002 0 253.998 0 252 C 0 250.335 0 248.665 0 247 C 0 244.336 0 241.664 0 239 C 0 237.335 -0.151 235.658 0 234 C 0.183 231.983 0.308 229.904 1 228 C 1.664 226.175 2.923 224.616 4 223 C 4.924 221.615 6.288 218.763 7 219 C 7.712 219.237 7.088 222.337 7 224 C 6.754 228.667 6.212 233.331 6 238 C 5.879 240.661 6 243.336 6 246 C 6 248.664 6 251.336 6 254 C 6 257.330 5.855 260.673 6 264 C 6.189 268.338 6.793 272.663 7 277 C 7.127 279.661 7 282.336 7 285 C 7 286.998 7 289.002 7 291 C 7 292.332 6.412 295.941 7 295 C 8.912 291.941 10.631 287.107 12 283 C 12.641 281.078 12.467 278.954 13 277 C 13.472 275.270 14.251 272.250 15 272 C 15.650 271.783 15.848 274.635 16 276 C 16.184 277.655 16.195 279.346 16 281 C 15.527 285.023 14.666 289.004 14 293 C 13.667 294.998 13.362 297.007 13 299 C 12.696 300.671 12.304 302.329 12 304 C 11.638 305.993 12.074 308.282 11 310 C 10.211 311.263 7.789 310.737 7 312 C 5.926 313.718 6.533 316.046 6 318 C 5.528 319.730 4.749 322.750 4 323 C 3.350 323.217 3 320.373 3 319 C 3 317.627 3.691 316.338 4 315 C 4.690 312.009 5.398 309.010 6 306 C 6.397 304.014 6.749 302.010 7 300 C 7.748 294.016 8.281 287.988 9 282 C 9.281 279.662 9.471 277.294 10 275 C 10.474 272.948 11.308 270.989 12 269 C 13.972 263.330 16.036 257.673 18 252 C 19.033 249.015 20.001 245.997 21 243 C 21.999 240.003 23.064 237.017 24 234 C 26.061 227.359 28.420 220.771 30 214 C 30.760 210.741 30.504 207.310 31 204 C 31.504 200.642 32.662 197.379 33 194 C 33.331 190.687 33 187.330 33 184 C 33 181.003 32.834 177.992 33 175 C 33.167 171.989 33.842 169.011 34 166 C 34.175 162.675 34 159.330 34 156 C 34 152.670 34 149.330 34 146 C 34 142.670 34 139.330 34 136 C 34 133.003 34 129.997 34 127 C 34 124.336 34 121.664 34 119 C 34 116.336 34 113.664 34 111 C 34 108.336 34 105.664 34 103 C 34 100.669 34 98.331 34 96 C 34 93.336 34 90.664 34 88 C 34 86.002 34 83.998 34 82 C 34 78.670 34 75.330 34 72 C 34 70.002 34 67.998 34 66 C 34 64.002 34 61.998 34 60 C 34 58.668 34 57.332 34 56 C 34 54.668 34 53.332 34 52 C 34 50.668 34 49.332 34 48 C 34 46.335 33.473 44.580 34 43 C 34.527 41.420 35.823 40.177 37 39 C 38.839 37.161 41.002 35.665 43 34 C 44.998 32.335 46.987 30.647 49 29 C 50.650 27.650 52.406 26.417 54 25 C 55.408 23.749 56.592 22.251 58 21 C 59.594 19.583 61.406 18.417 63 17 C 64.408 15.749 65.493 14.130 67 13 C 68.191 12.106 69.737 11.789 71 11 C 72.412 10.118 73.511 8.745 75 8 C 76.228 7.386 77.714 7.482 79 7 C 80.394 6.477 81.761 4.174 83 5 C 84.752 6.168 84.860 8.899 85 11 C 85.532 18.974 85.228 27.011 85 35 C 84.895 38.677 84.658 42.381 84 46 C 81.990 57.052 79.667 68.088 77 79 C 76 83.092 74.332 87.004 73 91 C 71.668 94.996 70.595 99.101 69 103 C 67.590 106.446 65.307 109.514 64 113 C 63.289 114.897 63 120.514 63 119 C 63 114.516 63.540 106.986 64 101 C 64.206 98.323 64.667 95.664 65 93 C 65.333 90.336 65.833 87.680 66 85 C 66.166 82.341 65.873 79.661 66 77 C 66.207 72.663 66.759 68.335 67 64 C 67.092 62.338 66.861 58.722 67 59 C 67.139 59.278 67.843 63.651 68 66 C 68.177 68.658 68.156 71.341 68 74 C 67.823 77.010 67.564 80.038 67 83 C 66.229 87.046 64.999 91.004 64 95 C 62.668 100.328 61.415 105.693 60 111 C 58.751 115.685 57.702 120.460 56 125 C 54.693 128.486 52.445 131.569 51 135 C 49.774 137.912 48.999 141.003 48 144 C 47.001 146.997 46.063 150.025 45 153 C 44.397 154.689 43.174 158.872 43 158 C 42.752 156.760 43.311 151.275 44 148 C 44.651 144.909 45.797 141.921 47 139 C 48.134 136.246 50.130 133.848 51 131 C 53.809 121.809 55.723 112.337 58 103 C 59.053 98.684 60.324 94.391 61 90 C 61.660 85.709 61.624 81.325 62 77 C 62.290 73.666 62.630 70.326 63 67 C 63.296 64.332 63.505 61.639 64 59 C 64.506 56.301 65.425 53.685 66 51 C 66.424 49.019 66.798 47.016 67 45 C 67.133 43.675 67.367 40.023 67 41 C 65.867 44.023 64.943 48.991 64 53 C 63.611 54.653 63.382 56.346 63 58 C 62.383 60.676 61.714 63.348 61 66 C 59.383 72.007 57.350 77.927 56 84 C 55.346 86.944 55.524 90.030 55 93 C 54.523 95.704 53.539 98.307 53 101 C 52.538 103.309 52.213 105.655 52 108 C 51.879 109.327 52 112.769 52 112 C 52 110.556 51.824 105.992 52 103 C 52.158 100.320 52.842 97.680 53 95 C 53.176 92.008 53 88.997 53 86 C 53 80.339 53 74.661 53 69 C 53 66.669 53 64.331 53 62 C 53 60.002 53 57.998 53 56 C 53 54.668 53 53.332 53 52 C 53 50.668 53.092 48 53 48 C 52.908 48 52.152 50.635 52 52 C 51.816 53.655 51.765 55.352 52 57 C 52.105 57.737 53 59 53 59 " transform="matrix(1, 0, 0, 1, 24, 3)"/>
  <path id="ID0.03015061980113387" fill="none" stroke="#006622" stroke-width="4" stroke-linecap="round" d="M 75 20 C 75 20 67.636 23.278 64 25 C 61.308 26.275 58.826 28.058 56 29 C 52.778 30.074 49.365 30.541 46 31 C 42.027 31.542 38.007 31.846 34 32 C 29.341 32.179 24.662 32 20 32 C 14.339 32 8.492 33.373 3 32 C 1.116 31.529 0.511 28.873 0 27 C -0.526 25.072 0 22.998 0 21 C 0 18.669 0 16.331 0 14 C 0 12.668 -2.214 11.107 0 10 C 8.856 5.572 18.222 1.552 28 0 C 39.511 -1.827 51.345 0 63 0 C 76.653 0 90.347 0 104 0 C 117.986 0 132.015 -0.166 146 0 C 159.989 0.167 174.086 -0.454 188 1 C 196.515 1.890 204.812 4.498 213 7 C 216.848 8.176 220.684 9.720 224 12 C 226.143 13.473 227.910 15.639 229 18 C 229.987 20.138 230 22.645 230 25 C 230 27.355 229.987 29.862 229 32 C 227.910 34.361 226.031 36.375 224 38 C 220.968 40.426 217.530 42.382 214 44 C 209.500 46.063 204.866 48.088 200 49 C 194.100 50.106 188.001 49.838 182 50 C 175.675 50.171 169.321 50.269 163 50 C 153.661 49.603 144.291 49.032 135 48 C 126.294 47.033 117.645 45.415 109 44 C 99.329 42.417 89.616 40.889 80 39 C 70.962 37.225 61.886 35.423 53 33 C 47.208 31.420 41.675 28.957 36 27 C 32.018 25.627 27.976 24.391 24 23 C 21.315 22.060 18.400 21.527 16 20 C 14.595 19.106 13.478 17.595 13 16 C 12.426 14.086 11.892 11.662 13 10 C 14.847 7.229 18.130 5.688 21 4 C 23.827 2.337 26.765 0.539 30 0 C 34.927 -0.821 40.005 0 45 0 C 49.995 0 55.005 0 60 0 C 64.662 0 69.338 0 74 0 C 78.995 0 84.005 0 89 0 C 92.996 0 97.004 0 101 0 C 103.331 0 105.669 0 108 0 C 109.332 0 111.813 -1.121 112 0 C 112.313 1.879 110.729 4.585 109 6 C 106.798 7.802 103.760 8.310 101 9 C 97.070 9.983 93.026 10.553 89 11 C 84.025 11.553 78.993 11.643 74 12 C 69.669 12.309 65.339 12.845 61 13 C 56.008 13.178 50.995 13 46 13 C 41.338 13 36.650 13.332 32 13 C 27.303 12.664 22.655 11.716 18 11 C 13.996 10.384 9.903 10.084 6 9 C 3.848 8.402 1.239 7.859 0 6 C -1.108 4.338 -1.938 0.485 0 0 C 7.753 -1.938 16.008 0 24 0 C 28.329 0 32.671 0 37 0 C 41.995 0 47.005 0 52 0 C 60.658 0 69.342 0 78 0 C 80.165 0 83 0 83 0 C 83 0 79.661 -0.111 78 0 C 74.661 0.223 71.159 -0.106 68 1 C 64.335 2.283 61.616 5.585 58 7 C 53.863 8.619 49.387 9.298 45 10 C 41.041 10.634 36.985 10.557 33 11 C 27.992 11.556 22.995 12.334 18 13 C 13.005 13.666 8.031 15.280 3 15 C 1.589 14.922 0.557 13.299 0 12 C -0.525 10.776 0 9.332 0 8 C 0 6.002 -0.894 3.787 0 2 C 0.666 0.668 2.519 0.156 4 0 C 8.968 -0.523 14.005 0 19 0 C 27.325 0 35.675 0 44 0 C 53.657 0 63.343 0 73 0 C 81.658 0 90.342 0 99 0 C 104.661 0 110.339 0 116 0 C 120.329 0 124.671 0 129 0 C 132.330 0 135.670 0 139 0 C 140.665 0 142.335 0 144 0 C 145.332 0 147.841 -1.276 148 0 C 148.341 2.724 146.434 5.542 145 8 C 144.051 9.627 142.567 10.955 141 12 C 138.522 13.652 135.695 14.732 133 16 C 130.032 17.396 126.997 18.668 124 20 C 121.003 21.332 118.153 23.099 115 24 C 113.399 24.457 111.665 24 110 24 C 108.002 24 105.998 24 104 24 C 102.002 24 99.971 24.328 98 24 C 95.923 23.654 93.841 23.023 92 22 C 90.765 21.314 90.150 19.821 89 19 C 87.788 18.134 86.131 17.969 85 17 C 83.736 15.916 83.084 14.264 82 13 C 81.081 11.927 79.574 11.291 79 10 C 78.177 8.149 78.202 6.016 78 4 C 77.867 2.675 76.960 0.832 78 0 C 79.300 -1.040 81.335 0 83 0 C 84.332 0 85.668 0 87 0 C 88.998 0 91.002 0 93 0 C 95.664 0 98.336 0 101 0 C 103.997 0 107.003 0 110 0 C 112.664 0 115.336 0 118 0 C 120.997 0 124.003 0 127 0 C 128.665 0 132.068 0 132 0 C 131.932 0 127.895 -0.632 126 0 C 123.722 0.759 122.085 2.809 120 4 C 117.414 5.478 114.695 6.732 112 8 C 109.032 9.396 106.023 10.727 103 12 C 99.695 13.392 96.343 14.700 93 16 C 90.348 17.031 87.699 18.100 85 19 C 81.702 20.099 78.402 21.284 75 22 C 72.049 22.621 69.012 22.849 66 23 C 62.342 23.183 58.663 23 55 23 C 52.003 23 48.976 23.350 46 23 C 43.273 22.679 40.563 21.986 38 21 C 36.188 20.303 34.077 19.616 33 18 C 31.876 16.315 31.162 13.844 32 12 C 33.076 9.632 35.717 8.245 38 7 C 39.491 6.187 41.319 6.240 43 6 C 45.985 5.574 49.015 5.426 52 5 C 56.010 4.427 59.976 3.464 64 3 C 68.643 2.464 73.328 2.137 78 2 C 84.657 1.804 91.364 1.435 98 2 C 107.056 2.771 116.240 3.577 125 6 C 132.039 7.947 138.333 12.018 145 15 C 150.987 17.679 157.034 20.273 163 23 C 168.690 25.601 174.446 28.120 180 31 C 183.448 32.788 186.769 34.846 190 37 C 191.774 38.183 193.721 39.294 195 41 C 195.824 42.098 196.737 43.842 196 45 C 194.100 47.986 191.166 50.417 188 52 C 184.316 53.842 180.071 54.374 176 55 C 171.380 55.711 166.673 55.901 162 56 C 151.013 56.234 139.987 56.234 129 56 C 124.327 55.901 119.620 55.711 115 55 C 110.929 54.374 106.945 53.184 103 52 C 100.275 51.182 97.615 50.121 95 49 C 92.947 48.120 90.930 47.126 89 46 C 86.926 44.790 84.998 43.332 83 42 C 81.002 40.668 78.875 39.500 77 38 C 75.529 36.823 74.394 35.267 73 34 C 70.728 31.935 68.075 30.263 66 28 C 64.377 26.230 63.074 24.148 62 22 C 61.058 20.116 60.554 18.032 60 16 C 59.553 14.362 58.588 12.647 59 11 C 59.343 9.629 60.802 8.749 62 8 C 63.521 7.050 65.236 6.321 67 6 C 68.966 5.643 71.010 6.181 73 6 C 74.691 5.846 76.322 5.258 78 5 C 80.654 4.592 83.320 4.158 86 4 C 88.992 3.824 92.003 4 95 4 C 98.330 4 101.711 3.481 105 4 C 108.120 4.493 111.056 5.855 114 7 C 117.057 8.189 120.271 9.181 123 11 C 124.385 11.924 125.076 13.615 126 15 C 127.077 16.616 128.653 18.090 129 20 C 129.362 21.993 129.042 24.263 128 26 C 126.903 27.828 124.907 29.046 123 30 C 119.514 31.743 115.681 32.720 112 34 C 108.022 35.384 104.142 37.233 100 38 C 95.078 38.912 90.003 38.827 85 39 C 80.341 39.161 75.660 39.133 71 39 C 64.002 38.800 56.982 38.511 50 38 C 43.325 37.512 36.636 36.873 30 36 C 23.975 35.207 17.994 33.999 12 33 C 8.004 32.334 3.623 32.812 0 31 C -1.191 30.404 0 28.332 0 27 C 0 25.335 0 23.665 0 22 C 0 20.335 0 18.665 0 17 C 0 15.668 0 14.332 0 13 C 0 11.668 0 10.332 0 9 C 0 6.669 -1.431 3.840 0 2 C 1.488 0.086 4.586 0.219 7 0 C 11.974 -0.452 17.005 0 22 0 C 26.662 0 31.338 0 36 0 C 40.995 0 46.005 0 51 0 C 54.330 0 57.670 0 61 0 C 64.663 0 68.337 0 72 0 C 75.330 0 78.670 0 82 0 C 84.664 0 87.336 0 90 0 C 91.332 0 92.668 0 94 0 C 95.332 0 97.813 -1.121 98 0 C 98.313 1.879 96.494 4.340 95 6 C 93.394 7.785 90.998 8.668 89 10 C 87.002 11.332 85.148 12.926 83 14 C 80.455 15.272 77.699 16.100 75 17 C 71.702 18.099 68.362 19.115 65 20 C 62.031 20.781 59.053 21.679 56 22 C 52.688 22.349 49.330 22 46 22 C 43.336 22 40.658 22.177 38 22 C 35.651 21.843 33.251 21.692 31 21 C 28.865 20.343 26.885 19.199 25 18 C 23.201 16.855 21.183 15.774 20 14 C 19.058 12.587 18.667 10.665 19 9 C 19.381 7.096 20.484 5.213 22 4 C 23.980 2.416 26.524 1.550 29 1 C 32.591 0.202 36.326 0.167 40 0 C 43.659 -0.166 47.337 0 51 0 C 57.660 0 64.340 0 71 0 C 80.324 0 89.676 0 99 0 C 106.659 0 114.341 0 122 0 C 129.659 0 137.376 -0.726 145 0 C 151.437 0.613 157.697 2.559 164 4 C 169.354 5.224 174.697 6.572 180 8 C 183.357 8.904 186.890 9.445 190 11 C 191.685 11.842 192.955 13.433 194 15 C 194.995 16.492 196.567 18.299 196 20 C 195.326 22.023 192.799 22.855 191 24 C 189.115 25.199 187.028 26.064 185 27 C 182.697 28.063 180.375 29.110 178 30 C 175.042 31.109 171.997 32.001 169 33 C 166.003 33.999 163.044 35.154 160 36 C 157.042 36.822 154.049 37.641 151 38 C 148.354 38.311 145.664 38 143 38 C 140.336 38 137.664 38 135 38 C 132.336 38 129.664 38 127 38 C 125.335 38 123.655 38.184 122 38 C 120.635 37.848 119.117 37.798 118 37 C 116.645 36.032 115.585 34.559 115 33 C 114.532 31.753 114.168 30.040 115 29 C 117.080 26.400 120.022 24.489 123 23 C 125.456 21.772 128.282 21.388 131 21 C 135.298 20.386 139.661 20.161 144 20 C 148.659 19.827 153.338 20 158 20 C 163.328 20 168.672 20 174 20 C 178.995 20 184.038 19.427 189 20 C 192.772 20.435 196.420 21.736 200 23 C 202.106 23.743 204.237 24.629 206 26 C 207.314 27.022 208.596 28.385 209 30 C 209.333 31.332 209.072 33.142 208 34 C 205.439 36.049 202.160 37.122 199 38 C 196.095 38.807 192.985 38.574 190 39 C 185.990 39.573 182.039 40.689 178 41 C 173.352 41.358 168.658 41.194 164 41 C 160.656 40.861 157.294 40.588 154 40 C 147.955 38.921 141.957 37.489 136 36 C 133.957 35.489 132.043 34.511 130 34 C 128.035 33.509 125.904 33.692 124 33 C 122.175 32.336 120.165 31.553 119 30 C 117.981 28.642 117.812 26.688 118 25 C 118.164 23.520 119.134 22.212 120 21 C 120.821 19.850 121.824 18.784 123 18 C 124.859 16.761 126.938 15.859 129 15 C 130.944 14.190 132.928 13.377 135 13 C 136.638 12.702 138.335 13 140 13 C 141.998 13 145.516 11.791 146 13 C 146.516 14.291 143.753 16.786 142 18 C 139.303 19.867 136.130 21.022 133 22 C 130.753 22.702 128.327 22.642 126 23 C 123.998 23.308 121.993 23.638 120 24 C 118.329 24.304 116.671 24.696 115 25 C 113.007 25.362 111.017 25.817 109 26 C 107.342 26.151 105.446 26.826 104 26 C 102.707 25.261 103.369 22.587 102 22 C 100.439 21.331 98.665 22.667 97 23 C 95.335 23.333 93.658 23.632 92 24 C 90.660 24.298 89.359 24.806 88 25 C 84.687 25.473 81.338 25.762 78 26 C 76.671 26.095 75.332 26 74 26 C 72.002 26 69.983 26.248 68 26 C 64.630 25.579 61.281 24.875 58 24 C 56.267 23.538 54.268 23.268 53 22 C 52.029 21.029 51.121 19.055 52 18 C 53.348 16.382 55.928 16.377 58 16 C 59.638 15.702 61.335 16 63 16 C 64.998 16 68.485 14.971 69 16 C 69.485 16.971 66.567 18.955 65 20 C 63.508 20.995 61.764 21.679 60 22 C 58.034 22.357 55.998 22 54 22 C 52.335 22 50.665 22 49 22 C 47.335 22 45.665 22 44 22 C 42.668 22 41.332 22 40 22 C 38.668 22 37.292 22.323 36 22 C 34.555 21.639 33.332 20.666 32 20 C 31.667 19.834 32 20 32 20 " transform="matrix(1, 0, 0, 1, 24, 3)"/>
  <path id="ID0.3888433906249702" fill="none" stroke="#009933" stroke-width="2" stroke-linecap="round" d="M 276 322 C 276 322 273.302 320.723 272 320 C 270.303 319.057 268.492 318.243 267 317 C 264.468 314.890 262.010 312.613 260 310 C 258.638 308.229 257.859 306.062 257 304 C 256.190 302.056 255.605 300.017 255 298 C 254.605 296.685 254.152 295.365 254 294 C 253.816 292.345 253.793 290.652 254 289 C 254.131 287.955 254.667 286.999 255 286 C 255.333 285.001 255.458 283.903 256 283 C 256.485 282.192 257.435 281.753 258 281 C 258.447 280.404 258.553 279.596 259 279 C 259.565 278.247 260.158 277.421 261 277 C 261.596 276.702 262.382 277.247 263 277 C 264.115 276.554 264.861 275.380 266 275 C 266.948 274.684 268.001 275 269 275 C 269.666 275 270.343 274.891 271 275 C 272.354 275.226 273.772 275.386 275 276 C 275.842 276.421 276.397 277.276 277 278 C 278.066 279.279 279.174 280.554 280 282 C 280.522 282.914 280.711 283.987 281 285 C 281.377 286.320 281.806 287.641 282 289 C 282.141 289.989 282 291.001 282 292 C 282 292.999 282 294.001 282 295 C 282 295.999 282.447 297.106 282 298 C 281.667 298.666 280.691 298.723 280 299 C 279.022 299.391 277.978 299.609 277 300 C 276.309 300.277 275.716 300.795 275 301 C 273.367 301.466 271.681 301.760 270 302 C 269.341 302.094 268.666 302 268 302 C 267.334 302 266.578 302.330 266 302 C 264.149 300.942 262.706 299.279 261 298 C 260.039 297.280 258.849 296.849 258 296 C 257.473 295.473 257.277 294.691 257 294 C 256.609 293.022 256.207 292.033 256 291 C 255.869 290.347 255.838 289.646 256 289 C 256.181 288.278 256.473 287.527 257 287 C 257.527 286.473 258.473 286.527 259 286 C 259.527 285.473 259.473 284.527 260 284 C 260.527 283.473 261.303 283.261 262 283 C 263.972 282.261 266.002 281.666 268 281 C 268.999 280.667 269.955 280.131 271 280 C 272.652 279.793 274.335 280 276 280 C 276.999 280 278.072 279.629 279 280 C 279.875 280.350 280.478 281.216 281 282 C 281.826 283.239 282.591 284.568 283 286 C 283.274 286.961 282.836 288.015 283 289 C 283.173 290.039 283.827 290.961 284 292 C 284.164 292.985 284.164 294.015 284 295 C 283.827 296.039 283.522 297.086 283 298 C 282.174 299.446 281.066 300.721 280 302 C 279.397 302.724 278.724 303.397 278 304 C 276.721 305.066 275.355 306.032 274 307 C 273.023 307.698 272.030 308.382 271 309 C 270.362 309.383 269.691 309.723 269 310 C 268.022 310.391 267.048 310.895 266 311 C 263.681 311.232 261.319 311.232 259 311 C 257.952 310.895 256.968 310.415 256 310 C 254.631 309.413 253.263 308.789 252 308 C 250.588 307.118 249.412 305.882 248 305 C 246.737 304.211 245.131 303.969 244 303 C 242.736 301.916 242.066 300.279 241 299 C 240.397 298.276 239.588 297.735 239 297 C 238.250 296.062 237.380 295.139 237 294 C 236.684 293.052 237 291.999 237 291 C 237 290.334 236.753 289.618 237 289 C 237.446 287.885 238.250 286.938 239 286 C 239.588 285.265 240.247 284.565 241 284 C 241.596 283.553 242.270 283.146 243 283 C 243.980 282.804 245.072 283.371 246 283 C 246.875 282.650 247.182 281.467 248 281 C 249.557 280.110 251.361 279.728 253 279 C 254.361 278.395 255.631 277.587 257 277 C 257.968 276.585 258.987 276.289 260 276 C 261.320 275.623 262.638 275.170 264 275 C 265.322 274.835 266.668 275 268 275 C 269.332 275 270.668 275 272 275 C 273.665 275 275.385 274.596 277 275 C 278.165 275.291 279.001 276.334 280 277 C 280.999 277.666 282.250 278.062 283 279 C 283.658 279.822 283.667 281.001 284 282 C 284.333 282.999 284.827 283.961 285 285 C 285.164 285.985 285 287.001 285 288 C 285 288.999 285 290.001 285 291 C 285 291.999 285.196 293.020 285 294 C 284.854 294.730 284.181 295.278 284 296 C 283.838 296.646 284.298 297.404 284 298 C 283.579 298.842 282.565 299.247 282 300 C 281.553 300.596 281.447 301.404 281 302 C 280.435 302.753 279.565 303.247 279 304 C 278.553 304.596 278.465 305.419 278 306 C 277.117 307.103 276.103 308.117 275 309 C 274.419 309.465 273.666 309.667 273 310 C 272.334 310.333 271.666 310.667 271 311 C 270.334 311.333 269.722 311.819 269 312 C 268.354 312.162 267.646 312.162 267 312 C 266.278 311.819 265.572 311.477 265 311 C 263.553 309.794 262.332 308.332 261 307 C 260.334 306.334 259.421 305.842 259 305 C 258.702 304.404 259.109 303.657 259 303 C 258.774 301.646 257.774 300.354 258 299 C 258.155 298.071 259.158 297.421 260 297 C 260.596 296.702 261.404 296.702 262 297 C 262.842 297.421 263.334 298.334 264 299 C 264.666 299.666 265.435 300.247 266 301 C 266.447 301.596 266.854 302.270 267 303 C 267.196 303.980 266.836 305.015 267 306 C 267.173 307.039 267.667 308.001 268 309 C 268.333 309.999 268.827 310.961 269 312 C 269.164 312.985 269.141 314.011 269 315 C 268.806 316.359 268.434 317.697 268 319 C 267.765 319.706 267.447 320.404 267 321 C 266.435 321.753 265.808 322.515 265 323 C 264.097 323.542 262.942 323.529 262 324 C 260.926 324.537 260.074 325.463 259 326 C 258.058 326.471 257.013 326.711 256 327 C 254.680 327.377 253.366 327.863 252 328 C 250.012 328.199 247.998 328 246 328 C 244.335 328 242.665 328 241 328 C 239.002 328 236.990 328.181 235 328 C 233.309 327.846 231.626 327.488 230 327 C 228.282 326.485 226.508 325.970 225 325 C 221.806 322.947 219.037 320.278 216 318 C 215.039 317.280 213.769 316.922 213 316 C 212.047 314.856 211.323 313.454 211 312 C 210.639 310.375 211 308.665 211 307 C 211 306.334 210.631 305.554 211 305 C 211.413 304.380 212.473 304.527 213 304 C 213.527 303.473 213.404 302.447 214 302 C 214.842 301.368 216.001 301.333 217 301 C 217.999 300.667 218.972 300.228 220 300 C 221.977 299.561 224.002 299.333 226 299 C 227.998 298.667 229.983 298.183 232 298 C 233.658 297.849 235.335 298 237 298 C 239.331 298 241.669 298 244 298 C 245.665 298 247.342 297.849 249 298 C 251.017 298.183 253.064 298.404 255 299 C 257.424 299.746 259.783 300.768 262 302 C 262.823 302.457 263.334 303.334 264 304 C 264.666 304.666 265.334 305.334 266 306 C 266.666 306.666 267.412 307.265 268 308 C 268.750 308.938 269.382 309.970 270 311 C 270.383 311.638 270.854 312.270 271 313 C 271.196 313.980 270.836 315.015 271 316 C 271.173 317.039 271.793 317.967 272 319 C 272.131 319.653 272 320.334 272 321 C 272 321.666 272 322.334 272 323 C 272 323.666 272.131 324.347 272 325 C 271.793 326.033 271.542 327.097 271 328 C 270.515 328.808 269.666 329.334 269 330 C 268.334 330.666 267.753 331.435 267 332 C 266.404 332.447 265.737 332.895 265 333 C 263.352 333.235 261.665 333 260 333 C 259.334 333 258.596 333.298 258 333 C 257.158 332.579 256.666 331.666 256 331 C 255.001 330.001 253.784 329.176 253 328 C 252.416 327.124 252.333 325.999 252 325 C 251.667 324.001 251.149 323.042 251 322 C 250.812 320.681 251 319.332 251 318 C 251 316.668 250.677 315.292 251 314 C 251.361 312.555 252.047 311.144 253 310 C 253.769 309.078 255.062 308.750 256 308 C 256.735 307.412 257.158 306.421 258 306 C 258.596 305.702 259.327 306.135 260 306 C 262.693 305.461 265.324 304.617 268 304 C 269.654 303.618 271.353 303.412 273 303 C 274.022 302.745 274.958 302.149 276 302 C 279.641 301.480 283.329 301.229 287 301 C 288.662 300.896 290.399 300.543 292 301 C 292.906 301.259 293.397 302.276 294 303 C 295.066 304.279 296.076 305.615 297 307 C 297.413 307.620 297.854 308.270 298 309 C 298.196 309.980 298 311.001 298 312 C 298 312.999 298 314.001 298 315 C 298 315.666 298.162 316.354 298 317 C 297.819 317.722 297.447 318.404 297 319 C 296.435 319.753 295.565 320.247 295 321 C 294.553 321.596 294.572 322.523 294 323 C 292.508 324.243 290.686 325.037 289 326 C 288.353 326.369 287.691 326.723 287 327 C 286.022 327.391 285.028 327.772 284 328 C 282.023 328.439 280.016 328.798 278 329 C 276.675 329.133 275.325 329.133 274 329 C 271.984 328.798 269.977 328.439 268 328 C 266.972 327.772 265.942 327.471 265 327 C 263.926 326.463 263.042 325.596 262 325 C 260.707 324.261 259.144 323.953 258 323 C 257.078 322.231 256.750 320.938 256 320 C 255.412 319.265 254.421 318.842 254 318 C 253.702 317.404 254 316.666 254 316 C 254 315.334 254 314.666 254 314 C 254 313.001 253.684 311.948 254 311 C 254.380 309.861 255.151 308.849 256 308 C 257.177 306.823 258.615 305.924 260 305 C 260.620 304.587 261.309 304.277 262 304 C 262.978 303.609 263.984 303.277 265 303 C 267.649 302.277 270.315 301.575 273 301 C 274.981 300.576 277.007 300.362 279 300 C 280.671 299.696 282.307 299.130 284 299 C 286.656 298.796 289.336 299 292 299 C 293.998 299 296.009 298.834 298 299 C 300.019 299.168 301.987 299.776 304 300 C 304.993 300.110 306.143 299.486 307 300 C 308.030 300.618 308.382 301.970 309 303 C 309.383 303.638 309.667 304.334 310 305 C 310.333 305.666 310.819 306.278 311 307 C 311.162 307.646 311 308.334 311 309 C 311 309.666 311 310.334 311 311 C 311 311.999 311.371 313.072 311 314 C 310.650 314.875 309.666 315.334 309 316 C 308.334 316.666 307.666 317.334 307 318 C 306.334 318.666 305.818 319.533 305 320 C 303.443 320.890 301.679 321.370 300 322 C 299.014 322.370 298.013 322.711 297 323 C 295.680 323.377 294.366 323.863 293 324 C 291.012 324.199 288.998 324 287 324 C 285.335 324 283.665 324 282 324 C 280.002 324 277.998 324 276 324 C 274.335 324 272.659 324.138 271 324 C 268.653 323.804 266.327 323.358 264 323 C 261.998 322.692 259.993 322.362 258 322 C 256.329 321.696 254.611 321.537 253 321 C 251.587 320.529 250.293 319.739 249 319 C 247.958 318.404 246.977 317.698 246 317 C 244.645 316.032 243.040 315.300 242 314 C 241.584 313.480 242.298 312.596 242 312 C 241.579 311.158 240.485 310.808 240 310 C 239.458 309.097 239.391 307.978 239 307 C 238.723 306.309 238.181 305.722 238 305 C 237.838 304.354 237.631 303.554 238 303 C 238.413 302.380 239.278 301.819 240 302 C 240.914 302.228 241.478 303.216 242 304 C 242.826 305.239 243.529 306.587 244 308 C 244.211 308.632 243.838 309.354 244 310 C 244.181 310.722 244.723 311.309 245 312 C 245.391 312.978 245.793 313.967 246 315 C 246.131 315.653 246 316.334 246 317 C 246 317.666 246.369 318.446 246 319 C 245.587 319.620 244.734 319.878 244 320 C 242.686 320.219 241.281 320.366 240 320 C 238.846 319.670 237.922 318.769 237 318 C 235.915 317.096 234.999 315.999 234 315 C 233.334 314.334 232.565 313.753 232 313 C 231.553 312.404 231.277 311.691 231 311 C 230.609 310.022 230.333 308.999 230 308 C 229.667 307.001 229.207 306.033 229 305 C 228.869 304.347 229 303.666 229 303 C 229 302.334 229 301.666 229 301 C 229 300.334 228.702 299.596 229 299 C 229.421 298.158 230.192 297.485 231 297 C 231.903 296.458 232.967 296.207 234 296 C 234.653 295.869 235.334 296 236 296 C 237.998 296 240.002 296 242 296 C 242.999 296 244.143 295.486 245 296 C 246.030 296.618 246.062 298.250 247 299 C 247.822 299.658 249.158 299.368 250 300 C 250.596 300.447 250.667 301.334 251 302 C 251.333 302.666 251.667 303.334 252 304 C 252.333 304.666 252.854 305.270 253 306 C 253.196 306.980 253 308.001 253 309 C 253 309.999 253.316 311.052 253 312 C 252.620 313.139 251.537 313.926 251 315 C 250.529 315.942 250.542 317.097 250 318 C 249.515 318.808 248.735 319.412 248 320 C 247.062 320.750 246.030 321.382 245 322 C 244.362 322.383 243.706 322.765 243 323 C 241.697 323.434 240.354 323.774 239 324 C 238.343 324.109 237.666 324 237 324 C 236.001 324 234.999 324 234 324 C 233.001 324 231.980 324.196 231 324 C 230.270 323.854 229.606 323.433 229 323 C 227.265 321.761 225.508 320.508 224 319 C 223.473 318.473 223.465 317.581 223 317 C 222.117 315.897 220.632 315.264 220 314 C 219.241 312.481 219.240 310.681 219 309 C 218.906 308.341 219 307.666 219 307 C 219 306.334 218.838 305.646 219 305 C 219.181 304.278 219.667 303.666 220 303 C 220.333 302.334 220.473 301.527 221 301 C 221.849 300.151 222.926 299.537 224 299 C 224.942 298.529 226.001 298.333 227 298 C 227.999 297.667 228.953 297.116 230 297 C 231.986 296.779 234.006 297.133 236 297 C 239.009 296.799 241.991 296.201 245 296 C 246.994 295.867 249.012 295.801 251 296 C 252.366 296.137 253.680 296.623 255 297 C 256.013 297.289 256.987 297.711 258 298 C 259.320 298.377 260.772 298.386 262 299 C 262.842 299.421 263.334 300.334 264 301 C 264.666 301.666 265.579 302.158 266 303 C 266.298 303.596 266 304.334 266 305 C 266 305.999 266 307.001 266 308 C 266 308.666 266 309.334 266 310 C 266 310.666 266 311.334 266 312 C 266 312.666 266.109 313.343 266 314 C 265.774 315.354 265.706 316.823 265 318 C 264.617 318.638 263.666 318.667 263 319 C 262.334 319.333 261.734 319.878 261 320 C 259.686 320.219 258.314 320.219 257 320 C 256.266 319.878 255.596 319.447 255 319 C 254.247 318.435 253.565 317.753 253 317 C 252.553 316.404 252.447 315.596 252 315 C 251.435 314.247 250.485 313.808 250 313 C 249.458 312.097 249.207 311.033 249 310 C 248.869 309.347 249 308.666 249 308 C 249 307.334 249 306.666 249 306 C 249 305.334 248.631 304.554 249 304 C 249.413 303.380 250.362 303.383 251 303 C 252.030 302.382 252.885 301.446 254 301 C 254.618 300.753 254.834 301.073 256 301 C 260.665 300.708 265.326 300 270 300 C 271.373 300 272.697 300.566 274 301 C 274.706 301.235 275.380 301.587 276 302 C 277.385 302.924 278.934 303.721 280 305 C 280.674 305.809 280.827 306.961 281 308 C 281.164 308.985 281 310.001 281 311 C 281 311.666 281.131 312.347 281 313 C 280.793 314.033 280.542 315.097 280 316 C 279.515 316.808 278.735 317.412 278 318 C 277.062 318.750 276.115 319.554 275 320 C 274.382 320.247 273.666 320 273 320 C 272.001 320 270.999 320 270 320 C 268.335 320 266.665 320 265 320 C 263.002 320 260.990 320.181 259 320 C 257.309 319.846 255.638 319.447 254 319 C 251.968 318.446 250.043 317.511 248 317 C 246.035 316.509 243.995 316.352 242 316 C 238.334 315.353 234.640 314.780 231 314 C 229.970 313.779 228.978 313.391 228 313 C 227.309 312.723 226.527 312.527 226 312 C 225.473 311.473 225.146 310.730 225 310 C 224.804 309.020 224.836 307.985 225 307 C 225.173 305.961 225.458 304.903 226 304 C 226.485 303.192 227.334 302.666 228 302 C 228.666 301.334 229.094 300.259 230 300 C 231.601 299.543 233.335 300 235 300 C 235.666 300 236.334 300 237 300 C 237.666 300 238.382 299.753 239 300 C 240.115 300.446 241.250 301.062 242 302 C 242.658 302.822 243.173 303.961 243 305 C 242.803 306.184 241.961 307.280 241 308 C 240.467 308.400 239.640 307.817 239 308 C 237.276 308.493 235.648 309.294 234 310 C 233.316 310.293 232.666 310.667 232 311 C 231.334 311.333 230.666 311.667 230 312 C 229.334 312.333 228.722 312.819 228 313 C 227.354 313.162 226.646 313.162 226 313 C 225.278 312.819 224.596 312.447 224 312 C 223.247 311.435 222.331 310.882 222 310 C 221.289 308.103 221 306.026 221 304 C 221 302.947 221.368 301.842 222 301 C 222.447 300.404 223.334 300.333 224 300 C 224.666 299.667 225.278 299.181 226 299 C 226.646 298.838 227.404 298.702 228 299 C 228.842 299.421 229.435 300.247 230 301 C 230.447 301.596 230.765 302.294 231 303 C 231.434 304.303 231.806 305.641 232 307 C 232.141 307.989 232 309.001 232 310 C 232 310.666 232.369 311.446 232 312 C 231.587 312.620 229.827 313.345 230 313 C 230.259 312.482 231.824 310.784 233 310 C 233.876 309.416 235.014 309.370 236 309 C 237.679 308.370 239.260 307.435 241 307 C 241.969 306.758 243.011 307.141 244 307 C 245.359 306.806 246.654 306.269 248 306 C 249.986 305.603 251.998 305.308 254 305 C 256.327 304.642 258.677 304.387 261 304 C 262.675 303.721 264.309 303.154 266 303 C 267.990 302.819 270.002 303 272 303 C 274.331 303 276.669 303 279 303 C 279.666 303 280.404 302.702 281 303 C 281.842 303.421 282.247 304.435 283 305 C 283.596 305.447 284.587 305.380 285 306 C 285.369 306.554 285.162 307.354 285 308 C 284.819 308.722 284.333 309.334 284 310 C 283.667 310.666 283.620 311.587 283 312 C 282.446 312.369 281.666 312 281 312 C 280.001 312 278.991 312.124 278 312 C 276.315 311.789 274.561 311.669 273 311 C 272.134 310.629 271.753 309.565 271 309 C 270.404 308.553 269.527 308.527 269 308 C 268.151 307.151 267.446 306.115 267 305 C 266.753 304.382 266.702 303.596 267 303 C 267.421 302.158 268.334 301.666 269 301 C 269.666 300.334 270.192 299.485 271 299 C 271.903 298.458 272.961 298.173 274 298 C 274.985 297.836 276.169 297.446 277 298 C 277.554 298.369 276.838 299.354 277 300 C 277.181 300.722 277.667 301.334 278 302 C 278.333 302.666 278.667 303.334 279 304 C 279.333 304.666 279.819 305.278 280 306 C 280.162 306.646 280 307.334 280 308 C 280 308.666 280 309.334 280 310 C 280 310.666 280.369 311.446 280 312 C 279.587 312.620 278.527 312.473 278 313 C 277.473 313.527 277.527 314.473 277 315 C 276.473 315.527 275.722 315.819 275 316 C 274.354 316.162 273.666 316 273 316 C 272.001 316 270.999 316 270 316 C 268.668 316 267.319 316.188 266 316 C 264.958 315.851 263.968 315.415 263 315 C 261.631 314.413 260.432 313.409 259 313 C 258.039 312.726 256.935 313.351 256 313 C 254.182 312.318 252.492 311.243 251 310 C 250.428 309.523 250.181 308.722 250 308 C 249.838 307.354 250 306.666 250 306 C 250 304.668 250 303.332 250 302 C 250 301.334 250 300.666 250 300 C 250 299.001 249.726 297.961 250 297 C 250.409 295.568 251.334 294.332 252 293 C 252.666 291.668 253.174 290.239 254 289 C 254.522 288.216 255.247 287.565 256 287 C 256.596 286.553 257.334 286.333 258 286 C 258.666 285.667 259.404 285.447 260 285 C 260.753 284.435 261.247 283.565 262 283 C 262.596 282.553 263.309 282.277 264 282 C 264.978 281.609 265.978 281.255 267 281 C 268.647 280.588 270.312 280.188 272 280 C 273.324 279.853 274.668 280 276 280 C 278.331 280 280.674 279.855 283 280 C 286.010 280.188 289.020 280.541 292 281 C 293.357 281.209 294.823 281.294 296 282 C 296.638 282.383 296.553 283.404 297 284 C 297.565 284.753 298.579 285.158 299 286 C 299.298 286.596 298.869 287.347 299 288 C 299.207 289.033 299.667 290.001 300 291 C 300.333 291.999 300.793 292.967 301 294 C 301.131 294.653 301.162 295.354 301 296 C 300.819 296.722 300.527 297.473 300 298 C 299.473 298.527 298.527 298.473 298 299 C 297.473 299.527 297.527 300.473 297 301 C 296.473 301.527 295.745 302 295 302 C 293.302 302 291.647 301.412 290 301 C 288.978 300.745 288.033 300.207 287 300 C 286.347 299.869 285.646 300.162 285 300 C 284.278 299.819 283.666 299.333 283 299 C 282.334 298.667 281.666 298.333 281 298 C 280.334 297.667 279.666 297.333 279 297 C 278.334 296.667 277.666 296.333 277 296 C 276.334 295.667 275.691 295.277 275 295 C 274.022 294.609 272.978 294.391 272 294 C 271.309 293.723 270.666 293.333 270 293 C 269.334 292.667 268.413 292.620 268 292 C 267.631 291.446 267.631 290.554 268 290 C 268.413 289.380 269.278 289.181 270 289 C 270.646 288.838 271.657 288.429 272 289 C 272.874 290.456 272.760 292.319 273 294 C 273.094 294.659 273.162 295.354 273 296 C 272.819 296.722 272.383 297.362 272 298 C 271.382 299.030 270.750 300.062 270 301 C 269.412 301.735 268.784 302.478 268 303 C 266.761 303.826 265.332 304.334 264 305 C 263.334 305.333 262.666 305.667 262 306 C 261.834 306.083 262 306 262 306 " transform="matrix(1, 0, 0, 1, 24, 3)"/>
  <path id="ID0.8657854958437383" fill="none" stroke="#009933" stroke-width="2" stroke-linecap="round" d="M 409 332 C 409 332 411.062 330.750 412 330 C 412.735 329.412 413.579 328.842 414 328 C 414.298 327.404 414 326.666 414 326 C 414 325.334 413.838 324.646 414 324 C 414.181 323.278 414.819 322.722 415 322 C 415.162 321.354 415 320.666 415 320 C 415 319.334 415 318.666 415 318 C 415 317.334 415 316.666 415 316 C 415 315.334 415.162 314.646 415 314 C 414.819 313.278 414.333 312.666 414 312 C 413.667 311.334 413.333 310.666 413 310 C 412.667 309.334 412.383 308.638 412 308 C 411.382 306.970 410.849 305.849 410 305 C 409.473 304.473 408.596 304.447 408 304 C 407.247 303.435 406.565 302.753 406 302 C 405.553 301.404 405.527 300.527 405 300 C 404.473 299.473 403.666 299.333 403 299 C 402.334 298.667 401.235 298.706 401 298 C 400.765 297.294 401.380 296.413 402 296 C 402.554 295.631 403.334 296 404 296 C 404.666 296 405.334 296 406 296 C 406.666 296 407.334 296 408 296 C 408.666 296 409.404 295.702 410 296 C 410.842 296.421 411.412 297.265 412 298 C 412.750 298.938 413.382 299.970 414 301 C 414.383 301.638 414.819 302.278 415 303 C 415.162 303.646 414.838 304.354 415 305 C 415.181 305.722 415.667 306.334 416 307 C 416.333 307.666 416.819 308.278 417 309 C 417.162 309.646 417 310.334 417 311 C 417 311.666 417 312.334 417 313 C 417 313.666 417 314.334 417 315 C 417 315.666 417 316.334 417 317 C 417 317.666 417 318.334 417 319 C 417 319.666 417 320.334 417 321 C 417 321.666 417 322.334 417 323 C 417 323.666 417.162 324.354 417 325 C 416.819 325.722 416.333 326.334 416 327 C 415.667 327.666 415.177 329 415 329 C 414.823 329 415 327.666 415 327 C 415 325.668 415 324.332 415 323 C 415 322.334 415 321.666 415 321 C 415 320.334 415 319.666 415 319 C 415 318.334 415 317.666 415 317 C 415 316.001 415.196 314.980 415 314 C 414.854 313.270 414.383 312.638 414 312 C 413.382 310.970 412.618 310.030 412 309 C 411.617 308.362 411.333 307.666 411 307 C 410.667 306.334 410.333 305.666 410 305 C 409.667 304.334 409.277 303.691 409 303 C 408.609 302.022 408.391 300.978 408 300 C 407.723 299.309 406.736 298.528 407 298 C 407.236 297.528 408.354 297.838 409 298 C 409.722 298.181 410.473 298.473 411 299 C 411.527 299.527 411.473 300.473 412 301 C 412.527 301.527 413.587 301.380 414 302 C 414.369 302.554 413.789 303.368 414 304 C 414.149 304.447 415 305 415 305 " transform="matrix(1, 0, 0, 1, 24, 3)"/>
  <path id="ID0.5889207404106855" fill="none" stroke="#FFFF00" stroke-width="2" stroke-linecap="round" d="M 400 291 C 397.422 292.719 397.401 292.099 397 292 C 396.396 291.762 395.471 292.471 395 292 C 394.529 291.529 395.131 290.653 395 290 C 394.793 288.967 394 288.053 394 287 C 394 286.255 394.553 285.596 395 285 C 395.565 284.247 396.158 283.421 397 283 C 397.596 282.702 398.354 282.838 399 283 C 399.722 283.181 400.404 283.553 401 284 C 401.753 284.565 402.579 285.158 403 286 C 403.298 286.596 402.789 287.368 403 288 C 403.471 289.413 404.529 290.587 405 292 C 405.211 292.632 404.817 293.360 405 294 C 405.493 295.724 406.507 297.276 407 299 C 407.183 299.640 407 300.334 407 301 C 407 301.666 407.162 302.354 407 303 C 406.819 303.722 406.662 305 406 305 C 405.162 305 404.565 303.753 404 303 C 403.553 302.404 403.277 301.691 403 301 C 402.609 300.022 402.471 298.942 402 298 C 401.463 296.926 400.446 296.115 400 295 C 399.753 294.382 399.838 293.646 400 293 C 400.181 292.278 400.473 291.527 401 291 C 401.527 290.473 402.294 289.765 403 290 C 403.706 290.235 403.819 291.278 404 292 C 404.162 292.646 404 293.334 404 294 C 404 294.666 404.162 295.354 404 296 C 403.819 296.722 403.706 297.765 403 298 C 402.294 298.235 401.666 297.333 401 297 C 400.334 296.667 399.638 296.383 399 296 C 397.970 295.382 396.938 294.750 396 294 C 395.265 293.412 394.588 292.735 394 292 C 393.250 291.062 392.849 289.849 392 289 C 391.473 288.473 390.596 288.447 390 288 C 389.247 287.435 388.565 286.753 388 286 C 387.553 285.404 387.181 284.722 387 284 C 386.838 283.354 386.702 282.596 387 282 C 387.421 281.158 388.435 280.753 389 280 C 389.447 279.404 389.380 278.413 390 278 C 390.554 277.631 391.354 277.838 392 278 C 392.722 278.181 393.473 278.473 394 279 C 394.527 279.527 394.765 280.294 395 281 C 395.434 282.303 395.566 283.697 396 285 C 396.235 285.706 396.819 286.278 397 287 C 397.162 287.646 397 288.334 397 289 C 397 289.666 397 290.334 397 291 C 397 291.666 397.298 292.404 397 293 C 396.579 293.842 395.666 294.334 395 295 C 394.334 295.666 393.708 297.236 393 297 C 392.208 296.736 392.391 294.978 392 294 C 391.723 293.309 390.587 292.620 391 292 C 391.584 291.124 393.001 290.667 394 291 C 395.340 291.447 396.117 292.897 397 294 C 397.465 294.581 397.819 295.278 398 296 C 398.162 296.646 398 297.334 398 298 C 398 298.666 398.369 299.446 398 300 C 397.587 300.620 396.706 301.235 396 301 C 395.294 300.765 395.122 299.734 395 299 C 394.781 297.686 395.219 296.314 395 295 C 394.878 294.266 394.181 293.722 394 293 C 393.838 292.354 393.631 291.554 394 291 C 394.413 290.380 395.587 290.620 396 290 C 396.369 289.446 395.528 288.236 396 288 C 396.528 287.736 397.473 288.473 398 289 C 398.527 289.527 398.667 290.334 399 291 C 399.333 291.666 399.819 292.278 400 293 C 400.162 293.646 400.400 294.467 400 295 C 399.280 295.961 398.115 296.554 397 297 C 396.382 297.247 395.471 297.471 395 297 C 394.529 296.529 395.162 295.646 395 295 C 394.819 294.278 394.205 293.716 394 293 C 393.534 291.367 393.596 289.590 393 288 C 392.578 286.876 391.446 286.115 391 285 C 390.753 284.382 391 283.666 391 283 C 391 282.334 390.702 281.596 391 281 C 391.421 280.158 392.058 279 393 279 C 393.942 279 394.579 280.158 395 281 C 395.298 281.596 394.838 282.354 395 283 C 395.181 283.722 395.473 284.473 396 285 C 396.527 285.527 397.587 285.380 398 286 C 398.369 286.554 398.162 287.354 398 288 C 397.819 288.722 397.447 289.404 397 290 C 396.435 290.753 395.914 291.772 395 292 C 394.278 292.181 393.527 291.527 393 291 C 392.473 290.473 392.447 289.596 392 289 C 391.435 288.247 390.228 287.914 390 287 C 389.819 286.278 390.823 285 391 285 C 391.177 285 390.869 286.347 391 287 C 391.207 288.033 391.793 288.967 392 290 C 392.131 290.653 392 291.334 392 292 C 392 292.666 392 293.334 392 294 C 392 294.999 392.196 296.020 392 297 C 391.854 297.730 391.333 298.334 391 299 C 390.667 299.666 390.706 300.765 390 301 C 389.294 301.235 388.333 300.666 388 300 C 387.553 299.106 387.876 297.991 388 297 C 388.211 295.315 388.534 293.633 389 292 C 389.205 291.284 389.473 290.527 390 290 C 390.527 289.473 391.473 289.527 392 289 C 392.527 288.473 392.473 287.527 393 287 C 393.527 286.473 394.278 285.819 395 286 C 395.914 286.228 396.579 287.158 397 288 C 397.298 288.596 397 289.334 397 290 C 397 290.666 397 291.334 397 292 C 397 292.333 397 293 397 293 Z " transform="matrix(1, 0, 0, 1, 24, 3)"/>
  <path id="ID0.9797016261145473" fill="none" stroke="#FF0000" stroke-width="2" stroke-linecap="round" d="M 394 280 C 394 280 393.207 278.033 393 277 C 392.869 276.347 393 275.666 393 275 C 393 274.001 392.629 272.928 393 272 C 393.350 271.125 394.435 270.753 395 270 C 395.447 269.404 395.473 268.527 396 268 C 396.527 267.473 397.334 267.333 398 267 C 398.666 266.667 399.404 266.447 400 266 C 400.753 265.435 401.247 264.565 402 264 C 402.596 263.553 403.278 263.181 404 263 C 404.646 262.838 405.334 263 406 263 C 406.666 263 407.446 262.631 408 263 C 408.620 263.413 408.553 264.404 409 265 C 409.565 265.753 410.579 266.158 411 267 C 411.298 267.596 410.838 268.354 411 269 C 411.181 269.722 411.819 270.278 412 271 C 412.162 271.646 412 272.334 412 273 C 412 273.666 412.162 274.354 412 275 C 411.819 275.722 411.333 276.334 411 277 C 410.667 277.666 410.333 278.334 410 279 C 409.667 279.666 409.527 280.473 409 281 C 408.473 281.527 407.666 281.667 407 282 C 406.334 282.333 405.413 282.380 405 283 C 404.631 283.554 404.529 284.529 405 285 C 405.471 285.471 406.382 284.753 407 285 C 408.115 285.446 408.970 286.382 410 287 C 410.638 287.383 411.473 287.473 412 288 C 412.527 288.527 412.667 289.334 413 290 C 413.333 290.666 413.667 291.334 414 292 C 414.333 292.666 414.819 293.278 415 294 C 415.162 294.646 415 295.334 415 296 C 415 296.666 415 297.334 415 298 C 415 298.666 415.162 299.354 415 300 C 414.819 300.722 414.447 301.404 414 302 C 413.435 302.753 412.753 303.435 412 304 C 411.404 304.447 410.722 304.819 410 305 C 409.354 305.162 408.646 305.162 408 305 C 407.278 304.819 406.527 304.527 406 304 C 405.473 303.473 405.333 302.666 405 302 C 404.667 301.334 404.706 300.235 404 300 C 403.294 299.765 402.447 300.404 402 301 C 401.368 301.842 401.542 303.097 401 304 C 400.515 304.808 399.565 305.247 399 306 C 398.553 306.596 398.333 307.334 398 308 C 397.667 308.666 397.527 309.473 397 310 C 396.473 310.527 395.722 310.819 395 311 C 394.354 311.162 393.646 311.162 393 311 C 392.278 310.819 391.527 310.527 391 310 C 390.473 309.473 390.447 308.596 390 308 C 389.435 307.247 388.421 306.842 388 306 C 387.702 305.404 388.131 304.653 388 304 C 387.793 302.967 387.207 302.033 387 301 C 386.869 300.347 387 299.666 387 299 C 387 298.334 386.702 297.596 387 297 C 387.421 296.158 388.435 295.753 389 295 C 389.447 294.404 389.667 293.666 390 293 C 390.333 292.334 391 291 391 291 C 391 291 390.527 292.473 390 293 C 389.473 293.527 388.722 293.819 388 294 C 387.354 294.162 386.666 294 386 294 C 385.334 294 384.646 294.162 384 294 C 383.278 293.819 382.638 293.383 382 293 C 380.970 292.382 379.999 291.666 379 291 C 378.001 290.334 376.849 289.849 376 289 C 375.473 288.473 375.181 287.722 375 287 C 374.838 286.354 375.162 285.646 375 285 C 374.819 284.278 374.181 283.722 374 283 C 373.838 282.354 373.631 281.554 374 281 C 374.413 280.380 375.404 280.447 376 280 C 376.753 279.435 377.247 278.565 378 278 C 378.596 277.553 379.278 277.181 380 277 C 380.646 276.838 381.334 277 382 277 C 382.666 277 383.354 276.838 384 277 C 384.722 277.181 385.473 277.473 386 278 C 386.527 278.527 386.473 279.473 387 280 C 387.527 280.527 388.473 280.473 389 281 C 389.527 281.527 389.667 282.334 390 283 C 390.333 283.666 390.473 284.473 391 285 C 391.235 285.235 392 285 392 285 " transform="matrix(1, 0, 0, 1, 24, 3)"/>
  <path id="ID0.9788336250931025" fill="none" stroke="#FF0000" stroke-width="2" stroke-linecap="round" d="M 387 286 C 387 286 384.382 288 383 288 C 382.382 288 383 286.666 383 286 C 383 284.668 383.641 282.962 383 282 C 382.641 281.462 381.427 283.427 381 283 C 380.427 282.427 381 280.999 381 280 C 381 279.334 381.414 278 381 278 C 380.414 278 379.666 279.334 379 280 C 378.334 280.666 377 281.852 377 282 C 377 282.148 378.294 281.235 379 281 C 379.316 280.895 380 281 380 281 " transform="matrix(1, 0, 0, 1, 24, 3)"/>
  <path id="ID0.5216058557853103" fill="none" stroke="#FF0000" stroke-width="2" stroke-linecap="round" d="M 404 268 C 404 268 401.842 268.368 401 269 C 400.404 269.447 400.447 270.404 400 271 C 399.435 271.753 398.586 273 398 273 C 397.586 273 397.838 271.646 398 271 C 398.181 270.278 398.586 268.793 399 269 C 399.586 269.293 399.124 271.416 400 272 C 400.620 272.413 401.334 271.333 402 271 C 402.666 270.667 403.472 269.736 404 270 C 404.472 270.236 403.586 272 404 272 C 404.586 272 405.414 270 406 270 C 406.414 270 406.472 271.764 406 272 C 405.472 272.264 404.722 271.181 404 271 C 403.354 270.838 402.646 270.838 402 271 C 401.278 271.181 400.722 271.819 400 272 C 399.354 272.162 398.632 271.789 398 272 C 396.587 272.471 395.332 273.334 394 274 C 393.334 274.333 392.722 274.819 392 275 C 391.354 275.162 390.236 275.472 390 275 C 389.736 274.472 390.334 273.333 391 273 C 391.894 272.553 393.001 273 394 273 C 394.333 273 395 273 395 273 " transform="matrix(1, 0, 0, 1, 24, 3)"/>
  <path id="ID0.2710029915906489" fill="none" stroke="#FF0000" stroke-width="2" stroke-linecap="round" d="M 389 300 C 389 300 390.987 301.289 392 301 C 393.601 300.543 394.454 298.618 396 298 C 396.437 297.825 397 299 397 299 " transform="matrix(1, 0, 0, 1, 24, 3)"/>
  <path id="ID0.6545604942366481" fill="none" stroke="#FF0000" stroke-width="2" stroke-linecap="round" d="M 407 293 C 407 293 407.124 295.416 408 296 C 408.620 296.413 409.473 295.527 410 295 C 410.527 294.473 410.823 293 411 293 C 411.177 293 411.162 294.354 411 295 C 410.819 295.722 410.527 296.473 410 297 C 409.473 297.527 408.745 298 408 298 C 407.255 298 406.666 297.333 406 297 C 405.334 296.667 404.722 296.181 404 296 C 403.354 295.838 402.666 296 402 296 C 401.334 296 400.653 295.869 400 296 C 398.967 296.207 398.033 296.793 397 297 C 396.347 297.131 395.666 297 395 297 C 394.334 297 393.653 296.869 393 297 C 391.967 297.207 391.033 297.793 390 298 C 389.347 298.131 388 298 388 298 C 388 298 389.334 298 390 298 C 390.166 298 390 298 390 298 " transform="matrix(1, 0, 0, 1, 24, 3)"/>
</svg>