<svg version="1.1" width="44" height="48" viewBox="2 -1 44 48" xmlns="http://www.w3.org/2000/svg" xmlns:xlink="http://www.w3.org/1999/xlink">
  <!-- Exported by Scratch - http://scratch.mit.edu/ -->
  <path id="ID0.5486297779716551" fill="#663B00" stroke="#663B00" stroke-width="6" stroke-linecap="round" d="M 319.350 238.550 C 307.238 245.500 295.597 266.776 302 278 C 311.189 288.839 325.526 285.577 337.700 286.950 C 347.701 288.070 358.478 286.995 368.500 283.850 C 376.746 282.212 390.961 281.771 391.550 272.850 C 392.439 259.122 383.380 242.675 371 237 C 355.369 229.848 334.427 229.344 319.350 238.550 Z " transform="matrix(0.15683922171592712, 0.061360880732536316, -0.0662757083773613, 0.16940155625343323, -18.9, -25.25)"/>
  <g id="ID0.8060927535407245" transform="matrix(1, 0, 0, 1, 2, 0)">
    <path id="ID0.08809070056304336" fill="#FFD499" stroke="#FFD499" stroke-width="2" stroke-linecap="round" d="M 246 185.300 C 245.980 186.048 246.001 186.757 246 187.550 C 245.996 188.249 245.967 188.955 246 189.650 C 246.032 190.318 246.125 190.985 246.200 191.650 C 246.275 192.317 246.350 192.986 246.450 193.650 C 246.550 194.319 246.487 195.051 246.800 195.650 C 247.116 196.255 247.648 196.777 248.250 197.100 C 248.849 197.421 249.571 197.509 250.250 197.500 C 250.916 197.492 251.639 197.409 252.200 197.050 C 252.769 196.685 253.158 196.060 253.450 195.450 C 253.738 194.849 253.850 194.164 253.900 193.500 C 254.047 191.545 254.095 189.568 254.150 187.600 C 254.143 186.901 254.142 186.200 254.150 185.500 C 253.991 181.252 254.228 180.358 253.900 178.850 C 253.715 178.142 253.282 177.502 252.700 177.150 C 251.952 176.691 251.161 176.494 250.350 176.500 C 249.410 176.507 248.387 176.551 247.600 177.050 C 246.923 177.494 246.549 178.360 246.350 179.150 C 246.053 182.515 246.050 183.695 246 185.300 Z " transform="matrix(2.163856029510498, 0, 0, 1.5215190649032593, -517.3, -266.5)"/>
    <path id="ID0.0726902256719768" fill="#FF0000" stroke="#CC0000" stroke-width="2" stroke-linecap="round" d="M 209.500 227.500 L 209 179.500 L 218 180 L 223 191 L 228 179.500 L 240.500 179.500 L 241.500 227.500 L 239 231.500 L 233.500 233.500 L 224 234.500 L 213.500 232.500 L 209.500 227.500 Z " transform="matrix(0.6907622814178467, 0, 0, 0.3100942075252533, -131.15, -34.05)"/>
    <path id="ID0.8850112343207002" fill="none" stroke="#000000" stroke-width="2" stroke-linecap="round" d="M 240.500 194 L 240.800 194.300 " transform="matrix(0.5249185562133789, 0, 0, 0.3100942075252533, -103.4, -34.55)"/>
    <path id="ID0.16972909634932876" fill="none" stroke="#000000" stroke-width="2" stroke-linecap="round" d="M 240.500 199.500 L 240.800 199.800 " transform="matrix(0.5249185562133789, 0, 0, 0.3100942075252533, -103.4, -34.55)"/>
  </g>
  <g id="ID0.1477178898639977" transform="matrix(0.6287987232208252, -0.7775681018829346, 0.7775681018829346, 0.6287987232208252, -4.15, 38)">
    <path id="ID0.5619839346036315" fill="#FF0000" stroke="#CC0000" stroke-width="2" stroke-linecap="round" d="M 282.550 231 C 306.841 200.371 308.320 199.171 315.500 193 C 318.114 191.163 320.546 191.730 322.500 193 C 324.499 194.299 326.520 196.941 325.500 199.500 C 309.865 219.642 303.238 227.753 292 235 C 288.841 236.950 281.120 234.340 282.550 231 Z " transform="matrix(0.1411772519350052, -0.1861952245235443, 0.28478699922561646, 0.21593168377876282, -64.75, 39.05)"/>
    <path id="ID0.6155663500539958" fill="#FFD499" stroke="none" d="M 241.250 209 C 243.526 209 245.589 209.924 247.082 211.418 C 248.576 212.911 249.500 214.974 249.500 217.250 C 249.500 219.526 248.576 221.589 247.082 223.082 C 245.589 224.576 243.526 225.500 241.250 225.500 C 238.974 225.500 236.911 224.576 235.418 223.082 C 233.924 221.589 233 219.526 233 217.250 C 233 214.974 233.924 212.911 235.418 211.418 C 236.911 209.924 238.974 209 241.250 209 Z " transform="matrix(0.2997800409793854, -0.13759763538837433, 0.13342802226543427, 0.29069584608078003, -58.9, 5.95)"/>
  </g>
  <path id="ID0.5486297779716551" fill="#935301" stroke="#663B00" stroke-width="6" stroke-linecap="round" d="M 319.350 238.550 C 307.238 245.500 295.597 266.776 302 278 C 311.189 288.839 325.526 285.577 337.700 286.950 C 347.701 288.070 358.478 286.995 368.500 283.850 C 376.746 282.212 390.961 281.771 391.550 272.850 C 392.439 259.122 383.380 242.675 371 237 C 355.369 229.848 334.427 229.344 319.350 238.550 Z " transform="matrix(0.13385841250419617, -0.1022038459777832, 0.1103900596499443, 0.14458005130290985, -37.65, 34.55)"/>
  <path id="ID0.643749819137156" fill="#FFFFFF" stroke="#000000" stroke-width="2" d="M 234.750 143.750 C 236.336 143.750 237.774 144.576 238.815 145.911 C 239.856 147.247 240.500 149.090 240.500 151.125 C 240.500 153.160 239.856 155.003 238.815 156.339 C 237.774 157.674 236.336 158.500 234.750 158.500 C 233.164 158.500 231.726 157.674 230.685 156.339 C 229.644 155.003 229 153.160 229 151.125 C 229 149.090 229.644 147.247 230.685 145.911 C 231.726 144.576 233.164 143.750 234.750 143.750 Z " transform="matrix(-0.46586522459983826, 0, 0, 0.46586522459983826, 138, -63.55)"/>
  <path id="ID0.643749819137156" fill="#FFFFFF" stroke="#000000" stroke-width="2" d="M 234.750 143.750 C 236.336 143.750 237.774 144.576 238.815 145.911 C 239.856 147.247 240.500 149.090 240.500 151.125 C 240.500 153.160 239.856 155.003 238.815 156.339 C 237.774 157.674 236.336 158.500 234.750 158.500 C 233.164 158.500 231.726 157.674 230.685 156.339 C 229.644 155.003 229 153.160 229 151.125 C 229 149.090 229.644 147.247 230.685 145.911 C 231.726 144.576 233.164 143.750 234.750 143.750 Z " transform="matrix(-0.46586522459983826, 0, 0, 0.46586522459983826, 133.6, -63.65)"/>
  <path id="ID0.7692075585946441" fill="none" stroke="#000000" stroke-width="2" stroke-linecap="round" d="M 233.750 150.250 L 234.050 150.550 " transform="matrix(-0.46586522459983826, 0, 0, 0.46586522459983826, 137.95, -63.55)"/>
  <path id="ID0.731148752849549" fill="none" stroke="#000000" stroke-width="2" stroke-linecap="round" d="M 242.500 150 L 242.800 150.300 " transform="matrix(-0.46586522459983826, 0, 0, 0.46586522459983826, 137.95, -63.55)"/>
  <path id="ID0.8540973095223308" fill="none" stroke="#000000" stroke-width="2" stroke-linecap="round" d="M 255.250 160.850 C 255.250 160.850 253.312 160.956 252.400 161.250 C 251.731 161.466 251.089 161.846 250.600 162.350 C 250.012 162.957 249.545 163.708 249.250 164.500 C 248.999 165.176 249.042 165.930 249 166.650 C 248.959 167.348 248.664 168.136 249 168.750 C 249.330 169.354 250.102 169.617 250.750 169.850 C 251.430 170.094 252.182 170.234 252.900 170.150 C 253.936 170.029 255.900 169.250 255.900 169.250 " transform="matrix(-0.3146975040435791, 0, 0, 0.3146975040435791, 106.55, -40.55)"/>
  <g id="ID0.9504517368040979" transform="matrix(1, 0, 0, 1, 2, 0)">
    <path id="ID0.36374237248674035" fill="#FFFFFF" stroke="#FFFFFF" stroke-width="2" stroke-linecap="round" d="M 255.650 198 C 256.477 197.339 257.355 198.205 258.300 198.500 C 258.955 198.705 259.634 198.833 260.300 199 C 260.966 199.167 261.640 199.311 262.300 199.500 C 263.039 199.711 263.759 199.996 264.500 200.200 C 265.209 200.395 265.936 200.525 266.650 200.700 C 268.650 201.191 270.653 201.695 272.650 202.200 C 273.484 202.411 274.315 202.643 275.150 202.850 C 275.864 203.026 276.579 203.206 277.300 203.350 C 277.995 203.489 278.696 203.616 279.400 203.700 C 280.096 203.783 280.801 203.799 281.500 203.850 C 282.166 203.899 282.837 203.917 283.500 204 C 284.171 204.084 285.007 203.887 285.500 204.350 C 286 204.820 285.915 205.669 286 206.350 C 286.083 207.011 286 207.684 286 208.350 C 286 209.016 286.033 209.685 286 210.350 C 285.967 211.018 286.113 211.758 285.800 212.350 C 285.453 213.006 284.849 213.612 284.150 213.850 C 280.526 213.723 279.179 213.736 277.400 213.600 C 276.723 213.550 276.054 213.384 275.400 213.200 C 274.716 212.966 274.100 212.519 273.400 212.350 C 272.668 212.173 271.897 212.196 271.150 212.100 C 269.900 211.943 268.782 211.629 267.650 211.500 C 266.694 211.429 265.720 211.664 264.900 211.500 C 264.228 211.362 263.702 210.887 263 210.700 C 256.578 209.278 255.252 209.498 253.300 207.500 C 253.546 203.385 254.079 202.581 254.300 201.200 C 254.412 200.500 254.431 199.774 254.650 199.100 C 254.836 198.526 254.905 197.598 255.500 197.500 Z " transform="matrix(-0.47329872846603394, 0, 0, 0.47329872846603394, 152.85, -81.05)"/>
    <path id="ID0.22580166859552264" fill="none" stroke="#000000" stroke-width="2" stroke-linecap="round" d="M 253.100 202.400 L 263 204.400 " transform="matrix(-0.47329872846603394, 0, 0, 0.47329872846603394, 152.85, -81.05)"/>
    <path id="ID0.35463656252250075" fill="none" stroke="#000000" stroke-width="2" stroke-linecap="round" d="M 286.750 209.150 L 275.900 207.300 " transform="matrix(-0.47329872846603394, 0, 0, 0.47329872846603394, 152.85, -81.05)"/>
  </g>
  <g id="ID0.1477178898639977" transform="matrix(0.7370770573616028, 0.6758086681365967, -0.6758086681365967, 0.7370770573616028, 23.15, -2.05)">
    <path id="ID0.5619839346036315" fill="#FF0000" stroke="#CC0000" stroke-width="2" stroke-linecap="round" d="M 282.550 231 C 306.841 200.371 308.320 199.171 315.500 193 C 318.114 191.163 320.546 191.730 322.500 193 C 324.499 194.299 326.520 196.941 325.500 199.500 C 309.865 219.642 303.238 227.753 292 235 C 288.841 236.950 281.120 234.340 282.550 231 Z " transform="matrix(-0.1411772519350052, -0.1861952394247055, -0.28478702902793884, 0.215931698679924, 114.2, 39.8)"/>
    <path id="ID0.6155663500539958" fill="#FFD499" stroke="none" d="M 241.250 209 C 243.526 209 245.589 209.924 247.082 211.418 C 248.576 212.911 249.500 214.974 249.500 217.250 C 249.500 219.526 248.576 221.589 247.082 223.082 C 245.589 224.576 243.526 225.500 241.250 225.500 C 238.974 225.500 236.911 224.576 235.418 223.082 C 233.924 221.589 233 219.526 233 217.250 C 233 214.974 233.924 212.911 235.418 211.418 C 236.911 209.924 238.974 209 241.250 209 Z " transform="matrix(-0.2997800409793854, -0.13759765028953552, -0.13342803716659546, 0.29069584608078003, 108.35, 6.7)"/>
  </g>
</svg>