<svg version="1.1" width="63" height="73" viewBox="-1 -1 63 73" xmlns="http://www.w3.org/2000/svg" xmlns:xlink="http://www.w3.org/1999/xlink">
  <defs>
    <linearGradient id="grad_1" x2="1">
      <stop offset="0" stop-color="#FFFF00" stop-opacity="1"/>
      <stop offset="1" stop-color="#FFFF00" stop-opacity="0"/>
    </linearGradient>
    <linearGradient id="grad_2" x2="1">
      <stop offset="0" stop-color="#FFFF00" stop-opacity="1"/>
      <stop offset="1" stop-color="#FFFF00" stop-opacity="0"/>
    </linearGradient>
  </defs>
  <!-- Exported by Scratch - http://scratch.mit.edu/ -->
  <path id="ID0.20220222463831306" fill="none" stroke="#000000" stroke-width="2" stroke-linecap="round" d="M 281.850 119.900 C 281.850 119.900 288.710 118.214 291.950 119.150 C 300.362 121.590 310.727 123.789 317.150 130.350 C 321.332 134.612 321.250 148.600 321.250 148.600 " transform="matrix(-0.3372674882411957, 0, 0, 0.5015772581100464, 109.25, -28.65)"/>
  <path id="ID0.20220222463831306" fill="none" stroke="#000000" stroke-width="2" stroke-linecap="round" d="M 281.850 119.900 C 281.850 119.900 341.450 119.950 341.450 119.950 " transform="matrix(0.3372674882411957, 0, 0, 0.5015772581100464, -61.15, -28.9)"/>
  <path id="ID0.29164318600669503" fill="#99B2FF" stroke="#849FDC" stroke-width="2" stroke-linecap="round" d="M 221.650 108.300 L 224.950 103.250 L 233 98.550 L 238 97.400 L 241.600 105.750 L 245.200 97.400 L 250.200 99.100 L 256.350 102.950 L 259.400 107.950 L 259.450 155.550 L 221.650 155.550 L 221.650 108.300 Z " transform="matrix(0.5015772581100464, 0, 0, 0.5015772581100464, -97.2, -47.8)"/>
  <path id="ID0.6132512143813074" fill="#7F7F7F" stroke="#515151" stroke-width="2" d="M 223.350 154.750 L 260.250 154.750 L 260.250 201.700 L 223.350 201.700 L 223.350 154.750 Z " transform="matrix(0.5189841985702515, 0, 0, 0.5015772581100464, -101.7, -47.05)"/>
  <path id="ID0.02467851573601365" fill="#000000" stroke="none" stroke-linecap="round" d="M 231.650 113.900 C 232.795 113.900 234.008 114.954 234.584 116.010 C 235.161 117.072 235.218 118.584 234.800 119.800 C 234.518 120.526 232.817 120.453 232.750 121.100 C 232.691 121.672 234.380 121.454 234.650 122.100 C 235.079 123.397 235.151 125.003 234.584 126.190 C 234.065 127.275 232.795 128.300 231.650 128.300 C 230.505 128.300 229.468 127.493 228.716 126.190 C 227.965 124.886 227.500 123.086 227.500 121.100 C 227.500 119.114 227.965 117.314 228.716 116.010 C 229.468 114.707 230.505 113.900 231.650 113.900 Z " transform="matrix(0.5015772581100464, 0, 0, 0.5015772581100464, -98.2, -49.05)"/>
  <g id="ID0.31094841519370675" transform="matrix(1, 0, 0, 1, 0.05, 0.05)">
    <path id="ID0.042100869584828615" fill="#0033CC" stroke="#001966" stroke-width="2" stroke-linecap="round" d="M 222.500 140.800 C 222.864 139.900 223.695 139.442 224.450 138.900 C 224.994 138.509 225.458 137.939 226.100 137.750 C 226.819 137.538 227.614 137.609 228.350 137.750 C 229.121 137.897 230.052 137.993 230.550 138.600 C 231.019 139.172 230.296 140.982 230.850 140.800 C 231.971 140.432 232.726 138.428 233.900 137.500 C 234.516 137.013 235.316 136.703 236.100 136.650 C 236.870 136.598 237.660 136.855 238.350 137.200 C 238.995 137.522 239.543 138.043 240 138.600 C 240.473 139.176 240.464 140.474 241.100 140.550 C 241.714 140.624 241.990 139.410 242.500 138.900 C 243.010 138.390 243.539 137.882 244.150 137.500 C 244.751 137.125 245.398 136.742 246.100 136.650 C 246.849 136.552 247.723 136.529 248.350 136.950 C 248.969 137.366 249.175 138.207 249.450 138.900 C 249.729 139.602 249.972 140.345 250 141.100 C 250.056 142.584 250.088 144.116 249.700 145.550 C 249.515 146.235 248.995 146.904 248.350 147.200 C 247.669 147.512 246.849 147.200 246.100 147.200 C 244.618 147.200 243.130 147.133 241.650 147.200 C 240.911 147.233 240.188 147.450 239.450 147.500 C 238.702 147.550 238.170 147.462 237.200 147.500 C 233.319 147.654 229.434 148.050 225.550 148.050 C 224.579 148.050 224.122 147.928 223.600 147.500 C 223.023 147.027 222.689 146.271 222.500 145.550 C 222.310 144.825 222.550 144.048 222.500 143.300 C 222.450 142.562 222.280 141.835 222.200 141.100 C 222.180 140.916 222.034 140.712 222.200 140.550 Z " transform="matrix(0.33001455664634705, 0, 0, 0.33001455664634705, -58.5, -23.55)"/>
    <path id="ID0.042100869584828615" fill="#0033CC" stroke="#001966" stroke-width="2" stroke-linecap="round" d="M 222.500 140.800 C 222.864 139.900 223.695 139.442 224.450 138.900 C 224.994 138.509 225.458 137.939 226.100 137.750 C 226.819 137.538 227.614 137.609 228.350 137.750 C 229.121 137.897 230.052 137.993 230.550 138.600 C 231.019 139.172 230.296 140.982 230.850 140.800 C 231.971 140.432 232.726 138.428 233.900 137.500 C 234.516 137.013 235.316 136.703 236.100 136.650 C 236.870 136.598 237.660 136.855 238.350 137.200 C 238.995 137.522 239.543 138.043 240 138.600 C 240.473 139.176 240.464 140.474 241.100 140.550 C 241.714 140.624 241.990 139.410 242.500 138.900 C 243.010 138.390 243.539 137.882 244.150 137.500 C 244.751 137.125 245.398 136.742 246.100 136.650 C 246.849 136.552 247.723 136.529 248.350 136.950 C 248.969 137.366 249.175 138.207 249.450 138.900 C 249.729 139.602 249.972 140.345 250 141.100 C 250.056 142.584 250.088 144.116 249.700 145.550 C 249.515 146.235 248.995 146.904 248.350 147.200 C 247.669 147.512 246.849 147.200 246.100 147.200 C 244.618 147.200 243.130 147.133 241.650 147.200 C 240.911 147.233 240.188 147.450 239.450 147.500 C 238.702 147.550 238.170 147.462 237.200 147.500 C 233.319 147.654 229.434 148.050 225.550 148.050 C 224.579 148.050 224.122 147.928 223.600 147.500 C 223.023 147.027 222.689 146.271 222.500 145.550 C 222.310 144.825 222.550 144.048 222.500 143.300 C 222.450 142.562 222.280 141.835 222.200 141.100 C 222.180 140.916 222.034 140.712 222.200 140.550 Z " transform="matrix(0.33001455664634705, 0, 0, 0.33001455664634705, -58.5, -21.8)"/>
    <path id="ID0.042100869584828615" fill="#0033CC" stroke="#001966" stroke-width="2" stroke-linecap="round" d="M 222.500 140.800 C 222.864 139.900 223.695 139.442 224.450 138.900 C 224.994 138.509 225.458 137.939 226.100 137.750 C 226.819 137.538 227.614 137.609 228.350 137.750 C 229.121 137.897 230.052 137.993 230.550 138.600 C 231.019 139.172 230.296 140.982 230.850 140.800 C 231.971 140.432 232.726 138.428 233.900 137.500 C 234.516 137.013 235.316 136.703 236.100 136.650 C 236.870 136.598 237.660 136.855 238.350 137.200 C 238.995 137.522 239.543 138.043 240 138.600 C 240.473 139.176 240.464 140.474 241.100 140.550 C 241.714 140.624 241.990 139.410 242.500 138.900 C 243.010 138.390 243.539 137.882 244.150 137.500 C 244.751 137.125 245.398 136.742 246.100 136.650 C 246.849 136.552 247.723 136.529 248.350 136.950 C 248.969 137.366 249.175 138.207 249.450 138.900 C 249.729 139.602 249.972 140.345 250 141.100 C 250.056 142.584 250.088 144.116 249.700 145.550 C 249.515 146.235 248.995 146.904 248.350 147.200 C 247.669 147.512 246.849 147.200 246.100 147.200 C 244.618 147.200 243.130 147.133 241.650 147.200 C 240.911 147.233 240.188 147.450 239.450 147.500 C 238.702 147.550 238.170 147.462 237.200 147.500 C 233.319 147.654 229.434 148.050 225.550 148.050 C 224.579 148.050 224.122 147.928 223.600 147.500 C 223.023 147.027 222.689 146.271 222.500 145.550 C 222.310 144.825 222.550 144.048 222.500 143.300 C 222.450 142.562 222.280 141.835 222.200 141.100 C 222.180 140.916 222.034 140.712 222.200 140.550 Z " transform="matrix(0.33001455664634705, 0, 0, 0.33001455664634705, -58.5, -20.3)"/>
    <path id="ID0.042100869584828615" fill="#0033CC" stroke="#001966" stroke-width="2" stroke-linecap="round" d="M 222.500 140.800 C 222.864 139.900 223.695 139.442 224.450 138.900 C 224.994 138.509 225.458 137.939 226.100 137.750 C 226.819 137.538 227.614 137.609 228.350 137.750 C 229.121 137.897 230.052 137.993 230.550 138.600 C 231.019 139.172 230.296 140.982 230.850 140.800 C 231.971 140.432 232.726 138.428 233.900 137.500 C 234.516 137.013 235.316 136.703 236.100 136.650 C 236.870 136.598 237.660 136.855 238.350 137.200 C 238.995 137.522 239.543 138.043 240 138.600 C 240.473 139.176 240.464 140.474 241.100 140.550 C 241.714 140.624 241.990 139.410 242.500 138.900 C 243.010 138.390 243.539 137.882 244.150 137.500 C 244.751 137.125 245.398 136.742 246.100 136.650 C 246.849 136.552 247.723 136.529 248.350 136.950 C 248.969 137.366 249.175 138.207 249.450 138.900 C 249.729 139.602 249.972 140.345 250 141.100 C 250.056 142.584 250.088 144.116 249.700 145.550 C 249.515 146.235 248.995 146.904 248.350 147.200 C 247.669 147.512 246.849 147.200 246.100 147.200 C 244.618 147.200 243.130 147.133 241.650 147.200 C 240.911 147.233 240.188 147.450 239.450 147.500 C 238.702 147.550 238.170 147.462 237.200 147.500 C 233.319 147.654 229.434 148.050 225.550 148.050 C 224.579 148.050 224.122 147.928 223.600 147.500 C 223.023 147.027 222.689 146.271 222.500 145.550 C 222.310 144.825 222.550 144.048 222.500 143.300 C 222.450 142.562 222.280 141.835 222.200 141.100 C 222.180 140.916 222.034 140.712 222.200 140.550 Z " transform="matrix(0.33001455664634705, 0, 0, 0.33001455664634705, -58.5, -18.7)"/>
    <path id="ID0.4275983236730099" fill="none" stroke="#001966" stroke-width="2" stroke-linecap="round" d="M 223.100 154.150 C 223.100 154.150 224.204 153.003 224.900 152.650 C 225.523 152.334 226.255 152.130 226.950 152.200 C 227.655 152.270 228.200 153.160 228.900 153.050 C 229.587 152.942 229.797 151.891 230.450 151.650 C 231.279 151.344 232.237 151.310 233.100 151.500 C 233.822 151.659 234.270 152.530 235 152.650 C 236.381 152.876 237.839 152.172 239.200 152.500 C 239.864 152.660 240.600 154 240.600 154 " transform="matrix(0.48752346634864807, 0, 0, 0.35374394059181213, -93.55, -24.8)"/>
  </g>
  <path id="ID0.7726555611006916" fill="none" stroke="#000000" stroke-width="2" stroke-linecap="round" d="M 258.900 203.350 L 258.900 237.800 L 267.750 237.800 " transform="matrix(0.5015772581100464, 0, 0, 0.5015772581100464, -96.85, -47.8)"/>
  <path id="ID0.7726555611006916" fill="none" stroke="#000000" stroke-width="2" stroke-linecap="round" d="M 258.900 203.350 L 258.050 222.350 L 261.500 231.400 L 268.450 237.500 L 255.700 237.750 " transform="matrix(-0.5015772581100464, 0, 0, 0.5015772581100464, 144.25, -47.8)"/>
  <path id="ID0.7442242298275232" fill="url(#grad_1)" stroke="url(#grad_2)" stroke-width="2" stroke-linecap="round" d="M 218.200 194.600 L 202.250 185.600 L 219.600 190.300 L 196.400 176.100 L 225.700 182.700 L 223.200 176.600 L 248.750 185.900 L 248.750 207.100 L 236 211.500 L 240.300 204 L 209.600 213.200 L 220.600 204 L 200.850 207.900 L 217.500 194.850 Z " transform="matrix(0.37696537375450134, 0, 0, 0.37696537375450134, -32.55, -42.55)"/>
</svg>