<svg version="1.1" width="314" height="158" viewBox="-1 -1 314 158" xmlns="http://www.w3.org/2000/svg" xmlns:xlink="http://www.w3.org/1999/xlink">
  <!-- Exported by Scratch - http://scratch.mit.edu/ -->
  <g id="ID0.39879406057298183" transform="matrix(1, 0, 0, 1, -174, -137)">
    <path id="ID0.3400925532914698" fill="#804BD9" stroke="#653BAB" stroke-width="2" stroke-linecap="round" d="M 281.450 209.600 C 284.832 201.362 283.839 191.071 281.450 182.300 C 280.540 178.964 275.449 178.623 272.300 176.850 C 271.650 176.421 272.878 178.629 272.050 176.850 C 268.737 169.736 268.671 159.631 261.850 155.700 C 255.165 151.484 244.955 152.095 238.150 156.400 C 231.930 160.336 232.178 169.820 228.950 176.500 C 228.307 178.129 230.068 175.817 228.950 176.150 C 224.489 177.479 217.709 176.104 215.650 180.450 C 211.559 189.105 212.297 199.716 213.900 209.150 C 214.324 211.622 217.543 205.334 220.050 204.450 C 222.031 203.680 224.483 203.591 226.650 204.450 C 230.067 205.820 231.933 210.292 235.600 210.950 C 243.202 212.317 251.208 212.375 258.800 210.950 C 261.173 210.505 261.583 206.595 263.900 205.500 C 266.114 204.401 268.943 204.239 271.500 204.800 C 275.092 205.592 280.103 212.731 281.450 209.600 Z " transform="matrix(1.962252140045166, 0, 0, 1.466101884841919, -241.25, -85.3)"/>
    <path id="ID0.2408854984678328" fill="#00FFFF" stroke="#009999" stroke-width="2" stroke-linecap="round" d="M 250.500 146 L 236 147 L 225 154 L 219 162.500 L 217.500 173.500 L 252.500 174 L 250.500 146 Z "/>
    <path id="ID0.7609109175391495" fill="none" stroke="#FFFFFF" stroke-width="2" stroke-linecap="round" d="M 243.500 148 L 233 158 "/>
    <path id="ID0.5293191354721785" fill="none" stroke="#FFFFFF" stroke-width="2" stroke-linecap="round" d="M 240 158 L 229.500 167.500 "/>
    <path id="ID0.5785612338222563" fill="none" stroke="#FFFFFF" stroke-width="2" stroke-linecap="round" d="M 249.500 156 L 239.500 165 "/>
    <path id="ID0.24303878843784332" fill="none" stroke="#FFFFFF" stroke-width="2" stroke-linecap="round" d="M 226.500 161 L 220 167 "/>
    <path id="ID0.8779562134295702" fill="#00FFFF" stroke="#009999" stroke-width="2" stroke-linecap="round" d="M 285 173 L 269.500 171.500 L 267 145.500 L 275 151 L 285 173 Z "/>
    <path id="ID0.0725827100686729" fill="none" stroke="#FFFFFF" stroke-width="2" stroke-linecap="round" d="M 276 154 L 272.500 159.500 "/>
    <path id="ID0.47909411741420627" fill="none" stroke="#FFFFFF" stroke-width="2" stroke-linecap="round" d="M 276 161 L 272 166.500 "/>
    <path id="ID0.9012332898564637" fill="#573393" stroke="none" d="M 190.500 185.500 C 192.845 185.500 194.970 186.424 196.509 187.918 C 198.048 189.411 199 191.474 199 193.750 C 199 196.026 198.048 198.089 196.509 199.582 C 194.970 201.076 192.845 202 190.500 202 C 188.155 202 186.030 201.076 184.491 199.582 C 182.952 198.089 182 196.026 182 193.750 C 182 191.474 182.952 189.411 184.491 187.918 C 186.030 186.424 188.155 185.500 190.500 185.500 Z "/>
    <path id="ID0.47260211734101176" fill="#FFFF00" stroke="none" d="M 185.750 185 C 187.198 185 188.511 185.924 189.461 187.418 C 190.412 188.911 191 190.974 191 193.250 C 191 195.526 190.412 197.589 189.461 199.082 C 188.511 200.576 187.198 201.500 185.750 201.500 C 184.302 201.500 182.989 200.576 182.039 199.082 C 181.088 197.589 180.500 195.526 180.500 193.250 C 180.500 190.974 181.088 188.911 182.039 187.418 C 182.989 185.924 184.302 185 185.750 185 Z "/>
    <g id="ID0.022357231471687555" transform="matrix(1, 0, 0, 1, 174, 137)">
      <path id="ID0.723410907201469" fill="#192217" stroke="none" d="M 198 208.500 C 203.380 208.500 208.255 210.629 211.785 214.069 C 215.315 217.508 217.500 222.258 217.500 227.500 C 217.500 232.742 215.315 237.492 211.785 240.931 C 208.255 244.371 203.380 246.500 198 246.500 C 192.620 246.500 187.745 244.371 184.215 240.931 C 180.685 237.492 178.500 232.742 178.500 227.500 C 178.500 222.258 180.685 217.508 184.215 214.069 C 187.745 210.629 192.620 208.500 198 208.500 Z " transform="matrix(1, 0, 0, 1, -174, -137)"/>
      <path id="ID0.2541075455956161" fill="#CCCCCC" stroke="none" d="M 198.500 216 C 202.225 216 205.600 217.485 208.043 219.883 C 210.487 222.282 212 225.594 212 229.250 C 212 232.906 210.487 236.218 208.043 238.617 C 205.600 241.015 202.225 242.500 198.500 242.500 C 194.775 242.500 191.400 241.015 188.957 238.617 C 186.513 236.218 185 232.906 185 229.250 C 185 225.594 186.513 222.282 188.957 219.883 C 191.400 217.485 194.775 216 198.500 216 Z " transform="matrix(1, 0, 0, 1, -175.5, -138.5)"/>
    </g>
    <g id="ID0.022357231471687555" transform="matrix(1, 0, 0, 1, 174, 137)">
      <path id="ID0.723410907201469" fill="#192217" stroke="none" d="M 198 208.500 C 203.380 208.500 208.255 210.629 211.785 214.069 C 215.315 217.508 217.500 222.258 217.500 227.500 C 217.500 232.742 215.315 237.492 211.785 240.931 C 208.255 244.371 203.380 246.500 198 246.500 C 192.620 246.500 187.745 244.371 184.215 240.931 C 180.685 237.492 178.500 232.742 178.500 227.500 C 178.500 222.258 180.685 217.508 184.215 214.069 C 187.745 210.629 192.620 208.500 198 208.500 Z " transform="matrix(1, 0, 0, 1, -80, -137.5)"/>
      <path id="ID0.2541075455956161" fill="#CCCCCC" stroke="none" d="M 198.500 216 C 202.225 216 205.600 217.485 208.043 219.883 C 210.487 222.282 212 225.594 212 229.250 C 212 232.906 210.487 236.218 208.043 238.617 C 205.600 241.015 202.225 242.500 198.500 242.500 C 194.775 242.500 191.400 241.015 188.957 238.617 C 186.513 236.218 185 232.906 185 229.250 C 185 225.594 186.513 222.282 188.957 219.883 C 191.400 217.485 194.775 216 198.500 216 Z " transform="matrix(1, 0, 0, 1, -81.5, -139)"/>
    </g>
    <path id="ID0.3302615978755057" fill="none" stroke="#653BAB" stroke-width="2" stroke-linecap="round" d="M 252.500 174 L 255 223 "/>
    <path id="ID0.5017857123166323" fill="none" stroke="#653BAB" stroke-width="2" stroke-linecap="round" d="M 217 173 L 221.500 222.500 "/>
    <path id="ID0.912425734102726" fill="none" stroke="#653BAB" stroke-width="2" stroke-linecap="round" d="M 233.500 192.500 L 246.500 193 L 249 199 "/>
    <path id="ID0.7503481437452137" fill="none" stroke="#653BAB" stroke-width="2" stroke-linecap="round" d="M 271.500 183.500 L 294.500 184.500 "/>
    <path id="ID0.7503481437452137" fill="none" stroke="#653BAB" stroke-width="2" stroke-linecap="round" d="M 271.500 183.500 L 294.500 184.500 " transform="matrix(1, 0, 0, 1, 0.05, 6.5)"/>
    <path id="ID0.7503481437452137" fill="none" stroke="#653BAB" stroke-width="2" stroke-linecap="round" d="M 271.500 183.500 L 294.500 184.500 " transform="matrix(1, 0, 0, 1, 0.05, 12.5)"/>
  </g>
</svg>