<svg version="1.1" width="274" height="168" viewBox="0 -1 274 168" xmlns="http://www.w3.org/2000/svg" xmlns:xlink="http://www.w3.org/1999/xlink">
  <!-- Exported by Scratch - http://scratch.mit.edu/ -->
  <g id="ID0.6547560035251081" transform="matrix(0.06507913768291473, -0.9978801012039185, 0.9978801012039185, 0.06507913768291473, -104, 273.1)">
    <path id="ID0.032828168012201786" fill="#0138B1" stroke="#023993" stroke-width="1" d="M 208.125 174 C 211.263 174 214.107 174.462 216.166 175.209 C 218.225 175.956 219.500 176.987 219.500 178.125 C 219.500 179.263 218.225 180.294 216.166 181.041 C 214.107 181.788 211.263 182.250 208.125 182.250 C 204.987 182.250 202.143 181.788 200.084 181.041 C 198.025 180.294 196.750 179.263 196.750 178.125 C 196.750 176.987 198.025 175.956 200.084 175.209 C 202.143 174.462 204.987 174 208.125 174 Z " transform="matrix(-0.6236862540245056, -0.6965456604957581, -0.734740138053894, 0.4706135094165802, 523, 215.3)"/>
    <path id="ID0.10849038045853376" fill="#C5A377" stroke="#B4956C" stroke-width="2" d="M 205.375 191.250 C 206.927 191.250 208.333 191.852 209.351 192.825 C 210.370 193.798 211 195.142 211 196.625 C 211 198.108 210.370 199.452 209.351 200.425 C 208.333 201.398 206.927 202 205.375 202 C 203.823 202 202.417 201.398 201.399 200.425 C 200.380 199.452 199.750 198.108 199.750 196.625 C 199.750 195.142 200.380 193.798 201.399 192.825 C 202.417 191.852 203.823 191.250 205.375 191.250 Z " transform="matrix(0.9216576218605042, 0, 0, 0.7795189023017883, 78.15, 7.95)"/>
  </g>
  <g id="ID0.5088273035362363" transform="matrix(0.9266908168792725, -0.37582460045814514, 0.37582460045814514, 0.9266908168792725, -7.4, 18.5)">
    <path id="ID0.680017416831106" fill="#3A2100" stroke="none" stroke-linecap="round" d="M 231.800 200.550 C 234.301 210.222 233.856 221.179 230.500 230.500 C 229.564 233.098 222.939 232.275 222.250 229.600 C 219.757 219.919 219.342 209.149 222.300 199.700 C 223.430 196.716 231.035 197.551 231.800 200.550 Z " transform="matrix(0.7821633815765381, 0, 0, 1.024565577507019, -133.05, -161.55)"/>
    <path id="ID0.6309642544947565" fill="#000000" stroke="#000000" stroke-width="2" stroke-linecap="round" d="M 249.500 220 C 249.823 221.335 249.996 221.734 250.750 221.750 C 253.769 221.813 257.123 222.895 259.800 221.500 C 261.002 220.956 259.785 218.575 258.750 217.750 C 257.706 216.919 256.083 217.556 254.750 217.500 C 254.085 217.472 253.405 217.377 252.750 217.500 C 252.051 217.631 251.314 217.816 250.750 218.250 C 250.182 218.687 249.575 219.292 249.500 220 Z " transform="matrix(0.7821633815765381, 0, 0, 1.3826661109924316, -153.45, -230.25)"/>
  </g>
  <g id="ID0.5088273035362363" transform="matrix(0.8436614871025085, 0.5368754863739014, -0.5368754863739014, 0.8436614871025085, 33.05, -16.7)">
    <path id="ID0.680017416831106" fill="#663B00" stroke="none" stroke-linecap="round" d="M 231.800 200.550 C 234.301 210.222 233.856 221.179 230.500 230.500 C 229.564 233.098 222.939 232.275 222.250 229.600 C 219.757 219.919 219.342 209.149 222.300 199.700 C 223.430 196.716 231.035 197.551 231.800 200.550 Z " transform="matrix(0.7821633815765381, 0, 0, 1.024565577507019, -146.2, -161.8)"/>
    <path id="ID0.6309642544947565" fill="#000000" stroke="#000000" stroke-width="2" stroke-linecap="round" d="M 249.500 220 C 249.823 221.335 249.996 221.734 250.750 221.750 C 253.769 221.813 257.123 222.895 259.800 221.500 C 261.002 220.956 259.785 218.575 258.750 217.750 C 257.706 216.919 256.083 217.556 254.750 217.500 C 254.085 217.472 253.405 217.377 252.750 217.500 C 252.051 217.631 251.314 217.816 250.750 218.250 C 250.182 218.687 249.575 219.292 249.500 220 Z " transform="matrix(0.7821633815765381, 0, 0, 1.3826661109924316, -166.6, -230.45)"/>
  </g>
  <path id="ID0.8365832129493356" fill="none" stroke="#666666" stroke-width="2" stroke-linecap="round" d="M 177.350 190 " transform="matrix(1, 0, 0, 1, -210, -162)"/>
  <path id="ID0.8365832129493356" fill="none" stroke="#666666" stroke-width="2" stroke-linecap="round" d="M 177.350 190 " transform="matrix(1, 0, 0, 1, -204, -195)"/>
  <path id="ID0.8365832129493356" fill="none" stroke="#666666" stroke-width="2" stroke-linecap="round" d="M 177.350 190 " transform="matrix(1, 0, 0, 1, -362, -261)"/>
  <path id="ID0.8365832129493356" fill="none" stroke="#666666" stroke-width="2" stroke-linecap="round" d="M 177.350 190 " transform="matrix(1, 0, 0, 1, -323, -102)"/>
  <path id="ID0.8365832129493356" fill="none" stroke="#666666" stroke-width="2" stroke-linecap="round" d="M 177.350 190 " transform="matrix(1, 0, 0, 1, -208, -305)"/>
  <path id="ID0.8092106799595058" fill="#FFD499" stroke="none" d="M 242.925 158.500 C 247.801 158.500 252.220 160.621 255.420 164.047 C 258.619 167.472 260.600 172.204 260.600 177.425 C 260.600 182.646 258.619 187.378 255.420 190.803 C 252.220 194.229 247.801 196.350 242.925 196.350 C 238.049 196.350 233.630 194.229 230.430 190.803 C 227.231 187.378 225.250 182.646 225.250 177.425 C 225.250 172.204 227.231 167.472 230.430 164.047 C 233.630 160.621 238.049 158.500 242.925 158.500 Z " transform="matrix(1.1581677198410034, 0, 0, 0.9795541167259216, -241.55, -155.15)"/>
  <path id="ID0.14808626752346754" fill="none" stroke="#000000" stroke-width="1" stroke-linecap="round" d="M 231.250 175.750 L 246.800 175.800 " transform="matrix(0.9216576218605042, 0, 0, 0.7795189023017883, -174.35, -121.25)"/>
  <path id="ID0.5513844583183527" fill="#FFFFFF" stroke="#000000" stroke-width="1" d="M 233.125 160 C 234.332 160 235.426 160.476 236.218 161.246 C 237.010 162.015 237.500 163.077 237.500 164.250 C 237.500 165.423 237.010 166.485 236.218 167.254 C 235.426 168.024 234.332 168.500 233.125 168.500 C 231.918 168.500 230.824 168.024 230.032 167.254 C 229.240 166.485 228.750 165.423 228.750 164.250 C 228.750 163.077 229.240 162.015 230.032 161.246 C 230.824 160.476 231.918 160 233.125 160 Z " transform="matrix(0.9216576218605042, 0, 0, 0.7795189023017883, -173.95, -120.35)"/>
  <path id="ID0.5513844583183527" fill="#FFFFFF" stroke="#000000" stroke-width="1" d="M 233.125 160 C 234.332 160 235.426 160.476 236.218 161.246 C 237.010 162.015 237.500 163.077 237.500 164.250 C 237.500 165.423 237.010 166.485 236.218 167.254 C 235.426 168.024 234.332 168.500 233.125 168.500 C 231.918 168.500 230.824 168.024 230.032 167.254 C 229.240 166.485 228.750 165.423 228.750 164.250 C 228.750 163.077 229.240 162.015 230.032 161.246 C 230.824 160.476 231.918 160 233.125 160 Z " transform="matrix(0.7241291999816895, 0, 0, 0.7838256359100342, -117.85, -120.55)"/>
  <path id="ID0.7196033955551684" fill="none" stroke="#000000" stroke-width="2" stroke-linecap="round" d="M 233 166.500 L 233.300 166.800 " transform="matrix(0.9216576218605042, 0, 0, 0.7795189023017883, -171.95, -121.85)"/>
  <path id="ID0.286019139457494" fill="none" stroke="#000000" stroke-width="2" stroke-linecap="round" d="M 247.500 166.250 L 247.800 166.550 " transform="matrix(0.7241291999816895, 0, 0, 0.8296633958816528, -127.1, -129.15)"/>
  <path id="ID0.3222357570193708" fill="none" stroke="#000000" stroke-width="1" stroke-linecap="round" d="M 332.100 155.250 C 332.100 155.250 331.336 155.529 331 155.750 C 330.695 155.951 330.401 156.195 330.200 156.500 C 330.006 156.795 329.885 157.149 329.850 157.500 C 329.816 157.835 329.833 158.208 330 158.500 C 330.187 158.828 330.537 159.039 330.850 159.250 C 331.158 159.458 331.483 159.689 331.850 159.750 C 332.034 159.781 332.350 159.500 332.350 159.500 " transform="matrix(-1.1387827396392822, 0, 0, 0.8489106297492981, 424.05, -121.6)"/>
  <path id="ID0.8365832129493356" fill="none" stroke="#666666" stroke-width="2" stroke-linecap="round" d="M 177.350 190 " transform="matrix(1, 0, 0, 1, -17, -54)"/>
  <path id="ID0.8365832129493356" fill="none" stroke="#666666" stroke-width="2" stroke-linecap="round" d="M 177.350 190 " transform="matrix(1, 0, 0, 1, -202, -132)"/>
  <path id="ID0.8365832129493356" fill="none" stroke="#666666" stroke-width="2" stroke-linecap="round" d="M 177.350 190 " transform="matrix(1, 0, 0, 1, -3, -62)"/>
  <path id="ID0.8365832129493356" fill="none" stroke="#666666" stroke-width="2" stroke-linecap="round" d="M 177.350 190 " transform="matrix(1, 0, 0, 1, -214, -52)"/>
  <path id="ID0.8092106799595058" fill="#003FFF" stroke="#0142D2" stroke-width="2" d="M 226.550 179.700 C 237.434 178.545 248.476 178.630 259.600 178.750 C 262.374 178.771 260.758 178.370 260.650 180.050 C 260.219 186.765 260.127 193.669 258.150 200.100 C 257.515 202.165 255.447 204.120 253.350 204.550 C 246.917 205.594 240.210 205.349 233.850 204.300 C 230.985 203.828 227.483 202.523 226.350 199.850 C 224.056 194.436 224.924 188.230 224.900 182.400 C 224.877 180.942 223.706 179.989 226.550 179.700 Z " transform="matrix(1.1581677198410034, 0, 0, 0.9795541167259216, -241.3, -154.65)"/>
  <g id="ID0.8711371798999608">
    <path id="ID0.032828168012201786" fill="#119AD9" stroke="#0F89C1" stroke-width="1" d="M 208.125 174 C 211.263 174 214.107 174.462 216.166 175.209 C 218.225 175.956 219.500 176.987 219.500 178.125 C 219.500 179.263 218.225 180.294 216.166 181.041 C 214.107 181.788 211.263 182.250 208.125 182.250 C 204.987 182.250 202.143 181.788 200.084 181.041 C 198.025 180.294 196.750 179.263 196.750 178.125 C 196.750 176.987 198.025 175.956 200.084 175.209 C 202.143 174.462 204.987 174 208.125 174 Z " transform="matrix(0.8264366388320923, 0.43722182512283325, -0.2794559895992279, 0.82657390832901, -107.95, -215.75)"/>
    <path id="ID0.10849038045853376" fill="#FFD499" stroke="#DCB684" stroke-width="2" d="M 205.375 191.250 C 206.927 191.250 208.333 191.852 209.351 192.825 C 210.370 193.798 211 195.142 211 196.625 C 211 198.108 210.370 199.452 209.351 200.425 C 208.333 201.398 206.927 202 205.375 202 C 203.823 202 202.417 201.398 201.399 200.425 C 200.380 199.452 199.750 198.108 199.750 196.625 C 199.750 195.142 200.380 193.798 201.399 192.825 C 202.417 191.852 203.823 191.250 205.375 191.250 Z " transform="matrix(0.22235096991062164, 0.8944344520568848, -0.7564940452575684, 0.18805982172489166, 109.75, -203.05)"/>
  </g>
</svg>