<svg version="1.1" width="86" height="78" viewBox="2 4 86 78" xmlns="http://www.w3.org/2000/svg" xmlns:xlink="http://www.w3.org/1999/xlink">
  <defs>
    <linearGradient id="grad_1" x2="1">
      <stop offset="0" stop-color="#FFFF00" stop-opacity="0"/>
      <stop offset="1" stop-color="#FFFF00" stop-opacity="1"/>
    </linearGradient>
    <linearGradient id="grad_2" x2="1">
      <stop offset="0" stop-color="#FFFF00" stop-opacity="0"/>
      <stop offset="1" stop-color="#FFFF00" stop-opacity="1"/>
    </linearGradient>
  </defs>
  <!-- Exported by Scratch - http://scratch.mit.edu/ -->
  <g id="ID0.5088273035362363">
    <path id="ID0.680017416831106" fill="#3A2100" stroke="none" stroke-linecap="round" d="M 231.800 200.550 C 234.301 210.222 233.856 221.179 230.500 230.500 C 229.564 233.098 222.939 232.275 222.250 229.600 C 219.757 219.919 219.342 209.149 222.300 199.700 C 223.430 196.716 231.035 197.551 231.800 200.550 Z " transform="matrix(0.7821633815765381, 0, 0, 1.024565577507019, -149.05, -157.55)"/>
    <path id="ID0.6309642544947565" fill="#000000" stroke="#000000" stroke-width="2" stroke-linecap="round" d="M 249.500 220 C 249.823 221.335 249.996 221.734 250.750 221.750 C 253.769 221.813 257.123 222.895 259.800 221.500 C 261.002 220.956 259.785 218.575 258.750 217.750 C 257.706 216.919 256.083 217.556 254.750 217.500 C 254.085 217.472 253.405 217.377 252.750 217.500 C 252.051 217.631 251.314 217.816 250.750 218.250 C 250.182 218.687 249.575 219.292 249.500 220 Z " transform="matrix(0.7821633815765381, 0, 0, 1.3826661109924316, -169.45, -226.25)"/>
  </g>
  <g id="ID0.5088273035362363">
    <path id="ID0.680017416831106" fill="#663B00" stroke="none" stroke-linecap="round" d="M 231.800 200.550 C 234.301 210.222 233.856 221.179 230.500 230.500 C 229.564 233.098 222.939 232.275 222.250 229.600 C 219.757 219.919 219.342 209.149 222.300 199.700 C 223.430 196.716 231.035 197.551 231.800 200.550 Z " transform="matrix(0.7821633815765381, 0, 0, 1.024565577507019, -162.2, -157.8)"/>
    <path id="ID0.6309642544947565" fill="#000000" stroke="#000000" stroke-width="2" stroke-linecap="round" d="M 249.500 220 C 249.823 221.335 249.996 221.734 250.750 221.750 C 253.769 221.813 257.123 222.895 259.800 221.500 C 261.002 220.956 259.785 218.575 258.750 217.750 C 257.706 216.919 256.083 217.556 254.750 217.500 C 254.085 217.472 253.405 217.377 252.750 217.500 C 252.051 217.631 251.314 217.816 250.750 218.250 C 250.182 218.687 249.575 219.292 249.500 220 Z " transform="matrix(0.7821633815765381, 0, 0, 1.3826661109924316, -182.6, -226.45)"/>
  </g>
  <path id="ID0.8365832129493356" fill="none" stroke="#666666" stroke-width="2" stroke-linecap="round" d="M 177.350 190 " transform="matrix(1, 0, 0, 1, -226, -158)"/>
  <path id="ID0.8365832129493356" fill="none" stroke="#666666" stroke-width="2" stroke-linecap="round" d="M 177.350 190 " transform="matrix(1, 0, 0, 1, -220, -191)"/>
  <path id="ID0.8365832129493356" fill="none" stroke="#666666" stroke-width="2" stroke-linecap="round" d="M 177.350 190 " transform="matrix(1, 0, 0, 1, -378, -257)"/>
  <path id="ID0.8365832129493356" fill="none" stroke="#666666" stroke-width="2" stroke-linecap="round" d="M 177.350 190 " transform="matrix(1, 0, 0, 1, -339, -98)"/>
  <path id="ID0.8365832129493356" fill="none" stroke="#666666" stroke-width="2" stroke-linecap="round" d="M 177.350 190 " transform="matrix(1, 0, 0, 1, -224, -301)"/>
  <path id="ID0.8092106799595058" fill="#FFD499" stroke="none" d="M 242.925 158.500 C 247.801 158.500 252.220 160.621 255.420 164.047 C 258.619 167.472 260.600 172.204 260.600 177.425 C 260.600 182.646 258.619 187.378 255.420 190.803 C 252.220 194.229 247.801 196.350 242.925 196.350 C 238.049 196.350 233.630 194.229 230.430 190.803 C 227.231 187.378 225.250 182.646 225.250 177.425 C 225.250 172.204 227.231 167.472 230.430 164.047 C 233.630 160.621 238.049 158.500 242.925 158.500 Z " transform="matrix(1.109992504119873, 0.33055877685546875, -0.2795797288417816, 0.9388085007667542, -189.75, -222.75)"/>
  <path id="ID0.14808626752346754" fill="none" stroke="#000000" stroke-width="1" stroke-linecap="round" d="M 231.250 175.750 L 246.800 175.800 " transform="matrix(0.8833202719688416, 0.2630551755428314, -0.22248661518096924, 0.7470939755439758, -134.85, -170.9)"/>
  <path id="ID0.5513844583183527" fill="#FFFFFF" stroke="#000000" stroke-width="1" d="M 233.125 160 C 234.332 160 235.426 160.476 236.218 161.246 C 237.010 162.015 237.500 163.077 237.500 164.250 C 237.500 165.423 237.010 166.485 236.218 167.254 C 235.426 168.024 234.332 168.500 233.125 168.500 C 231.918 168.500 230.824 168.024 230.032 167.254 C 229.240 166.485 228.750 165.423 228.750 164.250 C 228.750 163.077 229.240 162.015 230.032 161.246 C 230.824 160.476 231.918 160 233.125 160 Z " transform="matrix(0.8833202719688416, 0.2630551755428314, -0.22248661518096924, 0.7470939755439758, -134.75, -169.9)"/>
  <path id="ID0.5513844583183527" fill="#FFFFFF" stroke="#000000" stroke-width="1" d="M 233.125 160 C 234.332 160 235.426 160.476 236.218 161.246 C 237.010 162.015 237.500 163.077 237.500 164.250 C 237.500 165.423 237.010 166.485 236.218 167.254 C 235.426 168.024 234.332 168.500 233.125 168.500 C 231.918 168.500 230.824 168.024 230.032 167.254 C 229.240 166.485 228.750 165.423 228.750 164.250 C 228.750 163.077 229.240 162.015 230.032 161.246 C 230.824 160.476 231.918 160 233.125 160 Z " transform="matrix(0.6940082907676697, 0.20667754113674164, -0.22371582686901093, 0.7512215971946716, -80.9, -153.8)"/>
  <path id="ID0.7196033955551684" fill="none" stroke="#000000" stroke-width="2" stroke-linecap="round" d="M 233 166.500 L 233.300 166.800 " transform="matrix(0.8833202719688416, 0.2630551755428314, -0.22248661518096924, 0.7470939755439758, -132.35, -170.65)"/>
  <path id="ID0.286019139457494" fill="none" stroke="#000000" stroke-width="2" stroke-linecap="round" d="M 247.500 166.250 L 247.800 166.550 " transform="matrix(0.6940082907676697, 0.20667754113674164, -0.23679861426353455, 0.7951526641845703, -87.15, -164.55)"/>
  <path id="ID0.032828168012201786" fill="#0138B1" stroke="#023993" stroke-width="1" d="M 208.125 174 C 211.263 174 214.107 174.462 216.166 175.209 C 218.225 175.956 219.500 176.987 219.500 178.125 C 219.500 179.263 218.225 180.294 216.166 181.041 C 214.107 181.788 211.263 182.250 208.125 182.250 C 204.987 182.250 202.143 181.788 200.084 181.041 C 198.025 180.294 196.750 179.263 196.750 178.125 C 196.750 176.987 198.025 175.956 200.084 175.209 C 202.143 174.462 204.987 174 208.125 174 Z " transform="matrix(-0.8168314695358276, -0.45491400361061096, -0.5409653186798096, 0.6845996975898743, 319.4, 9.8)"/>
  <path id="ID0.10849038045853376" fill="#C5A377" stroke="#B4956C" stroke-width="2" d="M 205.375 191.250 C 206.927 191.250 208.333 191.852 209.351 192.825 C 210.370 193.798 211 195.142 211 196.625 C 211 198.108 210.370 199.452 209.351 200.425 C 208.333 201.398 206.927 202 205.375 202 C 203.823 202 202.417 201.398 201.399 200.425 C 200.380 199.452 199.750 198.108 199.750 196.625 C 199.750 195.142 200.380 193.798 201.399 192.825 C 202.417 191.852 203.823 191.250 205.375 191.250 Z " transform="matrix(0.8833202719688416, 0.2630551755428314, -0.22248661518096924, 0.7470939755439758, -75.15, -157.8)"/>
  <path id="ID0.3222357570193708" fill="none" stroke="#000000" stroke-width="1" stroke-linecap="round" d="M 332.100 155.250 C 332.100 155.250 331.336 155.529 331 155.750 C 330.695 155.951 330.401 156.195 330.200 156.500 C 330.006 156.795 329.885 157.149 329.850 157.500 C 329.816 157.835 329.833 158.208 330 158.500 C 330.187 158.828 330.537 159.039 330.850 159.250 C 331.158 159.458 331.483 159.689 331.850 159.750 C 332.034 159.781 332.350 159.500 332.350 159.500 " transform="matrix(-1.0914138555526733, -0.3250260055065155, -0.24229207634925842, 0.8135992884635925, 438.9, -0.7)"/>
  <path id="ID0.8365832129493356" fill="none" stroke="#666666" stroke-width="2" stroke-linecap="round" d="M 177.350 190 " transform="matrix(1, 0, 0, 1, -33, -50)"/>
  <path id="ID0.8365832129493356" fill="none" stroke="#666666" stroke-width="2" stroke-linecap="round" d="M 177.350 190 " transform="matrix(1, 0, 0, 1, -218, -128)"/>
  <path id="ID0.8365832129493356" fill="none" stroke="#666666" stroke-width="2" stroke-linecap="round" d="M 177.350 190 " transform="matrix(1, 0, 0, 1, -19, -58)"/>
  <path id="ID0.8365832129493356" fill="none" stroke="#666666" stroke-width="2" stroke-linecap="round" d="M 177.350 190 " transform="matrix(1, 0, 0, 1, -230, -48)"/>
  <path id="ID0.8092106799595058" fill="#003FFF" stroke="#0142D2" stroke-width="2" d="M 226.550 179.700 C 237.434 178.545 248.476 178.630 259.600 178.750 C 262.374 178.771 260.758 178.370 260.650 180.050 C 260.219 186.765 260.127 193.669 258.150 200.100 C 257.515 202.165 255.447 204.120 253.350 204.550 C 246.917 205.594 240.210 205.349 233.850 204.300 C 230.985 203.828 227.483 202.523 226.350 199.850 C 224.056 194.436 224.924 188.230 224.900 182.400 C 224.877 180.942 223.706 179.989 226.550 179.700 Z " transform="matrix(1.109992504119873, 0.33055877685546875, -0.2795797288417816, 0.9388085007667542, -189.7, -222.15)"/>
  <g id="ID0.8711371798999608">
    <path id="ID0.032828168012201786" fill="#119AD9" stroke="#0F89C1" stroke-width="1" d="M 208.125 174 C 211.263 174 214.107 174.462 216.166 175.209 C 218.225 175.956 219.500 176.987 219.500 178.125 C 219.500 179.263 218.225 180.294 216.166 181.041 C 214.107 181.788 211.263 182.250 208.125 182.250 C 204.987 182.250 202.143 181.788 200.084 181.041 C 198.025 180.294 196.750 179.263 196.750 178.125 C 196.750 176.987 198.025 175.956 200.084 175.209 C 202.143 174.462 204.987 174 208.125 174 Z " transform="matrix(-0.8237777352333069, -0.4422110617160797, 0.28444892168045044, -0.8248689770698547, 143.5, 272.3)"/>
    <path id="ID0.10849038045853376" fill="#FFD499" stroke="#DCB684" stroke-width="2" d="M 205.375 191.250 C 206.927 191.250 208.333 191.852 209.351 192.825 C 210.370 193.798 211 195.142 211 196.625 C 211 198.108 210.370 199.452 209.351 200.425 C 208.333 201.398 206.927 202 205.375 202 C 203.823 202 202.417 201.398 201.399 200.425 C 200.380 199.452 199.750 198.108 199.750 196.625 C 199.750 195.142 200.380 193.798 201.399 192.825 C 202.417 191.852 203.823 191.250 205.375 191.250 Z " transform="matrix(-0.21693852543830872, -0.89576256275177, 0.7576173543930054, -0.1834820806980133, -74.05, 258.3)"/>
  </g>
  <g id="ID0.9547683726996183">
    <path id="ID0.8264966602437198" fill="#CC0000" stroke="#990000" stroke-width="2" stroke-linecap="round" d="M 184.700 195.550 C 183.999 195.025 184.111 197.087 183.900 198.350 C 183.473 200.902 183.067 203.528 183.350 206.100 C 183.725 209.512 184.101 213.147 185.850 216.100 C 186.463 217.135 188.562 217.211 189.450 216.400 C 191.095 214.897 191.332 210.233 192.200 210.300 C 193.068 210.367 191.355 215.859 193.350 216.700 C 198.471 218.858 204.823 219.819 210 217.800 C 214.248 216.143 216.616 211.166 218.350 206.950 C 219.547 204.040 219.294 200.502 218.350 197.500 C 217.703 195.444 215.936 193.508 213.900 192.800 C 211.272 191.887 208.267 192.456 205.550 193.050 C 202.095 193.807 197.960 193.844 196.050 196.500 C 194.608 198.398 196.321 201.858 198.300 202.900 C 201.503 204.587 205.373 204.375 209.150 203.900 C 210.518 203.728 212.718 200.940 212.200 201.100 C 211.659 201.267 208.563 204.023 206.400 204.750 C 204.278 205.463 201.846 205.936 199.700 205.300 C 198.316 204.890 197.696 203.186 196.950 201.950 C 195.834 200.101 195.989 197.232 194.150 196.100 C 191.597 194.529 188.178 194.107 185.250 194.750 Z " transform="matrix(-0.6764812469482422, 0.02014230005443096, 0.02014230005443096, 0.6764812469482422, 193.15, -98.8)"/>
    <path id="ID0.33946908731013536" fill="none" stroke="#FFFFFF" stroke-width="2" stroke-linecap="round" d="M 211.650 195 C 211.650 195 207.305 194.726 205.250 195.300 C 204.431 195.529 204.201 196.649 203.600 197.250 C 203.450 197.400 203.050 197.500 203.050 197.500 " transform="matrix(-0.6764812469482422, 0.02014230005443096, 0.02014230005443096, 0.6764812469482422, 193.15, -98.8)"/>
    <path id="ID0.926351176109165" fill="none" stroke="#FFFFFF" stroke-width="2" stroke-linecap="round" d="M 191.650 197.800 C 191.650 197.800 190.166 198.109 189.450 198.350 C 188.779 198.576 188.059 198.764 187.500 199.200 C 186.367 200.083 185.172 201.008 184.450 202.250 C 184.082 202.883 184.236 203.749 184.450 204.450 C 184.623 205.017 185.550 205.850 185.550 205.850 " transform="matrix(-0.6764812469482422, 0.02014230005443096, 0.02014230005443096, 0.6764812469482422, 193.15, -98.8)"/>
  </g>
  <g id="ID0.9547683726996183">
    <path id="ID0.8264966602437198" fill="#CC0000" stroke="#990000" stroke-width="2" stroke-linecap="round" d="M 184.700 195.550 C 183.999 195.025 184.111 197.087 183.900 198.350 C 183.473 200.902 183.067 203.528 183.350 206.100 C 183.725 209.512 184.101 213.147 185.850 216.100 C 186.463 217.135 188.562 217.211 189.450 216.400 C 191.095 214.897 191.332 210.233 192.200 210.300 C 193.068 210.367 191.355 215.859 193.350 216.700 C 198.471 218.858 204.823 219.819 210 217.800 C 214.248 216.143 216.616 211.166 218.350 206.950 C 219.547 204.040 219.294 200.502 218.350 197.500 C 217.703 195.444 215.936 193.508 213.900 192.800 C 211.272 191.887 208.267 192.456 205.550 193.050 C 202.095 193.807 197.960 193.844 196.050 196.500 C 194.608 198.398 196.321 201.858 198.300 202.900 C 201.503 204.587 205.373 204.375 209.150 203.900 C 210.518 203.728 212.718 200.940 212.200 201.100 C 211.659 201.267 208.563 204.023 206.400 204.750 C 204.278 205.463 201.846 205.936 199.700 205.300 C 198.316 204.890 197.696 203.186 196.950 201.950 C 195.834 200.101 195.989 197.232 194.150 196.100 C 191.597 194.529 188.178 194.107 185.250 194.750 Z " transform="matrix(0.7586310505867004, 0.2259223908185959, -0.2259223908185959, 0.7586310505867004, -66.95, -159.3)"/>
    <path id="ID0.33946908731013536" fill="none" stroke="#FFFFFF" stroke-width="2" stroke-linecap="round" d="M 211.650 195 C 211.650 195 207.305 194.726 205.250 195.300 C 204.431 195.529 204.201 196.649 203.600 197.250 C 203.450 197.400 203.050 197.500 203.050 197.500 " transform="matrix(0.7586310505867004, 0.2259223908185959, -0.2259223908185959, 0.7586310505867004, -66.95, -159.3)"/>
    <path id="ID0.926351176109165" fill="none" stroke="#FFFFFF" stroke-width="2" stroke-linecap="round" d="M 191.650 197.800 C 191.650 197.800 190.166 198.109 189.450 198.350 C 188.779 198.576 188.059 198.764 187.500 199.200 C 186.367 200.083 185.172 201.008 184.450 202.250 C 184.082 202.883 184.236 203.749 184.450 204.450 C 184.623 205.017 185.550 205.850 185.550 205.850 " transform="matrix(0.7586310505867004, 0.2259223908185959, -0.2259223908185959, 0.7586310505867004, -66.95, -159.3)"/>
  </g>
  <path id="ID0.3325911215506494" fill="url(#grad_1)" stroke="url(#grad_2)" stroke-width="2" stroke-linecap="round" d="M 270.850 142.500 L 294.450 131.700 L 288.050 145.550 L 308.600 149.450 L 292.750 160.550 L 303.050 171.700 L 279.150 173.350 L 285.550 186.700 L 257.750 177.800 L 270 143.050 Z " transform="matrix(1, 0, 0, 1, -221.45, -117.55)"/>
</svg>