<svg version="1.1" width="104" height="87" viewBox="-1 -1 104 87" xmlns="http://www.w3.org/2000/svg" xmlns:xlink="http://www.w3.org/1999/xlink">
  <defs>
    <linearGradient id="grad_1" x2="1">
      <stop offset="0" stop-color="#B2B2B2" stop-opacity="1"/>
      <stop offset="1" stop-color="#FF9400" stop-opacity="1"/>
    </linearGradient>
    <linearGradient id="grad_2" x2="1">
      <stop offset="0" stop-color="#B2B2B2" stop-opacity="1"/>
      <stop offset="1" stop-color="#FF9400" stop-opacity="1"/>
    </linearGradient>
    <linearGradient id="grad_3" x2="1">
      <stop offset="0" stop-color="#B2B2B2" stop-opacity="1"/>
      <stop offset="1" stop-color="#FF9400" stop-opacity="1"/>
    </linearGradient>
    <linearGradient id="grad_4" x2="1">
      <stop offset="0" stop-color="#B2B2B2" stop-opacity="1"/>
      <stop offset="1" stop-color="#FF9400" stop-opacity="1"/>
    </linearGradient>
    <linearGradient id="grad_5" x2="1">
      <stop offset="0" stop-color="#B2B2B2" stop-opacity="1"/>
      <stop offset="1" stop-color="#FF9400" stop-opacity="1"/>
    </linearGradient>
    <linearGradient id="grad_6" x2="1">
      <stop offset="0" stop-color="#B2B2B2" stop-opacity="1"/>
      <stop offset="1" stop-color="#FF9400" stop-opacity="1"/>
    </linearGradient>
  </defs>
  <!-- Exported by Scratch - http://scratch.mit.edu/ -->
  <path id="ID0.8865274041891098" fill="#000000" stroke="#000000" stroke-width="2" stroke-linecap="round" d="M 206.500 158.750 L 204.500 163.500 L 201 175 L 195.750 173 L 199.250 161.500 L 177.900 156.800 L 179.650 151.700 L 206.500 158.750 Z " transform="matrix(-0.5562604069709778, -0.11721201986074448, -0.152470663189888, 0.7235895991325378, 213.15, -54.25)"/>
  <path id="ID0.8865274041891098" fill="#000000" stroke="#000000" stroke-width="2" stroke-linecap="round" d="M 206.500 158.750 L 204.500 163.500 L 201 175 L 195.750 173 L 199.250 161.500 L 177.900 156.800 L 179.650 151.700 L 206.500 158.750 Z " transform="matrix(0.10793083906173706, -0.5581355094909668, 0.7260286808013916, 0.1403975933790207, -127.55, 145.85)"/>
  <path id="ID0.08809070056304336" fill="#CC0000" stroke="#CC0000" stroke-width="2" stroke-linecap="round" d="M 246 185.300 C 245.980 186.048 246.001 186.757 246 187.550 C 245.996 188.249 245.967 188.955 246 189.650 C 246.032 190.318 246.202 190.981 246.200 191.650 C 246.195 193.388 245.679 195.206 246.050 196.950 C 246.209 197.783 246.958 198.439 247.700 198.950 C 248.390 199.425 249.264 199.689 250.100 199.700 C 250.987 199.672 251.919 199.407 252.650 198.900 C 253.338 198.420 254.043 197.780 254.150 197 C 254.561 193.880 254.151 190.691 254.150 187.600 C 254.150 186.827 254.142 186.200 254.150 185.500 C 253.991 181.252 254.228 180.358 253.900 178.850 C 253.715 178.142 253.282 177.502 252.700 177.150 C 251.952 176.691 251.161 176.494 250.350 176.500 C 249.410 176.507 248.387 176.551 247.600 177.050 C 246.923 177.494 246.549 178.360 246.350 179.150 C 246.053 182.515 246.050 183.695 246 185.300 Z " transform="matrix(-2.6007323265075684, 0, 0, 3.0955862998962402, 690.65, -543.25)"/>
  <g id="ID0.1477178898639977">
    <path id="ID0.5619839346036315" fill="#CC0000" stroke="#990000" stroke-width="2" stroke-linecap="round" d="M 282.550 231 C 306.841 200.371 308.320 199.171 315.500 193 C 318.114 191.163 320.546 191.730 322.500 193 C 324.499 194.299 326.520 196.941 325.500 199.500 C 309.865 219.642 303.238 227.753 292 235 C 288.841 236.950 281.120 234.340 282.550 231 Z " transform="matrix(-0.18521252274513245, -0.31976261734962463, 0.4890793263912201, -0.28328388929367065, 16.15, 199.65)"/>
    <path id="ID0.6155663500539958" fill="#990000" stroke="#660000" stroke-width="2" d="M 241.250 209 C 243.526 209 245.589 209.924 247.082 211.418 C 248.576 212.911 249.500 214.974 249.500 217.250 C 249.500 219.526 248.576 221.589 247.082 223.082 C 245.589 224.576 243.526 225.500 241.250 225.500 C 238.974 225.500 236.911 224.576 235.418 223.082 C 233.924 221.589 233 219.526 233 217.250 C 233 214.974 233.924 212.911 235.418 211.418 C 236.911 209.924 238.974 209 241.250 209 Z " transform="matrix(-0.01734350062906742, -0.5213510990142822, 0.5055525898933411, -0.01681794412434101, -28.55, 170.9)"/>
  </g>
  <g id="ID0.1477178898639977">
    <path id="ID0.5619839346036315" fill="#CC0000" stroke="#990000" stroke-width="2" stroke-linecap="round" d="M 282.550 231 C 306.841 200.371 308.320 199.171 315.500 193 C 318.114 191.163 320.546 191.730 322.500 193 C 324.499 194.299 326.520 196.941 325.500 199.500 C 309.865 219.642 303.238 227.753 292 235 C 288.841 236.950 281.120 234.340 282.550 231 Z " transform="matrix(-0.15372689068317413, -0.33603551983833313, -0.513968825340271, 0.23512645065784454, 178.4, 100.6)"/>
    <path id="ID0.6155663500539958" fill="#990000" stroke="#660000" stroke-width="2" d="M 241.250 209 C 243.526 209 245.589 209.924 247.082 211.418 C 248.576 212.911 249.500 214.974 249.500 217.250 C 249.500 219.526 248.576 221.589 247.082 223.082 C 245.589 224.576 243.526 225.500 241.250 225.500 C 238.974 225.500 236.911 224.576 235.418 223.082 C 233.924 221.589 233 219.526 233 217.250 C 233 214.974 233.924 212.911 235.418 211.418 C 236.911 209.924 238.974 209 241.250 209 Z " transform="matrix(-0.4152684211730957, -0.3156895935535431, -0.306123286485672, 0.40268459916114807, 180.8, 47.5)"/>
  </g>
  <path id="ID0.5486297779716551" fill="#000000" stroke="#000000" stroke-width="6" stroke-linecap="round" d="M 319.350 238.550 C 307.238 245.500 295.597 266.776 302 278 C 311.189 288.839 325.526 285.577 337.700 286.950 C 347.701 288.070 358.478 286.995 368.500 283.850 C 376.746 282.212 390.961 281.771 391.550 272.850 C 392.439 259.122 383.380 242.675 371 237 C 355.369 229.848 334.427 229.344 319.350 238.550 Z " transform="matrix(-0.20238818228244781, 0.0034631520975381136, 0.003740547224879265, 0.2185988575220108, 102.35, 21)"/>
  <path id="ID0.5486297779716551" fill="#000000" stroke="#000000" stroke-width="6" stroke-linecap="round" d="M 319.350 238.550 C 307.238 245.500 295.597 266.776 302 278 C 311.189 288.839 325.526 285.577 337.700 286.950 C 347.701 288.070 358.478 286.995 368.500 283.850 C 376.746 282.212 390.961 281.771 391.550 272.850 C 392.439 259.122 383.380 242.675 371 237 C 355.369 229.848 334.427 229.344 319.350 238.550 Z " transform="matrix(-0.20238818228244781, 0.0034631520975381136, 0.003740547224879265, 0.2185988575220108, 117.05, 21.05)"/>
  <path id="ID0.643749819137156" fill="#FF9400" stroke="#000000" stroke-width="2" d="M 234.750 143.750 C 236.336 143.750 237.774 144.576 238.815 145.911 C 239.856 147.247 240.500 149.090 240.500 151.125 C 240.500 153.160 239.856 155.003 238.815 156.339 C 237.774 157.674 236.336 158.500 234.750 158.500 C 233.164 158.500 231.726 157.674 230.685 156.339 C 229.644 155.003 229 153.160 229 151.125 C 229 149.090 229.644 147.247 230.685 145.911 C 231.726 144.576 233.164 143.750 234.750 143.750 Z " transform="matrix(-0.6308979988098145, 0, 0, 0.6308979988098145, 192.35, -73.3)"/>
  <path id="ID0.643749819137156" fill="#FF9400" stroke="#000000" stroke-width="2" d="M 234.750 143.750 C 236.336 143.750 237.774 144.576 238.815 145.911 C 239.856 147.247 240.500 149.090 240.500 151.125 C 240.500 153.160 240.124 155.112 238.815 156.339 C 237.834 157.261 236.199 155.687 234.750 155.400 C 233.427 155.687 231.809 157.328 230.685 156.339 C 229.324 155.162 229 153.160 229 151.125 C 229 149.090 229.644 147.247 230.685 145.911 C 231.726 144.576 233.164 143.750 234.750 143.750 Z " transform="matrix(-0.6308979988098145, 0, 0, 0.6308979988098145, 186.6, -73.55)"/>
  <path id="ID0.8540973095223308" fill="none" stroke="#000000" stroke-width="2" stroke-linecap="round" d="M 255.250 160.850 C 255.250 160.850 253.312 160.956 252.400 161.250 C 251.731 161.466 251.089 161.846 250.600 162.350 C 250.012 162.957 249.545 163.708 249.250 164.500 C 248.999 165.176 249.042 165.930 249 166.650 C 248.959 167.348 248.664 168.136 249 168.750 C 249.330 169.354 250.102 169.617 250.750 169.850 C 251.430 170.094 252.182 170.234 252.900 170.150 C 253.936 170.029 255.900 169.250 255.900 169.250 " transform="matrix(-0.4261791706085205, 0, 0, 0.4261791706085205, 149.6, -42.3)"/>
  <path id="ID0.6648934166878462" fill="none" stroke="url(#grad_1)" stroke-width="2" stroke-linecap="round" d="M 283 156 C 283 156 283.525 154.260 284 153.500 C 284.374 152.901 284.964 152.460 285.500 152 C 286.132 151.458 286.708 150.368 287.500 150.500 C 288.208 150.618 288.500 151.755 288.500 152.500 C 288.500 153.245 287.263 154.263 287.500 154.500 C 287.737 154.737 288.894 153.933 289.500 153.500 C 290.075 153.089 290.425 152.411 291 152 C 291.606 151.567 292.278 151.181 293 151 C 293.646 150.838 294.647 150.435 295 151 C 295.711 152.138 295.740 153.679 295.500 155 C 295.374 155.695 294.500 156 294 156.500 C 293.875 156.625 294 156.500 294 156.500 " transform="matrix(1, 0, 0, 1, -198, -123)"/>
  <path id="ID0.9487378923222423" fill="none" stroke="url(#grad_2)" stroke-width="2" stroke-linecap="round" d="M 282.500 163 C 282.500 163 282.588 164.758 283 165.500 C 283.457 166.323 284.334 166.834 285 167.500 C 285.500 168 285.887 168.650 286.500 169 C 287.096 169.341 287.818 169.576 288.500 169.500 C 289.391 169.401 290.366 169.134 291 168.500 C 291.485 168.015 291.007 166.623 291.500 166.500 C 292.007 166.373 292.464 167.540 293 168 C 293.632 168.542 294.221 169.208 295 169.500 C 295.624 169.734 296.388 169.762 297 169.500 C 297.649 169.222 298.048 168.543 298.500 168 C 298.884 167.539 299.500 166.500 299.500 166.500 " transform="matrix(1, 0, 0, 1, -198, -123)"/>
  <path id="ID0.5911154705099761" fill="none" stroke="url(#grad_3)" stroke-width="2" stroke-linecap="round" d="M 299.500 145.500 L 299.800 145.800 " transform="matrix(1, 0, 0, 1, -198, -123)"/>
  <path id="ID0.6582880737259984" fill="none" stroke="url(#grad_4)" stroke-width="2" stroke-linecap="round" d="M 292 143 L 292.300 143.300 " transform="matrix(1, 0, 0, 1, -198, -123)"/>
  <path id="ID0.6018544593825936" fill="none" stroke="url(#grad_5)" stroke-width="2" stroke-linecap="round" d="M 288.500 177.500 L 288.800 177.800 " transform="matrix(1, 0, 0, 1, -198, -123)"/>
  <path id="ID0.5585040827281773" fill="none" stroke="url(#grad_6)" stroke-width="2" stroke-linecap="round" d="M 295.500 180 L 295.800 180.300 " transform="matrix(1, 0, 0, 1, -198, -123)"/>
</svg>