<svg version="1.1" width="100" height="46" viewBox="-1 -1 100 46" xmlns="http://www.w3.org/2000/svg" xmlns:xlink="http://www.w3.org/1999/xlink">
  <!-- Exported by Scratch - http://scratch.mit.edu/ -->
  <path id="ID0.8365832129493356" fill="none" stroke="#666666" stroke-width="2" stroke-linecap="round" d="M 177.350 190 " transform="matrix(1, 0, 0, 1, -331, -192)"/>
  <path id="ID0.8365832129493356" fill="none" stroke="#666666" stroke-width="2" stroke-linecap="round" d="M 177.350 190 " transform="matrix(1, 0, 0, 1, -489, -258)"/>
  <path id="ID0.8365832129493356" fill="none" stroke="#666666" stroke-width="2" stroke-linecap="round" d="M 177.350 190 " transform="matrix(1, 0, 0, 1, -450, -99)"/>
  <path id="ID0.8365832129493356" fill="none" stroke="#666666" stroke-width="2" stroke-linecap="round" d="M 177.350 190 " transform="matrix(1, 0, 0, 1, -335, -302)"/>
  <g id="ID0.828434064052999">
    <path id="ID0.2175996652804315" fill="#CC7700" stroke="#663B00" stroke-width="2" stroke-linecap="round" d="M 225.500 172.350 C 225.520 173.169 225.628 173.933 225.500 174.700 C 225.329 175.658 225.019 176.491 224.900 177.400 C 224.748 178.226 224.917 179.124 224.900 180 C 224.705 181.243 224.247 182.451 224.250 183.750 C 224.217 184.720 223.883 185.912 224.600 186.650 C 225.133 187.200 226.156 186.592 226.900 186.600 C 227.565 186.601 228.200 186.600 228.900 186.600 C 229.700 186.600 230.550 186.500 231.400 186.600 C 232.050 186.600 232.700 186.800 233.400 186.800 C 234.200 186.800 235.050 186.900 235.900 186.800 C 237.500 186.700 239.100 186.400 240.750 186.300 C 242.800 186.200 244.900 186.200 247 186.500 C 249.050 186.700 251 187.800 253.100 187.800 C 253.800 187.800 254.600 187.100 254.900 186.500 C 255.400 185.200 255.150 183.700 255.250 182.300 C 255.300 180.900 255.250 179.500 255.250 178.200 C 255.250 177.500 255.200 176.800 255.250 176.200 C 255.400 173.500 255.750 170.800 255.900 168.200 C 255.950 166.800 255.700 165.500 255.900 164.200 C 255.950 163.400 256.200 162.700 256.600 162.200 C 257.300 161 258.450 160.100 259.250 159 C 259.600 158.400 259.750 157.700 259.900 157.100 C 260.050 156.200 260.250 154.500 260.250 154.500 C 260.250 154 260.100 152.550 260.100 151.850 C 260.050 151.150 260.150 150.500 260.100 149.850 C 260 149.150 259.800 148.450 259.600 147.850 C 259.350 147.200 259.100 146.550 258.750 146 C 257.900 144.850 257 143.800 256 142.850 C 255.450 142.350 254.850 142 254.250 141.700 C 253.550 141.300 252.800 141.150 252.100 140.850 C 251.450 140.550 250.900 140.150 250.250 140 C 249.600 139.800 248.900 139.750 248.250 139.850 C 247.450 139.950 246.750 140.250 246.100 140.600 C 245.450 140.850 244.900 141.300 244.400 141.700 C 243.800 142.100 243.400 142.950 242.750 143 C 242.050 143 241.550 142.300 241.100 141.850 C 240.600 141.350 240.550 140.550 240.100 140.100 C 239.550 139.550 238.900 139.150 238.250 138.850 C 237.600 138.500 236.900 138.250 236.250 138.100 C 235.550 137.900 234.900 137.600 234.250 137.700 C 233.450 137.750 232.700 138.150 232 138.500 C 231.350 138.750 230.800 139.100 230.250 139.500 C 229.650 139.900 229.100 140.300 228.600 140.850 C 228.050 141.350 227.600 141.900 227.250 142.500 C 226.800 143.100 226.550 143.800 226.250 144.500 C 225.950 145.100 225.646 145.719 225.400 146.350 C 225.128 147.051 224.760 147.861 224.600 148.700 C 224.491 149.764 224.616 150.829 224.600 152 C 224.584 153.166 224.660 154.337 224.600 155.500 C 224.569 156.095 224.532 156.636 224.500 157.200 C 224.435 157.854 224.388 158.472 224.500 159.100 C 224.524 160.029 224.818 161.351 224.900 161.850 C 224.951 162.086 224.594 160.487 224.600 160.750 C 224.618 161.350 224.958 162.779 225 163.750 C 225.041 168.609 225.422 169.534 225.500 172.350 Z " transform="matrix(-0.8162464499473572, 0, 0, 0.8162464499473572, 251.25, -109.6)"/>
    <path id="ID0.2175996652804315" fill="#CC7700" stroke="#663B00" stroke-width="2" stroke-linecap="round" d="M 225.500 172.350 C 225.520 173.169 225.628 173.933 225.500 174.700 C 225.329 175.658 225.019 176.491 224.900 177.400 C 224.748 178.226 224.917 179.124 224.900 180 C 224.705 181.243 224.247 182.451 224.250 183.750 C 224.217 184.720 223.883 185.912 224.600 186.650 C 225.133 187.200 226.156 186.592 226.900 186.600 C 227.565 186.601 228.200 186.600 228.900 186.600 C 229.700 186.600 230.550 186.500 231.400 186.600 C 232.050 186.600 232.700 186.800 233.400 186.800 C 234.200 186.800 235.050 186.900 235.900 186.800 C 237.500 186.700 239.100 186.400 240.750 186.300 C 242.800 186.200 244.900 186.200 247 186.500 C 249.050 186.700 251 187.800 253.100 187.800 C 253.800 187.800 254.600 187.100 254.900 186.500 C 255.400 185.200 255.150 183.700 255.250 182.300 C 255.300 180.900 255.250 179.500 255.250 178.200 C 255.250 177.500 255.200 176.800 255.250 176.200 C 255.400 173.500 255.750 170.800 255.900 168.200 C 255.950 166.800 255.700 165.500 255.900 164.200 C 255.950 163.400 256.200 162.700 256.600 162.200 C 257.300 161 258.450 160.100 259.250 159 C 259.600 158.400 259.750 157.700 259.900 157.100 C 260.050 156.200 260.250 154.500 260.250 154.500 C 260.250 154 260.100 152.550 260.100 151.850 C 260.050 151.150 260.150 150.500 260.100 149.850 C 260 149.150 259.800 148.450 259.600 147.850 C 259.350 147.200 259.100 146.550 258.750 146 C 257.900 144.850 257 143.800 256 142.850 C 255.450 142.350 254.850 142 254.250 141.700 C 253.550 141.300 252.800 141.150 252.100 140.850 C 251.450 140.550 250.900 140.150 250.250 140 C 249.600 139.800 248.900 139.750 248.250 139.850 C 247.450 139.950 246.750 140.250 246.100 140.600 C 245.450 140.850 244.900 141.300 244.400 141.700 C 243.800 142.100 243.400 142.950 242.750 143 C 242.050 143 241.550 142.300 241.100 141.850 C 240.600 141.350 240.550 140.550 240.100 140.100 C 239.550 139.550 238.900 139.150 238.250 138.850 C 237.600 138.500 236.900 138.250 236.250 138.100 C 235.550 137.900 234.900 137.600 234.250 137.700 C 233.450 137.750 232.700 138.150 232 138.500 C 231.350 138.750 230.800 139.100 230.250 139.500 C 229.650 139.900 229.100 140.300 228.600 140.850 C 228.050 141.350 227.600 141.900 227.250 142.500 C 226.800 143.100 226.550 143.800 226.250 144.500 C 225.950 145.100 225.646 145.719 225.400 146.350 C 225.128 147.051 224.760 147.861 224.600 148.700 C 224.491 149.764 224.616 150.829 224.600 152 C 224.584 153.166 224.660 154.337 224.600 155.500 C 224.569 156.095 224.532 156.636 224.500 157.200 C 224.435 157.854 224.388 158.472 224.500 159.100 C 224.524 160.029 224.818 161.351 224.900 161.850 C 224.951 162.086 224.594 160.487 224.600 160.750 C 224.618 161.350 224.958 162.779 225 163.750 C 225.041 168.609 225.422 169.534 225.500 172.350 Z " transform="matrix(-0.8162464499473572, 0, 0, 0.8162464499473572, 253.35, -111.2)"/>
    <path id="ID0.50003443332389" fill="#FFFFFF" stroke="#000000" stroke-width="2" d="M 227.875 148 C 228.599 148 229.255 148.266 229.731 148.696 C 230.206 149.126 230.500 149.720 230.500 150.375 C 230.500 151.030 230.206 151.624 229.731 152.054 C 229.255 152.484 228.599 152.750 227.875 152.750 C 227.151 152.750 226.495 152.484 226.019 152.054 C 225.544 151.624 225.250 151.030 225.250 150.375 C 225.250 149.720 225.544 149.126 226.019 148.696 C 226.495 148.266 227.151 148 227.875 148 Z " transform="matrix(-0.8162464499473572, 0, 0, 0.8162464499473572, 251.25, -109.6)"/>
    <path id="ID0.50003443332389" fill="#FFFFFF" stroke="#000000" stroke-width="2" d="M 227.875 148 C 228.599 148 229.255 148.266 229.731 148.696 C 230.206 149.126 230.500 149.720 230.500 150.375 C 230.500 151.030 230.206 151.624 229.731 152.054 C 229.255 152.484 228.599 152.750 227.875 152.750 C 227.151 152.750 226.495 152.484 226.019 152.054 C 225.544 151.624 225.250 151.030 225.250 150.375 C 225.250 149.720 225.544 149.126 226.019 148.696 C 226.495 148.266 227.151 148 227.875 148 Z " transform="matrix(-0.8162464499473572, 0, 0, 0.8162464499473572, 235.6, -108.4)"/>
    <path id="ID0.9616830768063664" fill="#FF0000" stroke="#000000" stroke-width="2" stroke-linecap="round" d="M 228.750 167.250 C 228.418 168.512 228.409 169.872 229 171 C 229.386 171.737 230.255 172.128 231 172.500 C 231.614 172.807 232.314 173 233 173 C 233.686 173 234.404 172.841 235 172.500 C 235.613 172.150 236.069 171.560 236.500 171 C 236.909 170.468 237.300 169.891 237.500 169.250 C 237.725 168.530 238.047 167.693 237.750 167 C 237.468 166.342 236.685 165.959 236 165.750 C 234.716 165.359 233.342 165.250 232 165.250 C 231.314 165.250 230.596 165.409 230 165.750 C 229.387 166.100 229.036 166.790 228.500 167.250 C 228.366 167.365 228.208 166.934 228.250 167.250 Z " transform="matrix(-0.8162464499473572, 0, 0, 0.8162464499473572, 251.25, -109.6)"/>
    <path id="ID0.6713176881894469" fill="none" stroke="#000000" stroke-width="2" stroke-linecap="round" d="M 234 164.750 C 234 164.750 234.493 166.355 235 167 C 235.442 167.563 236.136 167.882 236.750 168.250 C 237.388 168.633 238.016 169.378 238.750 169.250 C 240.144 169.008 241.306 168.010 242.500 167.250 C 243.148 166.838 243.729 166.314 244.250 165.750 C 244.736 165.224 245.084 164.583 245.500 164 C 245.604 163.854 245.500 164 245.500 164 " transform="matrix(-0.8162464499473572, 0, 0, 0.8162464499473572, 251.25, -109.6)"/>
    <path id="ID0.538668405264616" fill="none" stroke="#000000" stroke-width="2" stroke-linecap="round" d="M 224.500 158.750 C 224.500 158.750 225.402 160.556 225.750 161.500 C 225.987 162.144 226.001 162.860 226.250 163.500 C 226.587 164.367 226.894 165.293 227.500 166 C 227.937 166.510 228.592 166.868 229.250 167 C 229.908 167.132 230.627 166.999 231.250 166.750 C 231.915 166.484 232.437 165.942 233 165.500 C 233.604 165.026 234.276 164.604 234.750 164 C 235.210 163.414 235.312 162.602 235.750 162 C 235.995 161.663 236.750 161.250 236.750 161.250 " transform="matrix(-0.8162464499473572, 0, 0, 0.8162464499473572, 251.25, -109.6)"/>
    <path id="ID0.8349651619791985" fill="none" stroke="#000000" stroke-width="2" stroke-linecap="round" d="M 254.250 168.750 C 254.250 168.750 256.269 168.796 257.250 169 C 258.281 169.215 259.241 169.697 260.250 170 C 260.908 170.197 261.575 170.373 262.250 170.500 C 262.910 170.624 263.592 170.882 264.250 170.750 C 264.908 170.618 265.392 170.034 266 169.750 C 266.645 169.449 267.334 169.250 268 169 C 268.666 168.750 269.348 168.535 270 168.250 C 270.682 167.952 271.362 167.633 272 167.250 C 272.614 166.882 273.136 166.368 273.750 166 C 274.388 165.617 275.036 165.210 275.750 165 C 276.473 164.787 277.255 164.632 278 164.750 C 278.886 164.890 279.681 165.386 280.500 165.750 C 281.180 166.052 281.894 166.317 282.500 166.750 C 283.075 167.161 283.451 167.806 284 168.250 C 285.204 169.224 286.353 170.332 287.750 171 C 288.351 171.287 289.085 170.973 289.750 171 C 291.167 171.057 292.591 171.403 294 171.250 C 296.451 170.984 298.835 170.245 301.250 169.750 C 302.082 169.579 302.921 169.434 303.750 169.250 C 304.420 169.101 305.088 168.931 305.750 168.750 C 306.004 168.681 306.500 168.500 306.500 168.500 " transform="matrix(-0.8162464499473572, 0, 0, 0.8162464499473572, 251.25, -109.6)"/>
    <path id="ID0.5208532242104411" fill="none" stroke="#000000" stroke-width="2" stroke-linecap="round" d="M 222.750 167.250 C 222.750 167.250 221.253 167.599 220.500 167.750 C 219.587 167.933 218.633 167.956 217.750 168.250 C 217.113 168.462 216.625 169.005 216 169.250 C 214.700 169.759 213.377 170.271 212 170.500 C 211.338 170.610 210.583 170.583 210 170.250 C 209.334 169.869 208.974 169.104 208.500 168.500 C 208.058 167.937 207.736 167.276 207.250 166.750 C 206.729 166.186 206.213 165.535 205.500 165.250 C 204.882 165.003 204.155 165.127 203.500 165.250 C 202.801 165.381 202.179 165.788 201.500 166 C 200.845 166.205 200.182 166.420 199.500 166.500 C 198.756 166.588 197.999 166.500 197.250 166.500 C 196.584 166.500 195.915 166.535 195.250 166.500 C 194.332 166.452 193.409 166.386 192.500 166.250 C 191.741 166.136 190.997 165.926 190.250 165.750 C 189.582 165.593 188.758 165.712 188.250 165.250 C 187.724 164.772 187.709 163.930 187.500 163.250 C 187.375 162.844 187.250 162 187.250 162 " transform="matrix(-0.8162464499473572, 0, 0, 0.8162464499473572, 251.25, -109.6)"/>
  </g>
  <path id="ID0.8365832129493356" fill="none" stroke="#666666" stroke-width="2" stroke-linecap="round" d="M 177.350 190 " transform="matrix(1, 0, 0, 1, -144, -51)"/>
  <path id="ID0.8365832129493356" fill="none" stroke="#666666" stroke-width="2" stroke-linecap="round" d="M 177.350 190 " transform="matrix(1, 0, 0, 1, -329, -129)"/>
  <path id="ID0.8365832129493356" fill="none" stroke="#666666" stroke-width="2" stroke-linecap="round" d="M 177.350 190 " transform="matrix(1, 0, 0, 1, -130, -59)"/>
  <path id="ID0.8365832129493356" fill="none" stroke="#666666" stroke-width="2" stroke-linecap="round" d="M 177.350 190 " transform="matrix(1, 0, 0, 1, -341, -49)"/>
</svg>