<svg version="1.1" width="151" height="88" viewBox="0 0 151 88" xmlns="http://www.w3.org/2000/svg" xmlns:xlink="http://www.w3.org/1999/xlink">
  <defs>
    <linearGradient id="grad_1" y2="1">
      <stop offset="0" stop-color="#FF0000" stop-opacity="1"/>
      <stop offset="1" stop-color="#FF0000" stop-opacity="0"/>
    </linearGradient>
    <linearGradient id="grad_2" y2="1">
      <stop offset="0" stop-color="#FF0000" stop-opacity="1"/>
      <stop offset="1" stop-color="#FF0000" stop-opacity="0"/>
    </linearGradient>
    <linearGradient id="grad_3" y2="1">
      <stop offset="0" stop-color="#FF0000" stop-opacity="1"/>
      <stop offset="1" stop-color="#FF0000" stop-opacity="0"/>
    </linearGradient>
    <linearGradient id="grad_4" y2="1">
      <stop offset="0" stop-color="#FF0000" stop-opacity="1"/>
      <stop offset="1" stop-color="#FF0000" stop-opacity="0"/>
    </linearGradient>
    <linearGradient id="grad_5" y2="1">
      <stop offset="0" stop-color="#FF0000" stop-opacity="1"/>
      <stop offset="1" stop-color="#FF0000" stop-opacity="0"/>
    </linearGradient>
    <linearGradient id="grad_6" y2="1">
      <stop offset="0" stop-color="#FF0000" stop-opacity="1"/>
      <stop offset="1" stop-color="#FF0000" stop-opacity="0"/>
    </linearGradient>
    <linearGradient id="grad_7" y2="1">
      <stop offset="0" stop-color="#FF0000" stop-opacity="1"/>
      <stop offset="1" stop-color="#FF0000" stop-opacity="0"/>
    </linearGradient>
    <linearGradient id="grad_8" y2="1">
      <stop offset="0" stop-color="#FF0000" stop-opacity="1"/>
      <stop offset="1" stop-color="#FF0000" stop-opacity="0"/>
    </linearGradient>
    <linearGradient id="grad_9" y2="1">
      <stop offset="0" stop-color="#FF0000" stop-opacity="1"/>
      <stop offset="1" stop-color="#FF0000" stop-opacity="0"/>
    </linearGradient>
    <linearGradient id="grad_10" y2="1">
      <stop offset="0" stop-color="#FF0000" stop-opacity="1"/>
      <stop offset="1" stop-color="#FF0000" stop-opacity="0"/>
    </linearGradient>
    <linearGradient id="grad_11" y2="1">
      <stop offset="0" stop-color="#FF0000" stop-opacity="1"/>
      <stop offset="1" stop-color="#FF0000" stop-opacity="0"/>
    </linearGradient>
    <linearGradient id="grad_12" y2="1">
      <stop offset="0" stop-color="#FF0000" stop-opacity="1"/>
      <stop offset="1" stop-color="#FF0000" stop-opacity="0"/>
    </linearGradient>
  </defs>
  <!-- Exported by Scratch - http://scratch.mit.edu/ -->
  <path id="ID0.8865274041891098" fill="#000000" stroke="#000000" stroke-width="2" stroke-linecap="round" d="M 206.500 158.750 L 204.500 163.500 L 201 175 L 195.750 173 L 199.250 161.500 L 177.900 156.800 L 179.650 151.700 L 206.500 158.750 Z " transform="matrix(0.45188194513320923, -0.3449159562587738, 0.4486704170703888, 0.5878129601478577, -146.7, 38.3)"/>
  <path id="ID0.8865274041891098" fill="#000000" stroke="#000000" stroke-width="2" stroke-linecap="round" d="M 206.500 158.750 L 204.500 163.500 L 201 175 L 195.750 173 L 199.250 161.500 L 177.900 156.800 L 179.650 151.700 L 206.500 158.750 Z " transform="matrix(-0.41111311316490173, 0.3926198184490204, 0.5107240676879883, 0.5347803235054016, 68.75, -149.75)"/>
  <path id="ID0.08809070056304336" fill="url(#grad_1)" stroke="url(#grad_2)" stroke-width="2" stroke-linecap="round" d="M 246 185.300 C 245.980 186.048 246.001 186.757 246 187.550 C 245.996 188.249 245.967 188.955 246 189.650 C 246.032 190.318 246.202 190.981 246.200 191.650 C 246.195 193.388 245.679 195.206 246.050 196.950 C 246.209 197.783 246.958 198.439 247.700 198.950 C 248.390 199.425 249.264 199.689 250.100 199.700 C 250.987 199.672 251.919 199.407 252.650 198.900 C 253.338 198.420 254.043 197.780 254.150 197 C 254.561 193.880 254.151 190.691 254.150 187.600 C 254.150 186.827 254.142 186.200 254.150 185.500 C 253.991 181.252 254.228 180.358 253.900 178.850 C 253.715 178.142 253.282 177.502 252.700 177.150 C 251.952 176.691 251.161 176.494 250.350 176.500 C 249.410 176.507 248.387 176.551 247.600 177.050 C 246.923 177.494 246.549 178.360 246.350 179.150 C 246.053 182.515 246.050 183.695 246 185.300 Z " transform="matrix(1.8808115720748901, -1.7962061166763306, 2.137979030609131, 2.238682746887207, -828.5, 68.9)"/>
  <g id="ID0.1477178898639977">
    <path id="ID0.5619839346036315" fill="url(#grad_3)" stroke="url(#grad_4)" stroke-width="2" stroke-linecap="round" d="M 282.550 231 C 306.841 200.371 308.320 199.171 315.500 193 C 318.114 191.163 320.546 191.730 322.500 193 C 324.499 194.299 326.520 196.941 325.500 199.500 C 309.865 219.642 303.238 227.753 292 235 C 288.841 236.950 281.120 234.340 282.550 231 Z " transform="matrix(0.054613057523965836, -0.3654712438583374, -0.5589909553527832, -0.08353103697299957, 131.3, 188.55)"/>
    <path id="ID0.6155663500539958" fill="url(#grad_5)" stroke="url(#grad_6)" stroke-width="2" d="M 241.250 209 C 243.526 209 245.589 209.924 247.082 211.418 C 248.576 212.911 249.500 214.974 249.500 217.250 C 249.500 219.526 248.576 221.589 247.082 223.082 C 245.589 224.576 243.526 225.500 241.250 225.500 C 238.974 225.500 236.911 224.576 235.418 223.082 C 233.924 221.589 233 219.526 233 217.250 C 233 214.974 233.924 212.911 235.418 211.418 C 236.911 209.924 238.974 209 241.250 209 Z " transform="matrix(-0.17563626170158386, -0.4911819100379944, -0.47629764676094055, 0.17031395435333252, 162.3, 145.4)"/>
  </g>
  <g id="ID0.1477178898639977">
    <path id="ID0.5619839346036315" fill="#CC0000" stroke="#990000" stroke-width="2" stroke-linecap="round" d="M 282.550 231 C 306.841 200.371 308.320 199.171 315.500 193 C 318.114 191.163 320.546 191.730 322.500 193 C 324.499 194.299 326.520 196.941 325.500 199.500 C 309.865 219.642 303.238 227.753 292 235 C 288.841 236.950 281.120 234.340 282.550 231 Z " transform="matrix(-0.3691917955875397, 0.01578688807785511, -0.024146150797605515, -0.5646816492080688, 180.85, 142.65)"/>
    <path id="ID0.6155663500539958" fill="#990000" stroke="#660000" stroke-width="2" d="M 241.250 209 C 243.526 209 245.589 209.924 247.082 211.418 C 248.576 212.911 249.500 214.974 249.500 217.250 C 249.500 219.526 248.576 221.589 247.082 223.082 C 245.589 224.576 243.526 225.500 241.250 225.500 C 238.974 225.500 236.911 224.576 235.418 223.082 C 233.924 221.589 233 219.526 233 217.250 C 233 214.974 233.924 212.911 235.418 211.418 C 236.911 209.924 238.974 209 241.250 209 Z " transform="matrix(-0.4699331223964691, -0.22643017768859863, 0.21956869959831238, -0.4556927978992462, 134.65, 168.9)"/>
  </g>
  <path id="ID0.5486297779716551" fill="#000000" stroke="#000000" stroke-width="6" stroke-linecap="round" d="M 319.350 238.550 C 307.238 245.500 295.597 266.776 302 278 C 311.189 288.839 325.526 285.577 337.700 286.950 C 347.701 288.070 358.478 286.995 368.500 283.850 C 376.746 282.212 390.961 281.771 391.550 272.850 C 392.439 259.122 383.380 242.675 371 237 C 355.369 229.848 334.427 229.344 319.350 238.550 Z " transform="matrix(0.1487560123205185, -0.13727569580078125, 0.14827106893062592, 0.1606709212064743, -10.05, 67.55)"/>
  <path id="ID0.5486297779716551" fill="#000000" stroke="#000000" stroke-width="6" stroke-linecap="round" d="M 319.350 238.550 C 307.238 245.500 295.597 266.776 302 278 C 311.189 288.839 325.526 285.577 337.700 286.950 C 347.701 288.070 358.478 286.995 368.500 283.850 C 376.746 282.212 390.961 281.771 391.550 272.850 C 392.439 259.122 383.380 242.675 371 237 C 355.369 229.848 334.427 229.344 319.350 238.550 Z " transform="matrix(0.1487560123205185, -0.13727569580078125, 0.14827106893062592, 0.1606709212064743, -16.8, 76.1)"/>
  <path id="ID0.643749819137156" fill="#FF9400" stroke="#000000" stroke-width="2" d="M 234.750 143.750 C 236.336 143.750 237.774 144.576 238.815 145.911 C 239.856 147.247 240.500 149.090 240.500 151.125 C 240.500 153.160 240.371 155.475 238.815 156.339 C 237.288 157.185 235.704 154.147 233.950 153.850 C 232.595 154.147 231.604 157.028 230.685 156.339 C 229.331 155.301 229 153.160 229 151.125 C 229 149.090 229.644 147.247 230.685 145.911 C 231.726 144.576 233.164 143.750 234.750 143.750 Z " transform="matrix(0.4562562108039856, -0.4357322156429291, 0.4357322156429291, 0.4562562108039856, -143.6, 64.65)"/>
  <path id="ID0.643749819137156" fill="#FF9400" stroke="#000000" stroke-width="2" d="M 234.750 143.750 C 236.336 143.750 237.774 144.576 238.815 145.911 C 239.856 147.247 240.500 149.090 240.500 151.125 C 240.500 153.160 240.321 155.477 238.815 156.339 C 237.560 157.060 236.520 153.987 235.100 153.850 C 233.386 153.987 231.974 157.049 230.685 156.339 C 229.156 155.462 229 153.160 229 151.125 C 229 149.090 229.644 147.247 230.685 145.911 C 231.726 144.576 233.164 143.750 234.750 143.750 Z " transform="matrix(0.4562562108039856, -0.4357322156429291, 0.4357322156429291, 0.4562562108039856, -139.6, 60.5)"/>
  <path id="ID0.8540973095223308" fill="none" stroke="#000000" stroke-width="2" stroke-linecap="round" d="M 255.250 160.850 C 255.250 160.850 253.312 160.956 252.400 161.250 C 251.731 161.466 251.089 161.846 250.600 162.350 C 250.012 162.957 249.545 163.708 249.250 164.500 C 248.999 165.176 249.042 165.930 249 166.650 C 248.959 167.348 248.664 168.136 249 168.750 C 249.330 169.354 250.102 169.617 250.750 169.850 C 251.430 170.094 252.182 170.234 252.900 170.150 C 253.936 170.029 255.900 169.250 255.900 169.250 " transform="matrix(0.3082065284252167, -0.2943423390388489, 0.2943423390388489, 0.3082065284252167, -91.25, 57.55)"/>
  <path id="ID0.8865274041891098" fill="#000000" stroke="#000000" stroke-width="2" stroke-linecap="round" d="M 206.500 158.750 L 204.500 163.500 L 201 175 L 195.750 173 L 199.250 161.500 L 177.900 156.800 L 179.650 151.700 L 206.500 158.750 Z " transform="matrix(-0.5006184577941895, -0.2693425714969635, -0.35036376118659973, 0.6512099504470825, 292, 10.15)"/>
  <path id="ID0.8865274041891098" fill="#000000" stroke="#000000" stroke-width="2" stroke-linecap="round" d="M 206.500 158.750 L 204.500 163.500 L 201 175 L 195.750 173 L 199.250 161.500 L 177.900 156.800 L 179.650 151.700 L 206.500 158.750 Z " transform="matrix(0.4678822159767151, 0.32287850975990295, -0.42000383138656616, 0.6086262464523315, 49.55, -141.55)"/>
  <path id="ID0.08809070056304336" fill="url(#grad_7)" stroke="url(#grad_8)" stroke-width="2" stroke-linecap="round" d="M 246 185.300 C 245.980 186.048 246.001 186.757 246 187.550 C 245.996 188.249 245.967 188.955 246 189.650 C 246.032 190.318 246.202 190.981 246.200 191.650 C 246.195 193.388 245.679 195.206 246.050 196.950 C 246.209 197.783 246.958 198.439 247.700 198.950 C 248.390 199.425 249.264 199.689 250.100 199.700 C 250.987 199.672 251.919 199.407 252.650 198.900 C 253.338 198.420 254.043 197.780 254.150 197 C 254.561 193.880 254.151 190.691 254.150 187.600 C 254.150 186.827 254.142 186.200 254.150 185.500 C 253.991 181.252 254.228 180.358 253.900 178.850 C 253.715 178.142 253.282 177.502 252.700 177.150 C 251.952 176.691 251.161 176.494 250.350 176.500 C 249.410 176.507 248.387 176.551 247.600 177.050 C 246.923 177.494 246.549 178.360 246.350 179.150 C 246.053 182.515 246.050 183.695 246 185.300 Z " transform="matrix(-2.140526056289673, -1.4771448373794556, -1.7582083940505981, 2.54781436920166, 970.1, -67.1)"/>
  <g id="ID0.1477178898639977">
    <path id="ID0.5619839346036315" fill="url(#grad_9)" stroke="url(#grad_10)" stroke-width="2" stroke-linecap="round" d="M 282.550 231 C 306.841 200.371 308.320 199.171 315.500 193 C 318.114 191.163 320.546 191.730 322.500 193 C 324.499 194.299 326.520 196.941 325.500 199.500 C 309.865 219.642 303.238 227.753 292 235 C 288.841 236.950 281.120 234.340 282.550 231 Z " transform="matrix(-0.11156145483255386, -0.35228660702705383, 0.5388249754905701, -0.17063403129577637, 41.25, 202.35)"/>
    <path id="ID0.6155663500539958" fill="url(#grad_11)" stroke="url(#grad_12)" stroke-width="2" d="M 241.250 209 C 243.526 209 245.589 209.924 247.082 211.418 C 248.576 212.911 249.500 214.974 249.500 217.250 C 249.500 219.526 248.576 221.589 247.082 223.082 C 245.589 224.576 243.526 225.500 241.250 225.500 C 238.974 225.500 236.911 224.576 235.418 223.082 C 233.924 221.589 233 219.526 233 217.250 C 233 214.974 233.924 212.911 235.418 211.418 C 236.911 209.924 238.974 209 241.250 209 Z " transform="matrix(0.09598358720541, -0.5127328038215637, 0.49719545245170593, 0.0930749922990799, 3.8, 164.6)"/>
  </g>
  <g id="ID0.1477178898639977">
    <path id="ID0.5619839346036315" fill="#CC0000" stroke="#990000" stroke-width="2" stroke-linecap="round" d="M 282.550 231 C 306.841 200.371 308.320 199.171 315.500 193 C 318.114 191.163 320.546 191.730 322.500 193 C 324.499 194.299 326.520 196.941 325.500 199.500 C 309.865 219.642 303.238 227.753 292 235 C 288.841 236.950 281.120 234.340 282.550 231 Z " transform="matrix(0.3670620918273926, -0.042629022151231766, -0.06520142406225204, -0.5614242553710938, -14.9, 164.8)"/>
    <path id="ID0.6155663500539958" fill="#990000" stroke="#660000" stroke-width="2" d="M 241.250 209 C 243.526 209 245.589 209.924 247.082 211.418 C 248.576 212.911 249.500 214.974 249.500 217.250 C 249.500 219.526 248.576 221.589 247.082 223.082 C 245.589 224.576 243.526 225.500 241.250 225.500 C 238.974 225.500 236.911 224.576 235.418 223.082 C 233.924 221.589 233 219.526 233 217.250 C 233 214.974 233.924 212.911 235.418 211.418 C 236.911 209.924 238.974 209 241.250 209 Z " transform="matrix(0.4283474087715149, -0.2977016270160675, -0.28868040442466736, -0.4153672456741333, 34.8, 183.5)"/>
  </g>
  <path id="ID0.5486297779716551" fill="#000000" stroke="#000000" stroke-width="6" stroke-linecap="round" d="M 319.350 238.550 C 307.238 245.500 295.597 266.776 302 278 C 311.189 288.839 325.526 285.577 337.700 286.950 C 347.701 288.070 358.478 286.995 368.500 283.850 C 376.746 282.212 390.961 281.771 391.550 272.850 C 392.439 259.122 383.380 242.675 371 237 C 355.369 229.848 334.427 229.344 319.350 238.550 Z " transform="matrix(-0.1685420423746109, -0.11210061609745026, -0.12107952684164047, 0.18204174935817719, 161.8, 60.55)"/>
  <path id="ID0.5486297779716551" fill="#000000" stroke="#000000" stroke-width="6" stroke-linecap="round" d="M 319.350 238.550 C 307.238 245.500 295.597 266.776 302 278 C 311.189 288.839 325.526 285.577 337.700 286.950 C 347.701 288.070 358.478 286.995 368.500 283.850 C 376.746 282.212 390.961 281.771 391.550 272.850 C 392.439 259.122 383.380 242.675 371 237 C 355.369 229.848 334.427 229.344 319.350 238.550 Z " transform="matrix(-0.1685420423746109, -0.11210061609745026, -0.12107952684164047, 0.18204174935817719, 163.6, 49.8)"/>
  <path id="ID0.643749819137156" fill="#FF9400" stroke="#000000" stroke-width="2" d="M 234.750 143.750 C 236.336 143.750 237.774 144.576 238.815 145.911 C 239.856 147.247 240.500 149.090 240.500 151.125 C 240.500 153.160 240.371 155.475 238.815 156.339 C 237.288 157.185 235.704 154.147 233.950 153.850 C 232.595 154.147 231.604 157.028 230.685 156.339 C 229.331 155.301 229 153.160 229 151.125 C 229 149.090 229.644 147.247 230.685 145.911 C 231.726 144.576 233.164 143.750 234.750 143.750 Z " transform="matrix(-0.519258975982666, -0.3583328127861023, -0.3583328127861023, 0.519258975982666, 293.15, 36.65)"/>
  <path id="ID0.643749819137156" fill="#FF9400" stroke="#000000" stroke-width="2" d="M 234.750 143.750 C 236.336 143.750 237.774 144.576 238.815 145.911 C 239.856 147.247 240.500 149.090 240.500 151.125 C 240.500 153.160 240.321 155.477 238.815 156.339 C 237.560 157.060 236.520 153.987 235.100 153.850 C 233.386 153.987 231.974 157.049 230.685 156.339 C 229.156 155.462 229 153.160 229 151.125 C 229 149.090 229.644 147.247 230.685 145.911 C 231.726 144.576 233.164 143.750 234.750 143.750 Z " transform="matrix(-0.519258975982666, -0.3583328127861023, -0.3583328127861023, 0.519258975982666, 288.6, 33.15)"/>
  <path id="ID0.8540973095223308" fill="none" stroke="#000000" stroke-width="2" stroke-linecap="round" d="M 255.250 160.850 C 255.250 160.850 253.312 160.956 252.400 161.250 C 251.731 161.466 251.089 161.846 250.600 162.350 C 250.012 162.957 249.545 163.708 249.250 164.500 C 248.999 165.176 249.042 165.930 249 166.650 C 248.959 167.348 248.664 168.136 249 168.750 C 249.330 169.354 250.102 169.617 250.750 169.850 C 251.430 170.094 252.182 170.234 252.900 170.150 C 253.936 170.029 255.900 169.250 255.900 169.250 " transform="matrix(-0.3507656455039978, -0.24205811321735382, -0.24205811321735382, 0.3507656455039978, 240.4, 37.8)"/>
  <g id="ID0.7868484011851251">
    <path id="ID0.8865274041891098" fill="#000000" stroke="#000000" stroke-width="2" stroke-linecap="round" d="M 206.500 158.750 L 204.500 163.500 L 201 175 L 195.750 173 L 199.250 161.500 L 177.900 156.800 L 179.650 151.700 L 206.500 158.750 Z " transform="matrix(-0.5650119781494141, 0.06265589594841003, 0.08150346577167511, 0.7349737286567688, 211.35, -92.45)"/>
    <path id="ID0.8865274041891098" fill="#000000" stroke="#000000" stroke-width="2" stroke-linecap="round" d="M 206.500 158.750 L 204.500 163.500 L 201 175 L 195.750 173 L 199.250 161.500 L 177.900 156.800 L 179.650 151.700 L 206.500 158.750 Z " transform="matrix(0.5684754252433777, 0, 0, 0.7394789457321167, -74.4, -79.7)"/>
    <path id="ID0.08809070056304336" fill="#CC0000" stroke="#CC0000" stroke-width="2" stroke-linecap="round" d="M 246 185.300 C 245.980 186.048 246.001 186.757 246 187.550 C 245.996 188.249 245.967 188.955 246 189.650 C 246.032 190.318 246.202 190.981 246.200 191.650 C 246.195 193.388 245.679 195.206 246.050 196.950 C 246.209 197.783 246.958 198.439 247.700 198.950 C 248.390 199.425 249.264 199.689 250.100 199.700 C 250.987 199.672 251.919 199.407 252.650 198.900 C 253.338 198.420 254.043 197.780 254.150 197 C 254.561 193.880 254.151 190.691 254.150 187.600 C 254.150 186.827 254.142 186.200 254.150 185.500 C 253.991 181.252 254.228 180.358 253.900 178.850 C 253.715 178.142 253.282 177.502 252.700 177.150 C 251.952 176.691 251.161 176.494 250.350 176.500 C 249.410 176.507 248.387 176.551 247.600 177.050 C 246.923 177.494 246.549 178.360 246.350 179.150 C 246.053 182.515 246.050 183.695 246 185.300 Z " transform="matrix(-2.6007323265075684, 0, 0, 3.0955862998962402, 725.65, -541.25)"/>
    <g id="ID0.1477178898639977">
      <path id="ID0.5619839346036315" fill="#CC0000" stroke="#990000" stroke-width="2" stroke-linecap="round" d="M 282.550 231 C 306.841 200.371 308.320 199.171 315.500 193 C 318.114 191.163 320.546 191.730 322.500 193 C 324.499 194.299 326.520 196.941 325.500 199.500 C 309.865 219.642 303.238 227.753 292 235 C 288.841 236.950 281.120 234.340 282.550 231 Z " transform="matrix(-0.2919095456600189, -0.22658473253250122, 0.34656304121017456, -0.4464777708053589, 114.1, 208.15)"/>
      <path id="ID0.6155663500539958" fill="#990000" stroke="#660000" stroke-width="2" d="M 241.250 209 C 243.526 209 245.589 209.924 247.082 211.418 C 248.576 212.911 249.500 214.974 249.500 217.250 C 249.500 219.526 248.576 221.589 247.082 223.082 C 245.589 224.576 243.526 225.500 241.250 225.500 C 238.974 225.500 236.911 224.576 235.418 223.082 C 233.924 221.589 233 219.526 233 217.250 C 233 214.974 233.924 212.911 235.418 211.418 C 236.911 209.924 238.974 209 241.250 209 Z " transform="matrix(-0.21221917867660522, -0.47651946544647217, 0.4620794951915741, -0.20578829944133759, 61.85, 198.35)"/>
    </g>
    <g id="ID0.1477178898639977">
      <path id="ID0.5619839346036315" fill="#CC0000" stroke="#990000" stroke-width="2" stroke-linecap="round" d="M 282.550 231 C 306.841 200.371 308.320 199.171 315.500 193 C 318.114 191.163 320.546 191.730 322.500 193 C 324.499 194.299 326.520 196.941 325.500 199.500 C 309.865 219.642 303.238 227.753 292 235 C 288.841 236.950 281.120 234.340 282.550 231 Z " transform="matrix(0.2778973877429962, -0.24356694519519806, -0.3725374937057495, -0.4250461459159851, 46.55, 209.2)"/>
      <path id="ID0.6155663500539958" fill="#990000" stroke="#660000" stroke-width="2" d="M 241.250 209 C 243.526 209 245.589 209.924 247.082 211.418 C 248.576 212.911 249.500 214.974 249.500 217.250 C 249.500 219.526 248.576 221.589 247.082 223.082 C 245.589 224.576 243.526 225.500 241.250 225.500 C 238.974 225.500 236.911 224.576 235.418 223.082 C 233.924 221.589 233 219.526 233 217.250 C 233 214.974 233.924 212.911 235.418 211.418 C 236.911 209.924 238.974 209 241.250 209 Z " transform="matrix(0.18346385657787323, -0.4883121848106384, -0.4735149145126343, -0.17790435254573822, 98.1, 196.3)"/>
    </g>
    <path id="ID0.5486297779716551" fill="#000000" stroke="#000000" stroke-width="6" stroke-linecap="round" d="M 319.350 238.550 C 307.238 245.500 295.597 266.776 302 278 C 311.189 288.839 325.526 285.577 337.700 286.950 C 347.701 288.070 358.478 286.995 368.500 283.850 C 376.746 282.212 390.961 281.771 391.550 272.850 C 392.439 259.122 383.380 242.675 371 237 C 355.369 229.848 334.427 229.344 319.350 238.550 Z " transform="matrix(-0.20238818228244781, 0.0034631520975381136, 0.003740547224879265, 0.2185988575220108, 132.8, 23)"/>
    <path id="ID0.5486297779716551" fill="#000000" stroke="#000000" stroke-width="6" stroke-linecap="round" d="M 319.350 238.550 C 307.238 245.500 295.597 266.776 302 278 C 311.189 288.839 325.526 285.577 337.700 286.950 C 347.701 288.070 358.478 286.995 368.500 283.850 C 376.746 282.212 390.961 281.771 391.550 272.850 C 392.439 259.122 383.380 242.675 371 237 C 355.369 229.848 334.427 229.344 319.350 238.550 Z " transform="matrix(-0.20238818228244781, 0.0034631520975381136, 0.003740547224879265, 0.2185988575220108, 154.55, 23.05)"/>
    <path id="ID0.643749819137156" fill="#FF9400" stroke="#000000" stroke-width="2" d="M 234.750 143.750 C 236.336 143.750 237.774 144.576 238.815 145.911 C 239.856 147.247 240.500 149.090 240.500 151.125 C 240.500 153.160 240.371 155.475 238.815 156.339 C 237.288 157.185 235.704 154.147 233.950 153.850 C 232.595 154.147 231.604 157.028 230.685 156.339 C 229.331 155.301 229 153.160 229 151.125 C 229 149.090 229.644 147.247 230.685 145.911 C 231.726 144.576 233.164 143.750 234.750 143.750 Z " transform="matrix(-0.6308979988098145, 0, 0, 0.6308979988098145, 227.35, -71.3)"/>
    <path id="ID0.643749819137156" fill="#FF9400" stroke="#000000" stroke-width="2" d="M 234.750 143.750 C 236.336 143.750 237.774 144.576 238.815 145.911 C 239.856 147.247 240.500 149.090 240.500 151.125 C 240.500 153.160 240.321 155.477 238.815 156.339 C 237.560 157.060 236.520 153.987 235.100 153.850 C 233.386 153.987 231.974 157.049 230.685 156.339 C 229.156 155.462 229 153.160 229 151.125 C 229 149.090 229.644 147.247 230.685 145.911 C 231.726 144.576 233.164 143.750 234.750 143.750 Z " transform="matrix(-0.6308979988098145, 0, 0, 0.6308979988098145, 221.6, -71.55)"/>
    <path id="ID0.8540973095223308" fill="none" stroke="#000000" stroke-width="2" stroke-linecap="round" d="M 255.250 160.850 C 255.250 160.850 253.312 160.956 252.400 161.250 C 251.731 161.466 251.089 161.846 250.600 162.350 C 250.012 162.957 249.545 163.708 249.250 164.500 C 248.999 165.176 249.042 165.930 249 166.650 C 248.959 167.348 248.664 168.136 249 168.750 C 249.330 169.354 250.102 169.617 250.750 169.850 C 251.430 170.094 252.182 170.234 252.900 170.150 C 253.936 170.029 255.900 169.250 255.900 169.250 " transform="matrix(-0.4261791706085205, 0, 0, 0.4261791706085205, 184.6, -40.3)"/>
  </g>
</svg>