<svg version="1.1" width="113" height="77" viewBox="-1 -1 113 77" xmlns="http://www.w3.org/2000/svg" xmlns:xlink="http://www.w3.org/1999/xlink">
  <defs>
    <linearGradient id="grad_1" y2="1">
      <stop offset="0" stop-color="#003FFF" stop-opacity="1"/>
      <stop offset="1" stop-color="#99B2FF" stop-opacity="1"/>
    </linearGradient>
    <linearGradient id="grad_2" y2="1">
      <stop offset="0" stop-color="#00FFFF" stop-opacity="1"/>
      <stop offset="1" stop-color="#FF0000" stop-opacity="1"/>
    </linearGradient>
    <linearGradient id="grad_3" y2="1">
      <stop offset="0" stop-color="#00FFFF" stop-opacity="1"/>
      <stop offset="1" stop-color="#FF0000" stop-opacity="1"/>
    </linearGradient>
  </defs>
  <!-- Exported by Scratch - http://scratch.mit.edu/ -->
  <path id="ID0.22965509304776788" fill="url(#grad_1)" stroke="url(#grad_2)" stroke-width="2" d="M 229.350 172.400 L 255.250 172.400 L 255.250 189.400 L 229.350 189.400 L 229.350 172.400 Z " transform="matrix(3.9905264377593994, 0, 0, 2.8779077529907227, -910.6, -492.75)"/>
  <g id="ID0.17109058564528823">
    <g id="ID0.303540266584605">
      <path id="ID0.49307857686653733" fill="#00CC44" stroke="none" d="M 0 290 L 480 290 L 480 360 L 0 360 L 0 290 Z " transform="matrix(0.20252643525600433, 0, 0, 0.1844940334558487, 8.15, -13.65)"/>
      <path id="ID0.010893108323216438" fill="#9C7044" stroke="none" d="M 0 310 L 480 310 L 480 360 L 0 360 L 0 310 Z " transform="matrix(0.20252643525600433, 0, 0, 0.1844940334558487, 8.15, -13.65)"/>
      <path id="ID0.8559755980968475" fill="#BA8551" stroke="none" d="M 60 317 C 66.621 317 72.621 319.409 76.966 323.301 C 81.311 327.193 84 332.568 84 338.500 C 84 344.432 81.311 349.807 76.966 353.699 C 72.621 357.591 66.621 360 60 360 C 53.379 360 47.379 357.591 43.034 353.699 C 38.689 349.807 36 344.432 36 338.500 C 36 332.568 38.689 327.193 43.034 323.301 C 47.379 319.409 53.379 317 60 317 Z " transform="matrix(0.20252643525600433, 0, 0, 0.1844940334558487, -1.5, -10.1)"/>
      <path id="ID0.8986268960870802" fill="#BA8551" stroke="none" d="M 54 323 C 58.414 323 62.414 324.513 65.311 326.957 C 68.207 329.400 70 332.775 70 336.500 C 70 340.225 68.207 343.600 65.311 346.043 C 62.414 348.487 58.414 350 54 350 C 49.586 350 45.586 348.487 42.689 346.043 C 39.793 343.600 38 340.225 38 336.500 C 38 332.775 39.793 329.400 42.689 326.957 C 45.586 324.513 49.586 323 54 323 Z " transform="matrix(0.20252643525600433, 0, 0, 0.1844940334558487, 8.15, -13.65)"/>
      <path id="ID0.21692789532244205" fill="#BA8551" stroke="none" d="M 121.500 319 C 127.983 319 133.858 321.297 138.113 325.008 C 142.367 328.719 145 333.844 145 339.500 C 145 345.156 142.367 350.281 138.113 353.992 C 133.858 357.703 127.983 360 121.500 360 C 115.017 360 109.142 357.703 104.887 353.992 C 100.633 350.281 98 345.156 98 339.500 C 98 333.844 100.633 328.719 104.887 325.008 C 109.142 321.297 115.017 319 121.500 319 Z " transform="matrix(0.20252643525600433, 0, 0, 0.1844940334558487, 8.15, -13.65)"/>
      <path id="ID0.8837906182743609" fill="#BA8551" stroke="none" d="M 155.500 340 C 158.121 340 160.496 341.121 162.216 342.931 C 163.935 344.741 165 347.241 165 350 C 165 352.759 163.935 355.259 162.216 357.069 C 160.496 358.879 158.121 360 155.500 360 C 152.879 360 150.504 358.879 148.784 357.069 C 147.065 355.259 146 352.759 146 350 C 146 347.241 147.065 344.741 148.784 342.931 C 150.504 341.121 152.879 340 155.500 340 Z " transform="matrix(0.20252643525600433, 0, 0, 0.1844940334558487, 8.15, -13.65)"/>
      <path id="ID0.2626103018410504" fill="#BA8551" stroke="none" d="M 153.500 318 C 155.293 318 156.918 318.616 158.095 319.612 C 159.272 320.608 160 321.983 160 323.500 C 160 325.017 159.272 326.392 158.095 327.388 C 156.918 328.384 155.293 329 153.500 329 C 151.707 329 150.082 328.384 148.905 327.388 C 147.728 326.392 147 325.017 147 323.500 C 147 321.983 147.728 320.608 148.905 319.612 C 150.082 318.616 151.707 318 153.500 318 Z " transform="matrix(0.20252643525600433, 0, 0, 0.1844940334558487, 8.15, -13.65)"/>
      <path id="ID0.2883803420700133" fill="#BA8551" stroke="none" d="M 227 318 C 234.725 318 241.725 320.353 246.794 324.155 C 251.862 327.956 255 333.206 255 339 C 255 344.794 251.862 350.044 246.794 353.845 C 241.725 357.647 234.725 360 227 360 C 219.275 360 212.275 357.647 207.206 353.845 C 202.138 350.044 199 344.794 199 339 C 199 333.206 202.138 327.956 207.206 324.155 C 212.275 320.353 219.275 318 227 318 Z " transform="matrix(0.20252643525600433, 0, 0, 0.1844940334558487, 8.15, -13.65)"/>
      <path id="ID0.9287049593403935" fill="#BA8551" stroke="none" d="M 260.500 325 C 263.949 325 267.074 326.513 269.336 328.957 C 271.599 331.400 273 334.775 273 338.500 C 273 342.225 271.599 345.600 269.336 348.043 C 267.074 350.487 263.949 352 260.500 352 C 257.051 352 253.926 350.487 251.664 348.043 C 249.401 345.600 248 342.225 248 338.500 C 248 334.775 249.401 331.400 251.664 328.957 C 253.926 326.513 257.051 325 260.500 325 Z " transform="matrix(0.20252643525600433, 0, 0, 0.1844940334558487, 8.15, -13.65)"/>
      <path id="ID0.17659541917964816" fill="#BA8551" stroke="none" d="M 336.500 316 C 343.259 316 349.384 318.241 353.820 321.862 C 358.255 325.482 361 330.482 361 336 C 361 341.518 358.255 346.518 353.820 350.138 C 349.384 353.759 343.259 356 336.500 356 C 329.741 356 323.616 353.759 319.180 350.138 C 314.745 346.518 312 341.518 312 336 C 312 330.482 314.745 325.482 319.180 321.862 C 323.616 318.241 329.741 316 336.500 316 Z " transform="matrix(0.20252643525600433, 0, 0, 0.1844940334558487, 8.15, -13.65)"/>
      <path id="ID0.8562152204103768" fill="#BA8551" stroke="none" d="M 407 315 C 409.759 315 412.259 316.065 414.069 317.784 C 415.879 319.504 417 321.879 417 324.500 C 417 327.121 415.879 329.496 414.069 331.216 C 412.259 332.935 409.759 334 407 334 C 404.241 334 401.741 332.935 399.931 331.216 C 398.121 329.496 397 327.121 397 324.500 C 397 321.879 398.121 319.504 399.931 317.784 C 401.741 316.065 404.241 315 407 315 Z " transform="matrix(0.20252643525600433, 0, 0, 0.1844940334558487, 8.15, -13.65)"/>
      <path id="ID0.8201488801278174" fill="#BA8551" stroke="none" d="M 447.500 337 C 449.845 337 451.970 337.784 453.509 339.052 C 455.048 340.319 456 342.069 456 344 C 456 345.931 455.048 347.681 453.509 348.948 C 451.970 350.216 449.845 351 447.500 351 C 445.155 351 443.030 350.216 441.491 348.948 C 439.952 347.681 439 345.931 439 344 C 439 342.069 439.952 340.319 441.491 339.052 C 443.030 337.784 445.155 337 447.500 337 Z " transform="matrix(0.20252643525600433, 0, 0, 0.1844940334558487, 8.15, -13.65)"/>
    </g>
    <path id="ID0.9676809906959534" fill="#CC7700" stroke="none" d="M 417 184 L 480 184 L 480 291 L 417 291 L 417 184 Z " transform="matrix(0.20252643525600433, 0, 0, 0.1844940334558487, 8.15, -13.65)"/>
    <path id="ID0.6643846542574465" fill="none" stroke="#995900" stroke-width="2" d="M 432 195 L 480 195 L 480 252 L 432 252 L 432 195 Z " transform="matrix(0.20252643525600433, 0, 0, 0.1844940334558487, 8.15, -13.65)"/>
    <path id="ID0.25736781815066934" fill="none" stroke="#995900" stroke-width="2" d="M 432 219 L 480 219 L 480 228 L 432 228 L 432 219 Z " transform="matrix(0.20252643525600433, 0, 0, 0.1844940334558487, 8.15, -13.65)"/>
    <path id="ID0.24205777002498507" fill="#CC7700" stroke="#995900" stroke-width="2" d="M 456 195 L 464 195 L 464 252 L 456 252 L 456 195 Z " transform="matrix(0.20252643525600433, 0, 0, 0.1844940334558487, 8.15, -13.65)"/>
    <path id="ID0.38785029063001275" fill="#663B00" stroke="#663B00" stroke-width="2" stroke-linecap="round" d="M 398 184 L 477.950 122.750 L 477.950 185.100 L 398 184 Z " transform="matrix(0.20252643525600433, 0, 0, 0.1844940334558487, 8.15, -13.65)"/>
    <g id="ID0.030913349706679583">
      <path id="ID0.5414072698913515" fill="#7F5B37" stroke="none" d="M 2 252 L 149 252 L 149 291 L 2 291 L 2 252 Z " transform="matrix(0.16866135597229004, 0, 0, 0.12327743321657181, 8.1, 4.1)"/>
      <path id="ID0.4275015494786203" fill="#7F5B37" stroke="none" d="M 125 194 L 139 194 L 139 255 L 125 255 L 125 194 Z " transform="matrix(0.16866135597229004, 0, 0, 0.12327743321657181, 8.1, 4.1)"/>
      <path id="ID0.4275015494786203" fill="#7F5B37" stroke="none" d="M 125 194 L 139 194 L 139 255 L 125 255 L 125 194 Z " transform="matrix(0.16866135597229004, 0, 0, 0.12327743321657181, -11.2, 4.1)"/>
      <path id="ID0.5320072416216135" fill="#FFFFFF" stroke="none" stroke-linecap="round" d="M 0 181 L 42.500 174.950 L 110 174.950 L 151 181 L 151 195 L 0 195 L 0 181 Z " transform="matrix(0.16866135597229004, 0, 0, 0.3786378502845764, 7.95, -45.6)"/>
      <path id="ID0.523767719976604" fill="#5E4429" stroke="none" d="M 7 258 L 120 258 L 120 260 L 7 260 L 7 258 Z " transform="matrix(0.16866135597229004, 0, 0, 0.12327743321657181, 8.1, 4.1)"/>
      <path id="ID0.031979843974113464" fill="#5E4429" stroke="none" d="M 52 263 L 143 263 L 143 266 L 52 266 L 52 263 Z " transform="matrix(0.16866135597229004, 0, 0, 0.12327743321657181, 8.1, 4.1)"/>
      <path id="ID0.6668021949008107" fill="#5E4429" stroke="none" d="M 8 276 L 48 276 L 48 281 L 8 281 L 8 276 Z " transform="matrix(0.16866135597229004, 0, 0, 0.12327743321657181, 8.1, 4.1)"/>
      <path id="ID0.8979369164444506" fill="#5E4429" stroke="none" d="M 41 282 L 84 282 L 84 286 L 41 286 L 41 282 Z " transform="matrix(0.16866135597229004, 0, 0, 0.12327743321657181, 8.1, 4.1)"/>
      <path id="ID0.47153099067509174" fill="#5E4429" stroke="none" d="M 104 270 L 147 270 L 147 274 L 104 274 L 104 270 Z " transform="matrix(0.16866135597229004, 0, 0, 0.12327743321657181, 8.1, 4.1)"/>
      <path id="ID0.32659777672961354" fill="#5E4429" stroke="none" d="M 63 271 L 88 271 L 88 274 L 63 274 L 63 271 Z " transform="matrix(0.16866135597229004, 0, 0, 0.12327743321657181, 8.1, 4.1)"/>
      <path id="ID0.7356892181560397" fill="#5E4429" stroke="none" d="M 5 261 L 23 261 L 23 264 L 5 264 L 5 261 Z " transform="matrix(0.16866135597229004, 0, 0, 0.12327743321657181, 8.1, 4.1)"/>
      <path id="ID0.7334515964612365" fill="#5E4429" stroke="none" d="M 121 283 L 142 283 L 142 286 L 121 286 L 121 283 Z " transform="matrix(0.16866135597229004, 0, 0, 0.12327743321657181, 8.1, 4.1)"/>
      <path id="ID0.1499695871025324" fill="#5E4429" stroke="none" d="M 14 196 L 16 196 L 16 228 L 14 228 L 14 196 Z " transform="matrix(0.16866135597229004, 0, 0, 0.12327743321657181, 8.1, 4.1)"/>
      <path id="ID0.49776034988462925" fill="#5E4429" stroke="none" d="M 18 215 L 21 215 L 21 248 L 18 248 L 18 215 Z " transform="matrix(0.16866135597229004, 0, 0, 0.12327743321657181, 8.1, 4.1)"/>
      <path id="ID0.21500521060079336" fill="#5E4429" stroke="none" d="M 130 206 L 133 206 L 133 231 L 130 231 L 130 206 Z " transform="matrix(0.16866135597229004, 0, 0, 0.12327743321657181, 8.1, 4.1)"/>
      <path id="ID0.8690360491164029" fill="#5E4429" stroke="none" d="M 134 228 L 136 228 L 136 247 L 134 247 L 134 228 Z " transform="matrix(0.16866135597229004, 0, 0, 0.12327743321657181, 8.1, 4.1)"/>
      <path id="ID0.0971049671061337" fill="#5E4429" stroke="none" d="M 134 195 L 138 195 L 138 209 L 134 209 L 134 195 Z " transform="matrix(0.16866135597229004, 0, 0, 0.12327743321657181, 8.1, 4.1)"/>
      <path id="ID0.21786352526396513" fill="#FF0000" stroke="#FF0000" stroke-width="5" stroke-linecap="round" d="M 63 136 L 50 136 L 49 193 L 63 193 L 63 136 Z " transform="matrix(0.16866135597229004, 0, 0, 0.12327743321657181, 7.35, 4.1)"/>
      <path id="ID0.21786352526396513" fill="#FF0000" stroke="#FF0000" stroke-width="5" stroke-linecap="round" d="M 63 136 L 50 136 L 49 193 L 63 193 L 63 136 Z " transform="matrix(0.16866135597229004, 0, 0, 0.12327743321657181, 15.4, 4.05)"/>
      <path id="ID0.9975263304077089" fill="#FF0000" stroke="#FF0000" stroke-width="5" stroke-linecap="round" d="M 133.500 193.500 L 132 146.500 L 149 153.500 L 149 193.500 L 133.500 193.500 Z " transform="matrix(0.16866135597229004, 0, 0, 0.12327743321657181, 8.1, 4.1)"/>
      <path id="ID0.9975263304077089" fill="#FF0000" stroke="#FF0000" stroke-width="5" stroke-linecap="round" d="M 133.500 193.500 L 132 146.500 L 149 153.500 L 149 193.500 L 133.500 193.500 Z " transform="matrix(-0.16866135597229004, 0, 0, 0.12327743321657181, 33.55, 4.05)"/>
    </g>
    <g id="ID0.030913349706679583">
      <path id="ID0.5414072698913515" fill="#7F5B37" stroke="none" d="M 2 252 L 149 252 L 149 291 L 2 291 L 2 252 Z " transform="matrix(0.16866135597229004, 0, 0, 0.12444539368152618, 61.5, 3.65)"/>
      <path id="ID0.4275015494786203" fill="#7F5B37" stroke="none" d="M 125 194 L 139 194 L 139 255 L 125 255 L 125 194 Z " transform="matrix(0.16866135597229004, 0, 0, 0.12444539368152618, 61.5, 3.65)"/>
      <path id="ID0.4275015494786203" fill="#7F5B37" stroke="none" d="M 125 194 L 139 194 L 139 255 L 125 255 L 125 194 Z " transform="matrix(0.16866135597229004, 0, 0, 0.12444539368152618, 42.1, 3.65)"/>
      <path id="ID0.5320072416216135" fill="#FFFFFF" stroke="none" stroke-linecap="round" d="M 0 181 L 42.500 174.950 L 110 174.950 L 151 181 L 151 195 L 0 195 L 0 181 Z " transform="matrix(0.16866135597229004, 0, 0, 0.3822250962257385, 61.3, -46.55)"/>
      <path id="ID0.523767719976604" fill="#5E4429" stroke="none" d="M 7 258 L 120 258 L 120 260 L 7 260 L 7 258 Z " transform="matrix(0.16866135597229004, 0, 0, 0.12444539368152618, 61.5, 3.65)"/>
      <path id="ID0.031979843974113464" fill="#5E4429" stroke="none" d="M 52 263 L 143 263 L 143 266 L 52 266 L 52 263 Z " transform="matrix(0.16866135597229004, 0, 0, 0.12444539368152618, 61.5, 3.65)"/>
      <path id="ID0.6668021949008107" fill="#5E4429" stroke="none" d="M 8 276 L 48 276 L 48 281 L 8 281 L 8 276 Z " transform="matrix(0.16866135597229004, 0, 0, 0.12444539368152618, 61.5, 3.65)"/>
      <path id="ID0.8979369164444506" fill="#5E4429" stroke="none" d="M 41 282 L 84 282 L 84 286 L 41 286 L 41 282 Z " transform="matrix(0.16866135597229004, 0, 0, 0.12444539368152618, 61.5, 3.65)"/>
      <path id="ID0.47153099067509174" fill="#5E4429" stroke="none" d="M 104 270 L 147 270 L 147 274 L 104 274 L 104 270 Z " transform="matrix(0.16866135597229004, 0, 0, 0.12444539368152618, 61.5, 3.65)"/>
      <path id="ID0.32659777672961354" fill="#5E4429" stroke="none" d="M 63 271 L 88 271 L 88 274 L 63 274 L 63 271 Z " transform="matrix(0.16866135597229004, 0, 0, 0.12444539368152618, 61.5, 3.65)"/>
      <path id="ID0.7356892181560397" fill="#5E4429" stroke="none" d="M 5 261 L 23 261 L 23 264 L 5 264 L 5 261 Z " transform="matrix(0.16866135597229004, 0, 0, 0.12444539368152618, 61.5, 3.65)"/>
      <path id="ID0.7334515964612365" fill="#5E4429" stroke="none" d="M 121 283 L 142 283 L 142 286 L 121 286 L 121 283 Z " transform="matrix(0.16866135597229004, 0, 0, 0.12444539368152618, 61.5, 3.65)"/>
      <path id="ID0.1499695871025324" fill="#5E4429" stroke="none" d="M 14 196 L 16 196 L 16 228 L 14 228 L 14 196 Z " transform="matrix(0.16866135597229004, 0, 0, 0.12444539368152618, 61.5, 3.65)"/>
      <path id="ID0.49776034988462925" fill="#5E4429" stroke="none" d="M 18 215 L 21 215 L 21 248 L 18 248 L 18 215 Z " transform="matrix(0.16866135597229004, 0, 0, 0.12444539368152618, 61.5, 3.65)"/>
      <path id="ID0.21500521060079336" fill="#5E4429" stroke="none" d="M 130 206 L 133 206 L 133 231 L 130 231 L 130 206 Z " transform="matrix(0.16866135597229004, 0, 0, 0.12444539368152618, 61.5, 3.65)"/>
      <path id="ID0.8690360491164029" fill="#5E4429" stroke="none" d="M 134 228 L 136 228 L 136 247 L 134 247 L 134 228 Z " transform="matrix(0.16866135597229004, 0, 0, 0.12444539368152618, 61.5, 3.65)"/>
      <path id="ID0.0971049671061337" fill="#5E4429" stroke="none" d="M 134 195 L 138 195 L 138 209 L 134 209 L 134 195 Z " transform="matrix(0.16866135597229004, 0, 0, 0.12444539368152618, 61.5, 3.65)"/>
      <path id="ID0.21786352526396513" fill="#FF0000" stroke="#FF0000" stroke-width="5" stroke-linecap="round" d="M 63 136 L 50 136 L 49 193 L 63 193 L 63 136 Z " transform="matrix(0.16866135597229004, 0, 0, 0.12444539368152618, 60.75, 3.65)"/>
      <path id="ID0.21786352526396513" fill="#FF0000" stroke="#FF0000" stroke-width="5" stroke-linecap="round" d="M 63 136 L 50 136 L 49 193 L 63 193 L 63 136 Z " transform="matrix(0.16866135597229004, 0, 0, 0.12444539368152618, 68.75, 3.6)"/>
      <path id="ID0.9975263304077089" fill="#FF0000" stroke="#FF0000" stroke-width="5" stroke-linecap="round" d="M 133.500 193.500 L 132 146.500 L 149 153.500 L 149 193.500 L 133.500 193.500 Z " transform="matrix(0.16866135597229004, 0, 0, 0.12444539368152618, 61.5, 3.65)"/>
      <path id="ID0.9975263304077089" fill="#FF0000" stroke="#FF0000" stroke-width="5" stroke-linecap="round" d="M 133.500 193.500 L 132 146.500 L 149 153.500 L 149 193.500 L 133.500 193.500 Z " transform="matrix(-0.16866135597229004, 0, 0, 0.12444539368152618, 86.95, 3.6)"/>
    </g>
  </g>
  <path id="ID0.9680157378315926" fill="#000000" stroke="url(#grad_3)" stroke-width="3" d="M 213.050 193.050 L 266.400 193.050 L 266.400 217.500 L 213.050 217.500 L 213.050 193.050 Z " transform="matrix(1.971341848373413, 0, 0, 1.256237268447876, -416.55, -198.9)"/>
  <text id="ID0.8694763821549714" fill="#FFFFFF" x="198.5" y="211.75" text-anchor="start" font-family="Helvetica" font-size="22" transform="matrix(0.597736120223999, 0, 0, 0.597736120223999, 13.05, 51.65)">Burrito Town</text>
</svg>