<svg version="1.1" width="68" height="15" viewBox="-1 -1 68 15" xmlns="http://www.w3.org/2000/svg" xmlns:xlink="http://www.w3.org/1999/xlink">
  <!-- Exported by Scratch - http://scratch.mit.edu/ -->
  <path id="ID0.31629551900550723" fill="none" stroke="#003FFF" stroke-width="2" d="M 219 175 L 265.100 175 L 265.100 186 L 219 186 L 219 175 Z " transform="matrix(1.3866944313049316, 0, 0, 1, -302.3, -173.15)"/>
  <path id="ID0.3702090159058571" fill="none" stroke="#003FFF" stroke-width="2" stroke-linecap="round" d="M 214.750 176.350 C 214.750 176.350 211.229 179.148 210.400 179.600 C 209.982 179.828 211.379 178.338 212 177.850 C 212.562 177.408 213.562 176.549 213.900 176.850 C 214.262 177.174 212.931 178.748 213.400 179.100 C 213.931 179.498 215.088 178.659 215.900 178.350 C 216.757 178.024 217.738 176.818 218.400 177.200 C 219.038 177.568 218.747 179.002 218.500 179.850 C 218.256 180.688 217.022 181.955 217 182 C 216.978 182.045 217.756 180.830 218.250 180.350 C 218.931 179.689 219.709 179.124 220.500 178.600 C 221.096 178.205 221.764 177.926 222.400 177.600 C 223.063 177.260 223.682 176.797 224.400 176.600 C 225.043 176.423 226.070 175.972 226.400 176.500 C 226.820 177.172 226.216 178.212 225.900 179 C 225.326 180.431 223.440 182.915 223.750 183.100 C 224.060 183.285 226.327 180.964 227.750 180.100 C 228.593 179.588 229.584 179.366 230.500 179 C 231.249 178.700 231.946 178.030 232.750 178.100 C 233.463 178.162 234.458 178.635 234.500 179.350 C 234.596 180.996 232.854 183.923 233.100 184.100 C 233.346 184.277 235.026 181.632 236.100 180.500 C 236.582 179.993 237.186 179.614 237.750 179.200 C 238.319 178.781 238.799 177.911 239.500 178 C 240.202 178.089 240.722 178.915 240.900 179.600 C 241.091 180.337 240.065 181.741 240.500 181.850 C 241.065 181.991 242.076 180.647 242.900 180.100 C 243.659 179.597 244.341 178.637 245.250 178.700 C 245.938 178.748 246.361 179.675 246.500 180.350 C 246.638 181.022 245.700 182.420 246 182.350 C 246.337 182.271 247.264 180.717 248 180 C 248.520 179.494 249.104 179.031 249.750 178.700 C 250.420 178.356 251.224 177.668 251.900 178 C 252.562 178.325 251.974 179.984 252.600 180.100 C 253.324 180.234 253.903 178.991 254.600 178.500 C 255.204 178.074 255.791 177.559 256.500 177.350 C 257.139 177.162 257.946 176.981 258.500 177.350 C 259.120 177.763 258.853 178.982 259.500 179.350 C 260.153 179.721 261.063 179.502 261.750 179.200 C 262.397 178.916 262.658 178.085 263.250 177.700 C 264.013 177.204 264.845 176.509 265.750 176.600 C 266.453 176.670 266.949 177.461 267.250 178.100 C 267.535 178.704 266.975 179.954 267.400 180.100 C 267.850 180.254 268.467 178.548 269 178.700 C 269.517 178.848 269.814 180.090 269.500 180.700 C 269.096 181.485 268.071 181.775 267.250 182.100 C 264.856 183.048 262.359 183.737 259.900 184.500 C 259.244 184.703 258.578 184.895 257.900 185 C 256.742 185.179 255.567 185.253 254.400 185.350 C 253.569 185.419 252.671 185.817 251.900 185.500 C 251.281 185.245 250.640 184.511 250.750 183.850 C 250.867 183.150 252.416 182.510 252.400 182.500 C 252.385 182.491 251.229 183.531 250.500 183.700 C 248.873 184.077 247.168 184.012 245.500 184.100 C 244.635 184.146 243.354 184.837 242.900 184.100 C 242.218 182.992 243.685 181.256 243.100 180.200 C 242.785 179.631 241.776 180.669 241.100 180.850 C 239.411 181.302 237.736 181.890 236 182.100 C 234.545 182.276 233.059 182.135 231.600 182 C 230.884 181.934 230.145 181.818 229.500 181.500 C 228.831 181.170 228.393 180.479 227.750 180.100 C 227.081 179.706 226.367 179.321 225.600 179.200 C 224.743 179.065 223.850 179.180 223 179.350 C 222.169 179.516 221.402 179.926 220.600 180.200 C 219.937 180.426 219.281 180.688 218.600 180.850 C 217.878 181.022 217.128 181.058 216.400 181.200 C 215.679 181.341 214.966 181.867 214.250 181.700 C 213.596 181.548 213.361 180.631 212.750 180.350 C 212.565 180.265 212.400 180.850 212.400 180.850 " transform="matrix(1, 0, 0, 1, -207, -173)"/>
</svg>