<svg version="1.1" width="506" height="318" viewBox="-1 -1 506 318" xmlns="http://www.w3.org/2000/svg" xmlns:xlink="http://www.w3.org/1999/xlink">
  <defs>
    <linearGradient id="grad_1" y2="1">
      <stop offset="0" stop-color="#00FFFF" stop-opacity="1"/>
      <stop offset="1" stop-color="#FF0000" stop-opacity="1"/>
    </linearGradient>
    <linearGradient id="grad_2" y2="1">
      <stop offset="0" stop-color="#00FFFF" stop-opacity="1"/>
      <stop offset="1" stop-color="#FF0000" stop-opacity="1"/>
    </linearGradient>
    <linearGradient id="grad_3" y2="1">
      <stop offset="0" stop-color="#995900" stop-opacity="1"/>
      <stop offset="1" stop-color="#663B00" stop-opacity="1"/>
    </linearGradient>
    <linearGradient id="grad_4" y2="1">
      <stop offset="0" stop-color="#995900" stop-opacity="1"/>
      <stop offset="1" stop-color="#663B00" stop-opacity="1"/>
    </linearGradient>
    <linearGradient id="grad_5" y2="1">
      <stop offset="0" stop-color="#663B00" stop-opacity="1"/>
      <stop offset="1" stop-color="#000000" stop-opacity="1"/>
    </linearGradient>
    <linearGradient id="grad_6" y2="1">
      <stop offset="0" stop-color="#995900" stop-opacity="1"/>
      <stop offset="1" stop-color="#663B00" stop-opacity="1"/>
    </linearGradient>
    <linearGradient id="grad_7" y2="1">
      <stop offset="0" stop-color="#995900" stop-opacity="1"/>
      <stop offset="1" stop-color="#663B00" stop-opacity="1"/>
    </linearGradient>
  </defs>
  <!-- Exported by Scratch - http://scratch.mit.edu/ -->
  <path id="ID0.22965509304776788" fill="#663B00" stroke="url(#grad_1)" stroke-width="2" d="M 229.350 172.400 L 255.250 172.400 L 255.250 189.400 L 229.350 189.400 L 229.350 172.400 Z " transform="matrix(3.9905264377593994, 0, 0, 2.8779077529907227, -910.35, -492.75)"/>
  <path id="ID0.9680157378315926" fill="#000000" stroke="url(#grad_2)" stroke-width="3" d="M 213.050 193.050 L 266.400 193.050 L 266.400 217.500 L 213.050 217.500 L 213.050 193.050 Z " transform="matrix(1.971341848373413, 0, 0, 1.256237268447876, -416.55, -198.9)"/>
  <text id="ID0.8694763821549714" fill="#FFFFFF" x="198.5" y="211.75" text-anchor="start" font-family="Helvetica" font-size="22" transform="matrix(0.49092045426368713, 0, 0, 0.49092045426368713, 10.4, 51.55)">Edgar's Mansion</text>
  <g id="ID0.5167323332279921" transform="matrix(0.13483430445194244, 0, 0, 0.07774656265974045, 21.3, 16.75)">
    <path id="ID0.5524535686708987" fill="url(#grad_3)" stroke="none" d="M 404 69 L 480 69 L 480 91 L 404 91 L 404 69 Z " transform="matrix(0.3552631437778473, 0, 0, 11.318181991577148, 332.45, -755.95)"/>
    <path id="ID0.04391190968453884" fill="url(#grad_4)" stroke="none" stroke-linecap="round" d="M 0 181 L 76 183 L 140 279 L 188 279 L 206 330 L 0 331 L 0 181 Z " transform="matrix(1, 0, 0, 1, 18, -68)"/>
    <path id="ID0.3444104236550629" fill="url(#grad_5)" stroke="none" d="M 2 302 L 480 302 L 480 360 L 2 360 L 2 302 Z " transform="matrix(1.052301287651062, 0, 0, 1, -2.1, -44)"/>
    <path id="ID0.4273685389198363" fill="url(#grad_6)" stroke="none" d="M 196 171 L 407 171 L 407 181 L 196 181 L 196 171 Z " transform="matrix(0.6394777297973633, -0.28548112511634827, 0.6280584931373596, 1.406851053237915, -20.9, -67)"/>
    <path id="ID0.4273685389198363" fill="url(#grad_7)" stroke="none" d="M 196 171 L 407 171 L 407 181 L 196 181 L 196 171 Z " transform="matrix(0.6681714057922363, 0.20970983803272247, -0.46136167645454407, 1.4699771404266357, -29.35, -292.4)"/>
    <path id="ID0.7612164141610265" fill="none" stroke="#CC7700" stroke-width="2" d="M 15 175 L 61 175 L 61 215 L 15 215 L 15 175 Z " transform="matrix(1, 0, 0, 1, 23, -44)"/>
    <path id="ID0.4145322251133621" fill="none" stroke="#CC7700" stroke-width="2" d="M 42 197 L 85 197 L 85 234 L 42 234 L 42 197 Z " transform="matrix(1, 0, 0, 1, 23, -44)"/>
    <path id="ID0.29739949805662036" fill="none" stroke="#CC7700" stroke-width="2" d="M 13 246 L 119 246 L 119 287 L 13 287 L 13 246 Z " transform="matrix(1, 0, 0, 1, 23, -44)"/>
    <path id="ID0.5375616392120719" fill="none" stroke="#CC7700" stroke-width="2" d="M 193 206 L 196 206 L 196 211 L 193 211 L 193 206 Z " transform="matrix(1, 0, 0, 1, -34, 17)"/>
    <path id="ID0.8820431232452393" fill="none" stroke="#CC7700" stroke-width="2" d="M 104 281 L 185 281 L 185 304 L 104 304 L 104 281 Z " transform="matrix(1, 0, 0, 1, 23, -44)"/>
    <path id="ID0.3123782491311431" fill="none" stroke="#CC7700" stroke-width="2" d="M 17 303 L 73 303 L 73 316 L 17 316 L 17 303 Z " transform="matrix(1, 0, 0, 1, 23, -44)"/>
    <path id="ID0.13284202152863145" fill="none" stroke="#CC7700" stroke-width="2" d="M 458 80 L 480 80 L 480 124 L 458 124 L 458 80 Z " transform="matrix(1, 0, 0, 1, 23, -44)"/>
    <path id="ID0.4944366575218737" fill="none" stroke="#CC7700" stroke-width="2" d="M 458 138 L 479 138 L 479 151 L 458 151 L 458 138 Z " transform="matrix(1, 0, 0, 1, 23, -44)"/>
    <path id="ID0.3987020356580615" fill="none" stroke="#CC7700" stroke-width="2" d="M 466 164 L 479 164 L 479 169 L 466 169 L 466 164 Z " transform="matrix(1, 0, 0, 1, 23, -44)"/>
    <path id="ID0.8130355309695005" fill="none" stroke="#CC7700" stroke-width="2" d="M 460 195 L 480 195 L 480 265 L 460 265 L 460 195 Z " transform="matrix(1, 0, 0, 1, 23, -44)"/>
    <path id="ID0.31438036542385817" fill="none" stroke="#CC7700" stroke-width="2" d="M 95 312 L 207 312 L 207 348 L 95 348 L 95 312 Z " transform="matrix(1, 0, 0, 1, 23, -44)"/>
    <path id="ID0.039174098521471024" fill="none" stroke="#CC7700" stroke-width="2" d="M 278 321 L 386 321 L 386 343 L 278 343 L 278 321 Z " transform="matrix(1, 0, 0, 1, 23, -44)"/>
    <path id="ID0.21257181651890278" fill="none" stroke="#CC7700" stroke-width="2" d="M 232 320 L 284 320 L 284 359 L 232 359 L 232 320 Z " transform="matrix(1, 0, 0, 1, 23, -44)"/>
    <path id="ID0.11242802022024989" fill="none" stroke="#CC7700" stroke-width="2" d="M 416 310 L 480 310 L 480 350 L 416 350 L 416 310 Z " transform="matrix(1, 0, 0, 1, 23, -44)"/>
    <path id="ID0.9779677274636924" fill="none" stroke="#CC7700" stroke-width="2" d="M 36 336 L 86 336 L 86 360 L 36 360 L 36 336 Z " transform="matrix(1, 0, 0, 1, 23, -44)"/>
  </g>
</svg>