<svg version="1.1" width="484" height="130" viewBox="-1 -1 484 130" xmlns="http://www.w3.org/2000/svg" xmlns:xlink="http://www.w3.org/1999/xlink">
  <defs>
    <linearGradient id="grad_1" y2="1">
      <stop offset="0" stop-color="#00FFFF" stop-opacity="1"/>
      <stop offset="1" stop-color="#FF0000" stop-opacity="1"/>
    </linearGradient>
    <linearGradient id="grad_2" y2="1">
      <stop offset="0" stop-color="#00FFFF" stop-opacity="1"/>
      <stop offset="1" stop-color="#FF0000" stop-opacity="1"/>
    </linearGradient>
  </defs>
  <!-- Exported by Scratch - http://scratch.mit.edu/ -->
  <path id="ID0.22965509304776788" fill="#5D36D4" stroke="url(#grad_1)" stroke-width="2" d="M 229.350 172.400 L 255.250 172.400 L 255.250 189.400 L 229.350 189.400 L 229.350 172.400 Z " transform="matrix(3.9905264377593994, 0, 0, 2.8779077529907227, -910.6, -492.75)"/>
  <path id="ID0.9680157378315926" fill="#000000" stroke="url(#grad_2)" stroke-width="3" d="M 213.050 193.050 L 266.400 193.050 L 266.400 217.500 L 213.050 217.500 L 213.050 193.050 Z " transform="matrix(1.971341848373413, 0, 0, 1.256237268447876, -416.55, -198.9)"/>
  <text id="ID0.8694763821549714" fill="#FFFFFF" x="198.5" y="211.75" text-anchor="start" font-family="Helvetica" font-size="22" transform="matrix(0.44671374559402466, 0, 0, 0.44671374559402466, 18.4, 50.05)">Bob's Bedroom</text>
  <g id="ID0.7664838004857302" transform="matrix(0.20312078297138214, 0, 0, 0.18021787703037262, 7, 17.25)">
    <path id="ID0.6372868926264346" fill="#AC7D41" stroke="#906936" stroke-width="5" stroke-linecap="round" d="M 380 243.700 L 393.350 243.700 L 393.350 329.600 L 380 329.600 L 380 243.700 Z " transform="matrix(1, 0, 0, 0.8795110583305359, 0, -191.5)"/>
    <path id="ID0.9288982353173196" fill="#AC7D41" stroke="#906936" stroke-width="5" stroke-linecap="round" d="M 371.100 234.050 L 480 234.050 L 480 254.800 L 371.100 254.800 L 371.100 234.050 Z " transform="matrix(1, 0, 0, 1, 0, -231)"/>
    <path id="ID0.13688632007688284" fill="#995900" stroke="none" d="M 0 325.900 L 480 325.900 L 480 360 L 0 360 L 0 325.900 Z " transform="matrix(1, 0, 0, 1, 0, -231)"/>
    <path id="ID0.2501529506407678" fill="#906936" stroke="none" d="M 391.100 287.400 L 480 287.400 L 480 305.150 L 391.100 305.150 L 391.100 287.400 Z " transform="matrix(1, 0, 0, 1, 0, -231)"/>
    <g id="ID0.35586080932989717">
      <path id="ID0.7896964466199279" fill="#9D723B" stroke="#8B6535" stroke-width="6" stroke-linecap="round" d="M 142.200 131.850 L 251.100 131.850 L 251.100 150.350 L 142.200 150.350 L 142.200 131.850 Z " transform="matrix(0.0026063283439725637, -0.6460798382759094, 0.6460798382759094, 0.0026063283439725637, 196.95, 187.25)"/>
      <path id="ID0.7841230086050928" fill="#906936" stroke="none" d="M 138.500 150.350 L 153.350 150.350 L 153.350 218.500 L 138.500 218.500 L 138.500 150.350 Z " transform="matrix(0.0026063283439725637, -0.6460798382759094, 0.6460798382759094, 0.0026063283439725637, 197.8, 187.25)"/>
      <path id="ID0.7841230086050928" fill="#906936" stroke="none" d="M 138.500 150.350 L 153.350 150.350 L 153.350 218.500 L 138.500 218.500 L 138.500 150.350 Z " transform="matrix(0.0026063283439725637, -0.6460798382759094, 0.6460798382759094, 0.0026063283439725637, 199.05, 122.3)"/>
      <path id="ID0.926279372535646" fill="#906936" stroke="none" d="M 148.900 178.500 L 242.950 178.500 L 242.950 191.850 L 148.900 191.850 L 148.900 178.500 Z " transform="matrix(0.0026063283439725637, -0.6460798382759094, 0.6460798382759094, 0.0026063283439725637, 196.95, 187.25)"/>
      <path id="ID0.19318073382601142" fill="#906936" stroke="none" d="M 135.550 51.850 L 155.550 51.850 L 155.550 129.600 L 135.550 129.600 L 135.550 51.850 Z " transform="matrix(0.0026063283439725637, -0.6460798382759094, 0.6460798382759094, 0.0026063283439725637, 196.95, 185.3)"/>
      <path id="ID0.12988204089924693" fill="#AC7D41" stroke="#906936" stroke-width="6" stroke-linecap="round" d="M 133.350 34.050 L 162.950 34.050 L 162.950 58.500 L 133.350 58.500 L 133.350 34.050 Z " transform="matrix(0.0026063283439725637, -0.6460798382759094, 0.6460798382759094, 0.0026063283439725637, 196.95, 187.25)"/>
    </g>
    <path id="ID0.6518860589712858" fill="#604624" stroke="none" d="M 97.800 231.850 L 117.800 231.850 L 117.800 327.400 L 97.800 327.400 L 97.800 231.850 Z " transform="matrix(1, 0, 0, 1, 0, -231)"/>
    <path id="ID0.7988489191047847" fill="#604624" stroke="none" d="M 0 305.900 L 91.850 305.900 L 91.850 319.250 L 0 319.250 L 0 305.900 Z " transform="matrix(1.06477952003479, 0, 0, 1, 0, -231)"/>
  </g>
</svg>