<svg version="1.1" width="64" height="76" viewBox="0 -1 64 76" xmlns="http://www.w3.org/2000/svg" xmlns:xlink="http://www.w3.org/1999/xlink">
  <defs>
    <radialGradient id="grad_1" cx="0.5457" cy="0.4266" r="0.74542">
      <stop offset="0" stop-color="#FF9400" stop-opacity="1"/>
      <stop offset="1" stop-color="#FF9400" stop-opacity="0"/>
    </radialGradient>
  </defs>
  <!-- Exported by Scratch - http://scratch.mit.edu/ -->
  <path id="ID0.6785501558333635" fill="#003FFF" stroke="#0033CC" stroke-width="2" d="M 201.600 245.800 C 209.309 245.869 219.929 246.926 223.600 253.800 C 232.205 269.938 233.187 289.303 234.600 307.500 C 235.732 322.089 239.073 338.929 231.600 351.500 C 225.956 360.392 211.998 361.463 201.600 361.500 C 192.327 361.526 180.336 359.646 175.600 351.500 C 167.727 337.950 168.913 320.560 169.600 304.800 C 170.350 287.347 171.836 268.799 180.600 253.500 C 184.213 247.019 194.151 245.734 201.600 245.800 Z " transform="matrix(0.3339608907699585, 0, 0, 0.29125815629959106, -43, -37.3)"/>
  <path id="ID0.8365832129493356" fill="none" stroke="#666666" stroke-width="2" stroke-linecap="round" d="M 177.350 190 " transform="matrix(1, 0, 0, 1, -232, -163)"/>
  <path id="ID0.28877942729741335" fill="#663B00" stroke="#412500" stroke-width="2" d="M 298.025 324 C 304.460 324 310.138 324.604 314.514 328.198 C 318.827 331.741 321.611 337.901 321.500 343.500 C 321.426 347.192 317.871 350.560 314.500 352 C 309.420 354.167 303.524 353.802 298 353.850 C 292.456 353.635 286.561 353.742 281.500 351.500 C 278.326 350.095 274.995 346.802 275 343.350 C 275.008 337.855 277.268 331.864 281.536 328.198 C 285.835 324.508 291.590 324 298.025 324 Z " transform="matrix(0.3339608907699585, 0, 0, 0.3339608907699585, -65.6, -43.8)"/>
  <g id="ID0.5338938259519637">
    <path id="ID0.09260875266045332" fill="#003FFF" stroke="#0033CC" stroke-width="2" d="M 264.850 259.700 C 267.723 256.250 276.326 257.195 278.250 261.250 C 282.171 269.530 279.293 279.671 278.100 288.750 C 277.015 296.968 276.524 306.848 270.450 312.550 C 267.023 315.791 258.522 312.915 256.550 308.500 C 253.315 301.226 256.692 292.561 258 284.600 C 259.396 276.115 259.340 266.337 264.850 259.700 Z " transform="matrix(0.27102723717689514, 0.19512586295604706, -0.19512586295604706, 0.27102723717689514, 23.05, -93.35)"/>
    <path id="ID0.8909183316864073" fill="#FDE1C6" stroke="#E2C9B1" stroke-width="2" d="M 265 298 C 268.587 298 271.837 299.345 274.190 301.517 C 276.543 303.689 278 306.689 278 310 C 278 313.311 276.543 316.311 274.190 318.483 C 271.837 320.655 268.587 322 265 322 C 261.413 322 258.163 320.655 255.810 318.483 C 253.457 316.311 252 313.311 252 310 C 252 306.689 253.457 303.689 255.810 301.517 C 258.163 299.345 261.413 298 265 298 Z " transform="matrix(0.33395135402679443, 0.002519025932997465, -0.002519025932997465, 0.33395135402679443, -41.25, -74.25)"/>
  </g>
  <g id="ID0.5338938259519637">
    <path id="ID0.09260875266045332" fill="#003FFF" stroke="#0033CC" stroke-width="2" d="M 264.850 259.700 C 267.723 256.250 276.326 257.195 278.250 261.250 C 282.171 269.530 279.293 279.671 278.100 288.750 C 277.015 296.968 276.524 306.848 270.450 312.550 C 267.023 315.791 258.522 312.915 256.550 308.500 C 253.315 301.226 256.692 292.561 258 284.600 C 259.396 276.115 259.340 266.337 264.850 259.700 Z " transform="matrix(0.26406022906303406, 0.20445553958415985, 0.20445553958415985, -0.26406022906303406, -118.4, 72.15)"/>
    <path id="ID0.8909183316864073" fill="#FDE1C6" stroke="#E2C9B1" stroke-width="2" d="M 265 298 C 268.587 298 271.837 299.345 274.190 301.517 C 276.543 303.689 278 306.689 278 310 C 278 313.311 276.543 316.311 274.190 318.483 C 271.837 320.655 268.587 322 265 322 C 261.413 322 258.163 320.655 255.810 318.483 C 253.457 316.311 252 313.311 252 310 C 252 306.689 253.457 303.689 255.810 301.517 C 258.163 299.345 261.413 298 265 298 Z " transform="matrix(0.09725290536880493, 0.31948667764663696, 0.31948667764663696, -0.09725290536880493, -118.35, 4.9)"/>
  </g>
  <path id="ID0.5196907157078385" fill="none" stroke="#000000" stroke-width="2" stroke-linecap="round" d="M 240 147.300 L 233.350 84 " transform="matrix(-0.4714714586734772, -0.1435563713312149, -0.08534136414527893, 0.2802802324295044, 147.2, 13.05)"/>
  <path id="ID0.5196907157078385" fill="none" stroke="#000000" stroke-width="2" stroke-linecap="round" d="M 240 147.300 L 233.350 84 " transform="matrix(0.4714714586734772, -0.1435563713312149, 0.08534136414527893, 0.2802802324295044, -100.05, 13.05)"/>
  <path id="ID0.5196907157078385" fill="none" stroke="#000000" stroke-width="2" stroke-linecap="round" d="M 240 147.300 L 231.400 74.100 " transform="matrix(0.48429909348487854, 0.09136777371168137, -0.05431629717350006, 0.28790605068206787, -84.55, -41.7)"/>
  <path id="ID0.7701462963595986" fill="#FDE1C6" stroke="#E2C9B1" stroke-width="2" d="M 224.675 185.300 C 238.835 185.300 251.666 191.054 260.958 200.350 C 270.249 209.645 276 222.483 276 236.650 C 276 250.817 270.249 263.655 260.958 272.950 C 251.666 282.246 238.835 288 224.675 288 C 210.515 288 197.684 282.246 188.392 272.950 C 179.101 263.655 173.350 250.817 173.350 236.650 C 173.350 222.483 179.101 209.645 188.392 200.350 C 197.684 191.054 210.515 185.300 224.675 185.300 Z " transform="matrix(0.3042825758457184, 0, 0, 0.3042825758457184, -44.55, -42.2)"/>
  <path id="ID0.5253645898774266" fill="#FDE1C6" stroke="#E2C9B1" stroke-width="2" d="M 154.025 236 C 160.460 236 166.291 238.465 170.514 242.448 C 174.736 246.430 177.350 251.930 177.350 258 C 177.350 264.070 174.736 269.570 170.514 273.552 C 166.291 277.535 160.460 280 154.025 280 C 147.590 280 141.759 277.535 137.536 273.552 C 133.314 269.570 130.700 264.070 130.700 258 C 130.700 251.930 133.314 246.430 137.536 242.448 C 141.759 238.465 147.590 236 154.025 236 Z " transform="matrix(0.3042825758457184, 0, 0, 0.3042825758457184, -14.3, -47.3)"/>
  <path id="ID0.28877942729741335" fill="#663B00" stroke="#412500" stroke-width="2" d="M 298.025 324 C 304.460 324 310.138 324.604 314.514 328.198 C 318.827 331.741 321.611 337.901 321.500 343.500 C 321.426 347.192 317.871 350.560 314.500 352 C 309.420 354.167 303.524 353.802 298 353.850 C 292.456 353.635 286.561 353.742 281.500 351.500 C 278.326 350.095 274.995 346.802 275 343.350 C 275.008 337.855 277.268 331.864 281.536 328.198 C 285.835 324.508 291.590 324 298.025 324 Z " transform="matrix(-0.3339608907699585, 0, 0, 0.3339608907699585, 115.1, -43.8)"/>
  <path id="ID0.9286390310153365" fill="url(#grad_1)" stroke="none" d="M 274.575 141.100 C 276.761 141.100 278.743 141.940 280.177 143.298 C 281.612 144.656 282.500 146.531 282.500 148.600 C 282.500 150.669 281.612 152.544 280.177 153.902 C 278.743 155.260 276.761 156.100 274.575 156.100 C 272.389 156.100 270.407 155.260 268.973 153.902 C 267.538 152.544 266.650 150.669 266.650 148.600 C 266.650 146.531 267.538 144.656 268.973 143.298 C 270.407 141.940 272.389 141.100 274.575 141.100 Z " transform="matrix(1, 0, 0, 1, -221.75, -125.6)"/>
  <path id="ID0.9235331886447966" fill="none" stroke="#FFFF00" stroke-width="2" stroke-linecap="round" d="M 274.150 137.200 C 274.150 137.200 276.636 137.525 277.750 138.050 C 278.464 138.387 279.282 138.929 279.450 139.700 C 279.621 140.483 278.246 141.231 278.600 141.950 C 279.002 142.766 280.357 142.526 281.100 143.050 C 281.689 143.465 282.500 143.979 282.500 144.700 C 282.500 145.359 281.100 146.100 281.100 146.100 " transform="matrix(1, 0, 0, 1, -219, -124.05)"/>
  <path id="ID0.3335129711776972" fill="none" stroke="#FFFF00" stroke-width="2" stroke-linecap="round" d="M 264.450 137.500 C 264.450 137.500 263.404 138.706 263.350 139.450 C 263.294 140.228 264.329 140.891 264.150 141.650 C 263.984 142.351 262.854 142.422 262.500 143.050 C 262.373 143.276 263.050 143.600 263.050 143.600 " transform="matrix(1, 0, 0, 1, -219, -124.05)"/>
  <path id="ID0.3229093523696065" fill="none" stroke="#FFFF00" stroke-width="2" stroke-linecap="round" d="M 281.100 151.400 C 281.100 151.400 280.427 153.423 279.700 154.150 C 279.145 154.705 278.275 154.871 277.500 155 C 277.125 155.062 276.400 154.700 276.400 154.700 " transform="matrix(1, 0, 0, 1, -219, -124.05)"/>
  <path id="ID0.6258046296425164" fill="none" stroke="#FFFF00" stroke-width="2" stroke-linecap="round" d="M 263.350 150.250 C 263.350 150.250 263.714 152.370 264.450 153.050 C 264.991 153.550 266.001 152.949 266.650 153.300 C 267.130 153.560 267.500 154.700 267.500 154.700 " transform="matrix(1, 0, 0, 1, -219, -124.05)"/>
</svg>