<svg version="1.1" width="24" height="24" viewBox="-1 -1 24 24" xmlns="http://www.w3.org/2000/svg" xmlns:xlink="http://www.w3.org/1999/xlink">
  <defs>
    <radialGradient id="grad_1" cx="0.5" cy="0.46659999999999996" r="0.69342">
      <stop offset="0" stop-color="#FF0000" stop-opacity="1"/>
      <stop offset="1" stop-color="#FF0000" stop-opacity="0"/>
    </radialGradient>
  </defs>
  <!-- Exported by Scratch - http://scratch.mit.edu/ -->
  <path id="ID0.41836361587047577" fill="url(#grad_1)" stroke="none" d="M 240 168.500 C 243.035 168.500 245.785 169.761 247.776 171.797 C 249.767 173.834 251 176.646 251 179.750 C 251 182.854 249.767 185.666 247.776 187.703 C 245.785 189.739 243.035 191 240 191 C 236.965 191 234.215 189.739 232.224 187.703 C 230.233 185.666 229 182.854 229 179.750 C 229 176.646 230.233 173.834 232.224 171.797 C 234.215 169.761 236.965 168.500 240 168.500 Z " transform="matrix(1, 0, 0, 1, -229, -168)"/>
  <path id="ID0.3582058195024729" fill="#FFFFFF" stroke="none" d="M 241.500 174 C 243.914 174 246.102 174.910 247.686 176.381 C 249.270 177.852 250.250 179.883 250.250 182.125 C 250.250 184.367 249.270 186.398 247.686 187.869 C 246.102 189.340 243.914 190.250 241.500 190.250 C 239.086 190.250 236.898 189.340 235.314 187.869 C 233.730 186.398 232.750 184.367 232.750 182.125 C 232.750 179.883 233.730 177.852 235.314 176.381 C 236.898 174.910 239.086 174 241.500 174 Z " transform="matrix(0.9642857313156128, 0, 0, 0.9642857313156128, -221.7, -163.75)"/>
</svg>