<svg version="1.1" width="126" height="20" viewBox="-1 -1 126 20" xmlns="http://www.w3.org/2000/svg" xmlns:xlink="http://www.w3.org/1999/xlink">
  <defs>
    <radialGradient id="grad_1" cx="0.514" cy="0.4864" r="0.6681999999999999">
      <stop offset="0" stop-color="#FF0000" stop-opacity="1"/>
      <stop offset="1" stop-color="#FF0000" stop-opacity="0"/>
    </radialGradient>
    <radialGradient id="grad_2" cx="0.4672" cy="0.5357" r="0.6964100000000001">
      <stop offset="0" stop-color="#FFFF00" stop-opacity="1"/>
      <stop offset="1" stop-color="#FFFF00" stop-opacity="0"/>
    </radialGradient>
  </defs>
  <!-- Exported by Scratch - http://scratch.mit.edu/ -->
  <path id="ID0.5728194154798985" fill="url(#grad_1)" stroke="none" d="M 242.750 172 C 259.924 172 275.487 173.036 286.756 174.711 C 298.025 176.385 305 178.698 305 181.250 C 305 183.802 298.025 186.115 286.756 187.789 C 275.487 189.464 259.924 190.500 242.750 190.500 C 225.576 190.500 210.013 189.464 198.744 187.789 C 187.475 186.115 180.500 183.802 180.500 181.250 C 180.500 178.698 187.475 176.385 198.744 174.711 C 210.013 173.036 225.576 172 242.750 172 Z " transform="matrix(1, 0, 0, 1, -180, -172)"/>
  <path id="ID0.3582058195024729" fill="#FFFFFF" stroke="none" d="M 241.500 174 C 243.914 174 246.102 174.910 247.686 176.381 C 249.270 177.852 250.250 179.883 250.250 182.125 C 250.250 184.367 249.270 186.398 247.686 187.869 C 246.102 189.340 243.914 190.250 241.500 190.250 C 239.086 190.250 236.898 189.340 235.314 187.869 C 233.730 186.398 232.750 184.367 232.750 182.125 C 232.750 179.883 233.730 177.852 235.314 176.381 C 236.898 174.910 239.086 174 241.500 174 Z " transform="matrix(1.8026705980300903, 0, 0, 0.48429593443870544, -373.75, -80.3)"/>
  <path id="ID0.4491854873485863" fill="#FFFFFF" stroke="#FFFFFF" stroke-width="2" stroke-linecap="round" d="M 249 181.750 L 248.750 176 L 291.500 180.500 L 249.250 182 Z " transform="matrix(1, 0, 0, 0.568345308303833, -179, -94.25)"/>
  <path id="ID0.4491854873485863" fill="#FFFFFF" stroke="#FFFFFF" stroke-width="2" stroke-linecap="round" d="M 249 181.750 L 248.750 176 L 291.500 180.500 L 249.250 182 Z " transform="matrix(-1, 0, 0, 0.568345308303833, 301.75, -93.95)"/>
  <path id="ID0.146311164367944" fill="url(#grad_2)" stroke="none" d="M 243 174 C 251.415 174 259.040 174.784 264.561 176.052 C 270.082 177.319 273.500 179.069 273.500 181 C 273.500 182.931 270.082 184.681 264.561 185.948 C 259.040 187.216 251.415 188 243 188 C 234.585 188 226.960 187.216 221.439 185.948 C 215.918 184.681 212.500 182.931 212.500 181 C 212.500 179.069 215.918 177.319 221.439 176.052 C 226.960 174.784 234.585 174 243 174 Z " transform="matrix(1, 0, 0, 1, -180, -172)"/>
</svg>