<svg version="1.1" width="145" height="111" viewBox="-1 -1 145 111" xmlns="http://www.w3.org/2000/svg" xmlns:xlink="http://www.w3.org/1999/xlink">
  <defs>
    <linearGradient id="grad_1" y2="1">
      <stop offset="0" stop-color="#00FFFF" stop-opacity="1"/>
      <stop offset="1" stop-color="#FF0000" stop-opacity="1"/>
    </linearGradient>
    <linearGradient id="grad_2" y2="1">
      <stop offset="0" stop-color="#00FFFF" stop-opacity="1"/>
      <stop offset="1" stop-color="#FF0000" stop-opacity="1"/>
    </linearGradient>
  </defs>
  <!-- Exported by Scratch - http://scratch.mit.edu/ -->
  <path id="ID0.22965509304776788" fill="#00FFFF" stroke="url(#grad_1)" stroke-width="2" d="M 229.350 172.400 L 255.250 172.400 L 255.250 189.400 L 229.350 189.400 L 229.350 172.400 Z " transform="matrix(3.9905264377593994, 0, 0, 2.8779077529907227, -910.6, -492.75)"/>
  <path id="ID0.9680157378315926" fill="#000000" stroke="url(#grad_2)" stroke-width="3" d="M 213.050 193.050 L 266.400 193.050 L 266.400 217.500 L 213.050 217.500 L 213.050 193.050 Z " transform="matrix(1.971341848373413, 0, 0, 1.256237268447876, -416.55, -198.9)"/>
  <text id="ID0.8694763821549714" fill="#FFFFFF" x="198.5" y="211.75" text-anchor="start" font-family="Helvetica" font-size="22" transform="matrix(0.7098939418792725, 0, 0, 0.7098939418792725, 10.55, 48.05)">SpudVerse</text>
  <g id="ID0.7704593222588301">
    <path id="ID0.6420053881593049" fill="#7F7F7F" stroke="#666666" stroke-width="5" stroke-linecap="round" d="M 0 321 L 480 321 L 480 341 L 0 341 L 0 321 Z " transform="matrix(0.20454545319080353, 0, 0, 0.034620508551597595, 7, 21.4)"/>
    <path id="ID0.9703943287022412" fill="#006622" stroke="none" d="M 0 345 L 480 345 L 480 360 L 0 360 L 0 345 Z " transform="matrix(0.20454545319080353, 0, 0, 0.2544289529323578, 6.6, -49.95)"/>
    <path id="ID0.6420053881593049" fill="#7F7F7F" stroke="#666666" stroke-width="5" stroke-linecap="round" d="M 0 321 L 480 321 L 480 341 L 0 341 L 0 321 Z " transform="matrix(0.20454545319080353, 0, 0, 0.12267109751701355, 6.6, -2.75)"/>
    <path id="ID0.10902618849650025" fill="#000000" stroke="none" d="M 0 299 L 480 299 L 480 324 L 0 324 L 0 299 Z " transform="matrix(0.20454545319080353, 0, 0, 0.1363012194633484, 6.6, -7.4)"/>
    <path id="ID0.3529828772880137" fill="#FFFF00" stroke="none" d="M 0 301 L 69 301 L 69 305 L 0 305 L 0 301 Z " transform="matrix(0.20454545319080353, 0, 0, 0.1363012194633484, 6.6, -7.4)"/>
    <path id="ID0.3529828772880137" fill="#FFFF00" stroke="none" d="M 0 301 L 69 301 L 69 305 L 0 305 L 0 301 Z " transform="matrix(0.20454545319080353, 0, 0, 0.1363012194633484, 27.35, -7.4)"/>
    <path id="ID0.3529828772880137" fill="#FFFF00" stroke="none" d="M 0 301 L 69 301 L 69 305 L 0 305 L 0 301 Z " transform="matrix(0.20454545319080353, 0, 0, 0.1363012194633484, 49.65, -7.4)"/>
    <path id="ID0.3529828772880137" fill="#FFFF00" stroke="none" d="M 0 301 L 69 301 L 69 305 L 0 305 L 0 301 Z " transform="matrix(0.20454545319080353, 0, 0, 0.1363012194633484, 71.55, -7.4)"/>
    <path id="ID0.3529828772880137" fill="#FFFF00" stroke="none" d="M 0 301 L 69 301 L 69 305 L 0 305 L 0 301 Z " transform="matrix(0.20454545319080353, 0, 0, 0.1363012194633484, 95.45, -7.55)"/>
    <path id="ID0.2967764255590737" fill="#660000" stroke="none" d="M 23 98 L 186 98 L 186 293 L 23 293 L 23 98 Z " transform="matrix(0.20454545319080353, 0, 0, 0.1363012194633484, 1.7, -7.7)"/>
    <path id="ID0.3531597387045622" fill="#990000" stroke="none" d="M 34 238 L 75 238 L 75 258 L 34 258 L 34 238 Z " transform="matrix(0.20454545319080353, 0, 0, 0.1363012194633484, 6.6, -7.4)"/>
    <path id="ID0.3531597387045622" fill="#990000" stroke="none" d="M 34 238 L 75 238 L 75 258 L 34 258 L 34 238 Z " transform="matrix(0.20454545319080353, 0, 0, 0.1363012194633484, 14.95, -9.3)"/>
    <path id="ID0.3531597387045622" fill="#990000" stroke="none" d="M 34 238 L 75 238 L 75 258 L 34 258 L 34 238 Z " transform="matrix(0.20454545319080353, 0, 0, 0.1363012194633484, 12.3, -10.95)"/>
    <path id="ID0.3531597387045622" fill="#990000" stroke="none" d="M 34 238 L 75 238 L 75 258 L 34 258 L 34 238 Z " transform="matrix(0.20454545319080353, 0, 0, 0.1363012194633484, 18.55, -5.35)"/>
    <path id="ID0.3531597387045622" fill="#990000" stroke="none" d="M 34 238 L 75 238 L 75 258 L 34 258 L 34 238 Z " transform="matrix(0.20454545319080353, 0, 0, 0.1363012194633484, 13.95, -4.25)"/>
    <path id="ID0.3531597387045622" fill="#990000" stroke="none" d="M 34 238 L 75 238 L 75 258 L 34 258 L 34 238 Z " transform="matrix(0.20454545319080353, 0, 0, 0.1363012194633484, 0.35, -3.05)"/>
    <path id="ID0.3531597387045622" fill="#990000" stroke="none" d="M 34 238 L 75 238 L 75 258 L 34 258 L 34 238 Z " transform="matrix(0.20454545319080353, 0, 0, 0.1363012194633484, 20.7, -25.8)"/>
    <path id="ID0.3531597387045622" fill="#990000" stroke="none" d="M 34 238 L 75 238 L 75 258 L 34 258 L 34 238 Z " transform="matrix(0.20454545319080353, 0, 0, 0.1363012194633484, 14.95, -24.45)"/>
    <path id="ID0.3531597387045622" fill="#990000" stroke="none" d="M 34 238 L 75 238 L 75 258 L 34 258 L 34 238 Z " transform="matrix(0.20454545319080353, 0, 0, 0.1363012194633484, 0.15, -26.35)"/>
    <path id="ID0.3531597387045622" fill="#990000" stroke="none" d="M 34 238 L 75 238 L 75 258 L 34 258 L 34 238 Z " transform="matrix(0.20454545319080353, 0, 0, 0.1363012194633484, 2.7, -20.1)"/>
    <path id="ID0.3531597387045622" fill="#990000" stroke="none" d="M 34 238 L 75 238 L 75 258 L 34 258 L 34 238 Z " transform="matrix(0.20454545319080353, 0, 0, 0.1363012194633484, 10.6, -17.75)"/>
    <path id="ID0.3531597387045622" fill="#990000" stroke="none" d="M 34 238 L 75 238 L 75 258 L 34 258 L 34 238 Z " transform="matrix(0.20454545319080353, 0, 0, 0.1363012194633484, 19.35, -19.4)"/>
    <path id="ID0.3531597387045622" fill="#990000" stroke="none" d="M 34 238 L 75 238 L 75 258 L 34 258 L 34 238 Z " transform="matrix(0.20454545319080353, 0, 0, 0.1363012194633484, 17.1, -18.2)"/>
    <path id="ID0.3531597387045622" fill="#990000" stroke="none" d="M 34 238 L 75 238 L 75 258 L 34 258 L 34 238 Z " transform="matrix(0.20454545319080353, 0, 0, 0.1363012194633484, 0.35, -13.8)"/>
    <path id="ID0.02985670743510127" fill="#995900" stroke="none" d="M 162 121 L 196 121 L 196 130 L 162 130 L 162 121 Z " transform="matrix(0.20454545319080353, 0, 0, 0.1363012194633484, 6.6, -7.4)"/>
    <path id="ID0.02985670743510127" fill="#995900" stroke="none" d="M 162 121 L 196 121 L 196 130 L 162 130 L 162 121 Z " transform="matrix(0.20454545319080353, 0, 0, 0.1363012194633484, 6.6, -2.85)"/>
    <path id="ID0.8944864110089839" fill="#FFFF99" stroke="#FFFF00" stroke-width="5" stroke-linecap="round" d="M 192 101 L 254 101 L 254 179 L 192 179 L 192 101 Z " transform="matrix(0.20454545319080353, 0, 0, 0.1363012194633484, 6.6, -7.4)"/>
    <text id="ID0.33032648684456944" fill="#FF9400" x="219" y="211.35" text-anchor="start" font-family="Gloria" font-size="22" transform="matrix(0.11922463029623032, 0, 0, 0.0794467031955719, 46.7, 6.2)">Bob'sBurgers</text>
    <path id="ID0.23290915181860328" fill="#995900" stroke="none" stroke-linecap="round" d="M 243.250 169 C 247.319 169 251.007 169.821 253.677 171.147 C 256.347 172.473 257.712 174.105 258 176.325 C 258.338 178.919 257.653 182.606 255.350 184.050 C 251.870 186.231 247.262 186.008 243.150 186.050 C 239.154 185.923 234.701 185.935 231.350 183.800 C 229.104 182.369 228.284 178.875 228.500 176.325 C 228.685 174.092 230.153 172.473 232.823 171.147 C 235.493 169.821 239.181 169 243.250 169 Z " transform="matrix(0.1439553052186966, 0, 0, 0.06673748791217804, 17.25, 3.6)"/>
    <path id="ID0.5440721549093723" fill="#CC7700" stroke="none" d="M 242.125 176.800 C 246.229 176.800 249.948 177.310 252.640 178.134 C 255.333 178.957 257 180.095 257 181.350 C 257 182.605 255.333 183.743 252.640 184.566 C 249.948 185.390 246.229 185.900 242.125 185.900 C 238.021 185.900 234.302 185.390 231.610 184.566 C 228.917 183.743 227.250 182.605 227.250 181.350 C 227.250 180.095 228.917 178.957 231.610 178.134 C 234.302 177.310 238.021 176.800 242.125 176.800 Z " transform="matrix(0.1439553052186966, 0, 0, 0.10746928304433823, 17.45, -4.4)"/>
    <path id="ID0.6329789543524384" fill="none" stroke="#99FFBB" stroke-width="2" stroke-linecap="round" d="M 226.250 176 C 226.250 176 227.468 177.563 228.250 178.150 C 228.829 178.584 229.527 178.974 230.250 179 C 231.002 179.027 231.648 178.264 232.400 178.300 C 233.804 178.367 235.099 179.412 236.500 179.300 C 237.936 179.185 239.079 177.887 240.500 177.650 C 241.191 177.535 241.892 177.953 242.500 178.300 C 243.083 178.633 243.396 179.356 244 179.650 C 244.608 179.945 245.350 180.186 246 180 C 246.646 179.815 246.967 179.060 247.500 178.650 C 248.053 178.225 248.554 177.548 249.250 177.500 C 249.933 177.453 250.418 178.468 251.100 178.400 C 251.786 178.331 252.223 177.594 252.750 177.150 C 252.882 177.039 253 176.800 253 176.800 " transform="matrix(0.1439553052186966, 0, 0, 0.10746928304433823, 17.7, -4.15)"/>
    <path id="ID0.9657369954511523" fill="none" stroke="#FF0000" stroke-width="2" stroke-linecap="round" d="M 226.600 179 C 226.600 179 227.621 180.451 228.400 180.500 C 229.940 180.598 231.359 179.330 232.900 179.400 C 233.740 179.438 234.287 180.355 235 180.800 C 235.620 181.187 236.177 181.789 236.900 181.900 C 237.579 182.004 238.243 181.600 238.900 181.400 C 239.610 181.183 240.291 180.872 241 180.650 C 242.523 180.173 244.005 179.235 245.600 179.300 C 246.330 179.330 246.412 180.656 247.100 180.900 C 247.826 181.158 248.673 180.905 249.400 180.650 C 250.045 180.424 250.520 179.861 251.100 179.500 C 251.245 179.410 251.250 179.500 251.250 179.500 " transform="matrix(0.1439553052186966, 0, 0, 0.10746928304433823, 17.7, -4.15)"/>
    <path id="ID0.23841308988630772" fill="none" stroke="#006622" stroke-width="2" stroke-linecap="round" d="M 225.400 179 C 225.400 179 223.909 180.046 224 180.800 C 224.082 181.483 225.085 181.723 225.750 181.900 C 226.394 182.072 227.095 181.672 227.750 181.800 C 228.415 181.930 228.928 182.563 229.600 182.650 C 230.270 182.737 230.924 182.317 231.600 182.300 C 232.933 182.267 234.286 182.270 235.600 182.500 C 237.351 182.806 238.986 183.683 240.750 183.900 C 241.480 183.990 242.204 183.635 242.900 183.400 C 243.592 183.167 244.203 182.718 244.900 182.500 C 245.545 182.298 246.224 182.150 246.900 182.150 C 247.576 182.150 248.235 182.625 248.900 182.500 C 249.647 182.360 250.235 181.767 250.900 181.400 C 251.350 181.151 252.250 180.650 252.250 180.650 " transform="matrix(0.1439553052186966, 0, 0, 0.10746928304433823, 17.7, -4.15)"/>
    <path id="ID0.23290915181860328" fill="#995900" stroke="none" stroke-linecap="round" d="M 243.250 169 C 247.319 169 251.007 169.821 253.677 171.147 C 256.347 172.473 257.712 174.105 258 176.325 C 258.338 178.919 257.653 182.606 255.350 184.050 C 251.870 186.231 247.262 186.008 243.150 186.050 C 239.154 185.923 234.701 185.935 231.350 183.800 C 229.104 182.369 228.284 178.875 228.500 176.325 C 228.685 174.092 230.153 172.473 232.823 171.147 C 235.493 169.821 239.181 169 243.250 169 Z " transform="matrix(0.1439553052186966, 0, 0, 0.06673748791217804, 17.2, 2.45)"/>
    <path id="ID0.41660013934597373" fill="#CCCCCC" stroke="none" d="M 160 282 L 192 282 L 192 291 L 160 291 L 160 282 Z " transform="matrix(0.20454545319080353, 0, 0, 0.1363012194633484, 7, -7.4)"/>
  </g>
  <g id="ID0.39879406057298183" transform="matrix(0.18896262347698212, 0, 0, 0.18896262347698212, 78, 13.3)">
    <path id="ID0.3400925532914698" fill="#804BD9" stroke="#653BAB" stroke-width="2" stroke-linecap="round" d="M 281.450 209.600 C 284.832 201.362 283.839 191.071 281.450 182.300 C 280.540 178.964 275.449 178.623 272.300 176.850 C 271.650 176.421 272.878 178.629 272.050 176.850 C 268.737 169.736 268.671 159.631 261.850 155.700 C 255.165 151.484 244.955 152.095 238.150 156.400 C 231.930 160.336 232.178 169.820 228.950 176.500 C 228.307 178.129 230.068 175.817 228.950 176.150 C 224.489 177.479 217.709 176.104 215.650 180.450 C 211.559 189.105 212.297 199.716 213.900 209.150 C 214.324 211.622 217.543 205.334 220.050 204.450 C 222.031 203.680 224.483 203.591 226.650 204.450 C 230.067 205.820 231.933 210.292 235.600 210.950 C 243.202 212.317 251.208 212.375 258.800 210.950 C 261.173 210.505 261.583 206.595 263.900 205.500 C 266.114 204.401 268.943 204.239 271.500 204.800 C 275.092 205.592 280.103 212.731 281.450 209.600 Z " transform="matrix(1.962252140045166, 0, 0, 1.466101884841919, -415.25, -222.3)"/>
    <path id="ID0.2408854984678328" fill="#00FFFF" stroke="#009999" stroke-width="2" stroke-linecap="round" d="M 250.500 146 L 236 147 L 225 154 L 219 162.500 L 217.500 173.500 L 252.500 174 L 250.500 146 Z " transform="matrix(1, 0, 0, 1, -174, -137)"/>
    <path id="ID0.7609109175391495" fill="none" stroke="#FFFFFF" stroke-width="2" stroke-linecap="round" d="M 243.500 148 L 233 158 " transform="matrix(1, 0, 0, 1, -174, -137)"/>
    <path id="ID0.5293191354721785" fill="none" stroke="#FFFFFF" stroke-width="2" stroke-linecap="round" d="M 240 158 L 229.500 167.500 " transform="matrix(1, 0, 0, 1, -174, -137)"/>
    <path id="ID0.5785612338222563" fill="none" stroke="#FFFFFF" stroke-width="2" stroke-linecap="round" d="M 249.500 156 L 239.500 165 " transform="matrix(1, 0, 0, 1, -174, -137)"/>
    <path id="ID0.24303878843784332" fill="none" stroke="#FFFFFF" stroke-width="2" stroke-linecap="round" d="M 226.500 161 L 220 167 " transform="matrix(1, 0, 0, 1, -174, -137)"/>
    <path id="ID0.8779562134295702" fill="#00FFFF" stroke="#009999" stroke-width="2" stroke-linecap="round" d="M 285 173 L 269.500 171.500 L 267 145.500 L 275 151 L 285 173 Z " transform="matrix(1, 0, 0, 1, -174, -137)"/>
    <path id="ID0.0725827100686729" fill="none" stroke="#FFFFFF" stroke-width="2" stroke-linecap="round" d="M 276 154 L 272.500 159.500 " transform="matrix(1, 0, 0, 1, -174, -137)"/>
    <path id="ID0.47909411741420627" fill="none" stroke="#FFFFFF" stroke-width="2" stroke-linecap="round" d="M 276 161 L 272 166.500 " transform="matrix(1, 0, 0, 1, -174, -137)"/>
    <path id="ID0.9012332898564637" fill="#573393" stroke="none" d="M 190.500 185.500 C 192.845 185.500 194.970 186.424 196.509 187.918 C 198.048 189.411 199 191.474 199 193.750 C 199 196.026 198.048 198.089 196.509 199.582 C 194.970 201.076 192.845 202 190.500 202 C 188.155 202 186.030 201.076 184.491 199.582 C 182.952 198.089 182 196.026 182 193.750 C 182 191.474 182.952 189.411 184.491 187.918 C 186.030 186.424 188.155 185.500 190.500 185.500 Z " transform="matrix(1, 0, 0, 1, -174, -137)"/>
    <path id="ID0.47260211734101176" fill="#FFFF00" stroke="none" d="M 185.750 185 C 187.198 185 188.511 185.924 189.461 187.418 C 190.412 188.911 191 190.974 191 193.250 C 191 195.526 190.412 197.589 189.461 199.082 C 188.511 200.576 187.198 201.500 185.750 201.500 C 184.302 201.500 182.989 200.576 182.039 199.082 C 181.088 197.589 180.500 195.526 180.500 193.250 C 180.500 190.974 181.088 188.911 182.039 187.418 C 182.989 185.924 184.302 185 185.750 185 Z " transform="matrix(1, 0, 0, 1, -174, -137)"/>
    <g id="ID0.022357231471687555">
      <path id="ID0.723410907201469" fill="#192217" stroke="none" d="M 198 208.500 C 203.380 208.500 208.255 210.629 211.785 214.069 C 215.315 217.508 217.500 222.258 217.500 227.500 C 217.500 232.742 215.315 237.492 211.785 240.931 C 208.255 244.371 203.380 246.500 198 246.500 C 192.620 246.500 187.745 244.371 184.215 240.931 C 180.685 237.492 178.500 232.742 178.500 227.500 C 178.500 222.258 180.685 217.508 184.215 214.069 C 187.745 210.629 192.620 208.500 198 208.500 Z " transform="matrix(1, 0, 0, 1, -174, -137)"/>
      <path id="ID0.2541075455956161" fill="#CCCCCC" stroke="none" d="M 198.500 216 C 202.225 216 205.600 217.485 208.043 219.883 C 210.487 222.282 212 225.594 212 229.250 C 212 232.906 210.487 236.218 208.043 238.617 C 205.600 241.015 202.225 242.500 198.500 242.500 C 194.775 242.500 191.400 241.015 188.957 238.617 C 186.513 236.218 185 232.906 185 229.250 C 185 225.594 186.513 222.282 188.957 219.883 C 191.400 217.485 194.775 216 198.500 216 Z " transform="matrix(1, 0, 0, 1, -175.5, -138.5)"/>
    </g>
    <g id="ID0.022357231471687555">
      <path id="ID0.723410907201469" fill="#192217" stroke="none" d="M 198 208.500 C 203.380 208.500 208.255 210.629 211.785 214.069 C 215.315 217.508 217.500 222.258 217.500 227.500 C 217.500 232.742 215.315 237.492 211.785 240.931 C 208.255 244.371 203.380 246.500 198 246.500 C 192.620 246.500 187.745 244.371 184.215 240.931 C 180.685 237.492 178.500 232.742 178.500 227.500 C 178.500 222.258 180.685 217.508 184.215 214.069 C 187.745 210.629 192.620 208.500 198 208.500 Z " transform="matrix(1, 0, 0, 1, -80, -137.5)"/>
      <path id="ID0.2541075455956161" fill="#CCCCCC" stroke="none" d="M 198.500 216 C 202.225 216 205.600 217.485 208.043 219.883 C 210.487 222.282 212 225.594 212 229.250 C 212 232.906 210.487 236.218 208.043 238.617 C 205.600 241.015 202.225 242.500 198.500 242.500 C 194.775 242.500 191.400 241.015 188.957 238.617 C 186.513 236.218 185 232.906 185 229.250 C 185 225.594 186.513 222.282 188.957 219.883 C 191.400 217.485 194.775 216 198.500 216 Z " transform="matrix(1, 0, 0, 1, -81.5, -139)"/>
    </g>
    <path id="ID0.3302615978755057" fill="none" stroke="#653BAB" stroke-width="2" stroke-linecap="round" d="M 252.500 174 L 255 223 " transform="matrix(1, 0, 0, 1, -174, -137)"/>
    <path id="ID0.5017857123166323" fill="none" stroke="#653BAB" stroke-width="2" stroke-linecap="round" d="M 217 173 L 221.500 222.500 " transform="matrix(1, 0, 0, 1, -174, -137)"/>
    <path id="ID0.912425734102726" fill="none" stroke="#653BAB" stroke-width="2" stroke-linecap="round" d="M 233.500 192.500 L 246.500 193 L 249 199 " transform="matrix(1, 0, 0, 1, -174, -137)"/>
    <path id="ID0.7503481437452137" fill="none" stroke="#653BAB" stroke-width="2" stroke-linecap="round" d="M 271.500 183.500 L 294.500 184.500 " transform="matrix(1, 0, 0, 1, -174, -137)"/>
    <path id="ID0.7503481437452137" fill="none" stroke="#653BAB" stroke-width="2" stroke-linecap="round" d="M 271.500 183.500 L 294.500 184.500 " transform="matrix(1, 0, 0, 1, -173.95, -130.5)"/>
    <path id="ID0.7503481437452137" fill="none" stroke="#653BAB" stroke-width="2" stroke-linecap="round" d="M 271.500 183.500 L 294.500 184.500 " transform="matrix(1, 0, 0, 1, -173.95, -124.5)"/>
  </g>
</svg>