<svg version="1.1" width="58" height="34" viewBox="0 -1 58 34" xmlns="http://www.w3.org/2000/svg" xmlns:xlink="http://www.w3.org/1999/xlink">
  <defs>
    <linearGradient id="grad_1" x2="1">
      <stop offset="0" stop-color="#FF0000" stop-opacity="0"/>
      <stop offset="1" stop-color="#FF0000" stop-opacity="1"/>
    </linearGradient>
    <linearGradient id="grad_2" x2="1">
      <stop offset="0" stop-color="#FF9400" stop-opacity="0"/>
      <stop offset="1" stop-color="#FF9400" stop-opacity="1"/>
    </linearGradient>
    <linearGradient id="grad_3" x2="1">
      <stop offset="0" stop-color="#FFFF00" stop-opacity="0"/>
      <stop offset="1" stop-color="#FFFF00" stop-opacity="1"/>
    </linearGradient>
    <linearGradient id="grad_4" x2="1">
      <stop offset="0" stop-color="#00FF55" stop-opacity="0"/>
      <stop offset="1" stop-color="#00FF55" stop-opacity="1"/>
    </linearGradient>
    <linearGradient id="grad_5" x2="1">
      <stop offset="0" stop-color="#003FFF" stop-opacity="0"/>
      <stop offset="1" stop-color="#003FFF" stop-opacity="1"/>
    </linearGradient>
    <linearGradient id="grad_6" x2="1">
      <stop offset="0" stop-color="#7F00FF" stop-opacity="0"/>
      <stop offset="1" stop-color="#7F00FF" stop-opacity="1"/>
    </linearGradient>
  </defs>
  <!-- Exported by Scratch - http://scratch.mit.edu/ -->
  <g id="ID0.2929611341096461" transform="matrix(0.639616072177887, 0, 0, 0.639616072177887, 0.3, 0.5)">
    <path id="ID0.3299740720540285" fill="url(#grad_1)" stroke="none" d="M 197.950 166.100 L 229.600 166.100 L 229.600 169.600 L 197.950 169.600 L 197.950 166.100 Z " transform="matrix(1, 0, 0, 1, -197.6, -158.4)"/>
    <path id="ID0.3299740720540285" fill="url(#grad_2)" stroke="none" d="M 197.950 166.100 L 229.600 166.100 L 229.600 169.600 L 197.950 169.600 L 197.950 166.100 Z " transform="matrix(1, 0, 0, 1, -197.6, -155.05)"/>
    <path id="ID0.3299740720540285" fill="url(#grad_3)" stroke="none" d="M 197.950 166.100 L 229.600 166.100 L 229.600 169.600 L 197.950 169.600 L 197.950 166.100 Z " transform="matrix(1, 0, 0, 1, -197.5, -151.9)"/>
    <path id="ID0.3299740720540285" fill="url(#grad_4)" stroke="none" d="M 197.950 166.100 L 229.600 166.100 L 229.600 169.600 L 197.950 169.600 L 197.950 166.100 Z " transform="matrix(1, 0, 0, 1, -197.6, -149.75)"/>
    <path id="ID0.3299740720540285" fill="url(#grad_5)" stroke="none" d="M 197.950 166.100 L 229.600 166.100 L 229.600 169.600 L 197.950 169.600 L 197.950 166.100 Z " transform="matrix(1, 0, 0, 1, -197.6, -147.4)"/>
    <path id="ID0.3299740720540285" fill="url(#grad_6)" stroke="none" d="M 197.950 166.100 L 229.600 166.100 L 229.600 169.600 L 197.950 169.600 L 197.950 166.100 Z " transform="matrix(1, 0, 0, 1, -197.35, -144.25)"/>
  </g>
  <path id="ID0.8365832129493356" fill="none" stroke="#666666" stroke-width="2" stroke-linecap="round" d="M 177.350 190 " transform="matrix(1, 0, 0, 1, -270, -207)"/>
  <path id="ID0.8365832129493356" fill="none" stroke="#666666" stroke-width="2" stroke-linecap="round" d="M 177.350 190 " transform="matrix(1, 0, 0, 1, -428, -273)"/>
  <path id="ID0.8365832129493356" fill="none" stroke="#666666" stroke-width="2" stroke-linecap="round" d="M 177.350 190 " transform="matrix(1, 0, 0, 1, -389, -114)"/>
  <path id="ID0.8365832129493356" fill="none" stroke="#666666" stroke-width="2" stroke-linecap="round" d="M 177.350 190 " transform="matrix(1, 0, 0, 1, -274, -317)"/>
  <path id="ID0.8365832129493356" fill="none" stroke="#666666" stroke-width="2" stroke-linecap="round" d="M 177.350 190 " transform="matrix(1, 0, 0, 1, -83, -66)"/>
  <path id="ID0.8365832129493356" fill="none" stroke="#666666" stroke-width="2" stroke-linecap="round" d="M 177.350 190 " transform="matrix(1, 0, 0, 1, -268, -144)"/>
  <path id="ID0.8365832129493356" fill="none" stroke="#666666" stroke-width="2" stroke-linecap="round" d="M 177.350 190 " transform="matrix(1, 0, 0, 1, -69, -74)"/>
  <path id="ID0.8365832129493356" fill="none" stroke="#666666" stroke-width="2" stroke-linecap="round" d="M 177.350 190 " transform="matrix(1, 0, 0, 1, -280, -64)"/>
  <path id="ID0.8365832129493356" fill="none" stroke="#666666" stroke-width="2" stroke-linecap="round" d="M 177.350 190 " transform="matrix(1, 0, 0, 1, -350, -190)"/>
  <path id="ID0.8365832129493356" fill="none" stroke="#666666" stroke-width="2" stroke-linecap="round" d="M 177.350 190 " transform="matrix(1, 0, 0, 1, -508, -256)"/>
  <path id="ID0.8365832129493356" fill="none" stroke="#666666" stroke-width="2" stroke-linecap="round" d="M 177.350 190 " transform="matrix(1, 0, 0, 1, -469, -97)"/>
  <path id="ID0.8365832129493356" fill="none" stroke="#666666" stroke-width="2" stroke-linecap="round" d="M 177.350 190 " transform="matrix(1, 0, 0, 1, -354, -300)"/>
  <path id="ID0.8365832129493356" fill="none" stroke="#666666" stroke-width="2" stroke-linecap="round" d="M 177.350 190 " transform="matrix(1, 0, 0, 1, -163, -49)"/>
  <path id="ID0.8365832129493356" fill="none" stroke="#666666" stroke-width="2" stroke-linecap="round" d="M 177.350 190 " transform="matrix(1, 0, 0, 1, -348, -127)"/>
  <path id="ID0.8365832129493356" fill="none" stroke="#666666" stroke-width="2" stroke-linecap="round" d="M 177.350 190 " transform="matrix(1, 0, 0, 1, -149, -57)"/>
  <path id="ID0.8365832129493356" fill="none" stroke="#666666" stroke-width="2" stroke-linecap="round" d="M 177.350 190 " transform="matrix(1, 0, 0, 1, -360, -47)"/>
  <g id="ID0.7827755282633007" transform="matrix(0.639616072177887, 0, 0, 0.639616072177887, 0.3, 0.5)">
    <path id="ID0.8188485014252365" fill="none" stroke="#FFFF00" stroke-width="4" stroke-linecap="round" d="M 137.500 254.500 C 137.500 254.500 141.674 256.580 143.500 258 C 144.712 258.942 145.676 260.205 146.500 261.500 C 148.020 263.888 149.506 266.350 150.500 269 C 151.029 270.412 151.366 272.037 151 273.500 C 150.653 274.890 149.395 275.882 148.500 277 C 148.059 277.552 147 278.500 147 278.500 " transform="matrix(0.000893276883289218, 0.17514607310295105, -0.17514607310295105, 0.000893276883289218, 73.35, -2.3)"/>
    <path id="ID0.4570708512328565" fill="#00FFFF" stroke="#FFFF00" stroke-width="4" stroke-linecap="round" d="M 51 218.350 C 39.661 217.821 17.337 221.870 18 210.850 C 19.531 184.567 41.430 163.892 55.500 141.850 C 66.387 124.782 76.209 106.663 92.500 96 C 99.957 90.392 112.338 92.391 119.500 98 C 133.782 109.172 143.073 124.802 153 141 C 166.945 163.755 187.063 185.615 189.500 212.350 C 190.211 222.115 169.414 215.854 159.500 216.350 C 123.410 218.161 87.095 220.032 51 218.350 Z " transform="matrix(0.000893276883289218, 0.17514607310295105, -0.17514607310295105, 0.000893276883289218, 73.35, -2.2)"/>
    <path id="ID0.009304857812821865" fill="#00FFFF" stroke="#FFFF00" stroke-width="4" d="M 104.750 156 C 121.924 156 137.487 162.051 148.756 171.826 C 160.025 181.602 167 195.102 167 210 C 167 224.898 160.025 238.398 148.756 248.174 C 137.487 257.949 121.924 264 104.750 264 C 87.576 264 72.013 257.949 60.744 248.174 C 49.475 238.398 42.500 224.898 42.500 210 C 42.500 195.102 49.475 181.602 60.744 171.826 C 72.013 162.051 87.576 156 104.750 156 Z " transform="matrix(0.000893276883289218, 0.17514607310295105, -0.17514607310295105, 0.000893276883289218, 73.35, -2.3)"/>
    <g id="ID0.21643680380657315">
      <path id="ID0.39615850523114204" fill="#000000" stroke="none" d="M 83.500 186.500 C 88.880 186.500 93.755 188.573 97.285 191.922 C 100.815 195.271 103 199.896 103 205 C 103 210.104 100.815 214.729 97.285 218.078 C 93.755 221.427 88.880 223.500 83.500 223.500 C 78.120 223.500 73.245 221.427 69.715 218.078 C 66.185 214.729 64 210.104 64 205 C 64 199.896 66.185 195.271 69.715 191.922 C 73.245 188.573 78.120 186.500 83.500 186.500 Z " transform="matrix(-0.000893276883289218, -0.17514607310295105, -0.17514607310295105, 0.000893276883289218, 74.6, 25.8)"/>
      <path id="ID0.3251188797876239" fill="#FFFFFF" stroke="none" d="M 84.250 182 C 86.388 182 88.326 182.980 89.729 184.564 C 91.132 186.148 92 188.336 92 190.750 C 92 193.164 91.132 195.352 89.729 196.936 C 88.326 198.520 86.388 199.500 84.250 199.500 C 82.112 199.500 80.174 198.520 78.771 196.936 C 77.368 195.352 76.500 193.164 76.500 190.750 C 76.500 188.336 77.368 186.148 78.771 184.564 C 80.174 182.980 82.112 182 84.250 182 Z " transform="matrix(-0.000893276883289218, -0.17514607310295105, -0.17514607310295105, 0.000893276883289218, 73.5, 24.65)"/>
      <path id="ID0.01969422632828355" fill="#FFFFFF" stroke="none" d="M 71.500 198.500 C 72.604 198.500 73.604 199.004 74.328 199.819 C 75.052 200.633 75.500 201.758 75.500 203 C 75.500 204.242 75.052 205.367 74.328 206.181 C 73.604 206.996 72.604 207.500 71.500 207.500 C 70.396 207.500 69.396 206.996 68.672 206.181 C 67.948 205.367 67.500 204.242 67.500 203 C 67.500 201.758 67.948 200.633 68.672 199.819 C 69.396 199.004 70.396 198.500 71.500 198.500 Z " transform="matrix(-0.000893276883289218, -0.17514607310295105, -0.17514607310295105, 0.000893276883289218, 73.5, 24.65)"/>
    </g>
    <g id="ID0.21643680380657315">
      <path id="ID0.39615850523114204" fill="#000000" stroke="none" d="M 83.500 186.500 C 88.880 186.500 93.755 188.573 97.285 191.922 C 100.815 195.271 103 199.896 103 205 C 103 210.104 100.815 214.729 97.285 218.078 C 93.755 221.427 88.880 223.500 83.500 223.500 C 78.120 223.500 73.245 221.427 69.715 218.078 C 66.185 214.729 64 210.104 64 205 C 64 199.896 66.185 195.271 69.715 191.922 C 73.245 188.573 78.120 186.500 83.500 186.500 Z " transform="matrix(-0.000893276883289218, -0.17514607310295105, -0.17514607310295105, 0.000893276883289218, 74.6, 34.75)"/>
      <path id="ID0.3251188797876239" fill="#FFFFFF" stroke="none" d="M 84.250 182 C 86.388 182 88.326 182.980 89.729 184.564 C 91.132 186.148 92 188.336 92 190.750 C 92 193.164 91.132 195.352 89.729 196.936 C 88.326 198.520 86.388 199.500 84.250 199.500 C 82.112 199.500 80.174 198.520 78.771 196.936 C 77.368 195.352 76.500 193.164 76.500 190.750 C 76.500 188.336 77.368 186.148 78.771 184.564 C 80.174 182.980 82.112 182 84.250 182 Z " transform="matrix(-0.000893276883289218, -0.17514607310295105, -0.17514607310295105, 0.000893276883289218, 73.45, 33.6)"/>
      <path id="ID0.01969422632828355" fill="#FFFFFF" stroke="none" d="M 71.500 198.500 C 72.604 198.500 73.604 199.004 74.328 199.819 C 75.052 200.633 75.500 201.758 75.500 203 C 75.500 204.242 75.052 205.367 74.328 206.181 C 73.604 206.996 72.604 207.500 71.500 207.500 C 70.396 207.500 69.396 206.996 68.672 206.181 C 67.948 205.367 67.500 204.242 67.500 203 C 67.500 201.758 67.948 200.633 68.672 199.819 C 69.396 199.004 70.396 198.500 71.500 198.500 Z " transform="matrix(-0.000893276883289218, -0.17514607310295105, -0.17514607310295105, 0.000893276883289218, 73.45, 33.6)"/>
    </g>
    <path id="ID0.6319951475597918" fill="none" stroke="#FFFF00" stroke-width="4" stroke-linecap="round" d="M 71.250 228.250 C 71.250 228.250 69.423 234.115 69 236.500 C 68.753 237.817 68.796 239.357 69.500 240.500 C 70.251 241.720 71.708 242.382 73 243 C 75.567 244.228 78.215 245.420 81 246 C 82.314 246.274 83.774 246.042 85 245.500 C 87.090 244.577 88.752 242.748 90.950 242.050 C 92.254 241.478 93.759 241.381 95.200 241.800 C 97.421 242.435 99.432 244.060 101.450 244.800 C 102.708 245.265 104.150 245.550 105.450 245.300 C 108.250 244.700 110.900 243.500 113.450 242.300 C 114.750 241.650 116.200 241 116.950 239.800 C 117.700 238.650 117.700 237.100 117.450 235.800 C 117.050 233.400 115.200 227.550 115.200 227.550 " transform="matrix(-0.000893276883289218, -0.17514607310295105, -0.17514607310295105, 0.000893276883289218, 74.5, 32.1)"/>
    <path id="ID0.3833936583250761" fill="none" stroke="#FFFF00" stroke-width="4" stroke-linecap="round" d="M 154 243 C 154 243 156.662 245.341 158 246.500 C 159.160 247.505 160.415 248.415 161.500 249.500 C 162.585 250.585 163.459 251.872 164.500 253 C 165.458 254.038 166.617 254.897 167.500 256 C 169.289 258.237 171.264 260.416 172.500 263 C 173.151 264.360 172.762 266.011 173 267.500 C 173.428 270.176 174.177 272.809 174.500 275.500 C 174.679 276.988 174.760 278.524 174.500 280 C 174.253 281.401 173.478 282.660 173 284 C 172.646 284.992 172 287 172 287 " transform="matrix(0.000893276883289218, 0.17514607310295105, -0.17514607310295105, 0.000893276883289218, 73.35, -2.3)"/>
    <path id="ID0.877939498052001" fill="none" stroke="#FFFF00" stroke-width="4" stroke-linecap="round" d="M 163 235 C 163 235 167.127 236.416 169 237.500 C 170.328 238.269 171.223 239.649 172.500 240.500 C 173.739 241.326 175.223 241.734 176.500 242.500 C 177.728 243.237 178.913 244.068 180 245 C 181.251 246.073 182.334 247.334 183.500 248.500 C 184.499 249.499 185.501 250.501 186.500 251.500 C 187.499 252.499 188.581 253.427 189.500 254.500 C 190.584 255.764 191.576 257.115 192.500 258.500 C 193.245 259.617 194.029 260.743 194.500 262 C 195.039 263.437 195.321 264.975 195.500 266.500 C 195.656 267.823 195.500 269.168 195.500 270.500 C 195.500 271.832 195.500 273.168 195.500 274.500 C 195.500 275.832 195.745 277.191 195.500 278.500 C 195.238 279.898 194.424 281.142 194 282.500 C 193.590 283.810 193.565 285.249 193 286.500 C 191.222 290.437 187 298 187 298 " transform="matrix(0.000893276883289218, 0.17514607310295105, -0.17514607310295105, 0.000893276883289218, 73.35, -2.3)"/>
    <path id="ID0.8188485014252365" fill="none" stroke="#FFFF00" stroke-width="4" stroke-linecap="round" d="M 137.500 254.500 C 137.500 254.500 141.674 256.580 143.500 258 C 144.712 258.942 145.676 260.205 146.500 261.500 C 148.020 263.888 149.506 266.350 150.500 269 C 151.029 270.412 151.366 272.037 151 273.500 C 150.653 274.890 149.395 275.882 148.500 277 C 148.059 277.552 147 278.500 147 278.500 " transform="matrix(-0.000893276883289218, -0.17514607310295105, -0.17514607310295105, 0.000893276883289218, 72.8, 34.85)"/>
    <path id="ID0.3833936583250761" fill="none" stroke="#FFFF00" stroke-width="4" stroke-linecap="round" d="M 154 243 C 154 243 156.662 245.341 158 246.500 C 159.160 247.505 160.415 248.415 161.500 249.500 C 162.585 250.585 163.459 251.872 164.500 253 C 165.458 254.038 166.617 254.897 167.500 256 C 169.289 258.237 171.264 260.416 172.500 263 C 173.151 264.360 172.762 266.011 173 267.500 C 173.428 270.176 174.177 272.809 174.500 275.500 C 174.679 276.988 174.760 278.524 174.500 280 C 174.253 281.401 173.478 282.660 173 284 C 172.646 284.992 172 287 172 287 " transform="matrix(-0.000893276883289218, -0.17514607310295105, -0.17514607310295105, 0.000893276883289218, 72.45, 34.75)"/>
    <path id="ID0.877939498052001" fill="none" stroke="#FFFF00" stroke-width="4" stroke-linecap="round" d="M 163 235 C 163 235 167.127 236.416 169 237.500 C 170.328 238.269 171.223 239.649 172.500 240.500 C 173.739 241.326 175.223 241.734 176.500 242.500 C 177.728 243.237 178.913 244.068 180 245 C 181.251 246.073 182.334 247.334 183.500 248.500 C 184.499 249.499 185.501 250.501 186.500 251.500 C 187.499 252.499 188.581 253.427 189.500 254.500 C 190.584 255.764 191.576 257.115 192.500 258.500 C 193.245 259.617 194.029 260.743 194.500 262 C 195.039 263.437 195.321 264.975 195.500 266.500 C 195.656 267.823 195.500 269.168 195.500 270.500 C 195.500 271.832 195.500 273.168 195.500 274.500 C 195.500 275.832 195.745 277.191 195.500 278.500 C 195.238 279.898 194.424 281.142 194 282.500 C 193.590 283.810 193.565 285.249 193 286.500 C 191.222 290.437 187 298 187 298 " transform="matrix(-0.000893276883289218, -0.17514607310295105, -0.17514607310295105, 0.000893276883289218, 73.1, 34.65)"/>
  </g>
</svg>