<svg version="1.1" width="70" height="74" viewBox="-1 1 70 74" xmlns="http://www.w3.org/2000/svg" xmlns:xlink="http://www.w3.org/1999/xlink">
  <!-- Exported by Scratch - http://scratch.mit.edu/ -->
  <path id="ID0.29164318600669503" fill="#99B2FF" stroke="#849FDC" stroke-width="2" stroke-linecap="round" d="M 221.650 108.300 L 224.950 103.250 L 233 98.550 L 238 97.400 L 241.600 105.750 L 245.200 97.400 L 250.200 99.100 L 256.350 102.950 L 259.400 107.950 L 259.450 155.550 L 221.650 155.550 L 221.650 108.300 Z " transform="matrix(0.48662903904914856, 0.12153979390859604, -0.12153979390859604, 0.48662903904914856, -73.65, -72.8)"/>
  <path id="ID0.20220222463831306" fill="none" stroke="#000000" stroke-width="2" stroke-linecap="round" d="M 281.850 119.900 C 281.850 119.900 288.632 118.574 291.950 119.150 C 296.798 120.001 302.966 120.857 306 124.900 C 309.380 129.409 308.800 142.100 308.800 142.100 " transform="matrix(-0.29900091886520386, -0.15603779256343842, -0.23205620050430298, 0.4446680247783661, 126.5, 21.4)"/>
  <path id="ID0.20220222463831306" fill="none" stroke="#000000" stroke-width="2" stroke-linecap="round" d="M 281.850 119.900 C 281.850 119.900 284.747 133.059 289.200 137.650 C 293.380 141.941 300.681 143.610 306.950 144.600 C 314.576 145.809 331.550 144.750 331.550 144.750 " transform="matrix(0.32721608877182007, 0.08172503858804703, 0.12153979390859604, -0.48662903904914856, -73, 70.5)"/>
  <path id="ID0.6132512143813074" fill="#7F7F7F" stroke="#515151" stroke-width="2" d="M 223.350 154.750 L 260.250 154.750 L 260.250 201.700 L 223.350 201.700 L 223.350 154.750 Z " transform="matrix(0.503517210483551, 0.12575775384902954, -0.12153979390859604, 0.48662903904914856, -78.55, -73.2)"/>
  <path id="ID0.02467851573601365" fill="#000000" stroke="none" stroke-linecap="round" d="M 231.650 113.900 C 232.795 113.900 234.008 114.954 234.584 116.010 C 235.161 117.072 235.218 118.584 234.800 119.800 C 234.518 120.526 232.817 120.453 232.750 121.100 C 232.691 121.672 234.380 121.454 234.650 122.100 C 235.079 123.397 235.151 125.003 234.584 126.190 C 234.065 127.275 232.795 128.300 231.650 128.300 C 230.505 128.300 229.468 127.493 228.716 126.190 C 227.965 124.886 227.500 123.086 227.500 121.100 C 227.500 119.114 227.965 117.314 228.716 116.010 C 229.468 114.707 230.505 113.900 231.650 113.900 Z " transform="matrix(0.48662903904914856, 0.12153979390859604, -0.12153979390859604, 0.48662903904914856, -73.65, -72.8)"/>
  <g id="ID0.31094841519370675" transform="matrix(1, 0, 0, 1, 2, 0)">
    <path id="ID0.042100869584828615" fill="#0033CC" stroke="#001966" stroke-width="2" stroke-linecap="round" d="M 222.500 140.800 C 222.864 139.900 223.695 139.442 224.450 138.900 C 224.994 138.509 225.458 137.939 226.100 137.750 C 226.819 137.538 227.614 137.609 228.350 137.750 C 229.121 137.897 230.052 137.993 230.550 138.600 C 231.019 139.172 230.296 140.982 230.850 140.800 C 231.971 140.432 232.726 138.428 233.900 137.500 C 234.516 137.013 235.316 136.703 236.100 136.650 C 236.870 136.598 237.660 136.855 238.350 137.200 C 238.995 137.522 239.543 138.043 240 138.600 C 240.473 139.176 240.464 140.474 241.100 140.550 C 241.714 140.624 241.990 139.410 242.500 138.900 C 243.010 138.390 243.539 137.882 244.150 137.500 C 244.751 137.125 245.398 136.742 246.100 136.650 C 246.849 136.552 247.723 136.529 248.350 136.950 C 248.969 137.366 249.175 138.207 249.450 138.900 C 249.729 139.602 249.972 140.345 250 141.100 C 250.056 142.584 250.088 144.116 249.700 145.550 C 249.515 146.235 248.995 146.904 248.350 147.200 C 247.669 147.512 246.849 147.200 246.100 147.200 C 244.618 147.200 243.130 147.133 241.650 147.200 C 240.911 147.233 240.188 147.450 239.450 147.500 C 238.702 147.550 238.170 147.462 237.200 147.500 C 233.319 147.654 229.434 148.050 225.550 148.050 C 224.579 148.050 224.122 147.928 223.600 147.500 C 223.023 147.027 222.689 146.271 222.500 145.550 C 222.310 144.825 222.550 144.048 222.500 143.300 C 222.450 142.562 222.280 141.835 222.200 141.100 C 222.180 140.916 222.034 140.712 222.200 140.550 Z " transform="matrix(0.3201793134212494, 0.07996754348278046, -0.07996754348278046, 0.3201793134212494, -44.5, -40.15)"/>
    <path id="ID0.042100869584828615" fill="#0033CC" stroke="#001966" stroke-width="2" stroke-linecap="round" d="M 222.500 140.800 C 222.864 139.900 223.695 139.442 224.450 138.900 C 224.994 138.509 225.458 137.939 226.100 137.750 C 226.819 137.538 227.614 137.609 228.350 137.750 C 229.121 137.897 230.052 137.993 230.550 138.600 C 231.019 139.172 230.296 140.982 230.850 140.800 C 231.971 140.432 232.726 138.428 233.900 137.500 C 234.516 137.013 235.316 136.703 236.100 136.650 C 236.870 136.598 237.660 136.855 238.350 137.200 C 238.995 137.522 239.543 138.043 240 138.600 C 240.473 139.176 240.464 140.474 241.100 140.550 C 241.714 140.624 241.990 139.410 242.500 138.900 C 243.010 138.390 243.539 137.882 244.150 137.500 C 244.751 137.125 245.398 136.742 246.100 136.650 C 246.849 136.552 247.723 136.529 248.350 136.950 C 248.969 137.366 249.175 138.207 249.450 138.900 C 249.729 139.602 249.972 140.345 250 141.100 C 250.056 142.584 250.088 144.116 249.700 145.550 C 249.515 146.235 248.995 146.904 248.350 147.200 C 247.669 147.512 246.849 147.200 246.100 147.200 C 244.618 147.200 243.130 147.133 241.650 147.200 C 240.911 147.233 240.188 147.450 239.450 147.500 C 238.702 147.550 238.170 147.462 237.200 147.500 C 233.319 147.654 229.434 148.050 225.550 148.050 C 224.579 148.050 224.122 147.928 223.600 147.500 C 223.023 147.027 222.689 146.271 222.500 145.550 C 222.310 144.825 222.550 144.048 222.500 143.300 C 222.450 142.562 222.280 141.835 222.200 141.100 C 222.180 140.916 222.034 140.712 222.200 140.550 Z " transform="matrix(0.3201793134212494, 0.07996754348278046, -0.07996754348278046, 0.3201793134212494, -44.95, -38.45)"/>
    <path id="ID0.042100869584828615" fill="#0033CC" stroke="#001966" stroke-width="2" stroke-linecap="round" d="M 222.500 140.800 C 222.864 139.900 223.695 139.442 224.450 138.900 C 224.994 138.509 225.458 137.939 226.100 137.750 C 226.819 137.538 227.614 137.609 228.350 137.750 C 229.121 137.897 230.052 137.993 230.550 138.600 C 231.019 139.172 230.296 140.982 230.850 140.800 C 231.971 140.432 232.726 138.428 233.900 137.500 C 234.516 137.013 235.316 136.703 236.100 136.650 C 236.870 136.598 237.660 136.855 238.350 137.200 C 238.995 137.522 239.543 138.043 240 138.600 C 240.473 139.176 240.464 140.474 241.100 140.550 C 241.714 140.624 241.990 139.410 242.500 138.900 C 243.010 138.390 243.539 137.882 244.150 137.500 C 244.751 137.125 245.398 136.742 246.100 136.650 C 246.849 136.552 247.723 136.529 248.350 136.950 C 248.969 137.366 249.175 138.207 249.450 138.900 C 249.729 139.602 249.972 140.345 250 141.100 C 250.056 142.584 250.088 144.116 249.700 145.550 C 249.515 146.235 248.995 146.904 248.350 147.200 C 247.669 147.512 246.849 147.200 246.100 147.200 C 244.618 147.200 243.130 147.133 241.650 147.200 C 240.911 147.233 240.188 147.450 239.450 147.500 C 238.702 147.550 238.170 147.462 237.200 147.500 C 233.319 147.654 229.434 148.050 225.550 148.050 C 224.579 148.050 224.122 147.928 223.600 147.500 C 223.023 147.027 222.689 146.271 222.500 145.550 C 222.310 144.825 222.550 144.048 222.500 143.300 C 222.450 142.562 222.280 141.835 222.200 141.100 C 222.180 140.916 222.034 140.712 222.200 140.550 Z " transform="matrix(0.3201793134212494, 0.07996754348278046, -0.07996754348278046, 0.3201793134212494, -45.3, -37)"/>
    <path id="ID0.042100869584828615" fill="#0033CC" stroke="#001966" stroke-width="2" stroke-linecap="round" d="M 222.500 140.800 C 222.864 139.900 223.695 139.442 224.450 138.900 C 224.994 138.509 225.458 137.939 226.100 137.750 C 226.819 137.538 227.614 137.609 228.350 137.750 C 229.121 137.897 230.052 137.993 230.550 138.600 C 231.019 139.172 230.296 140.982 230.850 140.800 C 231.971 140.432 232.726 138.428 233.900 137.500 C 234.516 137.013 235.316 136.703 236.100 136.650 C 236.870 136.598 237.660 136.855 238.350 137.200 C 238.995 137.522 239.543 138.043 240 138.600 C 240.473 139.176 240.464 140.474 241.100 140.550 C 241.714 140.624 241.990 139.410 242.500 138.900 C 243.010 138.390 243.539 137.882 244.150 137.500 C 244.751 137.125 245.398 136.742 246.100 136.650 C 246.849 136.552 247.723 136.529 248.350 136.950 C 248.969 137.366 249.175 138.207 249.450 138.900 C 249.729 139.602 249.972 140.345 250 141.100 C 250.056 142.584 250.088 144.116 249.700 145.550 C 249.515 146.235 248.995 146.904 248.350 147.200 C 247.669 147.512 246.849 147.200 246.100 147.200 C 244.618 147.200 243.130 147.133 241.650 147.200 C 240.911 147.233 240.188 147.450 239.450 147.500 C 238.702 147.550 238.170 147.462 237.200 147.500 C 233.319 147.654 229.434 148.050 225.550 148.050 C 224.579 148.050 224.122 147.928 223.600 147.500 C 223.023 147.027 222.689 146.271 222.500 145.550 C 222.310 144.825 222.550 144.048 222.500 143.300 C 222.450 142.562 222.280 141.835 222.200 141.100 C 222.180 140.916 222.034 140.712 222.200 140.550 Z " transform="matrix(0.3201793134212494, 0.07996754348278046, -0.07996754348278046, 0.3201793134212494, -45.7, -35.4)"/>
    <path id="ID0.4275983236730099" fill="none" stroke="#001966" stroke-width="2" stroke-linecap="round" d="M 223.100 154.150 C 223.100 154.150 224.204 153.003 224.900 152.650 C 225.523 152.334 226.255 152.130 226.950 152.200 C 227.655 152.270 228.200 153.160 228.900 153.050 C 229.587 152.942 229.797 151.891 230.450 151.650 C 231.279 151.344 232.237 151.310 233.100 151.500 C 233.822 151.659 234.270 152.530 235 152.650 C 236.381 152.876 237.839 152.172 239.200 152.500 C 239.864 152.660 240.600 154 240.600 154 " transform="matrix(0.4729940891265869, 0.11813434958457947, -0.08571753650903702, 0.34320151805877686, -78.25, -49.85)"/>
  </g>
  <path id="ID0.7726555611006916" fill="none" stroke="#000000" stroke-width="2" stroke-linecap="round" d="M 258.900 203.350 L 263.500 209.950 L 266.550 217.150 L 259.050 231.300 L 267.100 235.700 " transform="matrix(0.48662903904914856, 0.12153979390859604, -0.12153979390859604, 0.48662903904914856, -73.65, -72.8)"/>
  <path id="ID0.7726555611006916" fill="none" stroke="#000000" stroke-width="2" stroke-linecap="round" d="M 258.900 203.350 L 263.500 209.950 L 266.550 217.150 L 259.050 231.300 L 267.100 235.700 " transform="matrix(0.48662903904914856, 0.12153979390859604, -0.12153979390859604, 0.48662903904914856, -92.15, -77.45)"/>
  <path id="ID0.06561596971005201" fill="none" stroke="#FFFF00" stroke-width="2" stroke-linecap="round" d="M 271.700 156.950 L 284.450 152.200 " transform="matrix(1, 0, 0, 1, -219, -133)"/>
  <path id="ID0.5086661698296666" fill="none" stroke="#FFFF00" stroke-width="2" stroke-linecap="round" d="M 274.450 161.400 L 286.700 157.200 " transform="matrix(1, 0, 0, 1, -219, -133)"/>
  <path id="ID0.30397779075428843" fill="none" stroke="#FFFF00" stroke-width="2" stroke-linecap="round" d="M 276.700 165.250 L 287.250 161.950 " transform="matrix(1, 0, 0, 1, -219, -133)"/>
</svg>