<svg version="1.1" width="110" height="25" viewBox="-1 -1 110 25" xmlns="http://www.w3.org/2000/svg" xmlns:xlink="http://www.w3.org/1999/xlink">
  <defs>
    <radialGradient id="grad_1" cx="0.4805" cy="0.4782" r="0.67834">
      <stop offset="0" stop-color="#FF0000" stop-opacity="1"/>
      <stop offset="1" stop-color="#FF0000" stop-opacity="0"/>
    </radialGradient>
  </defs>
  <!-- Exported by Scratch - http://scratch.mit.edu/ -->
  <path id="ID0.9117019455879927" fill="url(#grad_1)" stroke="none" d="M 241 172 C 251.622 172 261.247 173.289 268.216 175.370 C 275.186 177.452 279.500 180.327 279.500 183.500 C 279.500 186.673 275.186 189.548 268.216 191.630 C 261.247 193.711 251.622 195 241 195 C 230.378 195 220.753 193.711 213.784 191.630 C 206.814 189.548 202.500 186.673 202.500 183.500 C 202.500 180.327 206.814 177.452 213.784 175.370 C 220.753 173.289 230.378 172 241 172 Z " transform="matrix(1, 0, 0, 1, -186, -172)"/>
  <path id="ID0.3582058195024729" fill="#FFFFFF" stroke="none" d="M 241.500 174 C 243.914 174 246.102 174.910 247.686 176.381 C 249.270 177.852 250.250 179.883 250.250 182.125 C 250.250 184.367 249.270 186.398 247.686 187.869 C 246.102 189.340 243.914 190.250 241.500 190.250 C 239.086 190.250 236.898 189.340 235.314 187.869 C 233.730 186.398 232.750 184.367 232.750 182.125 C 232.750 179.883 233.730 177.852 235.314 176.381 C 236.898 174.910 239.086 174 241.500 174 Z " transform="matrix(1.8026705980300903, 0, 0, 0.8521156311035156, -380.75, -144.45)"/>
  <path id="ID0.4491854873485863" fill="#FFFFFF" stroke="#FFFFFF" stroke-width="2" stroke-linecap="round" d="M 249 181.750 L 248.750 176 L 291.500 180.500 L 249.250 182 Z " transform="matrix(1, 0, 0, 1, -186, -169)"/>
  <path id="ID0.4491854873485863" fill="#FFFFFF" stroke="#FFFFFF" stroke-width="2" stroke-linecap="round" d="M 249 181.750 L 248.750 176 L 291.500 180.500 L 249.250 182 Z " transform="matrix(-1, 0, 0, 1, 294.75, -168.5)"/>
</svg>