<svg version="1.1" width="140" height="9" viewBox="-1 -1 140 9" xmlns="http://www.w3.org/2000/svg" xmlns:xlink="http://www.w3.org/1999/xlink">
  <defs>
    <radialGradient id="grad_1" cx="0.49090000000000006" cy="0.3333" r="0.8667100000000001">
      <stop offset="0" stop-color="#FFFF00" stop-opacity="1"/>
      <stop offset="1" stop-color="#FFFF00" stop-opacity="0"/>
    </radialGradient>
  </defs>
  <!-- Exported by Scratch - http://scratch.mit.edu/ -->
  <path id="ID0.3582058195024729" fill="#FFFFFF" stroke="none" d="M 241.500 174 C 243.914 174 246.102 174.910 247.686 176.381 C 249.270 177.852 250.250 179.883 250.250 182.125 C 250.250 184.367 249.270 186.398 247.686 187.869 C 246.102 189.340 243.914 190.250 241.500 190.250 C 239.086 190.250 236.898 189.340 235.314 187.869 C 233.730 186.398 232.750 184.367 232.750 182.125 C 232.750 179.883 233.730 177.852 235.314 176.381 C 236.898 174.910 239.086 174 241.500 174 Z " transform="matrix(1.8026705980300903, 0, 0, 0.17384982109069824, -359.75, -27.8)"/>
  <path id="ID0.4491854873485863" fill="#FFFFFF" stroke="#FFFFFF" stroke-width="2" stroke-linecap="round" d="M 249 181.750 L 248.750 176 L 291.500 180.500 L 249.250 182 Z " transform="matrix(1, 0, 0, 0.2040213942527771, -165, -32.8)"/>
  <path id="ID0.4491854873485863" fill="#FFFFFF" stroke="#FFFFFF" stroke-width="2" stroke-linecap="round" d="M 249 181.750 L 248.750 176 L 291.500 180.500 L 249.250 182 Z " transform="matrix(-1, 0, 0, 0.2040213942527771, 315.75, -32.65)"/>
  <path id="ID0.2743605109862983" fill="url(#grad_1)" stroke="none" d="M 235.750 176.500 C 254.856 176.500 272.168 176.920 284.704 177.599 C 297.240 178.278 305 179.215 305 180.250 C 305 181.285 297.240 182.222 284.704 182.901 C 272.168 183.580 254.856 184 235.750 184 C 216.644 184 199.332 183.580 186.796 182.901 C 174.260 182.222 166.500 181.285 166.500 180.250 C 166.500 179.215 174.260 178.278 186.796 177.599 C 199.332 176.920 216.644 176.500 235.750 176.500 Z " transform="matrix(1, 0, 0, 1, -166, -176)"/>
</svg>