<svg version="1.1" width="99" height="84" viewBox="0 -1 99 84" xmlns="http://www.w3.org/2000/svg" xmlns:xlink="http://www.w3.org/1999/xlink">
  <defs>
    <linearGradient id="grad_1" y2="1">
      <stop offset="0" stop-color="#FFFF00" stop-opacity="1"/>
      <stop offset="1" stop-color="#FFFF00" stop-opacity="0"/>
    </linearGradient>
    <linearGradient id="grad_2" y2="1">
      <stop offset="0" stop-color="#FFFF00" stop-opacity="1"/>
      <stop offset="1" stop-color="#FFFF00" stop-opacity="0"/>
    </linearGradient>
  </defs>
  <!-- Exported by Scratch - http://scratch.mit.edu/ -->
  <g id="ID0.5088273035362363" transform="matrix(1, 0, 0, 1, 0, 6)">
    <path id="ID0.680017416831106" fill="#3A2100" stroke="none" stroke-linecap="round" d="M 231.800 200.550 C 234.301 210.222 233.856 221.179 230.500 230.500 C 229.564 233.098 222.939 232.275 222.250 229.600 C 219.757 219.919 219.342 209.149 222.300 199.700 C 223.430 196.716 231.035 197.551 231.800 200.550 Z " transform="matrix(0.7821633815765381, 0, 0, 1.024565577507019, -131.05, -156.55)"/>
    <path id="ID0.6309642544947565" fill="#000000" stroke="#000000" stroke-width="2" stroke-linecap="round" d="M 249.500 220 C 249.823 221.335 249.996 221.734 250.750 221.750 C 253.769 221.813 257.123 222.895 259.800 221.500 C 261.002 220.956 259.785 218.575 258.750 217.750 C 257.706 216.919 256.083 217.556 254.750 217.500 C 254.085 217.472 253.405 217.377 252.750 217.500 C 252.051 217.631 251.314 217.816 250.750 218.250 C 250.182 218.687 249.575 219.292 249.500 220 Z " transform="matrix(0.7821633815765381, 0, 0, 1.3826661109924316, -151.45, -225.25)"/>
  </g>
  <g id="ID0.5088273035362363" transform="matrix(1, 0, 0, 1, 0, 6)">
    <path id="ID0.680017416831106" fill="#663B00" stroke="none" stroke-linecap="round" d="M 231.800 200.550 C 234.301 210.222 233.856 221.179 230.500 230.500 C 229.564 233.098 222.939 232.275 222.250 229.600 C 219.757 219.919 219.342 209.149 222.300 199.700 C 223.430 196.716 231.035 197.551 231.800 200.550 Z " transform="matrix(0.7821633815765381, 0, 0, 1.024565577507019, -144.2, -156.8)"/>
    <path id="ID0.6309642544947565" fill="#000000" stroke="#000000" stroke-width="2" stroke-linecap="round" d="M 249.500 220 C 249.823 221.335 249.996 221.734 250.750 221.750 C 253.769 221.813 257.123 222.895 259.800 221.500 C 261.002 220.956 259.785 218.575 258.750 217.750 C 257.706 216.919 256.083 217.556 254.750 217.500 C 254.085 217.472 253.405 217.377 252.750 217.500 C 252.051 217.631 251.314 217.816 250.750 218.250 C 250.182 218.687 249.575 219.292 249.500 220 Z " transform="matrix(0.7821633815765381, 0, 0, 1.3826661109924316, -164.6, -225.45)"/>
  </g>
  <path id="ID0.8365832129493356" fill="none" stroke="#666666" stroke-width="2" stroke-linecap="round" d="M 177.350 190 " transform="matrix(1, 0, 0, 1, -208, -151)"/>
  <path id="ID0.8365832129493356" fill="none" stroke="#666666" stroke-width="2" stroke-linecap="round" d="M 177.350 190 " transform="matrix(1, 0, 0, 1, -202, -184)"/>
  <path id="ID0.8365832129493356" fill="none" stroke="#666666" stroke-width="2" stroke-linecap="round" d="M 177.350 190 " transform="matrix(1, 0, 0, 1, -360, -250)"/>
  <path id="ID0.8365832129493356" fill="none" stroke="#666666" stroke-width="2" stroke-linecap="round" d="M 177.350 190 " transform="matrix(1, 0, 0, 1, -321, -91)"/>
  <path id="ID0.8365832129493356" fill="none" stroke="#666666" stroke-width="2" stroke-linecap="round" d="M 177.350 190 " transform="matrix(1, 0, 0, 1, -206, -294)"/>
  <path id="ID0.8092106799595058" fill="#FFD499" stroke="none" d="M 242.925 158.500 C 247.801 158.500 252.220 160.621 255.420 164.047 C 258.619 167.472 260.600 172.204 260.600 177.425 C 260.600 182.646 258.619 187.378 255.420 190.803 C 252.220 194.229 247.801 196.350 242.925 196.350 C 238.049 196.350 233.630 194.229 230.430 190.803 C 227.231 187.378 225.250 182.646 225.250 177.425 C 225.250 172.204 227.231 167.472 230.430 164.047 C 233.630 160.621 238.049 158.500 242.925 158.500 Z " transform="matrix(1.125704050064087, -0.2722916305065155, 0.23029859364032745, 0.9520970582962036, -278.35, -73.95)"/>
  <path id="ID0.14808626752346754" fill="none" stroke="#000000" stroke-width="1" stroke-linecap="round" d="M 231.250 175.750 L 246.800 175.800 " transform="matrix(0.8958234190940857, -0.21668681502342224, 0.183269202709198, 0.7576688528060913, -205.05, -56.7)"/>
  <path id="ID0.5513844583183527" fill="#FFFFFF" stroke="#000000" stroke-width="1" d="M 233.125 160 C 234.332 160 235.426 160.476 236.218 161.246 C 237.010 162.015 237.500 163.077 237.500 164.250 C 237.500 165.423 237.010 166.485 236.218 167.254 C 235.426 168.024 234.332 168.500 233.125 168.500 C 231.918 168.500 230.824 168.024 230.032 167.254 C 229.240 166.485 228.750 165.423 228.750 164.250 C 228.750 163.077 229.240 162.015 230.032 161.246 C 230.824 160.476 231.918 160 233.125 160 Z " transform="matrix(0.8958234190940857, -0.21668681502342224, 0.183269202709198, 0.7576688528060913, -204.5, -55.9)"/>
  <path id="ID0.5513844583183527" fill="#FFFFFF" stroke="#000000" stroke-width="1" d="M 233.125 160 C 234.332 160 235.426 160.476 236.218 161.246 C 237.010 162.015 237.500 163.077 237.500 164.250 C 237.500 165.423 237.010 166.485 236.218 167.254 C 235.426 168.024 234.332 168.500 233.125 168.500 C 231.918 168.500 230.824 168.024 230.032 167.254 C 229.240 166.485 228.750 165.423 228.750 164.250 C 228.750 163.077 229.240 162.015 230.032 161.246 C 230.824 160.476 231.918 160 233.125 160 Z " transform="matrix(0.7038317322731018, -0.17024677991867065, 0.18428175151348114, 0.761854887008667, -150.45, -69.45)"/>
  <path id="ID0.7196033955551684" fill="none" stroke="#000000" stroke-width="2" stroke-linecap="round" d="M 233 166.500 L 233.300 166.800 " transform="matrix(0.8958234190940857, -0.21668681502342224, 0.183269202709198, 0.7576688528060913, -202.9, -57.9)"/>
  <path id="ID0.286019139457494" fill="none" stroke="#000000" stroke-width="2" stroke-linecap="round" d="M 247.500 166.250 L 247.800 166.550 " transform="matrix(0.7038317322731018, -0.17024677991867065, 0.1950584501028061, 0.8064078092575073, -161.45, -75.55)"/>
  <path id="ID0.032828168012201786" fill="#0138B1" stroke="#023993" stroke-width="1" d="M 208.125 174 C 211.263 174 214.107 174.462 216.166 175.209 C 218.225 175.956 219.500 176.987 219.500 178.125 C 219.500 179.263 218.225 180.294 216.166 181.041 C 214.107 181.788 211.263 182.250 208.125 182.250 C 204.987 182.250 202.143 181.788 200.084 181.041 C 198.025 180.294 196.750 179.263 196.750 178.125 C 196.750 176.987 198.025 175.956 200.084 175.209 C 202.143 174.462 204.987 174 208.125 174 Z " transform="matrix(-0.8922342658042908, 0.27942511439323425, 0.12427186220884323, 0.8636415004730225, 226.4, -185.8)"/>
  <path id="ID0.10849038045853376" fill="#C5A377" stroke="#B4956C" stroke-width="2" d="M 205.375 191.250 C 206.927 191.250 208.333 191.852 209.351 192.825 C 210.370 193.798 211 195.142 211 196.625 C 211 198.108 210.370 199.452 209.351 200.425 C 208.333 201.398 206.927 202 205.375 202 C 203.823 202 202.417 201.398 201.399 200.425 C 200.380 199.452 199.750 198.108 199.750 196.625 C 199.750 195.142 200.380 193.798 201.399 192.825 C 202.417 191.852 203.823 191.250 205.375 191.250 Z " transform="matrix(0.8958234190940857, -0.21668681502342224, 0.183269202709198, 0.7576688528060913, -146.7, -82.8)"/>
  <path id="ID0.3222357570193708" fill="none" stroke="#000000" stroke-width="1" stroke-linecap="round" d="M 332.100 155.250 C 332.100 155.250 331.336 155.529 331 155.750 C 330.695 155.951 330.401 156.195 330.200 156.500 C 330.006 156.795 329.885 157.149 329.850 157.500 C 329.816 157.835 329.833 158.208 330 158.500 C 330.187 158.828 330.537 159.039 330.850 159.250 C 331.158 159.458 331.483 159.689 331.850 159.750 C 332.034 159.781 332.350 159.500 332.350 159.500 " transform="matrix(-1.1068625450134277, 0.2677341401576996, 0.19958359003067017, 0.8251155614852905, 376, -197.55)"/>
  <path id="ID0.8365832129493356" fill="none" stroke="#666666" stroke-width="2" stroke-linecap="round" d="M 177.350 190 " transform="matrix(1, 0, 0, 1, -15, -43)"/>
  <path id="ID0.8365832129493356" fill="none" stroke="#666666" stroke-width="2" stroke-linecap="round" d="M 177.350 190 " transform="matrix(1, 0, 0, 1, -200, -121)"/>
  <path id="ID0.8365832129493356" fill="none" stroke="#666666" stroke-width="2" stroke-linecap="round" d="M 177.350 190 " transform="matrix(1, 0, 0, 1, -1, -51)"/>
  <path id="ID0.8365832129493356" fill="none" stroke="#666666" stroke-width="2" stroke-linecap="round" d="M 177.350 190 " transform="matrix(1, 0, 0, 1, -212, -41)"/>
  <path id="ID0.8092106799595058" fill="#003FFF" stroke="#0142D2" stroke-width="2" d="M 226.550 179.700 C 237.434 178.545 248.476 178.630 259.600 178.750 C 262.374 178.771 260.758 178.370 260.650 180.050 C 260.219 186.765 260.127 193.669 258.150 200.100 C 257.515 202.165 255.447 204.120 253.350 204.550 C 246.917 205.594 240.210 205.349 233.850 204.300 C 230.985 203.828 227.483 202.523 226.350 199.850 C 224.056 194.436 224.924 188.230 224.900 182.400 C 224.877 180.942 223.706 179.989 226.550 179.700 Z " transform="matrix(1.125704050064087, -0.2722916305065155, 0.23029859364032745, 0.9520970582962036, -278.1, -73.45)"/>
  <g id="ID0.8711371798999608" transform="matrix(1, 0, 0, 1, 0, 6)">
    <path id="ID0.032828168012201786" fill="#119AD9" stroke="#0F89C1" stroke-width="1" d="M 208.125 174 C 211.263 174 214.107 174.462 216.166 175.209 C 218.225 175.956 219.500 176.987 219.500 178.125 C 219.500 179.263 218.225 180.294 216.166 181.041 C 214.107 181.788 211.263 182.250 208.125 182.250 C 204.987 182.250 202.143 181.788 200.084 181.041 C 198.025 180.294 196.750 179.263 196.750 178.125 C 196.750 176.987 198.025 175.956 200.084 175.209 C 202.143 174.462 204.987 174 208.125 174 Z " transform="matrix(0.44244250655174255, -0.8236534595489502, 0.8247890472412109, 0.28468069434165955, -226.2, 158.7)"/>
    <path id="ID0.10849038045853376" fill="#FFD499" stroke="#DCB684" stroke-width="2" d="M 205.375 191.250 C 206.927 191.250 208.333 191.852 209.351 192.825 C 210.370 193.798 211 195.142 211 196.625 C 211 198.108 210.370 199.452 209.351 200.425 C 208.333 201.398 206.927 202 205.375 202 C 203.823 202 202.417 201.398 201.399 200.425 C 200.380 199.452 199.750 198.108 199.750 196.625 C 199.750 195.142 200.380 193.798 201.399 192.825 C 202.417 191.852 203.823 191.250 205.375 191.250 Z " transform="matrix(0.8958234786987305, -0.21668681502342224, 0.183269202709198, 0.7576688528060913, -212.1, -58.9)"/>
  </g>
  <path id="ID0.5092188171111047" fill="url(#grad_1)" stroke="url(#grad_2)" stroke-width="2" stroke-linecap="round" d="M 269.450 147.250 L 262.750 131.700 L 268.900 117.800 L 271.100 127.250 L 281.650 120 L 279.450 130.600 L 293.300 135 L 281.100 140 L 289.450 144.450 L 269.450 147.250 Z " transform="matrix(1, 0, 0, 1, -195, -116)"/>
</svg>