<svg version="1.1" width="19" height="36" viewBox="-1 1 19 36" xmlns="http://www.w3.org/2000/svg" xmlns:xlink="http://www.w3.org/1999/xlink">
  <!-- Exported by Scratch - http://scratch.mit.edu/ -->
  <path id="ID0.8365832129493356" fill="none" stroke="#666666" stroke-width="2" stroke-linecap="round" d="M 177.350 190 " transform="matrix(1, 0, 0, 1, -278, -247)"/>
  <path id="ID0.8365832129493356" fill="none" stroke="#666666" stroke-width="2" stroke-linecap="round" d="M 177.350 190 " transform="matrix(1, 0, 0, 1, -436, -313)"/>
  <path id="ID0.8365832129493356" fill="none" stroke="#666666" stroke-width="2" stroke-linecap="round" d="M 177.350 190 " transform="matrix(1, 0, 0, 1, -397, -154)"/>
  <path id="ID0.8365832129493356" fill="none" stroke="#666666" stroke-width="2" stroke-linecap="round" d="M 177.350 190 " transform="matrix(1, 0, 0, 1, -282, -357)"/>
  <path id="ID0.8365832129493356" fill="none" stroke="#666666" stroke-width="2" stroke-linecap="round" d="M 177.350 190 " transform="matrix(1, 0, 0, 1, -91, -106)"/>
  <path id="ID0.8365832129493356" fill="none" stroke="#666666" stroke-width="2" stroke-linecap="round" d="M 177.350 190 " transform="matrix(1, 0, 0, 1, -276, -184)"/>
  <path id="ID0.8365832129493356" fill="none" stroke="#666666" stroke-width="2" stroke-linecap="round" d="M 177.350 190 " transform="matrix(1, 0, 0, 1, -77, -114)"/>
  <path id="ID0.8365832129493356" fill="none" stroke="#666666" stroke-width="2" stroke-linecap="round" d="M 177.350 190 " transform="matrix(1, 0, 0, 1, -288, -104)"/>
  <path id="ID0.8365832129493356" fill="none" stroke="#666666" stroke-width="2" stroke-linecap="round" d="M 177.350 190 " transform="matrix(1, 0, 0, 1, -430, -190)"/>
  <path id="ID0.8365832129493356" fill="none" stroke="#666666" stroke-width="2" stroke-linecap="round" d="M 177.350 190 " transform="matrix(1, 0, 0, 1, -588, -256)"/>
  <path id="ID0.8365832129493356" fill="none" stroke="#666666" stroke-width="2" stroke-linecap="round" d="M 177.350 190 " transform="matrix(1, 0, 0, 1, -549, -97)"/>
  <path id="ID0.8365832129493356" fill="none" stroke="#666666" stroke-width="2" stroke-linecap="round" d="M 177.350 190 " transform="matrix(1, 0, 0, 1, -434, -300)"/>
  <path id="ID0.8365832129493356" fill="none" stroke="#666666" stroke-width="2" stroke-linecap="round" d="M 177.350 190 " transform="matrix(1, 0, 0, 1, -243, -49)"/>
  <path id="ID0.8365832129493356" fill="none" stroke="#666666" stroke-width="2" stroke-linecap="round" d="M 177.350 190 " transform="matrix(1, 0, 0, 1, -428, -127)"/>
  <path id="ID0.8365832129493356" fill="none" stroke="#666666" stroke-width="2" stroke-linecap="round" d="M 177.350 190 " transform="matrix(1, 0, 0, 1, -229, -57)"/>
  <path id="ID0.8365832129493356" fill="none" stroke="#666666" stroke-width="2" stroke-linecap="round" d="M 177.350 190 " transform="matrix(1, 0, 0, 1, -440, -47)"/>
  <g id="ID0.35447443975135684" transform="matrix(0.34459197521209717, 0.4045545756816864, -0.4045545756816864, 0.34459197521209717, -1.55, -26.4)">
    <path id="ID0.2186891157180071" fill="#FFD499" stroke="#E6CD86" stroke-width="2" stroke-linecap="round" d="M 183.900 144.200 C 182.925 145.300 182.243 145.529 181.650 145.850 C 181.016 146.193 180.457 146.693 180 147.250 C 179.527 147.826 179.082 148.477 178.900 149.200 C 178.424 151.093 177.773 153.068 178.050 155 C 178.250 156.391 179.417 157.468 180.250 158.600 C 180.724 159.245 181.362 159.756 181.950 160.300 C 182.479 160.789 183.600 161.007 183.600 161.700 C 183.600 162.382 182.425 162.523 181.950 163.050 C 181.498 163.551 181.282 164.233 180.850 164.750 C 180.344 165.355 179.485 165.686 179.150 166.400 C 178.794 167.157 178.900 168.063 178.900 168.900 C 178.900 169.737 178.841 170.623 179.150 171.400 C 179.416 172.070 180.065 172.517 180.550 173.050 C 181.081 173.633 181.595 174.244 182.200 174.750 C 182.717 175.182 183.305 175.532 183.900 175.850 C 184.525 176.184 185.147 176.613 185.850 176.700 C 186.682 176.803 187.568 176.702 188.350 176.400 C 189.083 176.117 189.673 175.533 190.250 175 C 190.779 174.511 191.184 173.899 191.650 173.350 C 192.116 172.801 192.707 172.334 193.050 171.700 C 193.371 171.107 193.466 170.411 193.600 169.750 C 193.750 169.009 193.945 168.255 193.900 167.500 C 193.860 166.827 193.620 166.168 193.350 165.550 C 193.049 164.859 192.688 164.175 192.200 163.600 C 191.741 163.059 190.550 162.960 190.550 162.250 C 190.550 161.461 191.754 161.201 192.200 160.550 C 192.600 159.966 192.824 159.271 193.050 158.600 C 193.291 157.884 193.549 157.153 193.600 156.400 C 193.650 155.664 193.586 154.899 193.350 154.200 C 193.109 153.486 192.537 152.924 192.200 152.250 C 191.886 151.622 191.797 150.879 191.400 150.300 C 190.948 149.639 190.284 149.147 189.700 148.600 C 188.702 147.665 187.853 146.501 186.650 145.850 C 185.742 145.359 184.632 145.300 183.600 145.300 Z " transform="matrix(1, 0, 0, 1, -117.85, -131.35)"/>
    <path id="ID0.12265920173376799" fill="none" stroke="#E6CD86" stroke-width="2" stroke-linecap="round" d="M 178.600 152.800 C 178.600 152.800 180.618 153.406 181.650 153.600 C 182.572 153.773 183.514 153.847 184.450 153.900 C 185.281 153.947 186.124 154.002 186.950 153.900 C 187.620 153.817 188.265 153.578 188.900 153.350 C 189.567 153.111 190.850 152.500 190.850 152.500 " transform="matrix(1, 0, 0, 1, -117.85, -131.35)"/>
    <path id="ID0.04314426006749272" fill="none" stroke="#E6CD86" stroke-width="2" stroke-linecap="round" d="M 181.650 158.900 C 181.650 158.900 184.009 159.826 185.250 160 C 187.363 160.296 191.650 160.300 191.650 160.300 " transform="matrix(1, 0, 0, 1, -117.85, -131.35)"/>
    <path id="ID0.6701030004769564" fill="none" stroke="#E6CD86" stroke-width="2" stroke-linecap="round" d="M 179.150 166.700 C 179.150 166.700 180.818 166.864 181.650 166.950 C 182.583 167.047 183.513 167.202 184.450 167.250 C 185.464 167.302 186.489 167.346 187.500 167.250 C 188.430 167.162 189.343 166.922 190.250 166.700 C 190.910 166.539 191.594 166.407 192.200 166.100 C 192.729 165.832 193.600 165 193.600 165 " transform="matrix(1, 0, 0, 1, -117.85, -131.35)"/>
    <path id="ID0.8635134850628674" fill="none" stroke="#E6CD86" stroke-width="2" stroke-linecap="round" d="M 180.850 171.950 C 180.850 171.950 184.744 172.024 186.650 171.700 C 188.010 171.469 189.264 170.801 190.550 170.300 C 190.932 170.151 191.650 169.750 191.650 169.750 " transform="matrix(1, 0, 0, 1, -117.85, -131.35)"/>
    <path id="ID0.8934063892811537" fill="none" stroke="#E6CD86" stroke-width="2" stroke-linecap="round" d="M 182.500 145.300 C 182.500 145.300 182.261 147.498 182.200 148.600 C 182.077 150.829 182.088 153.072 181.950 155.300 C 181.904 156.038 181.700 156.762 181.650 157.500 C 181.600 158.248 181.650 159.750 181.650 159.750 " transform="matrix(1, 0, 0, 1, -117.85, -131.35)"/>
    <path id="ID0.8541403189301491" fill="none" stroke="#E6CD86" stroke-width="2" stroke-linecap="round" d="M 182.200 163.900 C 182.200 163.900 182.368 166.671 182.500 168.050 C 182.651 169.635 182.876 171.217 183.050 172.800 C 183.094 173.196 183.050 173.050 183.050 173.050 " transform="matrix(1, 0, 0, 1, -117.85, -131.35)"/>
    <path id="ID0.08545873034745455" fill="none" stroke="#E6CD86" stroke-width="2" stroke-linecap="round" d="M 188.350 149.450 C 188.350 149.450 187.850 152 187.750 153.350 C 187.650 154.050 187.750 154.800 187.750 155.550 C 187.750 157 187.750 158.500 187.750 160 C 187.750 160.350 187.750 160.300 187.750 160.300 C 188.050 160.300 188.679 163.057 188.900 164.450 C 189.046 165.375 189.210 166.316 189.150 167.250 C 189.026 169.196 188.350 173.050 188.350 173.050 " transform="matrix(1, 0, 0, 1, -117.85, -131.35)"/>
  </g>
</svg>