<svg version="1.1" width="35" height="35" viewBox="-1 -1 35 35" xmlns="http://www.w3.org/2000/svg" xmlns:xlink="http://www.w3.org/1999/xlink">
  <!-- Exported by Scratch - http://scratch.mit.edu/ -->
  <g id="ID0.4643519828096032" transform="matrix(1.4518518447875977, 0, 0, 1.4518518447875977, 0, 0)">
    <path id="ID0.761267748195678" fill="#B2B2B2" stroke="#7F7F7F" stroke-width="2" d="M 210.500 158 L 259.750 158 L 259.750 207.250 L 210.500 207.250 L 210.500 158 Z " transform="matrix(0.6585366129875183, 0, 0, 0.6585366129875183, -137.75, -103.1)"/>
    <path id="ID0.5633180253207684" fill="none" stroke="#A5A5A5" stroke-width="2" stroke-linecap="round" d="M 216.250 159.750 C 215.974 159.899 213.722 161.948 213.250 163.250 C 213.046 163.824 214.924 162.598 215.750 162.250 C 216.506 161.932 217.226 161.519 218 161.250 C 219.145 160.852 220.329 159.938 221.500 160.250 C 222.149 160.423 221.896 161.595 221.750 162.250 C 221.548 163.159 221.032 163.986 220.500 164.750 C 219.690 165.914 218.725 166.971 217.750 168 C 217.222 168.557 216.562 168.978 216 169.500 C 215.396 170.061 214.790 170.627 214.250 171.250 C 213.705 171.879 211.402 173.557 212.750 173.250 C 218.140 172.021 223.241 169.706 228.500 168 C 229.815 167.574 230.337 167.511 231.250 167.250 C 232.086 167.011 232.925 166.775 233.750 166.500 C 234.425 166.275 235.105 166.051 235.750 165.750 C 236.358 165.466 236.900 165.050 237.500 164.750 C 238.566 164.217 239.659 163.730 240.750 163.250 C 241.741 162.814 243.597 161.643 243.750 162 C 243.903 162.357 242.383 164.117 241.500 165 C 240.369 166.131 239.051 167.070 237.750 168 C 234.969 169.986 232.068 171.816 229.250 173.750 C 227.822 174.730 226.435 175.779 225 176.750 C 223.604 177.695 222.146 178.555 220.750 179.500 C 219.564 180.303 218.347 181.079 217.250 182 C 216.258 182.833 213.895 184.145 214.500 184.750 C 215.395 185.645 218.333 185 220.250 185 C 221.087 185 221.946 184.980 222.750 184.750 C 225.459 183.976 228.107 182.974 230.750 182 C 232.853 181.225 235.006 180.524 237 179.500 C 238.111 178.930 238.973 177.961 240 177.250 C 241.139 176.461 242.312 175.713 243.500 175 C 244.394 174.463 245.317 173.966 246.250 173.500 C 247.483 172.884 250.644 170.743 250 171.750 C 247.769 175.243 243.825 179.070 240.500 182.500 C 238.571 184.491 236.299 186.132 234.250 188 C 233.467 188.714 232.749 189.501 232 190.250 C 231.251 190.999 230.564 191.822 229.750 192.500 C 229.058 193.076 228.220 193.460 227.500 194 C 226.886 194.461 226.354 195.026 225.750 195.500 C 225.187 195.942 223.200 197.008 224 196.750 C 227.201 195.717 230.326 194.221 233.500 193 C 234.655 192.556 235.867 192.248 237 191.750 C 239.284 190.747 241.564 189.702 243.750 188.500 C 244.903 187.866 245.893 186.962 247 186.250 C 248.225 185.463 249.555 184.832 250.750 184 C 251.476 183.495 252.666 182.040 252.750 182.250 C 252.834 182.460 251.892 184.336 251.250 185.250 C 249.718 187.431 248.053 189.537 246.250 191.500 C 245.211 192.630 243.971 193.570 242.750 194.500 C 242.216 194.907 241.541 195.103 241 195.500 C 240.286 196.023 238.603 196.803 239 197.250 C 239.603 197.928 241.665 197.894 243 197.750 C 244.808 197.555 246.531 196.843 248.250 196.250 C 248.954 196.007 249.564 195.539 250.250 195.250 C 251.148 194.872 253.044 193.636 253 194.250 C 252.921 195.356 251.131 197.348 250 198.750 C 249.039 199.941 246.550 201.199 246.750 202 C 246.925 202.699 249.425 201.909 250.750 201.750 C 251.512 201.659 252.297 201.558 253 201.250 C 253.656 200.963 254.597 199.797 254.750 200 C 254.903 200.203 254.178 201.550 253.750 202.250 C 253.255 203.060 251.658 204.215 252 204.500 C 252.352 204.793 254.154 203.786 255.250 203.500 C 256.071 203.286 257.653 202.757 257.750 203 C 257.847 203.243 256.524 204.320 255.750 204.750 C 254.990 205.172 254.102 205.330 253.250 205.500 C 252.015 205.747 250.753 205.866 249.500 206 C 248.421 206.116 247.313 206.471 246.250 206.250 C 245.229 206.037 244.111 205.596 243.500 204.750 C 242.907 203.929 243 202.763 243 201.750 C 243 200.901 243.137 200.017 243.500 199.250 C 243.906 198.392 244.619 197.709 245.250 197 C 245.954 196.208 246.735 195.483 247.500 194.750 C 248.733 193.568 250.042 192.458 251.250 191.250 C 251.959 190.541 254.037 188.934 253.250 189 C 251.037 189.184 247.907 190.814 245.250 191.750 C 241.996 192.896 238.773 194.159 235.500 195.250 C 234.523 195.576 233.502 195.761 232.500 196 C 231.753 196.178 230.793 197.043 230.250 196.500 C 229.476 195.726 229.395 194.286 229.750 193.250 C 230.454 191.196 231.906 189.455 233.250 187.750 C 234.089 186.685 235.256 185.921 236.250 185 C 237.503 183.839 238.707 182.616 240 181.500 C 240.542 181.032 241.918 180.334 241.750 180.250 C 241.582 180.166 239.879 180.641 239 181 C 236.207 182.143 233.538 183.594 230.750 184.750 C 230.053 185.039 229.433 185.179 228.750 185.250 C 227.009 185.430 225.249 185.556 223.500 185.500 C 222.651 185.473 221.509 185.679 221 185 C 220.294 184.058 220.327 182.665 220.500 181.500 C 220.675 180.321 221.380 179.268 222 178.250 C 222.554 177.339 223.280 176.536 224 175.750 C 225.114 174.535 226.309 173.389 227.500 172.250 C 228.224 171.557 229.063 170.980 229.750 170.250 C 230.401 169.559 231.639 168.557 231.500 168 C 231.389 167.557 229.992 168.115 229.250 168.250 C 228.157 168.449 227.081 168.746 226 169 C 224.251 169.412 222.525 169.970 220.750 170.250 C 219.350 170.471 217.731 171.203 216.500 170.500 C 215.517 169.938 215.419 168.379 215.500 167.250 C 215.596 165.908 216.533 164.761 217 163.500 C 217.366 162.513 218.418 161.406 218 160.500 C 217.668 159.781 215.761 160.772 215.500 160.250 C 215.261 159.772 216.495 159.078 217 158.500 C 217.126 158.356 217.534 157.890 217.250 158.250 Z " transform="matrix(0.6585366129875183, 0, 0, 0.6585366129875183, -137.75, -103.1)"/>
    <path id="ID0.5633180253207684" fill="none" stroke="#A5A5A5" stroke-width="2" stroke-linecap="round" d="M 216.250 159.750 C 215.974 159.899 213.722 161.948 213.250 163.250 C 213.046 163.824 214.924 162.598 215.750 162.250 C 216.506 161.932 217.226 161.519 218 161.250 C 219.145 160.852 220.329 159.938 221.500 160.250 C 222.149 160.423 221.896 161.595 221.750 162.250 C 221.548 163.159 221.032 163.986 220.500 164.750 C 219.690 165.914 218.725 166.971 217.750 168 C 217.222 168.557 216.562 168.978 216 169.500 C 215.396 170.061 214.790 170.627 214.250 171.250 C 213.705 171.879 211.402 173.557 212.750 173.250 C 218.140 172.021 223.241 169.706 228.500 168 C 229.815 167.574 230.337 167.511 231.250 167.250 C 232.086 167.011 232.925 166.775 233.750 166.500 C 234.425 166.275 235.105 166.051 235.750 165.750 C 236.358 165.466 236.900 165.050 237.500 164.750 C 238.566 164.217 239.659 163.730 240.750 163.250 C 241.741 162.814 243.597 161.643 243.750 162 C 243.903 162.357 242.383 164.117 241.500 165 C 240.369 166.131 239.051 167.070 237.750 168 C 234.969 169.986 232.068 171.816 229.250 173.750 C 227.822 174.730 226.435 175.779 225 176.750 C 223.604 177.695 222.146 178.555 220.750 179.500 C 219.564 180.303 218.347 181.079 217.250 182 C 216.258 182.833 213.895 184.145 214.500 184.750 C 215.395 185.645 218.333 185 220.250 185 C 221.087 185 221.946 184.980 222.750 184.750 C 225.459 183.976 228.107 182.974 230.750 182 C 232.853 181.225 235.006 180.524 237 179.500 C 238.111 178.930 238.973 177.961 240 177.250 C 241.139 176.461 242.312 175.713 243.500 175 C 244.394 174.463 245.317 173.966 246.250 173.500 C 247.483 172.884 250.644 170.743 250 171.750 C 247.769 175.243 243.825 179.070 240.500 182.500 C 238.571 184.491 236.299 186.132 234.250 188 C 233.467 188.714 232.749 189.501 232 190.250 C 231.251 190.999 230.564 191.822 229.750 192.500 C 229.058 193.076 228.220 193.460 227.500 194 C 226.886 194.461 226.354 195.026 225.750 195.500 C 225.187 195.942 223.200 197.008 224 196.750 C 227.201 195.717 230.326 194.221 233.500 193 C 234.655 192.556 235.867 192.248 237 191.750 C 239.284 190.747 241.564 189.702 243.750 188.500 C 244.903 187.866 245.893 186.962 247 186.250 C 248.225 185.463 249.555 184.832 250.750 184 C 251.476 183.495 252.666 182.040 252.750 182.250 C 252.834 182.460 251.892 184.336 251.250 185.250 C 249.718 187.431 248.053 189.537 246.250 191.500 C 245.211 192.630 243.971 193.570 242.750 194.500 C 242.216 194.907 241.541 195.103 241 195.500 C 240.286 196.023 238.603 196.803 239 197.250 C 239.603 197.928 241.665 197.894 243 197.750 C 244.808 197.555 246.531 196.843 248.250 196.250 C 248.954 196.007 249.564 195.539 250.250 195.250 C 251.148 194.872 253.044 193.636 253 194.250 C 252.921 195.356 251.131 197.348 250 198.750 C 249.039 199.941 246.550 201.199 246.750 202 C 246.925 202.699 249.425 201.909 250.750 201.750 C 251.512 201.659 252.297 201.558 253 201.250 C 253.656 200.963 254.597 199.797 254.750 200 C 254.903 200.203 254.178 201.550 253.750 202.250 C 253.255 203.060 251.658 204.215 252 204.500 C 252.352 204.793 254.154 203.786 255.250 203.500 C 256.071 203.286 257.653 202.757 257.750 203 C 257.847 203.243 256.524 204.320 255.750 204.750 C 254.990 205.172 254.102 205.330 253.250 205.500 C 252.015 205.747 250.753 205.866 249.500 206 C 248.421 206.116 247.313 206.471 246.250 206.250 C 245.229 206.037 244.111 205.596 243.500 204.750 C 242.907 203.929 243 202.763 243 201.750 C 243 200.901 243.137 200.017 243.500 199.250 C 243.906 198.392 244.619 197.709 245.250 197 C 245.954 196.208 246.735 195.483 247.500 194.750 C 248.733 193.568 250.042 192.458 251.250 191.250 C 251.959 190.541 254.037 188.934 253.250 189 C 251.037 189.184 247.907 190.814 245.250 191.750 C 241.996 192.896 238.773 194.159 235.500 195.250 C 234.523 195.576 233.502 195.761 232.500 196 C 231.753 196.178 230.793 197.043 230.250 196.500 C 229.476 195.726 229.395 194.286 229.750 193.250 C 230.454 191.196 231.906 189.455 233.250 187.750 C 234.089 186.685 235.256 185.921 236.250 185 C 237.503 183.839 238.707 182.616 240 181.500 C 240.542 181.032 241.918 180.334 241.750 180.250 C 241.582 180.166 239.879 180.641 239 181 C 236.207 182.143 233.538 183.594 230.750 184.750 C 230.053 185.039 229.433 185.179 228.750 185.250 C 227.009 185.430 225.249 185.556 223.500 185.500 C 222.651 185.473 221.509 185.679 221 185 C 220.294 184.058 220.327 182.665 220.500 181.500 C 220.675 180.321 221.380 179.268 222 178.250 C 222.554 177.339 223.280 176.536 224 175.750 C 225.114 174.535 226.309 173.389 227.500 172.250 C 228.224 171.557 229.063 170.980 229.750 170.250 C 230.401 169.559 231.639 168.557 231.500 168 C 231.389 167.557 229.992 168.115 229.250 168.250 C 228.157 168.449 227.081 168.746 226 169 C 224.251 169.412 222.525 169.970 220.750 170.250 C 219.350 170.471 217.731 171.203 216.500 170.500 C 215.517 169.938 215.419 168.379 215.500 167.250 C 215.596 165.908 216.533 164.761 217 163.500 C 217.366 162.513 218.418 161.406 218 160.500 C 217.668 159.781 215.761 160.772 215.500 160.250 C 215.261 159.772 216.495 159.078 217 158.500 C 217.126 158.356 217.534 157.890 217.250 158.250 Z " transform="matrix(-0.6585366129875183, 0, 0, 0.6585366129875183, 171.85, -102.7)"/>
    <path id="ID0.24748560041189194" fill="none" stroke="#000000" stroke-width="2" stroke-linecap="round" d="M 214.750 161 L 228.750 170.750 " transform="matrix(0.6585366129875183, 0, 0, 0.6585366129875183, -137.75, -103.1)"/>
    <path id="ID0.24748560041189194" fill="none" stroke="#000000" stroke-width="2" stroke-linecap="round" d="M 214.750 161 L 228.750 170.750 " transform="matrix(-0.6585366129875183, 0, 0, 0.6585366129875183, 172.35, -102.75)"/>
    <path id="ID0.42134364135563374" fill="none" stroke="#000000" stroke-width="2" stroke-linecap="round" d="M 227.750 178 L 228.050 178.300 " transform="matrix(0.6585366129875183, 0, 0, 0.6585366129875183, -137.75, -103.1)"/>
    <path id="ID0.42134364135563374" fill="none" stroke="#000000" stroke-width="2" stroke-linecap="round" d="M 227.750 178 L 228.050 178.300 " transform="matrix(0.6585366129875183, 0, 0, 0.6585366129875183, -128.45, -103.1)"/>
    <path id="ID0.7033001137897372" fill="none" stroke="#000000" stroke-width="2" stroke-linecap="round" d="M 216.250 199.250 L 228 188 L 235.750 199.500 L 242.500 188.250 L 253.500 200.250 " transform="matrix(0.6585366129875183, 0, 0, 0.6585366129875183, -137.75, -103.1)"/>
  </g>
</svg>