<svg version="1.1" width="113" height="115" viewBox="-1 2 113 115" xmlns="http://www.w3.org/2000/svg" xmlns:xlink="http://www.w3.org/1999/xlink">
  <defs>
    <linearGradient id="grad_1" y2="1">
      <stop offset="0" stop-color="#FFFF00" stop-opacity="1"/>
      <stop offset="1" stop-color="#FFFF00" stop-opacity="0"/>
    </linearGradient>
    <linearGradient id="grad_2" y2="1">
      <stop offset="0" stop-color="#FFFF00" stop-opacity="1"/>
      <stop offset="1" stop-color="#FFFF00" stop-opacity="0"/>
    </linearGradient>
    <linearGradient id="grad_3" x2="1">
      <stop offset="0" stop-color="#FFFF00" stop-opacity="0"/>
      <stop offset="1" stop-color="#FFFF00" stop-opacity="1"/>
    </linearGradient>
    <linearGradient id="grad_4" x2="1">
      <stop offset="0" stop-color="#FFFF00" stop-opacity="0"/>
      <stop offset="1" stop-color="#FFFF00" stop-opacity="1"/>
    </linearGradient>
  </defs>
  <!-- Exported by Scratch - http://scratch.mit.edu/ -->
  <path id="ID0.15050372574478388" fill="url(#grad_1)" stroke="url(#grad_2)" stroke-width="6" d="M 215 150 L 256 150 L 256 210 L 215 210 L 215 150 Z " transform="matrix(1, 0, 0, 1, -198, -94)"/>
  <path id="ID0.08809070056304336" fill="#CC0000" stroke="#CC0000" stroke-width="2" stroke-linecap="round" d="M 246 185.300 C 245.980 186.048 246.001 186.757 246 187.550 C 245.996 188.249 245.967 188.955 246 189.650 C 246.032 190.318 246.202 190.981 246.200 191.650 C 246.195 193.388 245.679 195.206 246.050 196.950 C 246.209 197.783 246.958 198.439 247.700 198.950 C 248.390 199.425 249.264 199.689 250.100 199.700 C 250.987 199.672 251.919 199.407 252.650 198.900 C 253.338 198.420 254.043 197.780 254.150 197 C 254.561 193.880 254.151 190.691 254.150 187.600 C 254.150 186.827 254.142 186.200 254.150 185.500 C 253.991 181.252 254.228 180.358 253.900 178.850 C 253.715 178.142 253.282 177.502 252.700 177.150 C 251.952 176.691 251.161 176.494 250.350 176.500 C 249.410 176.507 248.387 176.551 247.600 177.050 C 246.923 177.494 246.549 178.360 246.350 179.150 C 246.053 182.515 246.050 183.695 246 185.300 Z " transform="matrix(-2.6007323265075684, 0, 0, 3.0955862998962402, 687.65, -533.25)"/>
  <g id="ID0.1477178898639977" transform="matrix(1, 0, 0, 1, -2, 10)">
    <path id="ID0.5619839346036315" fill="#CC0000" stroke="#990000" stroke-width="2" stroke-linecap="round" d="M 282.550 231 C 306.841 200.371 308.320 199.171 315.500 193 C 318.114 191.163 320.546 191.730 322.500 193 C 324.499 194.299 326.520 196.941 325.500 199.500 C 309.865 219.642 303.238 227.753 292 235 C 288.841 236.950 281.120 234.340 282.550 231 Z " transform="matrix(-0.3364178538322449, -0.15288837254047394, 0.23384390771389008, -0.5145535469055176, 114.35, 190.4)"/>
    <path id="ID0.6155663500539958" fill="#990000" stroke="#660000" stroke-width="2" d="M 241.250 209 C 243.526 209 245.589 209.924 247.082 211.418 C 248.576 212.911 249.500 214.974 249.500 217.250 C 249.500 219.526 248.576 221.589 247.082 223.082 C 245.589 224.576 243.526 225.500 241.250 225.500 C 238.974 225.500 236.911 224.576 235.418 223.082 C 233.924 221.589 233 219.526 233 217.250 C 233 214.974 233.924 212.911 235.418 211.418 C 236.911 209.924 238.974 209 241.250 209 Z " transform="matrix(-0.3167242705821991, -0.4144798219203949, 0.4019198417663574, -0.30712658166885376, 61.25, 192.95)"/>
  </g>
  <g id="ID0.1477178898639977" transform="matrix(0.8475690484046936, -0.5306851267814636, 0.5306851267814636, 0.8475690484046936, -21.3, 29.55)">
    <path id="ID0.5619839346036315" fill="#CC0000" stroke="#990000" stroke-width="2" stroke-linecap="round" d="M 282.550 231 C 306.841 200.371 308.320 199.171 315.500 193 C 318.114 191.163 320.546 191.730 322.500 193 C 324.499 194.299 326.520 196.941 325.500 199.500 C 309.865 219.642 303.238 227.753 292 235 C 288.841 236.950 281.120 234.340 282.550 231 Z " transform="matrix(0.14553707838058472, -0.33966273069381714, -0.5195167064666748, -0.2226000279188156, 85, 194.05)"/>
    <path id="ID0.6155663500539958" fill="#990000" stroke="#660000" stroke-width="2" d="M 241.250 209 C 243.526 209 245.589 209.924 247.082 211.418 C 248.576 212.911 249.500 214.974 249.500 217.250 C 249.500 219.526 248.576 221.589 247.082 223.082 C 245.589 224.576 243.526 225.500 241.250 225.500 C 238.974 225.500 236.911 224.576 235.418 223.082 C 233.924 221.589 233 219.526 233 217.250 C 233 214.974 233.924 212.911 235.418 211.418 C 236.911 209.924 238.974 209 241.250 209 Z " transform="matrix(-0.045291271060705185, -0.5196695923805237, -0.5039220452308655, 0.04391883313655853, 125.95, 160.15)"/>
  </g>
  <path id="ID0.5486297779716551" fill="#000000" stroke="#000000" stroke-width="6" stroke-linecap="round" d="M 319.350 238.550 C 307.238 245.500 295.597 266.776 302 278 C 311.189 288.839 325.526 285.577 337.700 286.950 C 347.701 288.070 358.478 286.995 368.500 283.850 C 376.746 282.212 390.961 281.771 391.550 272.850 C 392.439 259.122 383.380 242.675 371 237 C 355.369 229.848 334.427 229.344 319.350 238.550 Z " transform="matrix(-0.1831015944480896, -0.08629468828439713, -0.09320662915706635, 0.1977674812078476, 113.25, 64.75)"/>
  <path id="ID0.5486297779716551" fill="#000000" stroke="#000000" stroke-width="6" stroke-linecap="round" d="M 319.350 238.550 C 307.238 245.500 295.597 266.776 302 278 C 311.189 288.839 325.526 285.577 337.700 286.950 C 347.701 288.070 358.478 286.995 368.500 283.850 C 376.746 282.212 390.961 281.771 391.550 272.850 C 392.439 259.122 383.380 242.675 371 237 C 355.369 229.848 334.427 229.344 319.350 238.550 Z " transform="matrix(-0.1543530821800232, 0.13095074892044067, 0.1414394974708557, 0.16671627759933472, 67.6, -7)"/>
  <path id="ID0.643749819137156" fill="#FF9400" stroke="#000000" stroke-width="2" d="M 234.750 143.750 C 236.336 143.750 237.774 144.576 238.815 145.911 C 239.856 147.247 240.500 149.090 240.500 151.125 C 240.500 153.160 240.304 155.452 238.815 156.339 C 237.604 157.047 236.358 153.950 234.750 153.800 C 233.211 153.950 232.003 157.077 230.685 156.339 C 229.164 155.486 229 153.160 229 151.125 C 229 149.090 229.644 147.247 230.685 145.911 C 231.726 144.576 233.164 143.750 234.750 143.750 Z " transform="matrix(-0.6308979988098145, 0, 0, 0.6308979988098145, 189.35, -63.3)"/>
  <path id="ID0.643749819137156" fill="#FF9400" stroke="#000000" stroke-width="2" d="M 234.750 143.750 C 236.336 143.750 237.774 144.576 238.815 145.911 C 239.856 147.247 240.500 149.090 240.500 151.125 C 240.500 153.160 240.288 155.422 238.815 156.339 C 237.623 157.066 236.352 154 234.750 153.800 C 233.217 154 231.983 157.100 230.685 156.339 C 229.182 155.460 229 153.160 229 151.125 C 229 149.090 229.644 147.247 230.685 145.911 C 231.726 144.576 233.164 143.750 234.750 143.750 Z " transform="matrix(-0.6308979988098145, 0, 0, 0.6308979988098145, 183.6, -63.55)"/>
  <path id="ID0.8540973095223308" fill="none" stroke="#000000" stroke-width="2" stroke-linecap="round" d="M 255.250 160.850 C 255.250 160.850 253.312 160.956 252.400 161.250 C 251.731 161.466 251.089 161.846 250.600 162.350 C 250.012 162.957 249.545 163.708 249.250 164.500 C 248.999 165.176 249.042 165.930 249 166.650 C 248.959 167.348 248.664 168.136 249 168.750 C 249.330 169.354 250.102 169.617 250.750 169.850 C 251.430 170.094 252.182 170.234 252.900 170.150 C 253.936 170.029 255.900 169.250 255.900 169.250 " transform="matrix(-0.4261791706085205, 0, 0, 0.4261791706085205, 146.6, -32.3)"/>
  <path id="ID0.9628911605104804" fill="url(#grad_3)" stroke="url(#grad_4)" stroke-width="6" stroke-linecap="round" d="M 262 142 L 254 132.500 L 272.500 97.500 L 273 121.500 L 295.500 107.500 L 281.500 131 L 309 135 L 262 142 Z " transform="matrix(1, 0, 0, 1, -198, -94)"/>
</svg>