<svg version="1.1" width="53" height="58" viewBox="-1 -1 53 58" xmlns="http://www.w3.org/2000/svg" xmlns:xlink="http://www.w3.org/1999/xlink">
  <!-- Exported by Scratch - http://scratch.mit.edu/ -->
  <g id="ID0.12182530201971531" transform="matrix(0.606386125087738, 0, 0, 0.606386125087738, 0.05, 0.3)">
    <path id="ID0.15859646908938885" fill="#FFFFFF" stroke="#B2B2B2" stroke-width="2" stroke-linecap="round" d="M 230 179 C 229.933 182.025 230.756 183.749 231.500 185.500 C 232.171 187.080 232.852 188.661 233.500 190.250 C 233.768 190.909 233.965 191.598 234.250 192.250 C 234.548 192.932 234.966 193.561 235.250 194.250 C 235.551 194.980 235.664 195.785 236 196.500 C 236.334 197.211 236.765 197.882 237.250 198.500 C 237.686 199.055 238.101 199.722 238.750 200 C 239.362 200.262 240.095 200.123 240.750 200 C 241.449 199.869 242.098 199.535 242.750 199.250 C 243.432 198.952 244.130 198.663 244.750 198.250 C 245.389 197.824 246.004 197.336 246.500 196.750 C 246.934 196.238 247.337 195.651 247.500 195 C 247.682 194.273 247.623 193.489 247.500 192.750 C 247.370 191.971 247.071 191.222 246.750 190.500 C 246.402 189.717 245.920 188.997 245.500 188.250 C 245.171 187.665 244.784 187.108 244.500 186.500 C 244.199 185.855 244.035 185.152 243.750 184.500 C 243.452 183.818 242.985 183.206 242.750 182.500 C 242.316 181.197 241.373 179.820 241.750 178.500 C 242.138 177.142 243.523 176.201 244.750 175.500 C 245.942 174.819 247.399 174.746 248.750 174.500 C 250.152 174.245 251.580 174.114 253 174 C 253.664 173.947 254.167 174.017 255 174 C 258.330 173.931 261.669 173.793 265 173.750 C 268.080 173.710 271.170 173.750 274.250 173.750 C 275.020 173.750 275.584 173.750 276.250 173.750 C 276.916 173.750 277.902 174.273 278.250 173.750 C 278.652 173.148 278.111 172.177 277.750 171.500 C 277.418 170.877 276.678 170.562 276.250 170 C 275.340 168.806 274.556 167.516 273.750 166.250 C 273.390 165.684 273.162 165.030 272.750 164.500 C 271.408 162.775 269.917 161.163 268.500 159.500 C 268.002 158.916 267.528 158.307 267 157.750 C 266.028 156.724 264.942 155.803 264 154.750 C 263.522 154.216 263.147 153.596 262.750 153 C 262.314 152.347 261.985 151.618 261.500 151 C 261.064 150.445 260.479 150.019 260 149.500 C 259.479 148.936 259.086 148.246 258.500 147.750 C 257.988 147.316 257.324 146.463 256.750 146.750 C 256.074 147.088 256.241 148.248 256 149 C 255.575 150.329 255.223 151.687 254.750 153 C 254.472 153.771 254.062 154.492 253.750 155.250 C 253.479 155.908 253.390 156.655 253 157.250 C 251.796 159.088 250.388 160.796 249 162.500 C 248.554 163.048 248 163.500 247.500 164 C 247 164.500 246.456 164.961 246 165.500 C 245.537 166.047 245.236 166.724 244.750 167.250 C 244.229 167.814 243.611 168.285 243 168.750 C 241.861 169.618 240.728 170.513 239.500 171.250 C 238.223 172.016 236.820 172.561 235.500 173.250 C 234.905 173.560 234.308 173.878 233.750 174.250 C 233.057 174.712 232.382 175.208 231.750 175.750 C 231.214 176.210 230.706 176.711 230.250 177.250 C 229.787 177.797 229.226 178.321 229 179 C 228.866 179.403 229.079 179.806 229.250 180.250 Z " transform="matrix(1, 0, 0, 1, -227, -144)"/>
    <path id="ID0.7958971713669598" fill="#FF0000" stroke="#CC0000" stroke-width="2" stroke-linecap="round" d="M 252.250 158.750 L 249 162.750 L 254.750 174 L 278 173.750 L 277.250 169.750 L 257.250 146 L 255.750 148.500 L 252.250 158.750 Z " transform="matrix(1, 0, 0, 1, -227, -144)"/>
    <path id="ID0.05213607382029295" fill="none" stroke="#FF0000" stroke-width="2" stroke-linecap="round" d="M 231.250 177.750 L 233 181.500 " transform="matrix(1, 0, 0, 1, -227, -144)"/>
    <path id="ID0.5336072193458676" fill="none" stroke="#FF0000" stroke-width="2" stroke-linecap="round" d="M 233.250 176.250 L 235.250 180 " transform="matrix(1, 0, 0, 1, -227, -144)"/>
    <path id="ID0.3732176157645881" fill="none" stroke="#FF0000" stroke-width="2" stroke-linecap="round" d="M 235.250 174.500 L 237.750 179 " transform="matrix(1, 0, 0, 1, -227, -144)"/>
  </g>
</svg>