<svg version="1.1" width="78" height="46" viewBox="0 -1 78 46" xmlns="http://www.w3.org/2000/svg" xmlns:xlink="http://www.w3.org/1999/xlink">
  <!-- Exported by Scratch - http://scratch.mit.edu/ -->
  <g id="ID0.5184189742431045" transform="matrix(1, 0, 0, 1, 2, 1)">
    <path id="ID0.8286767979152501" fill="#EDC13E" stroke="#EDC13E" stroke-width="2" stroke-linecap="round" d="M 250.750 174.400 L 234.500 174 L 242.500 146.500 L 250.750 174.400 Z " transform="matrix(-0.14509344100952148, 0.9140887260437012, 0.9140887260437012, 0.14509344100952148, -95.8, -213.8)"/>
    <path id="ID0.8286767979152501" fill="#EDC13E" stroke="#EDC13E" stroke-width="2" stroke-linecap="round" d="M 250.850 173.400 L 234.500 174 L 242.500 146.500 L 250.850 173.400 Z " transform="matrix(0.14509344100952148, 0.9140887260437012, -0.9140887260437012, 0.14509344100952148, 172.2, -214.35)"/>
    <path id="ID0.8286767979152501" fill="#EDC13E" stroke="#EDC13E" stroke-width="2" stroke-linecap="round" d="M 252.500 173.500 L 234.500 174 L 242.500 146.500 L 252.500 173.500 Z " transform="matrix(0.9255324602127075, 0, 0, 0.9255324602127075, -188.15, -133.7)"/>
    <path id="ID0.35914128040894866" fill="#FFD043" stroke="none" d="M 245.250 173.500 C 252.630 173.500 259.318 174.677 264.160 176.577 C 269.003 178.478 272 181.103 272 184 C 272 186.897 269.003 189.522 264.160 191.423 C 259.318 193.323 252.630 194.500 245.250 194.500 C 237.870 194.500 231.182 193.323 226.340 191.423 C 221.497 189.522 218.500 186.897 218.500 184 C 218.500 181.103 221.497 178.478 226.340 176.577 C 231.182 174.677 237.870 173.500 245.250 173.500 Z " transform="matrix(0.9255324602127075, 0, 0, 0.9255324602127075, -188.6, -136.95)"/>
    <text id="ID0.9791888161562383" fill="#000000" x="221" y="196.2" text-anchor="start" font-family="Donegal" font-size="22" transform="matrix(0.7342459559440613, 0, 0, 0.7342459559440613, 21.35, 21.95)">030</text>
  </g>
</svg>