<svg version="1.1" width="140" height="74" viewBox="-1 1 140 74" xmlns="http://www.w3.org/2000/svg" xmlns:xlink="http://www.w3.org/1999/xlink">
  <defs>
    <linearGradient id="grad_1" x2="1">
      <stop offset="0" stop-color="#FFFF00" stop-opacity="0"/>
      <stop offset="1" stop-color="#FFFF00" stop-opacity="1"/>
    </linearGradient>
    <linearGradient id="grad_2" x2="1">
      <stop offset="0" stop-color="#FFFF00" stop-opacity="0"/>
      <stop offset="1" stop-color="#FFFF00" stop-opacity="1"/>
    </linearGradient>
    <linearGradient id="grad_3" x2="1">
      <stop offset="0" stop-color="#FFFFFF" stop-opacity="1"/>
      <stop offset="1" stop-color="#FFFFFF" stop-opacity="0"/>
    </linearGradient>
    <linearGradient id="grad_4" x2="1">
      <stop offset="0" stop-color="#FFFF00" stop-opacity="0"/>
      <stop offset="1" stop-color="#FFFF00" stop-opacity="1"/>
    </linearGradient>
  </defs>
  <!-- Exported by Scratch - http://scratch.mit.edu/ -->
  <g id="ID0.48240807792171836" transform="matrix(1, 0, 0, 1, 0.5, 0)">
    <path id="ID0.18150845123454928" fill="#6CDAFF" stroke="#000000" stroke-width="2" stroke-linecap="round" d="M 275.150 213.500 C 278.223 213.253 281.442 214.903 282.900 217.250 C 285.034 220.742 284.853 225.356 284.750 229.100 C 284.561 235.743 283.345 242.329 282.400 248.900 C 281.350 256.229 282.584 269.570 279.150 271.350 C 276.051 272.677 271.988 260.610 269.150 255.200 C 265.762 248.740 261.169 242.255 260.100 235.250 C 259.296 229.986 260.419 224.031 263.400 219.600 C 265.862 215.944 270.774 213.876 275.150 213.500 Z " transform="matrix(0.07608220726251602, -0.34068775177001953, 0.34068775177001953, 0.07608220726251602, 11.6, 131.35)"/>
    <path id="ID0.0035421540960669518" fill="none" stroke="#FFFFFF" stroke-width="2" stroke-linecap="round" d="M 270.650 218.350 C 270.650 218.350 263.877 225.469 263.750 230.100 C 263.549 236.389 269.750 248.300 269.750 248.300 " transform="matrix(0.07608220726251602, -0.34068775177001953, 0.34068775177001953, 0.07608220726251602, 11.6, 131.35)"/>
  </g>
  <g id="ID0.48240807792171836" transform="matrix(1, 0, 0, 1, 0.5, 0)">
    <path id="ID0.18150845123454928" fill="#6CDAFF" stroke="#000000" stroke-width="2" stroke-linecap="round" d="M 275.150 213.500 C 278.223 213.253 281.442 214.903 282.900 217.250 C 285.034 220.742 284.853 225.356 284.750 229.100 C 284.561 235.743 283.345 242.329 282.400 248.900 C 281.350 256.229 282.584 269.570 279.150 271.350 C 276.051 272.677 271.988 260.610 269.150 255.200 C 265.762 248.740 261.169 242.255 260.100 235.250 C 259.296 229.986 260.419 224.031 263.400 219.600 C 265.862 215.944 270.774 213.876 275.150 213.500 Z " transform="matrix(0.28756406903266907, -0.19789782166481018, -0.19789782166481018, -0.28756406903266907, 47.55, 160.6)"/>
    <path id="ID0.0035421540960669518" fill="none" stroke="#FFFFFF" stroke-width="2" stroke-linecap="round" d="M 270.650 218.350 C 270.650 218.350 263.877 225.469 263.750 230.100 C 263.549 236.389 269.750 248.300 269.750 248.300 " transform="matrix(0.28756406903266907, -0.19789782166481018, -0.19789782166481018, -0.28756406903266907, 47.55, 160.6)"/>
  </g>
  <g id="ID0.2420122711919248" transform="matrix(1, 0, 0, 1, 0.5, 0)">
    <g id="ID0.7129468834027648">
      <path id="ID0.2604714026674628" fill="#FFFF00" stroke="#000000" stroke-width="2" stroke-linecap="round" d="M 237 85.650 L 251.300 144.300 L 224 145.300 L 237 85.650 Z " transform="matrix(-0.3038749694824219, -0.17180408537387848, -0.17180408537387848, 0.3038749694824219, 206.95, 18.95)"/>
      <path id="ID0.4227697029709816" fill="none" stroke="#000000" stroke-width="2" stroke-linecap="round" d="M 248 134 L 224.350 143 " transform="matrix(-0.3038749694824219, -0.17180408537387848, -0.17180408537387848, 0.3038749694824219, 206.95, 18.95)"/>
      <path id="ID0.39849042566493154" fill="none" stroke="#000000" stroke-width="2" stroke-linecap="round" d="M 245 117.650 L 230.350 123 " transform="matrix(-0.3038749694824219, -0.17180408537387848, -0.17180408537387848, 0.3038749694824219, 206.95, 18.95)"/>
      <path id="ID0.5916849924251437" fill="none" stroke="#000000" stroke-width="2" stroke-linecap="round" d="M 241.350 104.650 L 232 108.350 " transform="matrix(-0.3038749694824219, -0.17180408537387848, -0.17180408537387848, 0.3038749694824219, 206.95, 18.95)"/>
    </g>
    <path id="ID0.6581924292258918" fill="#6CDAFF" stroke="#000000" stroke-width="2" stroke-linecap="round" d="M 237.800 155.800 C 249.540 155.767 261.432 161.816 270.550 169.300 C 275.889 173.685 276.256 181.709 277.750 188.200 C 279.248 194.789 279.205 201.692 279.450 208.200 C 279.910 220.464 279.396 233.057 280 245.050 C 280.543 255.852 277.694 267.602 282.950 277.400 C 286.861 284.686 297.085 286.390 304.350 290 C 306.666 291.151 309.224 291.121 311.950 291.600 C 313.407 291.855 316.154 290.029 316.350 292.200 C 317.128 300.848 314.823 309.511 314.300 318.200 C 314.169 320.372 316.857 320.658 314.750 321.200 C 306.320 323.366 296.796 323.955 287.750 324.600 C 279.456 325.194 270.631 325.490 262.150 324.600 C 253.363 323.680 244.104 322.929 235.950 319.400 C 228.945 316.163 222.608 310.975 217.900 304.850 C 211.729 296.821 207.464 287.269 204.300 277.650 C 201.248 268.361 199.999 258.116 199.050 248.200 C 197.813 235.264 197.904 222.527 197.750 209.850 C 197.671 203.087 197.104 196.174 198.350 189.850 C 199.732 182.844 200.010 174.435 205.550 169.650 C 214.397 162.014 226.115 155.837 237.800 155.800 Z " transform="matrix(-0.3038749694824219, -0.17180408537387848, -0.17180408537387848, 0.3038749694824219, 209.15, 14.85)"/>
    <path id="ID0.4747713301330805" fill="none" stroke="#FFFFFF" stroke-width="2" stroke-linecap="round" d="M 236.800 144.500 C 236.800 144.500 231.702 144.993 229.250 145.750 C 226.069 146.720 222.913 148.010 220 149.650 C 217.963 150.797 216.097 152.499 214.400 154.200 C 212.185 156.418 208.150 161.450 208.150 161.450 " transform="matrix(-0.3038749694824219, -0.17180408537387848, -0.17180408537387848, 0.3038749694824219, 207.4, 20.15)"/>
  </g>
  <path id="ID0.04498260049149394" fill="#FFFFFF" stroke="#000000" stroke-width="1" stroke-linecap="round" d="M 227.700 184.800 C 228.328 185.103 229.137 185.425 229.850 185.900 C 230.144 186.096 230.350 186.400 230.600 186.650 C 230.850 186.900 231.219 187.072 231.350 187.400 C 231.732 188.356 231.967 189.379 232.100 190.400 C 232.186 191.061 231.402 192.219 232 192.400 C 233.081 192.729 234.458 192.129 235.600 191.700 C 236.377 191.408 237.081 190.919 237.800 190.500 C 238.554 190.052 239.522 189.863 240.100 189.250 C 241.218 186.429 240.634 184.839 240.500 183 C 240.466 182.540 240.409 182.278 240.200 182 C 239.592 181.190 239.112 179.825 238.100 179.800 C 236.026 179.748 234.117 181.008 232.200 181.800 C 231.521 182.080 230.965 182.599 230.350 183 C 229.766 183.381 229.212 183.816 228.600 184.150 C 228.290 184.319 227.916 184.342 227.600 184.500 C 227.521 184.539 227.418 184.537 227.600 184.650 Z " transform="matrix(-0.802547812461853, 0, 0, 0.802547812461853, 287.95, -100.75)"/>
  <path id="ID0.9560883482918143" fill="none" stroke="#000000" stroke-width="1" stroke-linecap="round" d="M 238.850 180.800 L 230.600 184.300 " transform="matrix(-0.802547812461853, 0, 0, 0.802547812461853, 286.7, -98.25)"/>
  <path id="ID0.2474912153556943" fill="#FFFFFF" stroke="#000000" stroke-width="2" stroke-linecap="round" d="M 235.650 228 C 241.444 228 247.224 231.836 250.495 236.499 C 255.037 242.974 256.423 251.455 257.850 259.300 C 259.046 266.406 263.353 274.546 259.600 280.250 C 255.187 285.943 245.656 286.098 238.900 285.750 C 232.768 285.438 225.879 282.871 222.100 278.150 C 217.387 272.250 215.698 263.673 215.500 256.450 C 215.313 249.578 216.871 242.144 220.805 236.499 C 224.064 231.822 229.856 228 235.650 228 Z " transform="matrix(-0.2671673893928528, -0.15105044841766357, -0.15105044841766357, 0.2671673893928528, 191.05, 27.75)"/>
  <path id="ID0.845822561532259" fill="#6CDAFF" stroke="#000000" stroke-width="2" stroke-linecap="round" d="M 341.050 186.350 C 351.802 183.838 367.078 184.496 372.700 177.200 C 375.957 172.977 363.571 168.676 359.150 163.900 C 356.763 161.316 352.408 158.671 353.150 155.200 C 353.984 151.496 359.761 150.242 363.600 149.300 C 368.997 147.975 374.523 148.076 380.300 149.200 C 383.138 149.755 384.729 152.457 387.400 154.200 C 390.834 156.464 393.196 160.533 397.550 161.250 C 401.831 161.951 405.764 158.025 410.100 157.750 C 414.432 157.472 418.518 157.933 423.100 158.850 C 427.095 159.639 431.541 160.103 434.850 162.250 C 438.913 164.893 447.210 168.828 445.250 172.450 C 442.584 177.353 432.145 176.780 425.750 178.500 C 421.577 179.619 417.122 179.855 413.150 181.600 C 408.700 183.556 404.755 186.253 400.400 188.750 C 393.643 192.629 386.871 196.668 379.950 200.150 C 372.543 203.881 364.379 206.808 356.900 209.600 C 343.754 214.509 330.446 220.528 317.100 223.450 C 313.764 224.180 314.278 221.235 313.250 219.350 C 309.252 212.008 302.453 204.825 302.800 196.500 C 303.357 192.092 310.880 192.284 315.250 191.200 C 323.816 189.078 332.645 188.506 341.050 186.350 Z " transform="matrix(-0.26204878091812134, 0.017559662461280823, 0.022774800658226013, 0.3483353853225708, 138.8, -23.75)"/>
  <path id="ID0.22437191475182772" fill="#6CDAFF" stroke="none" stroke-linecap="round" d="M 317.250 183.750 L 326.750 183.250 L 348.350 206.550 L 329 214.350 L 317.600 196.550 L 317.250 183.750 Z " transform="matrix(-0.26204878091812134, 0.017559662461280823, 0.022774800658226013, 0.3483353853225708, 143.55, -20.25)"/>
  <path id="ID0.7040526834316552" fill="none" stroke="#FFFFFF" stroke-width="2" stroke-linecap="round" d="M 337.300 152.600 C 337.300 152.600 328.785 146.492 330.400 144.500 C 332.583 141.626 346.450 141.900 346.450 141.900 " transform="matrix(-0.26204878091812134, 0.017559662461280823, 0.022774800658226013, 0.3483353853225708, 132.05, -19.5)"/>
  <g id="ID0.2661628294736147" transform="matrix(1, 0, 0, 1, 0.5, 0)">
    <g id="ID0.8039874886162579">
      <path id="ID0.4877005652524531" fill="#000000" stroke="#000000" stroke-width="3" stroke-linecap="round" d="M 401.700 182.450 L 401.100 162.200 L 420.400 155.100 L 443.750 142.800 L 481.700 116.350 L 425.300 193.750 L 411.350 186.200 L 401.700 182.450 Z " transform="matrix(-0.2748108208179474, -0.15537187457084656, -0.15537187457084656, 0.2748108208179474, 243.45, 48.55)"/>
      <path id="ID0.4877005652524531" fill="#000000" stroke="#000000" stroke-width="3" stroke-linecap="round" d="M 401.700 182.450 L 401.100 162.200 L 420.400 155.100 L 443.750 142.800 L 481.700 116.350 L 425.300 193.750 L 411.350 186.200 L 401.700 182.450 Z " transform="matrix(0.2748108208179474, 0.15537187457084656, -0.15537187457084656, 0.2748108208179474, 23.5, -75.8)"/>
    </g>
    <path id="ID0.9342148057185113" fill="#FFFFFF" stroke="none" stroke-linecap="round" d="M 158.850 144.650 L 177.300 154.600 L 182.500 156.450 L 182.200 185.750 L 174.700 189.600 L 159.150 168.100 L 158.850 144.650 Z " transform="matrix(-0.3038749694824219, -0.17180408537387848, -0.17180408537387848, 0.3038749694824219, 195.7, 15.7)"/>
    <path id="ID0.9342148057185113" fill="#FFFFFF" stroke="none" stroke-linecap="round" d="M 158.850 144.650 L 173.750 153.100 L 174.700 189.600 L 159.150 168.100 L 158.850 144.650 Z " transform="matrix(0.3038749694824219, 0.17180408537387848, -0.17180408537387848, 0.3038749694824219, 75.95, -52)"/>
    <path id="ID0.9342148057185113" fill="#FFFFFF" stroke="none" stroke-linecap="round" d="M 160.750 152.750 L 166.150 157.200 L 166.300 166.850 L 160.750 159.450 L 160.750 152.750 Z " transform="matrix(0.3038749694824219, 0.17180408537387848, -0.17180408537387848, 0.3038749694824219, 72.35, -64.65)"/>
  </g>
  <path id="ID0.01927188504487276" fill="none" stroke="#000000" stroke-width="1" stroke-linecap="round" d="M 221.850 140.200 C 221.850 140.200 222.061 135.857 221 134.100 C 220.259 132.880 218.429 131.922 217.300 132.650 C 215.802 133.329 215.400 137.100 215.400 137.100 " transform="matrix(0.7424929141998291, 0.28944817185401917, -0.21267014741897583, 0.5455417633056641, -27.05, -115)"/>
  <path id="ID0.01927188504487276" fill="none" stroke="#000000" stroke-width="1" stroke-linecap="round" d="M 221.850 140.200 C 221.850 140.200 222.061 135.857 221 134.100 C 220.259 132.880 218.429 131.922 217.300 132.650 C 215.802 133.329 215.400 137.100 215.400 137.100 " transform="matrix(-0.6308093667030334, -0.48698604106903076, -0.35780981183052063, 0.463483065366745, 302.45, 71.85)"/>
  <path id="ID0.47664465522393584" fill="none" stroke="#000000" stroke-width="2" stroke-linecap="round" d="M 222.500 219.600 C 222.500 219.600 221.180 223.825 222.500 225.150 C 224.155 226.553 226.964 225.894 229.150 225.700 C 230.724 225.556 232.025 224.043 233.600 224.050 C 235.077 224.026 236.472 225.611 238.050 225.700 C 240.153 225.818 243.048 226.223 244.700 224.600 C 245.784 223.241 244.150 219.050 244.150 219.050 " transform="matrix(-0.3728824555873871, -0.21081937849521637, -0.24127864837646484, 0.42675670981407166, 242.3, -1.65)"/>
  <path id="ID0.6959627503529191" fill="url(#grad_1)" stroke="url(#grad_2)" stroke-width="2" stroke-linecap="round" d="M 273.750 173.500 C 273.388 170.630 273.685 167.084 274 164 C 274.079 163.229 274.334 162.499 274.500 161.750 C 274.666 161.001 274.783 160.236 275 159.500 C 275.201 158.818 275.513 158.171 275.750 157.500 C 276.013 156.755 276.277 156.008 276.500 155.250 C 276.694 154.591 276.659 153.846 277 153.250 C 277.350 152.637 277.961 152.206 278.500 151.750 C 279.047 151.287 279.534 150.500 280.250 150.500 C 280.966 150.500 281.516 151.222 282 151.750 C 282.454 152.245 282.716 152.892 283 153.500 C 283.301 154.145 283.538 154.821 283.750 155.500 C 283.955 156.155 284.207 156.815 284.250 157.500 C 284.292 158.170 284.083 158.834 284 159.500 C 283.917 160.166 283.427 161.500 283.750 161.500 C 284.111 161.500 284.969 160.208 285.500 159.500 C 285.971 158.872 286.265 158.118 286.750 157.500 C 287.186 156.945 287.819 156.560 288.250 156 C 288.659 155.468 288.887 154.815 289.250 154.250 C 289.637 153.648 290.037 153.047 290.500 152.500 C 290.956 151.961 291.500 151.500 292 151 C 292.500 150.500 293 150 293.500 149.500 C 294 149 294.368 148.316 295 148 C 295.600 147.700 296.442 147.378 297 147.750 C 297.682 148.205 297.688 149.242 298 150 C 298.271 150.658 298.619 151.301 298.750 152 C 298.873 152.655 299.012 153.388 298.750 154 C 298.472 154.649 297.681 154.940 297.250 155.500 C 296.841 156.032 296.583 156.667 296.250 157.250 C 295.917 157.833 295.583 158.417 295.250 159 C 294.917 159.583 294.583 160.167 294.250 160.750 C 293.917 161.333 293.499 161.877 293.250 162.500 C 292.995 163.137 292.916 163.834 292.750 164.500 C 292.584 165.166 291.769 166.126 292.250 166.500 C 292.894 167.001 294.092 166.393 295 166.250 C 295.678 166.143 296.339 165.934 297 165.750 C 297.837 165.517 298.659 165.221 299.500 165 C 300.242 164.805 301.001 164.667 301.750 164.500 C 302.499 164.333 303.246 164.144 304 164 C 304.995 163.810 306 163.660 307 163.500 C 308.081 163.327 309.173 163.196 310.250 163 C 311.005 162.863 311.753 162.676 312.500 162.500 C 313.168 162.343 313.857 162.241 314.500 162 C 315.197 161.739 315.798 161.248 316.500 161 C 317.224 160.745 318.027 160.242 318.750 160.500 C 319.424 160.741 319.905 161.540 320 162.250 C 320.094 162.955 319.753 163.747 319.250 164.250 C 318.747 164.753 317.895 164.699 317.250 165 C 316.642 165.284 316.115 165.731 315.500 166 C 314.776 166.317 313.980 166.449 313.250 166.750 C 312.561 167.034 311.907 167.400 311.250 167.750 C 310.658 168.066 310.032 168.341 309.500 168.750 C 308.940 169.181 308.500 169.750 308 170.250 C 307.500 170.750 306.385 171.061 306.500 171.750 C 306.635 172.561 307.733 172.927 308.500 173.250 C 309.358 173.611 310.324 173.657 311.250 173.750 C 311.996 173.825 312.752 173.789 313.500 173.750 C 314.335 173.706 315.164 173.542 316 173.500 C 316.831 173.458 317.669 173.458 318.500 173.500 C 319.336 173.542 320.197 173.514 321 173.750 C 321.644 173.939 322.135 174.481 322.750 174.750 C 323.474 175.067 324.278 175.179 325 175.500 C 325.783 175.848 326.503 176.330 327.250 176.750 C 327.835 177.079 328.435 177.387 329 177.750 C 329.602 178.137 330.266 178.472 330.750 179 C 331.204 179.495 331.798 180.081 331.750 180.750 C 331.699 181.464 331.110 182.125 330.500 182.500 C 329.928 182.852 329.161 182.633 328.500 182.750 C 327.744 182.883 327.008 183.130 326.250 183.250 C 325.424 183.380 324.582 183.412 323.750 183.500 C 323 183.579 322.250 183.671 321.500 183.750 C 320.668 183.838 319.832 183.912 319 184 C 318.250 184.079 317.499 184.162 316.750 184.250 C 316.083 184.328 315.420 184.458 314.750 184.500 C 314.085 184.542 312.750 184.167 312.750 184.500 C 312.750 184.875 314.005 185.628 314.750 186 C 315.692 186.471 316.737 186.711 317.750 187 C 318.488 187.211 319.314 187.157 320 187.500 C 320.686 187.843 321.186 188.479 321.750 189 C 322.269 189.479 322.794 189.961 323.250 190.500 C 323.713 191.047 324.113 191.648 324.500 192.250 C 324.863 192.815 325.461 193.330 325.500 194 C 325.551 194.868 325.176 195.742 324.750 196.500 C 324.404 197.116 323.882 197.684 323.250 198 C 322.650 198.300 321.921 198.250 321.250 198.250 C 320.579 198.250 319.873 198.249 319.250 198 C 318.585 197.734 318.114 197.118 317.500 196.750 C 316.862 196.367 316.206 195.985 315.500 195.750 C 314.695 195.482 313.837 195.390 313 195.250 C 312.338 195.140 311.660 195.124 311 195 C 310.325 194.873 309.681 194.585 309 194.500 C 308.339 194.417 307.498 194.058 307 194.500 C 306.498 194.946 306.711 195.830 306.750 196.500 C 306.795 197.266 307.048 198.010 307.250 198.750 C 307.548 199.842 307.939 200.911 308.250 202 C 308.439 202.660 308.707 203.315 308.750 204 C 308.792 204.670 308.951 205.503 308.500 206 C 307.969 206.584 307.019 206.569 306.250 206.750 C 305.597 206.904 304.916 206.917 304.250 207 C 303.584 207.083 302.899 207.423 302.250 207.250 C 301.558 207.065 301.063 206.442 300.500 206 C 299.896 205.526 299.389 204.926 298.750 204.500 C 298.130 204.087 297.407 203.850 296.750 203.500 C 296.158 203.184 295.583 202.833 295 202.500 C 294.417 202.167 293.796 201.890 293.250 201.500 C 292.625 201.054 292.104 200.474 291.500 200 C 290.937 199.558 290.333 199.166 289.750 198.750 C 289.167 198.334 288.602 197.887 288 197.500 C 287.435 197.137 286.782 196.909 286.250 196.500 C 285.690 196.069 285.210 195.536 284.750 195 C 284.208 194.368 283.640 193.736 283.250 193 C 282.880 192.302 282.853 191.456 282.500 190.750 C 282.180 190.109 281.618 189.614 281.250 189 C 280.867 188.362 280.633 187.638 280.250 187 C 279.882 186.386 279.416 185.833 279 185.250 C 278.584 184.667 278.137 184.102 277.750 183.500 C 277.387 182.935 276.939 182.394 276.750 181.750 C 276.514 180.947 276.546 180.085 276.500 179.250 C 276.463 178.585 276.747 177.868 276.500 177.250 C 276.215 176.537 275.474 176.104 275 175.500 C 274.558 174.937 274.190 174.315 273.750 173.750 C 273.605 173.564 273.233 173.914 273.250 173.250 Z " transform="matrix(-1, 0, 0, 1, 333.45, -134.25)"/>
  <path id="ID0.6959627503529191" fill="url(#grad_3)" stroke="url(#grad_4)" stroke-width="2" stroke-linecap="round" d="M 273.750 173.500 C 273.388 170.630 273.685 167.084 274 164 C 274.079 163.229 274.334 162.499 274.500 161.750 C 274.666 161.001 274.783 160.236 275 159.500 C 275.201 158.818 275.513 158.171 275.750 157.500 C 276.013 156.755 276.277 156.008 276.500 155.250 C 276.694 154.591 276.659 153.846 277 153.250 C 277.350 152.637 277.961 152.206 278.500 151.750 C 279.047 151.287 279.534 150.500 280.250 150.500 C 280.966 150.500 281.516 151.222 282 151.750 C 282.454 152.245 282.716 152.892 283 153.500 C 283.301 154.145 283.538 154.821 283.750 155.500 C 283.955 156.155 284.207 156.815 284.250 157.500 C 284.292 158.170 284.083 158.834 284 159.500 C 283.917 160.166 283.427 161.500 283.750 161.500 C 284.111 161.500 284.969 160.208 285.500 159.500 C 285.971 158.872 286.265 158.118 286.750 157.500 C 287.186 156.945 287.819 156.560 288.250 156 C 288.659 155.468 288.887 154.815 289.250 154.250 C 289.637 153.648 290.037 153.047 290.500 152.500 C 290.956 151.961 291.500 151.500 292 151 C 292.500 150.500 293 150 293.500 149.500 C 294 149 294.368 148.316 295 148 C 295.600 147.700 296.442 147.378 297 147.750 C 297.682 148.205 297.688 149.242 298 150 C 298.271 150.658 298.619 151.301 298.750 152 C 298.873 152.655 299.012 153.388 298.750 154 C 298.472 154.649 297.681 154.940 297.250 155.500 C 296.841 156.032 296.583 156.667 296.250 157.250 C 295.917 157.833 295.583 158.417 295.250 159 C 294.917 159.583 294.583 160.167 294.250 160.750 C 293.917 161.333 293.499 161.877 293.250 162.500 C 292.995 163.137 292.916 163.834 292.750 164.500 C 292.584 165.166 291.769 166.126 292.250 166.500 C 292.894 167.001 294.092 166.393 295 166.250 C 295.678 166.143 296.339 165.934 297 165.750 C 297.837 165.517 298.659 165.221 299.500 165 C 300.242 164.805 301.001 164.667 301.750 164.500 C 302.499 164.333 303.246 164.144 304 164 C 304.995 163.810 306 163.660 307 163.500 C 308.081 163.327 309.173 163.196 310.250 163 C 311.005 162.863 311.753 162.676 312.500 162.500 C 313.168 162.343 313.857 162.241 314.500 162 C 315.197 161.739 315.798 161.248 316.500 161 C 317.224 160.745 318.027 160.242 318.750 160.500 C 319.424 160.741 319.905 161.540 320 162.250 C 320.094 162.955 319.753 163.747 319.250 164.250 C 318.747 164.753 317.895 164.699 317.250 165 C 316.642 165.284 316.115 165.731 315.500 166 C 314.776 166.317 313.980 166.449 313.250 166.750 C 312.561 167.034 311.907 167.400 311.250 167.750 C 310.658 168.066 310.032 168.341 309.500 168.750 C 308.940 169.181 308.500 169.750 308 170.250 C 307.500 170.750 306.385 171.061 306.500 171.750 C 306.635 172.561 307.733 172.927 308.500 173.250 C 309.358 173.611 310.324 173.657 311.250 173.750 C 311.996 173.825 312.752 173.789 313.500 173.750 C 314.335 173.706 315.164 173.542 316 173.500 C 316.831 173.458 317.669 173.458 318.500 173.500 C 319.336 173.542 320.197 173.514 321 173.750 C 321.644 173.939 322.135 174.481 322.750 174.750 C 323.474 175.067 324.278 175.179 325 175.500 C 325.783 175.848 326.503 176.330 327.250 176.750 C 327.835 177.079 328.435 177.387 329 177.750 C 329.602 178.137 330.266 178.472 330.750 179 C 331.204 179.495 331.798 180.081 331.750 180.750 C 331.699 181.464 331.110 182.125 330.500 182.500 C 329.928 182.852 329.161 182.633 328.500 182.750 C 327.744 182.883 327.008 183.130 326.250 183.250 C 325.424 183.380 324.582 183.412 323.750 183.500 C 323 183.579 322.250 183.671 321.500 183.750 C 320.668 183.838 319.832 183.912 319 184 C 318.250 184.079 317.499 184.162 316.750 184.250 C 316.083 184.328 315.420 184.458 314.750 184.500 C 314.085 184.542 312.750 184.167 312.750 184.500 C 312.750 184.875 314.005 185.628 314.750 186 C 315.692 186.471 316.737 186.711 317.750 187 C 318.488 187.211 319.314 187.157 320 187.500 C 320.686 187.843 321.186 188.479 321.750 189 C 322.269 189.479 322.794 189.961 323.250 190.500 C 323.713 191.047 324.113 191.648 324.500 192.250 C 324.863 192.815 325.461 193.330 325.500 194 C 325.551 194.868 325.176 195.742 324.750 196.500 C 324.404 197.116 323.882 197.684 323.250 198 C 322.650 198.300 321.921 198.250 321.250 198.250 C 320.579 198.250 319.873 198.249 319.250 198 C 318.585 197.734 318.114 197.118 317.500 196.750 C 316.862 196.367 316.206 195.985 315.500 195.750 C 314.695 195.482 313.837 195.390 313 195.250 C 312.338 195.140 311.660 195.124 311 195 C 310.325 194.873 309.681 194.585 309 194.500 C 308.339 194.417 307.498 194.058 307 194.500 C 306.498 194.946 306.711 195.830 306.750 196.500 C 306.795 197.266 307.048 198.010 307.250 198.750 C 307.548 199.842 307.939 200.911 308.250 202 C 308.439 202.660 308.707 203.315 308.750 204 C 308.792 204.670 308.951 205.503 308.500 206 C 307.969 206.584 307.019 206.569 306.250 206.750 C 305.597 206.904 304.916 206.917 304.250 207 C 303.584 207.083 302.899 207.423 302.250 207.250 C 301.558 207.065 301.063 206.442 300.500 206 C 299.896 205.526 299.389 204.926 298.750 204.500 C 298.130 204.087 297.407 203.850 296.750 203.500 C 296.158 203.184 295.583 202.833 295 202.500 C 294.417 202.167 293.796 201.890 293.250 201.500 C 292.625 201.054 292.104 200.474 291.500 200 C 290.937 199.558 290.333 199.166 289.750 198.750 C 289.167 198.334 288.602 197.887 288 197.500 C 287.435 197.137 286.782 196.909 286.250 196.500 C 285.690 196.069 285.210 195.536 284.750 195 C 284.208 194.368 283.640 193.736 283.250 193 C 282.880 192.302 282.853 191.456 282.500 190.750 C 282.180 190.109 281.618 189.614 281.250 189 C 280.867 188.362 280.633 187.638 280.250 187 C 279.882 186.386 279.416 185.833 279 185.250 C 278.584 184.667 278.137 184.102 277.750 183.500 C 277.387 182.935 276.939 182.394 276.750 181.750 C 276.514 180.947 276.546 180.085 276.500 179.250 C 276.463 178.585 276.747 177.868 276.500 177.250 C 276.215 176.537 275.474 176.104 275 175.500 C 274.558 174.937 274.190 174.315 273.750 173.750 C 273.605 173.564 273.233 173.914 273.250 173.250 Z " transform="matrix(-0.7314049601554871, 0, 0, 0.7314049601554871, 258.3, -83.5)"/>
</svg>