<svg version="1.1" width="89" height="50" viewBox="0 2 89 50" xmlns="http://www.w3.org/2000/svg" xmlns:xlink="http://www.w3.org/1999/xlink">
  <!-- Exported by Scratch - http://scratch.mit.edu/ -->
  <path id="ID0.08809070056304336" fill="#CC0000" stroke="#CC0000" stroke-width="2" stroke-linecap="round" d="M 246 185.300 C 245.980 186.048 246.001 186.757 246 187.550 C 245.996 188.249 245.967 188.955 246 189.650 C 246.032 190.318 246.202 190.981 246.200 191.650 C 246.195 193.388 245.679 195.206 246.050 196.950 C 246.209 197.783 246.958 198.439 247.700 198.950 C 248.390 199.425 249.264 199.689 250.100 199.700 C 250.987 199.672 251.919 199.407 252.650 198.900 C 253.338 198.420 254.043 197.780 254.150 197 C 254.561 193.880 254.151 190.691 254.150 187.600 C 254.150 186.827 254.142 186.200 254.150 185.500 C 253.991 181.252 254.228 180.358 253.900 178.850 C 253.715 178.142 253.282 177.502 252.700 177.150 C 251.952 176.691 251.161 176.494 250.350 176.500 C 249.410 176.507 248.387 176.551 247.600 177.050 C 246.923 177.494 246.549 178.360 246.350 179.150 C 246.053 182.515 246.050 183.695 246 185.300 Z " transform="matrix(-1.4597935676574707, -1.557263970375061, -2.561943531036377, 1.2571254968643188, 899.8, 177.1)"/>
  <g id="ID0.1477178898639977">
    <path id="ID0.5619839346036315" fill="#CC0000" stroke="#990000" stroke-width="2" stroke-linecap="round" d="M 282.550 231 C 306.841 200.371 308.320 199.171 315.500 193 C 318.114 191.163 320.546 191.730 322.500 193 C 324.499 194.299 326.520 196.941 325.500 199.500 C 309.865 219.642 303.238 227.753 292 235 C 288.841 236.950 281.120 234.340 282.550 231 Z " transform="matrix(0.23183102905750275, -0.20819547772407532, 0.4401319921016693, 0.25654470920562744, -98.1, 47.2)"/>
    <path id="ID0.6155663500539958" fill="#990000" stroke="#660000" stroke-width="2" d="M 241.250 209 C 243.526 209 245.589 209.924 247.082 211.418 C 248.576 212.911 249.500 214.974 249.500 217.250 C 249.500 219.526 248.576 221.589 247.082 223.082 C 245.589 224.576 243.526 225.500 241.250 225.500 C 238.974 225.500 236.911 224.576 235.418 223.082 C 233.924 221.589 233 219.526 233 217.250 C 233 214.974 233.924 212.911 235.418 211.418 C 236.911 209.924 238.974 209 241.250 209 Z " transform="matrix(0.4802824556827545, -0.14727585017681122, 0.19739115238189697, 0.33695560693740845, -87.35, 9.55)"/>
  </g>
  <g id="ID0.1477178898639977">
    <path id="ID0.5619839346036315" fill="#CC0000" stroke="#990000" stroke-width="2" stroke-linecap="round" d="M 282.550 231 C 306.841 200.371 308.320 199.171 315.500 193 C 318.114 191.163 320.546 191.730 322.500 193 C 324.499 194.299 326.520 196.941 325.500 199.500 C 309.865 219.642 303.238 227.753 292 235 C 288.841 236.950 281.120 234.340 282.550 231 Z " transform="matrix(0.3375580608844757, -0.10878157615661621, -0.22996783256530762, -0.373542457818985, -19.85, 126.85)"/>
    <path id="ID0.6155663500539958" fill="#990000" stroke="#660000" stroke-width="2" d="M 241.250 209 C 243.526 209 245.589 209.924 247.082 211.418 C 248.576 212.911 249.500 214.974 249.500 217.250 C 249.500 219.526 248.576 221.589 247.082 223.082 C 245.589 224.576 243.526 225.500 241.250 225.500 C 238.974 225.500 236.911 224.576 235.418 223.082 C 233.924 221.589 233 219.526 233 217.250 C 233 214.974 233.924 212.911 235.418 211.418 C 236.911 209.924 238.974 209 241.250 209 Z " transform="matrix(0.3198322057723999, -0.2981453835964203, -0.3995988965034485, -0.2243872433900833, 33.15, 129)"/>
  </g>
  <path id="ID0.5486297779716551" fill="#000000" stroke="#000000" stroke-width="6" stroke-linecap="round" d="M 319.350 238.550 C 307.238 245.500 295.597 266.776 302 278 C 311.189 288.839 325.526 285.577 337.700 286.950 C 347.701 288.070 358.478 286.995 368.500 283.850 C 376.746 282.212 390.961 281.771 391.550 272.850 C 392.439 259.122 383.380 242.675 371 237 C 355.369 229.848 334.427 229.344 319.350 238.550 Z " transform="matrix(-0.1899416148662567, -0.050620127469301224, -0.07556939870119095, 0.14843037724494934, 97, 9.9)"/>
  <path id="ID0.5486297779716551" fill="#000000" stroke="#000000" stroke-width="6" stroke-linecap="round" d="M 319.350 238.550 C 307.238 245.500 295.597 266.776 302 278 C 311.189 288.839 325.526 285.577 337.700 286.950 C 347.701 288.070 358.478 286.995 368.500 283.850 C 376.746 282.212 390.961 281.771 391.550 272.850 C 392.439 259.122 383.380 242.675 371 237 C 355.369 229.848 334.427 229.344 319.350 238.550 Z " transform="matrix(-0.19998608529567719, 0.022632285952568054, 0.03378714248538017, 0.15627965331077576, 93.85, -2.9)"/>
  <path id="ID0.643749819137156" fill="#FF9400" stroke="#000000" stroke-width="2" d="M 234.750 143.750 C 237.351 145.739 238.691 148.650 239.550 151.650 C 240.128 153.101 239.791 154.979 238.815 156.339 C 237.912 157.597 236.336 158.500 234.750 158.500 C 233.164 158.500 231.726 157.674 230.685 156.339 C 229.644 155.003 229 153.160 229 151.125 C 229 149.090 229.644 147.247 230.685 145.911 C 231.726 144.576 233.429 142.989 234.750 143.750 Z " transform="matrix(-0.35412371158599854, -0.37776848673820496, -0.5221385955810547, 0.2562093138694763, 231.15, 69.6)"/>
  <path id="ID0.643749819137156" fill="#FF9400" stroke="#000000" stroke-width="2" d="M 229 151.125 C 231.145 148.055 234.178 144.726 237.600 144.650 C 239.917 144.730 240.309 148.882 240.500 151.125 C 240.652 152.964 239.856 155.003 238.815 156.339 C 237.774 157.674 236.336 158.500 234.750 158.500 C 233.164 158.500 231.701 157.643 230.685 156.339 C 229.624 154.977 228.045 152.678 229 151.125 Z " transform="matrix(-0.35412371158599854, -0.37776848673820496, -0.5221385955810547, 0.2562093138694763, 228.15, 66.05)"/>
  <path id="ID0.8540973095223308" fill="none" stroke="#000000" stroke-width="2" stroke-linecap="round" d="M 255.250 160.850 C 255.250 160.850 253.312 160.956 252.400 161.250 C 251.731 161.466 251.089 161.846 250.600 162.350 C 250.012 162.957 249.545 163.708 249.250 164.500 C 248.999 165.176 249.042 165.930 249 166.650 C 248.959 167.348 248.664 168.136 249 168.750 C 249.330 169.354 250.102 169.617 250.750 169.850 C 251.430 170.094 252.182 170.234 252.900 170.150 C 253.936 170.029 255.900 169.250 255.900 169.250 " transform="matrix(-0.23921480774879456, -0.25518712401390076, -0.35271087288856506, 0.1730724573135376, 181.5, 56.6)"/>
</svg>