<svg version="1.1" width="58" height="30" viewBox="-1 -1 58 30" xmlns="http://www.w3.org/2000/svg" xmlns:xlink="http://www.w3.org/1999/xlink">
  <!-- Exported by Scratch - http://scratch.mit.edu/ -->
  <g id="ID0.41966591589152813" transform="matrix(1, 0, 0, 1, -209, -169)">
    <path id="ID0.08983965311199427" fill="#9C6240" stroke="#9C6240" stroke-width="2" stroke-linecap="round" d="M 233.750 229 C 234.724 229.899 234.795 231.848 236.250 231.500 C 253.549 224.392 257.702 223.893 263.750 220.500 C 265.350 219.455 264.166 217.824 264 216.500 C 263.827 215.115 263.259 213.800 262.750 212.500 C 262.505 211.875 262.113 211.315 261.750 210.750 C 261.363 210.148 261.006 209.506 260.500 209 C 259.994 208.494 259.352 208.137 258.750 207.750 C 258.185 207.387 257.583 207.083 257 206.750 C 256.417 206.417 255.873 205.999 255.250 205.750 C 254.613 205.495 253.931 205.335 253.250 205.250 C 252.589 205.167 251.916 205.250 251.250 205.250 C 249.751 205.250 248.249 205.250 246.750 205.250 C 246.001 205.250 245.244 205.162 244.500 205.250 C 243.818 205.330 243.175 205.623 242.500 205.750 C 241.840 205.874 241.170 205.958 240.500 206 C 239.835 206.042 239.165 205.958 238.500 206 C 237.830 206.042 237.167 206.180 236.500 206.250 C 235.586 206.346 234.665 206.413 233.750 206.500 C 232.917 206.579 232.069 206.578 231.250 206.750 C 230.477 206.913 229.720 207.175 229 207.500 C 227.134 208.343 225.319 209.309 223.500 210.250 C 222.904 210.558 222.333 210.917 221.750 211.250 C 221.167 211.583 220.403 211.713 220 212.250 C 219.588 212.799 219.500 213.564 219.500 214.250 C 219.500 214.936 219.745 215.613 220 216.250 C 220.249 216.873 220.610 217.454 221 218 C 221.446 218.625 221.979 219.186 222.500 219.750 C 222.979 220.269 223.440 220.819 224 221.250 C 224.532 221.659 225.127 222.001 225.750 222.250 C 226.387 222.505 227.154 222.409 227.750 222.750 C 228.363 223.100 228.794 223.711 229.250 224.250 C 229.713 224.797 230.014 225.474 230.500 226 C 231.021 226.564 231.686 226.979 232.250 227.500 C 232.769 227.979 233.239 228.516 233.750 229 Z " transform="matrix(1, 0, 0, 1, 0, -34.25)"/>
    <path id="ID0.4995683627203107" fill="#C0794F" stroke="#9C6240" stroke-width="2" stroke-linecap="round" d="M 210.500 224.750 C 211.442 225.440 212.212 225.775 213 226 C 215.136 226.610 217.342 226.975 219.500 227.500 C 220.422 227.724 221.319 228.064 222.250 228.250 C 222.989 228.398 223.766 228.327 224.500 228.500 C 225.192 228.663 225.808 229.087 226.500 229.250 C 227.234 229.423 228.005 229.387 228.750 229.500 C 230.753 229.803 232.759 230.127 234.750 230.500 C 235.425 230.627 236.136 231.307 236.750 231 C 237.416 230.667 237.540 229.714 237.750 229 C 237.963 228.277 237.882 227.495 238 226.750 C 238.132 225.911 238.435 225.096 238.500 224.250 C 238.602 222.922 238.500 221.582 238.500 220.250 C 238.500 219.584 238.711 218.882 238.500 218.250 C 237.864 216.341 236.998 214.497 236 212.750 C 235.650 212.137 235.094 211.632 234.500 211.250 C 233.902 210.865 233.179 210.712 232.500 210.500 C 231.845 210.295 231.181 210.085 230.500 210 C 229.839 209.917 229.165 209.972 228.500 210 C 227.167 210.056 225.824 210.084 224.500 210.250 C 223.819 210.335 223.114 210.443 222.500 210.750 C 221.261 211.370 220.108 212.169 219 213 C 218.435 213.424 218.029 214.032 217.500 214.500 C 215.863 215.948 214.137 217.302 212.500 218.750 C 211.971 219.218 211.382 219.656 211 220.250 C 210.615 220.848 210.381 221.551 210.250 222.250 C 210.127 222.905 210.131 223.595 210.250 224.250 C 210.304 224.545 210.497 224.839 210.750 225 Z " transform="matrix(1, 0, 0, 1, 0, -33.5)"/>
    <path id="ID0.6304234000854194" fill="none" stroke="#9C6240" stroke-width="2" stroke-linecap="round" d="M 218.750 219 L 219.050 219.300 " transform="matrix(1, 0, 0, 1, 0, -33.5)"/>
    <path id="ID0.4965427713468671" fill="none" stroke="#9C6240" stroke-width="2" stroke-linecap="round" d="M 231.500 221.750 L 231.800 222.050 " transform="matrix(1, 0, 0, 1, 0, -33.5)"/>
    <path id="ID0.011592170223593712" fill="none" stroke="#9C6240" stroke-width="2" stroke-linecap="round" d="M 231.750 216.250 L 232.050 216.550 " transform="matrix(1, 0, 0, 1, 0, -33.5)"/>
    <path id="ID0.49737656069919467" fill="none" stroke="#9C6240" stroke-width="2" stroke-linecap="round" d="M 226.250 220.750 L 226.550 221.050 " transform="matrix(1, 0, 0, 1, 0, -33.5)"/>
    <path id="ID0.8218508106656373" fill="none" stroke="#9C6240" stroke-width="2" stroke-linecap="round" d="M 227.750 212.750 L 228.050 213.050 " transform="matrix(1, 0, 0, 1, 0, -33.5)"/>
    <path id="ID0.0022455682046711445" fill="none" stroke="#9C6240" stroke-width="2" stroke-linecap="round" d="M 222 216.250 L 222.300 216.550 " transform="matrix(1, 0, 0, 1, 0, -33.5)"/>
    <path id="ID0.966289883479476" fill="none" stroke="#9C6240" stroke-width="2" stroke-linecap="round" d="M 219.500 224.750 L 219.800 225.050 " transform="matrix(1, 0, 0, 1, 0, -33.5)"/>
    <path id="ID0.577160416636616" fill="none" stroke="#9C6240" stroke-width="2" stroke-linecap="round" d="M 214 223 L 214.300 223.300 " transform="matrix(1, 0, 0, 1, 0, -33.5)"/>
    <path id="ID0.4997675227932632" fill="none" stroke="#9C6240" stroke-width="2" stroke-linecap="round" d="M 231.750 225.250 L 232.050 225.550 " transform="matrix(1, 0, 0, 1, 0, -33.5)"/>
    <path id="ID0.3711399454623461" fill="none" stroke="#9C6240" stroke-width="2" stroke-linecap="round" d="M 226 224.750 L 226.300 225.050 " transform="matrix(1, 0, 0, 1, 0, -33.5)"/>
    <path id="ID0.006221535615622997" fill="none" stroke="#73482F" stroke-width="2" stroke-linecap="round" d="M 229.500 207 C 229.500 207 234.920 208.891 237.250 210.500 C 238.524 211.380 239.171 212.942 240 214.250 C 240.757 215.446 241.436 216.702 242 218 C 242.274 218.630 242.415 219.319 242.500 220 C 242.583 220.661 242.500 221.334 242.500 222 C 242.500 224.248 242.500 228.750 242.500 228.750 " transform="matrix(1, 0, 0, 1, 0, -33.5)"/>
    <path id="ID0.5244854087941349" fill="none" stroke="#73482F" stroke-width="2" stroke-linecap="round" d="M 243.750 205.500 C 243.750 205.500 245.025 206.025 245.500 206.500 C 246.548 207.548 247.285 208.875 248.250 210 C 248.786 210.626 249.491 211.102 250 211.750 C 250.415 212.278 250.667 212.917 251 213.500 C 251.333 214.083 251.751 214.627 252 215.250 C 252.255 215.887 252.381 216.574 252.500 217.250 C 252.631 217.992 252.706 218.747 252.750 219.500 C 252.789 220.165 252.708 220.835 252.750 221.500 C 252.792 222.170 252.952 222.831 253 223.500 C 253.036 223.998 253 225 253 225 " transform="matrix(1, 0, 0, 1, 0, -33.5)"/>
    <path id="ID0.09594908775761724" fill="none" stroke="#73482F" stroke-width="2" stroke-linecap="round" d="M 254.250 205.500 C 254.250 205.500 255.326 206.435 255.750 207 C 256.581 208.108 257.359 209.272 258 210.500 C 258.365 211.200 258.579 211.979 258.750 212.750 C 258.914 213.486 258.912 214.251 259 215 C 259.078 215.667 259.224 216.329 259.250 217 C 259.308 218.497 259.250 221.500 259.250 221.500 " transform="matrix(1, 0, 0, 1, 0, -33.5)"/>
  </g>
</svg>