<svg version="1.1" width="29" height="31" viewBox="-1 -1 29 31" xmlns="http://www.w3.org/2000/svg" xmlns:xlink="http://www.w3.org/1999/xlink">
  <!-- Exported by Scratch - http://scratch.mit.edu/ -->
  <path id="ID0.9474549614824355" fill="#DE9D4A" stroke="none" d="M 228 168.250 L 255 168.250 L 255 197.500 L 228 197.500 L 228 168.250 Z " transform="matrix(1, 0, 0, 1, -227.25, -167)"/>
  <path id="ID0.762261270545423" fill="#C08840" stroke="none" d="M 227.500 165.750 L 254.750 165.750 L 254.750 171.750 L 227.500 171.750 L 227.500 165.750 Z " transform="matrix(1, 0, 0, 1, -227, -165)"/>
  <path id="ID0.04371284879744053" fill="#C08840" stroke="none" d="M 227.750 190 L 255 190 L 255 195 L 227.750 195 L 227.750 190 Z " transform="matrix(1, 0, 0, 1, -227, -165)"/>
  <path id="ID0.6363116963766515" fill="#CC9044" stroke="none" d="M 227.750 171.250 L 232.750 171.250 L 232.750 189.250 L 227.750 189.250 L 227.750 171.250 Z " transform="matrix(1, 0, 0, 1.0555555820465088, -227, -174.5)"/>
  <path id="ID0.6363116963766515" fill="#CC9044" stroke="none" d="M 227.750 171.250 L 232.750 171.250 L 232.750 189.250 L 227.750 189.250 L 227.750 171.250 Z " transform="matrix(1, 0, 0, 1.0555555820465088, -204.75, -174.05)"/>
  <path id="ID0.7046413738280535" fill="none" stroke="#CC9044" stroke-width="2" stroke-linecap="round" d="M 231 171.500 L 250.250 190 " transform="matrix(1, 0, 0, 1, -227, -165)"/>
  <path id="ID0.864055241458118" fill="none" stroke="#CC9044" stroke-width="2" stroke-linecap="round" d="M 250.250 171.500 L 232.250 189 " transform="matrix(1, 0, 0, 1, -227, -165)"/>
</svg>