<svg version="1.1" width="25" height="20" viewBox="-1 -1 25 20" xmlns="http://www.w3.org/2000/svg" xmlns:xlink="http://www.w3.org/1999/xlink">
  <!-- Exported by Scratch - http://scratch.mit.edu/ -->
  <path id="ID0.21119559975340962" fill="#FFFF00" stroke="none" d="M 245.325 173 C 246.201 173 246.995 173.336 247.569 173.879 C 248.144 174.422 248.500 175.172 248.500 176 C 248.500 176.828 248.144 177.578 247.569 178.121 C 246.995 178.664 246.201 179 245.325 179 C 244.449 179 243.655 178.664 243.081 178.121 C 242.506 177.578 242.150 176.828 242.150 176 C 242.150 175.172 242.506 174.422 243.081 173.879 C 243.655 173.336 244.449 173 245.325 173 Z " transform="matrix(1, 0, 0, 1, -236, -173)"/>
  <path id="ID0.5298788701184094" fill="#00FFFF" stroke="none" d="M 246.825 186 C 247.742 186 248.574 186.345 249.176 186.901 C 249.777 187.458 250.150 188.227 250.150 189.075 C 250.150 189.923 249.777 190.692 249.176 191.249 C 248.574 191.805 247.742 192.150 246.825 192.150 C 245.908 192.150 245.076 191.805 244.474 191.249 C 243.873 190.692 243.500 189.923 243.500 189.075 C 243.500 188.227 243.873 187.458 244.474 186.901 C 245.076 186.345 245.908 186 246.825 186 Z " transform="matrix(1, 0, 0, 1, -242.55, -174.05)"/>
  <path id="ID0.19409974059090018" fill="#FF0000" stroke="none" d="M 254.875 181.800 C 256.082 181.800 257.176 182.304 257.968 183.119 C 258.760 183.933 259.250 185.058 259.250 186.300 C 259.250 187.542 258.760 188.667 257.968 189.481 C 257.176 190.296 256.082 190.800 254.875 190.800 C 253.668 190.800 252.574 190.296 251.782 189.481 C 250.990 188.667 250.500 187.542 250.500 186.300 C 250.500 185.058 250.990 183.933 251.782 183.119 C 252.574 182.304 253.668 181.800 254.875 181.800 Z " transform="matrix(1, 0, 0, 1, -235.25, -174.15)"/>
  <path id="ID0.4192291311919689" fill="#00FF55" stroke="none" d="M 227.850 177.300 L 235.350 177.300 L 235.350 185.150 L 227.850 185.150 L 227.850 177.300 Z " transform="matrix(0.8494166731834412, 0.5277227163314819, -0.5277227163314819, 0.8494166731834412, -86.9, -266.6)"/>
  <path id="ID0.4182639177888632" fill="#7F00FF" stroke="none" d="M 229 180.900 L 234.850 180.900 L 234.850 186.650 L 229 186.650 L 229 180.900 Z " transform="matrix(0.7585020065307617, -0.6516706943511963, 0.6516706943511963, 0.7585020065307617, -290.5, 20.9)"/>
  <path id="ID0.4182639177888632" fill="#FF00BF" stroke="none" d="M 229 180.900 L 234.850 180.900 L 234.850 186.650 L 229 186.650 L 229 180.900 Z " transform="matrix(0.9665031433105469, -0.2566547393798828, 0.2566547393798828, 0.9665031433105469, -259, -102.9)"/>
</svg>