<svg version="1.1" width="85" height="62" viewBox="3 -1 85 62" xmlns="http://www.w3.org/2000/svg" xmlns:xlink="http://www.w3.org/1999/xlink">
  <!-- Exported by Scratch - http://scratch.mit.edu/ -->
  <g id="ID0.48240807792171836" transform="matrix(1, 0, 0, 1, 0, -5)">
    <path id="ID0.18150845123454928" fill="#6CDAFF" stroke="#000000" stroke-width="2" stroke-linecap="round" d="M 275.150 213.500 C 278.223 213.253 281.442 214.903 282.900 217.250 C 285.034 220.742 284.853 225.356 284.750 229.100 C 284.561 235.743 283.345 242.329 282.400 248.900 C 281.350 256.229 282.584 269.570 279.150 271.350 C 276.051 272.677 271.988 260.610 269.150 255.200 C 265.762 248.740 261.169 242.255 260.100 235.250 C 259.296 229.986 260.419 224.031 263.400 219.600 C 265.862 215.944 270.774 213.876 275.150 213.500 Z " transform="matrix(-0.3068545460700989, 0.09354501962661743, 0.15888617932796478, 0.25057360529899597, 116.15, -34.5)"/>
    <path id="ID0.0035421540960669518" fill="none" stroke="#FFFFFF" stroke-width="2" stroke-linecap="round" d="M 270.650 218.350 C 270.650 218.350 263.877 225.469 263.750 230.100 C 263.549 236.389 269.750 248.300 269.750 248.300 " transform="matrix(-0.3068545460700989, 0.09354501962661743, 0.15888617932796478, 0.25057360529899597, 116.15, -34.5)"/>
  </g>
  <g id="ID0.48240807792171836">
    <path id="ID0.18150845123454928" fill="#6CDAFF" stroke="#000000" stroke-width="2" stroke-linecap="round" d="M 275.150 213.500 C 278.223 213.253 281.442 214.903 282.900 217.250 C 285.034 220.742 284.853 225.356 284.750 229.100 C 284.561 235.743 283.345 242.329 282.400 248.900 C 281.350 256.229 282.584 269.570 279.150 271.350 C 276.051 272.677 271.988 260.610 269.150 255.200 C 265.762 248.740 261.169 242.255 260.100 235.250 C 259.296 229.986 260.419 224.031 263.400 219.600 C 265.862 215.944 270.774 213.876 275.150 213.500 Z " transform="matrix(0.2389560490846634, 0.21403364837169647, -0.24960878491401672, 0.16039766371250153, 29.75, -59.2)"/>
    <path id="ID0.0035421540960669518" fill="none" stroke="#FFFFFF" stroke-width="2" stroke-linecap="round" d="M 270.650 218.350 C 270.650 218.350 263.877 225.469 263.750 230.100 C 263.549 236.389 269.750 248.300 269.750 248.300 " transform="matrix(0.2389560490846634, 0.21403364837169647, -0.24960878491401672, 0.16039766371250153, 29.75, -59.2)"/>
  </g>
  <g id="ID0.2420122711919248">
    <g id="ID0.7129468834027648">
      <path id="ID0.2604714026674628" fill="#FFFF00" stroke="#000000" stroke-width="2" stroke-linecap="round" d="M 237 85.650 L 251.300 144.300 L 224 145.300 L 237 85.650 Z " transform="matrix(-0.3408729135990143, -0.07524827867746353, -0.056658629328012466, 0.2566622495651245, 149.45, -2.2)"/>
      <path id="ID0.4227697029709816" fill="none" stroke="#000000" stroke-width="2" stroke-linecap="round" d="M 248 134 L 224.350 143 " transform="matrix(-0.3408729135990143, -0.07524827867746353, -0.056658629328012466, 0.2566622495651245, 149.45, -2.2)"/>
      <path id="ID0.39849042566493154" fill="none" stroke="#000000" stroke-width="2" stroke-linecap="round" d="M 245 117.650 L 230.350 123 " transform="matrix(-0.3408729135990143, -0.07524827867746353, -0.056658629328012466, 0.2566622495651245, 149.45, -2.2)"/>
      <path id="ID0.5916849924251437" fill="none" stroke="#000000" stroke-width="2" stroke-linecap="round" d="M 241.350 104.650 L 232 108.350 " transform="matrix(-0.3408729135990143, -0.07524827867746353, -0.056658629328012466, 0.2566622495651245, 149.45, -2.2)"/>
    </g>
    <path id="ID0.6581924292258918" fill="#6CDAFF" stroke="#000000" stroke-width="2" stroke-linecap="round" d="M 237.800 155.800 C 249.540 155.767 261.432 161.816 270.550 169.300 C 275.889 173.685 276.256 181.709 277.750 188.200 C 279.248 194.789 279.205 201.692 279.450 208.200 C 279.910 220.464 279.396 233.057 280 245.050 C 280.543 255.852 277.694 267.602 282.950 277.400 C 286.861 284.686 297.085 286.390 304.350 290 C 306.666 291.151 309.224 291.121 311.950 291.600 C 313.407 291.855 316.154 290.029 316.350 292.200 C 317.128 300.848 314.823 309.511 314.300 318.200 C 314.169 320.372 316.857 320.658 314.750 321.200 C 306.320 323.366 296.796 323.955 287.750 324.600 C 279.456 325.194 270.631 325.490 262.150 324.600 C 253.363 323.680 244.104 322.929 235.950 319.400 C 228.945 316.163 222.608 310.975 217.900 304.850 C 211.729 296.821 207.464 287.269 204.300 277.650 C 201.248 268.361 199.999 258.116 199.050 248.200 C 197.813 235.264 197.904 222.527 197.750 209.850 C 197.671 203.087 197.104 196.174 198.350 189.850 C 199.732 182.844 200.010 174.435 205.550 169.650 C 214.397 162.014 226.115 155.837 237.800 155.800 Z " transform="matrix(-0.3408729135990143, -0.07524827867746353, -0.056658629328012466, 0.2566622495651245, 150.1, -5.65)"/>
    <path id="ID0.4747713301330805" fill="none" stroke="#FFFFFF" stroke-width="2" stroke-linecap="round" d="M 236.800 144.500 C 236.800 144.500 231.702 144.993 229.250 145.750 C 226.069 146.720 222.913 148.010 220 149.650 C 217.963 150.797 216.097 152.499 214.400 154.200 C 212.185 156.418 208.150 161.450 208.150 161.450 " transform="matrix(-0.3408729135990143, -0.07524827867746353, -0.056658629328012466, 0.2566622495651245, 150.3, -1.35)"/>
  </g>
  <path id="ID0.47664465522393584" fill="none" stroke="#000000" stroke-width="2" stroke-linecap="round" d="M 222.500 219.600 C 222.500 219.600 221.180 223.825 222.500 225.150 C 224.155 226.553 226.964 225.894 229.150 225.700 C 230.724 225.556 232.025 224.043 233.600 224.050 C 235.077 224.026 236.472 225.611 238.050 225.700 C 240.153 225.818 243.048 226.223 244.700 224.600 C 245.784 223.241 244.150 219.050 244.150 219.050 " transform="matrix(-0.41828230023384094, -0.09233653545379639, -0.07957039028406143, 0.36045196652412415, 170.35, -23.7)"/>
  <path id="ID0.2474912153556943" fill="#FFFFFF" stroke="#000000" stroke-width="2" stroke-linecap="round" d="M 235.650 228 C 241.444 228 247.224 231.836 250.495 236.499 C 255.037 242.974 256.423 251.455 257.850 259.300 C 259.046 266.406 263.353 274.546 259.600 280.250 C 255.187 285.943 245.656 286.098 238.900 285.750 C 232.768 285.438 225.879 282.871 222.100 278.150 C 217.387 272.250 215.698 263.673 215.500 256.450 C 215.313 249.578 216.871 242.144 220.805 236.499 C 224.064 231.822 229.856 228 235.650 228 Z " transform="matrix(-0.29969602823257446, -0.06615841388702393, -0.049814362078905106, 0.2256578803062439, 134.75, 6.05)"/>
  <g id="ID0.8499903189949691">
    <path id="ID0.845822561532259" fill="#6CDAFF" stroke="#000000" stroke-width="2" stroke-linecap="round" d="M 342.850 193.350 C 348.972 191.616 355.090 186.273 358.050 180.300 C 360.157 176.015 357.792 170.140 355.050 166.200 C 351.675 161.315 344.473 160.338 340.200 156.250 C 337.837 153.461 333.323 148.535 335.800 146.250 C 340.356 142.054 348.319 142.577 354.950 142.500 C 359.642 142.441 364.185 144.160 369.050 145.850 C 371.364 146.659 372.733 149.762 375.200 149.900 C 377.514 150.093 379.041 147.322 381.100 146.400 C 385.714 144.891 390.308 142.622 395.150 142.650 C 401.515 142.686 408.263 143.495 413.600 146.850 C 415.525 148.048 413.857 152.174 411.900 153.700 C 405.472 159.237 396.822 161.620 389.800 166.900 C 386.958 169.038 385.593 172.524 383.400 175.450 C 381.456 178.051 379.774 180.935 378.100 183.650 C 373.379 191.292 370.894 200.493 364.500 206.950 C 359.209 212.471 351.808 215.759 344.250 218.350 C 335.274 221.429 325.648 223.550 316.250 223.650 C 313.901 223.675 313.590 221.428 313.250 219.350 C 311.891 211.035 310.985 202.571 311.400 194.200 C 311.519 192.078 312.249 192.908 314.600 192.850 C 324.006 192.615 333.798 195.913 342.850 193.350 Z " transform="matrix(-0.25661930441856384, -0.05589301884174347, -0.05593797564506531, 0.25682029128074646, 119.15, 13.65)"/>
    <path id="ID0.22437191475182772" fill="#6CDAFF" stroke="none" stroke-linecap="round" d="M 324.900 181.850 L 353.500 185.950 L 354.050 207.700 L 328.200 213.200 L 324.900 181.850 Z " transform="matrix(-0.25661930441856384, -0.05589301884174347, -0.05593797564506531, 0.25682029128074646, 123.15, 17.45)"/>
    <path id="ID0.7040526834316552" fill="none" stroke="#FFFFFF" stroke-width="2" stroke-linecap="round" d="M 337.300 152.600 C 337.300 152.600 328.785 146.492 330.400 144.500 C 332.583 141.626 346.450 141.900 346.450 141.900 " transform="matrix(-0.25661930441856384, -0.05589301884174347, -0.05593797564506531, 0.25682029128074646, 116.35, 14)"/>
  </g>
  <g id="ID0.2661628294736147">
    <g id="ID0.8039874886162579">
      <path id="ID0.4877005652524531" fill="#000000" stroke="#000000" stroke-width="3" stroke-linecap="round" d="M 401.700 182.450 L 401.100 162.200 L 420.400 155.100 L 443.750 142.800 L 481.700 116.350 L 425.300 193.750 L 411.350 186.200 L 401.700 182.450 Z " transform="matrix(-0.30827009677886963, -0.06805115193128586, -0.051239509135484695, 0.2321137636899948, 190.25, 13.4)"/>
      <path id="ID0.4877005652524531" fill="#000000" stroke="#000000" stroke-width="3" stroke-linecap="round" d="M 401.700 182.450 L 401.100 162.200 L 420.400 155.100 L 443.750 142.800 L 481.700 116.350 L 425.300 193.750 L 411.350 186.200 L 401.700 182.450 Z " transform="matrix(0.30827009677886963, 0.06805115193128586, -0.051239509135484695, 0.2321137636899948, -56.4, -41)"/>
    </g>
    <path id="ID0.9342148057185113" fill="#FFFFFF" stroke="none" stroke-linecap="round" d="M 158.850 144.650 L 177.300 154.600 L 182.500 156.450 L 182.200 185.750 L 174.700 189.600 L 159.150 168.100 L 158.850 144.650 Z " transform="matrix(-0.3408729135990143, -0.07524827867746353, -0.056658629328012466, 0.2566622495651245, 134.7, -2.7)"/>
    <path id="ID0.9342148057185113" fill="#FFFFFF" stroke="none" stroke-linecap="round" d="M 158.850 144.650 L 173.750 153.100 L 174.700 189.600 L 159.150 168.100 L 158.850 144.650 Z " transform="matrix(0.3408729135990143, 0.07524827867746353, -0.056658629328012466, 0.2566622495651245, 0.35, -32.4)"/>
    <path id="ID0.9342148057185113" fill="#FFFFFF" stroke="none" stroke-linecap="round" d="M 160.750 152.750 L 166.150 157.200 L 166.300 166.850 L 160.750 159.450 L 160.750 152.750 Z " transform="matrix(0.3408729135990143, 0.07524827867746353, -0.056658629328012466, 0.2566622495651245, -7.35, -41.2)"/>
  </g>
  <path id="ID0.01927188504487276" fill="none" stroke="#000000" stroke-width="1" stroke-linecap="round" d="M 221.850 140.200 C 221.850 140.200 222.061 135.857 221 134.100 C 220.259 132.880 218.429 131.922 217.300 132.650 C 215.802 133.329 215.400 137.100 215.400 137.100 " transform="matrix(0.7886693477630615, 0.08661147207021713, -0.012662739492952824, 0.44409725069999695, -116.9, -62.45)"/>
  <path id="ID0.01927188504487276" fill="none" stroke="#000000" stroke-width="1" stroke-linecap="round" d="M 221.850 140.200 C 221.850 140.200 222.061 135.857 221 134.100 C 220.259 132.880 218.429 131.922 217.300 132.650 C 215.802 133.329 215.400 137.100 215.400 137.100 " transform="matrix(-0.7518376708030701, -0.25345808267593384, -0.17547371983528137, 0.40815645456314087, 254.85, 19.65)"/>
</svg>