<svg version="1.1" width="114" height="60" viewBox="-1 -1 114 60" xmlns="http://www.w3.org/2000/svg" xmlns:xlink="http://www.w3.org/1999/xlink">
  <defs>
    <radialGradient id="grad_1" cx="0.40399999999999997" cy="0.4935" r="0.7748">
      <stop offset="0" stop-color="#6CDAFF" stop-opacity="1"/>
      <stop offset="1" stop-color="#6CDAFF" stop-opacity="0"/>
    </radialGradient>
    <radialGradient id="grad_2" cx="0.5384" cy="0.5505" r="0.71565">
      <stop offset="0" stop-color="#FFFF00" stop-opacity="1"/>
      <stop offset="1" stop-color="#FFFF00" stop-opacity="0"/>
    </radialGradient>
    <radialGradient id="grad_3" cx="0.40399999999999997" cy="0.4935" r="0.7748">
      <stop offset="0" stop-color="#6CDAFF" stop-opacity="1"/>
      <stop offset="1" stop-color="#6CDAFF" stop-opacity="0"/>
    </radialGradient>
    <radialGradient id="grad_4" cx="0.40399999999999997" cy="0.4935" r="0.7748">
      <stop offset="0" stop-color="#6CDAFF" stop-opacity="1"/>
      <stop offset="1" stop-color="#6CDAFF" stop-opacity="0"/>
    </radialGradient>
    <radialGradient id="grad_5" cx="0.40399999999999997" cy="0.4935" r="0.7748">
      <stop offset="0" stop-color="#6CDAFF" stop-opacity="1"/>
      <stop offset="1" stop-color="#6CDAFF" stop-opacity="0"/>
    </radialGradient>
    <radialGradient id="grad_6" cx="0.40399999999999997" cy="0.4935" r="0.7748">
      <stop offset="0" stop-color="#6CDAFF" stop-opacity="1"/>
      <stop offset="1" stop-color="#6CDAFF" stop-opacity="0"/>
    </radialGradient>
    <radialGradient id="grad_7" cx="0.40399999999999997" cy="0.4935" r="0.7748">
      <stop offset="0" stop-color="#6CDAFF" stop-opacity="1"/>
      <stop offset="1" stop-color="#6CDAFF" stop-opacity="0"/>
    </radialGradient>
    <radialGradient id="grad_8" cx="0.40399999999999997" cy="0.4935" r="0.7748">
      <stop offset="0" stop-color="#6CDAFF" stop-opacity="1"/>
      <stop offset="1" stop-color="#6CDAFF" stop-opacity="0"/>
    </radialGradient>
    <radialGradient id="grad_9" cx="0.40399999999999997" cy="0.4935" r="0.7748">
      <stop offset="0" stop-color="#6CDAFF" stop-opacity="1"/>
      <stop offset="1" stop-color="#6CDAFF" stop-opacity="0"/>
    </radialGradient>
    <radialGradient id="grad_10" cx="0.40399999999999997" cy="0.4935" r="0.7748">
      <stop offset="0" stop-color="#6CDAFF" stop-opacity="1"/>
      <stop offset="1" stop-color="#6CDAFF" stop-opacity="0"/>
    </radialGradient>
    <radialGradient id="grad_11" cx="0.40399999999999997" cy="0.4935" r="0.7748">
      <stop offset="0" stop-color="#6CDAFF" stop-opacity="1"/>
      <stop offset="1" stop-color="#6CDAFF" stop-opacity="0"/>
    </radialGradient>
    <radialGradient id="grad_12" cx="0.40399999999999997" cy="0.4935" r="0.7748">
      <stop offset="0" stop-color="#6CDAFF" stop-opacity="1"/>
      <stop offset="1" stop-color="#6CDAFF" stop-opacity="0"/>
    </radialGradient>
    <radialGradient id="grad_13" cx="0.40399999999999997" cy="0.4935" r="0.7748">
      <stop offset="0" stop-color="#6CDAFF" stop-opacity="1"/>
      <stop offset="1" stop-color="#6CDAFF" stop-opacity="0"/>
    </radialGradient>
    <radialGradient id="grad_14" cx="0.40399999999999997" cy="0.4935" r="0.7748">
      <stop offset="0" stop-color="#6CDAFF" stop-opacity="1"/>
      <stop offset="1" stop-color="#6CDAFF" stop-opacity="0"/>
    </radialGradient>
    <radialGradient id="grad_15" cx="0.40399999999999997" cy="0.4935" r="0.7748">
      <stop offset="0" stop-color="#6CDAFF" stop-opacity="1"/>
      <stop offset="1" stop-color="#6CDAFF" stop-opacity="0"/>
    </radialGradient>
    <radialGradient id="grad_16" cx="0.40399999999999997" cy="0.4935" r="0.7748">
      <stop offset="0" stop-color="#6CDAFF" stop-opacity="1"/>
      <stop offset="1" stop-color="#6CDAFF" stop-opacity="0"/>
    </radialGradient>
  </defs>
  <!-- Exported by Scratch - http://scratch.mit.edu/ -->
  <g id="ID0.48240807792171836" transform="matrix(1, 0, 0, 1, 0, 0.55)">
    <path id="ID0.18150845123454928" fill="#6CDAFF" stroke="#000000" stroke-width="2" stroke-linecap="round" d="M 275.150 213.500 C 278.223 213.253 281.442 214.903 282.900 217.250 C 285.034 220.742 284.853 225.356 284.750 229.100 C 284.561 235.743 283.345 242.329 282.400 248.900 C 281.350 256.229 282.584 269.570 279.150 271.350 C 276.051 272.677 271.988 260.610 269.150 255.200 C 265.762 248.740 261.169 242.255 260.100 235.250 C 259.296 229.986 260.419 224.031 263.400 219.600 C 265.862 215.944 270.774 213.876 275.150 213.500 Z " transform="matrix(-0.002028406597673893, -0.3490697145462036, -0.26802927255630493, 0.0026417088229209185, 133.45, 138)"/>
    <path id="ID0.0035421540960669518" fill="none" stroke="#FFFFFF" stroke-width="2" stroke-linecap="round" d="M 270.650 218.350 C 270.650 218.350 263.877 225.469 263.750 230.100 C 263.549 236.389 269.750 248.300 269.750 248.300 " transform="matrix(-0.002028406597673893, -0.3490697145462036, -0.26802927255630493, 0.0026417088229209185, 133.45, 138)"/>
  </g>
  <g id="ID0.48240807792171836" transform="matrix(1, 0, 0, 1, 0, 0.55)">
    <path id="ID0.18150845123454928" fill="#6CDAFF" stroke="#000000" stroke-width="2" stroke-linecap="round" d="M 275.150 213.500 C 278.223 213.253 281.442 214.903 282.900 217.250 C 285.034 220.742 284.853 225.356 284.750 229.100 C 284.561 235.743 283.345 242.329 282.400 248.900 C 281.350 256.229 282.584 269.570 279.150 271.350 C 276.051 272.677 271.988 260.610 269.150 255.200 C 265.762 248.740 261.169 242.255 260.100 235.250 C 259.296 229.986 260.419 224.031 263.400 219.600 C 265.862 215.944 270.774 213.876 275.150 213.500 Z " transform="matrix(-0.06593415886163712, 0.33835336565971375, -0.25980085134506226, -0.08586978912353516, 148.7, -60.05)"/>
    <path id="ID0.0035421540960669518" fill="none" stroke="#FFFFFF" stroke-width="2" stroke-linecap="round" d="M 270.650 218.350 C 270.650 218.350 263.877 225.469 263.750 230.100 C 263.549 236.389 269.750 248.300 269.750 248.300 " transform="matrix(-0.06593415886163712, 0.33835336565971375, -0.25980085134506226, -0.08586978912353516, 148.7, -60.05)"/>
  </g>
  <g id="ID0.2420122711919248" transform="matrix(1, 0, 0, 1, 0, 0.55)">
    <g id="ID0.7129468834027648">
      <path id="ID0.2604714026674628" fill="#FFFF00" stroke="#000000" stroke-width="2" stroke-linecap="round" d="M 237 85.650 L 251.300 144.300 L 224 145.300 L 237 85.650 Z " transform="matrix(-0.008814757689833641, -0.34889087080955505, -0.2678919732570648, 0.011479957960546017, 136.75, 108.6)"/>
      <path id="ID0.4227697029709816" fill="none" stroke="#000000" stroke-width="2" stroke-linecap="round" d="M 248 134 L 224.350 143 " transform="matrix(-0.008814757689833641, -0.34889087080955505, -0.2678919732570648, 0.011479957960546017, 136.75, 108.6)"/>
      <path id="ID0.39849042566493154" fill="none" stroke="#000000" stroke-width="2" stroke-linecap="round" d="M 245 117.650 L 230.350 123 " transform="matrix(-0.008814757689833641, -0.34889087080955505, -0.2678919732570648, 0.011479957960546017, 136.75, 108.6)"/>
      <path id="ID0.5916849924251437" fill="none" stroke="#000000" stroke-width="2" stroke-linecap="round" d="M 241.350 104.650 L 232 108.350 " transform="matrix(-0.008814757689833641, -0.34889087080955505, -0.2678919732570648, 0.011479957960546017, 136.75, 108.6)"/>
    </g>
    <path id="ID0.6581924292258918" fill="#6CDAFF" stroke="#000000" stroke-width="2" stroke-linecap="round" d="M 237.800 155.800 C 249.540 155.767 261.432 161.816 270.550 169.300 C 275.889 173.685 276.256 181.709 277.750 188.200 C 279.248 194.789 279.205 201.692 279.450 208.200 C 279.910 220.464 279.396 233.057 280 245.050 C 280.543 255.852 281.941 266.636 282.950 277.400 C 283.974 288.391 284.250 299.769 284.850 310.900 C 285.616 334.264 280.998 338.754 278.700 347.500 C 273.036 367.717 271.974 390.033 262.100 408.950 C 259.613 413.351 251.922 406.360 247 407.300 C 245.343 407.616 245.146 410.764 243.500 411 C 240.719 411.297 237.780 415.945 235.600 410.550 C 226.831 387.149 221.669 362.902 216.050 338.800 C 214 329.974 214.702 319.890 212.950 310.250 C 210.779 299.473 206.740 289.109 204.300 277.650 C 202.217 267.910 199.999 258.116 199.050 248.200 C 197.813 235.264 197.904 222.527 197.750 209.850 C 197.671 203.087 197.104 196.174 198.350 189.850 C 199.732 182.844 200.010 174.435 205.550 169.650 C 214.397 162.014 226.115 155.837 237.800 155.800 Z " transform="matrix(-0.008814757689833641, -0.34889087080955505, -0.2678919732570648, 0.011479957960546017, 140.35, 108.35)"/>
    <path id="ID0.4747713301330805" fill="none" stroke="#FFFFFF" stroke-width="2" stroke-linecap="round" d="M 236.800 144.500 C 236.800 144.500 231.702 144.993 229.250 145.750 C 226.069 146.720 222.913 148.010 220 149.650 C 217.963 150.797 216.097 152.499 214.400 154.200 C 212.185 156.418 208.150 161.450 208.150 161.450 " transform="matrix(-0.008814757689833641, -0.34889087080955505, -0.2678919732570648, 0.011479957960546017, 136.15, 109.65)"/>
  </g>
  <path id="ID0.2474912153556943" fill="#FFFFFF" stroke="#000000" stroke-width="2" stroke-linecap="round" d="M 235.650 228 C 241.444 228 247.224 231.836 250.495 236.499 C 255.037 242.974 256.423 251.455 257.850 259.300 C 259.046 266.406 263.353 274.546 259.600 280.250 C 255.187 285.943 245.656 286.098 238.900 285.750 C 232.768 285.438 225.879 282.871 222.100 278.150 C 217.387 272.250 215.698 263.673 215.500 256.450 C 215.313 249.578 216.871 242.144 220.805 236.499 C 224.064 231.822 229.856 228 235.650 228 Z " transform="matrix(-0.007749950513243675, -0.3067454695701599, -0.3827380836009979, 0.016401449218392372, 156.75, 95.6)"/>
  <path id="ID0.845822561532259" fill="#6CDAFF" stroke="#000000" stroke-width="3" stroke-linecap="round" d="M 342.850 193.350 C 351.100 193.644 359.022 199.039 365.300 194.950 C 382.053 184.054 387.317 159.768 404.500 151.400 C 426.107 141.511 454.006 140.423 474.400 143.600 C 480.855 144.607 465.148 154.957 460.550 160.100 C 456.149 165.078 443.372 168.546 446.550 174.400 C 454.722 189.394 492.199 197.935 487.550 207.550 C 482.096 218.825 446.976 216.079 426.400 217.750 C 410.929 218.997 394.173 216.325 377.600 215.900 C 373.917 215.887 370.718 216.048 366.200 216.450 C 357.688 217.241 349.638 218.568 340.750 219.850 C 332.580 221.028 324.722 223.579 316.250 223.650 C 314.132 223.668 313.590 221.428 313.250 219.350 C 311.891 211.035 310.985 202.571 311.400 194.200 C 311.519 192.078 312.249 192.908 314.600 192.850 C 324.006 192.615 333.448 193.003 342.850 193.350 Z " transform="matrix(-0.14867635071277618, 0.012815456837415695, 0.012758764438331127, 0.2573870122432709, 71.85, -30.25)"/>
  <path id="ID0.22437191475182772" fill="#6CDAFF" stroke="none" stroke-linecap="round" d="M 305.750 177.300 L 353.500 185.950 L 354.050 207.700 L 301.600 219.300 L 305.750 177.300 Z " transform="matrix(-0.14867635071277618, 0.012815456837415695, 0.012758764438331127, 0.2573870122432709, 74.75, -27.75)"/>
  <g id="ID0.2661628294736147" transform="matrix(1, 0, 0, 1, 0, 0.55)">
    <g id="ID0.8039874886162579">
      <path id="ID0.4877005652524531" fill="#000000" stroke="#000000" stroke-width="3" stroke-linecap="round" d="M 401.700 182.450 L 401.100 162.200 L 420.400 155.100 L 443.750 142.800 L 481.700 116.350 L 425.300 193.750 L 411.350 186.200 L 401.700 182.450 Z " transform="matrix(-0.007971669547259808, -0.3155211806297302, -0.24226941168308258, 0.010381956584751606, 131.25, 152)"/>
      <path id="ID0.4877005652524531" fill="#000000" stroke="#000000" stroke-width="3" stroke-linecap="round" d="M 401.700 182.450 L 401.100 162.200 L 420.400 155.100 L 443.750 142.800 L 481.700 116.350 L 425.300 193.750 L 411.350 186.200 L 401.700 182.450 Z " transform="matrix(0.007971669547259808, 0.3155211806297302, -0.24226941168308258, 0.010381956584751606, 124.9, -100.4)"/>
    </g>
    <path id="ID0.9342148057185113" fill="#FFFFFF" stroke="none" stroke-linecap="round" d="M 158.850 144.650 L 177.300 154.600 L 182.500 156.450 L 182.200 185.750 L 174.700 189.600 L 159.150 168.100 L 158.850 144.650 Z " transform="matrix(-0.008814757689833641, -0.34889087080955505, -0.2678919732570648, 0.011479957960546017, 133.7, 94.25)"/>
    <path id="ID0.9342148057185113" fill="#FFFFFF" stroke="none" stroke-linecap="round" d="M 158.850 144.650 L 173.750 153.100 L 174.700 189.600 L 159.150 168.100 L 158.850 144.650 Z " transform="matrix(0.008814757689833641, 0.34889087080955505, -0.2678919732570648, 0.011479957960546017, 130.2, -43.25)"/>
    <path id="ID0.9342148057185113" fill="#FFFFFF" stroke="none" stroke-linecap="round" d="M 160.750 152.750 L 166.150 157.200 L 166.300 166.850 L 160.750 159.450 L 160.750 152.750 Z " transform="matrix(0.008814757689833641, 0.34889087080955505, -0.2678919732570648, 0.011479957960546017, 137.05, -53)"/>
  </g>
  <path id="ID0.01927188504487276" fill="none" stroke="#000000" stroke-width="1" stroke-linecap="round" d="M 221.850 140.200 C 221.850 140.200 222.061 135.857 221 134.100 C 220.259 132.880 218.429 131.922 217.300 132.650 C 215.802 133.329 215.400 137.100 215.400 137.100 " transform="matrix(0.10699159651994705, 0.7846399545669556, -0.44266608357429504, 0.10238005965948105, 131.25, -163.25)"/>
  <path id="ID0.01927188504487276" fill="none" stroke="#000000" stroke-width="1" stroke-linecap="round" d="M 221.850 140.200 C 221.850 140.200 222.061 135.857 221 134.100 C 220.259 132.880 218.429 131.922 217.300 132.650 C 215.802 133.329 215.400 137.100 215.400 137.100 " transform="matrix(0.06715504825115204, -0.7921027541160583, -0.44687628746032715, -0.06426054984331131, 140.85, 216.25)"/>
  <path id="ID0.7275932435877621" fill="url(#grad_1)" stroke="none" d="M 257.375 155.750 C 260.789 155.750 263.883 157.907 266.123 161.392 C 268.363 164.877 269.750 169.689 269.750 175 C 269.750 180.311 268.363 185.123 266.123 188.608 C 263.883 192.093 260.789 194.250 257.375 194.250 C 253.961 194.250 250.867 192.093 248.627 188.608 C 246.387 185.123 245 180.311 245 175 C 245 169.689 246.387 164.877 248.627 161.392 C 250.867 157.907 253.961 155.750 257.375 155.750 Z " transform="matrix(0.7678388953208923, 0, 0, 1, -99.9, -147.65)"/>
  <path id="ID0.5288979476317763" fill="url(#grad_2)" stroke="none" d="M 276.750 171.750 C 279.440 171.750 281.877 172.997 283.642 175.011 C 285.407 177.024 286.500 179.806 286.500 182.875 C 286.500 185.944 285.407 188.726 283.642 190.739 C 281.877 192.753 279.440 194 276.750 194 C 274.060 194 271.623 192.753 269.858 190.739 C 268.093 188.726 267 185.944 267 182.875 C 267 179.806 268.093 177.024 269.858 175.011 C 271.623 172.997 274.060 171.750 276.750 171.750 Z " transform="matrix(0.7678388953208923, 0, 0, 1, -106.5, -154.75)"/>
  <path id="ID0.7275932435877621" fill="url(#grad_3)" stroke="none" d="M 257.375 155.750 C 260.789 155.750 263.883 157.907 266.123 161.392 C 268.363 164.877 269.750 169.689 269.750 175 C 269.750 180.311 268.363 185.123 266.123 188.608 C 263.883 192.093 260.789 194.250 257.375 194.250 C 253.961 194.250 250.867 192.093 248.627 188.608 C 246.387 185.123 245 180.311 245 175 C 245 169.689 246.387 164.877 248.627 161.392 C 250.867 157.907 253.961 155.750 257.375 155.750 Z " transform="matrix(0.7678388953208923, 0, 0, 1, -103.75, -146.15)"/>
  <path id="ID0.7275932435877621" fill="url(#grad_4)" stroke="none" d="M 257.375 155.750 C 260.789 155.750 263.883 157.907 266.123 161.392 C 268.363 164.877 269.750 169.689 269.750 175 C 269.750 180.311 268.363 185.123 266.123 188.608 C 263.883 192.093 260.789 194.250 257.375 194.250 C 253.961 194.250 250.867 192.093 248.627 188.608 C 246.387 185.123 245 180.311 245 175 C 245 169.689 246.387 164.877 248.627 161.392 C 250.867 157.907 253.961 155.750 257.375 155.750 Z " transform="matrix(0.7678388953208923, 0, 0, 1, -102.25, -146.65)"/>
  <path id="ID0.7275932435877621" fill="url(#grad_5)" stroke="none" d="M 257.375 155.750 C 260.789 155.750 263.883 157.907 266.123 161.392 C 268.363 164.877 269.750 169.689 269.750 175 C 269.750 180.311 268.363 185.123 266.123 188.608 C 263.883 192.093 260.789 194.250 257.375 194.250 C 253.961 194.250 250.867 192.093 248.627 188.608 C 246.387 185.123 245 180.311 245 175 C 245 169.689 246.387 164.877 248.627 161.392 C 250.867 157.907 253.961 155.750 257.375 155.750 Z " transform="matrix(0.5739401578903198, 0, 0, 0.747474730014801, -133.75, -107.25)"/>
  <path id="ID0.7275932435877621" fill="url(#grad_6)" stroke="none" d="M 257.375 155.750 C 260.789 155.750 263.883 157.907 266.123 161.392 C 268.363 164.877 269.750 169.689 269.750 175 C 269.750 180.311 268.363 185.123 266.123 188.608 C 263.883 192.093 260.789 194.250 257.375 194.250 C 253.961 194.250 250.867 192.093 248.627 188.608 C 246.387 185.123 245 180.311 245 175 C 245 169.689 246.387 164.877 248.627 161.392 C 250.867 157.907 253.961 155.750 257.375 155.750 Z " transform="matrix(0.6232458353042603, 0, 0, 0.8116883039474487, -138, -115.25)"/>
  <path id="ID0.7275932435877621" fill="url(#grad_7)" stroke="none" d="M 257.375 155.750 C 260.789 155.750 263.883 157.907 266.123 161.392 C 268.363 164.877 269.750 169.689 269.750 175 C 269.750 180.311 268.363 185.123 266.123 188.608 C 263.883 192.093 260.789 194.250 257.375 194.250 C 253.961 194.250 250.867 192.093 248.627 188.608 C 246.387 185.123 245 180.311 245 175 C 245 169.689 246.387 164.877 248.627 161.392 C 250.867 157.907 253.961 155.750 257.375 155.750 Z " transform="matrix(0.7678388953208923, 0, 0, 1, -119.15, -147.9)"/>
  <path id="ID0.7275932435877621" fill="url(#grad_8)" stroke="none" d="M 257.375 155.750 C 260.789 155.750 263.883 157.907 266.123 161.392 C 268.363 164.877 269.750 169.689 269.750 175 C 269.750 180.311 268.363 185.123 266.123 188.608 C 263.883 192.093 260.789 194.250 257.375 194.250 C 253.961 194.250 250.867 192.093 248.627 188.608 C 246.387 185.123 245 180.311 245 175 C 245 169.689 246.387 164.877 248.627 161.392 C 250.867 157.907 253.961 155.750 257.375 155.750 Z " transform="matrix(0.7678388953208923, 0, 0, 1, -124.75, -147.65)"/>
  <path id="ID0.7275932435877621" fill="url(#grad_9)" stroke="none" d="M 257.375 155.750 C 260.789 155.750 263.883 157.907 266.123 161.392 C 268.363 164.877 269.750 169.689 269.750 175 C 269.750 180.311 268.363 185.123 266.123 188.608 C 263.883 192.093 260.789 194.250 257.375 194.250 C 253.961 194.250 250.867 192.093 248.627 188.608 C 246.387 185.123 245 180.311 245 175 C 245 169.689 246.387 164.877 248.627 161.392 C 250.867 157.907 253.961 155.750 257.375 155.750 Z " transform="matrix(0.7678388953208923, 0, 0, 1, -129.5, -147.65)"/>
  <path id="ID0.7275932435877621" fill="url(#grad_10)" stroke="none" d="M 257.375 155.750 C 260.789 155.750 263.883 157.907 266.123 161.392 C 268.363 164.877 269.750 169.689 269.750 175 C 269.750 180.311 268.363 185.123 266.123 188.608 C 263.883 192.093 260.789 194.250 257.375 194.250 C 253.961 194.250 250.867 192.093 248.627 188.608 C 246.387 185.123 245 180.311 245 175 C 245 169.689 246.387 164.877 248.627 161.392 C 250.867 157.907 253.961 155.750 257.375 155.750 Z " transform="matrix(0.7678388953208923, 0, 0, 1, -134.5, -147.9)"/>
  <path id="ID0.7275932435877621" fill="url(#grad_11)" stroke="none" d="M 257.375 155.750 C 260.789 155.750 263.883 157.907 266.123 161.392 C 268.363 164.877 269.750 169.689 269.750 175 C 269.750 180.311 268.363 185.123 266.123 188.608 C 263.883 192.093 260.789 194.250 257.375 194.250 C 253.961 194.250 250.867 192.093 248.627 188.608 C 246.387 185.123 245 180.311 245 175 C 245 169.689 246.387 164.877 248.627 161.392 C 250.867 157.907 253.961 155.750 257.375 155.750 Z " transform="matrix(0.7678388953208923, 0, 0, 1, -139.5, -147.65)"/>
  <path id="ID0.7275932435877621" fill="url(#grad_12)" stroke="none" d="M 257.375 155.750 C 260.789 155.750 263.883 157.907 266.123 161.392 C 268.363 164.877 269.750 169.689 269.750 175 C 269.750 180.311 268.363 185.123 266.123 188.608 C 263.883 192.093 260.789 194.250 257.375 194.250 C 253.961 194.250 250.867 192.093 248.627 188.608 C 246.387 185.123 245 180.311 245 175 C 245 169.689 246.387 164.877 248.627 161.392 C 250.867 157.907 253.961 155.750 257.375 155.750 Z " transform="matrix(0.7678388953208923, 0, 0, 1, -143, -147.65)"/>
  <path id="ID0.7275932435877621" fill="url(#grad_13)" stroke="none" d="M 257.375 155.750 C 260.789 155.750 263.883 157.907 266.123 161.392 C 268.363 164.877 269.750 169.689 269.750 175 C 269.750 180.311 268.363 185.123 266.123 188.608 C 263.883 192.093 260.789 194.250 257.375 194.250 C 253.961 194.250 250.867 192.093 248.627 188.608 C 246.387 185.123 245 180.311 245 175 C 245 169.689 246.387 164.877 248.627 161.392 C 250.867 157.907 253.961 155.750 257.375 155.750 Z " transform="matrix(0.7678388953208923, 0, 0, 1, -149, -147.65)"/>
  <path id="ID0.7275932435877621" fill="url(#grad_14)" stroke="none" d="M 257.375 155.750 C 260.789 155.750 263.883 157.907 266.123 161.392 C 268.363 164.877 269.750 169.689 269.750 175 C 269.750 180.311 268.363 185.123 266.123 188.608 C 263.883 192.093 260.789 194.250 257.375 194.250 C 253.961 194.250 250.867 192.093 248.627 188.608 C 246.387 185.123 245 180.311 245 175 C 245 169.689 246.387 164.877 248.627 161.392 C 250.867 157.907 253.961 155.750 257.375 155.750 Z " transform="matrix(0.7678388953208923, 0, 0, 1, -151.5, -147.65)"/>
  <path id="ID0.7275932435877621" fill="url(#grad_15)" stroke="none" d="M 257.375 155.750 C 260.789 155.750 263.883 157.907 266.123 161.392 C 268.363 164.877 269.750 169.689 269.750 175 C 269.750 180.311 268.363 185.123 266.123 188.608 C 263.883 192.093 260.789 194.250 257.375 194.250 C 253.961 194.250 250.867 192.093 248.627 188.608 C 246.387 185.123 245 180.311 245 175 C 245 169.689 246.387 164.877 248.627 161.392 C 250.867 157.907 253.961 155.750 257.375 155.750 Z " transform="matrix(0.7678388953208923, 0, 0, 1, -156, -147.65)"/>
  <path id="ID0.7275932435877621" fill="url(#grad_16)" stroke="none" d="M 257.375 155.750 C 260.789 155.750 263.883 157.907 266.123 161.392 C 268.363 164.877 269.750 169.689 269.750 175 C 269.750 180.311 268.363 185.123 266.123 188.608 C 263.883 192.093 260.789 194.250 257.375 194.250 C 253.961 194.250 250.867 192.093 248.627 188.608 C 246.387 185.123 245 180.311 245 175 C 245 169.689 246.387 164.877 248.627 161.392 C 250.867 157.907 253.961 155.750 257.375 155.750 Z " transform="matrix(0.6431896686553955, 0, 0, 0.8376623392105103, -133.5, -120.5)"/>
  <path id="ID0.3955201585777104" fill="none" stroke="#00FFFF" stroke-width="2" stroke-linecap="round" d="M 228.750 158.750 C 228.750 158.750 226.424 161.592 225.250 163 C 224.759 163.590 224.217 164.141 223.750 164.750 C 222.301 166.640 220.734 168.464 219.500 170.500 C 219.050 171.243 219.025 172.175 218.750 173 C 218.525 173.675 218.212 174.321 218 175 C 217.795 175.655 217.571 176.317 217.500 177 C 217.320 178.741 217.282 180.500 217.250 182.250 C 217.199 184.997 217.296 187.753 217.250 190.500 C 217.213 192.749 216.875 195.004 217 197.250 C 217.044 198.039 217.414 198.785 217.750 199.500 C 218.084 200.211 218.666 200.789 219 201.500 C 219.336 202.215 219.487 203.005 219.750 203.750 C 219.987 204.421 220.165 205.122 220.500 205.750 C 220.837 206.382 221.284 206.956 221.750 207.500 C 222.286 208.126 222.874 208.714 223.500 209.250 C 224.044 209.716 224.566 210.286 225.250 210.500 C 225.965 210.723 226.756 210.588 227.500 210.500 C 228.182 210.420 228.863 210.255 229.500 210 C 230.123 209.751 230.704 209.390 231.250 209 C 231.875 208.554 232.504 208.086 233 207.500 C 233.434 206.988 233.751 206.373 234 205.750 C 234.421 204.699 235 202.500 235 202.500 " transform="matrix(0.7678388953208923, 0, 0, 1, -106.65, -153.25)"/>
  <path id="ID0.5687857712619007" fill="none" stroke="#00FFFF" stroke-width="2" stroke-linecap="round" d="M 165.500 170.250 C 165.500 170.250 165.607 178.589 165.750 182.750 C 165.786 183.790 165.863 183.999 166 184.750 C 166.546 187.754 167.073 190.773 167.750 193.750 C 167.919 194.494 168.199 195.105 168.500 195.750 C 168.784 196.358 169.091 196.968 169.500 197.500 C 169.931 198.060 170.368 198.684 171 199 C 171.600 199.300 172.340 199.374 173 199.250 C 173.732 199.113 174.386 198.672 175 198.250 C 175.729 197.749 176.286 197.023 177 196.500 C 177.541 196.103 178.255 195.954 178.750 195.500 C 179.278 195.016 179.613 194.352 180 193.750 C 180.363 193.185 180.702 192.823 181 192 C 182.191 188.707 183.202 185.341 184.250 182 C 184.534 181.094 184.739 180.163 185 179.250 C 185.239 178.414 185.475 177.575 185.750 176.750 C 185.975 176.075 186.263 175.421 186.500 174.750 C 186.763 174.005 186.949 173.230 187.250 172.500 C 187.534 171.811 187.944 171.179 188.250 170.500 C 188.694 169.513 189.500 167.500 189.500 167.500 " transform="matrix(0.7678388953208923, 0, 0, 1, -106.65, -153.25)"/>
  <path id="ID0.013662391807883978" fill="none" stroke="#00FFFF" stroke-width="2" stroke-linecap="round" d="M 206.500 167 C 206.500 167 205.572 169.305 205.250 170.500 C 204.987 171.478 204.884 172.496 204.750 173.500 C 204.551 174.994 204.411 176.501 204.250 178 C 204.161 178.832 204.164 179.680 204 180.500 C 203.497 183.015 202.703 185.476 202.250 188 C 202.118 188.737 202.294 189.502 202.250 190.250 C 202.211 190.920 202.078 191.583 202 192.250 C 201.912 192.999 201.874 193.756 201.750 194.500 C 201.624 195.257 201.455 196.010 201.250 196.750 C 201.039 197.511 200.705 198.237 200.500 199 C 200.122 200.404 199.730 201.814 199.500 203.250 C 199.395 203.908 199.500 204.584 199.500 205.250 C 199.500 205.916 199.338 206.604 199.500 207.250 C 199.681 207.972 199.904 208.803 200.500 209.250 C 201.037 209.653 201.863 209.712 202.500 209.500 C 203.950 209.017 205.336 208.240 206.500 207.250 C 207.067 206.768 207.167 205.916 207.500 205.250 C 207.833 204.584 208.198 203.930 208.500 203.250 C 208.576 203.080 208.500 203 208.500 203 " transform="matrix(0.7678388953208923, 0, 0, 1, -106.65, -153.25)"/>
  <path id="ID0.20458264974877238" fill="none" stroke="#00FFFF" stroke-width="2" stroke-linecap="round" d="M 243.750 169.750 C 243.750 169.750 245.267 167.072 246.500 166.250 C 247.193 165.788 248.179 166.113 249 166.250 C 250.693 166.532 252.507 166.653 254 167.500 C 255.690 168.459 257.350 169.778 258.250 171.500 C 259.354 173.613 259.318 176.156 259.750 178.500 C 259.902 179.323 259.960 180.164 260 181 C 260.044 181.915 260 182.834 260 183.750 C 260 185.582 260.059 187.419 260 189.250 C 259.976 190.003 259.923 190.766 259.750 191.500 C 259.587 192.192 259.212 192.821 259 193.500 C 258.795 194.155 258.619 194.824 258.500 195.500 C 258.369 196.242 258.381 197.008 258.250 197.750 C 258.131 198.426 257.835 199.069 257.750 199.750 C 257.667 200.411 257.961 201.118 257.750 201.750 C 257.524 202.429 256.963 202.953 256.500 203.500 C 256.044 204.039 255.456 204.461 255 205 C 254.537 205.547 254.318 206.313 253.750 206.750 C 253.186 207.184 252.450 207.376 251.750 207.500 C 251.012 207.630 250.202 207.763 249.500 207.500 C 248.781 207.231 248.271 206.564 247.750 206 C 247.264 205.474 246.887 204.852 246.500 204.250 C 246.137 203.685 245.784 203.108 245.500 202.500 C 245.199 201.855 244.923 201.190 244.750 200.500 C 244.669 200.177 244.750 199.500 244.750 199.500 " transform="matrix(0.7678388953208923, 0, 0, 1, -106.65, -153.25)"/>
</svg>