<svg version="1.1" width="80" height="84" viewBox="-1 -1 80 84" xmlns="http://www.w3.org/2000/svg" xmlns:xlink="http://www.w3.org/1999/xlink">
  <defs>
    <radialGradient id="grad_1" cx="0.47609999999999997" cy="0.4285" r="0.74295">
      <stop offset="0" stop-color="#FF9999" stop-opacity="1"/>
      <stop offset="1" stop-color="#FF9999" stop-opacity="0"/>
    </radialGradient>
  </defs>
  <!-- Exported by Scratch - http://scratch.mit.edu/ -->
  <path id="ID0.3135097539052367" fill="none" stroke="#99FFBB" stroke-width="2" stroke-linecap="round" d="M 260.500 129.750 C 260.500 129.750 261.864 130.182 262.500 130.500 C 263.202 130.851 263.923 131.217 264.500 131.750 C 265.026 132.236 265.524 132.821 265.750 133.500 C 265.961 134.132 266.012 134.888 265.750 135.500 C 265.472 136.149 264.882 136.684 264.250 137 C 263.650 137.300 262.920 137.208 262.250 137.250 C 261.585 137.292 260.748 136.808 260.250 137.250 C 259.748 137.696 260.236 138.622 260 139.250 C 259.724 139.985 258.847 140.471 258.750 141.250 C 258.662 141.956 259.927 142.681 259.500 143.250 C 258.651 144.382 256.958 144.512 255.750 145.250 C 255.448 145.434 255 146 255 146 " transform="matrix(0.9859607815742493, 0.16697722673416138, -0.16697722673416138, 0.9859607815742493, -163.5, -157.8)"/>
  <g id="ID0.2420122711919248" transform="matrix(0.9859607815742493, 0.16697722673416138, -0.16697722673416138, 0.9859607815742493, 12.65, -0.25)">
    <g id="ID0.7129468834027648">
      <path id="ID0.2604714026674628" fill="#FFFF00" stroke="#000000" stroke-width="2" stroke-linecap="round" d="M 237 85.650 L 251.300 144.300 L 224 145.300 L 237 85.650 Z " transform="matrix(-0.3490796983242035, 0, 0, 0.3490796983242035, 135.7, -28.8)"/>
      <path id="ID0.4227697029709816" fill="none" stroke="#000000" stroke-width="2" stroke-linecap="round" d="M 248 134 L 224.350 143 " transform="matrix(-0.3490796983242035, 0, 0, 0.3490796983242035, 135.7, -28.8)"/>
      <path id="ID0.39849042566493154" fill="none" stroke="#000000" stroke-width="2" stroke-linecap="round" d="M 245 117.650 L 230.350 123 " transform="matrix(-0.3490796983242035, 0, 0, 0.3490796983242035, 135.7, -28.8)"/>
      <path id="ID0.5916849924251437" fill="none" stroke="#000000" stroke-width="2" stroke-linecap="round" d="M 241.350 104.650 L 232 108.350 " transform="matrix(-0.3490796983242035, 0, 0, 0.3490796983242035, 135.7, -28.8)"/>
    </g>
    <path id="ID0.6581924292258918" fill="#6CDAFF" stroke="#000000" stroke-width="2" stroke-linecap="round" d="M 237.800 155.800 C 249.540 155.767 261.432 161.816 270.550 169.300 C 275.889 173.685 276.256 181.709 277.750 188.200 C 279.248 194.789 279.205 201.692 279.450 208.200 C 279.910 220.464 279.396 233.057 280 245.050 C 280.543 255.852 277.694 267.602 282.950 277.400 C 286.861 284.686 297.085 286.390 304.350 290 C 306.666 291.151 309.224 291.121 311.950 291.600 C 313.407 291.855 316.154 290.029 316.350 292.200 C 317.128 300.848 314.823 309.511 314.300 318.200 C 314.169 320.372 316.857 320.658 314.750 321.200 C 306.320 323.366 296.796 323.955 287.750 324.600 C 279.456 325.194 270.631 325.490 262.150 324.600 C 253.363 323.680 244.104 322.929 235.950 319.400 C 228.945 316.163 222.608 310.975 217.900 304.850 C 211.729 296.821 207.464 287.269 204.300 277.650 C 201.248 268.361 199.999 258.116 199.050 248.200 C 197.813 235.264 197.904 222.527 197.750 209.850 C 197.671 203.087 197.104 196.174 198.350 189.850 C 199.732 182.844 200.010 174.435 205.550 169.650 C 214.397 162.014 226.115 155.837 237.800 155.800 Z " transform="matrix(-0.3490796983242035, 0, 0, 0.3490796983242035, 135.6, -33.45)"/>
    <path id="ID0.4747713301330805" fill="none" stroke="#FFFFFF" stroke-width="2" stroke-linecap="round" d="M 236.800 144.500 C 236.800 144.500 231.702 144.993 229.250 145.750 C 226.069 146.720 222.913 148.010 220 149.650 C 217.963 150.797 216.097 152.499 214.400 154.200 C 212.185 156.418 208.150 161.450 208.150 161.450 " transform="matrix(-0.3490796983242035, 0, 0, 0.3490796983242035, 136.7, -27.95)"/>
  </g>
  <path id="ID0.47664465522393584" fill="none" stroke="#000000" stroke-width="2" stroke-linecap="round" d="M 222.500 219.600 C 222.500 219.600 221.180 223.825 222.500 225.150 C 224.155 226.553 226.964 225.894 229.150 225.700 C 230.724 225.556 232.025 224.043 233.600 224.050 C 235.077 224.026 236.472 225.611 238.050 225.700 C 240.153 225.818 243.048 226.223 244.700 224.600 C 245.784 223.241 244.150 219.050 244.150 219.050 " transform="matrix(-0.4223390519618988, -0.07152516394853592, -0.08185915648937225, 0.48335883021354675, 179.7, -35.5)"/>
  <path id="ID0.2474912153556943" fill="#FFFFFF" stroke="#000000" stroke-width="2" stroke-linecap="round" d="M 235.650 228 C 241.444 228 247.224 231.836 250.495 236.499 C 255.037 242.974 256.423 251.455 257.850 259.300 C 259.046 266.406 263.353 274.546 259.600 280.250 C 255.187 285.943 245.656 286.098 238.900 285.750 C 232.768 285.438 225.879 282.871 222.100 278.150 C 217.387 272.250 215.698 263.673 215.500 256.450 C 215.313 249.578 216.871 242.144 220.805 236.499 C 224.064 231.822 229.856 228 235.650 228 Z " transform="matrix(-0.3026026487350464, -0.05124722421169281, -0.05124722421169281, 0.3026026487350464, 141.85, 6.75)"/>
  <g id="ID0.8499903189949691" transform="matrix(0.9859607815742493, 0.16697722673416138, -0.16697722673416138, 0.9859607815742493, 12.65, -0.25)">
    <path id="ID0.845822561532259" fill="#6CDAFF" stroke="#000000" stroke-width="2" stroke-linecap="round" d="M 342.850 193.350 C 348.972 191.616 355.090 186.273 358.050 180.300 C 360.157 176.015 357.792 170.140 355.050 166.200 C 351.675 161.315 344.473 160.338 340.200 156.250 C 337.837 153.461 333.323 148.535 335.800 146.250 C 340.356 142.054 348.319 142.577 354.950 142.500 C 359.642 142.441 364.185 144.160 369.050 145.850 C 371.364 146.659 372.733 149.762 375.200 149.900 C 377.514 150.093 379.041 147.322 381.100 146.400 C 385.714 144.891 390.308 142.622 395.150 142.650 C 401.515 142.686 408.263 143.495 413.600 146.850 C 415.525 148.048 413.857 152.174 411.900 153.700 C 405.472 159.237 396.822 161.620 389.800 166.900 C 386.958 169.038 385.593 172.524 383.400 175.450 C 381.456 178.051 379.774 180.935 378.100 183.650 C 373.379 191.292 370.894 200.493 364.500 206.950 C 359.209 212.471 351.808 215.759 344.250 218.350 C 335.274 221.429 325.648 223.550 316.250 223.650 C 313.901 223.675 313.590 221.428 313.250 219.350 C 311.891 211.035 310.985 202.571 311.400 194.200 C 311.519 192.078 312.249 192.908 314.600 192.850 C 324.006 192.615 333.798 195.913 342.850 193.350 Z " transform="matrix(-0.26263463497161865, 0.0009806104935705662, 0.0007377779111266136, 0.34907835721969604, 109.55, 0.5)"/>
    <path id="ID0.22437191475182772" fill="#6CDAFF" stroke="none" stroke-linecap="round" d="M 324.900 181.850 L 353.500 185.950 L 354.050 207.700 L 328.200 213.200 L 324.900 181.850 Z " transform="matrix(-0.26263463497161865, 0.0009806104935705662, 0.0007377779111266136, 0.34907835721969604, 114.25, 4.25)"/>
    <path id="ID0.7040526834316552" fill="none" stroke="#FFFFFF" stroke-width="2" stroke-linecap="round" d="M 337.300 152.600 C 337.300 152.600 328.785 146.492 330.400 144.500 C 332.583 141.626 346.450 141.900 346.450 141.900 " transform="matrix(-0.26263463497161865, 0.0009806104935705662, 0.0007377779111266136, 0.34907835721969604, 106.85, 1.75)"/>
  </g>
  <g id="ID0.2661628294736147" transform="matrix(0.7158972024917603, 0.12124065309762955, -0.16697722673416138, 0.9859607815742493, 34.4, 4.15)">
    <g id="ID0.8039874886162579">
      <path id="ID0.4877005652524531" fill="#000000" stroke="#000000" stroke-width="3" stroke-linecap="round" d="M 401.700 182.450 L 401.100 162.200 L 420.400 155.100 L 443.750 142.800 L 481.700 116.350 L 425.300 193.750 L 411.350 186.200 L 401.700 182.450 Z " transform="matrix(-0.3156919479370117, 0, 0, 0.3156919479370117, 178.9, -20.15)"/>
      <path id="ID0.4877005652524531" fill="#000000" stroke="#000000" stroke-width="3" stroke-linecap="round" d="M 401.700 182.450 L 401.100 162.200 L 420.400 155.100 L 443.750 142.800 L 481.700 116.350 L 425.300 193.750 L 411.350 186.200 L 401.700 182.450 Z " transform="matrix(0.3156919479370117, 0, 0, 0.3156919479370117, -73.75, -20.2)"/>
    </g>
    <path id="ID0.9342148057185113" fill="#FFFFFF" stroke="none" stroke-linecap="round" d="M 158.850 144.650 L 177.300 154.600 L 182.500 156.450 L 182.200 185.750 L 174.700 189.600 L 159.150 168.100 L 158.850 144.650 Z " transform="matrix(-0.3490796983242035, 0, 0, 0.3490796983242035, 121.2, -25.25)"/>
    <path id="ID0.9342148057185113" fill="#FFFFFF" stroke="none" stroke-linecap="round" d="M 158.850 144.650 L 173.750 153.100 L 174.700 189.600 L 159.150 168.100 L 158.850 144.650 Z " transform="matrix(0.3490796983242035, 0, 0, 0.3490796983242035, -16.4, -25.25)"/>
    <path id="ID0.9342148057185113" fill="#FFFFFF" stroke="none" stroke-linecap="round" d="M 160.750 152.750 L 166.150 157.200 L 166.300 166.850 L 160.750 159.450 L 160.750 152.750 Z " transform="matrix(0.3490796983242035, 0, 0, 0.3490796983242035, -25.85, -34.45)"/>
  </g>
  <path id="ID0.01927188504487276" fill="none" stroke="#000000" stroke-width="1" stroke-linecap="round" d="M 221.850 140.200 C 221.850 140.200 222.061 135.857 221 134.100 C 220.259 132.880 218.429 131.922 217.300 132.650 C 215.802 133.329 215.400 137.100 215.400 137.100 " transform="matrix(0.7966694235801697, 0.01984233409166336, -0.014579005539417267, 0.5853476524353027, -117.65, -53.3)"/>
  <path id="ID0.01927188504487276" fill="none" stroke="#000000" stroke-width="1" stroke-linecap="round" d="M 221.850 140.200 C 221.850 140.200 222.061 135.857 221 134.100 C 220.259 132.880 218.429 131.922 217.300 132.650 C 215.802 133.329 215.400 137.100 215.400 137.100 " transform="matrix(-0.7587782740592957, -0.24358025193214417, -0.17896902561187744, 0.5575073957443237, 257.7, 10.25)"/>
  <path id="ID0.11498404992744327" fill="none" stroke="#99FFBB" stroke-width="2" stroke-linecap="round" d="M 245.750 146.750 C 245.750 146.750 247.323 146.406 248 146 C 248.606 145.637 249.118 145.094 249.500 144.500 C 249.885 143.902 250.297 143.210 250.250 142.500 C 250.205 141.830 249.808 141.122 249.250 140.750 C 248.692 140.378 247.920 140.542 247.250 140.500 C 246.585 140.458 245.431 140.078 245.250 140.500 C 245.056 140.953 245.890 141.875 246.500 142.250 C 247.072 142.602 247.863 142.712 248.500 142.500 C 249.228 142.257 249.686 141.521 250.250 141 C 250.769 140.521 251.319 140.060 251.750 139.500 C 252.159 138.968 252.466 138.358 252.750 137.750 C 253.051 137.105 253.544 136.460 253.500 135.750 C 253.454 135.007 252.981 134.318 252.500 133.750 C 252.037 133.203 251.313 132.942 250.750 132.500 C 250.146 132.026 249.543 131.543 249 131 C 248.457 130.457 247.651 130.003 247.500 129.250 C 247.361 128.553 247.673 127.666 248.250 127.250 C 249.317 126.479 250.782 125.502 252 126 C 253.206 126.493 252.699 128.729 253.750 129.500 C 254.324 129.921 255.493 129.393 255.750 128.750 C 255.993 128.143 255.083 127.583 254.750 127 C 254.417 126.417 253.962 125.887 253.750 125.250 C 253.538 124.613 253.274 123.882 253.500 123.250 C 253.738 122.585 254.406 122.132 255 121.750 C 255.598 121.365 256.295 120.906 257 121 C 257.710 121.095 258.375 121.640 258.750 122.250 C 259.102 122.822 258.525 123.775 259 124.250 C 259.475 124.725 260.331 124.449 261 124.500 C 261.415 124.532 262.250 124.500 262.250 124.500 " transform="matrix(0.9859607815742493, 0.16697722673416138, -0.16697722673416138, 0.9859607815742493, -163.5, -157.8)"/>
  <path id="ID0.7941608647815883" fill="url(#grad_1)" stroke="none" d="M 247 116.250 C 249.897 116.250 252.522 117.329 254.423 119.071 C 256.323 120.813 257.500 123.220 257.500 125.875 C 257.500 128.530 256.323 130.937 254.423 132.679 C 252.522 134.421 249.897 135.500 247 135.500 C 244.103 135.500 241.478 134.421 239.577 132.679 C 237.677 130.937 236.500 128.530 236.500 125.875 C 236.500 123.220 237.677 120.813 239.577 119.071 C 241.478 117.329 244.103 116.250 247 116.250 Z " transform="matrix(0.9859607815742493, 0.16697722673416138, -0.16697722673416138, 0.9859607815742493, -157.85, -154.05)"/>
  <g id="ID0.48240807792171836" transform="matrix(0.9859607815742493, 0.16697722673416138, -0.16697722673416138, 0.9859607815742493, 22.65, 5.7)">
    <path id="ID0.18150845123454928" fill="#6CDAFF" stroke="#000000" stroke-width="2" stroke-linecap="round" d="M 275.150 213.500 C 278.223 213.253 281.442 214.903 282.900 217.250 C 285.034 220.742 284.853 225.356 284.750 229.100 C 284.561 235.743 283.345 242.329 282.400 248.900 C 281.350 256.229 282.584 269.570 279.150 271.350 C 276.051 272.677 271.988 260.610 269.150 255.200 C 265.762 248.740 261.169 242.255 260.100 235.250 C 259.296 229.986 260.419 224.031 263.400 219.600 C 265.862 215.944 270.774 213.876 275.150 213.500 Z " transform="matrix(0.27947571873664856, 0.20916490256786346, -0.20916490256786346, 0.27947571873664856, 7, -72.05)"/>
    <path id="ID0.0035421540960669518" fill="none" stroke="#FFFFFF" stroke-width="2" stroke-linecap="round" d="M 270.650 218.350 C 270.650 218.350 263.877 225.469 263.750 230.100 C 263.549 236.389 269.750 248.300 269.750 248.300 " transform="matrix(0.27947571873664856, 0.20916490256786346, -0.20916490256786346, 0.27947571873664856, 7, -72.05)"/>
  </g>
</svg>