<svg version="1.1" width="89" height="10" viewBox="-1 -1 89 10" xmlns="http://www.w3.org/2000/svg" xmlns:xlink="http://www.w3.org/1999/xlink">
  <defs>
    <radialGradient id="grad_1" cx="0.5038" cy="0.48729999999999996" r="0.6665100000000002">
      <stop offset="0" stop-color="#660000" stop-opacity="1"/>
      <stop offset="1" stop-color="#FF0000" stop-opacity="1"/>
    </radialGradient>
    <linearGradient id="grad_2" x2="1">
      <stop offset="0" stop-color="#99FFFF" stop-opacity="0"/>
      <stop offset="1" stop-color="#99FFFF" stop-opacity="1"/>
    </linearGradient>
    <linearGradient id="grad_3" x2="1">
      <stop offset="0" stop-color="#FFFFFF" stop-opacity="0"/>
      <stop offset="1" stop-color="#FFFFFF" stop-opacity="1"/>
    </linearGradient>
    <linearGradient id="grad_4" x2="1">
      <stop offset="0" stop-color="#99FFFF" stop-opacity="0"/>
      <stop offset="1" stop-color="#99FFFF" stop-opacity="1"/>
    </linearGradient>
    <linearGradient id="grad_5" x2="1">
      <stop offset="0" stop-color="#FFFFFF" stop-opacity="0"/>
      <stop offset="1" stop-color="#FFFFFF" stop-opacity="1"/>
    </linearGradient>
  </defs>
  <!-- Exported by Scratch - http://scratch.mit.edu/ -->
  <path id="ID0.29905136208981276" fill="url(#grad_1)" stroke="#660000" stroke-width="2" d="M 234 173.850 L 247.100 173.850 L 247.100 187.700 L 234 187.700 L 234 173.850 Z " transform="matrix(0.5583596229553223, 0, 0, 0.5583596229553223, -90, -96.5)"/>
  <path id="ID0.5436840034089983" fill="url(#grad_2)" stroke="url(#grad_3)" stroke-width="2" d="M 280.375 173.250 C 290.204 173.250 299.110 173.922 305.559 175.008 C 312.008 176.095 316 177.595 316 179.250 C 316 180.905 312.008 182.405 305.559 183.492 C 299.110 184.578 290.204 185.250 280.375 185.250 C 270.546 185.250 261.640 184.578 255.191 183.492 C 248.742 182.405 244.750 180.905 244.750 179.250 C 244.750 177.595 248.742 176.095 255.191 175.008 C 261.640 173.922 270.546 173.250 280.375 173.250 Z " transform="matrix(0.5583596229553223, 0, 0, 0.5583596229553223, -88.7, -95.65)"/>
  <path id="ID0.5436840034089983" fill="url(#grad_4)" stroke="url(#grad_5)" stroke-width="2" d="M 280.375 173.250 C 290.204 173.250 299.110 173.922 305.559 175.008 C 312.008 176.095 316 177.595 316 179.250 C 316 180.905 312.008 182.405 305.559 183.492 C 299.110 184.578 290.204 185.250 280.375 185.250 C 270.546 185.250 261.640 184.578 255.191 183.492 C 248.742 182.405 244.750 180.905 244.750 179.250 C 244.750 177.595 248.742 176.095 255.191 175.008 C 261.640 173.922 270.546 173.250 280.375 173.250 Z " transform="matrix(-0.5583596229553223, 0, 0, 0.5583596229553223, 177.85, -95.4)"/>
</svg>