<svg version="1.1" width="26" height="15" viewBox="-1 -1 26 15" xmlns="http://www.w3.org/2000/svg" xmlns:xlink="http://www.w3.org/1999/xlink">
  <!-- Exported by Scratch - http://scratch.mit.edu/ -->
  <path id="ID0.5702326539903879" fill="#00FFFF" stroke="#000000" stroke-width="2" d="M 253.400 175.250 C 256.890 175.250 260.053 175.931 262.343 177.030 C 264.633 178.130 266.050 179.649 266.050 181.325 C 266.050 183.001 264.633 184.520 262.343 185.620 C 260.053 186.719 256.890 187.400 253.400 187.400 C 249.910 187.400 246.747 186.719 244.457 185.620 C 242.167 184.520 240.750 183.001 240.750 181.325 C 240.750 179.649 242.167 178.130 244.457 177.030 C 246.747 175.931 249.910 175.250 253.400 175.250 Z " transform="matrix(0.6329923272132874, 0, 0, 0.6329923272132874, -143.35, -108.8)"/>
  <path id="ID0.18778221495449543" fill="none" stroke="#000000" stroke-width="2" stroke-linecap="round" d="M 249.350 175.600 L 252.850 178.800 " transform="matrix(0.6329923272132874, 0, 0, 0.6329923272132874, -138.1, -106.3)"/>
  <path id="ID0.44598125806078315" fill="none" stroke="#000000" stroke-width="2" stroke-linecap="round" d="M 252.300 175.800 L 249.350 177.950 Z " transform="matrix(0.6329923272132874, 0, 0, 0.6329923272132874, -138.1, -106.3)"/>
  <path id="ID0.12596852192655206" fill="#00FFFF" stroke="#000000" stroke-width="2" stroke-linecap="round" d="M 231.250 177.350 L 221.050 170.250 L 220.600 187.500 L 231.400 178.150 Z " transform="matrix(0.6329923272132874, 0, 0, 0.6329923272132874, -138.1, -106.3)"/>
</svg>