<svg version="1.1" width="251" height="136" viewBox="1 3 251 136" xmlns="http://www.w3.org/2000/svg" xmlns:xlink="http://www.w3.org/1999/xlink">
  <defs>
    <linearGradient id="grad_1" y2="1">
      <stop offset="0" stop-color="#FFFF00" stop-opacity="1"/>
      <stop offset="1" stop-color="#FFFF00" stop-opacity="0"/>
    </linearGradient>
    <linearGradient id="grad_2" y2="1">
      <stop offset="0" stop-color="#FFFF00" stop-opacity="1"/>
      <stop offset="1" stop-color="#FFFF00" stop-opacity="0"/>
    </linearGradient>
    <linearGradient id="grad_3" y2="1">
      <stop offset="0" stop-color="#FFFF00" stop-opacity="1"/>
      <stop offset="1" stop-color="#FFFF00" stop-opacity="0"/>
    </linearGradient>
    <linearGradient id="grad_4" y2="1">
      <stop offset="0" stop-color="#FFFF00" stop-opacity="1"/>
      <stop offset="1" stop-color="#FFFF00" stop-opacity="0"/>
    </linearGradient>
  </defs>
  <!-- Exported by Scratch - http://scratch.mit.edu/ -->
  <path id="ID0.22365208435803652" fill="url(#grad_1)" stroke="none" d="M 223 171 L 251 171 L 251 214 L 223 214 L 223 171 Z " transform="matrix(1, 0, 0, 1, -192, -75)"/>
  <path id="ID0.7031595911830664" fill="url(#grad_2)" stroke="none" d="M 248 100 L 266.750 100 L 266.750 135 L 248 135 L 248 100 Z " transform="matrix(1, 0, 0, 1, -192, -75)"/>
  <g id="ID0.6003339374437928" transform="matrix(0.9803144931793213, -0.1974424123764038, 0.1974424123764038, 0.9803144931793213, -215.5, -28.1)">
    <path id="ID0.7092307796701789" fill="#FFD499" stroke="#BA9A70" stroke-width="2" stroke-linecap="round" d="M 228.900 265.900 C 229.899 260.897 230.643 255.771 231.500 250.750 C 231.714 249.494 231.927 249.247 232.150 248.500 C 232.360 247.799 232.587 247.100 232.800 246.400 C 233.003 245.735 233.130 245.041 233.400 244.400 C 233.666 243.768 233.997 243.155 234.400 242.600 C 234.802 242.047 235.285 241.549 235.800 241.100 C 236.323 240.645 236.874 240.197 237.500 239.900 C 238.786 239.291 240.144 238.829 241.500 238.400 C 242.147 238.195 242.826 238.081 243.500 238 C 244.212 237.914 244.933 237.917 245.650 237.900 C 246.316 237.884 246.993 237.789 247.650 237.900 C 248.392 238.025 249.099 238.326 249.800 238.600 C 250.550 238.893 251.263 239.277 252 239.600 C 252.629 239.876 253.284 240.096 253.900 240.400 C 254.502 240.697 255.204 240.898 255.650 241.400 C 256.571 242.436 257.327 243.639 257.900 244.900 C 258.504 246.228 258.732 247.702 259.150 249.100 C 259.364 249.817 259.625 250.523 259.800 251.250 C 259.958 251.907 260.038 252.583 260.150 253.250 C 260.271 253.965 260.440 254.677 260.500 255.400 C 260.557 256.097 260.500 256.801 260.500 257.500 C 260.500 258.166 260.590 258.840 260.500 259.500 C 260.306 260.930 259.941 262.336 259.650 263.750 C 259.375 265.084 259.099 266.421 258.800 267.750 C 258.649 268.420 258.466 269.084 258.300 269.750 C 258.134 270.416 257.951 271.080 257.800 271.750 C 257.651 272.413 257.565 273.091 257.400 273.750 C 257.231 274.425 257.213 275.191 256.800 275.750 C 256.366 276.337 255.693 276.772 255 277 C 254.367 277.208 253.666 276.984 253 277 C 252.300 277.017 251.597 277.167 250.900 277.100 C 248.141 276.833 245.396 276.376 242.650 276 C 241.267 275.810 239.871 275.663 238.500 275.400 C 237.088 275.129 235.671 274.834 234.300 274.400 C 233.661 274.198 233.108 273.781 232.500 273.500 C 231.809 273.181 231.075 272.951 230.400 272.600 C 229.789 272.283 229.080 272.037 228.650 271.500 C 228.232 270.978 227.939 270.265 228 269.600 C 228.119 268.324 228.724 267.193 228.900 265.900 Z " transform="matrix(0.8116936087608337, -0.04364846646785736, 0.0511944480240345, 0.9520198106765747, 25.3, -124.6)"/>
    <path id="ID0.643749819137156" fill="#FFFFFF" stroke="#000000" stroke-width="2" d="M 230.685 145.911 C 233.663 145.817 235.620 147.635 237.150 148.700 C 238.271 149.485 240.270 149.634 240.500 151.125 C 240.796 152.949 239.856 155.003 238.815 156.339 C 237.774 157.674 236.336 158.500 234.750 158.500 C 233.164 158.500 231.726 157.674 230.685 156.339 C 229.644 155.003 229 153.107 229 151.125 C 229 149.143 229.272 146.901 230.685 145.911 Z " transform="matrix(0.4859156012535095, -0.04898993298411369, 0.050158869475126266, 0.5703136920928955, 111.65, 25.9)"/>
    <path id="ID0.643749819137156" fill="#FFFFFF" stroke="#000000" stroke-width="2" d="M 230.685 145.911 C 233.663 145.817 235.620 147.635 237.150 148.700 C 238.271 149.485 240.270 149.634 240.500 151.125 C 240.796 152.949 239.856 155.003 238.815 156.339 C 237.774 157.674 236.336 158.500 234.750 158.500 C 233.164 158.500 231.726 157.674 230.685 156.339 C 229.644 155.003 229 153.107 229 151.125 C 229 149.143 229.272 146.901 230.685 145.911 Z " transform="matrix(-0.48836708068847656, 0.0034016903955489397, 0.011290264315903187, 0.5724038481712341, 352.1, 13.25)"/>
    <path id="ID0.7692075585946441" fill="none" stroke="#000000" stroke-width="2" stroke-linecap="round" d="M 233.750 150.250 L 234.050 150.550 " transform="matrix(-0.48836708068847656, 0.0034016903955489397, 0.011290264315903187, 0.5724038481712341, 351.7, 13.5)"/>
    <path id="ID0.731148752849549" fill="none" stroke="#000000" stroke-width="2" stroke-linecap="round" d="M 242.500 150 L 242.800 150.300 " transform="matrix(-0.48836708068847656, 0.0034016903955489397, 0.011290264315903187, 0.5724038481712341, 351.45, 14)"/>
    <path id="ID0.6631880309432745" fill="none" stroke="#000000" stroke-width="2" stroke-linecap="round" d="M 284.750 132 C 284.750 132 283.293 132.924 282.500 133.250 C 281.865 133.511 281.137 133.495 280.500 133.750 C 279.877 133.999 279.282 134.341 278.750 134.750 C 278.190 135.181 277.400 135.560 277.250 136.250 C 276.949 137.635 277.087 139.144 277.500 140.500 C 277.706 141.176 278.318 141.814 279 142 C 280.285 142.350 281.678 141.835 283 142 C 283.706 142.088 284.321 142.538 285 142.750 C 285.655 142.955 287 143.250 287 143.250 " transform="matrix(-0.22114737331867218, 0.0015403877478092909, 0.005112571641802788, 0.2592017352581024, 298.85, 71.25)"/>
    <path id="ID0.0881426315754652" fill="#FFFFFF" stroke="#000000" stroke-width="1" stroke-linecap="round" d="M 231.100 110.750 C 230.986 110.695 230.876 111.531 230.700 111.900 C 230.533 112.251 230.252 112.543 230.100 112.900 C 229.966 113.216 229.917 113.563 229.850 113.900 C 229.784 114.230 229.725 114.564 229.700 114.900 C 229.675 115.232 229.700 115.567 229.700 115.900 C 229.700 116.233 229.529 116.614 229.700 116.900 C 229.876 117.194 230.268 117.313 230.600 117.400 C 230.922 117.485 231.267 117.400 231.600 117.400 C 231.933 117.400 232.268 117.425 232.600 117.400 C 232.936 117.375 233.281 117.359 233.600 117.250 C 233.924 117.139 234.213 116.938 234.500 116.750 C 234.798 116.554 235.063 116.311 235.350 116.100 C 235.629 115.895 235.926 115.712 236.200 115.500 C 236.509 115.262 236.780 114.973 237.100 114.750 C 237.382 114.554 237.706 114.426 238 114.250 C 238.123 114.176 238.350 114 238.350 114 C 238.200 114 238.400 114 238.200 114 C 237.500 114 236.900 114 236.200 114 C 235.500 113.950 234.800 113.950 234.200 113.750 C 233.500 113.450 232.999 112.999 232.500 112.500 C 231.922 111.959 231.486 110.845 231.200 110.750 Z "/>
  </g>
  <g id="ID0.18787551997229457" transform="matrix(1, 0, 0, 1, 0, 14)">
    <path id="ID0.36644098442047834" fill="#990000" stroke="#990000" stroke-width="10" stroke-linecap="round" d="M 174 251 C 175.498 252.067 180.380 245.307 185 247 C 214.835 285.202 208.025 283.884 209 293 C 208.077 295.927 203.747 297.768 201 300 C 198.416 302.100 195.771 304.153 193 306 C 189.769 308.154 186.506 310.330 183 312 C 179.481 313.676 175.642 314.612 172 316 C 168.648 317.277 165.352 318.723 162 320 C 158.358 321.388 154.739 325.100 151 324 C 147.544 322.984 146.998 317.997 145 315 C 143.002 312.003 140.542 309.255 139 306 C 137.512 302.858 137.349 299.204 136 296 C 134.670 292.840 130.799 290.423 131 287 C 131.196 283.676 134.701 281.409 137 279 C 141.718 274.058 146.350 268.842 152 265 C 154.875 263.045 158.923 263.619 162 262 C 165.360 260.232 167.820 257.074 171 255 Z " transform="matrix(0.040618933737277985, -0.3133332431316376, 0.3675025701522827, 0.047641169279813766, -61.7, 122.6)"/>
    <path id="ID0.9261129754595459" fill="#BA9A70" stroke="none" d="M 180.500 132 C 187.259 132 193.384 134.521 197.820 138.594 C 202.255 142.667 205 148.292 205 154.500 C 205 160.708 202.255 166.333 197.820 170.406 C 193.384 174.479 187.259 177 180.500 177 C 173.741 177 167.616 174.479 163.180 170.406 C 158.745 166.333 156 160.708 156 154.500 C 156 148.292 158.745 142.667 163.180 138.594 C 167.616 134.521 173.741 132 180.500 132 Z " transform="matrix(0.4245680868625641, -0.24839384853839874, 0.14076873660087585, 0.24060949683189392, -31.65, 98.8)"/>
  </g>
  <g id="ID0.6675016703084111" transform="matrix(0.9404940605163574, -0.3398100435733795, 0.3398100435733795, 0.9404940605163574, -12.05, 27.65)">
    <path id="ID0.4567060568369925" fill="#D8B282" stroke="none" stroke-linecap="round" d="M 260.150 249.500 C 262.944 248.849 266.753 249.724 268.800 251.900 C 270.683 253.905 271.282 257.411 270.300 259.900 C 268.862 263.409 265.288 265.731 262.336 267.923 C 260.554 269.246 258.359 270.609 256.150 270.400 C 251.505 269.959 246.514 268.504 242.500 265.900 C 241 264.927 241.140 262.460 240.900 260.650 C 240.713 259.241 240.176 256.935 241.500 256.400 C 245.157 254.928 249.846 257.051 253.650 255.650 C 256.516 254.594 257.248 250.171 260.150 249.500 Z " transform="matrix(-0.5324485301971436, 0.6826044321060181, 0.6213531494140625, 0.6589264869689941, 38.45, -304.55)"/>
    <path id="ID0.9261129754595459" fill="#D8B282" stroke="none" d="M 180.500 132 C 187.259 132 193.384 134.521 197.820 138.594 C 202.255 142.667 205 148.292 205 154.500 C 205 160.708 202.255 166.333 197.820 170.406 C 193.384 174.479 187.259 177 180.500 177 C 173.741 177 167.616 174.479 163.180 170.406 C 158.745 166.333 156 160.708 156 154.500 C 156 148.292 158.745 142.667 163.180 138.594 C 167.616 134.521 173.741 132 180.500 132 Z " transform="matrix(-0.20695877075195313, 0.265323281288147, 0.2415153533220291, 0.25611981749534607, 72.15, -56.95)"/>
  </g>
  <path id="ID0.9261129754595459" fill="#FFD499" stroke="#BA9A70" stroke-width="2" d="M 180.500 132 C 187.259 132 193.384 134.521 197.820 138.594 C 202.255 142.667 205 148.292 205 154.500 C 205 160.708 202.255 166.333 197.820 170.406 C 193.384 174.479 187.259 177 180.500 177 C 173.741 177 167.616 174.479 163.180 170.406 C 158.745 166.333 156 160.708 156 154.500 C 156 148.292 158.745 142.667 163.180 138.594 C 167.616 134.521 173.741 132 180.500 132 Z " transform="matrix(0.5996987819671631, 0, 0, 0.9607577919960022, -65.4, -83.75)"/>
  <g id="ID0.6675016703084111" transform="matrix(1, 0, 0, 1, 0, 14)">
    <path id="ID0.4567060568369925" fill="#FFD499" stroke="#BA9A70" stroke-width="2" stroke-linecap="round" d="M 260.150 249.500 C 262.944 248.849 266.753 249.724 268.800 251.900 C 270.683 253.905 271.282 257.411 270.300 259.900 C 268.862 263.409 265.288 265.731 262.336 267.923 C 260.554 269.246 258.359 270.609 256.150 270.400 C 251.505 269.959 246.514 268.504 242.500 265.900 C 241 264.927 241.140 262.460 240.900 260.650 C 240.713 259.241 240.176 256.935 241.500 256.400 C 245.157 254.928 249.846 257.051 253.650 255.650 C 256.516 254.594 257.248 250.171 260.150 249.500 Z " transform="matrix(0.7365734577178955, -0.4548734128475189, -0.35346633195877075, -0.833861768245697, -74.2, 377.75)"/>
    <path id="ID0.9261129754595459" fill="#FFD499" stroke="#BA9A70" stroke-width="2" d="M 180.500 132 C 187.259 132 193.384 134.521 197.820 138.594 C 202.255 142.667 205 148.292 205 154.500 C 205 160.708 202.255 166.333 197.820 170.406 C 193.384 174.479 187.259 177 180.500 177 C 173.741 177 167.616 174.479 163.180 170.406 C 158.745 166.333 156 160.708 156 154.500 C 156 148.292 158.745 142.667 163.180 138.594 C 167.616 134.521 173.741 132 180.500 132 Z " transform="matrix(0.2863006293773651, -0.17680594325065613, -0.13738973438739777, -0.3241158425807953, -19.7, 133.95)"/>
  </g>
  <path id="ID0.8365832129493356" fill="none" stroke="#666666" stroke-width="2" stroke-linecap="round" d="M 177.350 190 " transform="matrix(1, 0, 0, 1, -454.5, -53)"/>
  <path id="ID0.7733259475789964" fill="#CC0000" stroke="#CC0000" stroke-width="5" stroke-linecap="round" d="M 236.500 160 L 236 151 L 259.500 149.750 L 261.250 159.500 L 236.750 160 Z " transform="matrix(1, 0, 0, 1, -203.75, -71.25)"/>
  <g id="ID0.8808541260659695" transform="matrix(1, 0, 0, 1, 0, 14)">
    <path id="ID0.36644098442047834" fill="#CC0000" stroke="#CC0000" stroke-width="10" stroke-linecap="round" d="M 174 251 C 175.498 252.067 180.596 243.939 185 247 C 196.901 255.368 207.225 267.588 211.200 281.200 C 212.512 287.294 202.212 290.450 197.500 293.600 C 189.971 298.209 182.596 300.620 175.900 305.050 C 172.648 307.214 169.544 310.628 166.100 313.050 C 162.748 315.398 158.322 317.056 154.450 318.950 C 148.692 321.854 147.306 317.594 145 315 C 142.621 312.345 140.542 309.255 139 306 C 137.512 302.858 137.349 299.204 136 296 C 134.670 292.840 130.799 290.423 131 287 C 131.196 283.676 134.701 281.409 137 279 C 141.718 274.058 146.350 268.842 152 265 C 154.875 263.045 158.923 263.619 162 262 C 165.360 260.232 167.820 257.074 171 255 Z " transform="matrix(-0.0388420969247818, -0.3135584890842438, -0.36776673793792725, 0.04555715620517731, 147.65, 124.7)"/>
    <path id="ID0.9261129754595459" fill="#FFD499" stroke="#BA9A70" stroke-width="2" d="M 180.500 132 C 187.259 132 193.384 134.521 197.820 138.594 C 202.255 142.667 205 148.292 205 154.500 C 205 160.708 202.255 166.333 197.820 170.406 C 193.384 174.479 187.259 177 180.500 177 C 173.741 177 167.616 174.479 163.180 170.406 C 158.745 166.333 156 160.708 156 154.500 C 156 148.292 158.745 142.667 163.180 138.594 C 167.616 134.521 173.741 132 180.500 132 Z " transform="matrix(0.4286682903766632, 0.24124892055988312, -0.13671961426734924, 0.24293313920497894, -26.5, 17.75)"/>
  </g>
  <path id="ID0.44683346385136247" fill="url(#grad_3)" stroke="url(#grad_4)" stroke-width="2" stroke-linecap="round" d="M 267.500 100.500 L 248 102 L 240.500 90.750 L 253.500 95 L 253.750 81.750 L 262.750 93 L 271.250 83.750 L 267.500 100.500 Z " transform="matrix(0.9618184566497803, 0.2736881971359253, -0.2736881971359253, 0.9618184566497803, -155.6, -142.25)"/>
</svg>