<svg version="1.1" width="159" height="88" viewBox="3 -1 159 88" xmlns="http://www.w3.org/2000/svg" xmlns:xlink="http://www.w3.org/1999/xlink">
  <defs>
    <radialGradient id="grad_1" cx="0.5283" cy="0.4228" r="0.75036">
      <stop offset="0" stop-color="#FFFFFF" stop-opacity="1"/>
      <stop offset="1" stop-color="#000000" stop-opacity="1"/>
    </radialGradient>
    <radialGradient id="grad_2" cx="0.5283" cy="0.4228" r="0.75036">
      <stop offset="0" stop-color="#FFFFFF" stop-opacity="1"/>
      <stop offset="1" stop-color="#000000" stop-opacity="1"/>
    </radialGradient>
    <linearGradient id="grad_3" x2="1">
      <stop offset="0" stop-color="#FF00BF" stop-opacity="0"/>
      <stop offset="1" stop-color="#FF00BF" stop-opacity="1"/>
    </linearGradient>
    <linearGradient id="grad_4" y2="1">
      <stop offset="0" stop-color="#FFCCF2" stop-opacity="1"/>
      <stop offset="1" stop-color="#FF00BF" stop-opacity="1"/>
    </linearGradient>
  </defs>
  <!-- Exported by Scratch - http://scratch.mit.edu/ -->
  <path id="ID0.8365832129493356" fill="none" stroke="#666666" stroke-width="2" stroke-linecap="round" d="M 177.350 190 " transform="matrix(1, 0, 0, 1, -459.5, -97)"/>
  <g id="ID0.46054664393886924">
    <g id="ID0.8552954299375415">
      <path id="ID0.41049800580367446" fill="#CC99FF" stroke="#7F00FF" stroke-width="2" stroke-linecap="round" d="M 255.750 148.100 L 219 160.500 L 253.500 176 L 290.500 162.500 L 255.750 148.100 Z " transform="matrix(-0.8875764608383179, 0.22182311117649078, 0.269686758518219, 1.079092264175415, 220.65, -201.75)"/>
      <path id="ID0.3551975656300783" fill="#CC99FF" stroke="#7F00FF" stroke-width="2" stroke-linecap="round" d="M 218.250 160.900 L 252.750 176.500 L 253 212.700 L 216.250 197.200 L 218.250 160.900 Z " transform="matrix(-0.8875764608383179, 0.22182311117649078, 0.269686758518219, 1.079092264175415, 220.65, -201.75)"/>
      <path id="ID0.22761756414547563" fill="#CC99FF" stroke="#7F00FF" stroke-width="2" stroke-linecap="round" d="M 252.750 175.500 L 290.500 162.500 L 290.250 202.700 L 254 212.700 L 252.750 175.500 Z " transform="matrix(-0.8875764608383179, 0.22182311117649078, 0.269686758518219, 1.079092264175415, 220.65, -201.75)"/>
    </g>
    <path id="ID0.5875303484499454" fill="none" stroke="#000000" stroke-width="2" stroke-linecap="round" d="M 212 166.500 L 240.750 179.250 " transform="matrix(-0.8875764608383179, 0.22182311117649078, 0.22182311117649078, 0.8875764608383179, 222.4, -165.8)"/>
    <path id="ID0.2296458501368761" fill="url(#grad_1)" stroke="#000000" stroke-width="2" stroke-linecap="round" d="M 215.250 168.500 C 214.711 169.595 215.170 170.829 215.250 172 C 215.295 172.664 215.250 173.334 215.250 174 C 215.250 174.666 214.779 175.529 215.250 176 C 215.721 176.471 216.675 176.336 217.250 176 C 217.830 175.662 218.077 174.899 218.250 174.250 C 218.422 173.606 218.250 172.916 218.250 172.250 C 218.250 171.584 218.422 170.894 218.250 170.250 C 218.077 169.601 217.830 168.838 217.250 168.500 C 216.675 168.164 215.748 168.211 215.250 168.500 Z " transform="matrix(-0.8875764608383179, 0.22182311117649078, 0.22182311117649078, 0.8875764608383179, 223.55, -166)"/>
    <path id="ID0.2296458501368761" fill="url(#grad_2)" stroke="#000000" stroke-width="2" stroke-linecap="round" d="M 215.250 168.500 C 214.711 169.595 215.170 170.829 215.250 172 C 215.295 172.664 215.250 173.334 215.250 174 C 215.250 174.666 214.779 175.529 215.250 176 C 215.721 176.471 216.675 176.336 217.250 176 C 217.830 175.662 218.077 174.899 218.250 174.250 C 218.422 173.606 218.250 172.916 218.250 172.250 C 218.250 171.584 218.422 170.894 218.250 170.250 C 218.077 169.601 217.830 168.838 217.250 168.500 C 216.675 168.164 215.748 168.211 215.250 168.500 Z " transform="matrix(-0.8875764608383179, 0.22182311117649078, 0.22182311117649078, 0.8875764608383179, 207.8, -154)"/>
    <path id="ID0.9655489576980472" fill="none" stroke="#000000" stroke-width="11" stroke-linecap="round" d="M 211.500 186.250 L 239.750 197.500 " transform="matrix(-0.8875764608383179, 0.22182311117649078, 0.22182311117649078, 0.8875764608383179, 222.4, -165.8)"/>
  </g>
  <path id="ID0.8365832129493356" fill="none" stroke="#666666" stroke-width="2" stroke-linecap="round" d="M 177.350 190 " transform="matrix(1, 0, 0, 1, -619.5, -13)"/>
  <path id="ID0.8365832129493356" fill="none" stroke="#666666" stroke-width="2" stroke-linecap="round" d="M 177.350 190 " transform="matrix(1, 0, 0, 1, -317, -106)"/>
  <path id="ID0.8365832129493356" fill="none" stroke="#666666" stroke-width="2" stroke-linecap="round" d="M 177.350 190 " transform="matrix(1, 0, 0, 1, -475, -172)"/>
  <path id="ID0.8365832129493356" fill="none" stroke="#666666" stroke-width="2" stroke-linecap="round" d="M 177.350 190 " transform="matrix(1, 0, 0, 1, -436, -13)"/>
  <path id="ID0.8365832129493356" fill="none" stroke="#666666" stroke-width="2" stroke-linecap="round" d="M 177.350 190 " transform="matrix(1, 0, 0, 1, -321, -216)"/>
  <path id="ID0.8365832129493356" fill="none" stroke="#666666" stroke-width="2" stroke-linecap="round" d="M 177.350 190 " transform="matrix(1, 0, 0, 1, -130, 35)"/>
  <path id="ID0.8365832129493356" fill="none" stroke="#666666" stroke-width="2" stroke-linecap="round" d="M 177.350 190 " transform="matrix(1, 0, 0, 1, -315, -43)"/>
  <path id="ID0.8365832129493356" fill="none" stroke="#666666" stroke-width="2" stroke-linecap="round" d="M 177.350 190 " transform="matrix(1, 0, 0, 1, -116, 27)"/>
  <path id="ID0.8365832129493356" fill="none" stroke="#666666" stroke-width="2" stroke-linecap="round" d="M 177.350 190 " transform="matrix(1, 0, 0, 1, -327, 37)"/>
  <path id="ID0.2352797919884324" fill="url(#grad_3)" stroke="#FFFFFF" stroke-width="2" stroke-linecap="round" d="M 258.500 174.500 C 258.542 173.285 259.860 172.852 260.500 172 C 261.038 171.284 260.962 170.217 261.500 169.500 C 262 168.834 262.868 168.542 263.500 168 C 264.036 167.540 264.464 166.960 265 166.500 C 265.632 165.958 266.334 165.500 267 165 C 267.666 164.500 268.368 164.042 269 163.500 C 269.536 163.040 270 162.500 270.500 162 C 271 161.500 271.425 160.911 272 160.500 C 272.606 160.067 273.350 159.240 274 159.500 C 274.600 159.740 274.666 160.834 274.500 161.500 C 274.298 162.308 273.500 162.834 273 163.500 C 272.500 164.166 271.941 164.794 271.500 165.500 C 271.105 166.131 270.240 166.850 270.500 167.500 C 270.740 168.100 271.834 167.833 272.500 168 C 273.166 168.167 273.814 168.500 274.500 168.500 C 275.186 168.500 275.830 168.149 276.500 168 C 277.329 167.816 278.241 167.880 279 167.500 C 279.632 167.184 280 166.500 280.500 166 C 281 165.500 281.464 164.960 282 164.500 C 282.632 163.958 283.458 163.632 284 163 C 284.485 162.435 284.667 161.666 285 161 C 285.333 160.334 285.819 159.722 286 159 C 286.162 158.354 286.074 157.662 286 157 C 285.906 156.156 285.684 155.329 285.500 154.500 C 285.351 153.830 285.166 153.166 285 152.500 C 284.834 151.834 284.424 151.182 284.500 150.500 C 284.599 149.609 284.916 148.681 285.500 148 C 285.985 147.435 286.834 147.333 287.500 147 C 288.166 146.667 288.803 146.261 289.500 146 C 290.143 145.759 291.125 145.125 291.500 145.500 C 291.875 145.875 291.307 146.886 291 147.500 C 290.628 148.245 289.941 148.794 289.500 149.500 C 289.105 150.131 288.933 150.894 288.500 151.500 C 288.089 152.075 286.885 152.311 287 153 C 287.135 153.811 288.255 154.128 289 154.500 C 289.614 154.807 290.319 154.915 291 155 C 291.661 155.083 292.334 155 293 155 C 293.666 155 294.354 155.162 295 155 C 295.722 154.819 296.473 154.527 297 154 C 297.527 153.473 297.739 152.697 298 152 C 298.241 151.357 298.283 150.651 298.500 150 C 298.784 149.149 299.401 148.391 299.500 147.500 C 299.576 146.818 299.085 146.181 299 145.500 C 298.917 144.839 298.766 144.124 299 143.500 C 299.292 142.721 299.958 142.132 300.500 141.500 C 300.960 140.964 301.387 140.350 302 140 C 302.596 139.659 303.334 139.667 304 139.500 C 304.666 139.333 305.319 139.085 306 139 C 306.661 138.917 307.631 138.508 308 139 C 308.381 139.508 307.666 140.334 307.500 141 C 307.334 141.666 307.166 142.334 307 143 C 306.834 143.666 306.666 144.334 306.500 145 C 306.334 145.666 305.834 146.334 306 147 C 306.202 147.808 306.823 148.516 307.500 149 C 308.059 149.399 308.819 149.415 309.500 149.500 C 310.161 149.583 310.876 149.734 311.500 149.500 C 312.279 149.208 312.911 148.589 313.500 148 C 314.089 147.411 314.628 146.745 315 146 C 315.307 145.386 315.415 144.681 315.500 144 C 315.583 143.339 315.583 142.661 315.500 142 C 315.415 141.319 315.307 140.614 315 140 C 314.628 139.255 314.042 138.632 313.500 138 C 313.040 137.464 312.500 137 312 136.500 C 311.500 136 310.960 135.536 310.500 135 C 309.958 134.368 309.292 133.779 309 133 C 308.766 132.376 309 131.666 309 131 C 309 130.334 308.917 129.661 309 129 C 309.085 128.319 309.159 127.596 309.500 127 C 309.850 126.387 310.500 125.999 311 125.500 C 311.500 125.001 311.925 124.411 312.500 124 C 313.106 123.567 313.834 123.333 314.500 123 C 315.166 122.667 315.803 122.261 316.500 122 C 317.143 121.759 317.819 121.585 318.500 121.500 C 319.161 121.417 320.379 121.136 320.500 121.500 C 320.629 121.886 319.411 122.425 319 123 C 318.567 123.606 318.181 124.278 318 125 C 317.838 125.646 318 126.334 318 127 C 318 127.666 317.917 128.339 318 129 C 318.085 129.681 318.159 130.404 318.500 131 C 318.850 131.613 319.351 132.222 320 132.500 C 320.612 132.762 321.334 132.500 322 132.500 C 322.666 132.500 323.354 132.662 324 132.500 C 324.722 132.319 325.394 131.933 326 131.500 C 326.575 131.089 327 130.500 327.500 130 C 328 129.500 328.589 129.075 329 128.500 C 329.433 127.894 329.567 127.106 330 126.500 C 330.411 125.925 331 125.499 331.500 125 C 332 124.501 332.425 123.911 333 123.500 C 333.606 123.067 334.334 122.833 335 122.500 C 335.666 122.167 336.278 121.681 337 121.500 C 337.646 121.338 338.339 121.583 339 121.500 C 339.681 121.415 340.319 121.085 341 121 C 341.661 120.917 342.334 121 343 121 C 343.832 121 344.668 121 345.500 121 C 346.166 121 346.839 120.917 347.500 121 C 348.181 121.085 348.819 121.415 349.500 121.500 C 350.161 121.583 350.837 121.434 351.500 121.500 C 352.508 121.601 353.507 121.801 354.500 122 C 355.173 122.135 356.377 122.007 356.500 122.500 C 356.627 123.007 355.575 123.589 355 124 C 354.394 124.433 353.697 124.739 353 125 C 352.357 125.241 351.614 125.193 351 125.500 C 350.255 125.872 349.666 126.501 349 127 C 348.334 127.499 347.627 127.952 347 128.500 C 346.291 129.120 345.666 129.834 345 130.500 C 344.334 131.166 343.709 131.880 343 132.500 C 342.373 133.048 341.589 133.411 341 134 C 340.246 134.754 339.518 135.568 339 136.500 C 338.667 137.100 338.585 137.819 338.500 138.500 C 338.417 139.161 338.170 139.922 338.500 140.500 C 338.913 141.223 339.794 141.559 340.500 142 C 341.131 142.395 341.803 142.739 342.500 143 C 343.143 143.241 343.819 143.415 344.500 143.500 C 345.161 143.583 345.839 143.583 346.500 143.500 C 347.181 143.415 347.904 143.341 348.500 143 C 349.113 142.650 349.500 142 350 141.500 C 350.666 140.834 351.380 140.209 352 139.500 C 352.548 138.873 352.689 137.635 353.500 137.500 C 354.189 137.385 354.540 138.464 355 139 C 355.542 139.632 356.162 140.239 356.500 141 C 356.845 141.776 356.906 142.656 357 143.500 C 357.074 144.162 357.262 144.888 357 145.500 C 356.722 146.149 356 146.500 355.500 147 C 355 147.500 354.460 147.964 354 148.500 C 353.458 149.132 353.177 150.016 352.500 150.500 C 351.941 150.899 351.166 150.833 350.500 151 C 349.834 151.167 349.143 151.259 348.500 151.500 C 347.803 151.761 347.206 152.265 346.500 152.500 C 345.695 152.768 344.805 152.732 344 153 C 343.294 153.235 342.631 153.605 342 154 C 341.294 154.441 340.632 154.958 340 155.500 C 339.464 155.960 338.911 156.425 338.500 157 C 338.067 157.606 337.681 158.278 337.500 159 C 337.338 159.646 337.170 160.422 337.500 161 C 337.913 161.723 338.721 162.208 339.500 162.500 C 340.124 162.734 340.834 162.500 341.500 162.500 C 342.166 162.500 342.946 162.131 343.500 162.500 C 344.120 162.913 344.705 163.784 344.500 164.500 C 344.271 165.300 343.157 165.489 342.500 166 C 341.658 166.655 340.990 167.604 340 168 C 339.227 168.309 338.313 168.181 337.500 168 C 336.773 167.838 336.120 167.413 335.500 167 C 334.613 166.409 333.802 165.702 333 165 C 332.468 164.535 332.075 163.911 331.500 163.500 C 330.894 163.067 330.227 162.662 329.500 162.500 C 328.687 162.319 327.832 162.500 327 162.500 C 326.334 162.500 325.662 162.426 325 162.500 C 324.156 162.594 323.344 162.906 322.500 163 C 321.838 163.074 321.112 162.738 320.500 163 C 319.851 163.278 319.411 163.925 319 164.500 C 318.567 165.106 318.181 165.778 318 166.500 C 317.838 167.146 317.584 167.980 318 168.500 C 318.429 169.036 319.319 168.915 320 169 C 320.661 169.083 321.879 168.636 322 169 C 322.129 169.386 321.075 170.089 320.500 170.500 C 319.894 170.933 319.222 171.319 318.500 171.500 C 317.854 171.662 317.161 171.417 316.500 171.500 C 315.819 171.585 314.604 171.379 314.500 172 C 314.354 172.879 315.263 173.868 316 174.500 C 316.521 174.947 317.647 174.411 318 175 C 318.353 175.589 317.985 176.515 317.500 177 C 317.015 177.485 316.186 177.500 315.500 177.500 C 314.814 177.500 314.114 177.307 313.500 177 C 312.755 176.628 312.279 175.792 311.500 175.500 C 310.876 175.266 310.150 175.644 309.500 175.500 C 308.625 175.305 307.859 174.758 307 174.500 C 306.187 174.256 305.344 174.094 304.500 174 C 303.838 173.926 303.161 173.917 302.500 174 C 301.819 174.085 301.114 174.193 300.500 174.500 C 299.755 174.872 299.132 175.458 298.500 176 C 297.964 176.460 297.350 176.887 297 177.500 C 296.659 178.096 296.585 178.819 296.500 179.500 C 296.417 180.161 296.238 180.888 296.500 181.500 C 296.778 182.149 297.387 182.650 298 183 C 298.596 183.341 299.319 183.415 300 183.500 C 300.661 183.583 301.334 183.500 302 183.500 C 302.666 183.500 303.446 183.131 304 183.500 C 304.620 183.913 305 184.755 305 185.500 C 305 186.245 304.527 186.973 304 187.500 C 303.473 188.027 302.697 188.239 302 188.500 C 301.357 188.741 300.681 188.915 300 189 C 299.339 189.083 298.624 189.234 298 189 C 297.221 188.708 296.666 188 296 187.500 C 295.334 187 294.706 186.441 294 186 C 293.369 185.605 292.697 185.261 292 185 C 291.357 184.759 290.666 184.667 290 184.500 C 289.334 184.333 288.681 184.085 288 184 C 287.339 183.917 286.596 183.702 286 184 C 285.158 184.421 284.421 185.158 284 186 C 283.702 186.596 283.838 187.354 284 188 C 284.181 188.722 285.264 189.472 285 190 C 284.764 190.472 283.666 190 283 190 C 282.334 190 281.612 190.262 281 190 C 280.351 189.722 280.036 188.960 279.500 188.500 C 278.868 187.958 278.206 187.441 277.500 187 C 276.869 186.605 276.096 186.447 275.500 186 C 274.747 185.435 274.253 184.565 273.500 184 C 272.904 183.553 272.197 183.261 271.500 183 C 270.857 182.759 270.143 182.259 269.500 182.500 C 268.618 182.831 267.921 183.658 267.500 184.500 C 267.202 185.096 267.131 185.946 267.500 186.500 C 267.913 187.120 268.894 187.067 269.500 187.500 C 270.075 187.911 271.127 188.493 271 189 C 270.877 189.493 269.681 189.415 269 189.500 C 268.339 189.583 267.666 189.500 267 189.500 C 266.334 189.500 265.596 189.798 265 189.500 C 264.158 189.079 263.666 188.166 263 187.500 C 262.500 187 261.850 186.613 261.500 186 C 261.159 185.404 261.085 184.681 261 184 C 260.917 183.339 261.083 182.661 261 182 C 260.915 181.319 260.585 180.681 260.500 180 C 260.417 179.339 260.500 178.666 260.500 178 C 260.500 177.334 260.762 176.612 260.500 176 C 260.222 175.351 259.552 174.941 259 174.500 C 258.709 174.267 257.835 174.274 258 174 Z " transform="matrix(1, 0, 0, 1, -197, -119)"/>
  <path id="ID0.8379901135340333" fill="url(#grad_4)" stroke="#FFCCF2" stroke-width="2" stroke-linecap="round" d="M 261 173.500 C 261.883 173.362 262.761 173.092 263.500 173 C 265.483 172.752 267.502 173 269.500 173 C 270.166 173 271.379 172.636 271.500 173 C 271.629 173.386 270 173.794 270 174.500 C 270 175.206 270.851 175.722 271.500 176 C 272.112 176.262 272.834 176 273.500 176 C 274.166 176 274.839 176.083 275.500 176 C 276.181 175.915 276.857 175.741 277.500 175.500 C 278.197 175.239 278.894 174.933 279.500 174.500 C 280.075 174.089 280.589 173.575 281 173 C 281.433 172.394 281.540 171.586 282 171 C 283.384 169.239 285.076 167.729 286.500 166 C 287.411 164.894 287.719 163.141 289 162.500 C 289.632 162.184 289.836 163.759 290.500 164 C 291.762 164.459 293.176 164.721 294.500 164.500 C 295.321 164.363 295.873 163.548 296.500 163 C 297.209 162.380 297.834 161.666 298.500 161 C 299.000 160.500 299.589 160.075 300 159.500 C 300.433 158.894 300.667 158.166 301 157.500 C 301.333 156.834 301.334 155.833 302 155.500 C 302.614 155.193 303.404 155.659 304 156 C 304.613 156.350 304.805 157.374 305.500 157.500 C 306.821 157.740 308.238 157.459 309.500 157 C 310.164 156.759 310.500 156.000 311 155.500 C 311.500 155.000 312.040 154.536 312.500 154 C 313.042 153.368 313.628 152.745 314 152 C 314.307 151.386 314.159 150.596 314.500 150 C 314.850 149.387 315.540 149.036 316 148.500 C 316.542 147.868 317.081 147.219 317.500 146.500 C 318.250 145.214 318.700 143.756 319.500 142.500 C 319.879 141.904 320.493 140.873 321 141 C 321.493 141.123 321.259 142.357 321.500 143 C 321.761 143.697 321.973 144.473 322.500 145 C 323.027 145.527 323.834 145.667 324.500 146 C 325.166 146.333 325.803 146.739 326.500 147 C 327.143 147.241 327.819 147.415 328.500 147.500 C 329.161 147.583 330.727 147.046 330.500 147.500 C 329.977 148.546 328.188 149.528 327 150.500 C 326.356 151.027 325.441 151.294 325 152 C 324.550 152.720 324.120 153.741 324.500 154.500 C 324.807 155.114 327 154.750 326.500 155 C 325 155.750 322.412 155.735 320.500 156.500 C 319.844 156.762 319.613 157.650 319 158 C 318.404 158.341 317.596 158.159 317 158.500 C 316.387 158.850 315.741 159.336 315.500 160 C 315.041 161.262 315.850 162.961 315 164 C 314.099 165.101 312.350 165.050 311 165.500 C 310.349 165.717 309.429 165.464 309 166 C 308.584 166.520 308.738 167.388 309 168 C 309.278 168.649 310.622 168.891 310.500 169.500 C 310.372 170.141 309.222 170.319 308.500 170.500 C 307.854 170.662 307.166 170.500 306.500 170.500 C 304.502 170.500 302.498 170.500 300.500 170.500 C 299.834 170.500 299.146 170.338 298.500 170.500 C 297.778 170.681 297.166 171.167 296.500 171.500 C 295.834 171.833 294.965 171.919 294.500 172.500 C 293.570 173.663 292.971 175.087 292.500 176.500 C 292.289 177.132 292.798 177.904 292.500 178.500 C 292.079 179.342 291.342 180.079 290.500 180.500 C 289.904 180.798 289.166 180.500 288.500 180.500 C 287.002 180.500 285.494 180.385 284 180.500 C 283.316 180.553 282.685 180.957 282 181 C 280.006 181.125 277.998 181 276 181 C 275.334 181 274.632 181.211 274 181 C 273.079 180.693 272.387 179.894 271.500 179.500 C 270.873 179.221 270.181 178.915 269.500 179 C 268.761 179.092 268.131 179.605 267.500 180 C 266.794 180.441 266.279 181.208 265.500 181.500 C 264.876 181.734 264.020 181.916 263.500 181.500 C 262.964 181.071 263.085 180.181 263 179.500 C 262.917 178.839 263.162 178.146 263 177.500 C 262.819 176.778 262.293 176.184 262 175.500 C 261.793 175.016 261.229 174.451 261.500 174 Z " transform="matrix(1, 0, 0, 1, -197, -119)"/>
</svg>