<svg version="1.1" width="133" height="88" viewBox="-1 -1 133 88" xmlns="http://www.w3.org/2000/svg" xmlns:xlink="http://www.w3.org/1999/xlink">
  <defs>
    <radialGradient id="grad_1" cx="0.5283" cy="0.4228" r="0.75036">
      <stop offset="0" stop-color="#FFFFFF" stop-opacity="1"/>
      <stop offset="1" stop-color="#000000" stop-opacity="1"/>
    </radialGradient>
    <radialGradient id="grad_2" cx="0.5283" cy="0.4228" r="0.75036">
      <stop offset="0" stop-color="#FFFFFF" stop-opacity="1"/>
      <stop offset="1" stop-color="#000000" stop-opacity="1"/>
    </radialGradient>
    <linearGradient id="grad_3" x2="1">
      <stop offset="0" stop-color="#FFFF00" stop-opacity="1"/>
      <stop offset="1" stop-color="#FFCCF2" stop-opacity="1"/>
    </linearGradient>
    <linearGradient id="grad_4" x2="1">
      <stop offset="0" stop-color="#FFFF00" stop-opacity="1"/>
      <stop offset="1" stop-color="#FFCCF2" stop-opacity="1"/>
    </linearGradient>
    <radialGradient id="grad_5" cx="0.4918" cy="0.529" r="0.6877">
      <stop offset="0" stop-color="#FF9999" stop-opacity="1"/>
      <stop offset="1" stop-color="#FF9999" stop-opacity="0"/>
    </radialGradient>
  </defs>
  <!-- Exported by Scratch - http://scratch.mit.edu/ -->
  <path id="ID0.8365832129493356" fill="none" stroke="#666666" stroke-width="2" stroke-linecap="round" d="M 177.350 190 " transform="matrix(1, 0, 0, 1, -436.5, -100)"/>
  <g id="ID0.46054664393886924" transform="matrix(0.9644401669502258, 0.26430147886276245, -0.26430147886276245, 0.9644401669502258, 42.3, 0)">
    <g id="ID0.8552954299375415">
      <path id="ID0.41049800580367446" fill="#CC99FF" stroke="#7F00FF" stroke-width="2" stroke-linecap="round" d="M 255.750 148.100 L 219 160.500 L 253.500 176 L 290.500 162.500 L 255.750 148.100 Z " transform="matrix(-0.9148281812667847, -0.009318296797573566, -0.011328940279781818, 1.1122242212295532, 270.35, -160)"/>
      <path id="ID0.3551975656300783" fill="#CC99FF" stroke="#7F00FF" stroke-width="2" stroke-linecap="round" d="M 218.250 160.900 L 252.750 176.500 L 253 212.700 L 216.250 197.200 L 218.250 160.900 Z " transform="matrix(-0.9148281812667847, -0.009318296797573566, -0.011328940279781818, 1.1122242212295532, 270.35, -160)"/>
      <path id="ID0.22761756414547563" fill="#CC99FF" stroke="#7F00FF" stroke-width="2" stroke-linecap="round" d="M 252.750 175.500 L 290.500 162.500 L 290.250 202.700 L 254 212.700 L 252.750 175.500 Z " transform="matrix(-0.9148281812667847, -0.009318296797573566, -0.011328940279781818, 1.1122242212295532, 270.35, -160)"/>
    </g>
    <path id="ID0.5875303484499454" fill="none" stroke="#000000" stroke-width="2" stroke-linecap="round" d="M 212 166.500 L 240.750 179.250 " transform="matrix(-0.9148281812667847, -0.009318296797573566, -0.009318296797573566, 0.9148281812667847, 262.95, -124.75)"/>
    <path id="ID0.2296458501368761" fill="url(#grad_1)" stroke="#000000" stroke-width="2" stroke-linecap="round" d="M 215.250 168.500 C 214.711 169.595 215.170 170.829 215.250 172 C 215.295 172.664 215.250 173.334 215.250 174 C 215.250 174.666 214.779 175.529 215.250 176 C 215.721 176.471 216.675 176.336 217.250 176 C 217.830 175.662 218.077 174.899 218.250 174.250 C 218.422 173.606 218.250 172.916 218.250 172.250 C 218.250 171.584 218.422 170.894 218.250 170.250 C 218.077 169.601 217.830 168.838 217.250 168.500 C 216.675 168.164 215.748 168.211 215.250 168.500 Z " transform="matrix(-0.9148281812667847, -0.009318296797573566, -0.009318296797573566, 0.9148281812667847, 264.1, -124.65)"/>
    <path id="ID0.2296458501368761" fill="url(#grad_2)" stroke="#000000" stroke-width="2" stroke-linecap="round" d="M 215.250 168.500 C 214.711 169.595 215.170 170.829 215.250 172 C 215.295 172.664 215.250 173.334 215.250 174 C 215.250 174.666 214.779 175.529 215.250 176 C 215.721 176.471 216.675 176.336 217.250 176 C 217.830 175.662 218.077 174.899 218.250 174.250 C 218.422 173.606 218.250 172.916 218.250 172.250 C 218.250 171.584 218.422 170.894 218.250 170.250 C 218.077 169.601 217.830 168.838 217.250 168.500 C 216.675 168.164 215.748 168.211 215.250 168.500 Z " transform="matrix(-0.9148281812667847, -0.009318296797573566, -0.009318296797573566, 0.9148281812667847, 245.85, -117.05)"/>
    <path id="ID0.9655489576980472" fill="none" stroke="#000000" stroke-width="2" stroke-linecap="round" d="M 211.500 186.250 L 239.750 197.500 " transform="matrix(-0.9148281812667847, -0.009318296797573566, -0.009318296797573566, 0.9148281812667847, 262.95, -124.75)"/>
  </g>
  <path id="ID0.8365832129493356" fill="none" stroke="#666666" stroke-width="2" stroke-linecap="round" d="M 177.350 190 " transform="matrix(1, 0, 0, 1, -596.5, -16)"/>
  <path id="ID0.8365832129493356" fill="none" stroke="#666666" stroke-width="2" stroke-linecap="round" d="M 177.350 190 " transform="matrix(1, 0, 0, 1, -294, -109)"/>
  <path id="ID0.8365832129493356" fill="none" stroke="#666666" stroke-width="2" stroke-linecap="round" d="M 177.350 190 " transform="matrix(1, 0, 0, 1, -452, -175)"/>
  <path id="ID0.8365832129493356" fill="none" stroke="#666666" stroke-width="2" stroke-linecap="round" d="M 177.350 190 " transform="matrix(1, 0, 0, 1, -413, -16)"/>
  <path id="ID0.8365832129493356" fill="none" stroke="#666666" stroke-width="2" stroke-linecap="round" d="M 177.350 190 " transform="matrix(1, 0, 0, 1, -298, -219)"/>
  <path id="ID0.8365832129493356" fill="none" stroke="#666666" stroke-width="2" stroke-linecap="round" d="M 177.350 190 " transform="matrix(1, 0, 0, 1, -107, 32)"/>
  <path id="ID0.8365832129493356" fill="none" stroke="#666666" stroke-width="2" stroke-linecap="round" d="M 177.350 190 " transform="matrix(1, 0, 0, 1, -292, -46)"/>
  <path id="ID0.8365832129493356" fill="none" stroke="#666666" stroke-width="2" stroke-linecap="round" d="M 177.350 190 " transform="matrix(1, 0, 0, 1, -93, 24)"/>
  <path id="ID0.8365832129493356" fill="none" stroke="#666666" stroke-width="2" stroke-linecap="round" d="M 177.350 190 " transform="matrix(1, 0, 0, 1, -304, 34)"/>
  <path id="ID0.07184854848310351" fill="none" stroke="url(#grad_3)" stroke-width="2" stroke-linecap="round" d="M 279.500 141 L 300.500 141 L 288.500 153.500 L 304 159 L 289.500 168 L 303.500 173 L 286 182 L 298.500 189 L 280 196 " transform="matrix(1, 0, 0, 1, -174, -122)"/>
  <path id="ID0.07184854848310351" fill="none" stroke="url(#grad_4)" stroke-width="2" stroke-linecap="round" d="M 279.500 141 L 300.500 141 L 288.500 153.500 L 304 159 L 289.500 168 L 303.500 173 L 286 182 L 298.500 189 L 280 196 " transform="matrix(-1, 0, 0, 1, 305, -122)"/>
  <path id="ID0.39146928768604994" fill="url(#grad_5)" stroke="none" d="M 251.250 136 C 263.872 136 275.310 140.818 283.592 148.602 C 291.874 156.387 297 167.137 297 179 C 297 190.863 291.874 201.613 283.592 209.398 C 275.310 217.182 263.872 222 251.250 222 C 238.628 222 227.190 217.182 218.908 209.398 C 210.626 201.613 205.500 190.863 205.500 179 C 205.500 167.137 210.626 156.387 218.908 148.602 C 227.190 140.818 238.628 136 251.250 136 Z " transform="matrix(1, 0, 0, 1, -185.5, -135.5)"/>
</svg>