<svg version="1.1" width="37" height="88" viewBox="-1 -1 37 88" xmlns="http://www.w3.org/2000/svg" xmlns:xlink="http://www.w3.org/1999/xlink">
  <!-- Exported by Scratch - http://scratch.mit.edu/ -->
  <path id="ID0.6069741295650601" fill="#003FFF" stroke="#000000" stroke-width="2" d="M 220 212.500 L 260 212.500 L 260 278 L 254.900 282.550 L 249.400 284.550 L 243.900 285.550 L 235.900 285.550 L 229.900 284.550 L 224.400 281.550 L 220 278 L 220 212.500 Z " transform="matrix(0.3380829393863678, 0, 0, 0.44214311242103577, -67.4, -71.3)"/>
  <path id="ID0.3618726124987006" fill="none" stroke="#000000" stroke-width="2" stroke-linecap="round" d="M 260.850 213.500 C 260.850 213.500 272.988 234.151 280.950 242.950 C 282.940 245.150 285.845 244.478 288.200 242.450 C 297.609 234.349 305.827 224.602 312.900 214.350 C 314.684 211.805 308.100 212.100 308.100 212.100 " transform="matrix(0.2795676290988922, 0.19011053442955017, -0.19011053442955017, 0.2795676290988922, -23.8, -83.35)"/>
  <path id="ID0.6990157160907984" fill="none" stroke="#000000" stroke-width="2" stroke-linecap="round" d="M 220 276 C 220 276 220.776 339.869 221.100 371.750 C 221.181 379.720 222.153 374.712 221.100 375.050 C 217.847 376.052 212.200 375.050 212.200 375.050 " transform="matrix(0.3380829393863678, 0, 0, 0.3380829393863678, -65.6, -40.8)"/>
  <g id="ID0.8066711132414639">
    <path id="ID0.5763716981746256" fill="#CC0000" stroke="#000000" stroke-width="2" d="M 228.500 148 C 239.122 148 248.747 152.118 255.716 158.771 C 262.686 165.423 267 174.611 267 184.750 C 267 194.889 262.686 204.077 255.716 210.729 C 248.747 217.382 239.122 221.500 228.500 221.500 C 217.878 221.500 208.253 217.382 201.284 210.729 C 194.314 204.077 190 194.889 190 184.750 C 190 174.611 194.314 165.423 201.284 158.771 C 208.253 152.118 217.878 148 228.500 148 Z " transform="matrix(0.3018745481967926, 0, 0, 0.3272640109062195, -55.45, -47.55)"/>
    <path id="ID0.33080768724903464" fill="none" stroke="#003FFF" stroke-width="2" stroke-linecap="round" d="M 230 87.650 L 230 163 " transform="matrix(0.3018745481967926, 0, 0, 0.3018745481967926, -58.95, -25.2)"/>
    <path id="ID0.29563110787421465" fill="none" stroke="#003FFF" stroke-width="2" stroke-linecap="round" d="M 247 87 L 248 164 " transform="matrix(0.3018745481967926, 0, 0, 0.3018745481967926, -58.95, -25.2)"/>
    <path id="ID0.3557395921088755" fill="none" stroke="#003FFF" stroke-width="2" stroke-linecap="round" d="M 223 90.650 L 224 160.650 " transform="matrix(0.3018745481967926, 0, 0, 0.3018745481967926, -58.95, -25.2)"/>
    <path id="ID0.45717029785737395" fill="none" stroke="#003FFF" stroke-width="2" stroke-linecap="round" d="M 254 89 L 255 163 " transform="matrix(0.3018745481967926, 0, 0, 0.3018745481967926, -58.95, -25.2)"/>
    <path id="ID0.5075077214278281" fill="none" stroke="#000000" stroke-width="2" stroke-linecap="round" d="M 212 99.650 L 212 153 " transform="matrix(0.3018745481967926, 0, 0, 0.3018745481967926, -58.95, -25.2)"/>
    <path id="ID0.07860057288780808" fill="none" stroke="#000000" stroke-width="2" stroke-linecap="round" d="M 269 100 L 270 152 " transform="matrix(0.3018745481967926, 0, 0, 0.3018745481967926, -58.95, -25.2)"/>
  </g>
  <g id="ID0.8066711132414639">
    <path id="ID0.5763716981746256" fill="none" stroke="#000000" stroke-width="2" d="M 228.500 148 C 239.122 148 248.747 152.118 255.716 158.771 C 262.686 165.423 267 174.611 267 184.750 C 267 194.889 262.686 204.077 255.716 210.729 C 248.747 217.382 239.122 221.500 228.500 221.500 C 217.878 221.500 208.253 217.382 201.284 210.729 C 194.314 204.077 190 194.889 190 184.750 C 190 174.611 194.314 165.423 201.284 158.771 C 208.253 152.118 217.878 148 228.500 148 Z " transform="matrix(-0.00438824063166976, 0.31463685631752014, -0.32203802466392517, -0.004491464700549841, 73.75, -58.2)"/>
    <path id="ID0.33080768724903464" fill="none" stroke="#003FFF" stroke-width="2" stroke-linecap="round" d="M 230 87.650 L 230 163 " transform="matrix(-0.00438824063166976, 0.31463685631752014, -0.2970539927482605, -0.004143012221902609, 51.8, -62.15)"/>
    <path id="ID0.29563110787421465" fill="none" stroke="#003FFF" stroke-width="2" stroke-linecap="round" d="M 247 87 L 248 164 " transform="matrix(-0.00438824063166976, 0.31463685631752014, -0.2970539927482605, -0.004143012221902609, 51.8, -62.15)"/>
    <path id="ID0.3557395921088755" fill="none" stroke="#003FFF" stroke-width="2" stroke-linecap="round" d="M 223 90.650 L 224 160.650 " transform="matrix(-0.00438824063166976, 0.31463685631752014, -0.2970539927482605, -0.004143012221902609, 51.8, -62.15)"/>
    <path id="ID0.45717029785737395" fill="none" stroke="#003FFF" stroke-width="2" stroke-linecap="round" d="M 254 89 L 255 163 " transform="matrix(-0.00438824063166976, 0.31463685631752014, -0.2970539927482605, -0.004143012221902609, 51.8, -62.15)"/>
    <path id="ID0.5075077214278281" fill="none" stroke="#000000" stroke-width="2" stroke-linecap="round" d="M 212 99.650 L 212 153 " transform="matrix(-0.00438824063166976, 0.31463685631752014, -0.2970539927482605, -0.004143012221902609, 51.8, -62.15)"/>
    <path id="ID0.07860057288780808" fill="none" stroke="#000000" stroke-width="2" stroke-linecap="round" d="M 269 100 L 270 152 " transform="matrix(-0.00438824063166976, 0.31463685631752014, -0.2970539927482605, -0.004143012221902609, 51.8, -62.15)"/>
  </g>
  <path id="ID0.8970635286532342" fill="#000000" stroke="#000000" stroke-width="2" d="M 225.500 173.600 C 228.530 174.709 233.165 174.703 234.350 177.850 C 235.480 180.848 232.874 184.442 230.540 186.686 C 228.177 188.958 224.937 190.350 221.350 190.350 C 217.763 190.350 214.513 188.949 212.160 186.686 C 209.807 184.424 208.350 181.299 208.350 177.850 C 208.350 174.401 209.073 169.865 212.160 169.014 C 216.626 167.785 221.124 171.760 225.500 173.600 Z " transform="matrix(0.3018745481967926, 0, 0, 0.3018745481967926, -55.9, -42.9)"/>
  <path id="ID0.8970635286532342" fill="#000000" stroke="#000000" stroke-width="2" d="M 216.250 173.350 C 220.916 171.405 225.741 167.771 230.540 169.014 C 233.640 169.820 234.350 174.462 234.350 177.850 C 234.350 181.238 232.893 184.424 230.540 186.686 C 228.187 188.949 224.937 190.350 221.350 190.350 C 217.763 190.350 214.513 188.949 212.160 186.686 C 209.807 184.424 207.429 180.917 208.350 177.850 C 209.237 174.923 213.477 174.367 216.250 173.350 Z " transform="matrix(0.3018745481967926, 0, 0, 0.3018745481967926, -45.5, -42.8)"/>
  <g id="ID0.6260323864407837">
    <path id="ID0.570734029635787" fill="#FFFFFF" stroke="#000000" stroke-width="2" stroke-linecap="round" d="M 253.100 197.750 C 256.251 199.257 258.610 201.892 261.700 203.400 C 262.370 203.960 262.475 201.825 262.100 202.700 C 260.645 206.159 260.870 211.111 257.600 213.250 C 252.897 216.314 246.997 216.791 241.100 216.750 C 235.515 216.708 229.902 215.059 224.798 212.807 C 221.688 211.425 218.870 209.266 216.600 206.750 C 216.032 206.120 217.398 205.379 218.100 204.750 C 220.906 202.234 224.025 199.381 227.600 197.750 C 231.904 195.788 236.468 194.380 241.100 194.250 C 245.272 194.134 249.346 195.957 253.100 197.750 Z " transform="matrix(0.3018745481967926, 0, 0, 0.3018745481967926, -57.5, -40.4)"/>
    <path id="ID0.8104396956041455" fill="none" stroke="#000000" stroke-width="2" stroke-linecap="round" d="M 224.850 198.500 L 225.150 213.850 " transform="matrix(0.3018745481967926, 0, 0, 0.3018745481967926, -57.05, -40.55)"/>
    <path id="ID0.09764078725129366" fill="none" stroke="#000000" stroke-width="2" stroke-linecap="round" d="M 234.650 196.350 L 234.850 215.500 " transform="matrix(0.3018745481967926, 0, 0, 0.3018745481967926, -57.05, -40.55)"/>
    <path id="ID0.38310798816382885" fill="none" stroke="#000000" stroke-width="2" stroke-linecap="round" d="M 246.150 196.850 L 245.850 216.500 L 248.150 216.350 " transform="matrix(0.3018745481967926, 0, 0, 0.3018745481967926, -57.05, -40.55)"/>
    <path id="ID0.3697171122767031" fill="none" stroke="#000000" stroke-width="2" stroke-linecap="round" d="M 256.850 201.500 L 256.650 213.850 " transform="matrix(0.3018745481967926, 0, 0, 0.3018745481967926, -57.05, -40.55)"/>
  </g>
  <path id="ID0.8970635286532342" fill="#000000" stroke="#000000" stroke-width="2" d="M 221.500 170.500 C 223.275 170.525 225.067 171.398 226.350 172.600 C 228.054 174.207 229.482 176.217 230.200 178.500 C 231.048 181.109 232.433 186.115 230.540 186.686 C 228.061 187.432 224.947 181.428 221.500 181.300 C 217.894 181.428 215.019 187.520 212.160 186.686 C 209.898 186.026 211.446 181.141 212.100 178.500 C 212.691 176.059 214.468 174.168 216.300 172.600 C 217.755 171.353 219.652 170.525 221.500 170.500 Z " transform="matrix(0.16294065117835999, 0, 0, 0.16294065117835999, -19.55, -13.9)"/>
  <path id="ID0.6990157160907984" fill="none" stroke="#000000" stroke-width="2" stroke-linecap="round" d="M 220 276 C 220 276 220.776 339.869 221.100 371.750 C 221.181 379.720 222.153 374.712 221.100 375.050 C 217.847 376.052 212.200 375.050 212.200 375.050 " transform="matrix(-0.3380829393863678, 0, 0, 0.3380829393863678, 93.85, -40.8)"/>
  <path id="ID0.3618726124987006" fill="none" stroke="#000000" stroke-width="2" stroke-linecap="round" d="M 260.850 213.500 C 260.850 213.500 272.320 234.796 280.950 242.950 C 283.320 245.188 287.684 243.427 289.950 241.400 C 297.462 234.670 304.355 226.143 309.200 217 C 310.412 214.713 304.750 213.300 304.750 213.300 " transform="matrix(0.307176411151886, 0.14121869206428528, -0.14121869206428528, 0.307176411151886, -29, -77.3)"/>
</svg>