<svg version="1.1" width="24" height="18" viewBox="-1 -1 24 18" xmlns="http://www.w3.org/2000/svg" xmlns:xlink="http://www.w3.org/1999/xlink">
  <!-- Exported by Scratch - http://scratch.mit.edu/ -->
  <path id="ID0.23290915181860328" fill="#EACF81" stroke="none" stroke-linecap="round" d="M 243.250 169 C 247.319 169 251.007 169.821 253.677 171.147 C 256.347 172.473 257.712 174.105 258 176.325 C 258.338 178.919 257.653 182.606 255.350 184.050 C 251.870 186.231 247.262 186.008 243.150 186.050 C 239.154 185.923 234.701 185.935 231.350 183.800 C 229.104 182.369 228.284 178.875 228.500 176.325 C 228.685 174.092 230.153 172.473 232.823 171.147 C 235.493 169.821 239.181 169 243.250 169 Z " transform="matrix(0.7037814855575562, 0, 0, 0.48963233828544617, -158.8, -73.9)"/>
  <path id="ID0.5440721549093723" fill="#BA5B54" stroke="none" d="M 242.125 176.800 C 246.229 176.800 249.948 177.310 252.640 178.134 C 255.333 178.957 257 180.095 257 181.350 C 257 182.605 255.333 183.743 252.640 184.566 C 249.948 185.390 246.229 185.900 242.125 185.900 C 238.021 185.900 234.302 185.390 231.610 184.566 C 228.917 183.743 227.250 182.605 227.250 181.350 C 227.250 180.095 228.917 178.957 231.610 178.134 C 234.302 177.310 238.021 176.800 242.125 176.800 Z " transform="matrix(0.7037814855575562, 0, 0, 0.7884689569473267, -157.95, -132.9)"/>
  <path id="ID0.6329789543524384" fill="none" stroke="#A9BA38" stroke-width="2" stroke-linecap="round" d="M 226.250 176 C 226.250 176 227.468 177.563 228.250 178.150 C 228.829 178.584 229.527 178.974 230.250 179 C 231.002 179.027 231.648 178.264 232.400 178.300 C 233.804 178.367 235.099 179.412 236.500 179.300 C 237.936 179.185 239.079 177.887 240.500 177.650 C 241.191 177.535 241.892 177.953 242.500 178.300 C 243.083 178.633 243.396 179.356 244 179.650 C 244.608 179.945 245.350 180.186 246 180 C 246.646 179.815 246.967 179.060 247.500 178.650 C 248.053 178.225 248.554 177.548 249.250 177.500 C 249.933 177.453 250.418 178.468 251.100 178.400 C 251.786 178.331 252.223 177.594 252.750 177.150 C 252.882 177.039 253 176.800 253 176.800 " transform="matrix(0.7037814855575562, 0, 0, 0.7884689569473267, -156.55, -130.95)"/>
  <path id="ID0.9657369954511523" fill="none" stroke="#FF570A" stroke-width="2" stroke-linecap="round" d="M 226.600 179 C 226.600 179 227.621 180.451 228.400 180.500 C 229.940 180.598 231.359 179.330 232.900 179.400 C 233.740 179.438 234.287 180.355 235 180.800 C 235.620 181.187 236.177 181.789 236.900 181.900 C 237.579 182.004 238.243 181.600 238.900 181.400 C 239.610 181.183 240.291 180.872 241 180.650 C 242.523 180.173 244.005 179.235 245.600 179.300 C 246.330 179.330 246.412 180.656 247.100 180.900 C 247.826 181.158 248.673 180.905 249.400 180.650 C 250.045 180.424 250.520 179.861 251.100 179.500 C 251.245 179.410 251.250 179.500 251.250 179.500 " transform="matrix(0.7037814855575562, 0, 0, 0.7884689569473267, -156.55, -130.95)"/>
  <path id="ID0.23841308988630772" fill="none" stroke="#4BFF8F" stroke-width="2" stroke-linecap="round" d="M 225.400 179 C 225.400 179 223.909 180.046 224 180.800 C 224.082 181.483 225.085 181.723 225.750 181.900 C 226.394 182.072 227.095 181.672 227.750 181.800 C 228.415 181.930 228.928 182.563 229.600 182.650 C 230.270 182.737 230.924 182.317 231.600 182.300 C 232.933 182.267 234.286 182.270 235.600 182.500 C 237.351 182.806 238.986 183.683 240.750 183.900 C 241.480 183.990 242.204 183.635 242.900 183.400 C 243.592 183.167 244.203 182.718 244.900 182.500 C 245.545 182.298 246.224 182.150 246.900 182.150 C 247.576 182.150 248.235 182.625 248.900 182.500 C 249.647 182.360 250.235 181.767 250.900 181.400 C 251.350 181.151 252.250 180.650 252.250 180.650 " transform="matrix(0.7037814855575562, 0, 0, 0.7884689569473267, -156.55, -130.95)"/>
  <path id="ID0.23290915181860328" fill="#EACF81" stroke="none" stroke-linecap="round" d="M 243.250 169 C 247.319 169 251.007 169.821 253.677 171.147 C 256.347 172.473 257.712 174.105 258 176.325 C 258.338 178.919 257.653 182.606 255.350 184.050 C 251.870 186.231 247.262 186.008 243.150 186.050 C 239.154 185.923 234.701 185.935 231.350 183.800 C 229.104 182.369 228.284 178.875 228.500 176.325 C 228.685 174.092 230.153 172.473 232.823 171.147 C 235.493 169.821 239.181 169 243.250 169 Z " transform="matrix(0.7037814855575562, 0, 0, 0.48963233828544617, -159.2, -82.15)"/>
  <path id="ID0.45257376646623015" fill="none" stroke="#FFFFFF" stroke-width="2" stroke-linecap="round" d="M 232.500 171.250 L 232.800 171.550 " transform="matrix(0.7037814855575562, 0, 0, 0.48963233828544617, -156.95, -78.15)"/>
  <path id="ID0.03707449231296778" fill="none" stroke="#FFFFFF" stroke-width="2" stroke-linecap="round" d="M 246 170.500 L 246.300 170.800 " transform="matrix(0.7037814855575562, 0, 0, 0.48963233828544617, -156.95, -78.15)"/>
  <path id="ID0.2436697822995484" fill="none" stroke="#FFFFFF" stroke-width="2" stroke-linecap="round" d="M 240.400 166.900 L 240.700 167.200 " transform="matrix(0.7037814855575562, 0, 0, 0.48963233828544617, -156.95, -78.15)"/>
  <path id="ID0.1971330693922937" fill="none" stroke="#FFFFFF" stroke-width="2" stroke-linecap="round" d="M 228.250 166.750 L 228.550 167.050 " transform="matrix(0.7037814855575562, 0, 0, 0.48963233828544617, -156.95, -78.15)"/>
  <path id="ID0.2907091132365167" fill="none" stroke="#FFFFFF" stroke-width="2" stroke-linecap="round" d="M 238.500 166 L 238.800 166.300 " transform="matrix(0.7037814855575562, 0, 0, 0.48963233828544617, -156.95, -78.15)"/>
  <path id="ID0.7992790178395808" fill="none" stroke="#FFFFFF" stroke-width="2" stroke-linecap="round" d="M 235.750 165.250 L 236.050 165.550 " transform="matrix(0.7037814855575562, 0, 0, 0.48963233828544617, -156.95, -78.15)"/>
  <path id="ID0.8191242148168385" fill="none" stroke="#FFFFFF" stroke-width="2" stroke-linecap="round" d="M 249.500 165.250 L 249.800 165.550 " transform="matrix(0.7037814855575562, 0, 0, 0.48963233828544617, -156.95, -78.15)"/>
  <path id="ID0.2189066014252603" fill="none" stroke="#FFFFFF" stroke-width="2" stroke-linecap="round" d="M 238.400 172.900 L 238.700 173.200 " transform="matrix(0.7037814855575562, 0, 0, 0.48963233828544617, -156.95, -78.15)"/>
  <path id="ID0.0956427538767457" fill="none" stroke="#FFFFFF" stroke-width="2" stroke-linecap="round" d="M 240.900 162.900 L 241.200 163.200 " transform="matrix(0.7037814855575562, 0, 0, 0.48963233828544617, -156.95, -78.15)"/>
  <path id="ID0.2616633754223585" fill="none" stroke="#FFFFFF" stroke-width="2" stroke-linecap="round" d="M 231.100 164.600 L 231.400 164.900 " transform="matrix(0.7037814855575562, 0, 0, 0.48963233828544617, -156.95, -78.15)"/>
</svg>