<svg version="1.1" width="25" height="29" viewBox="-1 -1 25 29" xmlns="http://www.w3.org/2000/svg" xmlns:xlink="http://www.w3.org/1999/xlink">
  <!-- Exported by Scratch - http://scratch.mit.edu/ -->
  <path id="ID0.8365832129493356" fill="none" stroke="#666666" stroke-width="2" stroke-linecap="round" d="M 177.350 190 " transform="matrix(1, 0, 0, 1, -281, -250)"/>
  <path id="ID0.8365832129493356" fill="none" stroke="#666666" stroke-width="2" stroke-linecap="round" d="M 177.350 190 " transform="matrix(1, 0, 0, 1, -439, -316)"/>
  <path id="ID0.8365832129493356" fill="none" stroke="#666666" stroke-width="2" stroke-linecap="round" d="M 177.350 190 " transform="matrix(1, 0, 0, 1, -400, -157)"/>
  <path id="ID0.8365832129493356" fill="none" stroke="#666666" stroke-width="2" stroke-linecap="round" d="M 177.350 190 " transform="matrix(1, 0, 0, 1, -285, -360)"/>
  <path id="ID0.8365832129493356" fill="none" stroke="#666666" stroke-width="2" stroke-linecap="round" d="M 177.350 190 " transform="matrix(1, 0, 0, 1, -94, -109)"/>
  <path id="ID0.8365832129493356" fill="none" stroke="#666666" stroke-width="2" stroke-linecap="round" d="M 177.350 190 " transform="matrix(1, 0, 0, 1, -279, -187)"/>
  <path id="ID0.8365832129493356" fill="none" stroke="#666666" stroke-width="2" stroke-linecap="round" d="M 177.350 190 " transform="matrix(1, 0, 0, 1, -80, -117)"/>
  <path id="ID0.8365832129493356" fill="none" stroke="#666666" stroke-width="2" stroke-linecap="round" d="M 177.350 190 " transform="matrix(1, 0, 0, 1, -291, -107)"/>
  <g id="ID0.726160722784698" transform="matrix(0.53125, 0, 0, 0.53125, 0.05, 0.3)">
    <path id="ID0.3909570234827697" fill="#259D09" stroke="#218C08" stroke-width="2" stroke-linecap="round" d="M 275 188.300 C 276.229 188.959 278.310 190.453 280.550 191.650 C 281.944 192.395 283.478 192.873 285 193.300 C 285.807 193.527 286.668 193.704 287.500 193.600 C 288.188 193.514 288.809 193.111 289.400 192.750 C 290.017 192.373 290.521 191.832 291.100 191.400 C 291.637 190.999 292.413 190.829 292.750 190.250 C 293.122 189.611 293.018 188.789 293.050 188.050 C 293.118 186.470 292.958 184.879 293.050 183.300 C 293.142 181.727 293.475 180.171 293.600 178.600 C 293.658 177.870 293.559 177.131 293.600 176.400 C 293.642 175.647 293.709 174.891 293.850 174.150 C 293.976 173.487 294.400 172.875 294.400 172.200 C 294.400 171.525 294.278 170.772 293.850 170.250 C 293.377 169.673 292.547 169.520 291.900 169.150 C 291.265 168.787 290.731 168.050 290 168.050 C 288.554 168.050 287.139 168.606 285.800 169.150 C 285.059 169.451 284.470 170.046 283.850 170.550 C 281.971 172.078 280.012 173.538 278.300 175.250 C 277.595 175.955 277.196 176.915 276.650 177.750 C 276.281 178.314 275.953 178.910 275.550 179.450 C 275.119 180.027 274.561 180.508 274.150 181.100 C 273.725 181.712 273.288 182.344 273.050 183.050 C 272.814 183.751 272.601 184.526 272.750 185.250 C 272.885 185.911 273.494 186.378 273.850 186.950 C 273.960 187.127 273.630 187.135 274.150 187.500 Z " transform="matrix(0.9852718710899353, 0, 0, 0.9852718710899353, -267.5, -164.6)"/>
    <path id="ID0.4333040905185044" fill="none" stroke="#006622" stroke-width="2" stroke-linecap="round" d="M 290 173.050 L 290.300 173.350 " transform="matrix(0.9852718710899353, 0, 0, 0.9852718710899353, -267.5, -164.6)"/>
    <path id="ID0.34726279648020864" fill="none" stroke="#006622" stroke-width="2" stroke-linecap="round" d="M 290.800 179.700 L 291.100 180 " transform="matrix(0.9852718710899353, 0, 0, 0.9852718710899353, -267.5, -164.6)"/>
    <path id="ID0.7076660715974867" fill="none" stroke="#006622" stroke-width="2" stroke-linecap="round" d="M 289.400 184.700 L 289.700 185 " transform="matrix(0.9852718710899353, 0, 0, 0.9852718710899353, -267.5, -164.6)"/>
    <path id="ID0.1455695666372776" fill="none" stroke="#006622" stroke-width="2" stroke-linecap="round" d="M 289.150 188.050 L 289.450 188.350 " transform="matrix(0.9852718710899353, 0, 0, 0.9852718710899353, -267.5, -164.6)"/>
    <path id="ID0.5370404808782041" fill="none" stroke="#006622" stroke-width="2" stroke-linecap="round" d="M 285 189.150 L 285.300 189.450 " transform="matrix(0.9852718710899353, 0, 0, 0.9852718710899353, -267.5, -164.6)"/>
    <path id="ID0.5384965571574867" fill="none" stroke="#006622" stroke-width="2" stroke-linecap="round" d="M 283.050 189.150 L 283.350 189.450 " transform="matrix(0.9852718710899353, 0, 0, 0.9852718710899353, -267.5, -164.6)"/>
    <path id="ID0.5021799351088703" fill="none" stroke="#006622" stroke-width="2" stroke-linecap="round" d="M 280.800 188.300 L 281.100 188.600 " transform="matrix(0.9852718710899353, 0, 0, 0.9852718710899353, -267.5, -164.6)"/>
    <path id="ID0.20128642488270998" fill="none" stroke="#006622" stroke-width="2" stroke-linecap="round" d="M 278.300 186.650 L 278.600 186.950 " transform="matrix(0.9852718710899353, 0, 0, 0.9852718710899353, -267.5, -164.6)"/>
    <path id="ID0.7706889044493437" fill="none" stroke="#006622" stroke-width="2" stroke-linecap="round" d="M 276.650 185.250 L 276.950 185.550 " transform="matrix(0.9852718710899353, 0, 0, 0.9852718710899353, -267.5, -164.6)"/>
    <path id="ID0.3399356189183891" fill="none" stroke="#006622" stroke-width="2" stroke-linecap="round" d="M 282.750 185.550 L 283.050 185.850 " transform="matrix(0.9852718710899353, 0, 0, 0.9852718710899353, -267.5, -164.6)"/>
    <path id="ID0.6854512840509415" fill="none" stroke="#006622" stroke-width="2" stroke-linecap="round" d="M 286.100 186.100 L 286.400 186.400 " transform="matrix(0.9852718710899353, 0, 0, 0.9852718710899353, -267.5, -164.6)"/>
    <path id="ID0.6406664871610701" fill="none" stroke="#006622" stroke-width="2" stroke-linecap="round" d="M 286.900 183.050 L 287.200 183.350 " transform="matrix(0.9852718710899353, 0, 0, 0.9852718710899353, -267.5, -164.6)"/>
    <path id="ID0.21006466634571552" fill="none" stroke="#006622" stroke-width="2" stroke-linecap="round" d="M 286.900 181.400 L 287.200 181.700 " transform="matrix(0.9852718710899353, 0, 0, 0.9852718710899353, -267.5, -164.6)"/>
    <path id="ID0.08519427850842476" fill="none" stroke="#006622" stroke-width="2" stroke-linecap="round" d="M 288.300 179.700 L 288.600 180 " transform="matrix(0.9852718710899353, 0, 0, 0.9852718710899353, -267.5, -164.6)"/>
    <path id="ID0.9108934905380011" fill="none" stroke="#006622" stroke-width="2" stroke-linecap="round" d="M 287.500 189.700 L 287.800 190 " transform="matrix(0.9852718710899353, 0, 0, 0.9852718710899353, -267.5, -164.6)"/>
  </g>
</svg>