<svg version="1.1" width="42" height="67" viewBox="-1 2 42 67" xmlns="http://www.w3.org/2000/svg" xmlns:xlink="http://www.w3.org/1999/xlink">
  <!-- Exported by Scratch - http://scratch.mit.edu/ -->
  <path id="ID0.3618726124987006" fill="none" stroke="#000000" stroke-width="2" stroke-linecap="round" d="M 260.850 213.500 C 260.850 213.500 233.598 204.806 219.650 201.850 C 216.161 201.110 214.526 201.016 214.850 203.750 C 216.147 214.684 221.063 224.307 223.450 234.750 C 224.072 237.441 222.450 237.800 222.450 237.800 " transform="matrix(-0.1859324425458908, 0.2823635935783386, -0.2823635935783386, -0.1859324425458908, 137.5, -9.75)"/>
  <path id="ID0.6990157160907984" fill="none" stroke="#000000" stroke-width="2" stroke-linecap="round" d="M 255.400 291.800 C 255.400 291.800 214.378 277.764 205.850 291.050 C 195.316 307.478 214.261 331.913 217.700 352.450 C 218.565 357.611 220.852 359.601 218.450 361.300 C 214.567 364.030 204.400 362.800 204.400 362.800 " transform="matrix(-0.3380829393863678, 0, 0, 0.3380829393863678, 101.3, -53.95)"/>
  <path id="ID0.6069741295650601" fill="#003FFF" stroke="#000000" stroke-width="2" d="M 220 212.500 L 260 212.500 L 260 278 L 254.900 282.550 L 249.400 284.550 L 243.900 285.550 L 235.900 285.550 L 229.900 284.550 L 224.400 281.550 L 220 278 L 220 212.500 Z " transform="matrix(0.32157379388809204, 0.10435688495635986, -0.13647739589214325, 0.4205525517463684, -31, -95.7)"/>
  <path id="ID0.6990157160907984" fill="none" stroke="#000000" stroke-width="2" stroke-linecap="round" d="M 255.400 291.800 C 255.400 291.800 214.378 277.764 205.850 291.050 C 195.316 307.478 214.261 331.913 217.700 352.450 C 218.565 357.611 220.852 359.601 218.450 361.300 C 214.567 364.030 204.400 362.800 204.400 362.800 " transform="matrix(-0.3380829393863678, 0, 0, 0.3380829393863678, 93.85, -53.9)"/>
  <g id="ID0.8066711132414639">
    <path id="ID0.5763716981746256" fill="#CC0000" stroke="#000000" stroke-width="2" d="M 228.500 148 C 239.122 148 248.747 152.118 255.716 158.771 C 262.686 165.423 267 174.611 267 184.750 C 267 194.889 262.686 204.077 255.716 210.729 C 248.747 217.382 239.122 221.500 228.500 221.500 C 217.878 221.500 208.253 217.382 201.284 210.729 C 194.314 204.077 190 194.889 190 184.750 C 190 174.611 194.314 165.423 201.284 158.771 C 208.253 152.118 217.878 148 228.500 148 Z " transform="matrix(0.28098416328430176, 0.11034557968378067, -0.11962631344795227, 0.3046166002750397, -19.15, -64.95)"/>
    <path id="ID0.33080768724903464" fill="none" stroke="#003FFF" stroke-width="2" stroke-linecap="round" d="M 230 87.650 L 230 163 " transform="matrix(0.28098416328430176, 0.11034557968378067, -0.11034557968378067, 0.28098416328430176, -30.6, -45.45)"/>
    <path id="ID0.29563110787421465" fill="none" stroke="#003FFF" stroke-width="2" stroke-linecap="round" d="M 247 87 L 248 164 " transform="matrix(0.28098416328430176, 0.11034557968378067, -0.11034557968378067, 0.28098416328430176, -30.6, -45.45)"/>
    <path id="ID0.3557395921088755" fill="none" stroke="#003FFF" stroke-width="2" stroke-linecap="round" d="M 223 90.650 L 224 160.650 " transform="matrix(0.28098416328430176, 0.11034557968378067, -0.11034557968378067, 0.28098416328430176, -30.6, -45.45)"/>
    <path id="ID0.45717029785737395" fill="none" stroke="#003FFF" stroke-width="2" stroke-linecap="round" d="M 254 89 L 255 163 " transform="matrix(0.28098416328430176, 0.11034557968378067, -0.11034557968378067, 0.28098416328430176, -30.6, -45.45)"/>
    <path id="ID0.5075077214278281" fill="none" stroke="#000000" stroke-width="2" stroke-linecap="round" d="M 212 99.650 L 212 153 " transform="matrix(0.28098416328430176, 0.11034557968378067, -0.11034557968378067, 0.28098416328430176, -30.6, -45.45)"/>
    <path id="ID0.07860057288780808" fill="none" stroke="#000000" stroke-width="2" stroke-linecap="round" d="M 269 100 L 270 152 " transform="matrix(0.28098416328430176, 0.11034557968378067, -0.11034557968378067, 0.28098416328430176, -30.6, -45.45)"/>
  </g>
  <g id="ID0.8066711132414639">
    <path id="ID0.5763716981746256" fill="none" stroke="#000000" stroke-width="2" d="M 228.500 148 C 239.122 148 248.747 152.118 255.716 158.771 C 262.686 165.423 267 174.611 267 184.750 C 267 194.889 262.686 204.077 255.716 210.729 C 248.747 217.382 239.122 221.500 228.500 221.500 C 217.878 221.500 208.253 217.382 201.284 210.729 C 194.314 204.077 190 194.889 190 184.750 C 190 174.611 194.314 165.423 201.284 158.771 C 208.253 152.118 217.878 148 228.500 148 Z " transform="matrix(-0.11909522116184235, 0.291259229183197, -0.2981104850769043, -0.12189668416976929, 104.9, -27.65)"/>
    <path id="ID0.33080768724903464" fill="none" stroke="#003FFF" stroke-width="2" stroke-linecap="round" d="M 230 87.650 L 230 163 " transform="matrix(-0.11909522116184235, 0.291259229183197, -0.2749828100204468, -0.11243981122970581, 85.9, -39.4)"/>
    <path id="ID0.29563110787421465" fill="none" stroke="#003FFF" stroke-width="2" stroke-linecap="round" d="M 247 87 L 248 164 " transform="matrix(-0.11909522116184235, 0.291259229183197, -0.2749828100204468, -0.11243981122970581, 85.9, -39.4)"/>
    <path id="ID0.3557395921088755" fill="none" stroke="#003FFF" stroke-width="2" stroke-linecap="round" d="M 223 90.650 L 224 160.650 " transform="matrix(-0.11909522116184235, 0.291259229183197, -0.2749828100204468, -0.11243981122970581, 85.9, -39.4)"/>
    <path id="ID0.45717029785737395" fill="none" stroke="#003FFF" stroke-width="2" stroke-linecap="round" d="M 254 89 L 255 163 " transform="matrix(-0.11909522116184235, 0.291259229183197, -0.2749828100204468, -0.11243981122970581, 85.9, -39.4)"/>
    <path id="ID0.5075077214278281" fill="none" stroke="#000000" stroke-width="2" stroke-linecap="round" d="M 212 99.650 L 212 153 " transform="matrix(-0.11909522116184235, 0.291259229183197, -0.2749828100204468, -0.11243981122970581, 85.9, -39.4)"/>
    <path id="ID0.07860057288780808" fill="none" stroke="#000000" stroke-width="2" stroke-linecap="round" d="M 269 100 L 270 152 " transform="matrix(-0.11909522116184235, 0.291259229183197, -0.2749828100204468, -0.11243981122970581, 85.9, -39.4)"/>
  </g>
  <path id="ID0.8970635286532342" fill="#000000" stroke="#000000" stroke-width="2" d="M 221.500 170.500 C 223.275 170.525 225.067 171.398 226.350 172.600 C 228.054 174.207 229.482 176.217 230.200 178.500 C 231.048 181.109 232.433 186.115 230.540 186.686 C 228.061 187.432 224.947 181.428 221.500 181.300 C 217.894 181.428 215.019 187.520 212.160 186.686 C 209.898 186.026 211.446 181.141 212.100 178.500 C 212.691 176.059 214.468 174.168 216.300 172.600 C 217.755 171.353 219.652 170.525 221.500 170.500 Z " transform="matrix(0.15962494909763336, 0.03270367532968521, -0.03270367532968521, 0.15962494909763336, -5.9, -10)"/>
  <path id="ID0.4983870042487979" fill="none" stroke="#000000" stroke-width="2" stroke-linecap="round" d="M 266 125.350 L 275.650 135.150 L 262 133.850 " transform="matrix(0.36585143208503723, 0.029663626104593277, -0.029663626104593277, 0.36585143208503723, -74.9, -34.55)"/>
  <path id="ID0.3618726124987006" fill="none" stroke="#000000" stroke-width="2" stroke-linecap="round" d="M 260.850 213.500 C 260.850 213.500 233.598 204.806 219.650 201.850 C 216.161 201.110 214.526 201.016 214.850 203.750 C 216.147 214.684 221.063 224.307 223.450 234.750 C 224.072 237.441 222.450 237.800 222.450 237.800 " transform="matrix(0.10142702609300613, 0.32250988483428955, 0.32250988483428955, -0.10142702609300613, -85.5, -40.5)"/>
  <path id="ID0.26173686096444726" fill="#000000" stroke="none" d="M 242.075 137.850 C 242.330 137.850 242.561 137.984 242.729 138.202 C 242.896 138.419 243 138.719 243 139.050 C 243 139.381 242.896 139.681 242.729 139.898 C 242.561 140.116 242.330 140.250 242.075 140.250 C 241.820 140.250 241.589 140.116 241.421 139.898 C 241.254 139.681 241.150 139.381 241.150 139.050 C 241.150 138.719 241.254 138.419 241.421 138.202 C 241.589 137.984 241.820 137.850 242.075 137.850 Z " transform="matrix(1, 0, 0, 1, -228, -132)"/>
  <path id="ID0.31342265009880066" fill="#000000" stroke="none" d="M 261.750 141.650 C 262.053 141.650 262.328 141.790 262.528 142.016 C 262.727 142.243 262.850 142.555 262.850 142.900 C 262.850 143.245 262.727 143.557 262.528 143.784 C 262.328 144.010 262.053 144.150 261.750 144.150 C 261.447 144.150 261.172 144.010 260.972 143.784 C 260.773 143.557 260.650 143.245 260.650 142.900 C 260.650 142.555 260.773 142.243 260.972 142.016 C 261.172 141.790 261.447 141.650 261.750 141.650 Z " transform="matrix(1, 0, 0, 1, -228, -132)"/>
</svg>