<svg version="1.1" width="247" height="159" viewBox="1 0 247 159" xmlns="http://www.w3.org/2000/svg" xmlns:xlink="http://www.w3.org/1999/xlink">
  <defs>
    <linearGradient id="grad_1" x2="1">
      <stop offset="0" stop-color="#FF9400" stop-opacity="0"/>
      <stop offset="1" stop-color="#FF9400" stop-opacity="1"/>
    </linearGradient>
    <linearGradient id="grad_2" x2="1">
      <stop offset="0" stop-color="#FF9400" stop-opacity="0"/>
      <stop offset="1" stop-color="#FF9400" stop-opacity="1"/>
    </linearGradient>
  </defs>
  <!-- Exported by Scratch - http://scratch.mit.edu/ -->
  <path id="ID0.6069741295650601" fill="#003FFF" stroke="#000000" stroke-width="2" d="M 220 212.500 L 260 212.500 L 260 278 L 254.900 282.550 L 249.400 284.550 L 243.900 285.550 L 235.900 285.550 L 229.900 284.550 L 224.400 281.550 L 220 278 L 220 212.500 Z " transform="matrix(0.29787740111351013, 0.15990351140499115, -0.209120973944664, 0.3895625174045563, 16.05, -65.8)"/>
  <g id="ID0.8066711132414639" transform="matrix(1, 0, 0, 1, 0, 31)">
    <path id="ID0.5763716981746256" fill="#CC0000" stroke="#000000" stroke-width="2" d="M 228.500 148 C 239.122 148 248.747 152.118 255.716 158.771 C 262.686 165.423 267 174.611 267 184.750 C 267 194.889 262.686 204.077 255.716 210.729 C 248.747 217.382 239.122 221.500 228.500 221.500 C 217.878 221.500 208.253 217.382 201.284 210.729 C 194.314 204.077 190 194.889 190 184.750 C 190 174.611 194.314 165.423 201.284 158.771 C 208.253 152.118 217.878 148 228.500 148 Z " transform="matrix(-0.21934941411018372, -0.20739835500717163, -0.22484180331230164, 0.23779802024364471, 140.3, 21.55)"/>
    <path id="ID0.33080768724903464" fill="none" stroke="#003FFF" stroke-width="2" stroke-linecap="round" d="M 230 87.650 L 230 163 " transform="matrix(-0.21934941411018372, -0.20739835500717163, -0.20739835500717163, 0.21934941411018372, 127.45, 40.2)"/>
    <path id="ID0.29563110787421465" fill="none" stroke="#003FFF" stroke-width="2" stroke-linecap="round" d="M 247 87 L 248 164 " transform="matrix(-0.21934941411018372, -0.20739835500717163, -0.20739835500717163, 0.21934941411018372, 127.45, 40.2)"/>
    <path id="ID0.3557395921088755" fill="none" stroke="#003FFF" stroke-width="2" stroke-linecap="round" d="M 223 90.650 L 224 160.650 " transform="matrix(-0.21934941411018372, -0.20739835500717163, -0.20739835500717163, 0.21934941411018372, 127.45, 40.2)"/>
    <path id="ID0.45717029785737395" fill="none" stroke="#003FFF" stroke-width="2" stroke-linecap="round" d="M 254 89 L 255 163 " transform="matrix(-0.21934941411018372, -0.20739835500717163, -0.20739835500717163, 0.21934941411018372, 127.45, 40.2)"/>
    <path id="ID0.5075077214278281" fill="none" stroke="#000000" stroke-width="2" stroke-linecap="round" d="M 212 99.650 L 212 153 " transform="matrix(-0.21934941411018372, -0.20739835500717163, -0.20739835500717163, 0.21934941411018372, 127.45, 40.2)"/>
    <path id="ID0.07860057288780808" fill="none" stroke="#000000" stroke-width="2" stroke-linecap="round" d="M 269 100 L 270 152 " transform="matrix(-0.21934941411018372, -0.20739835500717163, -0.20739835500717163, 0.21934941411018372, 127.45, 40.2)"/>
  </g>
  <g id="ID0.8066711132414639" transform="matrix(1, 0, 0, 1, 0, 31)">
    <path id="ID0.5763716981746256" fill="none" stroke="#000000" stroke-width="2" d="M 228.500 148 C 239.122 148 248.747 152.118 255.716 158.771 C 262.686 165.423 267 174.611 267 184.750 C 267 194.889 262.686 204.077 255.716 210.729 C 248.747 217.382 239.122 221.500 228.500 221.500 C 217.878 221.500 208.253 217.382 201.284 210.729 C 194.314 204.077 190 194.889 190 184.750 C 190 174.611 194.314 165.423 201.284 158.771 C 208.253 152.118 217.878 148 228.500 148 Z " transform="matrix(-0.21297790110111237, 0.23163770139217377, 0.2370864897966385, 0.2179877609014511, 53.7, -74.9)"/>
    <path id="ID0.33080768724903464" fill="none" stroke="#003FFF" stroke-width="2" stroke-linecap="round" d="M 230 87.650 L 230 163 " transform="matrix(-0.21297790110111237, 0.23163770139217377, 0.2186930775642395, 0.20107604563236237, 72.4, -62.65)"/>
    <path id="ID0.29563110787421465" fill="none" stroke="#003FFF" stroke-width="2" stroke-linecap="round" d="M 247 87 L 248 164 " transform="matrix(-0.21297790110111237, 0.23163770139217377, 0.2186930775642395, 0.20107604563236237, 72.4, -62.65)"/>
    <path id="ID0.3557395921088755" fill="none" stroke="#003FFF" stroke-width="2" stroke-linecap="round" d="M 223 90.650 L 224 160.650 " transform="matrix(-0.21297790110111237, 0.23163770139217377, 0.2186930775642395, 0.20107604563236237, 72.4, -62.65)"/>
    <path id="ID0.45717029785737395" fill="none" stroke="#003FFF" stroke-width="2" stroke-linecap="round" d="M 254 89 L 255 163 " transform="matrix(-0.21297790110111237, 0.23163770139217377, 0.2186930775642395, 0.20107604563236237, 72.4, -62.65)"/>
    <path id="ID0.5075077214278281" fill="none" stroke="#000000" stroke-width="2" stroke-linecap="round" d="M 212 99.650 L 212 153 " transform="matrix(-0.21297790110111237, 0.23163770139217377, 0.2186930775642395, 0.20107604563236237, 72.4, -62.65)"/>
    <path id="ID0.07860057288780808" fill="none" stroke="#000000" stroke-width="2" stroke-linecap="round" d="M 269 100 L 270 152 " transform="matrix(-0.21297790110111237, 0.23163770139217377, 0.2186930775642395, 0.20107604563236237, 72.4, -62.65)"/>
  </g>
  <g id="ID0.6260323864407837" transform="matrix(1, 0, 0, 1, 0, 31)">
    <path id="ID0.570734029635787" fill="#FFFFFF" stroke="#000000" stroke-width="2" stroke-linecap="round" d="M 253.100 197.750 C 256.251 199.257 258.610 201.892 261.700 203.400 C 262.370 203.960 262.475 201.825 262.100 202.700 C 260.645 206.159 260.679 210.985 257.600 213.250 C 252.985 216.648 246.761 217.852 241 218.400 C 235.288 218.946 228.901 218.461 223.200 216.750 C 219.969 215.772 216.230 214.235 214.900 211.350 C 213.997 208.980 216.579 206.334 218.100 204.750 C 220.826 201.928 224.025 199.381 227.600 197.750 C 231.904 195.788 236.468 194.380 241.100 194.250 C 245.272 194.134 249.346 195.957 253.100 197.750 Z " transform="matrix(0.21934941411018372, 0.20739835500717163, -0.20739835500717163, 0.21934941411018372, 34.85, -69.45)"/>
    <path id="ID0.8104396956041455" fill="none" stroke="#000000" stroke-width="2" stroke-linecap="round" d="M 224.850 198.500 L 224.600 215.600 " transform="matrix(0.21934941411018372, 0.20739835500717163, -0.20739835500717163, 0.21934941411018372, 35.25, -69.25)"/>
    <path id="ID0.09764078725129366" fill="none" stroke="#000000" stroke-width="2" stroke-linecap="round" d="M 234.650 196.350 L 234.100 217.650 " transform="matrix(0.21934941411018372, 0.20739835500717163, -0.20739835500717163, 0.21934941411018372, 35.25, -69.25)"/>
    <path id="ID0.38310798816382885" fill="none" stroke="#000000" stroke-width="2" stroke-linecap="round" d="M 246.150 196.850 L 245.850 216.500 L 248.150 216.350 " transform="matrix(0.21934941411018372, 0.20739835500717163, -0.20739835500717163, 0.21934941411018372, 35.25, -69.25)"/>
    <path id="ID0.3697171122767031" fill="none" stroke="#000000" stroke-width="2" stroke-linecap="round" d="M 256.850 201.500 L 256.650 213.850 " transform="matrix(0.21934941411018372, 0.20739835500717163, -0.20739835500717163, 0.21934941411018372, 35.25, -69.25)"/>
  </g>
  <path id="ID0.8970635286532342" fill="#000000" stroke="#000000" stroke-width="2" d="M 221.500 170.500 C 223.275 170.525 225.067 171.398 226.350 172.600 C 228.054 174.207 229.482 176.217 230.200 178.500 C 231.048 181.109 232.433 186.115 230.540 186.686 C 228.061 187.432 224.947 181.428 221.500 181.300 C 217.894 181.428 215.019 187.520 212.160 186.686 C 209.898 186.026 211.446 181.141 212.100 178.500 C 212.691 176.059 214.468 174.168 216.300 172.600 C 217.755 171.353 219.652 170.525 221.500 170.500 Z " transform="matrix(-0.11839665472507477, -0.11194591224193573, -0.11194591224193573, 0.11839665472507477, 95.05, 56.05)"/>
  <path id="ID0.6990157160907984" fill="none" stroke="#000000" stroke-width="2" stroke-linecap="round" d="M 220 276 C 220 276 192.847 300.964 191.800 317.700 C 190.629 336.585 207.864 351.916 212.500 370.200 C 214.126 374.546 209.917 373.235 207.350 373.900 C 204.042 374.828 197 374.600 197 374.600 " transform="matrix(-0.3380829393863678, 0, 0, 0.3380829393863678, 110.85, -10.9)"/>
  <path id="ID0.23439549328759313" fill="none" stroke="#000000" stroke-width="1" stroke-linecap="round" d="M 245.750 128.700 L 241.600 132 L 246.100 135 " transform="matrix(-0.7266244292259216, -0.6870349049568176, -0.6870349049568176, 0.7266244292259216, 315.4, 118.6)"/>
  <path id="ID0.23439549328759313" fill="none" stroke="#000000" stroke-width="1" stroke-linecap="round" d="M 245.750 128.700 L 241.600 132 L 246.100 135 " transform="matrix(0.7266244292259216, 0.6870349049568176, -0.6870349049568176, 0.7266244292259216, -31.65, -209.2)"/>
  <path id="ID0.6990157160907984" fill="none" stroke="#000000" stroke-width="2" stroke-linecap="round" d="M 220 276 C 220 276 192.847 300.964 191.800 317.700 C 190.629 336.585 207.864 351.916 212.500 370.200 C 214.126 374.546 209.917 373.235 207.350 373.900 C 204.042 374.828 197 374.600 197 374.600 " transform="matrix(-0.22262917459011078, -0.2544333338737488, -0.2544333338737488, 0.22262917459011078, 145.55, 78.05)"/>
  <g id="ID0.41871581319719553" transform="matrix(0.7968279123306274, 0.6042063236236572, -0.6042063236236572, 0.7968279123306274, -74.1, -209.4)">
    <path id="ID0.3618726124987006" fill="none" stroke="#000000" stroke-width="2" stroke-linecap="round" d="M 264 216.800 C 264 216.800 278.380 191.111 289.900 183.250 C 301.696 174.955 330.300 167.800 330.300 167.800 " transform="matrix(0.33476555347442627, 0.04724513739347458, -0.04724513739347458, 0.33476555347442627, 145.35, 70.45)"/>
    <path id="ID0.05498608062043786" fill="#000000" stroke="none" d="M 222.875 154.750 C 223.323 154.750 223.730 154.918 224.024 155.190 C 224.318 155.461 224.500 155.836 224.500 156.250 C 224.500 156.664 224.318 157.039 224.024 157.310 C 223.730 157.582 223.323 157.750 222.875 157.750 C 222.427 157.750 222.020 157.582 221.726 157.310 C 221.432 157.039 221.250 156.664 221.250 156.250 C 221.250 155.836 221.432 155.461 221.726 155.190 C 222.020 154.918 222.427 154.750 222.875 154.750 Z "/>
  </g>
  <g id="ID0.41871581319719553" transform="matrix(0.9919337630271912, 0.12675707042217255, -0.12675707042217255, 0.9919337630271912, -191.35, -118.3)">
    <path id="ID0.3618726124987006" fill="none" stroke="#000000" stroke-width="2" stroke-linecap="round" d="M 264 216.800 C 264 216.800 278.380 191.111 289.900 183.250 C 301.696 174.955 330.300 167.800 330.300 167.800 " transform="matrix(0.33476555347442627, 0.04724513739347458, -0.04724513739347458, 0.33476555347442627, 145.35, 70.45)"/>
    <path id="ID0.05498608062043786" fill="#000000" stroke="none" d="M 222.875 154.750 C 223.323 154.750 223.730 154.918 224.024 155.190 C 224.318 155.461 224.500 155.836 224.500 156.250 C 224.500 156.664 224.318 157.039 224.024 157.310 C 223.730 157.582 223.323 157.750 222.875 157.750 C 222.427 157.750 222.020 157.582 221.726 157.310 C 221.432 157.039 221.250 156.664 221.250 156.250 C 221.250 155.836 221.432 155.461 221.726 155.190 C 222.020 154.918 222.427 154.750 222.875 154.750 Z "/>
  </g>
  <path id="ID0.29221266601234674" fill="url(#grad_1)" stroke="url(#grad_2)" stroke-width="2" stroke-linecap="round" d="M 274.750 150.750 L 254.750 120 L 272.750 90.250 L 274.500 124 L 311 109.500 L 291.250 140.250 L 315.500 150.750 L 274.750 150.750 Z " transform="matrix(1, 0, 0, 1, -213, -89)"/>
</svg>