<svg version="1.1" width="52" height="87" viewBox="-1 -1 52 87" xmlns="http://www.w3.org/2000/svg" xmlns:xlink="http://www.w3.org/1999/xlink">
  <!-- Exported by Scratch - http://scratch.mit.edu/ -->
  <path id="ID0.6069741295650601" fill="#003FFF" stroke="#000000" stroke-width="2" d="M 220 212.500 L 260 212.500 L 260 278 L 254.900 282.550 L 249.400 284.550 L 243.900 285.550 L 235.900 285.550 L 229.900 284.550 L 224.400 281.550 L 220 278 L 220 212.500 Z " transform="matrix(0.3380829393863678, 0, 0, 0.44214311242103577, -67.4, -71.3)"/>
  <path id="ID0.6990157160907984" fill="none" stroke="#000000" stroke-width="2" stroke-linecap="round" d="M 220 276 C 220 276 232.203 303.488 232.550 318.150 C 232.581 336.355 224.444 353.808 221.100 371.750 C 220.264 376.235 220.087 374.640 221.100 375.050 C 224.389 376.361 232.200 375.450 232.200 375.450 " transform="matrix(0.3380829393863678, 0, 0, 0.3380829393863678, -67.25, -42.3)"/>
  <g id="ID0.8066711132414639">
    <path id="ID0.5763716981746256" fill="#CC0000" stroke="#000000" stroke-width="2" d="M 228.500 148 C 239.122 148 248.747 152.118 255.716 158.771 C 262.686 165.423 267 174.611 267 184.750 C 267 194.889 262.686 204.077 255.716 210.729 C 248.747 217.382 239.122 221.500 228.500 221.500 C 217.878 221.500 208.253 217.382 201.284 210.729 C 194.314 204.077 190 194.889 190 184.750 C 190 174.611 194.314 165.423 201.284 158.771 C 208.253 152.118 217.878 148 228.500 148 Z " transform="matrix(0.3018745481967926, 0, 0, 0.3272640109062195, -55.45, -47.55)"/>
    <path id="ID0.33080768724903464" fill="none" stroke="#003FFF" stroke-width="2" stroke-linecap="round" d="M 230 87.650 L 230 163 " transform="matrix(0.3018745481967926, 0, 0, 0.3018745481967926, -58.95, -25.2)"/>
    <path id="ID0.29563110787421465" fill="none" stroke="#003FFF" stroke-width="2" stroke-linecap="round" d="M 247 87 L 248 164 " transform="matrix(0.3018745481967926, 0, 0, 0.3018745481967926, -58.95, -25.2)"/>
    <path id="ID0.3557395921088755" fill="none" stroke="#003FFF" stroke-width="2" stroke-linecap="round" d="M 223 90.650 L 224 160.650 " transform="matrix(0.3018745481967926, 0, 0, 0.3018745481967926, -58.95, -25.2)"/>
    <path id="ID0.45717029785737395" fill="none" stroke="#003FFF" stroke-width="2" stroke-linecap="round" d="M 254 89 L 255 163 " transform="matrix(0.3018745481967926, 0, 0, 0.3018745481967926, -58.95, -25.2)"/>
    <path id="ID0.5075077214278281" fill="none" stroke="#000000" stroke-width="2" stroke-linecap="round" d="M 212 99.650 L 212 153 " transform="matrix(0.3018745481967926, 0, 0, 0.3018745481967926, -58.95, -25.2)"/>
    <path id="ID0.07860057288780808" fill="none" stroke="#000000" stroke-width="2" stroke-linecap="round" d="M 269 100 L 270 152 " transform="matrix(0.3018745481967926, 0, 0, 0.3018745481967926, -58.95, -25.2)"/>
  </g>
  <g id="ID0.8066711132414639">
    <path id="ID0.5763716981746256" fill="none" stroke="#000000" stroke-width="2" d="M 228.500 148 C 239.122 148 248.747 152.118 255.716 158.771 C 262.686 165.423 267 174.611 267 184.750 C 267 194.889 262.686 204.077 255.716 210.729 C 248.747 217.382 239.122 221.500 228.500 221.500 C 217.878 221.500 208.253 217.382 201.284 210.729 C 194.314 204.077 190 194.889 190 184.750 C 190 174.611 194.314 165.423 201.284 158.771 C 208.253 152.118 217.878 148 228.500 148 Z " transform="matrix(-0.00438824063166976, 0.31463685631752014, -0.32203802466392517, -0.004491464700549841, 73.75, -58.2)"/>
    <path id="ID0.33080768724903464" fill="none" stroke="#003FFF" stroke-width="2" stroke-linecap="round" d="M 230 87.650 L 230 163 " transform="matrix(-0.00438824063166976, 0.31463685631752014, -0.2970539927482605, -0.004143012221902609, 51.8, -62.15)"/>
    <path id="ID0.29563110787421465" fill="none" stroke="#003FFF" stroke-width="2" stroke-linecap="round" d="M 247 87 L 248 164 " transform="matrix(-0.00438824063166976, 0.31463685631752014, -0.2970539927482605, -0.004143012221902609, 51.8, -62.15)"/>
    <path id="ID0.3557395921088755" fill="none" stroke="#003FFF" stroke-width="2" stroke-linecap="round" d="M 223 90.650 L 224 160.650 " transform="matrix(-0.00438824063166976, 0.31463685631752014, -0.2970539927482605, -0.004143012221902609, 51.8, -62.15)"/>
    <path id="ID0.45717029785737395" fill="none" stroke="#003FFF" stroke-width="2" stroke-linecap="round" d="M 254 89 L 255 163 " transform="matrix(-0.00438824063166976, 0.31463685631752014, -0.2970539927482605, -0.004143012221902609, 51.8, -62.15)"/>
    <path id="ID0.5075077214278281" fill="none" stroke="#000000" stroke-width="2" stroke-linecap="round" d="M 212 99.650 L 212 153 " transform="matrix(-0.00438824063166976, 0.31463685631752014, -0.2970539927482605, -0.004143012221902609, 51.8, -62.15)"/>
    <path id="ID0.07860057288780808" fill="none" stroke="#000000" stroke-width="2" stroke-linecap="round" d="M 269 100 L 270 152 " transform="matrix(-0.00438824063166976, 0.31463685631752014, -0.2970539927482605, -0.004143012221902609, 51.8, -62.15)"/>
  </g>
  <g id="ID0.6260323864407837">
    <path id="ID0.570734029635787" fill="#FFFFFF" stroke="#000000" stroke-width="2" stroke-linecap="round" d="M 253.100 197.750 C 256.251 199.257 258.610 201.892 261.700 203.400 C 262.370 203.960 262.475 201.825 262.100 202.700 C 260.645 206.159 260.679 210.985 257.600 213.250 C 252.985 216.648 246.761 217.852 241 218.400 C 235.288 218.946 228.901 218.461 223.200 216.750 C 219.969 215.772 216.230 214.235 214.900 211.350 C 213.997 208.980 216.579 206.334 218.100 204.750 C 220.826 201.928 224.025 199.381 227.600 197.750 C 231.904 195.788 236.468 194.380 241.100 194.250 C 245.272 194.134 249.346 195.957 253.100 197.750 Z " transform="matrix(-0.3018745481967926, 0, 0, 0.3018745481967926, 83.75, -41.3)"/>
    <path id="ID0.8104396956041455" fill="none" stroke="#000000" stroke-width="2" stroke-linecap="round" d="M 224.850 198.500 L 224.600 215.600 " transform="matrix(-0.3018745481967926, 0, 0, 0.3018745481967926, 83.3, -41.4)"/>
    <path id="ID0.09764078725129366" fill="none" stroke="#000000" stroke-width="2" stroke-linecap="round" d="M 234.650 196.350 L 234.100 217.650 " transform="matrix(-0.3018745481967926, 0, 0, 0.3018745481967926, 83.3, -41.4)"/>
    <path id="ID0.38310798816382885" fill="none" stroke="#000000" stroke-width="2" stroke-linecap="round" d="M 246.150 196.850 L 245.850 216.500 L 248.150 216.350 " transform="matrix(-0.3018745481967926, 0, 0, 0.3018745481967926, 83.3, -41.4)"/>
    <path id="ID0.3697171122767031" fill="none" stroke="#000000" stroke-width="2" stroke-linecap="round" d="M 256.850 201.500 L 256.650 213.850 " transform="matrix(-0.3018745481967926, 0, 0, 0.3018745481967926, 83.3, -41.4)"/>
  </g>
  <path id="ID0.8970635286532342" fill="#000000" stroke="#000000" stroke-width="2" d="M 221.500 170.500 C 223.275 170.525 225.067 171.398 226.350 172.600 C 228.054 174.207 229.482 176.217 230.200 178.500 C 231.048 181.109 232.433 186.115 230.540 186.686 C 228.061 187.432 224.947 181.428 221.500 181.300 C 217.894 181.428 215.019 187.520 212.160 186.686 C 209.898 186.026 211.446 181.141 212.100 178.500 C 212.691 176.059 214.468 174.168 216.300 172.600 C 217.755 171.353 219.652 170.525 221.500 170.500 Z " transform="matrix(0.16294065117835999, 0, 0, 0.16294065117835999, -24.9, -14)"/>
  <path id="ID0.6990157160907984" fill="none" stroke="#000000" stroke-width="2" stroke-linecap="round" d="M 220 276 C 220 276 208.138 302.496 208.100 316.550 C 208.516 335.419 217.252 353.322 221.100 371.750 C 222.062 376.357 222.153 374.712 221.100 375.050 C 217.847 376.052 212.200 375.050 212.200 375.050 " transform="matrix(-0.3380829393863678, 0, 0, 0.3380829393863678, 94.85, -41.9)"/>
  <path id="ID0.3618726124987006" fill="none" stroke="#000000" stroke-width="2" stroke-linecap="round" d="M 260.850 213.500 C 260.850 213.500 336.200 173.400 336.200 173.400 " transform="matrix(0.3380829393863678, 0, 0, 0.3380829393863678, -67.4, -49.5)"/>
  <path id="ID0.23439549328759313" fill="none" stroke="#000000" stroke-width="1" stroke-linecap="round" d="M 245.750 128.700 L 241.600 132 L 246.100 135 " transform="matrix(1, 0, 0, 1, -227.8, -120)"/>
  <path id="ID0.23439549328759313" fill="none" stroke="#000000" stroke-width="1" stroke-linecap="round" d="M 245.750 128.700 L 241.600 132 L 246.100 135 " transform="matrix(-1, 0, 0, 1, 249.65, -120)"/>
  <path id="ID0.3618726124987006" fill="none" stroke="#000000" stroke-width="2" stroke-linecap="round" d="M 260.850 213.500 C 260.850 213.500 336.500 174.750 336.500 174.750 " transform="matrix(0.33476555347442627, 0.04724513739347458, -0.04724513739347458, 0.33476555347442627, -56.15, -60.65)"/>
  <path id="ID0.3618726124987006" fill="none" stroke="#000000" stroke-width="2" stroke-linecap="round" d="M 260.850 213.500 C 260.850 213.500 334.100 175.600 334.100 175.600 " transform="matrix(0.3213292062282562, 0.10510767996311188, -0.10510767996311188, 0.3213292062282562, -40.65, -72.55)"/>
  <path id="ID0.3618726124987006" fill="none" stroke="#000000" stroke-width="2" stroke-linecap="round" d="M 260.850 213.500 C 260.850 213.500 334 177.750 334 177.750 " transform="matrix(0.2817831337451935, 0.18681098520755768, -0.18681098520755768, 0.2817831337451935, -12.15, -85.35)"/>
  <path id="ID0.9628987754695117" fill="none" stroke="#000000" stroke-width="1" stroke-linecap="round" d="M 256.500 128.650 L 265.500 124.300 " transform="matrix(1, 0, 0, 1, -227, -120)"/>
  <path id="ID0.15542853204533458" fill="none" stroke="#000000" stroke-width="1" stroke-linecap="round" d="M 273.650 126.150 L 275.650 128.300 " transform="matrix(1, 0, 0, 1, -227, -120)"/>
  <path id="ID0.8450488247908652" fill="none" stroke="#000000" stroke-width="1" stroke-linecap="round" d="M 278.150 131.300 L 276.500 135.400 " transform="matrix(1, 0, 0, 1, -227, -120)"/>
  <path id="ID0.7929358002729714" fill="none" stroke="#000000" stroke-width="1" stroke-linecap="round" d="M 267.400 146.900 L 271.150 148 " transform="matrix(1, 0, 0, 1, -227, -120)"/>
</svg>