<svg version="1.1" width="109" height="81" viewBox="-1 -1 109 81" xmlns="http://www.w3.org/2000/svg" xmlns:xlink="http://www.w3.org/1999/xlink">
  <defs>
    <linearGradient id="grad_1" y2="1">
      <stop offset="0" stop-color="#FF00BF" stop-opacity="1"/>
      <stop offset="1" stop-color="#FF00BF" stop-opacity="0"/>
    </linearGradient>
    <linearGradient id="grad_2" y2="1">
      <stop offset="0" stop-color="#FF00BF" stop-opacity="1"/>
      <stop offset="1" stop-color="#FF00BF" stop-opacity="0"/>
    </linearGradient>
    <radialGradient id="grad_3" cx="0.5454" cy="0.4158" r="0.75946">
      <stop offset="0" stop-color="#FF00BF" stop-opacity="1"/>
      <stop offset="1" stop-color="#FF00BF" stop-opacity="0"/>
    </radialGradient>
    <radialGradient id="grad_4" cx="0.7142000000000001" cy="0.7585999999999999" r="0.98618">
      <stop offset="0" stop-color="#FF00BF" stop-opacity="1"/>
      <stop offset="1" stop-color="#FF00BF" stop-opacity="0"/>
    </radialGradient>
    <radialGradient id="grad_5" cx="0.3986" cy="0.6382" r="0.8296600000000001">
      <stop offset="0" stop-color="#FF00BF" stop-opacity="1"/>
      <stop offset="1" stop-color="#FF00BF" stop-opacity="0"/>
    </radialGradient>
    <radialGradient id="grad_6" cx="0.3181" cy="0.5238" r="0.8864700000000001">
      <stop offset="0" stop-color="#FF00BF" stop-opacity="1"/>
      <stop offset="1" stop-color="#FF00BF" stop-opacity="0"/>
    </radialGradient>
    <radialGradient id="grad_7" cx="0.5238" cy="0.7777" r="1.01101">
      <stop offset="0" stop-color="#FF00BF" stop-opacity="1"/>
      <stop offset="1" stop-color="#FF00BF" stop-opacity="0"/>
    </radialGradient>
    <radialGradient id="grad_8" cx="0.5958" cy="0.8108" r="1.0540399999999999">
      <stop offset="0" stop-color="#FF00BF" stop-opacity="1"/>
      <stop offset="1" stop-color="#FF00BF" stop-opacity="0"/>
    </radialGradient>
    <radialGradient id="grad_9" cx="0.6806" cy="0.21050000000000002" r="1.02635">
      <stop offset="0" stop-color="#FF00BF" stop-opacity="1"/>
      <stop offset="1" stop-color="#FF00BF" stop-opacity="0"/>
    </radialGradient>
    <radialGradient id="grad_10" cx="0.5555" cy="0.5625" r="0.73125">
      <stop offset="0" stop-color="#FF00BF" stop-opacity="1"/>
      <stop offset="1" stop-color="#FF00BF" stop-opacity="0"/>
    </radialGradient>
  </defs>
  <!-- Exported by Scratch - http://scratch.mit.edu/ -->
  <path id="ID0.28877942729741335" fill="#000000" stroke="#7F00FF" stroke-width="2" d="M 298.025 324 C 304.460 324 310.138 324.604 314.514 328.198 C 318.827 331.741 321.611 337.901 321.500 343.500 C 321.426 347.192 317.871 350.560 314.500 352 C 309.420 354.167 303.524 353.802 298 353.850 C 292.456 353.635 286.561 353.742 281.500 351.500 C 278.326 350.095 274.995 346.802 275 343.350 C 275.008 337.855 277.268 331.864 281.536 328.198 C 285.835 324.508 291.590 324 298.025 324 Z " transform="matrix(0.344271719455719, 0.014658313244581223, -0.014658313244581223, 0.344271719455719, -33.25, -47.25)"/>
  <path id="ID0.6785501558333635" fill="#000000" stroke="#FFFFFF" stroke-width="2" d="M 201.600 245.800 C 209.309 245.869 219.929 246.926 223.600 253.800 C 232.205 269.938 233.187 289.303 234.600 307.500 C 235.732 322.089 239.073 338.929 231.600 351.500 C 225.956 360.392 211.998 361.463 201.600 361.500 C 192.327 361.526 180.336 359.646 175.600 351.500 C 167.727 337.950 168.913 320.560 169.600 304.800 C 170.350 287.347 171.836 268.799 180.600 253.500 C 184.213 247.019 194.151 245.734 201.600 245.800 Z " transform="matrix(0.3445810079574585, 0.0013453251449391246, -0.0011733032297343016, 0.30052030086517334, -12.25, -34)"/>
  <g id="ID0.5338938259519637" transform="matrix(1, 0, 0, 1, 7, -22)">
    <path id="ID0.09260875266045332" fill="#000000" stroke="#FFFFFF" stroke-width="2" d="M 264.850 259.700 C 267.723 256.250 276.326 257.195 278.250 261.250 C 282.171 269.530 279.293 279.671 278.100 288.750 C 277.015 296.968 276.524 306.848 270.450 312.550 C 267.023 315.791 258.522 312.915 256.550 308.500 C 253.315 301.226 256.692 292.561 258 284.600 C 259.396 276.115 259.340 266.337 264.850 259.700 Z " transform="matrix(-0.13410450518131256, 0.3174174427986145, 0.3174174427986145, 0.13410450518131256, -21.2, -54.2)"/>
    <path id="ID0.8909183316864073" fill="#CC99FF" stroke="#330066" stroke-width="2" d="M 265 298 C 268.587 298 272.159 298.948 274.190 301.517 C 276.515 304.453 278.104 309.157 277.450 313.100 C 276.907 316.345 273.811 318.883 270.950 320.500 C 268.224 322.084 264.852 322.559 261.650 322.150 C 259.392 321.868 257.542 320.487 255.810 318.483 C 253.790 316.118 252 313.311 252 310 C 252 306.689 253.457 303.689 255.810 301.517 C 258.163 299.345 261.413 298 265 298 Z " transform="matrix(-0.29293254017829895, 0.18146182596683502, 0.18146182596683502, 0.29293254017829895, 45.7, -71.85)"/>
  </g>
  <path id="ID0.5196907157078385" fill="none" stroke="#000000" stroke-width="2" stroke-linecap="round" d="M 240 147.300 L 233.350 84 " transform="matrix(-0.48588621616363525, -0.15002082288265228, -0.08918433636426926, 0.28884950280189514, 183.35, 14.25)"/>
  <path id="ID0.5196907157078385" fill="none" stroke="#000000" stroke-width="2" stroke-linecap="round" d="M 240 147.300 L 233.350 84 " transform="matrix(0.48704275488853455, -0.1462222784757614, 0.0869261771440506, 0.28953707218170166, -71.6, 13.25)"/>
  <path id="ID0.5196907157078385" fill="none" stroke="#000000" stroke-width="2" stroke-linecap="round" d="M 240 147.300 L 231.400 74.100 " transform="matrix(0.4993319809436798, 0.09622426331043243, -0.05720338225364685, 0.2968427836894989, -55.4, -43)"/>
  <path id="ID0.7701462963595986" fill="#CC99FF" stroke="#330066" stroke-width="2" d="M 224.675 185.300 C 238.835 185.300 251.666 191.054 260.958 200.350 C 270.249 209.645 276 222.483 276 236.650 C 276 250.817 270.249 263.655 260.958 272.950 C 251.666 282.246 238.835 288 224.675 288 C 210.515 288 197.684 282.246 188.392 272.950 C 179.101 263.655 173.350 250.817 173.350 236.650 C 173.350 222.483 179.101 209.645 188.392 200.350 C 197.684 191.054 210.515 185.300 224.675 185.300 Z " transform="matrix(0.31395891308784485, 0.0012257709167897701, -0.0012257709167897701, 0.31395891308784485, -14.25, -43.5)"/>
  <path id="ID0.5253645898774266" fill="#CC99FF" stroke="#330066" stroke-width="2" d="M 154.025 236 C 160.460 236 166.291 238.465 170.514 242.448 C 174.736 246.430 177.350 251.930 177.350 258 C 177.350 264.070 174.736 269.570 170.514 273.552 C 166.291 277.535 160.460 280 154.025 280 C 147.590 280 141.759 277.535 137.536 273.552 C 133.314 269.570 130.700 264.070 130.700 258 C 130.700 251.930 133.314 246.430 137.536 242.448 C 141.759 238.465 147.590 236 154.025 236 Z " transform="matrix(0.31395891308784485, 0.0012257709167897701, -0.0012257709167897701, 0.31395891308784485, 14.75, -58.5)"/>
  <path id="ID0.28877942729741335" fill="#000000" stroke="#7F00FF" stroke-width="2" d="M 298.025 324 C 304.460 324 310.138 324.604 314.514 328.198 C 318.827 331.741 321.611 337.901 321.500 343.500 C 321.426 347.192 317.871 350.560 314.500 352 C 309.420 354.167 303.524 353.802 298 353.850 C 292.456 353.635 286.561 353.742 281.500 351.500 C 278.326 350.095 274.995 346.802 275 343.350 C 275.008 337.855 277.268 331.864 281.536 328.198 C 285.835 324.508 291.590 324 298.025 324 Z " transform="matrix(-0.34453344345092773, -0.005881177261471748, -0.005881177261471748, 0.34453344345092773, 158.1, -40.5)"/>
  <path id="ID0.8365832129493356" fill="none" stroke="#666666" stroke-width="2" stroke-linecap="round" d="M 177.350 190 " transform="matrix(1, 0, 0, 1, -563.5, -97)"/>
  <path id="ID0.8365832129493356" fill="none" stroke="#666666" stroke-width="2" stroke-linecap="round" d="M 177.350 190 " transform="matrix(1, 0, 0, 1, -261, -190)"/>
  <path id="ID0.8365832129493356" fill="none" stroke="#666666" stroke-width="2" stroke-linecap="round" d="M 177.350 190 " transform="matrix(1, 0, 0, 1, -419, -256)"/>
  <path id="ID0.8365832129493356" fill="none" stroke="#666666" stroke-width="2" stroke-linecap="round" d="M 177.350 190 " transform="matrix(1, 0, 0, 1, -380, -97)"/>
  <path id="ID0.8365832129493356" fill="none" stroke="#666666" stroke-width="2" stroke-linecap="round" d="M 177.350 190 " transform="matrix(1, 0, 0, 1, -265, -300)"/>
  <path id="ID0.8365832129493356" fill="none" stroke="#666666" stroke-width="2" stroke-linecap="round" d="M 177.350 190 " transform="matrix(1, 0, 0, 1, -74, -49)"/>
  <path id="ID0.8365832129493356" fill="none" stroke="#666666" stroke-width="2" stroke-linecap="round" d="M 177.350 190 " transform="matrix(1, 0, 0, 1, -259, -127)"/>
  <path id="ID0.8365832129493356" fill="none" stroke="#666666" stroke-width="2" stroke-linecap="round" d="M 177.350 190 " transform="matrix(1, 0, 0, 1, -60, -57)"/>
  <path id="ID0.8365832129493356" fill="none" stroke="#666666" stroke-width="2" stroke-linecap="round" d="M 177.350 190 " transform="matrix(1, 0, 0, 1, -271, -47)"/>
  <path id="ID0.8365832129493356" fill="none" stroke="#666666" stroke-width="2" stroke-linecap="round" d="M 177.350 190 " transform="matrix(1, 0, 0, 1, -261, -190)"/>
  <path id="ID0.8365832129493356" fill="none" stroke="#666666" stroke-width="2" stroke-linecap="round" d="M 177.350 190 " transform="matrix(1, 0, 0, 1, -419, -256)"/>
  <path id="ID0.8365832129493356" fill="none" stroke="#666666" stroke-width="2" stroke-linecap="round" d="M 177.350 190 " transform="matrix(1, 0, 0, 1, -380, -97)"/>
  <path id="ID0.8365832129493356" fill="none" stroke="#666666" stroke-width="2" stroke-linecap="round" d="M 177.350 190 " transform="matrix(1, 0, 0, 1, -265, -300)"/>
  <path id="ID0.8365832129493356" fill="none" stroke="#666666" stroke-width="2" stroke-linecap="round" d="M 177.350 190 " transform="matrix(1, 0, 0, 1, -74, -49)"/>
  <path id="ID0.8365832129493356" fill="none" stroke="#666666" stroke-width="2" stroke-linecap="round" d="M 177.350 190 " transform="matrix(1, 0, 0, 1, -259, -127)"/>
  <path id="ID0.8365832129493356" fill="none" stroke="#666666" stroke-width="2" stroke-linecap="round" d="M 177.350 190 " transform="matrix(1, 0, 0, 1, -60, -57)"/>
  <path id="ID0.8365832129493356" fill="none" stroke="#666666" stroke-width="2" stroke-linecap="round" d="M 177.350 190 " transform="matrix(1, 0, 0, 1, -271, -47)"/>
  <g id="ID0.5338938259519637" transform="matrix(1, 0, 0, 1, 7, -22)">
    <path id="ID0.09260875266045332" fill="#000000" stroke="#FFFFFF" stroke-width="2" d="M 264.850 259.700 C 267.723 256.250 276.326 257.195 278.250 261.250 C 282.171 269.530 279.293 279.671 278.100 288.750 C 277.015 296.968 276.524 306.848 270.450 312.550 C 267.023 315.791 258.522 312.915 256.550 308.500 C 253.315 301.226 256.692 292.561 258 284.600 C 259.396 276.115 259.340 266.337 264.850 259.700 Z " transform="matrix(0.17863060534000397, 0.2946675419807434, -0.2946675419807434, 0.17863060534000397, 102.9, -62.45)"/>
    <path id="ID0.8909183316864073" fill="#CC99FF" stroke="#330066" stroke-width="2" d="M 265 298 C 268.587 298 272.159 298.948 274.190 301.517 C 276.515 304.453 278.104 309.157 277.450 313.100 C 276.907 316.345 273.811 318.883 270.950 320.500 C 268.224 322.084 264.852 322.559 261.650 322.150 C 259.392 321.868 257.542 320.487 255.810 318.483 C 253.790 316.118 252 313.311 252 310 C 252 306.689 253.457 303.689 255.810 301.517 C 258.163 299.345 261.413 298 265 298 Z " transform="matrix(0.3161104619503021, 0.13715699315071106, -0.13715699315071106, 0.3161104619503021, 34.1, -70.2)"/>
  </g>
  <path id="ID0.5165919158607721" fill="url(#grad_1)" stroke="none" d="M 201.500 154 C 205.225 154 208.600 155.261 211.043 157.297 C 213.487 159.334 215 162.146 215 165.250 C 215 168.354 213.487 171.166 211.043 173.203 C 208.600 175.239 205.225 176.500 201.500 176.500 C 197.775 176.500 194.400 175.239 191.957 173.203 C 189.513 171.166 188 168.354 188 165.250 C 188 162.146 189.513 159.334 191.957 157.297 C 194.400 155.261 197.775 154 201.500 154 Z " transform="matrix(1, 0, 0, 1, -181, -119)"/>
  <path id="ID0.5165919158607721" fill="url(#grad_2)" stroke="none" d="M 201.500 154 C 205.225 154 208.600 155.261 211.043 157.297 C 213.487 159.334 215 162.146 215 165.250 C 215 168.354 213.487 171.166 211.043 173.203 C 208.600 175.239 205.225 176.500 201.500 176.500 C 197.775 176.500 194.400 175.239 191.957 173.203 C 189.513 171.166 188 168.354 188 165.250 C 188 162.146 189.513 159.334 191.957 157.297 C 194.400 155.261 197.775 154 201.500 154 Z " transform="matrix(1, 0, 0, 1, -112.25, -119.5)"/>
  <path id="ID0.7451663454994559" fill="none" stroke="url(#grad_3)" stroke-width="2" stroke-linecap="round" d="M 272 149.500 C 272 149.500 277.428 149.286 280 150 C 280.717 150.199 280.908 151.261 281 152 C 281.085 152.681 280.841 153.404 280.500 154 C 280.150 154.613 278.871 155.114 279 155.500 C 279.121 155.864 280.354 155.338 281 155.500 C 281.722 155.681 282.334 156.167 283 156.500 C 283.666 156.833 284.473 156.973 285 157.500 C 285.527 158.027 285.739 158.803 286 159.500 C 286.241 160.143 286.365 160.827 286.500 161.500 C 286.534 161.668 286.500 162 286.500 162 " transform="matrix(1, 0, 0, 1, -181, -119)"/>
  <path id="ID0.565892634447664" fill="none" stroke="url(#grad_4)" stroke-width="2" stroke-linecap="round" d="M 191 149 C 191 149 190.237 150.868 189.500 151.500 C 188.979 151.947 187.929 151.464 187.500 152 C 187.084 152.520 187.417 153.339 187.500 154 C 187.585 154.681 187.759 155.357 188 156 C 188.261 156.697 189.105 157.263 189 158 C 188.900 158.699 188.149 159.222 187.500 159.500 C 186.888 159.762 186.146 159.338 185.500 159.500 C 184.778 159.681 184.120 160.087 183.500 160.500 C 183.108 160.761 182.500 161.500 182.500 161.500 " transform="matrix(1, 0, 0, 1, -181, -119)"/>
  <path id="ID0.04912952799350023" fill="none" stroke="url(#grad_5)" stroke-width="2" stroke-linecap="round" d="M 186.500 173.500 C 186.500 173.500 187.314 175.314 188 176 C 188.686 176.686 189.579 177.193 190.500 177.500 C 191.132 177.711 191.834 177.500 192.500 177.500 C 193.166 177.500 193.854 177.662 194.500 177.500 C 195.222 177.319 195.794 176.265 196.500 176.500 C 197.206 176.735 196.794 178.265 197.500 178.500 C 198.206 178.735 198.834 177.833 199.500 177.500 C 199.667 177.417 199.500 177.500 199.500 177.500 " transform="matrix(1, 0, 0, 1, -181, -119)"/>
  <path id="ID0.4933362430892885" fill="none" stroke="url(#grad_6)" stroke-width="2" stroke-linecap="round" d="M 204.500 146 C 204.500 146 206.765 148.152 207.500 149.500 C 207.819 150.085 207.029 151.029 207.500 151.500 C 207.971 151.971 208.876 151.266 209.500 151.500 C 210.279 151.792 210.834 152.500 211.500 153 C 212.166 153.500 213.500 154.500 213.500 154.500 " transform="matrix(1, 0, 0, 1, -181, -119)"/>
  <path id="ID0.5990025224164128" fill="none" stroke="url(#grad_7)" stroke-width="2" stroke-linecap="round" d="M 206 176 C 206 176 210.394 176.027 212.500 175.500 C 213.185 175.329 213.500 174.500 214 174 C 214.167 173.833 214.500 173.500 214.500 173.500 " transform="matrix(1, 0, 0, 1, -181, -119)"/>
  <path id="ID0.6663485453464091" fill="none" stroke="url(#grad_8)" stroke-width="2" stroke-linecap="round" d="M 252.500 169.500 C 252.500 169.500 253.417 171.223 254 172 C 254.424 172.565 254.901 173.126 255.500 173.500 C 256.260 173.975 257.121 174.324 258 174.500 C 258.816 174.663 259.668 174.500 260.500 174.500 C 261.166 174.500 261.834 174.500 262.500 174.500 C 263.332 174.500 264.307 174.038 265 174.500 C 265.571 174.881 265.159 175.904 265.500 176.500 C 265.850 177.113 266.315 177.829 267 178 C 267.824 178.206 268.656 177.594 269.500 177.500 C 270.162 177.426 270.839 177.417 271.500 177.500 C 272.181 177.585 272.834 177.833 273.500 178 C 274.166 178.167 274.819 178.415 275.500 178.500 C 276.161 178.583 276.850 178.644 277.500 178.500 C 278.375 178.305 279.240 177.975 280 177.500 C 280.599 177.126 281.076 176.565 281.500 176 C 281.606 175.859 281.500 175.500 281.500 175.500 " transform="matrix(1, 0, 0, 1, -181, -119)"/>
  <path id="ID0.6086086388677359" fill="none" stroke="url(#grad_9)" stroke-width="2" stroke-linecap="round" d="M 256.500 152.500 C 256.500 152.500 257.596 150.565 258.500 150 C 259.065 149.647 259.850 149.856 260.500 150 C 261.375 150.195 262.319 150.416 263 151 C 263.565 151.485 263.723 152.309 264 153 C 264.069 153.173 264 153.500 264 153.500 " transform="matrix(1, 0, 0, 1, -181, -119)"/>
  <path id="ID0.8711751201190054" fill="none" stroke="url(#grad_10)" stroke-width="2" stroke-linecap="round" d="M 288 164 C 288 164 288.100 166.799 287.500 168 C 287.167 168.666 285.806 168.387 285.500 169 C 285.306 169.387 286.500 170 286.500 170 " transform="matrix(1, 0, 0, 1, -181, -119)"/>
</svg>