<svg version="1.1" width="82" height="81" viewBox="-1 -1 82 81" xmlns="http://www.w3.org/2000/svg" xmlns:xlink="http://www.w3.org/1999/xlink">
  <!-- Exported by Scratch - http://scratch.mit.edu/ -->
  <path id="ID0.28877942729741335" fill="#000000" stroke="#7F00FF" stroke-width="2" d="M 298.025 324 C 304.460 324 310.138 324.604 314.514 328.198 C 318.827 331.741 321.611 337.901 321.500 343.500 C 321.426 347.192 317.871 350.560 314.500 352 C 309.420 354.167 303.524 353.802 298 353.850 C 292.456 353.635 286.561 353.742 281.500 351.500 C 278.326 350.095 274.995 346.802 275 343.350 C 275.008 337.855 277.268 331.864 281.536 328.198 C 285.835 324.508 291.590 324 298.025 324 Z " transform="matrix(0.344271719455719, 0.014658313244581223, -0.014658313244581223, 0.344271719455719, -65.25, -47.25)"/>
  <path id="ID0.6785501558333635" fill="#000000" stroke="#FFFFFF" stroke-width="2" d="M 201.600 245.800 C 209.309 245.869 219.929 246.926 223.600 253.800 C 232.205 269.938 233.187 289.303 234.600 307.500 C 235.732 322.089 239.073 338.929 231.600 351.500 C 225.956 360.392 211.998 361.463 201.600 361.500 C 192.327 361.526 180.336 359.646 175.600 351.500 C 167.727 337.950 168.913 320.560 169.600 304.800 C 170.350 287.347 171.836 268.799 180.600 253.500 C 184.213 247.019 194.151 245.734 201.600 245.800 Z " transform="matrix(0.3445810079574585, 0.0013453251449391246, -0.0011733032297343016, 0.30052030086517334, -44.25, -34)"/>
  <g id="ID0.5338938259519637" transform="matrix(0.3378390967845917, -0.9412038922309875, 0.9412038922309875, 0.3378390967845917, -46.8, 76.65)">
    <path id="ID0.09260875266045332" fill="#000000" stroke="#FFFFFF" stroke-width="2" d="M 264.850 259.700 C 267.723 256.250 276.326 257.195 278.250 261.250 C 282.171 269.530 279.293 279.671 278.100 288.750 C 277.015 296.968 276.524 306.848 270.450 312.550 C 267.023 315.791 258.522 312.915 256.550 308.500 C 253.315 301.226 256.692 292.561 258 284.600 C 259.396 276.115 259.340 266.337 264.850 259.700 Z " transform="matrix(-0.13410450518131256, 0.3174174427986145, 0.3174174427986145, 0.13410450518131256, -14.2, -76.2)"/>
    <path id="ID0.8909183316864073" fill="#CC99FF" stroke="#330066" stroke-width="2" d="M 265 298 C 268.587 298 272.159 298.948 274.190 301.517 C 276.515 304.453 278.104 309.157 277.450 313.100 C 276.907 316.345 273.811 318.883 270.950 320.500 C 268.224 322.084 264.852 322.559 261.650 322.150 C 259.392 321.868 257.542 320.487 255.810 318.483 C 253.790 316.118 252 313.311 252 310 C 252 306.689 253.457 303.689 255.810 301.517 C 258.163 299.345 261.413 298 265 298 Z " transform="matrix(-0.29293254017829895, 0.18146182596683502, 0.18146182596683502, 0.29293254017829895, 52.7, -93.85)"/>
  </g>
  <path id="ID0.5196907157078385" fill="none" stroke="#000000" stroke-width="2" stroke-linecap="round" d="M 240 147.300 L 233.350 84 " transform="matrix(-0.48588621616363525, -0.15002082288265228, -0.08918433636426926, 0.28884950280189514, 151.35, 14.25)"/>
  <path id="ID0.5196907157078385" fill="none" stroke="#000000" stroke-width="2" stroke-linecap="round" d="M 240 147.300 L 233.350 84 " transform="matrix(0.48704275488853455, -0.1462222784757614, 0.0869261771440506, 0.28953707218170166, -103.6, 13.25)"/>
  <path id="ID0.5196907157078385" fill="none" stroke="#000000" stroke-width="2" stroke-linecap="round" d="M 240 147.300 L 231.400 74.100 " transform="matrix(0.4993319809436798, 0.09622426331043243, -0.05720338225364685, 0.2968427836894989, -87.4, -43)"/>
  <path id="ID0.7701462963595986" fill="#CC99FF" stroke="#330066" stroke-width="2" d="M 224.675 185.300 C 238.835 185.300 251.666 191.054 260.958 200.350 C 270.249 209.645 276 222.483 276 236.650 C 276 250.817 270.249 263.655 260.958 272.950 C 251.666 282.246 238.835 288 224.675 288 C 210.515 288 197.684 282.246 188.392 272.950 C 179.101 263.655 173.350 250.817 173.350 236.650 C 173.350 222.483 179.101 209.645 188.392 200.350 C 197.684 191.054 210.515 185.300 224.675 185.300 Z " transform="matrix(0.31395891308784485, 0.0012257709167897701, -0.0012257709167897701, 0.31395891308784485, -46.25, -43.5)"/>
  <path id="ID0.5253645898774266" fill="#CC99FF" stroke="#330066" stroke-width="2" d="M 154.025 236 C 160.460 236 166.291 238.465 170.514 242.448 C 174.736 246.430 177.350 251.930 177.350 258 C 177.350 264.070 174.736 269.570 170.514 273.552 C 166.291 277.535 160.460 280 154.025 280 C 147.590 280 141.759 277.535 137.536 273.552 C 133.314 269.570 130.700 264.070 130.700 258 C 130.700 251.930 133.314 246.430 137.536 242.448 C 141.759 238.465 147.590 236 154.025 236 Z " transform="matrix(0.31395891308784485, 0.0012257709167897701, -0.0012257709167897701, 0.31395891308784485, -14.3, -48.95)"/>
  <path id="ID0.28877942729741335" fill="#000000" stroke="#7F00FF" stroke-width="2" d="M 298.025 324 C 304.460 324 310.138 324.604 314.514 328.198 C 318.827 331.741 321.611 337.901 321.500 343.500 C 321.426 347.192 317.871 350.560 314.500 352 C 309.420 354.167 303.524 353.802 298 353.850 C 292.456 353.635 286.561 353.742 281.500 351.500 C 278.326 350.095 274.995 346.802 275 343.350 C 275.008 337.855 277.268 331.864 281.536 328.198 C 285.835 324.508 291.590 324 298.025 324 Z " transform="matrix(-0.34453344345092773, -0.005881177261471748, -0.005881177261471748, 0.34453344345092773, 126.1, -40.5)"/>
  <path id="ID0.8365832129493356" fill="none" stroke="#666666" stroke-width="2" stroke-linecap="round" d="M 177.350 190 " transform="matrix(1, 0, 0, 1, -595.5, -97)"/>
  <path id="ID0.8365832129493356" fill="none" stroke="#666666" stroke-width="2" stroke-linecap="round" d="M 177.350 190 " transform="matrix(1, 0, 0, 1, -293, -190)"/>
  <path id="ID0.8365832129493356" fill="none" stroke="#666666" stroke-width="2" stroke-linecap="round" d="M 177.350 190 " transform="matrix(1, 0, 0, 1, -451, -256)"/>
  <path id="ID0.8365832129493356" fill="none" stroke="#666666" stroke-width="2" stroke-linecap="round" d="M 177.350 190 " transform="matrix(1, 0, 0, 1, -412, -97)"/>
  <path id="ID0.8365832129493356" fill="none" stroke="#666666" stroke-width="2" stroke-linecap="round" d="M 177.350 190 " transform="matrix(1, 0, 0, 1, -297, -300)"/>
  <path id="ID0.8365832129493356" fill="none" stroke="#666666" stroke-width="2" stroke-linecap="round" d="M 177.350 190 " transform="matrix(1, 0, 0, 1, -106, -49)"/>
  <path id="ID0.8365832129493356" fill="none" stroke="#666666" stroke-width="2" stroke-linecap="round" d="M 177.350 190 " transform="matrix(1, 0, 0, 1, -291, -127)"/>
  <path id="ID0.8365832129493356" fill="none" stroke="#666666" stroke-width="2" stroke-linecap="round" d="M 177.350 190 " transform="matrix(1, 0, 0, 1, -92, -57)"/>
  <path id="ID0.8365832129493356" fill="none" stroke="#666666" stroke-width="2" stroke-linecap="round" d="M 177.350 190 " transform="matrix(1, 0, 0, 1, -303, -47)"/>
  <path id="ID0.8365832129493356" fill="none" stroke="#666666" stroke-width="2" stroke-linecap="round" d="M 177.350 190 " transform="matrix(1, 0, 0, 1, -293, -190)"/>
  <path id="ID0.8365832129493356" fill="none" stroke="#666666" stroke-width="2" stroke-linecap="round" d="M 177.350 190 " transform="matrix(1, 0, 0, 1, -451, -256)"/>
  <path id="ID0.8365832129493356" fill="none" stroke="#666666" stroke-width="2" stroke-linecap="round" d="M 177.350 190 " transform="matrix(1, 0, 0, 1, -412, -97)"/>
  <path id="ID0.8365832129493356" fill="none" stroke="#666666" stroke-width="2" stroke-linecap="round" d="M 177.350 190 " transform="matrix(1, 0, 0, 1, -297, -300)"/>
  <path id="ID0.8365832129493356" fill="none" stroke="#666666" stroke-width="2" stroke-linecap="round" d="M 177.350 190 " transform="matrix(1, 0, 0, 1, -106, -49)"/>
  <path id="ID0.8365832129493356" fill="none" stroke="#666666" stroke-width="2" stroke-linecap="round" d="M 177.350 190 " transform="matrix(1, 0, 0, 1, -291, -127)"/>
  <path id="ID0.8365832129493356" fill="none" stroke="#666666" stroke-width="2" stroke-linecap="round" d="M 177.350 190 " transform="matrix(1, 0, 0, 1, -92, -57)"/>
  <path id="ID0.8365832129493356" fill="none" stroke="#666666" stroke-width="2" stroke-linecap="round" d="M 177.350 190 " transform="matrix(1, 0, 0, 1, -303, -47)"/>
  <g id="ID0.5338938259519637" transform="matrix(1, 0, 0, 1, -32, 0)">
    <path id="ID0.09260875266045332" fill="#000000" stroke="#FFFFFF" stroke-width="2" d="M 264.850 259.700 C 267.723 256.250 276.326 257.195 278.250 261.250 C 282.171 269.530 279.293 279.671 278.100 288.750 C 277.015 296.968 276.524 306.848 270.450 312.550 C 267.023 315.791 258.522 312.915 256.550 308.500 C 253.315 301.226 256.692 292.561 258 284.600 C 259.396 276.115 259.340 266.337 264.850 259.700 Z " transform="matrix(0.17863060534000397, 0.2946675419807434, -0.2946675419807434, 0.17863060534000397, 109.9, -84.45)"/>
    <path id="ID0.8909183316864073" fill="#CC99FF" stroke="#330066" stroke-width="2" d="M 265 298 C 268.587 298 272.159 298.948 274.190 301.517 C 276.515 304.453 278.104 309.157 277.450 313.100 C 276.907 316.345 273.811 318.883 270.950 320.500 C 268.224 322.084 264.852 322.559 261.650 322.150 C 259.392 321.868 257.542 320.487 255.810 318.483 C 253.790 316.118 252 313.311 252 310 C 252 306.689 253.457 303.689 255.810 301.517 C 258.163 299.345 261.413 298 265 298 Z " transform="matrix(0.3161104619503021, 0.13715699315071106, -0.13715699315071106, 0.3161104619503021, 41.1, -92.2)"/>
  </g>
</svg>