<svg version="1.1" width="59" height="86" viewBox="-1 -1 59 86" xmlns="http://www.w3.org/2000/svg" xmlns:xlink="http://www.w3.org/1999/xlink">
  <defs>
    <linearGradient id="grad_1" y2="1">
      <stop offset="0" stop-color="#7F00FF" stop-opacity="1"/>
      <stop offset="1" stop-color="#7F00FF" stop-opacity="0"/>
    </linearGradient>
  </defs>
  <!-- Exported by Scratch - http://scratch.mit.edu/ -->
  <path id="ID0.7356595462188125" fill="url(#grad_1)" stroke="none" d="M 209 154.750 L 266.250 154.750 L 266.250 193.500 L 209 193.500 L 209 154.750 Z " transform="matrix(1, 0, 0, 1, -206, -108)"/>
  <path id="ID0.28877942729741335" fill="#000000" stroke="#7F00FF" stroke-width="2" d="M 298.025 324 C 304.460 324 310.138 324.604 314.514 328.198 C 318.827 331.741 321.611 337.901 321.500 343.500 C 321.426 347.192 317.871 350.560 314.500 352 C 309.420 354.167 303.524 353.802 298 353.850 C 292.456 353.635 286.561 353.742 281.500 351.500 C 278.326 350.095 274.995 346.802 275 343.350 C 275.008 337.855 277.268 331.864 281.536 328.198 C 285.835 324.508 291.590 324 298.025 324 Z " transform="matrix(0.13790710270404816, 0.3157839775085449, -0.3157839775085449, 0.13790710270404816, 102.85, -66.25)"/>
  <path id="ID0.6785501558333635" fill="#000000" stroke="#FFFFFF" stroke-width="2" d="M 201.600 245.800 C 209.309 245.869 219.929 246.926 223.600 253.800 C 232.205 269.938 233.187 289.303 234.600 307.500 C 235.732 322.089 239.073 338.929 231.600 351.500 C 225.956 360.392 211.998 361.463 201.600 361.500 C 192.327 361.526 180.336 359.646 175.600 351.500 C 167.727 337.950 168.913 320.560 169.600 304.800 C 170.350 287.347 171.836 268.799 180.600 253.500 C 184.213 247.019 194.151 245.734 201.600 245.800 Z " transform="matrix(0.3445810079574585, 0.0013453251449391246, -0.0011733032297343016, 0.30052030086517334, -36.75, -33.8)"/>
  <g id="ID0.5338938259519637" transform="matrix(-0.9440857172012329, -0.3297000527381897, 0.3297000527381897, -0.9440857172012329, 13.8, 101.6)">
    <path id="ID0.09260875266045332" fill="#000000" stroke="#FFFFFF" stroke-width="2" d="M 264.850 259.700 C 267.723 256.250 276.326 257.195 278.250 261.250 C 282.171 269.530 279.293 279.671 278.100 288.750 C 277.015 296.968 276.524 306.848 270.450 312.550 C 267.023 315.791 258.522 312.915 256.550 308.500 C 253.315 301.226 256.692 292.561 258 284.600 C 259.396 276.115 259.340 266.337 264.850 259.700 Z " transform="matrix(0.021953603252768517, -0.34388354420661926, -0.34388354420661926, -0.021953603252768517, 107.95, 150.6)"/>
    <path id="ID0.8909183316864073" fill="#CC99FF" stroke="#330066" stroke-width="2" d="M 265 298 C 268.587 298 272.159 298.948 274.190 301.517 C 276.515 304.453 278.104 309.157 277.450 313.100 C 276.907 316.345 273.811 318.883 270.950 320.500 C 268.224 322.084 264.852 322.559 261.650 322.150 C 259.392 321.868 257.542 320.487 255.810 318.483 C 253.790 316.118 252 313.311 252 310 C 252 306.689 253.457 303.689 255.810 301.517 C 258.163 299.345 261.413 298 265 298 Z " transform="matrix(0.21672546863555908, -0.2678954005241394, -0.2678954005241394, -0.21672546863555908, 50.6, 189.35)"/>
  </g>
  <path id="ID0.5196907157078385" fill="none" stroke="#000000" stroke-width="2" stroke-linecap="round" d="M 240 147.300 L 233.350 84 " transform="matrix(-0.48588621616363525, -0.15002082288265228, -0.08918433636426926, 0.28884950280189514, 158.85, 14.5)"/>
  <path id="ID0.5196907157078385" fill="none" stroke="#000000" stroke-width="2" stroke-linecap="round" d="M 240 147.300 L 233.350 84 " transform="matrix(0.48704275488853455, -0.1462222784757614, 0.0869261771440506, 0.28953707218170166, -96.1, 13.5)"/>
  <path id="ID0.5196907157078385" fill="none" stroke="#000000" stroke-width="2" stroke-linecap="round" d="M 240 147.300 L 231.400 74.100 " transform="matrix(0.4993319809436798, 0.09622426331043243, -0.05720338225364685, 0.2968427836894989, -79.9, -43)"/>
  <path id="ID0.7701462963595986" fill="#CC99FF" stroke="#330066" stroke-width="2" d="M 224.675 185.300 C 238.835 185.300 251.666 191.054 260.958 200.350 C 270.249 209.645 276 222.483 276 236.650 C 276 250.817 270.249 263.655 260.958 272.950 C 251.666 282.246 238.835 288 224.675 288 C 210.515 288 197.684 282.246 188.392 272.950 C 179.101 263.655 173.350 250.817 173.350 236.650 C 173.350 222.483 179.101 209.645 188.392 200.350 C 197.684 191.054 210.515 185.300 224.675 185.300 Z " transform="matrix(0.31395891308784485, 0.0012257709167897701, -0.0012257709167897701, 0.31395891308784485, -38.75, -43.3)"/>
  <path id="ID0.5253645898774266" fill="#CC99FF" stroke="#330066" stroke-width="2" d="M 154.025 236 C 160.460 236 166.291 238.465 170.514 242.448 C 174.736 246.430 177.350 251.930 177.350 258 C 177.350 264.070 174.736 269.570 170.514 273.552 C 166.291 277.535 160.460 280 154.025 280 C 147.590 280 141.759 277.535 137.536 273.552 C 133.314 269.570 130.700 264.070 130.700 258 C 130.700 251.930 133.314 246.430 137.536 242.448 C 141.759 238.465 147.590 236 154.025 236 Z " transform="matrix(0.31395891308784485, 0.0012257709167897701, -0.0012257709167897701, 0.31395891308784485, -4.5, -52.1)"/>
  <path id="ID0.28877942729741335" fill="#000000" stroke="#7F00FF" stroke-width="2" d="M 298.025 324 C 304.460 324 310.138 324.604 314.514 328.198 C 318.827 331.741 321.611 337.901 321.500 343.500 C 321.426 347.192 317.871 350.560 314.500 352 C 309.420 354.167 303.524 353.802 298 353.850 C 292.456 353.635 286.561 353.742 281.500 351.500 C 278.326 350.095 274.995 346.802 275 343.350 C 275.008 337.855 277.268 331.864 281.536 328.198 C 285.835 324.508 291.590 324 298.025 324 Z " transform="matrix(-0.13640718162059784, -0.316434770822525, -0.316434770822525, 0.13640718162059784, 171.8, 123.05)"/>
  <path id="ID0.8365832129493356" fill="none" stroke="#666666" stroke-width="2" stroke-linecap="round" d="M 177.350 190 " transform="matrix(1, 0, 0, 1, -588.5, -86)"/>
  <path id="ID0.8365832129493356" fill="none" stroke="#666666" stroke-width="2" stroke-linecap="round" d="M 177.350 190 " transform="matrix(1, 0, 0, 1, -286, -179)"/>
  <path id="ID0.8365832129493356" fill="none" stroke="#666666" stroke-width="2" stroke-linecap="round" d="M 177.350 190 " transform="matrix(1, 0, 0, 1, -444, -245)"/>
  <path id="ID0.8365832129493356" fill="none" stroke="#666666" stroke-width="2" stroke-linecap="round" d="M 177.350 190 " transform="matrix(1, 0, 0, 1, -405, -86)"/>
  <path id="ID0.8365832129493356" fill="none" stroke="#666666" stroke-width="2" stroke-linecap="round" d="M 177.350 190 " transform="matrix(1, 0, 0, 1, -290, -289)"/>
  <path id="ID0.8365832129493356" fill="none" stroke="#666666" stroke-width="2" stroke-linecap="round" d="M 177.350 190 " transform="matrix(1, 0, 0, 1, -99, -38)"/>
  <path id="ID0.8365832129493356" fill="none" stroke="#666666" stroke-width="2" stroke-linecap="round" d="M 177.350 190 " transform="matrix(1, 0, 0, 1, -284, -116)"/>
  <path id="ID0.8365832129493356" fill="none" stroke="#666666" stroke-width="2" stroke-linecap="round" d="M 177.350 190 " transform="matrix(1, 0, 0, 1, -85, -46)"/>
  <path id="ID0.8365832129493356" fill="none" stroke="#666666" stroke-width="2" stroke-linecap="round" d="M 177.350 190 " transform="matrix(1, 0, 0, 1, -296, -36)"/>
  <path id="ID0.8365832129493356" fill="none" stroke="#666666" stroke-width="2" stroke-linecap="round" d="M 177.350 190 " transform="matrix(1, 0, 0, 1, -286, -179)"/>
  <path id="ID0.8365832129493356" fill="none" stroke="#666666" stroke-width="2" stroke-linecap="round" d="M 177.350 190 " transform="matrix(1, 0, 0, 1, -444, -245)"/>
  <path id="ID0.8365832129493356" fill="none" stroke="#666666" stroke-width="2" stroke-linecap="round" d="M 177.350 190 " transform="matrix(1, 0, 0, 1, -405, -86)"/>
  <path id="ID0.8365832129493356" fill="none" stroke="#666666" stroke-width="2" stroke-linecap="round" d="M 177.350 190 " transform="matrix(1, 0, 0, 1, -290, -289)"/>
  <path id="ID0.8365832129493356" fill="none" stroke="#666666" stroke-width="2" stroke-linecap="round" d="M 177.350 190 " transform="matrix(1, 0, 0, 1, -99, -38)"/>
  <path id="ID0.8365832129493356" fill="none" stroke="#666666" stroke-width="2" stroke-linecap="round" d="M 177.350 190 " transform="matrix(1, 0, 0, 1, -284, -116)"/>
  <path id="ID0.8365832129493356" fill="none" stroke="#666666" stroke-width="2" stroke-linecap="round" d="M 177.350 190 " transform="matrix(1, 0, 0, 1, -85, -46)"/>
  <path id="ID0.8365832129493356" fill="none" stroke="#666666" stroke-width="2" stroke-linecap="round" d="M 177.350 190 " transform="matrix(1, 0, 0, 1, -296, -36)"/>
  <g id="ID0.5338938259519637" transform="matrix(0.9440857172012329, -0.3297000825405121, -0.3297000825405121, -0.9440857172012329, 52.1, 101.35)">
    <path id="ID0.09260875266045332" fill="#000000" stroke="#FFFFFF" stroke-width="2" d="M 264.850 259.700 C 267.723 256.250 276.326 257.195 278.250 261.250 C 282.171 269.530 279.293 279.671 278.100 288.750 C 277.015 296.968 276.524 306.848 270.450 312.550 C 267.023 315.791 258.522 312.915 256.550 308.500 C 253.315 301.226 256.692 292.561 258 284.600 C 259.396 276.115 259.340 266.337 264.850 259.700 Z " transform="matrix(0.021953603252768517, -0.34388354420661926, -0.34388354420661926, -0.021953603252768517, 107.95, 150.6)"/>
    <path id="ID0.8909183316864073" fill="#CC99FF" stroke="#330066" stroke-width="2" d="M 265 298 C 268.587 298 272.159 298.948 274.190 301.517 C 276.515 304.453 278.104 309.157 277.450 313.100 C 276.907 316.345 273.811 318.883 270.950 320.500 C 268.224 322.084 264.852 322.559 261.650 322.150 C 259.392 321.868 257.542 320.487 255.810 318.483 C 253.790 316.118 252 313.311 252 310 C 252 306.689 253.457 303.689 255.810 301.517 C 258.163 299.345 261.413 298 265 298 Z " transform="matrix(0.21672546863555908, -0.2678954005241394, -0.2678954005241394, -0.21672546863555908, 50.6, 189.35)"/>
  </g>
</svg>