<svg version="1.1" width="80" height="83" viewBox="-1 -1 80 83" xmlns="http://www.w3.org/2000/svg" xmlns:xlink="http://www.w3.org/1999/xlink">
  <!-- Exported by Scratch - http://scratch.mit.edu/ -->
  <path id="ID0.8365832129493356" fill="none" stroke="#666666" stroke-width="2" stroke-linecap="round" d="M 177.350 190 " transform="matrix(1, 0, 0, 1, -458.5, -102)"/>
  <path id="ID0.8365832129493356" fill="none" stroke="#666666" stroke-width="2" stroke-linecap="round" d="M 177.350 190 " transform="matrix(1, 0, 0, 1, -618.5, -18)"/>
  <path id="ID0.8365832129493356" fill="none" stroke="#666666" stroke-width="2" stroke-linecap="round" d="M 177.350 190 " transform="matrix(1, 0, 0, 1, -316, -111)"/>
  <path id="ID0.8365832129493356" fill="none" stroke="#666666" stroke-width="2" stroke-linecap="round" d="M 177.350 190 " transform="matrix(1, 0, 0, 1, -474, -177)"/>
  <path id="ID0.8365832129493356" fill="none" stroke="#666666" stroke-width="2" stroke-linecap="round" d="M 177.350 190 " transform="matrix(1, 0, 0, 1, -435, -18)"/>
  <path id="ID0.8365832129493356" fill="none" stroke="#666666" stroke-width="2" stroke-linecap="round" d="M 177.350 190 " transform="matrix(1, 0, 0, 1, -320, -221)"/>
  <path id="ID0.8365832129493356" fill="none" stroke="#666666" stroke-width="2" stroke-linecap="round" d="M 177.350 190 " transform="matrix(1, 0, 0, 1, -129, 30)"/>
  <path id="ID0.8365832129493356" fill="none" stroke="#666666" stroke-width="2" stroke-linecap="round" d="M 177.350 190 " transform="matrix(1, 0, 0, 1, -314, -48)"/>
  <path id="ID0.8365832129493356" fill="none" stroke="#666666" stroke-width="2" stroke-linecap="round" d="M 177.350 190 " transform="matrix(1, 0, 0, 1, -115, 22)"/>
  <path id="ID0.8365832129493356" fill="none" stroke="#666666" stroke-width="2" stroke-linecap="round" d="M 177.350 190 " transform="matrix(1, 0, 0, 1, -326, 32)"/>
  <path id="ID0.8365832129493356" fill="none" stroke="#666666" stroke-width="2" stroke-linecap="round" d="M 177.350 190 " transform="matrix(1, 0, 0, 1, -288, -197)"/>
  <path id="ID0.8365832129493356" fill="none" stroke="#666666" stroke-width="2" stroke-linecap="round" d="M 177.350 190 " transform="matrix(1, 0, 0, 1, -446, -263)"/>
  <path id="ID0.8365832129493356" fill="none" stroke="#666666" stroke-width="2" stroke-linecap="round" d="M 177.350 190 " transform="matrix(1, 0, 0, 1, -407, -104)"/>
  <path id="ID0.8365832129493356" fill="none" stroke="#666666" stroke-width="2" stroke-linecap="round" d="M 177.350 190 " transform="matrix(1, 0, 0, 1, -292, -307)"/>
  <path id="ID0.8365832129493356" fill="none" stroke="#666666" stroke-width="2" stroke-linecap="round" d="M 177.350 190 " transform="matrix(1, 0, 0, 1, -101, -56)"/>
  <path id="ID0.8365832129493356" fill="none" stroke="#666666" stroke-width="2" stroke-linecap="round" d="M 177.350 190 " transform="matrix(1, 0, 0, 1, -286, -134)"/>
  <g id="ID0.28619488701224327" transform="matrix(0.9102563858032227, 0, 0, 0.9102563858032227, 0.5, -0.15)">
    <g id="ID0.8552954299375415">
      <path id="ID0.41049800580367446" fill="#000000" stroke="#00FF55" stroke-width="2" stroke-linecap="round" d="M 255.750 148.100 L 219 160.500 L 253.500 176 L 290.500 162.500 L 255.750 148.100 Z " transform="matrix(-0.9995275735855103, 0, 0, 1.2151994705200195, 293.4, -178.1)"/>
      <path id="ID0.3551975656300783" fill="#000000" stroke="#00FF55" stroke-width="2" stroke-linecap="round" d="M 218.250 160.900 L 252.750 176.500 L 253 212.700 L 216.250 197.200 L 218.250 160.900 Z " transform="matrix(-0.9995275735855103, 0, 0, 1.2151994705200195, 293.4, -178.1)"/>
      <path id="ID0.22761756414547563" fill="#000000" stroke="#00FF55" stroke-width="2" stroke-linecap="round" d="M 252.750 175.500 L 290.500 162.500 L 290.250 202.700 L 254 212.700 L 252.750 175.500 Z " transform="matrix(-0.9995275735855103, 0, 0, 1.2151994705200195, 293.4, -178.1)"/>
    </g>
    <path id="ID0.9655489576980472" fill="none" stroke="#000000" stroke-width="2" stroke-linecap="round" d="M 211.500 186.250 L 239.750 197.500 " transform="matrix(-0.9995275735855103, 0, 0, 0.9995275735855103, 285.65, -139.5)"/>
    <path id="ID0.8383444133214653" fill="none" stroke="#00FF55" stroke-width="2" stroke-linecap="round" d="M 227.750 160.250 L 226.950 187.750 " transform="matrix(1.5961145162582397, 0, 0, 1.5961145162582397, -348.9, -230.2)"/>
    <path id="ID0.9951706202700734" fill="none" stroke="#00FF55" stroke-width="2" stroke-linecap="round" d="M 236.650 163.350 L 235.850 190.850 " transform="matrix(1.5961145162582397, 0, 0, 1.5961145162582397, -348.9, -230.2)"/>
    <path id="ID0.6341423019766808" fill="none" stroke="#00FF55" stroke-width="2" stroke-linecap="round" d="M 245.250 175 L 265.550 164.450 " transform="matrix(1.5961145162582397, 0, 0, 1.5961145162582397, -348.9, -230.2)"/>
    <path id="ID0.3360525486059487" fill="none" stroke="#00FF55" stroke-width="2" stroke-linecap="round" d="M 244.450 186.650 L 265.550 176.100 " transform="matrix(1.5961145162582397, 0, 0, 1.5961145162582397, -348.9, -230.2)"/>
    <path id="ID0.2048395606689155" fill="none" stroke="#00FF55" stroke-width="2" stroke-linecap="round" d="M 254.700 151.650 L 237.450 162.150 " transform="matrix(1.5961145162582397, 0, 0, 1.5961145162582397, -348.9, -230.2)"/>
    <path id="ID0.009745481889694929" fill="none" stroke="#00FF55" stroke-width="2" stroke-linecap="round" d="M 228 158.850 L 246.100 148.050 " transform="matrix(1.5961145162582397, 0, 0, 1.5961145162582397, -348.9, -230.2)"/>
    <path id="ID0.31273932894691825" fill="none" stroke="#00FF55" stroke-width="2" stroke-linecap="round" d="M 221.950 166.950 L 243.050 173.900 " transform="matrix(1.5961145162582397, 0, 0, 1.5961145162582397, -348.9, -230.2)"/>
    <path id="ID0.39500094344839454" fill="none" stroke="#00FF55" stroke-width="2" stroke-linecap="round" d="M 220.850 176.950 L 243.050 185.250 " transform="matrix(1.5961145162582397, 0, 0, 1.5961145162582397, -348.9, -230.2)"/>
    <path id="ID0.31194655830040574" fill="none" stroke="#00FF55" stroke-width="2" stroke-linecap="round" d="M 251.650 163.600 L 251.950 189.150 " transform="matrix(1.5961145162582397, 0, 0, 1.5961145162582397, -348.9, -230.2)"/>
    <path id="ID0.3169479933567345" fill="none" stroke="#00FF55" stroke-width="2" stroke-linecap="round" d="M 259.700 158.900 L 259.450 185.550 " transform="matrix(1.5961145162582397, 0, 0, 1.5961145162582397, -348.9, -230.2)"/>
    <path id="ID0.5133769060485065" fill="none" stroke="#00FF55" stroke-width="2" stroke-linecap="round" d="M 228.600 153.600 L 250.850 162.200 " transform="matrix(1.5961145162582397, 0, 0, 1.5961145162582397, -348.9, -230.2)"/>
    <path id="ID0.7448801780119538" fill="none" stroke="#00FF55" stroke-width="2" stroke-linecap="round" d="M 236.950 148.350 L 258.350 158.050 " transform="matrix(1.5961145162582397, 0, 0, 1.5961145162582397, -348.9, -230.2)"/>
    <path id="ID0.5875303484499454" fill="none" stroke="#FFFFFF" stroke-width="2" stroke-linecap="round" d="M 212 166.500 L 240.750 179.250 " transform="matrix(-0.9995275735855103, 0, 0, 0.9995275735855103, 285.65, -139.5)"/>
    <path id="ID0.2296458501368761" fill="#FFFFFF" stroke="#FFFFFF" stroke-width="2" stroke-linecap="round" d="M 215.250 168.500 C 214.711 169.595 215.170 170.829 215.250 172 C 215.295 172.664 215.250 173.334 215.250 174 C 215.250 174.666 214.779 175.529 215.250 176 C 215.721 176.471 216.675 176.336 217.250 176 C 217.830 175.662 218.077 174.899 218.250 174.250 C 218.422 173.606 218.250 172.916 218.250 172.250 C 218.250 171.584 218.422 170.894 218.250 170.250 C 218.077 169.601 217.830 168.838 217.250 168.500 C 216.675 168.164 215.748 168.211 215.250 168.500 Z " transform="matrix(-0.9995275735855103, 0, 0, 0.9995275735855103, 286.85, -139.5)"/>
    <path id="ID0.2296458501368761" fill="#FFFFFF" stroke="#FFFFFF" stroke-width="2" stroke-linecap="round" d="M 215.250 168.500 C 214.711 169.595 215.170 170.829 215.250 172 C 215.295 172.664 215.250 173.334 215.250 174 C 215.250 174.666 214.779 175.529 215.250 176 C 215.721 176.471 216.675 176.336 217.250 176 C 217.830 175.662 218.077 174.899 218.250 174.250 C 218.422 173.606 218.250 172.916 218.250 172.250 C 218.250 171.584 218.422 170.894 218.250 170.250 C 218.077 169.601 217.830 168.838 217.250 168.500 C 216.675 168.164 215.748 168.211 215.250 168.500 Z " transform="matrix(-0.9995275735855103, 0, 0, 0.9995275735855103, 267.15, -130.95)"/>
  </g>
  <path id="ID0.8365832129493356" fill="none" stroke="#666666" stroke-width="2" stroke-linecap="round" d="M 177.350 190 " transform="matrix(1, 0, 0, 1, -87, -64)"/>
  <path id="ID0.8365832129493356" fill="none" stroke="#666666" stroke-width="2" stroke-linecap="round" d="M 177.350 190 " transform="matrix(1, 0, 0, 1, -298, -54)"/>
</svg>