<svg version="1.1" width="341" height="239" viewBox="-1 -1 341 239" xmlns="http://www.w3.org/2000/svg" xmlns:xlink="http://www.w3.org/1999/xlink">
  <defs>
    <linearGradient id="grad_1" y2="1">
      <stop offset="0" stop-color="#FFFF00" stop-opacity="0"/>
      <stop offset="1" stop-color="#FFFF00" stop-opacity="1"/>
    </linearGradient>
    <linearGradient id="grad_2" y2="1">
      <stop offset="0" stop-color="#FFFF00" stop-opacity="0"/>
      <stop offset="1" stop-color="#FFFF00" stop-opacity="1"/>
    </linearGradient>
    <linearGradient id="grad_3" x2="1">
      <stop offset="0" stop-color="#FFFF00" stop-opacity="1"/>
      <stop offset="1" stop-color="#FFFF00" stop-opacity="0"/>
    </linearGradient>
    <linearGradient id="grad_4" y2="1">
      <stop offset="0" stop-color="#FFFF00" stop-opacity="1"/>
      <stop offset="1" stop-color="#FFFF00" stop-opacity="0"/>
    </linearGradient>
    <linearGradient id="grad_5" y2="1">
      <stop offset="0" stop-color="#FFFF00" stop-opacity="1"/>
      <stop offset="1" stop-color="#FFFF00" stop-opacity="0"/>
    </linearGradient>
    <linearGradient id="grad_6" y2="1">
      <stop offset="0" stop-color="#FFFF00" stop-opacity="0"/>
      <stop offset="1" stop-color="#FFFF00" stop-opacity="1"/>
    </linearGradient>
    <linearGradient id="grad_7" y2="1">
      <stop offset="0" stop-color="#FFFF00" stop-opacity="0"/>
      <stop offset="1" stop-color="#FFFF00" stop-opacity="1"/>
    </linearGradient>
    <linearGradient id="grad_8" x2="1">
      <stop offset="0" stop-color="#FFFF00" stop-opacity="1"/>
      <stop offset="1" stop-color="#FFFF00" stop-opacity="0"/>
    </linearGradient>
    <linearGradient id="grad_9" y2="1">
      <stop offset="0" stop-color="#FFFF00" stop-opacity="1"/>
      <stop offset="1" stop-color="#FFFF00" stop-opacity="0"/>
    </linearGradient>
    <linearGradient id="grad_10" y2="1">
      <stop offset="0" stop-color="#FFFF00" stop-opacity="1"/>
      <stop offset="1" stop-color="#FFFF00" stop-opacity="0"/>
    </linearGradient>
  </defs>
  <!-- Exported by Scratch - http://scratch.mit.edu/ -->
  <path id="ID0.8365832129493356" fill="none" stroke="#666666" stroke-width="2" stroke-linecap="round" d="M 177.350 190 " transform="matrix(1, 0, 0, 1, -430.5, -94)"/>
  <path id="ID0.8365832129493356" fill="none" stroke="#666666" stroke-width="2" stroke-linecap="round" d="M 177.350 190 " transform="matrix(1, 0, 0, 1, -590.5, -10)"/>
  <path id="ID0.8365832129493356" fill="none" stroke="#666666" stroke-width="2" stroke-linecap="round" d="M 177.350 190 " transform="matrix(1, 0, 0, 1, -288, -103)"/>
  <path id="ID0.8365832129493356" fill="none" stroke="#666666" stroke-width="2" stroke-linecap="round" d="M 177.350 190 " transform="matrix(1, 0, 0, 1, -446, -169)"/>
  <path id="ID0.8365832129493356" fill="none" stroke="#666666" stroke-width="2" stroke-linecap="round" d="M 177.350 190 " transform="matrix(1, 0, 0, 1, -407, -10)"/>
  <path id="ID0.8365832129493356" fill="none" stroke="#666666" stroke-width="2" stroke-linecap="round" d="M 177.350 190 " transform="matrix(1, 0, 0, 1, -292, -213)"/>
  <path id="ID0.8365832129493356" fill="none" stroke="#666666" stroke-width="2" stroke-linecap="round" d="M 177.350 190 " transform="matrix(1, 0, 0, 1, -101, 38)"/>
  <path id="ID0.8365832129493356" fill="none" stroke="#666666" stroke-width="2" stroke-linecap="round" d="M 177.350 190 " transform="matrix(1, 0, 0, 1, -286, -40)"/>
  <path id="ID0.8365832129493356" fill="none" stroke="#666666" stroke-width="2" stroke-linecap="round" d="M 177.350 190 " transform="matrix(1, 0, 0, 1, -87, 30)"/>
  <path id="ID0.8365832129493356" fill="none" stroke="#666666" stroke-width="2" stroke-linecap="round" d="M 177.350 190 " transform="matrix(1, 0, 0, 1, -298, 40)"/>
  <path id="ID0.8365832129493356" fill="none" stroke="#666666" stroke-width="2" stroke-linecap="round" d="M 177.350 190 " transform="matrix(1, 0, 0, 1, -260, -189)"/>
  <path id="ID0.8365832129493356" fill="none" stroke="#666666" stroke-width="2" stroke-linecap="round" d="M 177.350 190 " transform="matrix(1, 0, 0, 1, -418, -255)"/>
  <path id="ID0.8365832129493356" fill="none" stroke="#666666" stroke-width="2" stroke-linecap="round" d="M 177.350 190 " transform="matrix(1, 0, 0, 1, -379, -96)"/>
  <path id="ID0.8365832129493356" fill="none" stroke="#666666" stroke-width="2" stroke-linecap="round" d="M 177.350 190 " transform="matrix(1, 0, 0, 1, -264, -299)"/>
  <path id="ID0.8365832129493356" fill="none" stroke="#666666" stroke-width="2" stroke-linecap="round" d="M 177.350 190 " transform="matrix(1, 0, 0, 1, -73, -48)"/>
  <path id="ID0.8365832129493356" fill="none" stroke="#666666" stroke-width="2" stroke-linecap="round" d="M 177.350 190 " transform="matrix(1, 0, 0, 1, -258, -126)"/>
  <g id="ID0.28619488701224327" transform="matrix(0.9702057838439941, 0.24228225648403168, -0.24228225648403168, 0.9702057838439941, 38.15, 0.25)">
    <g id="ID0.8552954299375415">
      <path id="ID0.41049800580367446" fill="#000000" stroke="#00FF55" stroke-width="2" stroke-linecap="round" d="M 255.750 148.100 L 219 160.500 L 253.500 176 L 290.500 162.500 L 255.750 148.100 Z " transform="matrix(-0.9098263382911682, 0, 0, 1.1061431169509888, 267.55, -162.25)"/>
      <path id="ID0.3551975656300783" fill="#000000" stroke="#00FF55" stroke-width="2" stroke-linecap="round" d="M 218.250 160.900 L 252.750 176.500 L 253 212.700 L 216.250 197.200 L 218.250 160.900 Z " transform="matrix(-0.9098263382911682, 0, 0, 1.1061431169509888, 267.55, -162.25)"/>
      <path id="ID0.22761756414547563" fill="#000000" stroke="#00FF55" stroke-width="2" stroke-linecap="round" d="M 252.750 175.500 L 290.500 162.500 L 290.250 202.700 L 254 212.700 L 252.750 175.500 Z " transform="matrix(-0.9098263382911682, 0, 0, 1.1061431169509888, 267.55, -162.25)"/>
    </g>
    <path id="ID0.9655489576980472" fill="none" stroke="#000000" stroke-width="2" stroke-linecap="round" d="M 211.500 186.250 L 239.750 197.500 " transform="matrix(-0.9098263382911682, 0, 0, 0.9098263382911682, 260.5, -127.1)"/>
    <path id="ID0.8383444133214653" fill="none" stroke="#00FF55" stroke-width="2" stroke-linecap="round" d="M 227.750 160.250 L 226.950 187.750 " transform="matrix(1.4528734683990479, 0, 0, 1.4528734683990479, -317.05, -209.65)"/>
    <path id="ID0.9951706202700734" fill="none" stroke="#00FF55" stroke-width="2" stroke-linecap="round" d="M 236.650 163.350 L 235.850 190.850 " transform="matrix(1.4528734683990479, 0, 0, 1.4528734683990479, -317.05, -209.65)"/>
    <path id="ID0.6341423019766808" fill="none" stroke="#00FF55" stroke-width="2" stroke-linecap="round" d="M 245.250 175 L 265.550 164.450 " transform="matrix(1.4528734683990479, 0, 0, 1.4528734683990479, -317.05, -209.65)"/>
    <path id="ID0.3360525486059487" fill="none" stroke="#00FF55" stroke-width="2" stroke-linecap="round" d="M 244.450 186.650 L 265.550 176.100 " transform="matrix(1.4528734683990479, 0, 0, 1.4528734683990479, -317.05, -209.65)"/>
    <path id="ID0.2048395606689155" fill="none" stroke="#00FF55" stroke-width="2" stroke-linecap="round" d="M 254.700 151.650 L 237.450 162.150 " transform="matrix(1.4528734683990479, 0, 0, 1.4528734683990479, -317.05, -209.65)"/>
    <path id="ID0.009745481889694929" fill="none" stroke="#00FF55" stroke-width="2" stroke-linecap="round" d="M 228 158.850 L 246.100 148.050 " transform="matrix(1.4528734683990479, 0, 0, 1.4528734683990479, -317.05, -209.65)"/>
    <path id="ID0.31273932894691825" fill="none" stroke="#00FF55" stroke-width="2" stroke-linecap="round" d="M 221.950 166.950 L 243.050 173.900 " transform="matrix(1.4528734683990479, 0, 0, 1.4528734683990479, -317.05, -209.65)"/>
    <path id="ID0.39500094344839454" fill="none" stroke="#00FF55" stroke-width="2" stroke-linecap="round" d="M 220.850 176.950 L 243.050 185.250 " transform="matrix(1.4528734683990479, 0, 0, 1.4528734683990479, -317.05, -209.65)"/>
    <path id="ID0.31194655830040574" fill="none" stroke="#00FF55" stroke-width="2" stroke-linecap="round" d="M 251.650 163.600 L 251.950 189.150 " transform="matrix(1.4528734683990479, 0, 0, 1.4528734683990479, -317.05, -209.65)"/>
    <path id="ID0.3169479933567345" fill="none" stroke="#00FF55" stroke-width="2" stroke-linecap="round" d="M 259.700 158.900 L 259.450 185.550 " transform="matrix(1.4528734683990479, 0, 0, 1.4528734683990479, -317.05, -209.65)"/>
    <path id="ID0.5133769060485065" fill="none" stroke="#00FF55" stroke-width="2" stroke-linecap="round" d="M 228.600 153.600 L 250.850 162.200 " transform="matrix(1.4528734683990479, 0, 0, 1.4528734683990479, -317.05, -209.65)"/>
    <path id="ID0.7448801780119538" fill="none" stroke="#00FF55" stroke-width="2" stroke-linecap="round" d="M 236.950 148.350 L 258.350 158.050 " transform="matrix(1.4528734683990479, 0, 0, 1.4528734683990479, -317.05, -209.65)"/>
    <path id="ID0.5875303484499454" fill="none" stroke="#FFFFFF" stroke-width="2" stroke-linecap="round" d="M 212 166.500 L 240.750 179.250 " transform="matrix(-0.9098263382911682, 0, 0, 0.9098263382911682, 260.5, -127.1)"/>
    <path id="ID0.2296458501368761" fill="#FFFFFF" stroke="#FFFFFF" stroke-width="2" stroke-linecap="round" d="M 215.250 168.500 C 214.711 169.595 215.170 170.829 215.250 172 C 215.295 172.664 215.250 173.334 215.250 174 C 215.250 174.666 214.779 175.529 215.250 176 C 215.721 176.471 216.675 176.336 217.250 176 C 217.830 175.662 218.077 174.899 218.250 174.250 C 218.422 173.606 218.250 172.916 218.250 172.250 C 218.250 171.584 218.422 170.894 218.250 170.250 C 218.077 169.601 217.830 168.838 217.250 168.500 C 216.675 168.164 215.748 168.211 215.250 168.500 Z " transform="matrix(-0.9098263382911682, 0, 0, 0.9098263382911682, 261.6, -127.1)"/>
    <path id="ID0.2296458501368761" fill="#FFFFFF" stroke="#FFFFFF" stroke-width="2" stroke-linecap="round" d="M 215.250 168.500 C 214.711 169.595 215.170 170.829 215.250 172 C 215.295 172.664 215.250 173.334 215.250 174 C 215.250 174.666 214.779 175.529 215.250 176 C 215.721 176.471 216.675 176.336 217.250 176 C 217.830 175.662 218.077 174.899 218.250 174.250 C 218.422 173.606 218.250 172.916 218.250 172.250 C 218.250 171.584 218.422 170.894 218.250 170.250 C 218.077 169.601 217.830 168.838 217.250 168.500 C 216.675 168.164 215.748 168.211 215.250 168.500 Z " transform="matrix(-0.9098263382911682, 0, 0, 0.9098263382911682, 243.65, -119.3)"/>
  </g>
  <path id="ID0.8365832129493356" fill="none" stroke="#666666" stroke-width="2" stroke-linecap="round" d="M 177.350 190 " transform="matrix(1, 0, 0, 1, -59, -56)"/>
  <path id="ID0.8365832129493356" fill="none" stroke="#666666" stroke-width="2" stroke-linecap="round" d="M 177.350 190 " transform="matrix(1, 0, 0, 1, -270, -46)"/>
  <g id="ID0.33098202710971236" transform="matrix(1, 0, 0, 1, -210, -154.5)">
    <path id="ID0.5049529680982232" fill="url(#grad_1)" stroke="none" d="M 320 160 L 327 160 L 327 183 L 320 183 L 320 160 Z "/>
    <path id="ID0.5049529680982232" fill="url(#grad_2)" stroke="none" d="M 320 160 L 327 160 L 327 183 L 320 183 L 320 160 Z " transform="matrix(1, 0, 0, 1, 7, 10.5)"/>
    <path id="ID0.5049529680982232" fill="url(#grad_3)" stroke="none" d="M 320 160 L 327 160 L 327 183 L 320 183 L 320 160 Z " transform="matrix(1, 0, 0, 1, 13, 28)"/>
    <path id="ID0.5049529680982232" fill="url(#grad_4)" stroke="none" d="M 320 160 L 327 160 L 327 183 L 320 183 L 320 160 Z " transform="matrix(1, 0, 0, 1, 7, 44)"/>
    <path id="ID0.5049529680982232" fill="url(#grad_5)" stroke="none" d="M 320 160 L 327 160 L 327 183 L 320 183 L 320 160 Z " transform="matrix(1, 0, 0, 1, 0, 55)"/>
  </g>
  <g id="ID0.33098202710971236" transform="matrix(-1, 0, 0, 1, 340, -155.5)">
    <path id="ID0.5049529680982232" fill="url(#grad_6)" stroke="none" d="M 320 160 L 327 160 L 327 183 L 320 183 L 320 160 Z "/>
    <path id="ID0.5049529680982232" fill="url(#grad_7)" stroke="none" d="M 320 160 L 327 160 L 327 183 L 320 183 L 320 160 Z " transform="matrix(1, 0, 0, 1, 7, 10.5)"/>
    <path id="ID0.5049529680982232" fill="url(#grad_8)" stroke="none" d="M 320 160 L 327 160 L 327 183 L 320 183 L 320 160 Z " transform="matrix(1, 0, 0, 1, 13, 28)"/>
    <path id="ID0.5049529680982232" fill="url(#grad_9)" stroke="none" d="M 320 160 L 327 160 L 327 183 L 320 183 L 320 160 Z " transform="matrix(1, 0, 0, 1, 7, 44)"/>
    <path id="ID0.5049529680982232" fill="url(#grad_10)" stroke="none" d="M 320 160 L 327 160 L 327 183 L 320 183 L 320 160 Z " transform="matrix(1, 0, 0, 1, 0, 55)"/>
  </g>
</svg>