<svg version="1.1" width="137" height="89" viewBox="-1 -1 137 89" xmlns="http://www.w3.org/2000/svg" xmlns:xlink="http://www.w3.org/1999/xlink">
  <defs>
    <linearGradient id="grad_1" y2="1">
      <stop offset="0" stop-color="#FFFF00" stop-opacity="1"/>
      <stop offset="1" stop-color="#FFFF00" stop-opacity="0"/>
    </linearGradient>
    <linearGradient id="grad_2" y2="1">
      <stop offset="0" stop-color="#FF00BF" stop-opacity="1"/>
      <stop offset="1" stop-color="#FF00BF" stop-opacity="0"/>
    </linearGradient>
    <linearGradient id="grad_3" y2="1">
      <stop offset="0" stop-color="#00CCCC" stop-opacity="1"/>
      <stop offset="1" stop-color="#00CCCC" stop-opacity="0"/>
    </linearGradient>
    <linearGradient id="grad_4" y2="1">
      <stop offset="0" stop-color="#FFFF00" stop-opacity="1"/>
      <stop offset="1" stop-color="#FFFF00" stop-opacity="0"/>
    </linearGradient>
    <linearGradient id="grad_5" y2="1">
      <stop offset="0" stop-color="#FFFF00" stop-opacity="1"/>
      <stop offset="1" stop-color="#FFFF00" stop-opacity="0"/>
    </linearGradient>
    <linearGradient id="grad_6" y2="1">
      <stop offset="0" stop-color="#FFFF00" stop-opacity="1"/>
      <stop offset="1" stop-color="#FFFF00" stop-opacity="0"/>
    </linearGradient>
    <linearGradient id="grad_7" y2="1">
      <stop offset="0" stop-color="#FFFF00" stop-opacity="1"/>
      <stop offset="1" stop-color="#FFFF00" stop-opacity="0"/>
    </linearGradient>
    <linearGradient id="grad_8" y2="1">
      <stop offset="0" stop-color="#FFFF00" stop-opacity="1"/>
      <stop offset="1" stop-color="#FFFF00" stop-opacity="0"/>
    </linearGradient>
    <linearGradient id="grad_9" y2="1">
      <stop offset="0" stop-color="#00CCCC" stop-opacity="1"/>
      <stop offset="1" stop-color="#00CCCC" stop-opacity="0"/>
    </linearGradient>
    <linearGradient id="grad_10" y2="1">
      <stop offset="0" stop-color="#00CCCC" stop-opacity="1"/>
      <stop offset="1" stop-color="#00CCCC" stop-opacity="0"/>
    </linearGradient>
    <linearGradient id="grad_11" y2="1">
      <stop offset="0" stop-color="#00CCCC" stop-opacity="1"/>
      <stop offset="1" stop-color="#00CCCC" stop-opacity="0"/>
    </linearGradient>
    <linearGradient id="grad_12" y2="1">
      <stop offset="0" stop-color="#FF00BF" stop-opacity="1"/>
      <stop offset="1" stop-color="#FF00BF" stop-opacity="0"/>
    </linearGradient>
    <linearGradient id="grad_13" y2="1">
      <stop offset="0" stop-color="#FF00BF" stop-opacity="1"/>
      <stop offset="1" stop-color="#FF00BF" stop-opacity="0"/>
    </linearGradient>
    <linearGradient id="grad_14" y2="1">
      <stop offset="0" stop-color="#FF00BF" stop-opacity="1"/>
      <stop offset="1" stop-color="#FF00BF" stop-opacity="0"/>
    </linearGradient>
    <linearGradient id="grad_15" y2="1">
      <stop offset="0" stop-color="#FF00BF" stop-opacity="1"/>
      <stop offset="1" stop-color="#FF00BF" stop-opacity="0"/>
    </linearGradient>
    <linearGradient id="grad_16" y2="1">
      <stop offset="0" stop-color="#FF00BF" stop-opacity="1"/>
      <stop offset="1" stop-color="#FF00BF" stop-opacity="0"/>
    </linearGradient>
    <linearGradient id="grad_17" y2="1">
      <stop offset="0" stop-color="#FF00BF" stop-opacity="1"/>
      <stop offset="1" stop-color="#FF00BF" stop-opacity="0"/>
    </linearGradient>
  </defs>
  <!-- Exported by Scratch - http://scratch.mit.edu/ -->
  <path id="ID0.8365832129493356" fill="none" stroke="#666666" stroke-width="2" stroke-linecap="round" d="M 177.350 190 " transform="matrix(1, 0, 0, 1, -453.5, -101)"/>
  <path id="ID0.8365832129493356" fill="none" stroke="#666666" stroke-width="2" stroke-linecap="round" d="M 177.350 190 " transform="matrix(1, 0, 0, 1, -613.5, -17)"/>
  <path id="ID0.8365832129493356" fill="none" stroke="#666666" stroke-width="2" stroke-linecap="round" d="M 177.350 190 " transform="matrix(1, 0, 0, 1, -311, -110)"/>
  <path id="ID0.8365832129493356" fill="none" stroke="#666666" stroke-width="2" stroke-linecap="round" d="M 177.350 190 " transform="matrix(1, 0, 0, 1, -469, -176)"/>
  <path id="ID0.8365832129493356" fill="none" stroke="#666666" stroke-width="2" stroke-linecap="round" d="M 177.350 190 " transform="matrix(1, 0, 0, 1, -430, -17)"/>
  <path id="ID0.8365832129493356" fill="none" stroke="#666666" stroke-width="2" stroke-linecap="round" d="M 177.350 190 " transform="matrix(1, 0, 0, 1, -315, -220)"/>
  <path id="ID0.8365832129493356" fill="none" stroke="#666666" stroke-width="2" stroke-linecap="round" d="M 177.350 190 " transform="matrix(1, 0, 0, 1, -124, 31)"/>
  <path id="ID0.8365832129493356" fill="none" stroke="#666666" stroke-width="2" stroke-linecap="round" d="M 177.350 190 " transform="matrix(1, 0, 0, 1, -309, -47)"/>
  <path id="ID0.8365832129493356" fill="none" stroke="#666666" stroke-width="2" stroke-linecap="round" d="M 177.350 190 " transform="matrix(1, 0, 0, 1, -110, 23)"/>
  <path id="ID0.8365832129493356" fill="none" stroke="#666666" stroke-width="2" stroke-linecap="round" d="M 177.350 190 " transform="matrix(1, 0, 0, 1, -321, 33)"/>
  <path id="ID0.8365832129493356" fill="none" stroke="#666666" stroke-width="2" stroke-linecap="round" d="M 177.350 190 " transform="matrix(1, 0, 0, 1, -283, -196)"/>
  <path id="ID0.8365832129493356" fill="none" stroke="#666666" stroke-width="2" stroke-linecap="round" d="M 177.350 190 " transform="matrix(1, 0, 0, 1, -441, -262)"/>
  <path id="ID0.8365832129493356" fill="none" stroke="#666666" stroke-width="2" stroke-linecap="round" d="M 177.350 190 " transform="matrix(1, 0, 0, 1, -402, -103)"/>
  <path id="ID0.8365832129493356" fill="none" stroke="#666666" stroke-width="2" stroke-linecap="round" d="M 177.350 190 " transform="matrix(1, 0, 0, 1, -287, -306)"/>
  <path id="ID0.8365832129493356" fill="none" stroke="#666666" stroke-width="2" stroke-linecap="round" d="M 177.350 190 " transform="matrix(1, 0, 0, 1, -96, -55)"/>
  <path id="ID0.8365832129493356" fill="none" stroke="#666666" stroke-width="2" stroke-linecap="round" d="M 177.350 190 " transform="matrix(1, 0, 0, 1, -281, -133)"/>
  <g id="ID0.28619488701224327" transform="matrix(0.9898583889007568, -0.14205774664878845, 0.14205774664878845, 0.9898583889007568, 0, 10.55)">
    <g id="ID0.8552954299375415">
      <path id="ID0.41049800580367446" fill="#000000" stroke="#00FF55" stroke-width="2" stroke-linecap="round" d="M 255.750 148.100 L 219 160.500 L 253.500 176 L 290.500 162.500 L 255.750 148.100 Z " transform="matrix(-0.9098263382911682, 0, 0, 1.1061431169509888, 267.55, -162.25)"/>
      <path id="ID0.3551975656300783" fill="#000000" stroke="#00FF55" stroke-width="2" stroke-linecap="round" d="M 218.250 160.900 L 252.750 176.500 L 253 212.700 L 216.250 197.200 L 218.250 160.900 Z " transform="matrix(-0.9098263382911682, 0, 0, 1.1061431169509888, 267.55, -162.25)"/>
      <path id="ID0.22761756414547563" fill="#000000" stroke="#00FF55" stroke-width="2" stroke-linecap="round" d="M 252.750 175.500 L 290.500 162.500 L 290.250 202.700 L 254 212.700 L 252.750 175.500 Z " transform="matrix(-0.9098263382911682, 0, 0, 1.1061431169509888, 267.55, -162.25)"/>
    </g>
    <path id="ID0.9655489576980472" fill="none" stroke="#000000" stroke-width="2" stroke-linecap="round" d="M 211.500 186.250 L 239.750 197.500 " transform="matrix(-0.9098263382911682, 0, 0, 0.9098263382911682, 260.5, -127.1)"/>
    <path id="ID0.8383444133214653" fill="none" stroke="#00FF55" stroke-width="2" stroke-linecap="round" d="M 227.750 160.250 L 226.950 187.750 " transform="matrix(1.4528734683990479, 0, 0, 1.4528734683990479, -317.05, -209.65)"/>
    <path id="ID0.9951706202700734" fill="none" stroke="#00FF55" stroke-width="2" stroke-linecap="round" d="M 236.650 163.350 L 235.850 190.850 " transform="matrix(1.4528734683990479, 0, 0, 1.4528734683990479, -317.05, -209.65)"/>
    <path id="ID0.6341423019766808" fill="none" stroke="#00FF55" stroke-width="2" stroke-linecap="round" d="M 245.250 175 L 265.550 164.450 " transform="matrix(1.4528734683990479, 0, 0, 1.4528734683990479, -317.05, -209.65)"/>
    <path id="ID0.3360525486059487" fill="none" stroke="#00FF55" stroke-width="2" stroke-linecap="round" d="M 244.450 186.650 L 265.550 176.100 " transform="matrix(1.4528734683990479, 0, 0, 1.4528734683990479, -317.05, -209.65)"/>
    <path id="ID0.2048395606689155" fill="none" stroke="#00FF55" stroke-width="2" stroke-linecap="round" d="M 254.700 151.650 L 237.450 162.150 " transform="matrix(1.4528734683990479, 0, 0, 1.4528734683990479, -317.05, -209.65)"/>
    <path id="ID0.009745481889694929" fill="none" stroke="#00FF55" stroke-width="2" stroke-linecap="round" d="M 228 158.850 L 246.100 148.050 " transform="matrix(1.4528734683990479, 0, 0, 1.4528734683990479, -317.05, -209.65)"/>
    <path id="ID0.31273932894691825" fill="none" stroke="#00FF55" stroke-width="2" stroke-linecap="round" d="M 221.950 166.950 L 243.050 173.900 " transform="matrix(1.4528734683990479, 0, 0, 1.4528734683990479, -317.05, -209.65)"/>
    <path id="ID0.39500094344839454" fill="none" stroke="#00FF55" stroke-width="2" stroke-linecap="round" d="M 220.850 176.950 L 243.050 185.250 " transform="matrix(1.4528734683990479, 0, 0, 1.4528734683990479, -317.05, -209.65)"/>
    <path id="ID0.31194655830040574" fill="none" stroke="#00FF55" stroke-width="2" stroke-linecap="round" d="M 251.650 163.600 L 251.950 189.150 " transform="matrix(1.4528734683990479, 0, 0, 1.4528734683990479, -317.05, -209.65)"/>
    <path id="ID0.3169479933567345" fill="none" stroke="#00FF55" stroke-width="2" stroke-linecap="round" d="M 259.700 158.900 L 259.450 185.550 " transform="matrix(1.4528734683990479, 0, 0, 1.4528734683990479, -317.05, -209.65)"/>
    <path id="ID0.5133769060485065" fill="none" stroke="#00FF55" stroke-width="2" stroke-linecap="round" d="M 228.600 153.600 L 250.850 162.200 " transform="matrix(1.4528734683990479, 0, 0, 1.4528734683990479, -317.05, -209.65)"/>
    <path id="ID0.7448801780119538" fill="none" stroke="#00FF55" stroke-width="2" stroke-linecap="round" d="M 236.950 148.350 L 258.350 158.050 " transform="matrix(1.4528734683990479, 0, 0, 1.4528734683990479, -317.05, -209.65)"/>
    <path id="ID0.5875303484499454" fill="none" stroke="#FFFFFF" stroke-width="2" stroke-linecap="round" d="M 212 166.500 L 240.750 179.250 " transform="matrix(-0.9098263382911682, 0, 0, 0.9098263382911682, 260.5, -127.1)"/>
    <path id="ID0.2296458501368761" fill="#FFFFFF" stroke="#FFFFFF" stroke-width="2" stroke-linecap="round" d="M 215.250 168.500 C 214.711 169.595 215.170 170.829 215.250 172 C 215.295 172.664 215.250 173.334 215.250 174 C 215.250 174.666 214.779 175.529 215.250 176 C 215.721 176.471 216.675 176.336 217.250 176 C 217.830 175.662 218.077 174.899 218.250 174.250 C 218.422 173.606 218.250 172.916 218.250 172.250 C 218.250 171.584 218.422 170.894 218.250 170.250 C 218.077 169.601 217.830 168.838 217.250 168.500 C 216.675 168.164 215.748 168.211 215.250 168.500 Z " transform="matrix(-0.9098263382911682, 0, 0, 0.9098263382911682, 261.6, -127.1)"/>
    <path id="ID0.2296458501368761" fill="#FFFFFF" stroke="#FFFFFF" stroke-width="2" stroke-linecap="round" d="M 215.250 168.500 C 214.711 169.595 215.170 170.829 215.250 172 C 215.295 172.664 215.250 173.334 215.250 174 C 215.250 174.666 214.779 175.529 215.250 176 C 215.721 176.471 216.675 176.336 217.250 176 C 217.830 175.662 218.077 174.899 218.250 174.250 C 218.422 173.606 218.250 172.916 218.250 172.250 C 218.250 171.584 218.422 170.894 218.250 170.250 C 218.077 169.601 217.830 168.838 217.250 168.500 C 216.675 168.164 215.748 168.211 215.250 168.500 Z " transform="matrix(-0.9098263382911682, 0, 0, 0.9098263382911682, 243.65, -119.3)"/>
  </g>
  <path id="ID0.8365832129493356" fill="none" stroke="#666666" stroke-width="2" stroke-linecap="round" d="M 177.350 190 " transform="matrix(1, 0, 0, 1, -82, -63)"/>
  <path id="ID0.8365832129493356" fill="none" stroke="#666666" stroke-width="2" stroke-linecap="round" d="M 177.350 190 " transform="matrix(1, 0, 0, 1, -293, -53)"/>
  <path id="ID0.7825662987306714" fill="url(#grad_1)" stroke="none" d="M 226 221.500 L 250 221.500 L 250 245 L 226 245 L 226 221.500 Z " transform="matrix(0.5252525210380554, 0, 0, 0.5252525210380554, -67.75, -73.05)"/>
  <path id="ID0.7825662987306714" fill="url(#grad_2)" stroke="none" d="M 226 221.500 L 250 221.500 L 250 245 L 226 245 L 226 221.500 Z " transform="matrix(0.5252525210380554, 0, 0, 0.5252525210380554, -59.05, -66.15)"/>
  <path id="ID0.7825662987306714" fill="url(#grad_3)" stroke="none" d="M 226 221.500 L 250 221.500 L 250 245 L 226 245 L 226 221.500 Z " transform="matrix(0.5252525210380554, 0, 0, 0.5252525210380554, -54.35, -72.55)"/>
  <path id="ID0.7825662987306714" fill="url(#grad_4)" stroke="none" d="M 226 221.500 L 250 221.500 L 250 245 L 226 245 L 226 221.500 Z " transform="matrix(0.5252525210380554, 0, 0, 0.5252525210380554, -31.75, -58.05)"/>
  <path id="ID0.7825662987306714" fill="url(#grad_5)" stroke="none" d="M 226 221.500 L 250 221.500 L 250 245 L 226 245 L 226 221.500 Z " transform="matrix(0.5252525210380554, 0, 0, 0.5252525210380554, -20, -77.7)"/>
  <path id="ID0.7825662987306714" fill="url(#grad_6)" stroke="none" d="M 226 221.500 L 250 221.500 L 250 245 L 226 245 L 226 221.500 Z " transform="matrix(0.5252525210380554, 0, 0, 0.5252525210380554, -30.75, -90.05)"/>
  <path id="ID0.7825662987306714" fill="url(#grad_7)" stroke="none" d="M 226 221.500 L 250 221.500 L 250 245 L 226 245 L 226 221.500 Z " transform="matrix(0.5252525210380554, 0, 0, 0.5252525210380554, -43, -83.8)"/>
  <path id="ID0.7825662987306714" fill="url(#grad_8)" stroke="none" d="M 226 221.500 L 250 221.500 L 250 245 L 226 245 L 226 221.500 Z " transform="matrix(0.5252525210380554, 0, 0, 0.5252525210380554, -57.5, -55.8)"/>
  <path id="ID0.7825662987306714" fill="url(#grad_9)" stroke="none" d="M 226 221.500 L 250 221.500 L 250 245 L 226 245 L 226 221.500 Z " transform="matrix(0.5252525210380554, 0, 0, 0.5252525210380554, -44.9, -57.7)"/>
  <path id="ID0.7825662987306714" fill="url(#grad_10)" stroke="none" d="M 226 221.500 L 250 221.500 L 250 245 L 226 245 L 226 221.500 Z " transform="matrix(0.5252525210380554, 0, 0, 0.5252525210380554, -31.9, -81.7)"/>
  <path id="ID0.7825662987306714" fill="url(#grad_11)" stroke="none" d="M 226 221.500 L 250 221.500 L 250 245 L 226 245 L 226 221.500 Z " transform="matrix(0.5252525210380554, 0, 0, 0.5252525210380554, -19.05, -68.8)"/>
  <path id="ID0.7825662987306714" fill="url(#grad_12)" stroke="none" d="M 226 221.500 L 250 221.500 L 250 245 L 226 245 L 226 221.500 Z " transform="matrix(0.5252525210380554, 0, 0, 0.5252525210380554, -42.15, -72.95)"/>
  <path id="ID0.7825662987306714" fill="url(#grad_13)" stroke="none" d="M 226 221.500 L 250 221.500 L 250 245 L 226 245 L 226 221.500 Z " transform="matrix(0.5252525210380554, 0, 0, 0.5252525210380554, -31.3, -67.55)"/>
  <path id="ID0.7825662987306714" fill="url(#grad_14)" stroke="none" d="M 226 221.500 L 250 221.500 L 250 245 L 226 245 L 226 221.500 Z " transform="matrix(0.5252525210380554, 0, 0, 0.5252525210380554, -2.9, -94.35)"/>
  <path id="ID0.7825662987306714" fill="url(#grad_15)" stroke="none" d="M 226 221.500 L 250 221.500 L 250 245 L 226 245 L 226 221.500 Z " transform="matrix(0.5252525210380554, 0, 0, 0.5252525210380554, 5.4, -48.95)"/>
  <path id="ID0.7825662987306714" fill="url(#grad_16)" stroke="none" d="M 226 221.500 L 250 221.500 L 250 245 L 226 245 L 226 221.500 Z " transform="matrix(0.5252525210380554, 0, 0, 0.5252525210380554, -32.8, -107.25)"/>
  <path id="ID0.7825662987306714" fill="url(#grad_17)" stroke="none" d="M 226 221.500 L 250 221.500 L 250 245 L 226 245 L 226 221.500 Z " transform="matrix(0.5252525210380554, 0, 0, 0.5252525210380554, -41.8, -41.3)"/>
</svg>