<svg version="1.1" width="482" height="362" viewBox="-1 -1 482 362" xmlns="http://www.w3.org/2000/svg" xmlns:xlink="http://www.w3.org/1999/xlink">
  <defs>
    <linearGradient id="grad_1" y2="1">
      <stop offset="0" stop-color="#FF9400" stop-opacity="1"/>
      <stop offset="1" stop-color="#003FFF" stop-opacity="1"/>
    </linearGradient>
    <linearGradient id="grad_2" y2="1">
      <stop offset="0" stop-color="#FFF66F" stop-opacity="1"/>
      <stop offset="1" stop-color="#FF7130" stop-opacity="1"/>
    </linearGradient>
    <linearGradient id="grad_3" y2="1">
      <stop offset="0" stop-color="#FFF66F" stop-opacity="1"/>
      <stop offset="1" stop-color="#FF7130" stop-opacity="1"/>
    </linearGradient>
  </defs>
  <!-- Exported by Scratch - http://scratch.mit.edu/ -->
  <path id="ID0.5518922945484519" fill="url(#grad_1)" stroke="none" d="M 0 0 L 480 0 L 480 360 L 0 360 L 0 0 Z "/>
  <g id="ID0.34257877012714744" transform="matrix(1.9864230155944824, 0, 0, 1.9864230155944824, -488.8, -443.35)">
    <text id="ID0.3322549625299871" fill="#FFFF00" x="105.3" y="206.6" text-anchor="start" font-family="Scratch" font-size="22" transform="matrix(1.5135029554367065, 0, 0, 1.5135029554367065, 277.9, 300.7)">SHOWDOWN 2</text>
    <text id="ID0.3322549625299871" fill="#FF0000" x="105.3" y="206.6" text-anchor="start" font-family="Scratch" font-size="22" transform="matrix(1.5135029554367065, 0, 0, 1.5135029554367065, 275.45, 300.45)">SHOWDOWN 2</text>
    <text id="ID0.7350575076416135" fill="#009999" x="239.75" y="306.15" text-anchor="start" font-family="Marker" font-size="22" transform="matrix(1, 0, 0, 1, 285.5, 269.75)">BURRITO MEN</text>
    <text id="ID0.7350575076416135" fill="#00FFFF" x="239.75" y="306.15" text-anchor="start" font-family="Marker" font-size="22" transform="matrix(1, 0, 0, 1, 281.5, 270.25)">BURRITO MEN</text>
    <text id="ID0.3926324429921806" fill="#FFFF99" x="182" y="270.45" text-anchor="start" font-family="Donegal" font-size="22" transform="matrix(0.6104928255081177, 0, 0, 0.6104928255081177, 283.35, 334.65)">ELEMENTAL STRIKE</text>
  </g>
  <text id="ID0.019841174129396677" fill="#000000" x="189.4" y="295.25" text-anchor="start" font-family="Donegal" font-size="22" transform="matrix(2.496025323867798, 0, 0, 2.496025323867798, 290.2, 237.4)">BETA</text>
  <g id="ID0.7504562619142234" transform="matrix(1, 0, 0, 1, 4.6, 303.55)">
    <path id="ID0.32682534772902727" fill="url(#grad_2)" stroke="url(#grad_3)" stroke-width="2" stroke-linecap="round" d="M 261.750 206.750 L 253.750 188.750 L 279.500 190.500 L 256.750 182.750 L 285 176.500 L 257.500 170 L 274.750 161 L 249.750 159 L 238.750 141.500 L 232.250 155.250 L 210.250 149.750 L 214.500 163.500 L 189.250 162 L 211.750 171.250 L 192 178.250 L 212.750 182 L 204.250 191.500 L 234.250 190.500 L 222.250 203.750 L 247.500 195 L 262.250 209 Z " transform="matrix(0.7084398865699768, 0, 0, 0.7084398865699768, -132.85, -98.75)"/>
    <g id="ID0.17276014015078545">
      <path id="ID0.643749819137156" fill="#FFFFFF" stroke="#000000" stroke-width="2" d="M 234.750 143.750 C 236.336 143.750 237.774 144.576 238.815 145.911 C 239.856 147.247 240.500 149.090 240.500 151.125 C 240.500 153.160 239.856 155.003 238.815 156.339 C 237.774 157.674 236.336 158.500 234.750 158.500 C 233.164 158.500 231.726 157.674 230.685 156.339 C 229.644 155.003 229 153.160 229 151.125 C 229 149.090 229.644 147.247 230.685 145.911 C 231.726 144.576 233.164 143.750 234.750 143.750 Z " transform="matrix(0.9293078780174255, 0.36930587887763977, -0.36930587887763977, 0.9293078780174255, -130.85, -209.75)"/>
      <path id="ID0.643749819137156" fill="#FFFFFF" stroke="#000000" stroke-width="2" d="M 234.750 143.750 C 236.336 143.750 237.774 144.576 238.815 145.911 C 239.856 147.247 240.500 149.090 240.500 151.125 C 240.500 153.160 239.856 155.003 238.815 156.339 C 237.774 157.674 236.336 158.500 234.750 158.500 C 233.164 158.500 231.726 157.674 230.685 156.339 C 229.644 155.003 229 153.160 229 151.125 C 229 149.090 229.644 147.247 230.685 145.911 C 231.726 144.576 233.164 143.750 234.750 143.750 Z " transform="matrix(0.9293078780174255, 0.36930587887763977, -0.36930587887763977, 0.9293078780174255, -122.1, -206.35)"/>
      <path id="ID0.7692075585946441" fill="none" stroke="#000000" stroke-width="2" stroke-linecap="round" d="M 233.750 150.250 L 234.050 150.550 " transform="matrix(0.9293078780174255, 0.36930587887763977, -0.36930587887763977, 0.9293078780174255, -129.15, -208.55)"/>
      <path id="ID0.731148752849549" fill="none" stroke="#000000" stroke-width="2" stroke-linecap="round" d="M 242.500 150 L 242.800 150.300 " transform="matrix(0.9293078780174255, 0.36930587887763977, -0.36930587887763977, 0.9293078780174255, -129.15, -208.55)"/>
      <path id="ID0.6631880309432745" fill="none" stroke="#000000" stroke-width="2" stroke-linecap="round" d="M 284.750 132 C 284.750 132 283.293 132.924 282.500 133.250 C 281.865 133.511 281.137 133.495 280.500 133.750 C 279.877 133.999 279.282 134.341 278.750 134.750 C 278.190 135.181 277.400 135.560 277.250 136.250 C 276.949 137.635 277.087 139.144 277.500 140.500 C 277.706 141.176 278.318 141.814 279 142 C 280.285 142.350 281.678 141.835 283 142 C 283.706 142.088 284.321 142.538 285 142.750 C 285.655 142.955 287 143.250 287 143.250 " transform="matrix(0.4208186864852905, 0.16723285615444183, -0.16723285615444183, 0.4208186864852905, -64.55, -75.75)"/>
      <path id="ID0.8207360939122736" fill="none" stroke="#000000" stroke-width="2" d="M 226.750 169 L 256.500 169 L 256.500 169.500 L 226.750 169.500 L 226.750 169 Z " transform="matrix(0.9293078780174255, 0.36930587887763977, -0.36930587887763977, 0.9293078780174255, -133.15, -213.05)"/>
    </g>
  </g>
</svg>