<svg version="1.1" width="57" height="53" viewBox="2 2 57 53" xmlns="http://www.w3.org/2000/svg" xmlns:xlink="http://www.w3.org/1999/xlink">
  <defs>
    <linearGradient id="grad_1" y2="1">
      <stop offset="0" stop-color="#EDE46B" stop-opacity="1"/>
      <stop offset="1" stop-color="#EDE46B" stop-opacity="0"/>
    </linearGradient>
    <linearGradient id="grad_2" y2="1">
      <stop offset="0" stop-color="#EDE46B" stop-opacity="1"/>
      <stop offset="1" stop-color="#EDE46B" stop-opacity="0"/>
    </linearGradient>
    <linearGradient id="grad_3" y2="1">
      <stop offset="0" stop-color="#EDE46B" stop-opacity="1"/>
      <stop offset="1" stop-color="#EDE46B" stop-opacity="0"/>
    </linearGradient>
    <linearGradient id="grad_4" y2="1">
      <stop offset="0" stop-color="#EDE46B" stop-opacity="1"/>
      <stop offset="1" stop-color="#EDE46B" stop-opacity="0"/>
    </linearGradient>
  </defs>
  <!-- Exported by Scratch - http://scratch.mit.edu/ -->
  <path id="ID0.3712550294585526" fill="#C88E6C" stroke="#9D7055" stroke-width="2" d="M 313.675 77.350 C 350.182 77.350 383.264 91.805 407.218 115.157 C 431.172 138.510 446 170.760 446 206.350 C 446 241.940 431.172 274.190 407.218 297.543 C 383.264 320.895 350.182 335.350 313.675 335.350 C 277.168 335.350 244.086 320.895 220.132 297.543 C 196.178 274.190 181.350 241.940 181.350 206.350 C 181.350 170.760 196.178 138.510 220.132 115.157 C 244.086 91.805 277.168 77.350 313.675 77.350 Z " transform="matrix(0.1903620809316635, -0.02986852638423443, 0.02986852638423443, 0.1903620809316635, -35.75, -1.15)"/>
  <path id="ID0.003787892870604992" fill="none" stroke="#9D7055" stroke-width="1" stroke-linecap="round" d="M 223.650 156 C 223.650 156 224.930 156.744 225.300 157.350 C 225.702 158.008 225.758 158.834 225.850 159.600 C 225.943 160.377 226.180 161.240 225.850 161.950 C 225.250 163.240 224.295 164.392 223.200 165.300 C 222.656 165.751 221.854 165.785 221.150 165.850 C 220.402 165.920 219.626 165.890 218.900 165.700 C 218.201 165.517 217.611 165.041 216.950 164.750 C 216.776 164.674 216.400 164.600 216.400 164.600 " transform="matrix(0.9879133105278015, -0.15500731766223907, 0.15500731766223907, 0.9879133105278015, -233.3, -107.95)"/>
  <path id="ID0.2974129873327911" fill="none" stroke="#9D7055" stroke-width="1" stroke-linecap="round" d="M 221.400 166 C 221.400 166 221.406 167.582 221.250 168.350 C 221.169 168.751 220.950 169.125 220.700 169.450 C 220.441 169.786 220.095 170.052 219.750 170.300 C 219.441 170.522 219.113 170.737 218.750 170.850 C 218.350 170.975 217.913 170.930 217.500 171 C 217.130 171.063 216.770 171.183 216.400 171.250 C 216.036 171.316 215.670 171.400 215.300 171.400 C 214.980 171.400 214.350 171.250 214.350 171.250 " transform="matrix(0.9879133105278015, -0.15500731766223907, 0.15500731766223907, 0.9879133105278015, -233.3, -107.95)"/>
  <path id="ID0.4773739781230688" fill="none" stroke="#9D7055" stroke-width="1" stroke-linecap="round" d="M 216.700 171.100 C 216.700 171.100 216.675 171.950 216.550 172.350 C 216.437 172.713 216.205 173.030 216 173.350 C 215.788 173.681 215.556 174.002 215.300 174.300 C 215.039 174.603 214.799 174.953 214.450 175.150 C 214.123 175.335 213.724 175.363 213.350 175.400 C 213.213 175.414 212.950 175.300 212.950 175.300 " transform="matrix(0.9879133105278015, -0.15500731766223907, 0.15500731766223907, 0.9879133105278015, -233.3, -107.95)"/>
  <path id="ID0.13898365525528789" fill="none" stroke="#9D7055" stroke-width="1" stroke-linecap="round" d="M 215.450 173.500 C 215.450 173.500 216.531 173.994 217.100 174.150 C 218.051 174.411 219.036 174.541 220 174.750 C 220.801 174.924 221.593 175.156 222.400 175.300 C 222.811 175.373 223.252 175.527 223.650 175.400 C 224.044 175.275 224.336 174.918 224.600 174.600 C 224.992 174.127 225.300 173.586 225.600 173.050 C 225.768 172.751 225.891 172.426 226 172.100 C 226.109 171.774 226.227 171.442 226.250 171.100 C 226.278 170.683 226.286 170.245 226.150 169.850 C 225.963 169.307 225.651 168.804 225.300 168.350 C 225.076 168.060 224.759 167.848 224.450 167.650 C 224.105 167.429 223.738 167.232 223.350 167.100 C 222.899 166.947 222.419 166.884 221.950 166.800 C 221.586 166.735 221.217 166.691 220.850 166.650 C 220.758 166.640 220.600 166.650 220.600 166.650 " transform="matrix(0.9879133105278015, -0.15500731766223907, 0.15500731766223907, 0.9879133105278015, -233.3, -107.95)"/>
  <path id="ID0.32318311743438244" fill="none" stroke="#9D7055" stroke-width="1" stroke-linecap="round" d="M 225.700 168.050 C 225.700 168.050 226.506 167.637 226.850 167.350 C 227.114 167.130 227.321 166.843 227.500 166.550 C 227.690 166.238 227.885 165.909 227.950 165.550 C 228.038 165.058 227.975 164.549 227.950 164.050 C 227.925 163.532 227.892 163.010 227.800 162.500 C 227.708 161.991 227.594 161.479 227.400 161 C 227.274 160.687 227.064 160.411 226.850 160.150 C 226.678 159.941 226.250 159.600 226.250 159.600 " transform="matrix(0.9879133105278015, -0.15500731766223907, 0.15500731766223907, 0.9879133105278015, -233.3, -107.95)"/>
  <path id="ID0.10128975566476583" fill="none" stroke="#9D7055" stroke-width="1" stroke-linecap="round" d="M 229.050 157.650 C 229.050 157.650 230.815 157.894 231.550 158.350 C 231.881 158.556 231.850 159.073 231.950 159.450 C 232.134 160.141 232.400 160.835 232.400 161.550 C 232.400 161.946 232.251 162.393 231.950 162.650 C 231.401 163.119 230.668 163.326 230 163.600 C 229.649 163.744 229.272 163.824 228.900 163.900 C 228.538 163.974 228.166 164 227.800 164.050 C 227.708 164.062 227.800 164.050 227.800 164.050 " transform="matrix(0.9879133105278015, -0.15500731766223907, 0.15500731766223907, 0.9879133105278015, -233.3, -107.95)"/>
  <path id="ID0.4835340534336865" fill="none" stroke="#9D7055" stroke-width="1" stroke-linecap="round" d="M 230.450 163.600 C 230.450 163.600 231.959 166.957 232.250 168.750 C 232.323 169.198 231.659 169.191 231.400 169.450 C 231.141 169.709 230.987 170.072 230.700 170.300 C 230.327 170.597 229.896 170.831 229.450 171 C 229.053 171.151 228.622 171.205 228.200 171.250 C 227.836 171.289 227.466 171.250 227.100 171.250 C 226.734 171.250 226.366 171.250 226 171.250 C 225.908 171.250 225.850 171.250 225.850 171.250 " transform="matrix(0.9879133105278015, -0.15500731766223907, 0.15500731766223907, 0.9879133105278015, -233.3, -107.95)"/>
  <path id="ID0.47267388505861163" fill="none" stroke="#9D7055" stroke-width="1" stroke-linecap="round" d="M 228.900 171.100 C 228.900 171.100 229.969 172.636 230.300 173.500 C 230.449 173.889 230.419 174.351 230.300 174.750 C 230.176 175.166 229.861 175.503 229.600 175.850 C 229.310 176.237 229.034 176.655 228.650 176.950 C 228.366 177.169 228.002 177.283 227.650 177.350 C 227.290 177.419 226.916 177.363 226.550 177.350 C 226 177.330 225.445 177.325 224.900 177.250 C 224.476 177.192 224.019 177.167 223.650 176.950 C 223.334 176.764 223.159 176.401 222.950 176.100 C 222.741 175.800 222.624 175.439 222.400 175.150 C 222.332 175.062 222.100 175 222.100 175 " transform="matrix(0.9879133105278015, -0.15500731766223907, 0.15500731766223907, 0.9879133105278015, -233.3, -107.95)"/>
  <path id="ID0.5115650147199631" fill="none" stroke="#9D7055" stroke-width="1" stroke-linecap="round" d="M 217.950 174.450 C 217.950 174.450 217.299 175.132 217.100 175.550 C 216.955 175.854 216.899 176.217 216.950 176.550 C 217.003 176.896 217.240 177.189 217.400 177.500 C 217.573 177.838 217.686 178.227 217.950 178.500 C 218.204 178.763 218.588 178.859 218.900 179.050 C 219.188 179.226 219.435 179.480 219.750 179.600 C 220.147 179.751 220.579 179.904 221 179.850 C 221.406 179.798 221.772 179.546 222.100 179.300 C 222.514 178.989 222.858 178.589 223.200 178.200 C 223.459 177.905 223.688 177.581 223.900 177.250 C 224.072 176.980 224.350 176.400 224.350 176.400 " transform="matrix(0.9879133105278015, -0.15500731766223907, 0.15500731766223907, 0.9879133105278015, -233.3, -107.95)"/>
  <path id="ID0.304512542206794" fill="none" stroke="#9D7055" stroke-width="1" stroke-linecap="round" d="M 217.500 177.350 C 217.500 177.350 216.912 177.979 216.550 178.200 C 216.217 178.403 215.828 178.505 215.450 178.600 C 215.091 178.690 214.718 178.714 214.350 178.750 C 214.201 178.764 213.900 178.750 213.900 178.750 " transform="matrix(0.9879133105278015, -0.15500731766223907, 0.15500731766223907, 0.9879133105278015, -233.3, -107.95)"/>
  <path id="ID0.3583157015964389" fill="none" stroke="#9D7055" stroke-width="1" stroke-linecap="round" d="M 221.700 179.750 C 221.700 179.750 221.653 180.660 221.550 181.100 C 221.468 181.449 221.355 181.805 221.150 182.100 C 220.928 182.419 220.623 182.684 220.300 182.900 C 219.916 183.156 219.499 183.392 219.050 183.500 C 218.645 183.597 218.202 183.610 217.800 183.500 C 217.439 183.402 217.151 183.122 216.850 182.900 C 216.775 182.845 216.850 182.800 216.850 182.800 " transform="matrix(0.9879133105278015, -0.15500731766223907, 0.15500731766223907, 0.9879133105278015, -233.3, -107.95)"/>
  <path id="ID0.6706323428079486" fill="none" stroke="#9D7055" stroke-width="1" stroke-linecap="round" d="M 214.200 180.550 C 214.200 180.550 215.063 180.539 215.450 180.700 C 215.777 180.836 216.013 181.137 216.250 181.400 C 216.482 181.657 216.733 181.924 216.850 182.250 C 216.974 182.596 216.933 182.983 216.950 183.350 C 216.967 183.716 217.020 184.090 216.950 184.450 C 216.884 184.787 216.814 185.180 216.550 185.400 C 216.258 185.643 215.816 185.600 215.450 185.700 C 215.358 185.725 215.450 185.700 215.450 185.700 " transform="matrix(0.9879133105278015, -0.15500731766223907, 0.15500731766223907, 0.9879133105278015, -233.3, -107.95)"/>
  <path id="ID0.01426594564691186" fill="none" stroke="#9D7055" stroke-width="1" stroke-linecap="round" d="M 219.900 183.200 C 219.900 183.200 220.762 183.513 221.150 183.750 C 221.452 183.934 221.738 184.167 221.950 184.450 C 222.196 184.778 222.396 185.154 222.500 185.550 C 222.584 185.872 222.516 186.217 222.500 186.550 C 222.483 186.917 222.516 187.301 222.400 187.650 C 222.293 187.970 222.014 188.205 221.850 188.500 C 221.680 188.806 221.543 189.130 221.400 189.450 C 221.260 189.763 221.196 190.118 221 190.400 C 220.772 190.729 220.442 190.976 220.150 191.250 C 219.892 191.492 219.676 191.813 219.350 191.950 C 219.247 191.993 219.200 191.650 219.200 191.650 " transform="matrix(0.9879133105278015, -0.15500731766223907, 0.15500731766223907, 0.9879133105278015, -233.3, -107.95)"/>
  <path id="ID0.27600136678665876" fill="none" stroke="#9D7055" stroke-width="1" stroke-linecap="round" d="M 221.400 189.850 C 221.400 189.850 223.932 190.069 225.150 190.400 C 225.504 190.496 225.754 190.828 226 191.100 C 226.226 191.350 226.415 191.641 226.550 191.950 C 226.702 192.298 226.782 192.676 226.850 193.050 C 226.916 193.412 226.907 193.785 226.950 194.150 C 226.990 194.484 227.076 194.814 227.100 195.150 C 227.126 195.515 227.130 195.885 227.100 196.250 C 227.080 196.488 226.950 196.950 226.950 196.950 " transform="matrix(0.9879133105278015, -0.15500731766223907, 0.15500731766223907, 0.9879133105278015, -233.3, -107.95)"/>
  <path id="ID0.0588847897015512" fill="none" stroke="#9D7055" stroke-width="1" stroke-linecap="round" d="M 227.250 195 C 227.250 195 227.898 193.923 228.350 193.500 C 228.698 193.174 229.164 192.994 229.600 192.800 C 229.918 192.659 230.255 192.456 230.600 192.500 C 230.963 192.546 231.245 192.849 231.550 193.050 C 231.878 193.266 232.214 193.481 232.500 193.750 C 232.767 194.001 233.053 194.264 233.200 194.600 C 233.348 194.939 233.366 195.331 233.350 195.700 C 233.332 196.124 233.309 196.580 233.100 196.950 C 232.920 197.269 232.593 197.520 232.250 197.650 C 231.939 197.768 231.582 197.674 231.250 197.650 C 230.881 197.624 230.520 197.500 230.150 197.500 C 229.830 197.500 229.200 197.650 229.200 197.650 " transform="matrix(0.9879133105278015, -0.15500731766223907, 0.15500731766223907, 0.9879133105278015, -233.3, -107.95)"/>
  <path id="ID0.2980293510481715" fill="none" stroke="#9D7055" stroke-width="1" stroke-linecap="round" d="M 232.650 196.950 C 232.650 196.950 233.419 197.063 233.750 197.250 C 234.089 197.441 234.391 197.722 234.600 198.050 C 234.787 198.343 234.783 198.723 234.900 199.050 C 235.016 199.373 235.183 199.677 235.300 200 C 235.329 200.081 235.300 200.150 235.300 200.150 " transform="matrix(0.9879133105278015, -0.15500731766223907, 0.15500731766223907, 0.9879133105278015, -233.3, -107.95)"/>
  <path id="ID0.3596569178625941" fill="none" stroke="#9D7055" stroke-width="1" stroke-linecap="round" d="M 234.750 198.200 C 234.750 198.200 233.642 198.334 233.500 198.050 C 233.367 197.784 233.960 197.411 234.200 197.100 C 234.460 196.762 234.687 196.389 235 196.100 C 235.343 195.784 235.749 195.539 236.150 195.300 C 236.451 195.121 236.779 194.990 237.100 194.850 C 237.429 194.707 237.755 194.547 238.100 194.450 C 238.591 194.313 239.097 194.227 239.600 194.150 C 239.964 194.094 240.333 194.067 240.700 194.050 C 241.033 194.034 241.380 193.960 241.700 194.050 C 242.052 194.149 242.358 194.381 242.650 194.600 C 242.961 194.833 243.249 195.104 243.500 195.400 C 243.718 195.657 243.909 195.944 244.050 196.250 C 244.195 196.566 244.301 196.906 244.350 197.250 C 244.402 197.613 244.399 197.987 244.350 198.350 C 244.299 198.726 244.202 199.102 244.050 199.450 C 243.915 199.759 243.700 200.029 243.500 200.300 C 243.450 200.368 243.350 200.400 243.350 200.400 " transform="matrix(0.9879133105278015, -0.15500731766223907, 0.15500731766223907, 0.9879133105278015, -233.3, -107.95)"/>
  <path id="ID0.867799093015492" fill="none" stroke="#9D7055" stroke-width="1" stroke-linecap="round" d="M 244.600 196.650 C 244.600 196.650 245.650 194.604 246.400 193.750 C 246.657 193.457 247.111 193.322 247.500 193.350 C 247.879 193.377 248.197 193.671 248.500 193.900 C 248.819 194.142 249.153 194.401 249.350 194.750 C 249.535 195.077 249.558 195.477 249.600 195.850 C 249.641 196.214 249.600 196.584 249.600 196.950 C 249.600 197.316 249.600 197.684 249.600 198.050 C 249.600 198.283 249.600 198.750 249.600 198.750 " transform="matrix(0.9879133105278015, -0.15500731766223907, 0.15500731766223907, 0.9879133105278015, -233.3, -107.95)"/>
  <path id="ID0.5447893356904387" fill="none" stroke="#9D7055" stroke-width="1" stroke-linecap="round" d="M 249.600 196.550 C 249.600 196.550 249.930 195.600 250.150 195.150 C 250.298 194.847 250.496 194.569 250.700 194.300 C 250.914 194.018 251.080 193.651 251.400 193.500 C 251.701 193.358 252.067 193.484 252.400 193.500 C 252.767 193.517 253.138 193.534 253.500 193.600 C 253.874 193.668 254.240 193.780 254.600 193.900 C 254.791 193.964 255.150 194.150 255.150 194.150 " transform="matrix(0.9879133105278015, -0.15500731766223907, 0.15500731766223907, 0.9879133105278015, -233.3, -107.95)"/>
  <path id="ID0.9727263115346432" fill="none" stroke="#9D7055" stroke-width="1" stroke-linecap="round" d="M 235.300 190.400 C 235.300 190.400 234.100 190.321 233.500 190.300 C 233.167 190.288 232.831 190.261 232.500 190.300 C 232.127 190.344 231.758 190.436 231.400 190.550 C 231.023 190.670 230.672 190.865 230.300 191 C 229.889 191.149 229.478 191.311 229.050 191.400 C 228.591 191.495 228.118 191.517 227.650 191.550 C 227.417 191.567 226.950 191.550 226.950 191.550 " transform="matrix(0.9879133105278015, -0.15500731766223907, 0.15500731766223907, 0.9879133105278015, -233.3, -107.95)"/>
  <path id="ID0.4877468110062182" fill="none" stroke="#9D7055" stroke-width="1" stroke-linecap="round" d="M 231.550 189.750 C 231.550 189.750 230.999 188.561 230.600 188.050 C 230.158 187.484 229.616 186.992 229.050 186.550 C 228.774 186.335 228.447 186.150 228.100 186.100 C 227.718 186.045 227.329 186.174 226.950 186.250 C 226.578 186.324 226.212 186.435 225.850 186.550 C 225.479 186.668 225.105 186.789 224.750 186.950 C 224.404 187.107 224.091 187.333 223.750 187.500 C 223.341 187.700 222.921 187.878 222.500 188.050 C 222.395 188.093 222.400 188.050 222.400 188.050 " transform="matrix(0.9879133105278015, -0.15500731766223907, 0.15500731766223907, 0.9879133105278015, -233.3, -107.95)"/>
  <path id="ID0.1451527113094926" fill="none" stroke="#9D7055" stroke-width="1" stroke-linecap="round" d="M 228.750 185.850 C 228.750 185.850 228.521 185.100 228.350 184.750 C 228.202 184.447 228.014 184.160 227.800 183.900 C 227.546 183.591 227.220 183.345 226.950 183.050 C 226.671 182.745 226.476 182.354 226.150 182.100 C 225.862 181.876 225.503 181.743 225.150 181.650 C 224.794 181.557 224.417 181.566 224.050 181.550 C 223.634 181.532 223.215 181.578 222.800 181.550 C 222.480 181.528 221.850 181.400 221.850 181.400 " transform="matrix(0.9879133105278015, -0.15500731766223907, 0.15500731766223907, 0.9879133105278015, -233.3, -107.95)"/>
  <path id="ID0.10182697931304574" fill="none" stroke="#9D7055" stroke-width="1" stroke-linecap="round" d="M 229.750 176.400 C 229.750 176.400 230.887 176.437 231.400 176.650 C 231.804 176.818 232.116 177.168 232.400 177.500 C 232.722 177.875 232.979 178.308 233.200 178.750 C 233.398 179.146 233.508 179.581 233.650 180 C 233.791 180.414 233.950 180.824 234.050 181.250 C 234.134 181.610 234.226 181.981 234.200 182.350 C 234.175 182.697 234.039 183.031 233.900 183.350 C 233.754 183.685 233.559 184 233.350 184.300 C 233.141 184.601 232.948 184.936 232.650 185.150 C 232.100 185.546 231.472 185.832 230.850 186.100 C 230.501 186.250 230.119 186.311 229.750 186.400 C 229.658 186.422 229.600 186.400 229.600 186.400 " transform="matrix(0.9879133105278015, -0.15500731766223907, 0.15500731766223907, 0.9879133105278015, -233.3, -107.95)"/>
  <path id="ID0.8823745348490775" fill="none" stroke="#9C7054" stroke-width="1" stroke-linecap="round" d="M 253.900 192.900 C 253.900 192.900 254.750 190.600 255.750 190.100 C 256.433 189.758 257.237 190.521 257.900 190.900 C 258.309 191.134 258.900 191.900 258.900 191.900 " transform="matrix(0.9879133105278015, -0.15500731766223907, 0.15500731766223907, 0.9879133105278015, -233.3, -107.95)"/>
  <path id="ID0.9460866432636976" fill="none" stroke="#9C7054" stroke-width="1" stroke-linecap="round" d="M 247.950 192.650 L 247.650 192.350 C 246.158 192.671 243.700 193.050 241.850 193.600 C 241.350 193.700 241.700 194.050 241.700 194.050 C 233.350 193.750 234.300 192.400 234.900 191.800 C 235.300 191.350 235.700 190.950 236.250 190.700 C 236.800 190.350 237.400 190 238.100 190 C 238.750 189.950 239.400 190.200 240 190.550 C 240.450 190.800 240.800 191.250 241.150 191.650 C 241.350 191.900 241.550 192.150 241.700 192.500 C 241.800 192.800 241.850 193.200 241.950 193.600 C 241.950 193.650 241.950 193.750 241.950 193.750 C 254.750 191.600 254.041 190.794 253.600 190.500 C 253.276 190.284 252.888 190.137 252.500 190.100 C 252 190.052 251.489 190.135 251 190.250 C 250.564 190.353 250.141 190.530 249.750 190.750 C 249.335 190.983 248.977 191.309 248.600 191.600 C 248.394 191.759 248.102 192.019 248 192.100 Z " transform="matrix(0.9879133105278015, -0.15500731766223907, 0.15500731766223907, 0.9879133105278015, -233.3, -107.95)"/>
  <path id="ID0.09544587275013328" fill="none" stroke="#9C7054" stroke-width="1" stroke-linecap="round" d="M 249.400 190.600 C 249.400 190.600 246.145 188.316 244.250 188 C 243.655 187.901 243.687 189.069 243.400 189.600 C 243.237 189.902 243.062 190.198 242.900 190.500 C 242.679 190.914 242.471 191.336 242.250 191.750 C 242.195 191.853 242.100 192 242.100 192 " transform="matrix(0.9879133105278015, -0.15500731766223907, 0.15500731766223907, 0.9879133105278015, -233.3, -107.95)"/>
  <path id="ID0.12024114653468132" fill="none" stroke="#9C7054" stroke-width="1" stroke-linecap="round" d="M 243.250 188.750 C 243.250 188.750 242.285 188.160 241.750 188 C 241.431 187.904 241.077 187.939 240.750 188 C 240.351 188.074 239.988 188.283 239.600 188.400 C 239.155 188.533 238.677 188.568 238.250 188.750 C 237.885 188.906 237.552 189.142 237.250 189.400 C 237.095 189.532 236.900 189.900 236.900 189.900 " transform="matrix(0.9879133105278015, -0.15500731766223907, 0.15500731766223907, 0.9879133105278015, -233.3, -107.95)"/>
  <path id="ID0.8655873262323439" fill="none" stroke="#9C7054" stroke-width="1" stroke-linecap="round" d="M 237.900 188.750 C 237.900 188.750 234.984 187.241 233.400 186.900 C 232.934 186.800 232.523 187.279 232.100 187.500 C 231.756 187.680 231.429 187.894 231.100 188.100 C 230.896 188.227 230.500 188.500 230.500 188.500 " transform="matrix(0.9879133105278015, -0.15500731766223907, 0.15500731766223907, 0.9879133105278015, -233.3, -107.95)"/>
  <path id="ID0.7597567029297352" fill="none" stroke="#9C7054" stroke-width="1" stroke-linecap="round" d="M 234.100 183.400 C 234.100 183.400 235.970 184.026 236.750 184.600 C 237.153 184.896 237.544 185.402 237.500 185.900 C 237.447 186.498 236.833 186.900 236.500 187.400 C 236.417 187.525 236.500 187.400 236.500 187.400 " transform="matrix(0.9879133105278015, -0.15500731766223907, 0.15500731766223907, 0.9879133105278015, -233.3, -107.95)"/>
  <path id="ID0.38338508689776063" fill="none" stroke="#9C7054" stroke-width="1" stroke-linecap="round" d="M 237.750 185.500 C 237.750 185.500 245.646 184.126 249.600 184.400 C 250.588 184.468 250.415 185.708 250.750 186.400 C 250.917 186.746 251.062 187.118 251.100 187.500 C 251.147 187.965 251.092 188.442 251 188.900 C 250.972 189.040 250.750 189.250 250.750 189.250 " transform="matrix(0.9879133105278015, -0.15500731766223907, 0.15500731766223907, 0.9879133105278015, -233.3, -107.95)"/>
  <path id="ID0.34985824674367905" fill="none" stroke="#9C7054" stroke-width="1" stroke-linecap="round" d="M 251.600 187.400 C 251.600 187.400 254.160 185.788 255.600 185.750 C 256.342 185.730 256.833 186.636 257.250 187.250 C 257.467 187.569 257.400 188.014 257.400 188.400 C 257.400 188.687 257.250 189.250 257.250 189.250 " transform="matrix(0.9879133105278015, -0.15500731766223907, 0.15500731766223907, 0.9879133105278015, -233.3, -107.95)"/>
  <path id="ID0.334121604450047" fill="none" stroke="#9C7054" stroke-width="1" stroke-linecap="round" d="M 257.500 187.400 C 257.500 187.400 260.435 186.117 262 186 C 262.401 185.970 261.666 186.734 261.500 187.100 C 261.458 187.192 261.500 187.100 261.500 187.100 " transform="matrix(0.9879133105278015, -0.15500731766223907, 0.15500731766223907, 0.9879133105278015, -233.3, -107.95)"/>
  <path id="ID0.3574179015122354" fill="none" stroke="#9C7054" stroke-width="1" stroke-linecap="round" d="M 258 186 C 258 186 258.641 182.769 259.600 181.500 C 259.912 181.088 260.611 181.734 261.100 181.900 C 261.495 182.034 261.941 182.119 262.250 182.400 C 262.525 182.650 262.584 183.067 262.750 183.400 C 262.867 183.633 263.100 184.100 263.100 184.100 " transform="matrix(0.9879133105278015, -0.15500731766223907, 0.15500731766223907, 0.9879133105278015, -233.3, -107.95)"/>
  <path id="ID0.38100011460483074" fill="none" stroke="#9C7054" stroke-width="1" stroke-linecap="round" d="M 258.250 183.500 C 258.250 183.500 258.128 182.491 257.750 182.250 C 257.102 181.838 256.266 181.800 255.500 181.750 C 254.962 181.715 254.420 181.857 253.900 182 C 253.381 182.142 252.891 182.381 252.400 182.600 C 251.958 182.797 251.408 182.877 251.100 183.250 C 250.728 183.701 250.608 184.325 250.500 184.900 C 250.438 185.229 250.471 185.591 250.600 185.900 C 250.657 186.037 251 186.100 251 186.100 " transform="matrix(0.9879133105278015, -0.15500731766223907, 0.15500731766223907, 0.9879133105278015, -233.3, -107.95)"/>
  <path id="ID0.09723140625283122" fill="none" stroke="#9C7054" stroke-width="1" stroke-linecap="round" d="M 250.750 182.250 C 250.750 182.250 246.275 180.776 244 181 C 243.061 181.092 242.453 182.225 242.100 183.100 C 241.951 183.468 242.484 183.805 242.750 184.100 C 242.816 184.174 243 184.100 243 184.100 " transform="matrix(0.9879133105278015, -0.15500731766223907, 0.15500731766223907, 0.9879133105278015, -233.3, -107.95)"/>
  <path id="ID0.7344881785102189" fill="none" stroke="#9C7054" stroke-width="1" stroke-linecap="round" d="M 234.400 180.600 C 234.400 180.600 236.018 179.385 236.900 178.900 C 237.361 178.646 237.897 178.555 238.400 178.400 C 238.763 178.288 239.127 178.171 239.500 178.100 C 239.829 178.037 240.166 177.975 240.500 178 C 240.842 178.026 241.177 178.135 241.500 178.250 C 241.879 178.385 242.296 178.486 242.600 178.750 C 242.952 179.056 243.182 179.488 243.400 179.900 C 243.651 180.376 243.800 180.900 244 181.400 C 244.050 181.525 244 181.400 244 181.400 " transform="matrix(0.9879133105278015, -0.15500731766223907, 0.15500731766223907, 0.9879133105278015, -233.3, -107.95)"/>
  <path id="ID0.38384939543902874" fill="none" stroke="#9C7054" stroke-width="1" stroke-linecap="round" d="M 243.900 179.500 C 243.900 179.500 249.769 178.218 252.750 178 C 253.495 177.945 252.350 178.628 252.100 178.900 C 251.765 179.264 251.429 179.653 251 179.900 C 250.544 180.163 250.007 180.256 249.500 180.400 C 249.007 180.540 248.501 180.640 248 180.750 C 247.875 180.777 247.900 180.750 247.900 180.750 " transform="matrix(0.9879133105278015, -0.15500731766223907, 0.15500731766223907, 0.9879133105278015, -233.3, -107.95)"/>
  <path id="ID0.6781169311143458" fill="none" stroke="#9C7054" stroke-width="1" stroke-linecap="round" d="M 251.900 179.250 C 251.900 179.250 255.102 177.592 256.750 177.900 C 257.536 178.047 257.284 179.451 257.250 180.250 C 257.231 180.689 256.911 181.089 256.600 181.400 C 256.482 181.518 256.100 181.400 256.100 181.400 " transform="matrix(0.9879133105278015, -0.15500731766223907, 0.15500731766223907, 0.9879133105278015, -233.3, -107.95)"/>
  <path id="ID0.5819225977174938" fill="none" stroke="#9C7054" stroke-width="1" stroke-linecap="round" d="M 257.100 180 C 257.100 180 261.076 179.010 263.100 178.750 C 263.606 178.685 263.804 178.907 264.100 179.100 C 264.219 179.178 264.250 179.500 264.250 179.500 " transform="matrix(0.9879133105278015, -0.15500731766223907, 0.15500731766223907, 0.9879133105278015, -233.3, -107.95)"/>
  <path id="ID0.9394171508029103" fill="none" stroke="#9C7054" stroke-width="1" stroke-linecap="round" d="M 256.400 176 C 256.400 176 254.209 176.550 253.100 176.750 C 252.541 176.851 251.956 177.019 251.400 176.900 C 250.745 176.760 250.048 176.498 249.600 176 C 249.355 175.728 249.481 175.247 249.600 174.900 C 249.711 174.575 249.981 174.313 250.250 174.100 C 250.624 173.804 251.070 173.606 251.500 173.400 C 251.904 173.206 252.319 173.024 252.750 172.900 C 253.073 172.807 253.413 172.750 253.750 172.750 C 254.252 172.750 254.769 172.756 255.250 172.900 C 255.622 173.012 255.947 173.257 256.250 173.500 C 256.373 173.598 256.500 173.900 256.500 173.900 " transform="matrix(0.9879133105278015, -0.15500731766223907, 0.15500731766223907, 0.9879133105278015, -233.3, -107.95)"/>
  <path id="ID0.13919800706207752" fill="none" stroke="#9C7054" stroke-width="1" stroke-linecap="round" d="M 238.100 177.900 C 238.100 177.900 237.897 176.222 237.500 175.500 C 237.137 174.840 236.551 174.280 235.900 173.900 C 235.495 173.664 234.968 173.775 234.500 173.750 C 234.034 173.725 233.562 173.685 233.100 173.750 C 232.719 173.803 232.344 173.928 232 174.100 C 231.669 174.265 231.399 174.533 231.100 174.750 C 231.025 174.804 230.900 174.900 230.900 174.900 " transform="matrix(0.9879133105278015, -0.15500731766223907, 0.15500731766223907, 0.9879133105278015, -233.3, -107.95)"/>
  <path id="ID0.6421924377791584" fill="none" stroke="#9C7054" stroke-width="1" stroke-linecap="round" d="M 236.100 173.250 C 236.100 173.250 237.515 172.138 238 171.400 C 238.310 170.928 238.400 170.315 238.400 169.750 C 238.400 169.345 238.214 168.944 238 168.600 C 237.820 168.310 237.475 168.157 237.250 167.900 C 237.007 167.622 236.822 167.296 236.600 167 C 236.372 166.696 236.193 166.341 235.900 166.100 C 235.613 165.863 235.261 165.690 234.900 165.600 C 234.577 165.519 234.233 165.617 233.900 165.600 C 233.566 165.583 233.235 165.500 232.900 165.500 C 232.565 165.500 232.233 165.571 231.900 165.600 C 231.817 165.607 231.750 165.600 231.750 165.600 " transform="matrix(0.9879133105278015, -0.15500731766223907, 0.15500731766223907, 0.9879133105278015, -233.3, -107.95)"/>
  <path id="ID0.33202091977000237" fill="none" stroke="#9C7054" stroke-width="1" stroke-linecap="round" d="M 237.250 171.100 C 237.250 171.100 241.113 171.361 243 171.750 C 243.803 171.916 244.584 172.272 245.250 172.750 C 245.622 173.016 246 173.443 246 173.900 C 246 174.458 245.615 174.977 245.250 175.400 C 244.957 175.739 244.465 175.840 244.100 176.100 C 243.714 176.374 243.389 176.731 243 177 C 242.521 177.332 242.030 177.657 241.500 177.900 C 241.221 178.028 240.600 178.100 240.600 178.100 " transform="matrix(0.9879133105278015, -0.15500731766223907, 0.15500731766223907, 0.9879133105278015, -233.3, -107.95)"/>
  <path id="ID0.8604042930528522" fill="none" stroke="#9C7054" stroke-width="1" stroke-linecap="round" d="M 245 175.500 C 246.150 175.100 247.400 174.750 248.600 174.400 C 248.850 174.300 248.600 174.400 248.600 174.400 C 246.533 173.800 246.983 173.774 247.400 173.900 C 247.714 173.995 248.250 174.400 248.250 174.400 " transform="matrix(0.9879133105278015, -0.15500731766223907, 0.15500731766223907, 0.9879133105278015, -233.3, -107.95)"/>
  <path id="ID0.7354550017043948" fill="none" stroke="#9C7054" stroke-width="1" stroke-linecap="round" d="M 246.500 173.400 C 246.500 173.400 246.885 171.753 247.250 171 C 247.430 170.629 247.741 170.302 248.100 170.100 C 248.715 169.755 249.419 169.584 250.100 169.400 C 250.473 169.299 250.872 169.171 251.250 169.250 C 251.709 169.346 252.103 169.651 252.500 169.900 C 252.822 170.102 253.175 170.294 253.400 170.600 C 253.609 170.884 253.683 171.254 253.750 171.600 C 253.801 171.862 253.750 172.400 253.750 172.400 " transform="matrix(0.9879133105278015, -0.15500731766223907, 0.15500731766223907, 0.9879133105278015, -233.3, -107.95)"/>
  <path id="ID0.601786351762712" fill="none" stroke="#9C7054" stroke-width="1" stroke-linecap="round" d="M 257.100 177.750 C 257.100 177.750 256.550 176.250 256.500 175.500 C 256.450 175.100 256.550 174.700 256.750 174.400 C 256.950 173.950 257.250 173.600 257.600 173.250 C 257.850 172.900 258.100 172.500 258.500 172.250 C 258.900 171.900 259.350 171.600 259.900 171.500 C 261 171.200 262.200 171.150 263.400 171.100 C 263.650 171.050 263.600 171.250 263.600 171.250 C 253.750 171.400 255.470 169.744 256.400 169 C 256.891 168.608 257.424 168.252 258 168 C 258.503 167.780 259.053 167.650 259.600 167.600 C 259.985 167.565 260.433 167.529 260.750 167.750 C 261.055 167.963 261.034 168.447 261.250 168.750 C 261.455 169.037 261.787 169.218 262 169.500 C 262.207 169.773 262.374 170.081 262.500 170.400 C 262.626 170.719 262.608 171.088 262.750 171.400 C 262.787 171.482 263 171.500 263 171.500 " transform="matrix(0.9879133105278015, -0.15500731766223907, 0.15500731766223907, 0.9879133105278015, -233.3, -107.95)"/>
  <path id="ID0.5772949676029384" fill="none" stroke="#9C7054" stroke-width="1" stroke-linecap="round" d="M 257.400 168.250 C 257.400 168.250 256.900 166.300 256.100 166.100 C 254.300 165.600 252.400 166.250 250.600 166.500 C 250.100 166.550 249.650 166.700 249.250 166.900 C 248.850 167.050 248.500 167.300 248.250 167.600 C 247.950 167.850 247.650 168.200 247.600 168.600 C 247.500 168.900 247.700 169.250 247.750 169.600 C 247.750 169.650 247.750 169.600 247.750 169.600 C 247.600 168.900 242.078 167.402 239.250 167.100 C 238.543 167.024 238.600 167.656 238.250 167.900 C 238.162 167.961 238.100 167.900 238.100 167.900 " transform="matrix(0.9879133105278015, -0.15500731766223907, 0.15500731766223907, 0.9879133105278015, -233.3, -107.95)"/>
  <path id="ID0.10564459161832929" fill="none" stroke="#9C7054" stroke-width="1" stroke-linecap="round" d="M 235.900 165.600 C 235.900 165.600 236.345 162.182 236.100 160.500 C 236.039 160.080 235.444 160.203 235.100 160.100 C 234.775 160.002 234.438 159.932 234.100 159.900 C 233.735 159.865 233.366 159.900 233 159.900 C 232.867 159.900 232.600 159.900 232.600 159.900 " transform="matrix(0.9879133105278015, -0.15500731766223907, 0.15500731766223907, 0.9879133105278015, -233.3, -107.95)"/>
  <path id="ID0.5810333685949445" fill="none" stroke="#9D7055" stroke-width="1" stroke-linecap="round" d="M 225.700 157.100 C 225.700 157.100 226.500 157.600 226.950 157.800 C 227.300 157.900 227.700 158.100 228.100 158.100 C 228.500 157.900 228.850 157.600 229.200 157.300 C 229.450 157 229.550 156.600 229.750 156.300 C 229.900 155.900 230.050 155.600 230.150 155.300 C 230.200 154.900 230.250 154.500 230.300 154.200 C 230.300 153.800 230.400 153.400 230.300 153.100 C 230.200 152.900 229.750 152.800 229.750 152.800 C 230.600 153.300 231.676 154.459 232.250 155 C 232.560 155.293 232.970 155.478 233.250 155.800 C 233.529 156.121 233.942 156.477 233.900 156.900 C 233.845 157.451 233.300 157.834 233 158.300 C 232.925 158.417 233 158.300 233 158.300 " transform="matrix(0.9879133105278015, -0.15500731766223907, 0.15500731766223907, 0.9879133105278015, -233.3, -107.95)"/>
  <path id="ID0.3004662967287004" fill="none" stroke="#9C7054" stroke-width="1" stroke-linecap="round" d="M 232.750 154.400 C 232.750 154.400 236.876 154.475 238.900 154.150 C 239.406 154.069 239.423 153.621 239.600 153.300 C 239.795 152.945 239.809 152.508 240 152.150 C 240.083 151.994 240.400 151.800 240.400 151.800 " transform="matrix(0.9879133105278015, -0.15500731766223907, 0.15500731766223907, 0.9879133105278015, -233.3, -107.95)"/>
  <path id="ID0.6280547953210771" fill="none" stroke="#9C7054" stroke-width="1" stroke-linecap="round" d="M 239.750 153.650 C 243.030 153.400 246.320 153.150 249.600 152.900 C 250.420 152.838 249.600 152.900 249.600 152.900 " transform="matrix(0.9879133105278015, -0.15500731766223907, 0.15500731766223907, 0.9879133105278015, -233.3, -107.95)"/>
  <path id="ID0.03717021318152547" fill="none" stroke="#9C7054" stroke-width="1" stroke-linecap="round" d="M 244.250 153.500 C 244.250 153.500 246.095 156.301 247.250 157.500 C 247.539 157.800 247.914 157.632 248.250 157.650 C 248.832 157.682 249.418 157.682 250 157.650 C 250.336 157.632 250.685 157.618 251 157.500 C 251.364 157.364 251.664 157.095 252 156.900 C 252.297 156.728 252.630 156.611 252.900 156.400 C 253.169 156.190 253.367 155.900 253.600 155.650 C 253.658 155.588 253.600 155.650 253.600 155.650 " transform="matrix(0.9879133105278015, -0.15500731766223907, 0.15500731766223907, 0.9879133105278015, -233.3, -107.95)"/>
  <path id="ID0.23951586848124862" fill="none" stroke="#9C7054" stroke-width="1" stroke-linecap="round" d="M 252.100 157 C 252.100 157 252.145 158.340 252.250 159 C 252.313 159.395 252.393 159.808 252.600 160.150 C 252.789 160.462 253.041 160.832 253.400 160.900 C 254.011 161.015 254.642 160.778 255.250 160.650 C 255.595 160.577 255.939 160.466 256.250 160.300 C 256.727 160.046 257.157 159.709 257.600 159.400 C 257.711 159.323 257.900 159.150 257.900 159.150 " transform="matrix(0.9879133105278015, -0.15500731766223907, 0.15500731766223907, 0.9879133105278015, -233.3, -107.95)"/>
  <path id="ID0.3203369337134063" fill="none" stroke="#9C7054" stroke-width="1" stroke-linecap="round" d="M 259.750 166.900 C 259.858 166.251 259.807 165.141 260 164.400 C 260.066 164.007 260.350 163.700 260.600 163.400 C 260.700 163.200 261 163 261 163 C 256.900 159.900 256.647 162.681 257 164 C 257.177 164.660 257.922 165.012 258.400 165.500 C 258.672 165.778 258.900 166.131 259.250 166.300 C 259.407 166.375 259.718 166.231 259.750 166.150 Z " transform="matrix(0.9879133105278015, -0.15500731766223907, 0.15500731766223907, 0.9879133105278015, -233.3, -107.95)"/>
  <path id="ID0.8833411848172545" fill="none" stroke="#9C7054" stroke-width="1" stroke-linecap="round" d="M 254.100 160.400 C 254.100 160.400 251.773 163.669 251 165.500 C 250.807 165.958 251.097 166.463 251.400 166.800 C 251.530 166.944 251.900 166.500 251.900 166.500 " transform="matrix(0.9879133105278015, -0.15500731766223907, 0.15500731766223907, 0.9879133105278015, -233.3, -107.95)"/>
  <path id="ID0.655964532867074" fill="none" stroke="#9C7054" stroke-width="1" stroke-linecap="round" d="M 250.100 157.650 C 250.100 157.650 248.080 163.002 247.600 165.800 C 247.480 166.499 248.247 166.237 248.600 166.400 C 248.691 166.442 248.900 166.400 248.900 166.400 " transform="matrix(0.9879133105278015, -0.15500731766223907, 0.15500731766223907, 0.9879133105278015, -233.3, -107.95)"/>
  <path id="ID0.7137424624525011" fill="none" stroke="#9C7054" stroke-width="1" stroke-linecap="round" d="M 242.400 153.800 C 242.400 153.800 240.931 155.437 240.100 156.150 C 239.623 156.559 239.075 156.898 238.500 157.150 C 238.111 157.321 237.671 157.457 237.250 157.400 C 236.762 157.334 236.319 157.057 235.900 156.800 C 235.364 156.471 234.907 156.023 234.400 155.650 C 234.273 155.557 234 155.400 234 155.400 " transform="matrix(0.9879133105278015, -0.15500731766223907, 0.15500731766223907, 0.9879133105278015, -233.3, -107.95)"/>
  <path id="ID0.05155708687379956" fill="none" stroke="#9C7054" stroke-width="1" stroke-linecap="round" d="M 236.600 156.650 C 236.600 156.650 235.500 161.650 235.500 161.650 " transform="matrix(0.9879133105278015, -0.15500731766223907, 0.15500731766223907, 0.9879133105278015, -233.3, -107.95)"/>
  <path id="ID0.5478088571690023" fill="none" stroke="#9C7054" stroke-width="1" stroke-linecap="round" d="M 240.500 155.900 C 240.500 155.900 241.221 159.954 241.250 162 C 241.257 162.512 240.881 162.659 240.600 162.900 C 240.283 163.172 239.880 163.327 239.500 163.500 C 239.145 163.661 238.783 163.827 238.400 163.900 C 238.073 163.962 237.733 163.900 237.400 163.900 C 237.300 163.900 237.100 163.900 237.100 163.900 " transform="matrix(0.9879133105278015, -0.15500731766223907, 0.15500731766223907, 0.9879133105278015, -233.3, -107.95)"/>
  <path id="ID0.9281684760935605" fill="none" stroke="#9C7054" stroke-width="1" stroke-linecap="round" d="M 246.100 154.800 C 246.100 154.800 243.698 160.383 242.900 163.300 C 242.700 164.029 243.146 164.139 243.500 164.300 C 243.985 164.520 244.567 164.300 245.100 164.300 C 245.533 164.300 245.969 164.341 246.400 164.300 C 247.021 164.241 247.634 164.100 248.250 164 C 248.404 163.975 248.250 164 248.250 164 " transform="matrix(0.9879133105278015, -0.15500731766223907, 0.15500731766223907, 0.9879133105278015, -233.3, -107.95)"/>
  <path id="ID0.14272655732929707" fill="none" stroke="#9C7054" stroke-width="1" stroke-linecap="round" d="M 241 162.650 C 241 162.650 242.129 164.111 242.600 164.900 C 242.800 165.235 243.041 165.612 243 166 C 242.965 166.331 242.720 166.707 242.400 166.800 C 241.713 167 240.961 166.886 240.250 166.800 C 239.847 166.751 239.473 166.559 239.100 166.400 C 238.689 166.225 238.300 166 237.900 165.800 C 237.800 165.750 237.900 165.800 237.900 165.800 " transform="matrix(0.9879133105278015, -0.15500731766223907, 0.15500731766223907, 0.9879133105278015, -233.3, -107.95)"/>
  <path id="ID0.7472577039152384" fill="#FFCC5C" stroke="#BA8464" stroke-width="2" d="M 231.350 64 C 237.420 64 242.920 66.765 246.902 71.232 C 250.885 75.699 253.350 81.867 253.350 88.675 C 253.350 95.483 250.885 101.651 246.902 106.118 C 242.920 110.585 237.420 113.350 231.350 113.350 C 225.280 113.350 219.780 110.585 215.798 106.118 C 211.815 101.651 209.350 95.483 209.350 88.675 C 209.350 81.867 211.815 75.699 215.798 71.232 C 219.780 66.765 225.280 64 231.350 64 Z " transform="matrix(0.1903620809316635, -0.02986852638423443, 0.02986852638423443, 0.1903620809316635, -19.3, 11.9)"/>
  <path id="ID0.8638461250811815" fill="#E5FF36" stroke="#E5FF36" stroke-width="2" d="M 186.675 88.650 C 187.413 88.650 188.082 89.025 188.566 89.632 C 189.050 90.238 189.350 91.076 189.350 92 C 189.350 92.924 189.050 93.762 188.566 94.368 C 188.082 94.975 187.413 95.350 186.675 95.350 C 185.937 95.350 185.268 94.975 184.784 94.368 C 184.300 93.762 184 92.924 184 92 C 184 91.076 184.300 90.238 184.784 89.632 C 185.268 89.025 185.937 88.650 186.675 88.650 Z " transform="matrix(0.1903620809316635, -0.02986852638423443, 0.02986852638423443, 0.1903620809316635, -9.65, 9.4)"/>
  <path id="ID0.7472577039152384" fill="#FFCC5C" stroke="#BA8464" stroke-width="2" d="M 231.350 64 C 237.420 64 242.920 66.765 246.902 71.232 C 250.885 75.699 253.350 81.867 253.350 88.675 C 253.350 95.483 250.885 101.651 246.902 106.118 C 242.920 110.585 237.420 113.350 231.350 113.350 C 225.280 113.350 219.780 110.585 215.798 106.118 C 211.815 101.651 209.350 95.483 209.350 88.675 C 209.350 81.867 211.815 75.699 215.798 71.232 C 219.780 66.765 225.280 64 231.350 64 Z " transform="matrix(0.1903620809316635, -0.02986852638423443, 0.02986852638423443, 0.1903620809316635, -1.9, 8.8)"/>
  <path id="ID0.8638461250811815" fill="#E5FF36" stroke="#E5FF36" stroke-width="2" d="M 186.675 88.650 C 187.413 88.650 188.082 89.025 188.566 89.632 C 189.050 90.238 189.350 91.076 189.350 92 C 189.350 92.924 189.050 93.762 188.566 94.368 C 188.082 94.975 187.413 95.350 186.675 95.350 C 185.937 95.350 185.268 94.975 184.784 94.368 C 184.300 93.762 184 92.924 184 92 C 184 91.076 184.300 90.238 184.784 89.632 C 185.268 89.025 185.937 88.650 186.675 88.650 Z " transform="matrix(0.1903620809316635, -0.02986852638423443, 0.02986852638423443, 0.1903620809316635, 7.8, 6.75)"/>
  <path id="ID0.33346087811514735" fill="none" stroke="#000000" stroke-width="2" d="M 215.500 184.350 L 284.850 184.350 L 284.850 184.350 L 215.500 184.350 L 215.500 184.350 Z " transform="matrix(0.5076448917388916, -0.07965139299631119, 0.12345965206623077, 0.7868494987487793, -112.6, -92.15)"/>
  <path id="ID0.4609055402688682" fill="url(#grad_1)" stroke="url(#grad_2)" stroke-width="2" stroke-linecap="round" d="M 202 187.750 L 191.500 174.250 L 200.500 157.500 L 198.500 174.750 L 213.250 168 L 202.250 181.250 L 220.250 182.750 L 202 187.750 Z " transform="matrix(0.6282418966293335, 0.1863062083721161, -0.1863062083721161, 0.6282418966293335, -65.5, -125.1)"/>
  <path id="ID0.4609055402688682" fill="url(#grad_3)" stroke="url(#grad_4)" stroke-width="2" stroke-linecap="round" d="M 202 187.750 L 191.500 174.250 L 200.500 157.500 L 198.500 174.750 L 213.250 168 L 202.250 181.250 L 220.250 182.750 L 202 187.750 Z " transform="matrix(0.6282418966293335, 0.1863062083721161, -0.1863062083721161, 0.6282418966293335, -46.8, -129.75)"/>
</svg>