<svg version="1.1" width="134" height="84" viewBox="-1 0 134 84" xmlns="http://www.w3.org/2000/svg" xmlns:xlink="http://www.w3.org/1999/xlink">
  <!-- Exported by Scratch - http://scratch.mit.edu/ -->
  <text id="ID0.47367060650140047" fill="#FFFF00" x="191.25" y="175.45" text-anchor="start" font-family="Scratch" font-size="22" transform="matrix(0.7127659916877747, 0, 0, 0.7127659916877747, 0.75, 0)">BOB DA BALL WINS!</text>
  <g id="ID0.33243954041972756">
    <path id="ID0.3712550294585526" fill="#00FFFF" stroke="#00CCCC" stroke-width="2" d="M 313.675 77.350 C 350.182 77.350 383.264 91.805 407.218 115.157 C 431.172 138.510 446 170.760 446 206.350 C 446 241.940 431.172 274.190 407.218 297.543 C 383.264 320.895 350.182 335.350 313.675 335.350 C 277.168 335.350 244.086 320.895 220.132 297.543 C 196.178 274.190 181.350 241.940 181.350 206.350 C 181.350 170.760 196.178 138.510 220.132 115.157 C 244.086 91.805 277.168 77.350 313.675 77.350 Z " transform="matrix(0.186521515250206, 0.048369139432907104, -0.048369139432907104, 0.186521515250206, 13.55, 3.75)"/>
    <path id="ID0.7472577039152384" fill="#FFFFFF" stroke="#00CCCC" stroke-width="2" d="M 231.350 64 C 237.420 64 242.920 66.765 246.902 71.232 C 250.885 75.699 253.350 81.867 253.350 88.675 C 253.350 95.483 250.885 101.651 246.902 106.118 C 242.920 110.585 237.420 113.350 231.350 113.350 C 225.280 113.350 219.780 110.585 215.798 106.118 C 211.815 101.651 209.350 95.483 209.350 88.675 C 209.350 81.867 211.815 75.699 215.798 71.232 C 219.780 66.765 225.280 64 231.350 64 Z " transform="matrix(0.186521515250206, 0.048369139432907104, -0.048369139432907104, 0.186521515250206, 23.4, 22.4)"/>
    <path id="ID0.7472577039152384" fill="#FFFFFF" stroke="#00CCCC" stroke-width="2" d="M 231.350 64 C 237.420 64 242.920 66.765 246.902 71.232 C 250.885 75.699 253.350 81.867 253.350 88.675 C 253.350 95.483 250.885 101.651 246.902 106.118 C 242.920 110.585 237.420 113.350 231.350 113.350 C 225.280 113.350 219.780 110.585 215.798 106.118 C 211.815 101.651 209.350 95.483 209.350 88.675 C 209.350 81.867 211.815 75.699 215.798 71.232 C 219.780 66.765 225.280 64 231.350 64 Z " transform="matrix(0.186521515250206, 0.048369139432907104, -0.048369139432907104, 0.186521515250206, 40.55, 26.55)"/>
    <path id="ID0.8638461250811815" fill="#000000" stroke="#000000" stroke-width="7" d="M 186.675 88.650 C 187.413 88.650 188.082 89.025 188.566 89.632 C 189.050 90.238 189.350 91.076 189.350 92 C 189.350 92.924 189.050 93.762 188.566 94.368 C 188.082 94.975 187.413 95.350 186.675 95.350 C 185.937 95.350 185.268 94.975 184.784 94.368 C 184.300 93.762 184 92.924 184 92 C 184 91.076 184.300 90.238 184.784 89.632 C 185.268 89.025 185.937 88.650 186.675 88.650 Z " transform="matrix(0.186521515250206, 0.048369139432907104, -0.048369139432907104, 0.186521515250206, 31.05, 23.5)"/>
    <path id="ID0.8638461250811815" fill="#000000" stroke="#000000" stroke-width="7" d="M 186.675 88.650 C 187.413 88.650 188.082 89.025 188.566 89.632 C 189.050 90.238 189.350 91.076 189.350 92 C 189.350 92.924 189.050 93.762 188.566 94.368 C 188.082 94.975 187.413 95.350 186.675 95.350 C 185.937 95.350 185.268 94.975 184.784 94.368 C 184.300 93.762 184 92.924 184 92 C 184 91.076 184.300 90.238 184.784 89.632 C 185.268 89.025 185.937 88.650 186.675 88.650 Z " transform="matrix(0.186521515250206, 0.048369139432907104, -0.048369139432907104, 0.186521515250206, 48.25, 27.9)"/>
    <g id="ID0.21219094889238477">
      <path id="ID0.36374237248674035" fill="#FFFFFF" stroke="#FFFFFF" stroke-width="2" stroke-linecap="round" d="M 255.650 198 C 256.477 197.339 257.355 198.205 258.300 198.500 C 258.955 198.705 259.634 198.833 260.300 199 C 260.966 199.167 261.640 199.311 262.300 199.500 C 263.039 199.711 263.759 199.996 264.500 200.200 C 265.209 200.395 265.936 200.525 266.650 200.700 C 268.650 201.191 270.653 201.695 272.650 202.200 C 273.484 202.411 274.315 202.643 275.150 202.850 C 275.864 203.026 276.579 203.206 277.300 203.350 C 277.995 203.489 278.696 203.616 279.400 203.700 C 280.096 203.783 280.801 203.799 281.500 203.850 C 282.166 203.899 282.837 203.917 283.500 204 C 284.171 204.084 285.007 203.887 285.500 204.350 C 286 204.820 285.915 205.669 286 206.350 C 286.083 207.011 286 207.684 286 208.350 C 286 209.016 286.033 209.685 286 210.350 C 285.967 211.018 286.113 211.758 285.800 212.350 C 285.453 213.006 284.849 213.612 284.150 213.850 C 280.526 213.723 279.179 213.736 277.400 213.600 C 276.723 213.550 276.054 213.384 275.400 213.200 C 274.716 212.966 274.100 212.519 273.400 212.350 C 272.668 212.173 271.897 212.196 271.150 212.100 C 269.900 211.943 268.782 211.629 267.650 211.500 C 266.694 211.429 265.720 211.664 264.900 211.500 C 264.228 211.362 263.702 210.887 263 210.700 C 256.578 209.278 255.252 209.498 253.300 207.500 C 253.546 203.385 254.079 202.581 254.300 201.200 C 254.412 200.500 254.431 199.774 254.650 199.100 C 254.836 198.526 254.905 197.598 255.500 197.500 Z " transform="matrix(0.9597636461257935, 0.185678631067276, -0.0895729809999466, 0.46299833059310913, -172.3, -81.15)"/>
      <path id="ID0.22580166859552264" fill="none" stroke="#000000" stroke-width="2" stroke-linecap="round" d="M 253.100 202.400 L 263 204.400 " transform="matrix(0.9597636461257935, 0.185678631067276, -0.0895729809999466, 0.46299833059310913, -172.3, -81.15)"/>
      <path id="ID0.35463656252250075" fill="none" stroke="#000000" stroke-width="2" stroke-linecap="round" d="M 286.750 209.150 L 275.900 207.300 " transform="matrix(0.9597636461257935, 0.185678631067276, -0.0895729809999466, 0.46299833059310913, -172.3, -81.15)"/>
    </g>
  </g>
</svg>