<svg version="1.1" width="260" height="229" viewBox="-1 0 260 229" xmlns="http://www.w3.org/2000/svg" xmlns:xlink="http://www.w3.org/1999/xlink">
  <!-- Exported by Scratch - http://scratch.mit.edu/ -->
  <text id="ID0.47367060650140047" fill="#FFFF00" x="191.25" y="175.45" text-anchor="start" font-family="Scratch" font-size="22" transform="matrix(0.7127659916877747, 0, 0, 0.7127659916877747, 0.75, 0)">MR. AVOCADOTHE PINEAPPLE WINS!</text>
  <path id="ID0.8365832129493356" fill="none" stroke="#666666" stroke-width="2" stroke-linecap="round" d="M 177.350 190 " transform="matrix(1, 0, 0, 1, -206, -156)"/>
  <path id="ID0.8365832129493356" fill="none" stroke="#666666" stroke-width="2" stroke-linecap="round" d="M 177.350 190 " transform="matrix(1, 0, 0, 1, -364, -222)"/>
  <path id="ID0.8365832129493356" fill="none" stroke="#666666" stroke-width="2" stroke-linecap="round" d="M 177.350 190 " transform="matrix(1, 0, 0, 1, -325, -63)"/>
  <path id="ID0.8365832129493356" fill="none" stroke="#666666" stroke-width="2" stroke-linecap="round" d="M 177.350 190 " transform="matrix(1, 0, 0, 1, -210, -266)"/>
  <path id="ID0.8365832129493356" fill="none" stroke="#666666" stroke-width="2" stroke-linecap="round" d="M 177.350 190 " transform="matrix(1, 0, 0, 1, -19, -15)"/>
  <path id="ID0.8365832129493356" fill="none" stroke="#666666" stroke-width="2" stroke-linecap="round" d="M 177.350 190 " transform="matrix(1, 0, 0, 1, -204, -93)"/>
  <path id="ID0.8365832129493356" fill="none" stroke="#666666" stroke-width="2" stroke-linecap="round" d="M 177.350 190 " transform="matrix(1, 0, 0, 1, -5, -23)"/>
  <path id="ID0.8365832129493356" fill="none" stroke="#666666" stroke-width="2" stroke-linecap="round" d="M 177.350 190 " transform="matrix(1, 0, 0, 1, -216, -13)"/>
  <g id="ID0.04767047241330147" transform="matrix(0.8031887412071228, 0, 0, 0.8031887412071228, -130, -97.05)">
    <path id="ID0.5099258632399142" fill="#009933" stroke="#006622" stroke-width="2" stroke-linecap="round" d="M 232 176 C 231.209 174.762 231.462 174.349 231.350 174 C 231.121 173.291 230.697 172.659 230.350 172 C 230.031 171.393 229.750 170.757 229.350 170.200 C 228.514 169.036 227.663 167.863 226.650 166.850 C 225.653 165.853 224.639 164.771 223.350 164.200 C 221.926 163.569 220.301 163.491 218.750 163.350 C 218.082 163.289 217.370 163.342 216.750 163.600 C 216.126 163.860 215.593 164.339 215.150 164.850 C 214.710 165.357 214.420 165.986 214.150 166.600 C 213.868 167.241 213.568 167.903 213.500 168.600 C 213.432 169.301 213.535 170.029 213.750 170.700 C 213.959 171.353 214.299 171.983 214.750 172.500 C 215.234 173.054 215.958 173.352 216.500 173.850 C 216.995 174.305 217.336 174.917 217.850 175.350 C 218.394 175.808 219.006 176.199 219.650 176.500 C 221.610 177.417 223.699 178.063 225.650 179 C 226.275 179.300 226.812 179.763 227.350 180.200 C 227.880 180.631 228.289 181.209 228.850 181.600 C 229.400 181.983 229.984 182.578 230.650 182.500 C 231.332 182.420 231.813 181.729 232.250 181.200 C 232.696 180.660 233.160 180.044 233.250 179.350 C 233.338 178.669 233.030 177.977 232.750 177.350 C 232.390 176.544 231.690 175.914 231.350 175.100 Z " transform="matrix(-0.4205758273601532, 0, 0, 0.4205758273601532, 340.5, 97.55)"/>
    <path id="ID0.5099258632399142" fill="#009933" stroke="#006622" stroke-width="2" stroke-linecap="round" d="M 232 176 C 231.209 174.762 231.462 174.349 231.350 174 C 231.121 173.291 230.697 172.659 230.350 172 C 230.031 171.393 229.750 170.757 229.350 170.200 C 228.514 169.036 227.663 167.863 226.650 166.850 C 225.653 165.853 224.639 164.771 223.350 164.200 C 221.926 163.569 220.301 163.491 218.750 163.350 C 218.082 163.289 217.370 163.342 216.750 163.600 C 216.126 163.860 215.593 164.339 215.150 164.850 C 214.710 165.357 214.420 165.986 214.150 166.600 C 213.868 167.241 213.568 167.903 213.500 168.600 C 213.432 169.301 213.535 170.029 213.750 170.700 C 213.959 171.353 214.299 171.983 214.750 172.500 C 215.234 173.054 215.958 173.352 216.500 173.850 C 216.995 174.305 217.336 174.917 217.850 175.350 C 218.394 175.808 219.006 176.199 219.650 176.500 C 221.610 177.417 223.699 178.063 225.650 179 C 226.275 179.300 226.812 179.763 227.350 180.200 C 227.880 180.631 228.289 181.209 228.850 181.600 C 229.400 181.983 229.984 182.578 230.650 182.500 C 231.332 182.420 231.813 181.729 232.250 181.200 C 232.696 180.660 233.160 180.044 233.250 179.350 C 233.338 178.669 233.030 177.977 232.750 177.350 C 232.390 176.544 231.690 175.914 231.350 175.100 Z " transform="matrix(0.4205757975578308, 0, 0, 0.4205757975578308, 146.2, 97.8)"/>
    <path id="ID0.5099258632399142" fill="#009933" stroke="#006622" stroke-width="2" stroke-linecap="round" d="M 232 176 C 231.209 174.762 231.462 174.349 231.350 174 C 231.121 173.291 230.697 172.659 230.350 172 C 230.031 171.393 229.750 170.757 229.350 170.200 C 228.514 169.036 227.663 167.863 226.650 166.850 C 225.653 165.853 224.639 164.771 223.350 164.200 C 221.926 163.569 220.301 163.491 218.750 163.350 C 218.082 163.289 217.370 163.342 216.750 163.600 C 216.126 163.860 215.593 164.339 215.150 164.850 C 214.710 165.357 214.420 165.986 214.150 166.600 C 213.868 167.241 213.568 167.903 213.500 168.600 C 213.432 169.301 213.535 170.029 213.750 170.700 C 213.959 171.353 214.299 171.983 214.750 172.500 C 215.234 173.054 215.958 173.352 216.500 173.850 C 216.995 174.305 217.336 174.917 217.850 175.350 C 218.394 175.808 219.006 176.199 219.650 176.500 C 221.610 177.417 223.699 178.063 225.650 179 C 226.275 179.300 226.812 179.763 227.350 180.200 C 227.880 180.631 228.289 181.209 228.850 181.600 C 229.400 181.983 229.984 182.578 230.650 182.500 C 231.332 182.420 231.813 181.729 232.250 181.200 C 232.696 180.660 233.160 180.044 233.250 179.350 C 233.338 178.669 233.030 177.977 232.750 177.350 C 232.390 176.544 231.690 175.914 231.350 175.100 Z " transform="matrix(-0.4205757975578308, 0, 0, 0.4205757975578308, 341.25, 100.3)"/>
    <path id="ID0.5099258632399142" fill="#009933" stroke="#006622" stroke-width="2" stroke-linecap="round" d="M 232 176 C 231.209 174.762 231.462 174.349 231.350 174 C 231.121 173.291 230.697 172.659 230.350 172 C 230.031 171.393 229.750 170.757 229.350 170.200 C 228.514 169.036 227.663 167.863 226.650 166.850 C 225.653 165.853 224.639 164.771 223.350 164.200 C 221.926 163.569 220.301 163.491 218.750 163.350 C 218.082 163.289 217.370 163.342 216.750 163.600 C 216.126 163.860 215.593 164.339 215.150 164.850 C 214.710 165.357 214.420 165.986 214.150 166.600 C 213.868 167.241 213.568 167.903 213.500 168.600 C 213.432 169.301 213.535 170.029 213.750 170.700 C 213.959 171.353 214.299 171.983 214.750 172.500 C 215.234 173.054 215.958 173.352 216.500 173.850 C 216.995 174.305 217.336 174.917 217.850 175.350 C 218.394 175.808 219.006 176.199 219.650 176.500 C 221.610 177.417 223.699 178.063 225.650 179 C 226.275 179.300 226.812 179.763 227.350 180.200 C 227.880 180.631 228.289 181.209 228.850 181.600 C 229.400 181.983 229.984 182.578 230.650 182.500 C 231.332 182.420 231.813 181.729 232.250 181.200 C 232.696 180.660 233.160 180.044 233.250 179.350 C 233.338 178.669 233.030 177.977 232.750 177.350 C 232.390 176.544 231.690 175.914 231.350 175.100 Z " transform="matrix(0.4205757975578308, 0, 0, 0.4205757975578308, 145.35, 100.55)"/>
    <path id="ID0.5099258632399142" fill="#009933" stroke="#006622" stroke-width="2" stroke-linecap="round" d="M 232 176 C 231.209 174.762 231.462 174.349 231.350 174 C 231.121 173.291 230.697 172.659 230.350 172 C 230.031 171.393 229.750 170.757 229.350 170.200 C 228.514 169.036 227.663 167.863 226.650 166.850 C 225.653 165.853 224.639 164.771 223.350 164.200 C 221.926 163.569 220.301 163.491 218.750 163.350 C 218.082 163.289 217.370 163.342 216.750 163.600 C 216.126 163.860 215.593 164.339 215.150 164.850 C 214.710 165.357 214.420 165.986 214.150 166.600 C 213.868 167.241 213.568 167.903 213.500 168.600 C 213.432 169.301 213.535 170.029 213.750 170.700 C 213.959 171.353 214.299 171.983 214.750 172.500 C 215.234 173.054 215.958 173.352 216.500 173.850 C 216.995 174.305 217.336 174.917 217.850 175.350 C 218.394 175.808 219.006 176.199 219.650 176.500 C 221.610 177.417 223.699 178.063 225.650 179 C 226.275 179.300 226.812 179.763 227.350 180.200 C 227.880 180.631 228.289 181.209 228.850 181.600 C 229.400 181.983 229.984 182.578 230.650 182.500 C 231.332 182.420 231.813 181.729 232.250 181.200 C 232.696 180.660 233.160 180.044 233.250 179.350 C 233.338 178.669 233.030 177.977 232.750 177.350 C 232.390 176.544 231.690 175.914 231.350 175.100 Z " transform="matrix(0.4205757975578308, 0, 0, 0.4205757975578308, 140.35, 102.1)"/>
    <path id="ID0.5099258632399142" fill="#009933" stroke="#006622" stroke-width="2" stroke-linecap="round" d="M 232 176 C 231.209 174.762 231.462 174.349 231.350 174 C 231.121 173.291 230.697 172.659 230.350 172 C 230.031 171.393 229.750 170.757 229.350 170.200 C 228.514 169.036 227.663 167.863 226.650 166.850 C 225.653 165.853 224.639 164.771 223.350 164.200 C 221.926 163.569 220.301 163.491 218.750 163.350 C 218.082 163.289 217.370 163.342 216.750 163.600 C 216.126 163.860 215.593 164.339 215.150 164.850 C 214.710 165.357 214.420 165.986 214.150 166.600 C 213.868 167.241 213.568 167.903 213.500 168.600 C 213.432 169.301 213.535 170.029 213.750 170.700 C 213.959 171.353 214.299 171.983 214.750 172.500 C 215.234 173.054 215.958 173.352 216.500 173.850 C 216.995 174.305 217.336 174.917 217.850 175.350 C 218.394 175.808 219.006 176.199 219.650 176.500 C 221.610 177.417 223.699 178.063 225.650 179 C 226.275 179.300 226.812 179.763 227.350 180.200 C 227.880 180.631 228.289 181.209 228.850 181.600 C 229.400 181.983 229.984 182.578 230.650 182.500 C 231.332 182.420 231.813 181.729 232.250 181.200 C 232.696 180.660 233.160 180.044 233.250 179.350 C 233.338 178.669 233.030 177.977 232.750 177.350 C 232.390 176.544 231.690 175.914 231.350 175.100 Z " transform="matrix(-0.4205757975578308, 0, 0, 0.4205757975578308, 346, 102.3)"/>
    <path id="ID0.22532706055790186" fill="#E9FF51" stroke="#D0E448" stroke-width="2" d="M 239.500 153 C 250.122 153 259.747 158.491 266.716 167.361 C 273.686 176.231 278 188.481 278 202 C 278 215.519 273.686 227.769 266.716 236.639 C 259.747 245.509 250.122 251 239.500 251 C 228.878 251 219.253 245.509 212.284 236.639 C 205.314 227.769 201 215.519 201 202 C 201 188.481 205.314 176.231 212.284 167.361 C 219.253 158.491 228.878 153 239.500 153 Z " transform="matrix(-0.3318413197994232, 0, 0, 0.3318413197994232, 322.2, 131.05)"/>
    <path id="ID0.8235992449335754" fill="none" stroke="#D0E448" stroke-width="2" stroke-linecap="round" d="M 213.250 189.400 L 219.850 183.500 L 226.250 189.500 L 234 183 L 240.150 189.400 L 247.250 182.700 L 254.350 190.150 " transform="matrix(-0.37486669421195984, 0, 0, 0.37486669421195984, 330.25, 114.8)"/>
    <path id="ID0.5099258632399142" fill="#009933" stroke="#006622" stroke-width="2" stroke-linecap="round" d="M 232 176 C 231.209 174.762 231.462 174.349 231.350 174 C 231.121 173.291 230.697 172.659 230.350 172 C 230.031 171.393 229.750 170.757 229.350 170.200 C 228.514 169.036 227.663 167.863 226.650 166.850 C 225.653 165.853 224.639 164.771 223.350 164.200 C 221.926 163.569 220.301 163.491 218.750 163.350 C 218.082 163.289 217.370 163.342 216.750 163.600 C 216.126 163.860 215.593 164.339 215.150 164.850 C 214.710 165.357 214.420 165.986 214.150 166.600 C 213.868 167.241 213.568 167.903 213.500 168.600 C 213.432 169.301 213.535 170.029 213.750 170.700 C 213.959 171.353 214.299 171.983 214.750 172.500 C 215.234 173.054 215.958 173.352 216.500 173.850 C 216.995 174.305 217.336 174.917 217.850 175.350 C 218.394 175.808 219.006 176.199 219.650 176.500 C 221.610 177.417 223.699 178.063 225.650 179 C 226.275 179.300 226.812 179.763 227.350 180.200 C 227.880 180.631 228.289 181.209 228.850 181.600 C 229.400 181.983 229.984 182.578 230.650 182.500 C 231.332 182.420 231.813 181.729 232.250 181.200 C 232.696 180.660 233.160 180.044 233.250 179.350 C 233.338 178.669 233.030 177.977 232.750 177.350 C 232.390 176.544 231.690 175.914 231.350 175.100 Z " transform="matrix(-0.4205757975578308, 0, 0, 0.4205757975578308, 344.55, 107.35)"/>
    <path id="ID0.5099258632399142" fill="#009933" stroke="#006622" stroke-width="2" stroke-linecap="round" d="M 232 176 C 231.209 174.762 231.462 174.349 231.350 174 C 231.121 173.291 230.697 172.659 230.350 172 C 230.031 171.393 229.750 170.757 229.350 170.200 C 228.514 169.036 227.663 167.863 226.650 166.850 C 225.653 165.853 224.639 164.771 223.350 164.200 C 221.926 163.569 220.301 163.491 218.750 163.350 C 218.082 163.289 217.370 163.342 216.750 163.600 C 216.126 163.860 215.593 164.339 215.150 164.850 C 214.710 165.357 214.420 165.986 214.150 166.600 C 213.868 167.241 213.568 167.903 213.500 168.600 C 213.432 169.301 213.535 170.029 213.750 170.700 C 213.959 171.353 214.299 171.983 214.750 172.500 C 215.234 173.054 215.958 173.352 216.500 173.850 C 216.995 174.305 217.336 174.917 217.850 175.350 C 218.394 175.808 219.006 176.199 219.650 176.500 C 221.610 177.417 223.699 178.063 225.650 179 C 226.275 179.300 226.812 179.763 227.350 180.200 C 227.880 180.631 228.289 181.209 228.850 181.600 C 229.400 181.983 229.984 182.578 230.650 182.500 C 231.332 182.420 231.813 181.729 232.250 181.200 C 232.696 180.660 233.160 180.044 233.250 179.350 C 233.338 178.669 233.030 177.977 232.750 177.350 C 232.390 176.544 231.690 175.914 231.350 175.100 Z " transform="matrix(0.4205757975578308, 0, 0, 0.4205757975578308, 140.2, 107.45)"/>
    <path id="ID0.5099258632399142" fill="#009933" stroke="#006622" stroke-width="2" stroke-linecap="round" d="M 232 176 C 231.209 174.762 231.462 174.349 231.350 174 C 231.121 173.291 230.697 172.659 230.350 172 C 230.031 171.393 229.750 170.757 229.350 170.200 C 228.514 169.036 227.663 167.863 226.650 166.850 C 225.653 165.853 224.639 164.771 223.350 164.200 C 221.926 163.569 220.301 163.491 218.750 163.350 C 218.082 163.289 217.370 163.342 216.750 163.600 C 216.126 163.860 215.593 164.339 215.150 164.850 C 214.710 165.357 214.420 165.986 214.150 166.600 C 213.868 167.241 213.568 167.903 213.500 168.600 C 213.432 169.301 213.535 170.029 213.750 170.700 C 213.959 171.353 214.299 171.983 214.750 172.500 C 215.234 173.054 215.958 173.352 216.500 173.850 C 216.995 174.305 217.336 174.917 217.850 175.350 C 218.394 175.808 219.006 176.199 219.650 176.500 C 221.610 177.417 223.699 178.063 225.650 179 C 226.275 179.300 226.812 179.763 227.350 180.200 C 227.880 180.631 228.289 181.209 228.850 181.600 C 229.400 181.983 229.984 182.578 230.650 182.500 C 231.332 182.420 231.813 181.729 232.250 181.200 C 232.696 180.660 233.160 180.044 233.250 179.350 C 233.338 178.669 233.030 177.977 232.750 177.350 C 232.390 176.544 231.690 175.914 231.350 175.100 Z " transform="matrix(-0.4205757975578308, 0, 0, 0.4205757975578308, 341.8, 105.85)"/>
    <path id="ID0.5099258632399142" fill="#009933" stroke="#006622" stroke-width="2" stroke-linecap="round" d="M 232 176 C 231.209 174.762 231.462 174.349 231.350 174 C 231.121 173.291 230.697 172.659 230.350 172 C 230.031 171.393 229.750 170.757 229.350 170.200 C 228.514 169.036 227.663 167.863 226.650 166.850 C 225.653 165.853 224.639 164.771 223.350 164.200 C 221.926 163.569 220.301 163.491 218.750 163.350 C 218.082 163.289 217.370 163.342 216.750 163.600 C 216.126 163.860 215.593 164.339 215.150 164.850 C 214.710 165.357 214.420 165.986 214.150 166.600 C 213.868 167.241 213.568 167.903 213.500 168.600 C 213.432 169.301 213.535 170.029 213.750 170.700 C 213.959 171.353 214.299 171.983 214.750 172.500 C 215.234 173.054 215.958 173.352 216.500 173.850 C 216.995 174.305 217.336 174.917 217.850 175.350 C 218.394 175.808 219.006 176.199 219.650 176.500 C 221.610 177.417 223.699 178.063 225.650 179 C 226.275 179.300 226.812 179.763 227.350 180.200 C 227.880 180.631 228.289 181.209 228.850 181.600 C 229.400 181.983 229.984 182.578 230.650 182.500 C 231.332 182.420 231.813 181.729 232.250 181.200 C 232.696 180.660 233.160 180.044 233.250 179.350 C 233.338 178.669 233.030 177.977 232.750 177.350 C 232.390 176.544 231.690 175.914 231.350 175.100 Z " transform="matrix(0.4205757975578308, 0, 0, 0.4205757975578308, 143.1, 106)"/>
    <path id="ID0.5099258632399142" fill="#009933" stroke="#006622" stroke-width="2" stroke-linecap="round" d="M 232 176 C 231.209 174.762 231.462 174.349 231.350 174 C 231.121 173.291 230.697 172.659 230.350 172 C 230.031 171.393 229.750 170.757 229.350 170.200 C 228.514 169.036 227.663 167.863 226.650 166.850 C 225.653 165.853 224.639 164.771 223.350 164.200 C 221.926 163.569 220.301 163.491 218.750 163.350 C 218.082 163.289 217.370 163.342 216.750 163.600 C 216.126 163.860 215.593 164.339 215.150 164.850 C 214.710 165.357 214.420 165.986 214.150 166.600 C 213.868 167.241 213.568 167.903 213.500 168.600 C 213.432 169.301 213.535 170.029 213.750 170.700 C 213.959 171.353 214.299 171.983 214.750 172.500 C 215.234 173.054 215.958 173.352 216.500 173.850 C 216.995 174.305 217.336 174.917 217.850 175.350 C 218.394 175.808 219.006 176.199 219.650 176.500 C 221.610 177.417 223.699 178.063 225.650 179 C 226.275 179.300 226.812 179.763 227.350 180.200 C 227.880 180.631 228.289 181.209 228.850 181.600 C 229.400 181.983 229.984 182.578 230.650 182.500 C 231.332 182.420 231.813 181.729 232.250 181.200 C 232.696 180.660 233.160 180.044 233.250 179.350 C 233.338 178.669 233.030 177.977 232.750 177.350 C 232.390 176.544 231.690 175.914 231.350 175.100 Z " transform="matrix(-0.4205757975578308, 0, 0, 0.4205757975578308, 339.3, 105.5)"/>
    <path id="ID0.5099258632399142" fill="#009933" stroke="#006622" stroke-width="2" stroke-linecap="round" d="M 232 176 C 231.209 174.762 231.462 174.349 231.350 174 C 231.121 173.291 230.697 172.659 230.350 172 C 230.031 171.393 229.750 170.757 229.350 170.200 C 228.514 169.036 227.663 167.863 226.650 166.850 C 225.653 165.853 224.639 164.771 223.350 164.200 C 221.926 163.569 220.301 163.491 218.750 163.350 C 218.082 163.289 217.370 163.342 216.750 163.600 C 216.126 163.860 215.593 164.339 215.150 164.850 C 214.710 165.357 214.420 165.986 214.150 166.600 C 213.868 167.241 213.568 167.903 213.500 168.600 C 213.432 169.301 213.535 170.029 213.750 170.700 C 213.959 171.353 214.299 171.983 214.750 172.500 C 215.234 173.054 215.958 173.352 216.500 173.850 C 216.995 174.305 217.336 174.917 217.850 175.350 C 218.394 175.808 219.006 176.199 219.650 176.500 C 221.610 177.417 223.699 178.063 225.650 179 C 226.275 179.300 226.812 179.763 227.350 180.200 C 227.880 180.631 228.289 181.209 228.850 181.600 C 229.400 181.983 229.984 182.578 230.650 182.500 C 231.332 182.420 231.813 181.729 232.250 181.200 C 232.696 180.660 233.160 180.044 233.250 179.350 C 233.338 178.669 233.030 177.977 232.750 177.350 C 232.390 176.544 231.690 175.914 231.350 175.100 Z " transform="matrix(0.4205757975578308, 0, 0, 0.4205757975578308, 145.6, 105.6)"/>
    <path id="ID0.8235992449335754" fill="none" stroke="#D0E448" stroke-width="2" stroke-linecap="round" d="M 213.250 189.400 L 219.850 183.500 L 226.250 189.500 L 234 183 L 240.150 189.400 L 247.250 182.700 L 254.350 190.150 " transform="matrix(-0.37486669421195984, 0, 0, 0.37486669421195984, 330.25, 139.5)"/>
    <path id="ID0.8235992449335754" fill="none" stroke="#D0E448" stroke-width="2" stroke-linecap="round" d="M 213.250 189.400 L 219.850 183.500 L 226.250 189.500 L 234 183 L 240.150 189.400 L 247.250 182.700 L 254.350 190.150 " transform="matrix(-0.528691291809082, 0, 0, 0.37486669421195984, 366.3, 135.25)"/>
    <path id="ID0.8235992449335754" fill="none" stroke="#D0E448" stroke-width="2" stroke-linecap="round" d="M 213.250 189.400 L 219.850 183.500 L 226.250 189.500 L 234 183 L 240.150 189.400 L 247.250 182.700 L 254.350 190.150 " transform="matrix(-0.5816896557807922, 0, 0, 0.37486669421195984, 378.75, 130.65)"/>
    <path id="ID0.8235992449335754" fill="none" stroke="#D0E448" stroke-width="2" stroke-linecap="round" d="M 213.250 189.400 L 219.850 183.500 L 226.250 189.500 L 234 183 L 240.150 189.400 L 247.250 182.700 L 254.350 190.150 " transform="matrix(-0.5907381772994995, 0, 0, 0.37486669421195984, 380.75, 126.55)"/>
    <path id="ID0.8235992449335754" fill="none" stroke="#D0E448" stroke-width="2" stroke-linecap="round" d="M 213.250 189.400 L 219.850 183.500 L 226.250 189.500 L 234 183 L 240.150 189.400 L 247.250 182.700 L 254.350 190.150 " transform="matrix(-0.5816896557807922, 0, 0, 0.37486669421195984, 378.85, 123)"/>
    <path id="ID0.8235992449335754" fill="none" stroke="#D0E448" stroke-width="2" stroke-linecap="round" d="M 213.250 189.400 L 219.850 183.500 L 226.250 189.500 L 234 183 L 240.150 189.400 L 247.250 182.700 L 254.350 190.150 " transform="matrix(-0.528691291809082, 0, 0, 0.37486669421195984, 366.2, 119)"/>
    <path id="ID0.6061547710560262" fill="#000000" stroke="#000000" stroke-width="2" stroke-linecap="round" d="M 222.100 186.850 L 218.600 177.250 L 239.350 177.250 L 236.700 186.350 L 222.100 186.850 Z " transform="matrix(-0.5731709599494934, 0, 0, 0.5731709599494934, 382.25, 88.75)"/>
    <path id="ID0.6061547710560262" fill="#000000" stroke="#000000" stroke-width="2" stroke-linecap="round" d="M 222.100 186.850 L 218.600 177.250 L 239.350 177.250 L 236.700 186.350 L 222.100 186.850 Z " transform="matrix(-0.5731709599494934, 0, 0, 0.5731709599494934, 367.8, 88.5)"/>
    <path id="ID0.7489708689972758" fill="#000000" stroke="none" d="M 236.500 173.750 L 241.350 173.750 L 241.350 175.250 L 236.500 175.250 L 236.500 173.750 Z " transform="matrix(-1.1155515909194946, 0, 0, 1.1155515909194946, 510.4, -2.5)"/>
    <path id="ID0.2612604680471122" fill="#FFFFFF" stroke="none" d="M 213.200 176.650 L 215.100 176.650 L 215.100 188.350 L 213.200 188.350 L 213.200 176.650 Z " transform="matrix(-0.3722831606864929, -0.2351866066455841, -0.2351866066455841, 0.3722831606864929, 377.6, 175.55)"/>
    <path id="ID0.2612604680471122" fill="#FFFFFF" stroke="none" d="M 213.200 176.650 L 215.100 176.650 L 215.100 188.350 L 213.200 188.350 L 213.200 176.650 Z " transform="matrix(-0.3722831606864929, -0.2351866066455841, -0.2351866066455841, 0.3722831606864929, 362.75, 174.9)"/>
    <path id="ID0.6025561904534698" fill="none" stroke="#000000" stroke-width="2" stroke-linecap="round" d="M 235.850 194.350 L 231.350 200.850 L 237.350 206.150 L 227.100 206.250 " transform="matrix(-1.1155515909194946, 0, 0, 1.1155515909194946, 510.4, -2.5)"/>
    <path id="ID0.6025561904534698" fill="none" stroke="#000000" stroke-width="2" stroke-linecap="round" d="M 235.850 194.350 L 231.350 200.850 L 237.350 206.150 L 227.100 206.250 " transform="matrix(1.1155515909194946, 0, 0, 1.1155515909194946, -25.4, -2.5)"/>
    <g id="ID0.5903293360024691" transform="matrix(1, 0, 0, 1, 218, 165)">
      <path id="ID0.7179879313334823" fill="none" stroke="#000000" stroke-width="2" stroke-linecap="round" d="M 253.200 179.750 L 265.500 184.850 L 255 190.350 " transform="matrix(-0.7531750202178955, 0, 0, 0.7531750202178955, 201.8, -101.45)"/>
      <path id="ID0.26264452934265137" fill="none" stroke="#000000" stroke-width="2" stroke-linecap="round" d="M 268.500 169.150 L 260.150 164.500 L 259.600 173.750 " transform="matrix(0.056508734822273254, 0.6137591004371643, 0.6137591004371643, -0.056508734822273254, -106.1, -109.3)"/>
      <path id="ID0.1994128692895174" fill="none" stroke="#000000" stroke-width="2" stroke-linecap="round" d="M 260.850 165.500 L 264.500 173.250 " transform="matrix(0.056508734822273254, 0.6137591004371643, 0.6137591004371643, -0.056508734822273254, -106.1, -109.3)"/>
    </g>
    <g id="ID0.5903293360024691" transform="matrix(1, 0, 0, 1, 218, 165)">
      <path id="ID0.7179879313334823" fill="none" stroke="#000000" stroke-width="2" stroke-linecap="round" d="M 253.200 179.750 L 265.500 184.850 L 255 190.350 " transform="matrix(0.07171884179115295, 0.7497526407241821, 0.7497526407241821, -0.07171884179115295, -115.2, -140.4)"/>
      <path id="ID0.26264452934265137" fill="none" stroke="#000000" stroke-width="2" stroke-linecap="round" d="M 268.500 169.150 L 260.150 164.500 L 259.600 173.750 " transform="matrix(0.6055893301963806, -0.11469534039497375, -0.11469534039497375, -0.6055893301963806, -93.7, 166.8)"/>
      <path id="ID0.1994128692895174" fill="none" stroke="#000000" stroke-width="2" stroke-linecap="round" d="M 260.850 165.500 L 264.500 173.250 " transform="matrix(0.6055893301963806, -0.11469534039497375, -0.11469534039497375, -0.6055893301963806, -93.7, 166.8)"/>
    </g>
  </g>
</svg>