<svg version="1.1" width="101" height="96" viewBox="-1 -1 101 96" xmlns="http://www.w3.org/2000/svg" xmlns:xlink="http://www.w3.org/1999/xlink">
  <!-- Exported by Scratch - http://scratch.mit.edu/ -->
  <path id="ID0.5619839346036315" fill="#0033CC" stroke="#002699" stroke-width="2" stroke-linecap="round" d="M 290.250 222.350 C 291.047 209.623 305.978 201.715 315.500 193 C 317.881 190.821 320.546 191.730 322.500 193 C 324.499 194.299 326.751 197.305 325.500 199.500 C 308.961 215.061 303.071 215.848 303.550 220.600 C 305.828 225.050 319.950 221.131 321.950 225.300 C 323.875 228.431 316.579 235.688 311.400 235.200 C 303.196 234.436 289.755 231.005 290.250 222.350 Z " transform="matrix(0.15048477053642273, -0.2736492455005646, 0.4185485243797302, 0.23016761243343353, -72.3, 100.85)"/>
  <path id="ID0.6155663500539958" fill="#FFD499" stroke="none" d="M 241.250 209 C 243.526 209 245.589 209.924 247.082 211.418 C 248.576 212.911 249.500 214.974 249.500 217.250 C 249.500 219.526 248.576 221.589 247.082 223.082 C 245.589 224.576 243.526 225.500 241.250 225.500 C 238.974 225.500 236.911 224.576 235.418 223.082 C 233.924 221.589 233 219.526 233 217.250 C 233 214.974 233.924 212.911 235.418 211.418 C 236.911 209.924 238.974 209 241.250 209 Z " transform="matrix(0.5496171116828918, -0.11214929074048996, 0.1087508276104927, 0.5329620838165283, -84.45, -21.75)"/>
  <path id="ID0.5486297779716551" fill="#935301" stroke="#663B00" stroke-width="6" stroke-linecap="round" d="M 319.350 238.550 C 307.238 245.500 295.597 266.776 302 278 C 311.189 288.839 325.526 285.577 337.700 286.950 C 347.701 288.070 358.478 286.995 368.500 283.850 C 376.746 282.212 390.961 281.771 391.550 272.850 C 392.439 259.122 383.380 242.675 371 237 C 355.369 229.848 334.427 229.344 319.350 238.550 Z " transform="matrix(-0.17104271054267883, 0.002926786197349429, 0.0031612187158316374, 0.18474271893501282, 114.1, 39.05)"/>
  <path id="ID0.08809070056304336" fill="#FFD499" stroke="#FFD499" stroke-width="2" stroke-linecap="round" d="M 246 185.300 C 245.980 186.048 246.001 186.757 246 187.550 C 245.996 188.249 245.967 188.955 246 189.650 C 246.032 190.318 246.125 190.985 246.200 191.650 C 246.275 192.317 246.350 192.986 246.450 193.650 C 246.550 194.319 246.487 195.051 246.800 195.650 C 247.116 196.255 247.648 196.777 248.250 197.100 C 248.849 197.421 249.571 197.509 250.250 197.500 C 250.916 197.492 251.639 197.409 252.200 197.050 C 252.769 196.685 253.158 196.060 253.450 195.450 C 253.738 194.849 253.850 194.164 253.900 193.500 C 254.047 191.545 254.095 189.568 254.150 187.600 C 254.143 186.901 254.142 186.200 254.150 185.500 C 253.991 181.252 254.228 180.358 253.900 178.850 C 253.715 178.142 253.282 177.502 252.700 177.150 C 251.952 176.691 251.161 176.494 250.350 176.500 C 249.410 176.507 248.387 176.551 247.600 177.050 C 246.923 177.494 246.549 178.360 246.350 179.150 C 246.053 182.515 246.050 183.695 246 185.300 Z " transform="matrix(-2.1979362964630127, 0, 0, 2.6161482334136963, 598.5, -437.5)"/>
  <path id="ID0.0726902256719768" fill="#003FFF" stroke="#0032CC" stroke-width="2" stroke-linecap="round" d="M 209.500 227.500 L 209 179.500 L 215.100 179.250 L 219.300 189.750 L 224.600 179.250 L 240.500 179.500 L 241.500 227.500 L 239 231.500 L 233.500 233.500 L 224 234.500 L 213.500 232.500 L 209.500 227.500 Z " transform="matrix(-0.7016415596008301, 0, 0, 0.5331858396530151, 206.25, -37.8)"/>
  <path id="ID0.8850112343207002" fill="none" stroke="#000000" stroke-width="2" stroke-linecap="round" d="M 240.500 194 L 240.800 194.300 " transform="matrix(-0.5331858396530151, 0, 0, 0.5331858396530151, 181.85, -38.65)"/>
  <path id="ID0.16972909634932876" fill="none" stroke="#000000" stroke-width="2" stroke-linecap="round" d="M 240.500 199.500 L 240.800 199.800 " transform="matrix(-0.5331858396530151, 0, 0, 0.5331858396530151, 181.85, -38.65)"/>
  <g id="ID0.1477178898639977" transform="matrix(1, 0, 0, 1, 25, 21)">
    <path id="ID0.5619839346036315" fill="#003FFF" stroke="#0033CC" stroke-width="2" stroke-linecap="round" d="M 282.550 231 C 287.552 222.187 298.898 220.156 305.550 213 C 310.116 207.219 310.357 198.464 315.500 193 C 317.112 191.297 320.546 191.730 322.500 193 C 324.499 194.299 325.951 197.163 325.500 199.500 C 324.155 205.685 323.260 212.143 319.400 216.700 C 311.601 224.499 301.906 230.848 292 235 C 288.848 236.323 280.939 233.972 282.550 231 Z " transform="matrix(-0.24730902910232544, -0.19070352613925934, -0.2916824221611023, 0.3782610297203064, 150.05, 24.5)"/>
    <path id="ID0.6155663500539958" fill="#FFD499" stroke="none" d="M 241.250 209 C 243.526 209 245.589 209.924 247.082 211.418 C 248.576 212.911 249.500 214.974 249.500 217.250 C 249.500 219.526 248.576 221.589 247.082 223.082 C 245.589 224.576 243.526 225.500 241.250 225.500 C 238.974 225.500 236.911 224.576 235.418 223.082 C 233.924 221.589 233 219.526 233 217.250 C 233 214.974 233.924 212.911 235.418 211.418 C 236.911 209.924 238.974 209 241.250 209 Z " transform="matrix(-0.4348520040512085, -0.07246831804513931, -0.070272296667099, 0.4216746985912323, 130.95, -16.15)"/>
  </g>
  <path id="ID0.5486297779716551" fill="#935301" stroke="#663B00" stroke-width="6" stroke-linecap="round" d="M 319.350 238.550 C 307.238 245.500 295.597 266.776 302 278 C 311.189 288.839 325.526 285.577 337.700 286.950 C 347.701 288.070 358.478 286.995 368.500 283.850 C 376.746 282.212 390.961 281.771 391.550 272.850 C 392.439 259.122 383.380 242.675 371 237 C 355.369 229.848 334.427 229.344 319.350 238.550 Z " transform="matrix(-0.17104271054267883, 0.002926786197349429, 0.0031612187158316374, 0.18474271893501282, 101.75, 39.4)"/>
  <path id="ID0.643749819137156" fill="#FFFFFF" stroke="#000000" stroke-width="2" d="M 230.685 145.911 C 232.843 145.128 234.573 147.394 236.400 148.450 C 237.850 149.144 240.027 149.537 240.500 151.125 C 241.021 152.873 239.856 155.003 238.815 156.339 C 237.774 157.674 236.336 158.500 234.750 158.500 C 233.164 158.500 231.726 157.674 230.685 156.339 C 229.644 155.003 229 153.107 229 151.125 C 229 149.143 229.028 146.611 230.685 145.911 Z " transform="matrix(-0.5331858396530151, 0, 0, 0.5331858396530151, 178.8, -40.65)"/>
  <path id="ID0.643749819137156" fill="#FFFFFF" stroke="#000000" stroke-width="2" d="M 232.650 148.250 C 235.335 145.122 237.535 144.746 238.815 145.911 C 240.061 147.113 240.500 149.090 240.500 151.125 C 240.500 153.160 239.856 155.003 238.815 156.339 C 237.774 157.674 236.336 158.500 234.750 158.500 C 233.164 158.500 231.726 157.674 230.685 156.339 C 229.644 155.003 228.660 152.933 229 151.125 C 229.288 149.559 231.473 149.207 232.650 148.250 Z " transform="matrix(-0.5331858396530151, 0, 0, 0.5331858396530151, 173.8, -40.8)"/>
  <path id="ID0.7692075585946441" fill="none" stroke="#000000" stroke-width="3" stroke-linecap="round" d="M 233.750 150.250 L 234.050 150.550 " transform="matrix(-0.5331858396530151, 0, 0, 0.5331858396530151, 177.75, -40.65)"/>
  <path id="ID0.731148752849549" fill="none" stroke="#000000" stroke-width="3" stroke-linecap="round" d="M 242.500 150 L 242.800 150.300 " transform="matrix(-0.5331858396530151, 0, 0, 0.5331858396530151, 177.75, -40.65)"/>
  <path id="ID0.8540973095223308" fill="none" stroke="#000000" stroke-width="2" stroke-linecap="round" d="M 255.250 160.850 C 255.250 160.850 253.312 160.956 252.400 161.250 C 251.731 161.466 251.089 161.846 250.600 162.350 C 250.012 162.957 249.545 163.708 249.250 164.500 C 248.999 165.176 249.042 165.930 249 166.650 C 248.959 167.348 248.664 168.136 249 168.750 C 249.330 169.354 250.102 169.617 250.750 169.850 C 251.430 170.094 252.182 170.234 252.900 170.150 C 253.936 170.029 255.900 169.250 255.900 169.250 " transform="matrix(-0.36017340421676636, 0, 0, 0.36017340421676636, 142.5, -14.4)"/>
  <g id="ID0.9669731161557138" transform="matrix(0.4246276617050171, -0.06516563147306442, 0.06516563147306442, 0.4246276617050171, 42.55, 48.05)">
    <path id="ID0.36374237248674035" fill="#FFFFFF" stroke="#FFFFFF" stroke-width="2" stroke-linecap="round" d="M 255.650 198 C 256.477 197.339 257.355 198.205 258.300 198.500 C 258.955 198.705 259.634 198.833 260.300 199 C 260.966 199.167 261.640 199.311 262.300 199.500 C 263.039 199.711 263.759 199.996 264.500 200.200 C 265.209 200.395 265.936 200.525 266.650 200.700 C 268.650 201.191 270.653 201.695 272.650 202.200 C 273.484 202.411 274.315 202.643 275.150 202.850 C 275.864 203.026 276.579 203.206 277.300 203.350 C 277.995 203.489 278.696 203.616 279.400 203.700 C 280.096 203.783 280.801 203.799 281.500 203.850 C 282.166 203.899 282.837 203.917 283.500 204 C 284.171 204.084 285.007 203.887 285.500 204.350 C 286 204.820 285.915 205.669 286 206.350 C 286.083 207.011 286 207.684 286 208.350 C 286 209.016 286.033 209.685 286 210.350 C 285.967 211.018 286.113 211.758 285.800 212.350 C 285.453 213.006 284.849 213.612 284.150 213.850 C 280.526 213.723 279.179 213.736 277.400 213.600 C 276.723 213.550 276.054 213.384 275.400 213.200 C 274.716 212.966 274.100 212.519 273.400 212.350 C 272.668 212.173 271.897 212.196 271.150 212.100 C 269.900 211.943 268.782 211.629 267.650 211.500 C 266.694 211.429 265.720 211.664 264.900 211.500 C 264.228 211.362 263.702 210.887 263 210.700 C 256.578 209.278 255.252 209.498 253.300 207.500 C 253.546 203.385 254.079 202.581 254.300 201.200 C 254.412 200.500 254.431 199.774 254.650 199.100 C 254.836 198.526 254.905 197.598 255.500 197.500 Z " transform="matrix(1, 0, 0, 1, -251.5, -196.25)"/>
    <path id="ID0.22580166859552264" fill="none" stroke="#000000" stroke-width="2" stroke-linecap="round" d="M 253.100 202.400 L 263 204.400 " transform="matrix(1, 0, 0, 1, -251.5, -196.25)"/>
    <path id="ID0.35463656252250075" fill="none" stroke="#000000" stroke-width="2" stroke-linecap="round" d="M 286.750 209.150 L 275.900 207.300 " transform="matrix(1, 0, 0, 1, -251.5, -196.25)"/>
  </g>
  <text id="ID0.47367060650140047" fill="#FFFF00" x="191.25" y="175.45" text-anchor="start" font-family="Scratch" font-size="22" transform="matrix(1, 0, 0, 1, 0, 0.5)">BILL WINS!</text>
</svg>