<svg version="1.1" width="132" height="105" viewBox="0 0 132 105" xmlns="http://www.w3.org/2000/svg" xmlns:xlink="http://www.w3.org/1999/xlink">
  <!-- Exported by Scratch - http://scratch.mit.edu/ -->
  <text id="ID0.47367060650140047" fill="#FFFF00" x="191.25" y="175.45" text-anchor="start" font-family="Scratch" font-size="22" transform="matrix(0.7021276354789734, 0, 0, 0.7021276354789734, 0.3, 0)">DARK QUIRKO WINS!</text>
  <path id="ID0.8365832129493356" fill="none" stroke="#666666" stroke-width="2" stroke-linecap="round" d="M 177.350 190 " transform="matrix(1, 0, 0, 1, -523.5, -43)"/>
  <path id="ID0.8365832129493356" fill="none" stroke="#666666" stroke-width="2" stroke-linecap="round" d="M 177.350 190 " transform="matrix(1, 0, 0, 1, -221, -136)"/>
  <path id="ID0.8365832129493356" fill="none" stroke="#666666" stroke-width="2" stroke-linecap="round" d="M 177.350 190 " transform="matrix(1, 0, 0, 1, -379, -202)"/>
  <path id="ID0.8365832129493356" fill="none" stroke="#666666" stroke-width="2" stroke-linecap="round" d="M 177.350 190 " transform="matrix(1, 0, 0, 1, -340, -43)"/>
  <path id="ID0.8365832129493356" fill="none" stroke="#666666" stroke-width="2" stroke-linecap="round" d="M 177.350 190 " transform="matrix(1, 0, 0, 1, -225, -246)"/>
  <path id="ID0.8365832129493356" fill="none" stroke="#666666" stroke-width="2" stroke-linecap="round" d="M 177.350 190 " transform="matrix(1, 0, 0, 1, -34, 5)"/>
  <path id="ID0.8365832129493356" fill="none" stroke="#666666" stroke-width="2" stroke-linecap="round" d="M 177.350 190 " transform="matrix(1, 0, 0, 1, -219, -73)"/>
  <path id="ID0.8365832129493356" fill="none" stroke="#666666" stroke-width="2" stroke-linecap="round" d="M 177.350 190 " transform="matrix(1, 0, 0, 1, -20, -3)"/>
  <path id="ID0.8365832129493356" fill="none" stroke="#666666" stroke-width="2" stroke-linecap="round" d="M 177.350 190 " transform="matrix(1, 0, 0, 1, -231, 7)"/>
  <path id="ID0.8365832129493356" fill="none" stroke="#666666" stroke-width="2" stroke-linecap="round" d="M 177.350 190 " transform="matrix(1, 0, 0, 1, -221, -136)"/>
  <path id="ID0.8365832129493356" fill="none" stroke="#666666" stroke-width="2" stroke-linecap="round" d="M 177.350 190 " transform="matrix(1, 0, 0, 1, -379, -202)"/>
  <path id="ID0.8365832129493356" fill="none" stroke="#666666" stroke-width="2" stroke-linecap="round" d="M 177.350 190 " transform="matrix(1, 0, 0, 1, -340, -43)"/>
  <path id="ID0.8365832129493356" fill="none" stroke="#666666" stroke-width="2" stroke-linecap="round" d="M 177.350 190 " transform="matrix(1, 0, 0, 1, -225, -246)"/>
  <path id="ID0.8365832129493356" fill="none" stroke="#666666" stroke-width="2" stroke-linecap="round" d="M 177.350 190 " transform="matrix(1, 0, 0, 1, -34, 5)"/>
  <path id="ID0.8365832129493356" fill="none" stroke="#666666" stroke-width="2" stroke-linecap="round" d="M 177.350 190 " transform="matrix(1, 0, 0, 1, -219, -73)"/>
  <path id="ID0.8365832129493356" fill="none" stroke="#666666" stroke-width="2" stroke-linecap="round" d="M 177.350 190 " transform="matrix(1, 0, 0, 1, -20, -3)"/>
  <path id="ID0.8365832129493356" fill="none" stroke="#666666" stroke-width="2" stroke-linecap="round" d="M 177.350 190 " transform="matrix(1, 0, 0, 1, -231, 7)"/>
  <g id="ID0.030075508635491133" transform="matrix(0.8523985147476196, 0, 0, 0.8523985147476196, -6.15, -4.15)">
    <path id="ID0.28877942729741335" fill="#000000" stroke="#7F00FF" stroke-width="2" d="M 298.025 324 C 304.460 324 310.138 324.604 314.514 328.198 C 318.827 331.741 321.611 337.901 321.500 343.500 C 321.426 347.192 317.871 350.560 314.500 352 C 309.420 354.167 303.524 353.802 298 353.850 C 292.456 353.635 286.561 353.742 281.500 351.500 C 278.326 350.095 274.995 346.802 275 343.350 C 275.008 337.855 277.268 331.864 281.536 328.198 C 285.835 324.508 291.590 324 298.025 324 Z " transform="matrix(0.3445810079574585, 0.0013453251449391246, -0.0013453251449391246, 0.3445810079574585, -4.05, -18.5)"/>
    <path id="ID0.6785501558333635" fill="#000000" stroke="#FFFFFF" stroke-width="2" d="M 201.600 245.800 C 209.309 245.869 219.929 246.926 223.600 253.800 C 232.205 269.938 233.187 289.303 234.600 307.500 C 235.732 322.089 239.073 338.929 231.600 351.500 C 225.956 360.392 211.998 361.463 201.600 361.500 C 192.327 361.526 180.336 359.646 175.600 351.500 C 167.727 337.950 168.913 320.560 169.600 304.800 C 170.350 287.347 171.836 268.799 180.600 253.500 C 184.213 247.019 194.151 245.734 201.600 245.800 Z " transform="matrix(0.3445810079574585, 0.0013453251449391246, -0.0011733032297343016, 0.30052030086517334, 18.75, -11)"/>
    <path id="ID0.09260875266045332" fill="#000000" stroke="#FFFFFF" stroke-width="2" d="M 264.850 259.700 C 267.723 256.250 276.326 257.195 278.250 261.250 C 282.171 269.530 279.293 279.671 278.100 288.750 C 277.015 296.968 276.524 306.848 270.450 312.550 C 267.023 315.791 258.522 312.915 256.550 308.500 C 253.315 301.226 256.692 292.561 258 284.600 C 259.396 276.115 259.340 266.337 264.850 259.700 Z " transform="matrix(-0.11189959198236465, -0.32590848207473755, 0.32590848207473755, -0.11189959198236465, 29.65, 192.3)"/>
    <g id="ID0.5338938259519637">
      <path id="ID0.09260875266045332" fill="#000000" stroke="#FFFFFF" stroke-width="2" d="M 264.850 259.700 C 267.723 256.250 276.326 257.195 278.250 261.250 C 282.171 269.530 279.293 279.671 278.100 288.750 C 277.015 296.968 276.524 306.848 270.450 312.550 C 267.023 315.791 258.522 312.915 256.550 308.500 C 253.315 301.226 256.692 292.561 258 284.600 C 259.396 276.115 259.340 266.337 264.850 259.700 Z " transform="matrix(0.021953603252768517, -0.34388354420661926, -0.34388354420661926, -0.021953603252768517, 178.45, 174.1)"/>
      <path id="ID0.8909183316864073" fill="#CC99FF" stroke="#330066" stroke-width="2" d="M 265 298 C 268.587 298 271.883 299.211 274.190 301.517 C 275.607 302.911 273.296 304.435 272.250 305.550 C 271.695 308.528 271.262 311.365 269.500 313.550 C 267.093 316.520 265.566 321.017 261.650 322.150 C 259.664 323.149 257.542 320.487 255.810 318.483 C 253.790 316.118 252 313.311 252 310 C 252 306.689 253.457 303.689 255.810 301.517 C 258.163 299.345 261.413 298 265 298 Z " transform="matrix(0.21672546863555908, -0.2678954005241394, -0.2678954005241394, -0.21672546863555908, 121.1, 212.85)"/>
    </g>
    <path id="ID0.5196907157078385" fill="none" stroke="#000000" stroke-width="2" stroke-linecap="round" d="M 240 147.300 L 233.350 84 " transform="matrix(-0.48588621616363525, -0.15002082288265228, -0.08918433636426926, 0.28884950280189514, 214.35, 37.3)"/>
    <path id="ID0.5196907157078385" fill="none" stroke="#000000" stroke-width="2" stroke-linecap="round" d="M 240 147.300 L 233.350 84 " transform="matrix(0.48704275488853455, -0.1462222784757614, 0.0869261771440506, 0.28953707218170166, -40.55, 36.3)"/>
    <path id="ID0.5196907157078385" fill="none" stroke="#000000" stroke-width="2" stroke-linecap="round" d="M 240 147.300 L 231.400 74.100 " transform="matrix(0.4993319809436798, 0.09622426331043243, -0.05720338225364685, 0.2968427836894989, -24.4, -20.25)"/>
    <path id="ID0.7701462963595986" fill="#CC99FF" stroke="#330066" stroke-width="2" d="M 224.675 185.300 C 238.835 185.300 251.666 191.054 260.958 200.350 C 270.249 209.645 276 222.483 276 236.650 C 276 250.817 270.249 263.655 260.958 272.950 C 251.666 282.246 238.835 288 224.675 288 C 210.515 288 197.684 282.246 188.392 272.950 C 179.101 263.655 173.350 250.817 173.350 236.650 C 173.350 222.483 179.101 209.645 188.392 200.350 C 197.684 191.054 210.515 185.300 224.675 185.300 Z " transform="matrix(0.31395891308784485, 0.0012257709167897701, -0.0012257709167897701, 0.31395891308784485, 16.75, -20.5)"/>
    <path id="ID0.5253645898774266" fill="#CC99FF" stroke="#330066" stroke-width="2" d="M 154.025 236 C 160.460 236 166.291 238.465 170.514 242.448 C 174.736 246.430 177.350 251.930 177.350 258 C 177.350 264.070 174.736 269.570 170.514 273.552 C 166.291 277.535 160.460 280 154.025 280 C 147.590 280 141.759 277.535 137.536 273.552 C 133.314 269.570 130.700 264.070 130.700 258 C 130.700 251.930 133.314 246.430 137.536 242.448 C 141.759 238.465 147.590 236 154.025 236 Z " transform="matrix(0.31395891308784485, 0.0012257709167897701, -0.0012257709167897701, 0.31395891308784485, 49.5, -26.3)"/>
    <path id="ID0.28877942729741335" fill="#000000" stroke="#7F00FF" stroke-width="2" d="M 298.025 324 C 304.460 324 310.138 324.604 314.514 328.198 C 318.827 331.741 321.611 337.901 321.500 343.500 C 321.426 347.192 317.871 350.560 314.500 352 C 309.420 354.167 303.524 353.802 298 353.850 C 292.456 353.635 286.561 353.742 281.500 351.500 C 278.326 350.095 274.995 346.802 275 343.350 C 275.008 337.855 277.268 331.864 281.536 328.198 C 285.835 324.508 291.590 324 298.025 324 Z " transform="matrix(-0.3445810079574585, -0.0013453251449391246, -0.0013453251449391246, 0.3445810079574585, 185.6, -17)"/>
    <path id="ID0.8909183316864073" fill="#CC99FF" stroke="#330066" stroke-width="2" d="M 272.600 308.650 C 274.203 308.474 277.440 308.153 278 310 C 278.734 312.667 276.524 316.329 274.190 318.483 C 271.823 320.668 268.235 321.508 265 322 C 262.939 322.278 260.326 321.798 260.350 320.150 C 260.357 316.866 263.442 314.721 265.700 312.750 C 267.354 310.992 269.796 309.399 272.600 308.650 Z " transform="matrix(-0.27972373366355896, -0.20122753083705902, 0.20122753083705902, -0.27972373366355896, 95.35, 214.7)"/>
  </g>
</svg>