<svg version="1.1" width="146" height="89" viewBox="1 1 146 89" xmlns="http://www.w3.org/2000/svg" xmlns:xlink="http://www.w3.org/1999/xlink">
  <!-- Exported by Scratch - http://scratch.mit.edu/ -->
  <text id="ID0.47367060650140047" fill="#FFFF00" x="191.25" y="175.45" text-anchor="start" font-family="Scratch" font-size="22" transform="matrix(0.9459247589111328, 0, 0, 0.9459247589111328, 0.15, 0.3)">TRICKSTER WINS!</text>
  <path id="ID0.8365832129493356" fill="none" stroke="#666666" stroke-width="2" stroke-linecap="round" d="M 177.350 190 " transform="matrix(1, 0, 0, 1, -167, -170)"/>
  <path id="ID0.8365832129493356" fill="none" stroke="#666666" stroke-width="2" stroke-linecap="round" d="M 177.350 190 " transform="matrix(1, 0, 0, 1, -161, -203)"/>
  <path id="ID0.8365832129493356" fill="none" stroke="#666666" stroke-width="2" stroke-linecap="round" d="M 177.350 190 " transform="matrix(1, 0, 0, 1, -319, -269)"/>
  <path id="ID0.8365832129493356" fill="none" stroke="#666666" stroke-width="2" stroke-linecap="round" d="M 177.350 190 " transform="matrix(1, 0, 0, 1, -280, -110)"/>
  <path id="ID0.8365832129493356" fill="none" stroke="#666666" stroke-width="2" stroke-linecap="round" d="M 177.350 190 " transform="matrix(1, 0, 0, 1, -165, -313)"/>
  <path id="ID0.8365832129493356" fill="none" stroke="#666666" stroke-width="2" stroke-linecap="round" d="M 177.350 190 " transform="matrix(1, 0, 0, 1, 26, -62)"/>
  <path id="ID0.8365832129493356" fill="none" stroke="#666666" stroke-width="2" stroke-linecap="round" d="M 177.350 190 " transform="matrix(1, 0, 0, 1, -159, -140)"/>
  <path id="ID0.8365832129493356" fill="none" stroke="#666666" stroke-width="2" stroke-linecap="round" d="M 177.350 190 " transform="matrix(1, 0, 0, 1, 40, -70)"/>
  <path id="ID0.8365832129493356" fill="none" stroke="#666666" stroke-width="2" stroke-linecap="round" d="M 177.350 190 " transform="matrix(1, 0, 0, 1, -171, -60)"/>
  <path id="ID0.08809070056304336" fill="#CC0000" stroke="#CC0000" stroke-width="2" stroke-linecap="round" d="M 246 185.300 C 245.980 186.048 246.001 186.757 246 187.550 C 245.996 188.249 245.967 188.955 246 189.650 C 246.032 190.318 246.202 190.981 246.200 191.650 C 246.195 193.388 245.679 195.206 246.050 196.950 C 246.209 197.783 246.958 198.439 247.700 198.950 C 248.390 199.425 249.264 199.689 250.100 199.700 C 250.987 199.672 251.919 199.407 252.650 198.900 C 253.338 198.420 254.043 197.780 254.150 197 C 254.561 193.880 254.151 190.691 254.150 187.600 C 254.150 186.827 254.142 186.200 254.150 185.500 C 253.991 181.252 254.228 180.358 253.900 178.850 C 253.715 178.142 253.282 177.502 252.700 177.150 C 251.952 176.691 251.161 176.494 250.350 176.500 C 249.410 176.507 248.387 176.551 247.600 177.050 C 246.923 177.494 246.549 178.360 246.350 179.150 C 246.053 182.515 246.050 183.695 246 185.300 Z " transform="matrix(-1.985660195350647, 0, 0, 2.3634815216064453, 568.8, -389.8)"/>
  <path id="ID0.5486297779716551" fill="#000000" stroke="#000000" stroke-width="6" stroke-linecap="round" d="M 319.350 238.550 C 307.238 245.500 295.597 266.776 302 278 C 311.189 288.839 325.526 285.577 337.700 286.950 C 347.701 288.070 358.478 286.995 368.500 283.850 C 376.746 282.212 390.961 281.771 391.550 272.850 C 392.439 259.122 383.380 242.675 371 237 C 355.369 229.848 334.427 229.344 319.350 238.550 Z " transform="matrix(-0.15452346205711365, 0.0026441181544214487, 0.0028559095226228237, 0.16690032184123993, 116.1, 40.5)"/>
  <path id="ID0.5486297779716551" fill="#000000" stroke="#000000" stroke-width="6" stroke-linecap="round" d="M 319.350 238.550 C 307.238 245.500 295.597 266.776 302 278 C 311.189 288.839 325.526 285.577 337.700 286.950 C 347.701 288.070 358.478 286.995 368.500 283.850 C 376.746 282.212 390.961 281.771 391.550 272.850 C 392.439 259.122 383.380 242.675 371 237 C 355.369 229.848 334.427 229.344 319.350 238.550 Z " transform="matrix(-0.15452346205711365, 0.0026441181544214487, 0.0028559095226228237, 0.16690032184123993, 133.75, 40.3)"/>
  <path id="ID0.643749819137156" fill="#FF9400" stroke="#000000" stroke-width="2" d="M 234.750 143.750 C 236.336 143.750 237.774 144.576 238.815 145.911 C 239.856 147.247 240.500 149.090 240.500 151.125 C 240.500 153.160 240.321 155.850 238.815 156.339 C 237.295 156.821 236.206 152.854 234.300 152.700 C 232.631 152.854 231.970 156.801 230.685 156.339 C 229.281 155.830 229 153.160 229 151.125 C 229 149.090 229.644 147.247 230.685 145.911 C 231.726 144.576 233.164 143.750 234.750 143.750 Z " transform="matrix(-0.481690913438797, 0, 0, 0.481690913438797, 188.35, -31.25)"/>
  <path id="ID0.643749819137156" fill="#FF9400" stroke="#000000" stroke-width="2" d="M 234.750 143.750 C 236.336 143.750 237.774 144.576 238.815 145.911 C 239.856 147.247 240.500 149.090 240.500 151.125 C 240.500 153.160 240.300 155.435 238.815 156.339 C 237.515 157.121 236.089 154.006 234.300 153.750 C 232.942 154.006 231.859 157.102 230.685 156.339 C 229.251 155.418 229 153.160 229 151.125 C 229 149.090 229.644 147.247 230.685 145.911 C 231.726 144.576 233.164 143.750 234.750 143.750 Z " transform="matrix(-0.481690913438797, 0, 0, 0.481690913438797, 183.85, -31.5)"/>
  <path id="ID0.8540973095223308" fill="none" stroke="#000000" stroke-width="2" stroke-linecap="round" d="M 255.250 160.850 C 255.250 160.850 253.312 160.956 252.400 161.250 C 251.731 161.466 251.089 161.846 250.600 162.350 C 250.012 162.957 249.545 163.708 249.250 164.500 C 248.999 165.176 249.042 165.930 249 166.650 C 248.959 167.348 248.664 168.136 249 168.750 C 249.330 169.354 250.102 169.617 250.750 169.850 C 251.430 170.094 252.182 170.234 252.900 170.150 C 253.936 170.029 255.900 169.250 255.900 169.250 " transform="matrix(-0.32538798451423645, 0, 0, 0.32538798451423645, 155.6, -7.45)"/>
  <g id="ID0.034603113774210215" transform="matrix(1, 0, 0, 1, -2, 9)">
    <path id="ID0.8865274041891098" fill="#000000" stroke="#000000" stroke-width="2" stroke-linecap="round" d="M 206.500 158.750 L 204.500 163.500 L 201 175 L 195.750 173 L 199.250 161.500 L 177.900 156.800 L 179.650 151.700 L 206.500 158.750 Z " transform="matrix(0.37955331802368164, 0.21052879095077515, -0.27385810017585754, 0.49372705817222595, 20.15, -87.7)"/>
    <g id="ID0.1477178898639977">
      <path id="ID0.5619839346036315" fill="#CC0000" stroke="#990000" stroke-width="2" stroke-linecap="round" d="M 282.550 231 C 306.841 200.371 308.320 199.171 315.500 193 C 318.114 191.163 320.546 191.730 322.500 193 C 324.499 194.299 326.520 196.941 325.500 199.500 C 309.865 219.642 303.238 227.753 292 235 C 288.841 236.950 281.120 234.340 282.550 231 Z " transform="matrix(0.27574583888053894, -0.05970574542880058, -0.09132039546966553, -0.4217553734779358, -5.65, 150.25)"/>
      <path id="ID0.6155663500539958" fill="#990000" stroke="#660000" stroke-width="2" d="M 241.250 209 C 243.526 209 245.589 209.924 247.082 211.418 C 248.576 212.911 249.500 214.974 249.500 217.250 C 249.500 219.526 248.576 221.589 247.082 223.082 C 245.589 224.576 243.526 225.500 241.250 225.500 C 238.974 225.500 236.911 224.576 235.418 223.082 C 233.924 221.589 233 219.526 233 217.250 C 233 214.974 233.924 212.911 235.418 211.418 C 236.911 209.924 238.974 209 241.250 209 Z " transform="matrix(0.3033342957496643, -0.2580869793891907, -0.2502661943435669, -0.29414239525794983, 33.45, 160.7)"/>
    </g>
  </g>
  <g id="ID0.034603113774210215" transform="matrix(1, 0, 0, 1, -2, 9)">
    <path id="ID0.8865274041891098" fill="#000000" stroke="#000000" stroke-width="2" stroke-linecap="round" d="M 206.500 158.750 L 204.500 163.500 L 201 175 L 195.750 173 L 199.250 161.500 L 177.900 156.800 L 179.650 151.700 L 206.500 158.750 Z " transform="matrix(-0.37955331802368164, 0.21052879095077515, 0.27385810017585754, 0.49372705817222595, 128, -86.7)"/>
    <g id="ID0.1477178898639977">
      <path id="ID0.5619839346036315" fill="#CC0000" stroke="#990000" stroke-width="2" stroke-linecap="round" d="M 282.550 231 C 306.841 200.371 308.320 199.171 315.500 193 C 318.114 191.163 320.546 191.730 322.500 193 C 324.499 194.299 326.520 196.941 325.500 199.500 C 309.865 219.642 303.238 227.753 292 235 C 288.841 236.950 281.120 234.340 282.550 231 Z " transform="matrix(-0.27574583888053894, -0.05970574542880058, 0.09132039546966553, -0.4217553734779358, 153.85, 151.25)"/>
      <path id="ID0.6155663500539958" fill="#990000" stroke="#660000" stroke-width="2" d="M 241.250 209 C 243.526 209 245.589 209.924 247.082 211.418 C 248.576 212.911 249.500 214.974 249.500 217.250 C 249.500 219.526 248.576 221.589 247.082 223.082 C 245.589 224.576 243.526 225.500 241.250 225.500 C 238.974 225.500 236.911 224.576 235.418 223.082 C 233.924 221.589 233 219.526 233 217.250 C 233 214.974 233.924 212.911 235.418 211.418 C 236.911 209.924 238.974 209 241.250 209 Z " transform="matrix(-0.3033342957496643, -0.2580869793891907, 0.2502661943435669, -0.29414239525794983, 114.7, 161.7)"/>
    </g>
  </g>
</svg>