<svg version="1.1" width="742" height="495" viewBox="7 28 742 495" xmlns="http://www.w3.org/2000/svg" xmlns:xlink="http://www.w3.org/1999/xlink">
  <!-- Exported by Scratch - http://scratch.mit.edu/ -->
  <path id="ID0.10305524663999677" fill="#00CCCC" stroke="none" d="M 0 1 L 480 1 L 480 360 L 0 360 L 0 1 Z " transform="matrix(1, 0, 0, 1.0445683002471924, 0, -16)"/>
  <g id="ID0.26717480923980474">
    <path id="ID0.5254235062748194" fill="#663B00" stroke="none" d="M 164 204 L 197 204 L 197 238 L 164 238 L 164 204 Z " transform="matrix(0.842856228351593, 0.007635816466063261, -0.007635816466063261, 0.842856228351593, 34.45, -40.5)"/>
    <path id="ID0.5293379337526858" fill="#3D2200" stroke="#3D2200" stroke-width="2" stroke-linecap="round" d="M 185 173 L 159 202 L 203 204 L 185 173 Z " transform="matrix(0.842856228351593, 0.007635816466063261, -0.007635816466063261, 0.842856228351593, 34.4, -38)"/>
  </g>
  <path id="ID0.12170489924028516" fill="#00551B" stroke="none" stroke-linecap="round" d="M 51 52 C 130.724 55.003 205.149 99.414 273.969 139.807 C 353.880 186.717 475.344 236.852 491 309 C 501.194 355.982 385.459 370.073 327 380 C 276.390 387.676 224.318 371.041 175 360 C 140.573 352.298 101.375 345.545 76.031 322.193 C 50.688 298.840 42.786 263.366 35 231 C 27.155 198.417 24.536 163.678 27 130 C 29.954 103.067 23.869 50.979 51 52 Z " transform="matrix(0.8436249494552612, -0.5369328856468201, 0.5369328856468201, 0.8436249494552612, -69.65, 175.9)"/>
  <path id="ID0.12170489924028516" fill="#01842A" stroke="none" stroke-linecap="round" d="M 51 52 C 130.724 55.003 205.149 99.414 273.969 139.807 C 353.880 186.717 475.344 236.852 491 309 C 501.194 355.982 385.459 370.073 327 380 C 276.390 387.676 224.318 371.041 175 360 C 140.573 352.298 101.375 345.545 76.031 322.193 C 50.688 298.840 42.786 263.366 35 231 C 27.155 198.417 24.536 163.678 27 130 C 29.954 103.067 23.869 50.979 51 52 Z " transform="matrix(0.7389459013938904, -0.6737647652626038, 0.6737647652626038, 0.7389459013938904, 9.55, 291)"/>
  <path id="ID0.12170489924028516" fill="#009933" stroke="none" stroke-linecap="round" d="M 51 52 C 130.724 55.003 205.149 99.414 273.969 139.807 C 353.880 186.717 475.344 236.852 491 309 C 501.194 355.982 385.459 370.073 327 380 C 276.390 387.676 224.318 371.041 175 360 C 140.573 352.298 101.375 345.545 76.031 322.193 C 50.688 298.840 42.786 263.366 35 231 C 27.155 198.417 24.536 163.678 27 130 C 29.954 103.067 23.869 50.979 51 52 Z " transform="matrix(0.9837834239006042, -0.1793605089187622, 0.1793605089187622, 0.9837834239006042, -190.7, 126.95)"/>
  <g id="ID0.26717480923980474">
    <path id="ID0.5254235062748194" fill="#995900" stroke="none" d="M 164 204 L 197 204 L 197 238 L 164 238 L 164 204 Z " transform="matrix(0.792290449142456, 0.2876468598842621, -0.2876468598842621, 0.792290449142456, 91.95, -3.15)"/>
    <path id="ID0.5293379337526858" fill="#663B00" stroke="#663B00" stroke-width="2" stroke-linecap="round" d="M 185 173 L 159 202 L 203 204 L 185 173 Z " transform="matrix(0.792290449142456, 0.2876468598842621, -0.2876468598842621, 0.792290449142456, 91.05, -0.75)"/>
  </g>
  <g id="ID0.26717480923980474">
    <path id="ID0.5254235062748194" fill="#995900" stroke="none" d="M 164 204 L 197 204 L 197 238 L 164 238 L 164 204 Z " transform="matrix(0.792290449142456, 0.2876468598842621, -0.2876468598842621, 0.792290449142456, 148.45, 14.95)"/>
    <path id="ID0.5293379337526858" fill="#663B00" stroke="#663B00" stroke-width="2" stroke-linecap="round" d="M 185 173 L 159 202 L 203 204 L 185 173 Z " transform="matrix(0.792290449142456, 0.2876468598842621, -0.2876468598842621, 0.792290449142456, 147.55, 17.3)"/>
  </g>
  <g id="ID0.26717480923980474">
    <path id="ID0.5254235062748194" fill="#995900" stroke="none" d="M 164 204 L 197 204 L 197 238 L 164 238 L 164 204 Z " transform="matrix(0.7628293037414551, 0.35854753851890564, -0.35854753851890564, 0.7628293037414551, 225.2, 35.45)"/>
    <path id="ID0.5293379337526858" fill="#663B00" stroke="#663B00" stroke-width="2" stroke-linecap="round" d="M 185 173 L 159 202 L 203 204 L 185 173 Z " transform="matrix(0.7628293037414551, 0.35854753851890564, -0.35854753851890564, 0.7628293037414551, 224.1, 37.7)"/>
  </g>
  <g id="ID0.26717480923980474">
    <path id="ID0.5254235062748194" fill="#663B00" stroke="none" d="M 164 204 L 197 204 L 197 238 L 164 238 L 164 204 Z " transform="matrix(0.8189260363578796, -0.19956205785274506, 0.19956205785274506, 0.8189260363578796, 84.15, 59)"/>
    <path id="ID0.5293379337526858" fill="#3D2200" stroke="#3D2200" stroke-width="2" stroke-linecap="round" d="M 185 173 L 159 202 L 203 204 L 185 173 Z " transform="matrix(0.8189260363578796, -0.19956205785274506, 0.19956205785274506, 0.8189260363578796, 84.7, 61.45)"/>
  </g>
  <g id="ID0.26717480923980474">
    <path id="ID0.5254235062748194" fill="#663B00" stroke="none" d="M 164 204 L 197 204 L 197 238 L 164 238 L 164 204 Z " transform="matrix(0.8189260363578796, -0.19956205785274506, 0.19956205785274506, 0.8189260363578796, 151.8, 44.95)"/>
    <path id="ID0.5293379337526858" fill="#3D2200" stroke="#3D2200" stroke-width="2" stroke-linecap="round" d="M 185 173 L 159 202 L 203 204 L 185 173 Z " transform="matrix(0.8189260363578796, -0.19956205785274506, 0.19956205785274506, 0.8189260363578796, 152.35, 47.4)"/>
  </g>
  <g id="ID0.26717480923980474">
    <path id="ID0.5254235062748194" fill="#663B00" stroke="none" d="M 164 204 L 197 204 L 197 238 L 164 238 L 164 204 Z " transform="matrix(0.8189260363578796, -0.19956205785274506, 0.19956205785274506, 0.8189260363578796, 215.7, 30.35)"/>
    <path id="ID0.5293379337526858" fill="#3D2200" stroke="#3D2200" stroke-width="2" stroke-linecap="round" d="M 185 173 L 159 202 L 203 204 L 185 173 Z " transform="matrix(0.8189260363578796, -0.19956205785274506, 0.19956205785274506, 0.8189260363578796, 216.25, 32.8)"/>
  </g>
  <g id="ID0.26717480923980474" transform="matrix(1, 0, 0, 1, -172.7, -62.15)">
    <path id="ID0.5254235062748194" fill="#995900" stroke="none" d="M 164 204 L 197 204 L 197 238 L 164 238 L 164 204 Z " transform="matrix(0.7628293037414551, 0.35854753851890564, -0.35854753851890564, 0.7628293037414551, 225.2, 35.45)"/>
    <path id="ID0.5293379337526858" fill="#663B00" stroke="#663B00" stroke-width="2" stroke-linecap="round" d="M 185 173 L 159 202 L 203 204 L 185 173 Z " transform="matrix(0.7628293037414551, 0.35854753851890564, -0.35854753851890564, 0.7628293037414551, 224.1, 37.7)"/>
  </g>
  <g id="ID0.26717480923980474" transform="matrix(1, 0, 0, 1, -228.7, -84.15)">
    <path id="ID0.5254235062748194" fill="#995900" stroke="none" d="M 164 204 L 197 204 L 197 238 L 164 238 L 164 204 Z " transform="matrix(0.7628293037414551, 0.35854753851890564, -0.35854753851890564, 0.7628293037414551, 225.2, 35.45)"/>
    <path id="ID0.5293379337526858" fill="#663B00" stroke="#663B00" stroke-width="2" stroke-linecap="round" d="M 185 173 L 159 202 L 203 204 L 185 173 Z " transform="matrix(0.7628293037414551, 0.35854753851890564, -0.35854753851890564, 0.7628293037414551, 224.1, 37.7)"/>
  </g>
  <g id="ID0.26717480923980474" transform="matrix(1, 0, 0, 1, -283.7, -102.65)">
    <path id="ID0.5254235062748194" fill="#995900" stroke="none" d="M 164 204 L 197 204 L 197 238 L 164 238 L 164 204 Z " transform="matrix(0.7628293037414551, 0.35854753851890564, -0.35854753851890564, 0.7628293037414551, 225.2, 35.45)"/>
    <path id="ID0.5293379337526858" fill="#663B00" stroke="#663B00" stroke-width="2" stroke-linecap="round" d="M 185 173 L 159 202 L 203 204 L 185 173 Z " transform="matrix(0.7628293037414551, 0.35854753851890564, -0.35854753851890564, 0.7628293037414551, 224.1, 37.7)"/>
  </g>
</svg>