<svg version="1.1" width="46" height="38" viewBox="6 9 46 38" xmlns="http://www.w3.org/2000/svg" xmlns:xlink="http://www.w3.org/1999/xlink">
  <defs>
    <linearGradient id="grad_1" y2="1">
      <stop offset="0" stop-color="#CCFFDD" stop-opacity="1"/>
      <stop offset="1" stop-color="#00FFFF" stop-opacity="1"/>
    </linearGradient>
  </defs>
  <!-- Exported by Scratch - http://scratch.mit.edu/ -->
  <path id="ID0.5806130385026336" fill="url(#grad_1)" stroke="#003FFF" stroke-width="2" stroke-linecap="round" d="M 239.750 188.850 C 239.089 187.846 238.262 187.002 237.400 186.200 C 236.829 185.669 236.191 185.210 235.600 184.700 C 235.091 184.261 234.600 183.800 234.100 183.350 C 233.600 182.900 233.063 182.487 232.600 182 C 232.111 181.485 231.726 180.877 231.250 180.350 C 230.326 179.327 229.318 178.378 228.400 177.350 C 227.934 176.828 227.423 176.320 227.100 175.700 C 226.779 175.083 226.380 174.385 226.500 173.700 C 226.622 173.008 227.162 172.384 227.750 172 C 228.850 171.281 230.168 170.044 231.400 170.500 C 233.543 171.293 234.708 173.664 236.400 175.200 C 237.406 176.113 238.536 176.894 239.500 177.850 C 240.489 178.830 241.249 180.032 242.250 181 C 242.758 181.491 243.937 182.263 244 182.200 C 244.063 182.137 243.193 181.045 242.750 180.500 C 242.326 179.978 241.585 179.646 241.400 179 C 241.214 178.350 241.427 177.594 241.750 177 C 242.077 176.400 242.632 175.891 243.250 175.600 C 243.857 175.314 244.598 175.189 245.250 175.350 C 245.900 175.510 246.616 176.710 246.900 176.500 C 247.191 176.285 246.183 175.151 246.400 174.500 C 246.617 173.849 247.330 173.349 248 173.200 C 248.670 173.051 249.420 173.333 250 173.700 C 250.609 174.085 251.291 175.401 251.400 175.350 C 251.509 175.299 250.655 174.044 250.750 173.350 C 250.841 172.686 251.315 172.025 251.900 171.700 C 252.483 171.376 253.255 171.432 253.900 171.600 C 254.594 171.780 255.211 172.228 255.750 172.700 C 256.839 173.655 257.857 174.710 258.750 175.850 C 260.028 177.482 261.191 179.218 262.250 181 C 262.613 181.611 262.773 182.326 263 183 C 263.222 183.659 263.497 184.312 263.600 185 C 263.699 185.659 263.600 186.334 263.600 187 C 263.600 187.666 263.790 188.362 263.600 189 C 263.408 189.646 262.014 190.587 262.500 190.700 C 263.514 190.937 265.210 189.494 266.600 189.700 C 267.331 189.808 267.671 190.797 267.900 191.500 C 268.126 192.197 268.110 192.998 267.900 193.700 C 267.708 194.342 267.240 194.893 266.750 195.350 C 266.220 195.845 265.481 196.066 264.900 196.500 C 264.361 196.902 263.933 197.440 263.400 197.850 C 261.766 199.107 260.078 200.303 258.400 201.500 C 257.814 201.918 257.224 202.341 256.600 202.700 C 256.006 203.042 255.435 203.600 254.750 203.600 C 254.065 203.600 253.451 203.107 252.900 202.700 C 252.350 202.294 251.652 201.866 251.500 201.200 C 251.345 200.522 251.755 199.804 252.100 199.200 C 252.439 198.607 253.652 198.080 253.500 197.700 C 253.352 197.330 252.165 197.733 251.500 197.700 C 250.832 197.667 250.150 197.659 249.500 197.500 C 248.773 197.323 248.079 197.015 247.400 196.700 C 246.710 196.380 246.039 196.011 245.400 195.600 C 244.820 195.227 244.269 194.803 243.750 194.350 C 243.218 193.885 242.656 193.428 242.250 192.850 C 241.861 192.295 241.726 191.595 241.400 191 C 241.058 190.376 240.639 189.796 240.250 189.200 C 240.139 189.030 240.103 188.913 239.900 188.700 Z " transform="matrix(1, 0, 0, 1, -218, -159)"/>
  <text id="ID0.1475401883944869" fill="#003FFF" x="245.65" y="188.65" text-anchor="start" font-family="Helvetica" font-size="22" transform="matrix(0.4716981053352356, 0, 0, 0.4716981053352356, 27.3, 21.75)">P1</text>
</svg>