<svg version="1.1" width="64" height="25" viewBox="-1 -1 64 25" xmlns="http://www.w3.org/2000/svg" xmlns:xlink="http://www.w3.org/1999/xlink">
  <defs>
    <linearGradient id="grad_1" x2="1">
      <stop offset="0" stop-color="#001966" stop-opacity="0"/>
      <stop offset="1" stop-color="#001966" stop-opacity="1"/>
    </linearGradient>
    <radialGradient id="grad_2" cx="0.6033" cy="0.8965000000000001" r="1.16545">
      <stop offset="0" stop-color="#001966" stop-opacity="1"/>
      <stop offset="1" stop-color="#FF00BF" stop-opacity="1"/>
    </radialGradient>
    <radialGradient id="grad_3" cx="0.512" cy="0.462" r="0.6994">
      <stop offset="0" stop-color="#663B00" stop-opacity="1"/>
      <stop offset="1" stop-color="#FF9400" stop-opacity="1"/>
    </radialGradient>
    <radialGradient id="grad_4" cx="0.5325" cy="0.4526" r="0.71162">
      <stop offset="0" stop-color="#001966" stop-opacity="1"/>
      <stop offset="1" stop-color="#FF00BF" stop-opacity="1"/>
    </radialGradient>
  </defs>
  <!-- Exported by Scratch - http://scratch.mit.edu/ -->
  <path id="ID0.8365832129493356" fill="none" stroke="#666666" stroke-width="2" stroke-linecap="round" d="M 177.350 190 " transform="matrix(1, 0, 0, 1, -295, -218)"/>
  <path id="ID0.8365832129493356" fill="none" stroke="#666666" stroke-width="2" stroke-linecap="round" d="M 177.350 190 " transform="matrix(1, 0, 0, 1, -453, -284)"/>
  <path id="ID0.8365832129493356" fill="none" stroke="#666666" stroke-width="2" stroke-linecap="round" d="M 177.350 190 " transform="matrix(1, 0, 0, 1, -414, -125)"/>
  <path id="ID0.8365832129493356" fill="none" stroke="#666666" stroke-width="2" stroke-linecap="round" d="M 177.350 190 " transform="matrix(1, 0, 0, 1, -299, -328)"/>
  <path id="ID0.8365832129493356" fill="none" stroke="#666666" stroke-width="2" stroke-linecap="round" d="M 177.350 190 " transform="matrix(1, 0, 0, 1, -108, -77)"/>
  <path id="ID0.8365832129493356" fill="none" stroke="#666666" stroke-width="2" stroke-linecap="round" d="M 177.350 190 " transform="matrix(1, 0, 0, 1, -293, -155)"/>
  <path id="ID0.8365832129493356" fill="none" stroke="#666666" stroke-width="2" stroke-linecap="round" d="M 177.350 190 " transform="matrix(1, 0, 0, 1, -94, -85)"/>
  <path id="ID0.8365832129493356" fill="none" stroke="#666666" stroke-width="2" stroke-linecap="round" d="M 177.350 190 " transform="matrix(1, 0, 0, 1, -305, -75)"/>
  <path id="ID0.8365832129493356" fill="none" stroke="#666666" stroke-width="2" stroke-linecap="round" d="M 177.350 190 " transform="matrix(1, 0, 0, 1, -447, -161)"/>
  <path id="ID0.8365832129493356" fill="none" stroke="#666666" stroke-width="2" stroke-linecap="round" d="M 177.350 190 " transform="matrix(1, 0, 0, 1, -605, -227)"/>
  <path id="ID0.8365832129493356" fill="none" stroke="#666666" stroke-width="2" stroke-linecap="round" d="M 177.350 190 " transform="matrix(1, 0, 0, 1, -566, -68)"/>
  <path id="ID0.8365832129493356" fill="none" stroke="#666666" stroke-width="2" stroke-linecap="round" d="M 177.350 190 " transform="matrix(1, 0, 0, 1, -451, -271)"/>
  <path id="ID0.8365832129493356" fill="none" stroke="#666666" stroke-width="2" stroke-linecap="round" d="M 177.350 190 " transform="matrix(1, 0, 0, 1, -260, -20)"/>
  <path id="ID0.8365832129493356" fill="none" stroke="#666666" stroke-width="2" stroke-linecap="round" d="M 177.350 190 " transform="matrix(1, 0, 0, 1, -445, -98)"/>
  <path id="ID0.8365832129493356" fill="none" stroke="#666666" stroke-width="2" stroke-linecap="round" d="M 177.350 190 " transform="matrix(1, 0, 0, 1, -246, -28)"/>
  <path id="ID0.8365832129493356" fill="none" stroke="#666666" stroke-width="2" stroke-linecap="round" d="M 177.350 190 " transform="matrix(1, 0, 0, 1, -457, -18)"/>
  <g id="ID0.5264497869648039" transform="matrix(1, 0, 0, 1, 0.5, 0)">
    <path id="ID0.05930571397766471" fill="url(#grad_1)" stroke="url(#grad_2)" stroke-width="2" stroke-linecap="round" d="M 267.200 168.900 C 268.604 168.713 269.116 168.329 269.700 168.300 C 271.183 168.227 272.671 168.468 274.150 168.600 C 274.903 168.667 275.661 169.061 276.400 168.900 C 277.054 168.757 277.389 167.860 278.050 167.750 C 278.716 167.639 279.360 168.087 280 168.300 C 281.309 168.736 282.555 169.391 283.900 169.700 C 284.614 169.864 285.369 169.651 286.100 169.700 C 286.854 169.751 287.634 169.758 288.350 170 C 289.043 170.234 289.626 170.719 290.250 171.100 C 290.825 171.452 291.523 171.679 291.950 172.200 C 292.395 172.743 292.619 173.461 292.750 174.150 C 292.890 174.886 292.842 175.656 292.750 176.400 C 292.657 177.149 292.393 177.870 292.200 178.600 C 292.027 179.252 291.506 179.891 291.650 180.550 C 291.820 181.331 292.710 181.777 293.050 182.500 C 293.371 183.183 293.761 183.962 293.600 184.700 C 293.444 185.417 292.719 185.881 292.200 186.400 C 291.698 186.902 291.187 187.436 290.550 187.750 C 289.873 188.084 289.092 188.158 288.350 188.300 C 287.608 188.442 286.854 188.549 286.100 188.600 C 285.369 188.649 284.626 188.696 283.900 188.600 C 283.231 188.511 282.611 188.184 281.950 188.050 C 281.209 187.900 280.455 187.705 279.700 187.750 C 279.027 187.790 278.400 188.120 277.750 188.300 C 277.018 188.503 276.308 188.848 275.550 188.900 C 274.812 188.950 274.028 188.895 273.350 188.600 C 272.678 188.307 272.297 187.546 271.650 187.200 C 271.055 186.882 270.373 186.601 269.700 186.650 C 268.917 186.707 268.262 187.312 267.500 187.500 C 266.768 187.681 266.002 187.801 265.250 187.750 C 264.497 187.699 263.733 187.521 263.050 187.200 C 262.327 186.860 261.753 186.261 261.100 185.800 C 260.455 185.345 259.860 184.796 259.150 184.450 C 258.543 184.155 257.861 184.035 257.200 183.900 C 256.476 183.752 255.660 183.934 255 183.600 C 254.307 183.249 253.925 182.473 253.350 181.950 C 252.808 181.456 252.322 180.843 251.650 180.550 C 250.972 180.255 250.188 180.300 249.450 180.250 C 248.702 180.200 247.948 180.289 247.200 180.250 C 246.365 180.206 245.536 180.042 244.700 180 C 243.869 179.958 243.026 180.102 242.200 180 C 241.530 179.917 240.911 179.585 240.250 179.450 C 239.526 179.302 238.783 179.244 238.050 179.150 C 236.569 178.961 234.544 179.258 233.600 178.600 C 233.144 178.283 234.572 177.443 235.250 177.200 C 235.955 176.947 236.752 177.242 237.500 177.200 C 238.236 177.159 238.984 177.127 239.700 176.950 C 240.478 176.758 241.161 176.235 241.950 176.100 C 243.414 175.849 244.928 175.996 246.400 175.800 C 247.069 175.711 247.708 175.459 248.350 175.250 C 249.091 175.009 249.813 174.705 250.550 174.450 C 251.928 173.973 253.311 173.494 254.700 173.050 C 255.343 172.845 256.001 172.683 256.650 172.500 C 257.299 172.317 257.937 172.077 258.600 171.950 C 259.424 171.793 260.300 171.902 261.100 171.650 C 261.811 171.426 262.357 170.824 263.050 170.550 C 264.680 169.905 266.389 169.462 268.050 168.900 Z " transform="matrix(1, 0, 0, 1, -232.2, -166.05)"/>
    <path id="ID0.4308868828229606" fill="url(#grad_3)" stroke="none" d="M 278.875 172.200 C 282.013 172.200 284.857 173.382 286.916 175.292 C 288.975 177.202 290.250 179.839 290.250 182.750 C 290.250 185.661 288.975 188.298 286.916 190.208 C 284.857 192.118 282.013 193.300 278.875 193.300 C 275.737 193.300 272.893 192.118 270.834 190.208 C 268.775 188.298 267.500 185.661 267.500 182.750 C 267.500 179.839 268.775 177.202 270.834 175.292 C 272.893 173.382 275.737 172.200 278.875 172.200 Z " transform="matrix(1, 0, 0, 1, -230.3, -170.1)"/>
    <path id="ID0.8929827786050737" fill="url(#grad_4)" stroke="none" d="M 280.275 169.450 C 283.344 169.450 286.126 170.632 288.139 172.542 C 290.153 174.452 291.400 177.089 291.400 180 C 291.400 182.911 290.153 185.548 288.139 187.458 C 286.126 189.368 283.344 190.550 280.275 190.550 C 277.206 190.550 274.424 189.368 272.411 187.458 C 270.397 185.548 269.150 182.911 269.150 180 C 269.150 177.089 270.397 174.452 272.411 172.542 C 274.424 170.632 277.206 169.450 280.275 169.450 Z " transform="matrix(1, 0, 0, 1, -231.7, -167.45)"/>
  </g>
</svg>