<svg version="1.1" width="482" height="362" viewBox="-1 -1 482 362" xmlns="http://www.w3.org/2000/svg" xmlns:xlink="http://www.w3.org/1999/xlink">
  <defs>
    <linearGradient id="grad_1" y2="1">
      <stop offset="0" stop-color="#00CCCC" stop-opacity="1"/>
      <stop offset="1" stop-color="#00FFFF" stop-opacity="1"/>
    </linearGradient>
  </defs>
  <!-- Exported by Scratch - http://scratch.mit.edu/ -->
  <path id="ID0.38820974435657263" fill="#5D36D4" stroke="none" stroke-linecap="round" d="M 0 0 L 480 0 L 480 360 L 0 360 L 0 0 Z "/>
  <path id="ID0.15881818113848567" fill="none" stroke="#000000" stroke-width="2" stroke-linecap="round" d="M 90.400 207.050 L 72.600 241.100 " transform="matrix(0.6991205811500549, 0, 0, 0.6991205811500549, 337.4, -66.35)"/>
  <g id="ID0.5892034540884197">
    <path id="ID0.8935334733687341" fill="#000000" stroke="#000000" stroke-width="1" d="M 259.625 175.200 C 262.487 175.200 265.081 176.217 266.959 177.860 C 268.837 179.503 270 181.771 270 184.275 C 270 186.779 268.837 189.047 266.959 190.690 C 265.081 192.333 262.487 193.350 259.625 193.350 C 256.763 193.350 254.169 192.333 252.291 190.690 C 250.413 189.047 249.250 186.779 249.250 184.275 C 249.250 181.771 250.413 179.503 252.291 177.860 C 254.169 176.217 256.763 175.200 259.625 175.200 Z " transform="matrix(0.36810827255249023, 0, 0, 0.36810827255249023, 66.9, 10.95)"/>
    <path id="ID0.31448536878451705" fill="none" stroke="#000000" stroke-width="1" stroke-linecap="round" d="M 260.400 194.050 L 274.450 217.400 " transform="matrix(0.6379566192626953, 0, 0, 0.6379566192626953, -3.5, -43.2)"/>
    <path id="ID0.8104945714585483" fill="none" stroke="#000000" stroke-width="1" stroke-linecap="round" d="M 256.700 192.950 L 245.550 217.400 " transform="matrix(0.6379566192626953, 0, 0, 0.6379566192626953, -3.5, -43.2)"/>
    <path id="ID0.1707710293121636" fill="url(#grad_1)" stroke="#663B00" stroke-width="8" d="M 226.650 218.500 L 291.100 218.500 L 291.100 311.850 L 226.650 311.850 L 226.650 218.500 Z " transform="matrix(0.6379566192626953, 0, 0, 0.6379566192626953, -3.5, -43.2)"/>
    <path id="ID0.820509119424969" fill="#009933" stroke="#009933" stroke-width="8" d="M 230 278.150 L 285.550 278.150 L 285.550 304.800 L 230 304.800 L 230 278.150 Z " transform="matrix(0.5807362794876099, 0, 0, 0.6379566192626953, 12, -43.2)"/>
    <g id="ID0.7305596964433789">
      <path id="ID0.9285935354419053" fill="#CC0000" stroke="#660000" stroke-width="8" stroke-linecap="round" d="M 102.950 156.300 C 101.595 142.935 106.245 132.878 111.850 125.150 C 113.668 122.685 117.473 122.518 120 120.750 C 122.435 119.047 123.921 115.976 126.650 114.800 C 129.381 113.623 132.810 112.894 135.550 114.050 C 138.152 115.148 139.973 118.035 140.750 120.750 C 141.564 123.593 137.978 127.764 140 129.600 C 142.053 131.464 145.921 127.773 148.900 128.150 C 152.084 128.553 155.128 130.072 157.800 131.850 C 160.407 133.585 162.443 136.096 164.450 138.500 C 166.157 140.546 169.397 142.532 168.900 145.150 C 168.373 147.925 164.774 149.189 162.200 150.350 C 159.685 151.485 154.050 151.236 154.050 151.850 C 154.050 152.464 160.278 151.999 162.200 154.050 C 164.290 156.281 164.721 159.905 164.450 162.950 C 164.206 165.694 163 168.761 160.750 170.350 C 158.295 172.084 154.851 171.694 151.850 171.850 C 145.199 172.195 138.508 171.682 131.850 171.850 C 128.628 171.932 125.398 173.004 122.200 172.600 C 119.331 172.237 116.257 171.469 114.050 169.600 C 109.648 165.872 104.863 161.458 102.950 156.300 Z " transform="matrix(0.1621926873922348, 0, 0, 0.1621926873922348, 141.65, 91.6)"/>
      <path id="ID0.5261555803008378" fill="#FFFFFF" stroke="#CCCCCC" stroke-width="8" stroke-linecap="round" d="M 182.950 323.700 C 184.658 321.942 182.876 329.881 180.750 334.050 C 175.723 343.906 169.387 354.153 160 360 C 149.974 366.233 136.313 368.689 123.750 368.150 C 87.982 359.627 86.232 358.469 80 351.850 C 73.699 342.466 70.458 330.098 69.650 318.500 C 69.051 286.787 69.154 264.505 71.900 237.800 C 73.067 227.261 73.856 216.266 79.350 208.150 C 85.096 200.746 94.657 193.652 103.050 194.800 C 115.242 196.488 129.605 204.719 134.150 214.800 C 140.779 229.544 135.052 248.186 134.800 263.350 C 134.572 277.419 130.562 291.627 132.600 305.550 C 133.320 310.473 137.838 315.210 142.600 316.650 C 154.696 320.307 168.903 314.756 180.400 320 Z " transform="matrix(0.1621926873922348, 0, 0, 0.1621926873922348, 143.35, 84.25)"/>
      <path id="ID0.6710208593867719" fill="#000000" stroke="none" d="M 134.425 185.150 C 136.570 185.150 138.514 186.769 139.921 189.385 C 141.329 192.001 142.200 195.613 142.200 199.600 C 142.200 203.587 141.329 207.199 139.921 209.815 C 138.514 212.431 136.570 214.050 134.425 214.050 C 132.280 214.050 130.336 212.431 128.929 209.815 C 127.521 207.199 126.650 203.587 126.650 199.600 C 126.650 195.613 127.521 192.001 128.929 189.385 C 130.336 186.769 132.280 185.150 134.425 185.150 Z " transform="matrix(0.1621926873922348, 0, 0, 0.1621926873922348, 140.75, 92.05)"/>
      <path id="ID0.24884337885305285" fill="#FFFF00" stroke="#FF9400" stroke-width="2" stroke-linecap="round" d="M 239.450 186.150 C 238.525 188.233 232.239 188.184 231.400 186.100 C 230.327 183.404 233.579 176.696 235.600 176.750 C 237.604 176.721 240.630 183.487 239.450 186.150 Z " transform="matrix(0.3805149793624878, 0, 0, -0.3805149793624878, 70.2, 200.5)"/>
      <path id="ID0.6710208593867719" fill="#000000" stroke="none" d="M 134.425 185.150 C 136.570 185.150 138.514 186.769 139.921 189.385 C 141.329 192.001 142.200 195.613 142.200 199.600 C 142.200 203.587 141.329 207.199 139.921 209.815 C 138.514 212.431 136.570 214.050 134.425 214.050 C 132.280 214.050 130.336 212.431 128.929 209.815 C 127.521 207.199 126.650 203.587 126.650 199.600 C 126.650 195.613 127.521 192.001 128.929 189.385 C 130.336 186.769 132.280 185.150 134.425 185.150 Z " transform="matrix(0.1621926873922348, 0, 0, 0.1621926873922348, 135.7, 91.85)"/>
      <path id="ID0.24884337885305285" fill="#FFFF00" stroke="#FF9400" stroke-width="2" stroke-linecap="round" d="M 239.450 186.150 C 238.525 188.233 232.239 188.184 231.400 186.100 C 230.327 183.404 233.579 176.696 235.600 176.750 C 237.604 176.721 240.630 183.487 239.450 186.150 Z " transform="matrix(0.3805149793624878, 0, 0, 0.3805149793624878, 70.2, 58.35)"/>
      <path id="ID0.7647585235536098" fill="none" stroke="#CCCCCC" stroke-width="8" stroke-linecap="round" d="M 121.850 278.900 C 121.850 278.900 129.505 280.279 133.300 281.100 C 136.900 281.878 140.505 282.719 144.050 283.700 C 149.036 285.080 156.852 285.354 158.450 288.950 C 159.827 291.279 153.528 294.012 150 295.550 C 147.512 296.621 141.346 293.653 141.850 295.550 C 142.821 299.203 152.125 303.057 152.950 306.650 C 153.400 308.607 146.369 304.593 144.400 306.650 C 142.516 308.619 146.672 312.539 145.150 314.800 C 143.649 317.029 140.084 316.926 137.400 317.050 C 134.512 317.183 131.623 316.367 128.850 315.550 C 126.159 314.758 123.585 313.551 121.100 312.250 C 118.641 310.962 116.485 309.134 114.050 307.800 C 112.643 307.029 109.600 305.950 109.600 305.950 " transform="matrix(0.12074822932481766, 0, 0, 0.12074822932481766, 149.2, 103.9)"/>
      <path id="ID0.5963670583441854" fill="#FF9400" stroke="none" d="M 100.750 309.600 L 117.800 309.600 L 117.800 360 L 100.750 360 L 100.750 309.600 Z " transform="matrix(0.1621926873922348, 0, 0, 0.1621926873922348, 141.65, 91.6)"/>
      <path id="ID0.5963670583441854" fill="#FF9400" stroke="none" d="M 100.750 309.600 L 117.800 309.600 L 117.800 360 L 100.750 360 L 100.750 309.600 Z " transform="matrix(0.1621926873922348, 0, 0, 0.1621926873922348, 147.05, 91.8)"/>
    </g>
  </g>
  <path id="ID0.43017195723950863" fill="none" stroke="#000000" stroke-width="2" stroke-linecap="round" d="M 93.700 208.150 L 109.250 244.450 " transform="matrix(0.6991205811500549, 0, 0, 0.6991205811500549, 337.4, -66.35)"/>
  <g id="ID0.6626640125177801">
    <path id="ID0.08294081361964345" fill="none" stroke="#000000" stroke-width="2" stroke-linecap="round" d="M 310.750 135.950 L 326.650 189.300 " transform="matrix(0.5145038366317749, 0, 0, 0.5145038366317749, -74.1, 9.65)"/>
    <path id="ID0.8073398093692958" fill="none" stroke="#000000" stroke-width="2" stroke-linecap="round" d="M 301.100 136.300 L 285.200 184.100 " transform="matrix(0.5145038366317749, 0, 0, 0.5145038366317749, -74.1, 9.65)"/>
    <path id="ID0.29773482168093324" fill="#FFFF00" stroke="#663B00" stroke-width="11" d="M 304.450 176.300 C 321.004 176.300 336.004 182.399 346.865 192.251 C 357.727 202.103 364.450 215.710 364.450 230.725 C 364.450 245.740 357.727 259.347 346.865 269.199 C 336.004 279.051 321.004 285.150 304.450 285.150 C 287.896 285.150 272.896 279.051 262.035 269.199 C 251.173 259.347 244.450 245.740 244.450 230.725 C 244.450 215.710 251.173 202.103 262.035 192.251 C 272.896 182.399 287.896 176.300 304.450 176.300 Z " transform="matrix(0.5145038366317749, 0, 0, 0.5145038366317749, -74.1, 9.65)"/>
    <g id="ID0.9153939713723958">
      <path id="ID0.5763716981746256" fill="#CC0000" stroke="#000000" stroke-width="2" d="M 228.500 148 C 239.122 148 248.747 152.118 255.716 158.771 C 262.686 165.423 267 174.611 267 184.750 C 267 194.889 262.686 204.077 255.716 210.729 C 248.747 217.382 239.122 221.500 228.500 221.500 C 217.878 221.500 208.253 217.382 201.284 210.729 C 194.314 204.077 190 194.889 190 184.750 C 190 174.611 194.314 165.423 201.284 158.771 C 208.253 152.118 217.878 148 228.500 148 Z " transform="matrix(0.23717132210731506, 0, 0, 0.23717132210731506, 28.5, 73.45)"/>
      <g id="ID0.6122971749864519">
        <path id="ID0.5963120250962675" fill="none" stroke="#000000" stroke-width="2" stroke-linecap="round" d="M 272 36 L 273 107.350 " transform="matrix(0.23717132210731506, 0, 0, 0.23717132210731506, 19.85, 100.1)"/>
        <path id="ID0.39114286797121167" fill="none" stroke="#000000" stroke-width="2" stroke-linecap="round" d="M 288 43.350 L 288 102 " transform="matrix(0.23717132210731506, 0, 0, 0.23717132210731506, 19.85, 100.1)"/>
        <path id="ID0.8762136213481426" fill="none" stroke="#000000" stroke-width="2" stroke-linecap="round" d="M 300 59 L 300 80.350 " transform="matrix(0.23717132210731506, 0, 0, 0.23717132210731506, 20.3, 100.6)"/>
        <path id="ID0.5484892525710166" fill="none" stroke="#000000" stroke-width="2" stroke-linecap="round" d="M 233 50.350 L 234 101.550 " transform="matrix(0.23717132210731506, 0, 0, 0.23717132210731506, 20.8, 99.3)"/>
      </g>
      <g id="ID0.6122971749864519">
        <path id="ID0.36933068139478564" fill="none" stroke="#000000" stroke-width="2" stroke-linecap="round" d="M 255.050 36.450 L 254.750 107.450 " transform="matrix(0.00006819828558946028, 0.23717132210731506, -0.23717132210731506, 0.00006819828558946028, 99.6, 54.15)"/>
        <path id="ID0.5963120250962675" fill="none" stroke="#000000" stroke-width="2" stroke-linecap="round" d="M 270.100 32.450 L 270.050 109.450 " transform="matrix(0.00006819828558946028, 0.23717132210731506, -0.23717132210731506, 0.00006819828558946028, 99.6, 54.15)"/>
        <path id="ID0.39114286797121167" fill="none" stroke="#000000" stroke-width="2" stroke-linecap="round" d="M 284.050 38.450 L 283.050 104.450 " transform="matrix(0.00006819828558946028, 0.23717132210731506, -0.23717132210731506, 0.00006819828558946028, 99.6, 54.15)"/>
        <path id="ID0.8762136213481426" fill="none" stroke="#000000" stroke-width="2" stroke-linecap="round" d="M 299 80.200 L 229.050 81.150 " transform="matrix(0.00006819828558946028, 0.23717132210731506, -0.23717132210731506, 0.00006819828558946028, 99.05, 54.6)"/>
        <path id="ID0.5484892525710166" fill="none" stroke="#000000" stroke-width="2" stroke-linecap="round" d="M 233 50.350 L 233.050 98.650 " transform="matrix(0.00006819828558946028, 0.23717132210731506, -0.23717132210731506, 0.00006819828558946028, 100.35, 55.1)"/>
      </g>
      <path id="ID0.5941597227938473" fill="none" stroke="#000000" stroke-width="2" stroke-linecap="round" d="M 246 103 L 277 103.400 " transform="matrix(0.23717132210731506, 0, 0, 0.23717132210731506, 20.3, 100.75)"/>
    </g>
    <path id="ID0.6069741295650601" fill="#003FFF" stroke="#000000" stroke-width="2" d="M 220 212.500 L 260 212.500 L 260 278 L 253.900 281.450 L 242.900 282.450 L 236.900 282.450 L 223.900 280.450 L 220 278 L 220 212.500 Z " transform="matrix(0.23717132210731506, 0, 0, 0.23717132210731506, 25.65, 74.2)"/>
    <path id="ID0.570734029635787" fill="#FFFFFF" stroke="#000000" stroke-width="2" stroke-linecap="round" d="M 253.100 197.750 C 257.585 200.107 261.064 203.944 264.600 207.750 C 265.484 208.701 265.160 208.752 264.600 209.250 C 262.565 210.995 260.217 212.384 257.600 213.250 C 252.270 215.011 246.997 216.791 241.100 216.750 C 235.515 216.708 229.902 215.059 224.798 212.807 C 221.688 211.425 218.870 209.266 216.600 206.750 C 216.032 206.120 217.398 205.379 218.100 204.750 C 220.906 202.234 224.025 199.381 227.600 197.750 C 231.904 195.788 236.468 194.380 241.100 194.250 C 245.272 194.134 249.548 195.489 253.100 197.750 Z " transform="matrix(0.23717132210731506, 0, 0, 0.23717132210731506, 25.35, 74.6)"/>
    <path id="ID0.8104396956041455" fill="none" stroke="#000000" stroke-width="2" stroke-linecap="round" d="M 224.850 198.500 L 225.150 213.850 " transform="matrix(0.23717132210731506, 0, 0, 0.23717132210731506, 25.7, 74.45)"/>
    <path id="ID0.09764078725129366" fill="none" stroke="#000000" stroke-width="2" stroke-linecap="round" d="M 234.650 196.350 L 234.850 215.500 " transform="matrix(0.23717132210731506, 0, 0, 0.23717132210731506, 25.7, 74.45)"/>
    <path id="ID0.38310798816382885" fill="none" stroke="#000000" stroke-width="2" stroke-linecap="round" d="M 246.150 196.850 L 245.850 216.500 L 248.150 216.350 " transform="matrix(0.23717132210731506, 0, 0, 0.23717132210731506, 25.7, 74.45)"/>
    <path id="ID0.3697171122767031" fill="none" stroke="#000000" stroke-width="2" stroke-linecap="round" d="M 256.850 201.500 L 256.650 213.850 " transform="matrix(0.23717132210731506, 0, 0, 0.23717132210731506, 25.7, 74.45)"/>
    <path id="ID0.8970635286532342" fill="#1F1200" stroke="#000000" stroke-width="2" d="M 221.350 165.350 C 224.937 165.350 228.187 166.751 230.540 169.014 C 232.893 171.276 234.350 174.401 234.350 177.850 C 234.350 181.299 232.893 184.424 230.540 186.686 C 228.187 188.949 224.937 190.350 221.350 190.350 C 217.763 190.350 214.513 188.949 212.160 186.686 C 209.807 184.424 208.350 181.299 208.350 177.850 C 208.350 174.401 209.807 171.276 212.160 169.014 C 214.513 166.751 217.763 165.350 221.350 165.350 Z " transform="matrix(0.23717132210731506, 0, 0, 0.23717132210731506, 26.5, 74.05)"/>
    <path id="ID0.8970635286532342" fill="#1F1200" stroke="#000000" stroke-width="2" d="M 221.350 165.350 C 224.937 165.350 228.187 166.751 230.540 169.014 C 232.893 171.276 234.350 174.401 234.350 177.850 C 234.350 181.299 232.893 184.424 230.540 186.686 C 228.187 188.949 224.937 190.350 221.350 190.350 C 217.763 190.350 214.513 188.949 212.160 186.686 C 209.807 184.424 208.350 181.299 208.350 177.850 C 208.350 174.401 209.807 171.276 212.160 169.014 C 214.513 166.751 217.763 165.350 221.350 165.350 Z " transform="matrix(0.23717132210731506, 0, 0, 0.23717132210731506, 34, 74.15)"/>
    <path id="ID0.3618726124987006" fill="none" stroke="#000000" stroke-width="2" stroke-linecap="round" d="M 260.850 213.500 C 260.850 213.500 270.936 236.070 279.850 237.500 C 286.480 238.555 287.296 225.258 290.200 218.750 C 292.048 214.622 291.294 208.719 294.650 205.500 C 297.805 202.483 307.900 203.050 307.900 203.050 " transform="matrix(0.23717132210731506, 0, 0, 0.23717132210731506, 25.7, 74.45)"/>
    <path id="ID0.3618726124987006" fill="none" stroke="#000000" stroke-width="2" stroke-linecap="round" d="M 260.850 213.500 C 260.850 213.500 274.031 229.138 279.850 237.500 C 281.305 239.591 281.242 239.029 279.850 240.500 C 274.277 246.385 266.025 250.781 260.850 257.500 C 259.849 259.203 265.850 259.500 265.850 259.500 " transform="matrix(-0.23717132210731506, 0, 0, 0.23717132210731506, 139.6, 74.35)"/>
    <path id="ID0.6990157160907984" fill="none" stroke="#000000" stroke-width="2" stroke-linecap="round" d="M 220 276 C 220 276 212.079 285.326 211.850 291 C 211.545 299.031 220.280 306.590 219.850 315 C 219.676 318.271 209.850 318 209.850 318 " transform="matrix(0.23717132210731506, 0, 0, 0.23717132210731506, 25.7, 74.45)"/>
    <path id="ID0.6990157160907984" fill="none" stroke="#000000" stroke-width="2" stroke-linecap="round" d="M 220 276 C 220 276 212.079 285.326 211.850 291 C 211.545 299.031 220.280 306.590 219.850 315 C 219.676 318.271 209.850 318 209.850 318 " transform="matrix(-0.23717132210731506, 0, 0, 0.23717132210731506, 139.35, 74.3)"/>
    <path id="ID0.4415239170193672" fill="#000000" stroke="none" stroke-linecap="round" d="M 241.950 136 C 243.025 136.015 243.999 136.803 244.828 137.528 C 245.408 138.035 246 138.746 246 139.525 C 246 140.304 245.580 141.355 244.828 141.522 C 243.826 141.744 242.966 140.463 241.950 140.500 C 240.955 140.463 240.143 141.742 239.172 141.522 C 238.421 141.351 238 140.304 238 139.525 C 238 138.746 238.602 138.046 239.172 137.528 C 239.953 136.818 240.888 136.015 241.950 136 Z " transform="matrix(0.23717132210731506, 0, 0, 0.23717132210731506, 25.15, 86.3)"/>
    <path id="ID0.48263834370300174" fill="#000000" stroke="none" d="M 306.675 121.500 C 310.048 121.500 313.104 122.870 315.317 125.083 C 317.530 127.296 318.900 130.352 318.900 133.725 C 318.900 137.098 317.530 140.154 315.317 142.367 C 313.104 144.580 310.048 145.950 306.675 145.950 C 303.302 145.950 300.246 144.580 298.033 142.367 C 295.820 140.154 294.450 137.098 294.450 133.725 C 294.450 130.352 295.820 127.296 298.033 125.083 C 300.246 122.870 303.302 121.500 306.675 121.500 Z " transform="matrix(0.5145038366317749, 0, 0, 0.5145038366317749, -74.1, 9.65)"/>
  </g>
  <path id="ID0.6126843569800258" fill="#00FFFF" stroke="#663B00" stroke-width="7" d="M 220.750 58.500 L 338.500 58.500 L 338.500 214.050 L 220.750 214.050 L 220.750 58.500 Z "/>
  <path id="ID0.16373629868030548" fill="#147852" stroke="#147852" stroke-width="2" stroke-linecap="round" d="M 224.050 103 C 228.721 97.781 235.135 95.682 241.100 95.950 C 244.410 96.099 246.428 100.015 248.500 102.600 C 249.478 103.820 248.600 106.482 250 107.050 C 251.375 107.607 252.857 105.816 254.050 104.850 C 256.832 102.596 258.663 99.082 261.850 97.450 C 263.821 96.441 266.471 96.562 268.500 97.450 C 269.968 98.093 270.052 100.287 271.100 101.500 C 271.569 102.042 272.571 101.708 272.950 102.600 C 274.465 106.169 274.896 110.136 276.300 113.750 C 277.255 116.208 278.859 118.373 280 120.750 C 280.460 121.709 280.512 122.863 281.100 123.750 C 281.532 124.402 282.462 124.588 282.950 125.200 C 283.470 125.852 283.649 126.719 284.050 127.450 C 284.399 128.086 284.490 129.447 285.200 129.300 C 286.936 128.940 288.244 127.443 289.600 126.300 C 291.337 124.835 292.347 121.957 294.450 121.500 C 301.286 124.160 300.298 127.487 301.850 130.400 C 302.575 131.860 303.415 133.324 304.050 134.850 C 304.650 136.294 304.742 137.961 305.550 139.300 C 305.920 139.914 306.699 139.514 307.400 140.400 C 310.203 143.943 312.694 147.741 315.200 151.500 C 315.826 152.440 315.477 153.886 316.300 153.750 C 318.430 153.398 319.955 151.435 321.850 150.400 C 322.675 149.949 323.573 149.638 324.450 149.300 C 325.172 149.022 325.949 148.222 326.650 148.550 C 328.079 149.219 329.134 150.581 330 151.900 C 331.263 153.824 332.819 155.188 332.950 158.150 C 333.474 169.999 333.776 182.047 331.850 193.750 C 331.368 196.676 328.641 197.848 326.300 198.550 C 320.579 200.265 314.464 200.426 308.500 200.750 C 303.079 201.044 297.611 200.847 292.200 200.400 C 288.711 200.112 285.350 198.640 281.850 198.550 C 275.548 198.388 269.253 199.524 262.950 199.650 C 256.790 199.774 250.610 199.151 244.450 199.300 C 240.239 199.402 236.024 199.836 231.850 200.400 C 229.600 200.704 226.357 203.853 225.200 201.900 C 221.445 195.563 220.663 187.736 220 180.400 C 219.530 175.207 220.978 169.991 221.850 164.850 C 222.068 163.565 222.870 164.108 222.950 163 C 223.271 158.566 223.137 154.092 222.950 149.650 C 222.887 148.149 222.291 146.700 222.200 145.200 C 221.924 140.645 221.635 136.059 221.850 131.500 C 221.904 130.360 222.868 130.871 222.950 129.300 C 223.278 123.015 222.701 116.689 222.950 110.400 C 223.068 107.416 221.714 103.360 224.050 101.500 Z "/>
  <path id="ID0.6811993829905987" fill="#009933" stroke="#006622" stroke-width="7" stroke-linecap="round" d="M 255.550 164.450 C 257.250 161.717 260.409 160.955 263.350 161.100 C 265.776 161.220 268.105 162.580 270 164.100 C 271.920 165.639 273.301 167.824 274.450 170 C 275.546 172.077 274.517 175.717 276.650 176.700 C 278.824 177.701 282.040 176.103 283.350 174.100 C 286.106 169.886 286.334 164.467 287.800 159.650 C 288.549 157.191 289.428 154.756 290 152.250 C 290.529 149.934 290.855 147.563 291.100 145.200 C 291.355 142.745 290.753 140.152 291.500 137.800 C 293.020 133.014 294.698 128.049 297.800 124.100 C 300.783 120.302 304.644 116.651 309.250 115.200 C 312.088 114.306 315.266 116.239 317.800 117.800 C 320.247 119.307 322.253 121.617 323.700 124.100 C 324.914 126.183 325.112 128.729 325.550 131.100 C 326.479 136.132 326.779 141.286 327.800 146.300 C 328.265 148.586 329.454 150.682 330 152.950 C 330.556 155.260 330.538 157.691 331.100 160 C 331.657 162.287 332.806 164.410 333.350 166.700 C 333.926 169.124 333.880 171.675 334.450 174.100 C 334.983 176.371 336.042 178.498 336.650 180.750 C 337.276 183.067 337.871 185.416 338.150 187.800 C 338.738 192.824 338.584 197.936 339.250 202.950 C 339.570 205.356 340.974 207.576 341.100 210 C 341.229 212.488 340.688 215.006 340 217.400 C 339.327 219.743 338.635 222.248 337.050 224.100 C 335.533 225.873 333.375 227.282 331.100 227.800 C 326.168 228.922 320.984 228.401 315.950 228.900 C 313.586 229.134 311.268 230.189 308.900 230 C 306.559 229.813 304.495 228.298 302.200 227.800 C 299.411 227.194 296.490 227.301 293.700 226.700 C 291.291 226.181 289.039 225.055 286.650 224.450 C 284.102 223.804 281.518 223.191 278.900 222.950 C 276.065 222.689 273.197 222.950 270.350 222.950 C 268.019 222.950 265.616 223.496 263.350 222.950 C 260.932 222.368 258.409 221.409 256.650 219.650 C 254.891 217.891 253.843 215.388 253.350 212.950 C 252.716 209.817 253.139 206.540 253.350 203.350 C 253.507 200.979 254.029 198.639 254.450 196.300 C 254.895 193.825 255.703 191.402 255.950 188.900 C 256.205 186.315 255.950 183.697 255.950 181.100 C 255.950 178.769 256.013 176.430 255.950 174.100 C 255.880 171.500 255.827 168.886 255.550 166.300 C 255.442 165.292 253.957 163.912 254.800 163.350 Z " transform="matrix(0.5644207000732422, 0, 0, 0.6590163707733154, 113.15, 62.85)"/>
  <path id="ID0.37247502291575074" fill="#009933" stroke="#006622" stroke-width="7" stroke-linecap="round" d="M 224.450 209.650 C 224.139 205.232 226.614 198.365 228.500 191.650 C 229.281 188.869 231.386 186.605 232.400 183.900 C 233.247 181.642 233.430 179.180 234.050 176.850 C 234.662 174.549 235.457 172.292 236.100 170 C 236.756 167.663 237.108 165.227 237.950 162.950 C 239.712 158.184 241.127 153.157 243.900 148.900 C 245.272 146.793 247.634 145.301 250 144.450 C 252.450 143.569 255.264 143.308 257.800 143.900 C 260.479 144.525 262.881 146.196 265 147.950 C 267.193 149.764 269.015 152.053 270.550 154.450 C 272.009 156.728 272.972 159.309 273.900 161.850 C 274.826 164.385 275.349 167.058 276.100 169.650 C 276.830 172.170 277.738 174.649 278.350 177.200 C 278.922 179.585 279.111 182.057 279.650 184.450 C 280.211 186.940 281.120 189.353 281.650 191.850 C 282.221 194.538 282.351 197.318 282.950 200 C 283.469 202.324 285.222 204.479 285 206.850 C 284.758 209.438 284.164 213.240 281.650 213.900 C 274.563 215.759 266.977 213.500 259.650 213.500 C 254.587 213.500 249.513 213.933 244.450 213.900 C 241.846 213.883 239.249 213.515 236.650 213.350 C 234.254 213.198 231.841 213.175 229.450 212.950 C 227.774 212.792 224.528 213.942 224.450 212.200 Z " transform="matrix(0.5758697390556335, 0, 0, 1, 97.75, -1.15)"/>
  <path id="ID0.37247502291575074" fill="#009933" stroke="#006622" stroke-width="7" stroke-linecap="round" d="M 224.450 209.650 C 224.139 205.232 226.614 198.365 228.500 191.650 C 229.281 188.869 231.386 186.605 232.400 183.900 C 233.247 181.642 233.430 179.180 234.050 176.850 C 234.662 174.549 235.457 172.292 236.100 170 C 236.756 167.663 237.108 165.227 237.950 162.950 C 239.712 158.184 241.127 153.157 243.900 148.900 C 245.272 146.793 247.634 145.301 250 144.450 C 252.450 143.569 255.264 143.308 257.800 143.900 C 260.479 144.525 262.881 146.196 265 147.950 C 267.193 149.764 269.015 152.053 270.550 154.450 C 272.009 156.728 272.972 159.309 273.900 161.850 C 274.826 164.385 275.349 167.058 276.100 169.650 C 276.830 172.170 277.738 174.649 278.350 177.200 C 278.922 179.585 279.111 182.057 279.650 184.450 C 280.211 186.940 281.120 189.353 281.650 191.850 C 282.221 194.538 282.351 197.318 282.950 200 C 283.469 202.324 285.222 204.479 285 206.850 C 284.758 209.438 284.164 213.240 281.650 213.900 C 274.563 215.759 266.977 213.500 259.650 213.500 C 254.587 213.500 249.513 213.933 244.450 213.900 C 241.846 213.883 239.249 213.515 236.650 213.350 C 234.254 213.198 231.841 213.175 229.450 212.950 C 227.774 212.792 224.528 213.942 224.450 212.200 Z " transform="matrix(0.40562546253204346, 0, 0, 0.7043702006340027, 205.85, 60.5)"/>
  <path id="ID0.37247502291575074" fill="#009933" stroke="#006622" stroke-width="7" stroke-linecap="round" d="M 224.450 209.650 C 224.139 205.232 226.614 198.365 228.500 191.650 C 229.281 188.869 231.386 186.605 232.400 183.900 C 233.247 181.642 233.430 179.180 234.050 176.850 C 234.662 174.549 235.457 172.292 236.100 170 C 236.756 167.663 237.108 165.227 237.950 162.950 C 239.712 158.184 241.127 153.157 243.900 148.900 C 245.272 146.793 247.634 145.301 250 144.450 C 252.450 143.569 255.264 143.308 257.800 143.900 C 260.479 144.525 262.881 146.196 265 147.950 C 267.193 149.764 269.015 152.053 270.550 154.450 C 272.009 156.728 272.972 159.309 273.900 161.850 C 274.826 164.385 275.349 167.058 276.100 169.650 C 276.830 172.170 277.738 174.649 278.350 177.200 C 278.922 179.585 279.111 182.057 279.650 184.450 C 280.211 186.940 281.120 189.353 281.650 191.850 C 282.221 194.538 282.351 197.318 282.950 200 C 283.469 202.324 285.222 204.479 285 206.850 C 284.758 209.438 284.164 213.240 281.650 213.900 C 274.563 215.759 266.977 213.500 259.650 213.500 C 254.587 213.500 249.513 213.933 244.450 213.900 C 241.846 213.883 239.249 213.515 236.650 213.350 C 234.254 213.198 231.841 213.175 229.450 212.950 C 227.774 212.792 224.528 213.942 224.450 212.200 Z " transform="matrix(0.3077286183834076, 0, 0, 0.5343719124794006, 247.35, 97.15)"/>
  <path id="ID0.9307283950038254" fill="#FFFF00" stroke="#FF9400" stroke-width="7" stroke-linecap="round" d="M 319.800 69.250 C 326.702 73.932 325.135 85.242 325.750 93.650 C 326.276 100.828 324.236 107.975 323.500 115.150 C 323.370 122.056 328.805 133.357 323.150 135.900 C 316.055 139.088 305.091 132.934 298.770 126.619 C 291.911 119.760 287.903 109.610 287.750 99.650 C 287.605 90.046 291.013 80.641 297.550 74.450 C 303.169 69.131 313.493 64.938 319.800 69.250 Z " transform="matrix(1, 0, 0, 1, 12.15, -5.45)"/>
  <path id="ID0.33249812480062246" fill="#000000" stroke="none" d="M 315.925 76.700 C 317.973 76.700 319.830 78.005 321.174 80.114 C 322.518 82.223 323.350 85.136 323.350 88.350 C 323.350 91.564 322.518 94.477 321.174 96.586 C 319.830 98.695 317.973 100 315.925 100 C 313.877 100 312.020 98.695 310.676 96.586 C 309.332 94.477 308.500 91.564 308.500 88.350 C 308.500 85.136 309.332 82.223 310.676 80.114 C 312.020 78.005 313.877 76.700 315.925 76.700 Z " transform="matrix(1, 0, 0, 1, -1.85, -3.25)"/>
  <path id="ID0.7770564453676343" fill="#000000" stroke="#000000" stroke-width="2" stroke-linecap="round" d="M 310.900 106.250 C 311.766 105.119 313.615 105.181 315 105.150 C 315.706 105.134 316.352 105.591 317.050 105.700 C 318.705 105.958 320.381 106.111 322.050 106.250 C 324.994 106.494 327.950 106.691 330.900 106.850 C 331.648 106.890 332.483 106.508 333.150 106.850 C 333.918 107.244 334.584 108.014 334.800 108.850 C 334.993 109.597 334.434 110.351 334.250 111.100 C 333.885 112.582 333.822 114.180 333.150 115.550 C 332.493 116.890 331.533 118.140 330.350 119.050 C 329.296 119.861 327.955 120.296 326.650 120.550 C 324.404 120.986 321.796 122.220 319.800 121.100 C 316.626 119.319 314.621 115.871 312.750 112.750 C 311.593 110.820 310.866 108.417 310.900 106.250 Z "/>
  <path id="ID0.01250954857096076" fill="#FF9999" stroke="#FF9999" stroke-width="2" stroke-linecap="round" d="M 321.500 120.700 C 322.643 119.816 323.331 119.422 323.700 119.050 C 324.788 117.910 325.851 116.726 327.050 115.700 C 327.595 115.234 328.211 114.797 328.900 114.600 C 329.540 114.417 330.283 114.350 330.900 114.600 C 331.600 114.884 332.376 115.379 332.600 116.100 C 332.824 116.821 332.537 117.723 332.050 118.300 C 329.780 119.631 329.581 120.270 328.750 120.750 C 327.320 121.473 325.716 121.892 324.250 122.400 C 323.598 122.628 322.789 123.114 322.200 122.750 C 321.586 122.371 321.247 121.375 321.500 120.700 Z "/>
  <path id="ID0.7224727631546557" fill="#663B00" stroke="none" d="M 333.700 54.800 L 341.500 54.800 L 341.500 214.100 L 333.700 214.100 L 333.700 54.800 Z "/>
  <path id="ID0.014176841825246811" fill="#663B00" stroke="none" d="M 218.500 54.100 L 225.200 54.100 L 225.200 215.950 L 218.500 215.950 L 218.500 54.100 Z " transform="matrix(1, 0, 0, 1, -0.5, 0)"/>
  <path id="ID0.9928468465805054" fill="#663B00" stroke="none" d="M 216.650 53.750 L 341.850 53.750 L 341.850 64.850 L 216.650 64.850 L 216.650 53.750 Z "/>
  <path id="ID0.7197886202484369" fill="#663B00" stroke="none" d="M 216.300 205.950 L 339.600 205.950 L 339.600 216.300 L 216.300 216.300 L 216.300 205.950 Z " transform="matrix(1, 0, 0, 1, 0.5, 0)"/>
  <path id="ID0.45833298936486244" fill="#FFFFFF" stroke="#663B00" stroke-width="7" d="M 51.850 242.950 L 124.450 242.950 L 124.450 334.050 L 51.850 334.050 L 51.850 242.950 Z " transform="matrix(0.6991205811500549, 0, 0, 0.6991205811500549, 339.3, -69.3)"/>
  <path id="ID0.6968899513594806" fill="#FF9999" stroke="#FF0000" stroke-width="7" stroke-linecap="round" d="M 88.550 332.200 L 70.750 288.900 L 91.850 248.150 L 110.400 289.250 L 89.250 332.200 Z " transform="matrix(0.4662022888660431, 0, 0, 0.4662022888660431, 358.2, -3)"/>
  <path id="ID0.9933872246183455" fill="none" stroke="#FF0000" stroke-width="7" stroke-linecap="round" d="M 70.750 287.750 L 110.400 290 " transform="matrix(0.4662022888660431, 0, 0, 0.4662022888660431, 358.2, -3)"/>
  <path id="ID0.9775513131171465" fill="none" stroke="#FF0000" stroke-width="7" stroke-linecap="round" d="M 90.400 253.300 L 89.250 323.300 " transform="matrix(0.4662022888660431, 0, 0, 0.4662022888660431, 358.2, -3)"/>
  <path id="ID0.48079566517844796" fill="#000000" stroke="none" d="M 93.150 193.300 C 95.454 193.300 97.541 194.443 99.053 196.289 C 100.564 198.136 101.500 200.686 101.500 203.500 C 101.500 206.314 100.564 208.864 99.053 210.711 C 97.541 212.557 95.454 213.700 93.150 213.700 C 90.846 213.700 88.759 212.557 87.247 210.711 C 85.736 208.864 84.800 206.314 84.800 203.500 C 84.800 200.686 85.736 198.136 87.247 196.289 C 88.759 194.443 90.846 193.300 93.150 193.300 Z " transform="matrix(0.6991205811500549, 0, 0, 0.6991205811500549, 335.8, -65.35)"/>
  <path id="ID0.6069407551549375" fill="#663B00" stroke="none" d="M 278.500 60.750 L 285.200 60.750 L 285.200 212.600 L 278.500 212.600 L 278.500 60.750 Z "/>
  <path id="ID0.16267942916601896" fill="#663B00" stroke="none" d="M 218.500 125.900 L 335.550 125.900 L 335.550 136.300 L 218.500 136.300 L 218.500 125.900 Z " transform="matrix(1, 0, 0, 1, 0, 4)"/>
  <g id="ID0.6447568070143461">
    <path id="ID0.9114570454694331" fill="#E99747" stroke="none" d="M 117.200 151.100 L 163.900 151.100 L 163.900 215 L 117.200 215 L 117.200 151.100 Z " transform="matrix(0.2673587203025818, -0.5550342202186584, 0.4478461742401123, 0.21572653949260712, 14.1, 341.95)"/>
    <text id="ID0.9207747979089618" fill="#000000" x="127" y="186" text-anchor="start" font-family="Donegal" font-size="22" transform="matrix(0.11054972559213638, -0.2295001894235611, 0.18517917394638062, 0.08920039236545563, 118.4, 311.05)">BOOK    BOOK</text>
    <path id="ID0.8574763997457922" fill="#D28A42" stroke="#D28A42" stroke-width="2" stroke-linecap="round" d="M 111.700 179.750 L 136.100 221.650 L 135 230.550 L 111.650 189.400 L 111.700 179.750 Z " transform="matrix(0.49983227252960205, -0.3601545989513397, 0.3601545989513397, 0.49983227252960205, -5.85, 261)"/>
    <text id="ID0.20019730972126126" fill="#000000" x="113.55" y="215.45" text-anchor="start" font-family="Donegal" font-size="22" transform="matrix(0.0687766820192337, 0.02739879861474037, -0.02739879861474037, 0.0687766820192337, 125.4, 315.3)">BOOK       BOOK</text>
    <path id="ID0.2716594887897372" fill="#FFFFFF" stroke="#B2B2B2" stroke-width="2" stroke-linecap="round" d="M 136.350 233.600 L 136.650 221.900 L 175.250 200 L 175.250 216.900 L 136.350 233.600 Z " transform="matrix(0.49983227252960205, -0.3601545989513397, 0.3601545989513397, 0.49983227252960205, -5.85, 261)"/>
    <path id="ID0.6027559246867895" fill="none" stroke="#B2B2B2" stroke-width="2" stroke-linecap="round" d="M 137.200 225 L 173.600 205.800 " transform="matrix(0.49983227252960205, -0.3601545989513397, 0.3601545989513397, 0.49983227252960205, -5.85, 261)"/>
    <path id="ID0.10302696377038956" fill="none" stroke="#B2B2B2" stroke-width="2" stroke-linecap="round" d="M 174.400 208.850 L 137.750 227.750 " transform="matrix(0.49983227252960205, -0.3601545989513397, 0.3601545989513397, 0.49983227252960205, -5.85, 261)"/>
    <path id="ID0.5040676104836166" fill="none" stroke="#B2B2B2" stroke-width="2" stroke-linecap="round" d="M 174.400 213.600 L 138.050 230.250 " transform="matrix(0.49983227252960205, -0.3601545989513397, 0.3601545989513397, 0.49983227252960205, -5.85, 261)"/>
  </g>
  <path id="ID0.8758573606610298" fill="#000000" stroke="none" d="M 120.825 230.550 C 120.901 230.550 120.970 230.550 121.019 230.550 C 121.069 230.550 121.100 230.550 121.100 230.550 C 121.100 230.550 121.069 230.550 121.019 230.550 C 120.970 230.550 120.901 230.550 120.825 230.550 C 120.749 230.550 120.680 230.550 120.631 230.550 C 120.581 230.550 120.550 230.550 120.550 230.550 C 120.550 230.550 120.581 230.550 120.631 230.550 C 120.680 230.550 120.749 230.550 120.825 230.550 Z " transform="matrix(1, 0, 0, 1, 11.2, -28.7)"/>
  <path id="ID0.8758573606610298" fill="#000000" stroke="none" d="M 120.825 230.550 C 120.901 230.550 120.970 230.550 121.019 230.550 C 121.069 230.550 121.100 230.550 121.100 230.550 C 121.100 230.550 121.069 230.550 121.019 230.550 C 120.970 230.550 120.901 230.550 120.825 230.550 C 120.749 230.550 120.680 230.550 120.631 230.550 C 120.581 230.550 120.550 230.550 120.550 230.550 C 120.550 230.550 120.581 230.550 120.631 230.550 C 120.680 230.550 120.749 230.550 120.825 230.550 Z " transform="matrix(1, 0, 0, 1, 51.2, -46.75)"/>
  <path id="ID0.6077342974022031" fill="#FF9999" stroke="none" d="M 106.525 226.700 C 106.559 226.700 106.591 226.700 106.613 226.700 C 106.636 226.700 106.650 226.700 106.650 226.700 C 106.650 226.700 106.636 226.700 106.613 226.700 C 106.591 226.700 106.559 226.700 106.525 226.700 C 106.491 226.700 106.459 226.700 106.437 226.700 C 106.414 226.700 106.400 226.700 106.400 226.700 C 106.400 226.700 106.414 226.700 106.437 226.700 C 106.459 226.700 106.491 226.700 106.525 226.700 Z " transform="matrix(1, 0, 0, 1, 9.2, -45.75)"/>
  <path id="ID0.8758573606610298" fill="#000000" stroke="none" d="M 120.825 230.550 C 120.901 230.550 120.970 230.550 121.019 230.550 C 121.069 230.550 121.100 230.550 121.100 230.550 C 121.100 230.550 121.069 230.550 121.019 230.550 C 120.970 230.550 120.901 230.550 120.825 230.550 C 120.749 230.550 120.680 230.550 120.631 230.550 C 120.581 230.550 120.550 230.550 120.550 230.550 C 120.550 230.550 120.581 230.550 120.631 230.550 C 120.680 230.550 120.749 230.550 120.825 230.550 Z " transform="matrix(1, 0, 0, 1, 9.2, -45.75)"/>
  <path id="ID0.7827574824914336" fill="#BE7D3C" stroke="none" d="M 161.100 318.900 L 208.850 318.900 L 208.850 334.450 L 161.100 334.450 L 161.100 318.900 Z " transform="matrix(1, 0, 0, 1, -1.05, -2.15)"/>
  <g id="ID0.36598032573238015">
    <path id="ID0.9114570454694331" fill="#990000" stroke="none" d="M 117.200 151.100 L 163.900 151.100 L 163.900 215 L 117.200 215 L 117.200 151.100 Z " transform="matrix(0.15205414593219757, -0.392400860786438, 0.46142295002937317, 0.18483838438987732, 103.75, 330.95)"/>
    <text id="ID0.9207747979089618" fill="#FFFF00" x="127" y="186" text-anchor="start" font-family="Donegal" font-size="22" transform="matrix(0.08218453079462051, -0.21209079027175903, 0.24939687550067902, 0.09990423172712326, 196.7, 314.35)">DIARY</text>
    <path id="ID0.8574763997457922" fill="#660000" stroke="#660000" stroke-width="2" stroke-linecap="round" d="M 111.700 179.750 L 136.100 221.650 L 135 230.550 L 111.650 189.400 L 111.700 179.750 Z " transform="matrix(0.40653592348098755, -0.2355060577392578, 0.42996904253959656, 0.38857683539390564, 70.25, 270.25)"/>
    <path id="ID0.2716594887897372" fill="#FFFFFF" stroke="#B2B2B2" stroke-width="2" stroke-linecap="round" d="M 136.350 233.600 L 136.650 221.900 L 175.250 200 L 175.250 216.900 L 136.350 233.600 Z " transform="matrix(0.40653592348098755, -0.2355060577392578, 0.42996904253959656, 0.38857683539390564, 70.25, 270.25)"/>
    <path id="ID0.6027559246867895" fill="none" stroke="#B2B2B2" stroke-width="2" stroke-linecap="round" d="M 137.200 225 L 173.600 205.800 " transform="matrix(0.40653592348098755, -0.2355060577392578, 0.42996904253959656, 0.38857683539390564, 70.25, 270.25)"/>
    <path id="ID0.10302696377038956" fill="none" stroke="#B2B2B2" stroke-width="2" stroke-linecap="round" d="M 174.400 208.850 L 137.750 227.750 " transform="matrix(0.40653592348098755, -0.2355060577392578, 0.42996904253959656, 0.38857683539390564, 70.25, 270.25)"/>
    <path id="ID0.5040676104836166" fill="none" stroke="#B2B2B2" stroke-width="2" stroke-linecap="round" d="M 174.400 213.600 L 138.050 230.250 " transform="matrix(0.40653592348098755, -0.2355060577392578, 0.42996904253959656, 0.38857683539390564, 70.25, 270.25)"/>
  </g>
  <path id="ID0.4556581894867122" fill="none" stroke="#CCCCCC" stroke-width="2" stroke-linecap="round" d="M 385 107.250 L 397.200 119.450 "/>
  <path id="ID0.7527896794490516" fill="none" stroke="#CCCCCC" stroke-width="2" stroke-linecap="round" d="M 387.750 117.800 L 407.750 137.800 "/>
  <path id="ID0.8890598188154399" fill="none" stroke="#CCCCCC" stroke-width="2" stroke-linecap="round" d="M 380.550 142.800 L 402.200 160 "/>
  <path id="ID0.053702791687101126" fill="none" stroke="#CCCCCC" stroke-width="2" stroke-linecap="round" d="M 384.450 153.900 L 395.550 161.150 "/>
  <path id="ID0.9831223851069808" fill="none" stroke="#CCCCCC" stroke-width="2" stroke-linecap="round" d="M 406.650 104.450 L 422.200 118.900 "/>
</svg>