<svg version="1.1" width="482" height="363" viewBox="-1 -1 482 363" xmlns="http://www.w3.org/2000/svg" xmlns:xlink="http://www.w3.org/1999/xlink">
  <defs>
    <linearGradient id="grad_1" x2="1">
      <stop offset="0" stop-color="#006622" stop-opacity="1"/>
      <stop offset="1" stop-color="#666666" stop-opacity="1"/>
    </linearGradient>
    <linearGradient id="grad_2" y2="1">
      <stop offset="0" stop-color="#4C0099" stop-opacity="0"/>
      <stop offset="1" stop-color="#4C0099" stop-opacity="1"/>
    </linearGradient>
  </defs>
  <!-- Exported by Scratch - http://scratch.mit.edu/ -->
  <path id="ID0.3782280348241329" fill="#FFED71" stroke="none" d="M 0 0 L 480 0 L 480 360 L 0 360 L 0 0 Z "/>
  <g id="ID0.3889983934350312">
    <path id="ID0.788720260374248" fill="#FFFFFF" stroke="#C94E16" stroke-width="5" d="M 250 171 C 262.415 171 273.665 175.874 281.811 183.749 C 289.958 191.624 295 202.499 295 214.500 C 295 226.501 289.958 237.376 281.811 245.251 C 273.665 253.126 262.415 258 250 258 C 237.585 258 226.335 253.126 218.189 245.251 C 210.042 237.376 205 226.501 205 214.500 C 205 202.499 210.042 191.624 218.189 183.749 C 226.335 175.874 237.585 171 250 171 Z " transform="matrix(0.739130437374115, 0, 0, 0.739130437374115, 236.65, -102.2)"/>
    <text id="ID0.2346951705403626" fill="#000000" x="264.5" y="213.25" text-anchor="start" font-family="Helvetica" font-size="22" transform="matrix(0.739130437374115, 0, 0, 0.739130437374115, 409.2, 25.4)">12</text>
    <text id="ID0.7887067040428519" fill="#000000" x="271.5" y="233.75" text-anchor="start" font-family="Helvetica" font-size="22" transform="matrix(0.739130437374115, 0, 0, 0.739130437374115, 439.15, 46.45)">3</text>
    <text id="ID0.5295511242002249" fill="#000000" x="238" y="236.75" text-anchor="start" font-family="Helvetica" font-size="22" transform="matrix(0.739130437374115, 0, 0, 0.739130437374115, 414.75, 67.5)">6</text>
    <text id="ID0.07567070936784148" fill="#000000" x="215.5" y="216.25" text-anchor="start" font-family="Helvetica" font-size="22" transform="matrix(0.739130437374115, 0, 0, 0.739130437374115, 391.45, 47.95)">9</text>
    <path id="ID0.22677679173648357" fill="none" stroke="#000000" stroke-width="2" stroke-linecap="round" d="M 281 193.500 L 274.500 201 " transform="matrix(0.739130437374115, 0, 0, 0.739130437374115, 237.35, -101.6)"/>
    <path id="ID0.5923749785870314" fill="none" stroke="#000000" stroke-width="2" stroke-linecap="round" d="M 270 185 L 265 195.500 " transform="matrix(0.739130437374115, 0, 0, 0.739130437374115, 238.3, -102)"/>
    <path id="ID0.36793999932706356" fill="none" stroke="#000000" stroke-width="2" stroke-linecap="round" d="M 273.500 226 L 280.500 233.500 " transform="matrix(0.739130437374115, 0, 0, 0.739130437374115, 237.55, -101.05)"/>
    <path id="ID0.9935827488079667" fill="none" stroke="#000000" stroke-width="2" stroke-linecap="round" d="M 262.500 234 L 265 245.500 " transform="matrix(0.739130437374115, 0, 0, 0.739130437374115, 237, -99.95)"/>
    <path id="ID0.36826123856008053" fill="none" stroke="#000000" stroke-width="2" stroke-linecap="round" d="M 239.500 233 L 233 242 " transform="matrix(0.739130437374115, 0, 0, 0.739130437374115, 234.95, -99.4)"/>
    <path id="ID0.2531676827929914" fill="none" stroke="#000000" stroke-width="2" stroke-linecap="round" d="M 229.500 225 L 220.500 230.500 " transform="matrix(0.739130437374115, 0, 0, 0.739130437374115, 234.8, -98.85)"/>
    <path id="ID0.7210728842765093" fill="none" stroke="#000000" stroke-width="2" stroke-linecap="round" d="M 224.500 204 L 214.500 200.500 " transform="matrix(0.739130437374115, 0, 0, 0.739130437374115, 235.5, -102.35)"/>
    <path id="ID0.7160967644304037" fill="none" stroke="#000000" stroke-width="2" stroke-linecap="round" d="M 232 198.500 L 227 185.500 " transform="matrix(0.739130437374115, 0, 0, 0.739130437374115, 237.2, -103.85)"/>
    <path id="ID0.9877203772775829" fill="none" stroke="#FF0000" stroke-width="2" stroke-linecap="round" d="M 232 202.500 L 249 216 L 268 216.500 " transform="matrix(0.739130437374115, 0, 0, 0.739130437374115, 236.65, -102.2)"/>
  </g>
  <path id="ID0.7621437986381352" fill="#874D12" stroke="none" d="M 0 0 L 147 0 L 147 140 L 0 140 L 0 0 Z " transform="matrix(1.6666666269302368, 0, 0, 1, 0, 0)"/>
  <g id="ID0.21036192774772644">
    <path id="ID0.25396672636270523" fill="#995900" stroke="#663B00" stroke-width="5" d="M 78.500 77 C 81.397 77 84.022 78.065 85.923 79.784 C 87.823 81.504 89 83.879 89 86.500 C 89 89.121 87.823 91.496 85.923 93.216 C 84.022 94.935 81.397 96 78.500 96 C 75.603 96 72.978 94.935 71.077 93.216 C 69.177 91.496 68 89.121 68 86.500 C 68 83.879 69.177 81.504 71.077 79.784 C 72.978 78.065 75.603 77 78.500 77 Z " transform="matrix(1, 0, 0, 1, 256.5, 15.5)"/>
    <path id="ID0.9199520209804177" fill="#995900" stroke="#663B00" stroke-width="5" stroke-linecap="round" d="M 358 0 L 217 0 L 215 139 L 356 111 L 358 0 Z " transform="matrix(-0.6414585113525391, 0, 0, 1.239709496498108, 473.55, 1.95)"/>
  </g>
  <path id="ID0.7893082252703607" fill="#764311" stroke="none" d="M 89 87 L 243 87 L 243 91 L 89 91 L 89 87 Z "/>
  <g id="ID0.7557316701859236">
    <path id="ID0.07831405429169536" fill="#37990A" stroke="#2C7C08" stroke-width="2" d="M 144.500 29 L 180.500 29 L 180.500 86 L 144.500 86 L 144.500 29 Z "/>
    <g id="ID0.02313487371429801">
      <path id="ID0.6349827889353037" fill="#2A7608" stroke="none" d="M 226.500 332 C 239.881 332 252.006 333.065 260.786 334.784 C 269.565 336.504 275 338.879 275 341.500 C 275 344.121 269.565 346.496 260.786 348.216 C 252.006 349.935 239.881 351 226.500 351 C 213.119 351 200.994 349.935 192.214 348.216 C 183.435 346.496 178 344.121 178 341.500 C 178 338.879 183.435 336.504 192.214 334.784 C 200.994 333.065 213.119 332 226.500 332 Z " transform="matrix(0.09377788752317429, -0.015519579872488976, 0.016452450305223465, 0.09941481053829193, 132.35, 50.3)"/>
      <path id="ID0.20656937174499035" fill="none" stroke="#000000" stroke-width="4" stroke-linecap="round" d="M 271.750 176.750 L 272.250 162 L 272.250 155 L 271.500 146.250 " transform="matrix(0.09941481053829193, -0.016452450305223465, 0.016452450305223465, 0.09941481053829193, 130.8, 50.55)"/>
      <path id="ID0.3317364058457315" fill="none" stroke="#000000" stroke-width="4" stroke-linecap="round" d="M 287.500 134.250 L 285.750 153.250 L 286.250 163 " transform="matrix(0.09941481053829193, -0.016452450305223465, 0.016452450305223465, 0.09941481053829193, 130.8, 50.55)"/>
      <path id="ID0.6371308192610741" fill="none" stroke="#000000" stroke-width="4" stroke-linecap="round" d="M 160 173.750 L 159.500 165.500 L 159 158 L 156 137 " transform="matrix(-0.09534858167171478, 0.0325981043279171, 0.0325981043279171, 0.09534858167171478, 160.85, 43.6)"/>
      <path id="ID0.6371308192610741" fill="none" stroke="#000000" stroke-width="4" stroke-linecap="round" d="M 160 173.750 L 159.500 165.500 L 159 158 L 156 137 " transform="matrix(0.09941481053829193, -0.016452450305223465, 0.016452450305223465, 0.09941481053829193, 130.8, 50.55)"/>
      <path id="ID0.35067616729065776" fill="#009933" stroke="#000000" stroke-width="3" stroke-linecap="round" d="M 192 148 L 261 146.500 L 261.500 188 L 261.500 209 L 262 247 L 262.500 273.500 L 263.500 295 L 264 301.500 L 195 301 L 195.500 290.500 L 195.500 282 L 195 260 L 194.500 237 L 192.500 208.500 L 187.500 171 L 192 148 Z " transform="matrix(0.09941481053829193, -0.016452450305223465, 0.016452450305223465, 0.09941481053829193, 130.8, 50.55)"/>
      <text id="ID0.8256374052725732" fill="#009933" x="222.75" y="219.25" text-anchor="start" font-family="Helvetica" font-size="22" transform="matrix(0.14471830427646637, -0.02394985966384411, 0.02180624194443226, 0.13176538050174713, 155.55, 66.8)">$</text>
      <path id="ID0.35067616729065776" fill="#00CC44" stroke="#00CC44" stroke-width="3" stroke-linecap="round" d="M 192 148 L 261 146.500 L 261.500 188 L 261.500 209 L 262 247 L 262.500 273.500 L 263.500 295 L 264 301.500 L 195 301 L 195.500 290.500 L 195.500 282 L 195 260 L 192.500 208.500 L 187.500 171 L 192 148 Z " transform="matrix(0.07987194508314133, -0.013218243606388569, 0.016004834324121475, 0.09671007096767426, 135.25, 49.85)"/>
      <path id="ID0.6493340278975666" fill="#FFFF99" stroke="#000000" stroke-width="2" d="M 273 212 C 273.759 212 274.446 212.308 274.944 212.806 C 275.442 213.304 275.750 213.991 275.750 214.750 C 275.750 215.509 275.442 216.196 274.944 216.694 C 274.446 217.192 273.759 217.500 273 217.500 C 272.241 217.500 271.554 217.192 271.056 216.694 C 270.558 216.196 270.250 215.509 270.250 214.750 C 270.250 213.991 270.558 213.304 271.056 212.806 C 271.554 212.308 272.241 212 273 212 Z " transform="matrix(0.09941481053829193, -0.016452450305223465, 0.016452450305223465, 0.09941481053829193, 127.85, 47.7)"/>
      <path id="ID0.6493340278975666" fill="#FFFF99" stroke="#000000" stroke-width="2" d="M 273 212 C 273.759 212 274.446 212.308 274.944 212.806 C 275.442 213.304 275.750 213.991 275.750 214.750 C 275.750 215.509 275.442 216.196 274.944 216.694 C 274.446 217.192 273.759 217.500 273 217.500 C 272.241 217.500 271.554 217.192 271.056 216.694 C 270.558 216.196 270.250 215.509 270.250 214.750 C 270.250 213.991 270.558 213.304 271.056 212.806 C 271.554 212.308 272.241 212 273 212 Z " transform="matrix(0.09941481053829193, -0.016452450305223465, 0.016452450305223465, 0.09941481053829193, 123.1, 48.45)"/>
      <path id="ID0.5798622546717525" fill="#FFD499" stroke="#000000" stroke-width="4" d="M 223 43 C 243.968 43 262.968 50.900 276.726 63.662 C 290.484 76.425 299 94.050 299 113.500 C 299 132.950 290.484 150.575 276.726 163.338 C 262.968 176.100 243.968 184 223 184 C 202.032 184 183.032 176.100 169.274 163.338 C 155.516 150.575 147 132.950 147 113.500 C 147 94.050 155.516 76.425 169.274 63.662 C 183.032 50.900 202.032 43 223 43 Z " transform="matrix(0.09941481053829193, -0.016452450305223465, 0.016452450305223465, 0.09941481053829193, 130.8, 50.55)"/>
      <path id="ID0.9730379260145128" fill="#FFE9CC" stroke="none" d="M 228 54 C 246.761 54 263.761 60.835 276.070 71.878 C 288.380 82.921 296 98.171 296 115 C 296 131.829 288.380 147.079 276.070 158.122 C 263.761 169.165 246.761 176 228 176 C 209.239 176 192.239 169.165 179.930 158.122 C 167.620 147.079 160 131.829 160 115 C 160 98.171 167.620 82.921 179.930 71.878 C 192.239 60.835 209.239 54 228 54 Z " transform="matrix(0.09941481053829193, -0.016452450305223465, 0.016452450305223465, 0.09941481053829193, 130.45, 50.4)"/>
      <path id="ID0.5879502729512751" fill="#009933" stroke="#000000" stroke-width="4" stroke-linecap="round" d="M 202.500 43.500 C 212.174 41.098 221.989 36.490 231.500 38 C 247.053 40.613 263.053 46.174 275.500 55.500 C 285.493 62.967 289.304 76.446 295 87.500 C 296.424 90.264 299.063 93.363 295.500 94.500 C 281.199 99.047 265.758 100.465 251 101.500 C 218.099 103.809 184.111 103.566 152 104.500 C 143.972 104.733 145.378 106.741 145.500 104.500 C 144.949 95.804 146.761 86.596 151 79 C 156.691 68.797 164.517 59.184 174.163 52.646 C 182.520 46.984 193.044 45.974 202.500 43.500 Z " transform="matrix(0.10101260989904404, -0.01671687513589859, 0.018496748059988022, 0.11176759004592896, 130.35, 49.45)"/>
      <path id="ID0.5879502729512751" fill="#00CC44" stroke="#009933" stroke-width="4" stroke-linecap="round" d="M 202.500 43.500 C 212.174 41.098 221.989 36.490 231.500 38 C 247.053 40.613 263.053 46.174 275.500 55.500 C 285.493 62.967 289.304 76.446 295 87.500 C 296.424 90.264 299.063 93.363 295.500 94.500 C 281.199 99.047 265.758 100.465 251 101.500 C 218.099 103.809 184.111 103.566 152 104.500 C 143.972 104.733 145.378 106.741 145.500 104.500 C 144.949 95.804 146.761 86.596 151 79 C 156.691 68.797 164.517 59.184 174.163 52.646 C 182.520 46.984 193.044 45.974 202.500 43.500 Z " transform="matrix(0.08580810576677322, -0.014200636185705662, 0.01534444373100996, 0.09271962195634842, 133.95, 50.1)"/>
      <path id="ID0.055155609268695116" fill="none" stroke="#009933" stroke-width="1" stroke-linecap="round" d="M 155 89.500 L 241.500 87 L 268.500 84.500 L 278 82.500 L 286.500 81 " transform="matrix(0.09941481053829193, -0.016452450305223465, 0.016452450305223465, 0.09941481053829193, 130.95, 50.75)"/>
      <path id="ID0.054089535027742386" fill="none" stroke="#000000" stroke-width="2" stroke-linecap="round" d="M 178 134.500 L 281 128.500 " transform="matrix(0.09941481053829193, -0.016452450305223465, 0.016452450305223465, 0.09941481053829193, 130.8, 50.55)"/>
      <path id="ID0.7453797236084938" fill="#FFE9CC" stroke="#000000" stroke-width="2" d="M 172.250 130 C 173.836 130 175.274 130.560 176.315 131.465 C 177.356 132.371 178 133.621 178 135 C 178 136.379 177.356 137.629 176.315 138.535 C 175.274 139.440 173.836 140 172.250 140 C 170.664 140 169.226 139.440 168.185 138.535 C 167.144 137.629 166.500 136.379 166.500 135 C 166.500 133.621 167.144 132.371 168.185 131.465 C 169.226 130.560 170.664 130 172.250 130 Z " transform="matrix(0.09941481053829193, -0.016452450305223465, 0.016452450305223465, 0.09941481053829193, 130.8, 50.55)"/>
      <path id="ID0.20441245334222913" fill="#FFE9CC" stroke="none" stroke-linecap="round" d="M 164.500 127.900 L 172.750 127.900 L 175 144.150 L 164.500 140.400 L 164.500 127.900 Z " transform="matrix(0.09941481053829193, -0.016452450305223465, 0.016452450305223465, 0.09941481053829193, 130.8, 50.55)"/>
      <path id="ID0.9074366139248013" fill="none" stroke="#000000" stroke-width="2" stroke-linecap="round" d="M 282.250 110.500 L 292.750 110 " transform="matrix(0.09941481053829193, -0.016452450305223465, 0.016452450305223465, 0.09941481053829193, 130.8, 50.55)"/>
      <path id="ID0.6844978425651789" fill="none" stroke="#000000" stroke-width="2" stroke-linecap="round" d="M 158.750 117.500 L 168.750 117 " transform="matrix(0.09941481053829193, -0.016452450305223465, 0.016452450305223465, 0.09941481053829193, 130.8, 50.45)"/>
      <path id="ID0.28322242526337504" fill="#FFFFFF" stroke="#000000" stroke-width="2" d="M 287.250 112.500 C 288.216 112.500 289.091 112.864 289.724 113.453 C 290.358 114.041 290.750 114.853 290.750 115.750 C 290.750 116.647 290.358 117.459 289.724 118.047 C 289.091 118.636 288.216 119 287.250 119 C 286.284 119 285.409 118.636 284.776 118.047 C 284.142 117.459 283.750 116.647 283.750 115.750 C 283.750 114.853 284.142 114.041 284.776 113.453 C 285.409 112.864 286.284 112.500 287.250 112.500 Z " transform="matrix(0.09941481053829193, -0.016452450305223465, 0.016452450305223465, 0.09941481053829193, 130.8, 50.65)"/>
      <path id="ID0.28322242526337504" fill="#FFFFFF" stroke="#000000" stroke-width="2" d="M 287.250 112.500 C 288.216 112.500 289.091 112.864 289.724 113.453 C 290.358 114.041 290.750 114.853 290.750 115.750 C 290.750 116.647 290.358 117.459 289.724 118.047 C 289.091 118.636 288.216 119 287.250 119 C 286.284 119 285.409 118.636 284.776 118.047 C 284.142 117.459 283.750 116.647 283.750 115.750 C 283.750 114.853 284.142 114.041 284.776 113.453 C 285.409 112.864 286.284 112.500 287.250 112.500 Z " transform="matrix(0.09941481053829193, -0.016452450305223465, 0.016452450305223465, 0.09941481053829193, 118.85, 53.2)"/>
      <path id="ID0.6493340278975666" fill="#FFFF99" stroke="#000000" stroke-width="2" d="M 273 212 C 273.759 212 274.446 212.308 274.944 212.806 C 275.442 213.304 275.750 213.991 275.750 214.750 C 275.750 215.509 275.442 216.196 274.944 216.694 C 274.446 217.192 273.759 217.500 273 217.500 C 272.241 217.500 271.554 217.192 271.056 216.694 C 270.558 216.196 270.250 215.509 270.250 214.750 C 270.250 213.991 270.558 213.304 271.056 212.806 C 271.554 212.308 272.241 212 273 212 Z " transform="matrix(0.09941481053829193, -0.016452450305223465, 0.016452450305223465, 0.09941481053829193, 123.8, 49.1)"/>
      <path id="ID0.6493340278975666" fill="#FFFF99" stroke="#000000" stroke-width="2" d="M 273 212 C 273.759 212 274.446 212.308 274.944 212.806 C 275.442 213.304 275.750 213.991 275.750 214.750 C 275.750 215.509 275.442 216.196 274.944 216.694 C 274.446 217.192 273.759 217.500 273 217.500 C 272.241 217.500 271.554 217.192 271.056 216.694 C 270.558 216.196 270.250 215.509 270.250 214.750 C 270.250 213.991 270.558 213.304 271.056 212.806 C 271.554 212.308 272.241 212 273 212 Z " transform="matrix(0.09941481053829193, -0.016452450305223465, 0.016452450305223465, 0.09941481053829193, 124.8, 49.9)"/>
      <path id="ID0.6493340278975666" fill="#FFFF99" stroke="#000000" stroke-width="2" d="M 273 212 C 273.759 212 274.446 212.308 274.944 212.806 C 275.442 213.304 275.750 213.991 275.750 214.750 C 275.750 215.509 275.442 216.196 274.944 216.694 C 274.446 217.192 273.759 217.500 273 217.500 C 272.241 217.500 271.554 217.192 271.056 216.694 C 270.558 216.196 270.250 215.509 270.250 214.750 C 270.250 213.991 270.558 213.304 271.056 212.806 C 271.554 212.308 272.241 212 273 212 Z " transform="matrix(0.09941481053829193, -0.016452450305223465, 0.016452450305223465, 0.09941481053829193, 125.95, 50.15)"/>
      <path id="ID0.6493340278975666" fill="#FFFF99" stroke="#000000" stroke-width="2" d="M 273 212 C 273.759 212 274.446 212.308 274.944 212.806 C 275.442 213.304 275.750 213.991 275.750 214.750 C 275.750 215.509 275.442 216.196 274.944 216.694 C 274.446 217.192 273.759 217.500 273 217.500 C 272.241 217.500 271.554 217.192 271.056 216.694 C 270.558 216.196 270.250 215.509 270.250 214.750 C 270.250 213.991 270.558 213.304 271.056 212.806 C 271.554 212.308 272.241 212 273 212 Z " transform="matrix(0.09941481053829193, -0.016452450305223465, 0.016452450305223465, 0.09941481053829193, 127.05, 49.65)"/>
      <path id="ID0.6493340278975666" fill="#FFFF99" stroke="#000000" stroke-width="2" d="M 273 212 C 273.759 212 274.446 212.308 274.944 212.806 C 275.442 213.304 275.750 213.991 275.750 214.750 C 275.750 215.509 275.442 216.196 274.944 216.694 C 274.446 217.192 273.759 217.500 273 217.500 C 272.241 217.500 271.554 217.192 271.056 216.694 C 270.558 216.196 270.250 215.509 270.250 214.750 C 270.250 213.991 270.558 213.304 271.056 212.806 C 271.554 212.308 272.241 212 273 212 Z " transform="matrix(0.09941481053829193, -0.016452450305223465, 0.016452450305223465, 0.09941481053829193, 127.6, 48.7)"/>
      <text id="ID0.8256374052725732" fill="#FFFF99" x="222.75" y="219.25" text-anchor="start" font-family="Helvetica" font-size="22" transform="matrix(0.09520221501588821, -0.015755295753479004, 0.015755295753479004, 0.09520221501588821, 156.05, 67.2)">$</text>
      <path id="ID0.24719133181497455" fill="none" stroke="#000000" stroke-width="2" stroke-linecap="round" d="M 264.500 302 L 266 342 " transform="matrix(0.09941481053829193, -0.016452450305223465, 0.016452450305223465, 0.09941481053829193, 130.8, 50.55)"/>
      <path id="ID0.24719133181497455" fill="none" stroke="#000000" stroke-width="2" stroke-linecap="round" d="M 264.500 302 L 266 342 " transform="matrix(-0.09941481053829193, 0.016452450305223465, 0.016452450305223465, 0.09941481053829193, 176.55, 42.9)"/>
      <path id="ID0.2735104588791728" fill="none" stroke="#000000" stroke-width="2" stroke-linecap="round" d="M 189.500 185.500 L 182.500 212 L 209 242 " transform="matrix(0.09941481053829193, -0.016452450305223465, 0.016452450305223465, 0.09941481053829193, 130.8, 50.55)"/>
      <path id="ID0.9979875036515296" fill="none" stroke="#000000" stroke-width="2" stroke-linecap="round" d="M 260.500 180 L 268 187.500 L 277 195.500 L 293.500 208 " transform="matrix(0.10019134730100632, 0.010755534283816814, -0.010755534283816814, 0.10019134730100632, 135.7, 43.85)"/>
      <path id="ID0.7139119422063231" fill="none" stroke="#009933" stroke-width="2" stroke-linecap="round" d="M 199 291.500 L 259 292.500 " transform="matrix(0.09941481053829193, -0.016452450305223465, 0.016452450305223465, 0.09941481053829193, 130.8, 50.55)"/>
      <g id="ID0.7723280340433121">
        <path id="ID0.7444136003032327" fill="url(#grad_1)" stroke="#000000" stroke-width="3" stroke-linecap="round" d="M 86.100 185.400 L 80.100 162.900 L 90 163 L 90 159 L 94.600 158.900 L 104.500 147 L 123 144 L 125 151 L 145 148 L 143.750 142.500 L 164 138.750 L 166.500 144.500 L 219 135.250 L 218 132.250 L 228.500 130 L 232.250 140.750 L 154.500 156 L 151.500 170 L 125.500 176.500 L 112.100 173.900 L 87.600 184.900 Z " transform="matrix(0.08594077080488205, -0.014222592115402222, 0.014222592115402222, 0.08594077080488205, 145.3, 58.1)"/>
        <path id="ID0.8056069766171277" fill="none" stroke="#000000" stroke-width="2" stroke-linecap="round" d="M 214 136.500 L 216.100 143.900 " transform="matrix(0.08594077080488205, -0.014222592115402222, 0.014222592115402222, 0.08594077080488205, 145.3, 58.1)"/>
        <path id="ID0.7633276442065835" fill="none" stroke="#000000" stroke-width="2" stroke-linecap="round" d="M 209.500 138 L 211.500 144 " transform="matrix(0.08594077080488205, -0.014222592115402222, 0.014222592115402222, 0.08594077080488205, 145.3, 58.1)"/>
        <path id="ID0.3118907702155411" fill="none" stroke="#000000" stroke-width="2" stroke-linecap="round" d="M 117 168.500 L 126 171 L 146 165.500 L 149 156.500 L 125 162.500 L 126 165.500 L 141.500 162 " transform="matrix(0.08594077080488205, -0.014222592115402222, 0.014222592115402222, 0.08594077080488205, 145.3, 58.1)"/>
        <path id="ID0.8078504912555218" fill="none" stroke="#000000" stroke-width="2" stroke-linecap="round" d="M 144 146.500 L 164.500 142.500 " transform="matrix(0.08594077080488205, -0.014222592115402222, 0.014222592115402222, 0.08594077080488205, 145.3, 58.1)"/>
        <path id="ID0.6613422241061926" fill="none" stroke="#000000" stroke-width="2" stroke-linecap="round" d="M 99.500 161 L 107.500 151 L 122.500 148.500 " transform="matrix(0.08594077080488205, -0.014222592115402222, 0.014222592115402222, 0.08594077080488205, 145.3, 58.1)"/>
        <path id="ID0.15437595779076219" fill="none" stroke="#000000" stroke-width="2" stroke-linecap="round" d="M 84 163 L 91 182.500 " transform="matrix(0.08594077080488205, -0.014222592115402222, 0.014222592115402222, 0.08594077080488205, 145.3, 58.1)"/>
        <path id="ID0.2795045543462038" fill="none" stroke="#000000" stroke-width="2" stroke-linecap="round" d="M 89.500 176 L 106 171 L 110 174.500 " transform="matrix(0.08594077080488205, -0.014222592115402222, 0.014222592115402222, 0.08594077080488205, 145.3, 58.1)"/>
      </g>
    </g>
    <text id="ID0.2470379970036447" fill="#FFFF00" x="144.25" y="95.75" text-anchor="start" font-family="Helvetica" font-size="22" transform="matrix(0.1989663988351822, 0, 0, 0.1989663988351822, 146.1, 31.55)">Jarquanzela's</text>
    <text id="ID0.7712363307364285" fill="#FFFF00" x="168" y="56.75" text-anchor="start" font-family="Helvetica" font-size="22" transform="matrix(0.16464471817016602, 0, 0, 0.16464471817016602, 145.7, 37.15)">PAN-CAK-ES MIX</text>
    <path id="ID0.44271728256717324" fill="#FFFF00" stroke="#FF9400" stroke-width="4" stroke-linecap="round" d="M 139.250 111.500 L 160.500 109.500 L 157.750 85.500 L 173.500 104.500 L 185.500 81.750 L 187.750 107 L 209.750 94.500 L 199.500 115.500 L 220.500 116 L 202 127.250 L 212 136.500 L 187.500 134 L 190 147.250 L 176.250 133 L 153 134.750 L 165.500 125 L 139.250 111.500 Z " transform="matrix(0.30071356892585754, 0, 0, 0.30071356892585754, 115, 41.75)"/>
    <text id="ID0.5748781887814403" fill="#FF0000" x="166.2" y="81.4" text-anchor="start" font-family="Helvetica" font-size="22" transform="matrix(0.10010842233896255, 0, 0, 0.10010842233896255, 163.35, 73)">NOW WITH100% MOREBLEACH</text>
  </g>
  <path id="ID0.5941569982096553" fill="#7F00FF" stroke="#66004C" stroke-width="3" d="M 160.250 26 L 185.500 26 L 185.500 85.250 L 160.250 85.250 L 160.250 26 Z " transform="matrix(1.0477064847946167, 0, 0, 0.5265306234359741, 8.3, 42.7)"/>
  <path id="ID0.6420490127056837" fill="none" stroke="#66004C" stroke-width="3" stroke-linecap="round" d="M 183.250 59.750 L 179.750 65.500 "/>
  <path id="ID0.5414629718288779" fill="none" stroke="#66004C" stroke-width="3" stroke-linecap="round" d="M 190 60.500 L 190.250 66.500 "/>
  <path id="ID0.215496180113405" fill="none" stroke="#66004C" stroke-width="3" stroke-linecap="round" d="M 194.500 59.500 L 198.750 64.750 "/>
  <path id="ID0.46128500159829855" fill="url(#grad_2)" stroke="none" d="M 177.250 66.250 L 201.500 66.250 L 201.500 87 L 177.250 87 L 177.250 66.250 Z " transform="matrix(1, 0, 0, 1.4457831382751465, 0, -38.75)"/>
  <path id="ID0.926064187195152" fill="#B2B2B2" stroke="#666666" stroke-width="2" d="M 189.250 49.500 C 194.492 49.500 199.242 50.004 202.681 50.819 C 206.121 51.633 208.250 52.758 208.250 54 C 208.250 55.242 206.121 56.367 202.681 57.181 C 199.242 57.996 194.492 58.500 189.250 58.500 C 184.008 58.500 179.258 57.996 175.819 57.181 C 172.379 56.367 170.250 55.242 170.250 54 C 170.250 52.758 172.379 51.633 175.819 50.819 C 179.258 50.004 184.008 49.500 189.250 49.500 Z " transform="matrix(0.7319325804710388, 0, 0, 0.664995551109314, 50.8, 19.4)"/>
  <text id="ID0.3798205219209194" fill="#FFFF00" x="169.25" y="93.5" text-anchor="start" font-family="Helvetica" font-size="22" transform="matrix(0.573182225227356, 0, 0, 0.573182225227356, 176.35, 68.9)">PBJ</text>
  <g id="ID0.09968211920931935" transform="matrix(1, 0, 0, 1, 58.55, -78)">
    <path id="ID0.6682802899740636" fill="#7F7F7F" stroke="#666666" stroke-width="2" stroke-linecap="round" d="M 148.250 126 L 148.500 163.500 L 172.250 163.750 L 172.250 127.750 L 164.500 113.250 L 154.750 113 L 148.250 126 Z "/>
    <path id="ID0.7408287264406681" fill="#B2B2B2" stroke="#666666" stroke-width="2" d="M 159.875 109.250 C 162.668 109.250 165.200 109.628 167.033 110.239 C 168.865 110.850 170 111.694 170 112.625 C 170 113.556 168.865 114.400 167.033 115.011 C 165.200 115.622 162.668 116 159.875 116 C 157.082 116 154.550 115.622 152.717 115.011 C 150.885 114.400 149.750 113.556 149.750 112.625 C 149.750 111.694 150.885 110.850 152.717 110.239 C 154.550 109.628 157.082 109.250 159.875 109.250 Z "/>
    <path id="ID0.28246704768389463" fill="none" stroke="#B2B2B2" stroke-width="2" stroke-linecap="round" d="M 155 118.750 L 151.750 126 L 151.500 159.250 "/>
    <path id="ID0.28246704768389463" fill="none" stroke="#B2B2B2" stroke-width="2" stroke-linecap="round" d="M 155 118.750 L 151.750 126 L 151.500 159.250 " transform="matrix(-1, 0, 0, 1, 319.65, 0.5)"/>
  </g>
  <g id="ID0.09968211920931935" transform="matrix(0.6538461446762085, 0, 0, 0.6538461446762085, 25.5, -20.75)">
    <path id="ID0.6682802899740636" fill="#7F7F7F" stroke="#666666" stroke-width="2" stroke-linecap="round" d="M 148.250 126 L 148.500 163.500 L 172.250 163.750 L 172.250 127.750 L 164.500 113.250 L 154.750 113 L 148.250 126 Z "/>
    <path id="ID0.7408287264406681" fill="#B2B2B2" stroke="#666666" stroke-width="2" d="M 159.875 109.250 C 162.668 109.250 165.200 109.628 167.033 110.239 C 168.865 110.850 170 111.694 170 112.625 C 170 113.556 168.865 114.400 167.033 115.011 C 165.200 115.622 162.668 116 159.875 116 C 157.082 116 154.550 115.622 152.717 115.011 C 150.885 114.400 149.750 113.556 149.750 112.625 C 149.750 111.694 150.885 110.850 152.717 110.239 C 154.550 109.628 157.082 109.250 159.875 109.250 Z "/>
    <path id="ID0.28246704768389463" fill="none" stroke="#B2B2B2" stroke-width="2" stroke-linecap="round" d="M 155 118.750 L 151.750 126 L 151.500 159.250 "/>
    <path id="ID0.28246704768389463" fill="none" stroke="#B2B2B2" stroke-width="2" stroke-linecap="round" d="M 155 118.750 L 151.750 126 L 151.500 159.250 " transform="matrix(-1, 0, 0, 1, 319.65, 0.5)"/>
  </g>
</svg>