<svg version="1.1" width="533" height="368" viewBox="-1 -1 533 368" xmlns="http://www.w3.org/2000/svg" xmlns:xlink="http://www.w3.org/1999/xlink">
  <!-- Exported by Scratch - http://scratch.mit.edu/ -->
  <path id="ID0.7901975479908288" fill="#00FFFF" stroke="none" d="M 0 1 L 480 1 L 480 360 L 0 360 L 0 1 Z " transform="matrix(1, 0, 0, 1.0111420154571533, 0, -4)"/>
  <path id="ID0.827515110373497" fill="#FFFFFF" stroke="#CCCCCC" stroke-width="5" stroke-linecap="round" d="M 353 289 C 352.475 287.854 353.710 284.261 354 282 C 354.218 280.355 354.166 278.657 354 277 C 353.831 275.310 353.333 273.665 353 272 C 352.667 270.335 352.690 268.552 352 267 C 351.324 265.479 349.809 264.455 349 263 C 348.129 261.432 347.352 259.758 347 258 C 346.673 256.367 346.473 254.580 347 253 C 347.527 251.420 348.636 249.955 350 249 C 352.078 247.546 354.540 246.615 357 246 C 358.615 245.596 360.343 245.834 362 246 C 363.690 246.169 365.516 246.175 367 247 C 368.647 247.915 369.668 249.668 371 251 C 372.332 252.332 373.668 253.668 375 255 C 376.332 256.332 377.795 259.482 379 259 C 380.295 258.482 380 255.026 380 253 C 380 251.302 379.169 249.690 379 248 C 378.834 246.343 379 244.665 379 243 C 379 241.335 378.673 239.633 379 238 C 379.352 236.242 380.679 234.764 381 233 C 381.357 231.034 380.551 228.947 381 227 C 381.570 224.529 383.025 222.341 384 220 C 384.690 218.345 385.334 216.665 386 215 C 386.666 213.335 387.077 211.538 388 210 C 389.097 208.172 390.691 206.683 392 205 C 393.022 203.686 393.823 202.177 395 201 C 396.177 199.823 397.479 198.676 399 198 C 400.552 197.310 402.335 197.333 404 197 C 405.665 196.667 407.310 195.831 409 196 C 410.784 196.178 412.565 196.924 414 198 C 415.332 198.999 416.001 200.668 417 202 C 417.999 203.332 418.904 204.747 420 206 C 421.240 207.418 422.760 208.582 424 210 C 425.096 211.253 426.668 214.166 427 214 C 427.332 213.834 426.580 210.596 426 209 C 425.237 206.901 424.149 204.915 423 203 C 422.143 201.572 420.999 200.332 420 199 C 419.001 197.668 417.924 196.385 417 195 C 415.923 193.384 415.077 191.616 414 190 C 413.076 188.615 411.999 187.332 411 186 C 410.001 184.668 408.857 183.428 408 182 C 406.851 180.085 406.070 177.961 405 176 C 404.070 174.295 402.721 172.803 402 171 C 401.369 169.423 401.304 167.671 401 166 C 400.638 164.007 400.168 162.019 400 160 C 399.834 158.009 400 155.998 400 154 C 400 152.335 399.673 150.633 400 149 C 400.352 147.242 401.005 145.492 402 144 C 403.045 142.433 404.760 141.418 406 140 C 407.096 138.747 407.823 137.177 409 136 C 410.177 134.823 411.454 133.618 413 133 C 414.881 132.248 416.983 132.183 419 132 C 420.658 131.849 422.335 132 424 132 C 425.998 132 428.010 131.819 430 132 C 431.691 132.154 433.448 132.310 435 133 C 436.521 133.676 437.615 135.076 439 136 C 440.616 137.077 442.384 137.923 444 139 C 445.385 139.924 446.615 141.076 448 142 C 449.616 143.077 451.627 143.627 453 145 C 454.698 146.698 455.623 149.033 457 151 C 457.955 152.364 459.191 153.545 460 155 C 460.871 156.568 461.198 158.396 462 160 C 462.868 161.737 464.132 163.263 465 165 C 465.802 166.604 466.679 168.236 467 170 C 467.357 171.966 467 174.002 467 176 C 467 177.665 467.166 179.343 467 181 C 466.831 182.690 466.333 184.335 466 186 C 465.667 187.665 465.631 189.423 465 191 C 464.279 192.803 463.077 194.384 462 196 C 461.076 197.385 459.999 198.668 459 200 C 458.001 201.332 455.505 203.257 456 204 C 456.505 204.757 459.329 203.304 461 203 C 462.993 202.638 464.983 202.183 467 202 C 468.658 201.849 470.367 201.673 472 202 C 473.758 202.352 475.565 202.924 477 204 C 478.332 204.999 479.473 206.420 480 208 C 480.527 209.580 480 211.335 480 213 C 480 214.998 480 217.002 480 219 C 480 220.665 480 222.335 480 224 C 480 225.665 480 227.335 480 229 C 480 230.665 480 232.335 480 234 C 480 235.665 480.166 237.343 480 239 C 479.831 240.690 479.900 242.560 479 244 C 478.118 245.412 476.332 246.001 475 247 C 473.668 247.999 472.332 249.001 471 250 C 469.668 250.999 467.207 251.348 467 253 C 466.759 254.927 468.923 256.384 470 258 C 470.924 259.385 472.001 260.668 473 262 C 473.999 263.332 475.001 264.668 476 266 C 476.999 267.332 478.324 268.479 479 270 C 479.690 271.552 479.831 273.310 480 275 C 480.166 276.657 480.327 278.367 480 280 C 479.648 281.758 478.802 283.396 478 285 C 477.132 286.737 476.077 288.384 475 290 C 474.076 291.385 473.385 293.076 472 294 C 470.248 295.168 467.917 295.128 466 296 C 464.232 296.803 462.860 298.442 461 299 C 459.405 299.478 456.500 298 456 299 C 455.500 300 457.823 301.823 459 303 C 460.177 304.177 461.904 304.747 463 306 C 464.279 307.461 465.279 309.197 466 311 C 466.631 312.577 466.512 314.374 467 316 C 467.515 317.718 469 319.207 469 321 C 469 322.793 467.871 324.432 467 326 C 466.191 327.455 464.924 328.615 464 330 C 462.923 331.616 461.868 333.263 461 335 C 460.198 336.604 460.268 338.732 459 340 C 457.732 341.268 454.519 340.444 454 342 C 453.519 343.444 457 344.335 457 346 C 457 347.665 455.489 349.255 454 350 C 451.894 351.053 449.323 350.613 447 351 C 445.325 351.279 443.678 351.742 442 352 C 439.346 352.408 436.677 352.794 434 353 C 432.340 353.128 430.657 352.834 429 353 C 427.310 353.169 425.665 353.667 424 354 C 422.335 354.333 420.690 354.831 419 355 C 417.343 355.166 415.665 355 414 355 C 412.002 355 409.998 355 408 355 C 406.002 355 403.998 355 402 355 C 400.335 355 398.665 355 397 355 C 395.335 355 393.665 355 392 355 C 390.335 355 388.665 355 387 355 C 385.002 355 382.998 355 381 355 C 379.335 355 377.657 354.834 376 355 C 374.310 355.169 372.665 355.667 371 356 C 369.335 356.333 367.690 356.831 366 357 C 364.343 357.166 362.665 357 361 357 C 359.335 357 357.657 357.166 356 357 C 354.310 356.831 352.692 356.141 351 356 C 348.677 355.806 346.323 356.194 344 356 C 342.308 355.859 340.691 355.154 339 355 C 337.010 354.819 334.990 355.181 333 355 C 331.309 354.846 329.690 354.169 328 354 C 326.343 353.834 324.657 354.166 323 354 C 321.310 353.831 319.690 353.169 318 353 C 316.343 352.834 314.657 353.166 313 353 C 311.310 352.831 309.626 352.488 308 352 C 306.282 351.485 304.568 350.871 303 350 C 301.545 349.191 300.177 348.177 299 347 C 297.823 345.823 297.177 344.177 296 343 C 294.823 341.823 292.999 341.332 292 340 C 290.924 338.565 290.178 336.784 290 335 C 289.831 333.310 290.369 331.577 291 330 C 291.721 328.197 292.923 326.616 294 325 C 294.924 323.615 295.823 322.177 297 321 C 298.177 319.823 301.166 318.332 301 318 C 300.834 317.668 297.626 318.512 296 319 C 294.282 319.515 292.633 320.258 291 321 C 288.966 321.924 287.062 323.141 285 324 C 283.056 324.810 281.032 325.446 279 326 C 277.362 326.447 275.671 326.696 274 327 C 272.007 327.362 269.965 327.509 268 328 C 265.957 328.511 263.998 329.334 262 330 C 260.002 330.666 257.998 331.334 256 332 C 254.002 332.666 252.043 333.489 250 334 C 248.035 334.491 246.019 334.832 244 335 C 242.009 335.166 239.990 334.819 238 335 C 236.309 335.154 234.691 335.846 233 336 C 231.010 336.181 228.998 336 227 336 C 225.002 336 222.966 336.357 221 336 C 219.236 335.679 217.685 334.613 216 334 C 214.021 333.280 211.979 332.720 210 332 C 208.315 331.387 206.574 330.859 205 330 C 202.892 328.850 200.998 327.332 199 326 C 197.002 324.668 194.942 323.412 193 322 C 191.276 320.746 189.508 319.508 188 318 C 186.823 316.823 185.809 315.455 185 314 C 184.129 312.432 183.742 310.633 183 309 C 182.076 306.966 180.763 305.099 180 303 C 179.420 301.404 179.447 299.638 179 298 C 178.446 295.968 177.619 294.013 177 292 C 176.287 289.683 175.186 287.417 175 285 C 174.845 282.980 175.248 280.881 176 279 C 176.618 277.454 178.001 276.332 179 275 C 179.999 273.668 180.823 272.177 182 271 C 183.177 269.823 184.823 269.177 186 268 C 187.177 266.823 187.588 264.882 189 264 C 190.440 263.100 192.310 262.831 194 263 C 195.784 263.178 199 264.711 199 265 C 199 265.289 195.665 265 194 265 C 192.335 265 190.595 264.522 189 265 C 187.140 265.558 185.533 266.808 184 268 C 182.513 269.156 181.685 271.158 180 272 C 178.188 272.906 176.026 273 174 273 C 171.974 273 170.008 272.268 168 272 C 165.011 271.601 161.957 271.591 159 271 C 156.935 270.587 155.043 269.511 153 269 C 151.035 268.509 148.844 268.838 147 268 C 145.059 267.118 143.508 265.508 142 264 C 140.823 262.823 140.096 261.253 139 260 C 137.760 258.582 136.156 257.487 135 256 C 133.808 254.467 132.558 252.860 132 251 C 131.522 249.405 132 247.665 132 246 C 132 244.335 131.834 242.657 132 241 C 132.169 239.310 132.310 237.552 133 236 C 133.676 234.479 134.823 233.177 136 232 C 137.177 230.823 138.823 230.177 140 229 C 141.177 227.823 141.823 226.177 143 225 C 144.177 223.823 145.479 222.676 147 222 C 148.552 221.310 150.342 220.632 152 221 C 153.625 221.361 154.615 223.076 156 224 C 156.620 224.413 158 225 158 225 C 157.500 223 156.400 217.250 155.500 214.500 C 154.200 210.700 152.250 207.200 151 203.500 C 150.250 201.350 149.950 199.150 149.500 197 C 149.100 195.150 148.700 193.300 148.500 191.500 C 148.200 189.300 148.150 187.150 148 185 C 147.800 182.500 147.600 180 147.500 177.500 C 147.250 172.800 147.100 168.150 147 163.500 C 146.950 161.650 146.750 159.800 147 158 C 147.250 155.950 147.750 153.900 148.500 152 C 150.450 146.550 151.500 140.600 155 136 C 157.300 132.850 161.450 131.600 165 130 C 166.850 129.100 168.950 128.950 171 128.500 C 173.150 127.950 175.300 127.400 177.500 127 C 179.450 126.600 181.450 126.250 183.500 126 C 185.450 125.750 187.450 125.500 189.500 125.500 C 191.300 125.500 193.150 125.650 195 126 C 197 126.350 199.100 126.650 201 127.500 C 202.650 128.200 204.150 129.250 205.500 130.500 C 206.850 131.750 207.950 133.350 209 135 C 209.950 136.550 210.800 138.250 211.500 140 C 212.800 143.400 213.800 147 215 150.500 C 215.650 152.450 216.400 154.450 217 156.500 C 217.400 158.100 217.650 159.800 218 161.500 C 218.300 163.150 218.800 164.800 219 166.500 C 219.150 168.150 217.800 170.900 219 171.500 C 220.300 172.150 222.400 169.950 224 169 C 225.400 168.100 226.500 166.700 228 166 C 229.550 165.200 231.250 164.750 233 164.500 C 236.450 163.900 239.950 163.400 243.500 163.500 C 247.350 163.550 251.200 164.100 255 165 C 258.550 165.800 261.950 167.400 265.500 168.500 C 267.300 169.050 269.250 169.200 271 170 C 272.600 170.700 274.150 171.750 275.500 173 C 278.350 175.600 280.950 178.500 283.500 181.500 C 284.800 183 286.050 184.650 287 186.500 C 287.750 188.050 287.950 189.850 288.500 191.500 C 289.600 194.800 291.050 198.050 292 201.500 C 292.400 203.100 292.250 204.800 292.500 206.500 C 292.950 210 293.850 213.450 294 217 C 294.050 218.650 293.650 220.400 293 222 C 292.300 223.500 290.900 224.600 290 226 C 289.050 227.400 288.400 229.050 287.500 230.500 C 286.550 231.850 282.900 234.500 284.500 234.500 C 289.900 234.500 295.750 231.600 301.500 230.500 C 303.300 230.100 305.200 229.500 307 230 C 310.350 230.900 313.600 232.500 316.500 234.500 C 319.300 236.400 321.950 238.700 324 241.500 C 326.050 244.300 327.150 247.750 328.500 251 C 329.150 252.600 329.650 254.250 330 256 C 330.300 257.600 330.800 259.350 330.500 261 C 330.100 262.800 328.900 264.350 328 266 C 327.050 267.550 324.400 268.800 325 270.500 C 325.650 272.300 328.500 272.500 330.500 273 C 332.100 273.350 333.800 273 335.500 273 C 337.300 273 339.200 272.550 341 273 C 342.800 273.400 344.500 274.350 346 275.500 C 347.400 276.550 348.600 277.950 349.500 279.500 C 350.300 281 350.657 282.760 351 284.500 C 351.159 285.458 350.757 287.702 351 287.500 Z " transform="matrix(0.4838709533214569, 0, 0, 0.4838709533214569, -55.9, -38.75)"/>
  <path id="ID0.8461286430247128" fill="#FFFFFF" stroke="#CCCCCC" stroke-width="5" stroke-linecap="round" d="M 225 284 C 228.152 273.586 224.802 263.582 226 254 C 226.499 250.007 228.930 246.450 231 243 C 232.953 239.744 235.434 236.799 238 234 C 239.125 232.773 240.420 231.527 242 231 C 243.580 230.473 245.367 230.673 247 231 C 248.758 231.352 250.432 232.129 252 233 C 253.455 233.809 254.823 234.823 256 236 C 257.177 237.177 258.001 238.668 259 240 C 259.999 241.332 261.382 242.454 262 244 C 263.410 247.525 264.300 251.268 265 255 C 265.307 256.636 264.032 258.645 265 260 C 266.042 261.459 268.236 262.321 270 262 C 275.906 260.926 281.199 257.547 287 256 C 291.232 254.871 295.631 254.312 300 254 C 304.982 253.644 310.030 253.503 315 254 C 316.784 254.178 318.367 255.258 320 256 C 322.034 256.924 323.966 258.076 326 259 C 327.633 259.742 329.565 259.924 331 261 C 332.332 261.999 333.191 263.545 334 265 C 334.871 266.568 335.857 268.212 336 270 C 336.531 276.639 336.531 283.361 336 290 C 335.857 291.788 333.080 294.310 334 295 C 335.080 295.810 338.083 293.872 340 293 C 341.768 292.197 343.232 290.803 345 290 C 346.917 289.128 348.903 288.191 351 288 C 352.691 287.846 354.711 287.895 356 289 C 357.362 290.167 357.129 292.432 358 294 C 358.809 295.455 360.344 296.470 361 298 C 362.370 301.196 364 304.523 364 308 C 364 309.665 360.500 311 361 312 C 361.500 313 364.343 311.834 366 312 C 367.690 312.169 369.516 312.175 371 313 C 372.647 313.915 373.582 315.760 375 317 C 376.253 318.096 377.823 318.823 379 320 C 380.177 321.177 382 322.335 382 324 C 382 325.665 380.591 327.510 379 328 C 375.817 328.979 372.330 328 369 328 C 363.339 328 357.655 328.257 352 328 C 350.304 327.923 350.329 327.074 347 327 C 333.683 326.704 320.317 327.266 307 327 C 303.654 326.933 300.317 326.442 297 326 C 295.317 325.776 293.690 325.169 292 325 C 290.343 324.834 289.259 325.353 287 325 C 277.966 323.588 269.034 321.412 260 320 C 257.741 319.647 256.661 320.111 255 320 C 251.661 319.777 248.321 319.415 245 319 C 242.990 318.749 241.023 318.096 239 318 C 234.011 317.762 228.995 318 224 318 C 215.675 318 207.241 319.177 199 318 C 196.940 317.706 196.527 315.580 196 314 C 195.473 312.420 195.673 310.633 196 309 C 196.352 307.242 197.129 305.568 198 304 C 198.809 302.545 199.823 301.177 201 300 C 202.177 298.823 203.668 297.999 205 297 C 207.664 295.002 210.164 292.745 213 291 C 214.527 290.060 216.473 289.940 218 289 C 220.836 287.255 225.258 286.246 226 283 Z " transform="matrix(0.627286970615387, 0, 0, 0.627286970615387, 43.9, -38.05)"/>
  <path id="ID0.678022023756057" fill="#FFFFFF" stroke="#CCCCCC" stroke-width="5" stroke-linecap="round" d="M 93 308 C 91.281 305.117 92.253 302.384 92 300 C 91.815 298.219 90.472 296.730 90 295 C 89.467 293.046 89.491 290.965 89 289 C 88.489 286.957 87.554 285.032 87 283 C 86.553 281.362 86.488 279.626 86 278 C 85.485 276.282 84.515 274.718 84 273 C 83.512 271.374 83.333 269.665 83 268 C 82.667 266.335 82.154 264.691 82 263 C 81.819 261.010 81.643 258.966 82 257 C 82.321 255.236 83.485 253.718 84 252 C 84.488 250.374 84.553 248.638 85 247 C 85.554 244.968 86.190 242.944 87 241 C 87.859 238.938 88.851 236.915 90 235 C 90.857 233.572 92.001 232.332 93 231 C 93.999 229.668 94.978 228.314 96 227 C 97.309 225.317 98.406 223.417 100 222 C 101.451 220.710 103.335 219.999 105 219 C 106.665 218.001 108.197 216.721 110 216 C 111.577 215.369 113.309 215.154 115 215 C 116.990 214.819 119.002 215 121 215 C 122.665 215 124.405 214.522 126 215 C 127.860 215.558 129.484 216.787 131 218 C 132.839 219.471 134.335 221.335 136 223 C 137.665 224.665 139.529 226.161 141 228 C 142.213 229.516 142.923 231.384 144 233 C 144.924 234.385 146.076 235.615 147 237 C 148.077 238.616 149.132 240.263 150 242 C 151.134 244.268 152.198 246.594 153 249 C 153.537 250.611 153.831 252.310 154 254 C 154.166 255.657 152.796 258.278 154 259 C 155.296 259.778 157.335 257.666 159 257 C 160.665 256.334 162.396 255.802 164 255 C 165.737 254.132 167.116 252.471 169 252 C 171.261 251.435 173.669 252 176 252 C 177.665 252 179.342 251.849 181 252 C 183.017 252.183 185.046 252.467 187 253 C 188.730 253.472 190.565 253.924 192 255 C 193.332 255.999 193.823 257.823 195 259 C 196.177 260.177 197.747 260.904 199 262 C 200.418 263.240 201.920 264.457 203 266 C 204.281 267.830 204.851 270.085 206 272 C 206.857 273.428 208.324 274.479 209 276 C 209.690 277.552 209.667 279.335 210 281 C 210.333 282.665 211 284.302 211 286 C 211 287.698 210.488 289.374 210 291 C 209.485 292.718 208.802 294.396 208 296 C 207.132 297.737 204.845 300.690 205 301 C 205.155 301.310 207.454 298.618 209 298 C 210.881 297.248 212.983 297.183 215 297 C 216.658 296.849 218.343 296.834 220 297 C 221.690 297.169 223.516 297.175 225 298 C 226.647 298.915 227.955 300.433 229 302 C 229.995 303.492 230.822 305.216 231 307 C 231.169 308.690 230.333 310.335 230 312 C 229.667 313.665 228.928 317 229 317 C 229.072 317 230.334 313.665 231 312 C 231.666 310.335 232.485 308.718 233 307 C 233.488 305.374 233.369 303.577 234 302 C 234.721 300.197 236.001 298.665 237 297 C 237.999 295.335 238.923 293.616 240 292 C 240.924 290.615 241.668 288.999 243 288 C 244.435 286.924 246.335 286.666 248 286 C 249.665 285.334 251.242 284.352 253 284 C 254.633 283.673 256.405 283.522 258 284 C 259.860 284.558 261.263 286.132 263 287 C 264.604 287.802 266.508 288.005 268 289 C 269.567 290.045 270.760 291.582 272 293 C 273.096 294.253 274.324 295.479 275 297 C 275.690 298.552 275.831 300.310 276 302 C 276.166 303.657 276.712 306.763 276 307 C 275.288 307.237 273.999 304.332 273 303 C 272.001 301.668 270.924 300.385 270 299 C 268.923 297.384 267.868 295.737 267 294 C 266.198 292.396 265.802 290.604 265 289 C 264.132 287.263 262.721 285.803 262 284 C 261.369 282.423 261.169 280.690 261 279 C 260.834 277.343 261 275.665 261 274 C 261 272.335 261 270.665 261 269 C 261 267.335 260.834 265.657 261 264 C 261.169 262.310 261.369 260.577 262 259 C 262.721 257.197 263.887 255.591 265 254 C 266.223 252.253 267.691 250.683 269 249 C 270.022 247.686 270.823 246.177 272 245 C 273.177 243.823 274.668 242.999 276 242 C 277.332 241.001 278.378 239.374 280 239 C 282.920 238.326 286.011 238.786 289 239 C 290.694 239.121 292.448 239.310 294 240 C 295.521 240.676 296.668 242.001 298 243 C 299.332 243.999 300.668 245.001 302 246 C 303.332 246.999 304.823 247.823 306 249 C 307.177 250.177 308.001 251.668 309 253 C 309.999 254.332 310.982 257.611 312 257 C 313.482 256.111 313.375 252.342 314 250 C 314.708 247.347 315.014 244.563 316 242 C 316.697 240.188 318.001 238.665 319 237 C 319.999 235.335 321.070 233.705 322 232 C 323.070 230.039 323.851 227.915 325 226 C 325.857 224.572 326.823 223.177 328 222 C 329.177 220.823 330.545 219.809 332 219 C 333.568 218.129 335.282 217.515 337 217 C 338.626 216.512 340.342 215.632 342 216 C 343.625 216.361 344.668 218.001 346 219 C 347.332 219.999 348.823 220.823 350 222 C 351.177 223.177 352.001 224.668 353 226 C 353.999 227.332 354.904 228.747 356 230 C 357.240 231.418 358.668 232.668 360 234 C 361.332 235.332 363.085 236.353 364 238 C 364.825 239.484 364.512 241.374 365 243 C 365.515 244.718 366.648 246.242 367 248 C 367.327 249.633 367 251.335 367 253 C 367 254.665 365.675 257.338 367 258 C 368.675 258.838 371.002 256.666 373 256 C 374.998 255.334 377.002 254.666 379 254 C 380.998 253.334 382.928 252.377 385 252 C 386.638 251.702 388.367 251.673 390 252 C 391.758 252.352 393.432 253.129 395 254 C 396.455 254.809 397.686 255.978 399 257 C 400.683 258.309 402.406 259.583 404 261 C 405.408 262.251 406.668 263.668 408 265 C 409.332 266.332 411.085 267.353 412 269 C 412.825 270.484 412.831 272.310 413 274 C 413.166 275.657 413.327 277.367 413 279 C 412.648 280.758 411.871 282.432 411 284 C 410.191 285.455 408.999 286.668 408 288 C 407.001 289.332 404.765 290.352 405 292 C 405.235 293.648 407.545 294.191 409 295 C 410.568 295.871 412.282 296.485 414 297 C 415.626 297.488 417.325 297.721 419 298 C 421.323 298.387 423.677 298.613 426 299 C 427.675 299.279 429.560 299.100 431 300 C 432.412 300.882 433.473 302.420 434 304 C 434.527 305.580 434 307.335 434 309 C 434 310.998 434.181 313.010 434 315 C 433.846 316.691 433.488 318.374 433 320 C 432.485 321.718 431.995 323.508 431 325 C 429.955 326.567 427.234 327.131 427 329 C 426.793 330.652 429.001 331.668 430 333 C 430.999 334.332 433.235 335.352 433 337 C 432.765 338.648 430.489 339.255 429 340 C 427.116 340.942 425.082 341.680 423 342 C 420.696 342.354 418.331 342 416 342 C 413.669 342 411.331 342 409 342 C 407.335 342 405.665 342 404 342 C 402.335 342 400.657 341.834 399 342 C 397.310 342.169 395.690 342.831 394 343 C 392.343 343.166 390.638 342.702 389 343 C 386.928 343.377 385.072 344.623 383 345 C 381.362 345.298 379.658 344.849 378 345 C 375.983 345.183 373.993 345.638 372 346 C 370.329 346.304 368.690 346.831 367 347 C 365.343 347.166 363.657 346.834 362 347 C 360.310 347.169 358.665 347.667 357 348 C 355.335 348.333 353.692 348.859 352 349 C 349.677 349.194 347.331 349 345 349 C 343.002 349 340.998 349 339 349 C 337.002 349 334.971 349.328 333 349 C 330.923 348.654 329.077 347.346 327 347 C 325.029 346.672 322.998 347 321 347 C 319.335 347 317.665 347 316 347 C 314.335 347 312.657 347.166 311 347 C 309.310 346.831 307.690 346.169 306 346 C 304.343 345.834 302.665 346 301 346 C 299.002 346 296.998 346 295 346 C 293.335 346 291.658 345.849 290 346 C 287.983 346.183 286.017 346.817 284 347 C 282.342 347.151 280.665 347 279 347 C 277.335 347 275.665 347 274 347 C 272.335 347 270.665 347 269 347 C 267.335 347 265.665 347 264 347 C 262.335 347 260.665 347 259 347 C 257.002 347 254.998 347 253 347 C 251.002 347 248.998 347 247 347 C 245.335 347 243.665 347 242 347 C 240.335 347 238.665 347 237 347 C 235.002 347 232.998 347 231 347 C 229.335 347 227.665 347 226 347 C 224.002 347 221.998 347 220 347 C 218.002 347 215.998 347 214 347 C 212.002 347 209.998 347 208 347 C 206.002 347 203.998 347 202 347 C 200.335 347 198.665 347 197 347 C 195.335 347 193.665 347 192 347 C 190.335 347 188.657 346.834 187 347 C 185.310 347.169 183.692 347.859 182 348 C 179.677 348.194 177.331 348 175 348 C 172.669 348 170.331 348 168 348 C 166.335 348 164.665 348 163 348 C 161.335 348 159.489 348.745 158 348 C 156.511 347.255 155.809 345.455 155 344 C 154.129 342.432 153.352 340.758 153 339 C 152.673 337.367 152.834 335.657 153 334 C 153.169 332.310 153.310 330.552 154 329 C 154.676 327.479 157.106 325.106 157 325 C 156.894 324.894 154.580 327.473 153 328 C 150.453 328.849 147.678 328.809 145 329 C 143.007 329.142 140.998 329 139 329 C 137.335 329 135.665 329 134 329 C 132.335 329 130.595 329.478 129 329 C 127.140 328.442 125.616 327.077 124 326 C 122.615 325.076 121.332 323.999 120 323 C 118.668 322.001 117.489 320.745 116 320 C 114.116 319.058 112.032 318.554 110 318 C 108.362 317.553 106.626 317.488 105 317 C 103.282 316.485 101.665 315.666 100 315 C 98.335 314.334 96.435 314.076 95 313 C 93.668 312.001 92.924 310.385 92 309 C 91.587 308.380 91 307.640 91 307 Z " transform="matrix(0.5981342196464539, 0, 0, 0.5981342196464539, 167.7, -99.95)"/>
  <path id="ID0.5104022496379912" fill="#FFFFFF" stroke="#CCCCCC" stroke-width="5" stroke-linecap="round" d="M 243 260 C 250.564 255.184 251.806 252.793 253 251 C 253.860 249.584 255.076 248.385 256 247 C 257.077 245.384 257.627 243.373 259 242 C 260.373 240.627 262.197 239.721 264 239 C 265.577 238.369 267.335 238.333 269 238 C 270.665 237.667 272.310 237.169 274 237 C 275.657 236.834 277.343 237.166 279 237 C 280.690 236.831 282.308 236.141 284 236 C 286.323 235.806 288.669 236 291 236 C 292.665 236 294.367 235.673 296 236 C 297.758 236.352 299.432 237.129 301 238 C 302.455 238.809 303.668 240.001 305 241 C 306.332 241.999 307.511 243.255 309 244 C 310.884 244.942 313.021 245.280 315 246 C 316.685 246.613 318.242 247.648 320 248 C 321.633 248.327 323.511 248.745 325 248 C 326.489 247.255 327.001 245.332 328 244 C 328.999 242.668 330.001 241.332 331 240 C 331.999 238.668 333.001 237.332 334 236 C 334.999 234.668 336.001 233.332 337 232 C 337.999 230.668 338.823 229.177 340 228 C 341.177 226.823 342.420 225.527 344 225 C 345.580 224.473 347.342 225.151 349 225 C 351.017 224.817 352.983 224.183 355 224 C 356.658 223.849 358.335 224 360 224 C 361.665 224 363.343 223.834 365 224 C 366.690 224.169 368.560 224.100 370 225 C 371.412 225.882 371.978 227.686 373 229 C 374.309 230.683 375.668 232.335 377 234 C 378.332 235.665 380.208 237.020 381 239 C 381.618 240.546 380.062 243.765 381 244 C 382.062 244.265 383.385 240.969 385 240 C 386.806 238.916 389.021 238.720 391 238 C 392.685 237.387 394.236 236.321 396 236 C 397.966 235.643 400.002 236 402 236 C 403.998 236 406.029 235.672 408 236 C 410.077 236.346 412.021 237.280 414 238 C 415.685 238.613 417.432 239.129 419 240 C 420.455 240.809 421.747 241.904 423 243 C 424.418 244.240 425.760 245.582 427 247 C 428.096 248.253 429.191 249.545 430 251 C 430.871 252.568 432 254.207 432 256 C 432 257.793 430.871 259.432 430 261 C 429.191 262.455 428.177 263.823 427 265 C 425.823 266.177 422.752 267.010 423 268 C 423.252 269.010 426.310 268.831 428 269 C 429.657 269.166 431.335 269 433 269 C 434.998 269 437.034 268.643 439 269 C 440.764 269.321 442.819 269.650 444 271 C 445.387 272.585 445.809 274.903 446 277 C 446.154 278.691 445.690 280.448 445 282 C 444.324 283.521 443.177 284.823 442 286 C 440.823 287.177 439.521 288.324 438 289 C 436.448 289.690 434.690 289.831 433 290 C 431.343 290.166 429.665 290 428 290 C 426.335 290 424.606 290.438 423 290 C 420.845 289.412 419.155 287.588 417 287 C 415.394 286.562 413.665 287 412 287 C 410.335 287 408.665 287 407 287 C 405.335 287 403.665 287 402 287 C 400.335 287 398.665 287 397 287 C 395.002 287 392.998 287 391 287 C 389.335 287 387.665 287 386 287 C 384.335 287 382.657 286.834 381 287 C 379.310 287.169 377.690 287.831 376 288 C 374.343 288.166 372.665 288 371 288 C 369.335 288 367.657 287.834 366 288 C 364.310 288.169 362.690 288.831 361 289 C 359.343 289.166 357.665 289 356 289 C 354.335 289 352.657 288.834 351 289 C 349.310 289.169 347.690 290.169 346 290 C 344.216 289.822 342.758 288.352 341 288 C 339.367 287.673 337.580 288.527 336 288 C 334.420 287.473 332.745 286.489 332 285 C 331.255 283.511 331.673 281.633 332 280 C 332.352 278.242 334.706 276.648 334 275 C 333.294 273.352 330.764 273.321 329 273 C 327.034 272.643 324.998 273 323 273 C 320.669 273 318.331 273 316 273 C 314.335 273 312.638 272.702 311 273 C 308.928 273.377 307.032 274.446 305 275 C 303.362 275.447 301.690 275.831 300 276 C 298.343 276.166 296.657 275.834 295 276 C 293.310 276.169 291.690 276.831 290 277 C 288.343 277.166 286.665 277 285 277 C 283.335 277 281.665 277 280 277 C 278.335 277 276.657 277.166 275 277 C 273.310 276.831 271.671 276.304 270 276 C 268.007 275.638 265.922 275.641 264 275 C 261.881 274.294 260.119 272.706 258 272 C 256.078 271.359 254.020 271.155 252 271 C 249.676 270.821 247.331 271 245 271 C 243.335 271 241.665 271 240 271 C 238.335 271 236.657 270.834 235 271 C 233.310 271.169 231.665 271.667 230 272 C 228.335 272.333 226.413 273.942 225 273 C 223.587 272.058 223.632 269.658 224 268 C 224.361 266.375 225.588 264.882 227 264 C 228.440 263.100 230.310 263.169 232 263 C 233.657 262.834 235.335 263 237 263 C 238.665 263 240.420 263.527 242 263 C 243.580 262.473 244.668 260.999 246 260 C 247.332 259.001 248.700 258.040 250 257 C 250.368 256.706 250.819 256.362 251 256 Z " transform="matrix(0.5369718074798584, 0, 0, 0.5369718074798584, 181.3, 8.2)"/>
  <path id="ID0.2668598904274404" fill="#009933" stroke="#00CC44" stroke-width="6" stroke-linecap="round" d="M 1 252 L 480 252 L 480 360 L 1 360 L 1 252 Z " transform="matrix(1.0968040227890015, 0, 0, 1.0740740299224854, -14.8, -26.6)"/>
</svg>