<svg version="1.1" width="50" height="26" viewBox="-1 -1 50 26" xmlns="http://www.w3.org/2000/svg" xmlns:xlink="http://www.w3.org/1999/xlink">
  <defs>
    <radialGradient id="grad_1" cx="0.5121" cy="0.5" r="0.66573">
      <stop offset="0" stop-color="#7F00FF" stop-opacity="1"/>
      <stop offset="1" stop-color="#7F00FF" stop-opacity="0"/>
    </radialGradient>
    <radialGradient id="grad_2" cx="0.5121" cy="0.5" r="0.66573">
      <stop offset="0" stop-color="#7F00FF" stop-opacity="1"/>
      <stop offset="1" stop-color="#7F00FF" stop-opacity="0"/>
    </radialGradient>
    <radialGradient id="grad_3" cx="0.5121" cy="0.5" r="0.66573">
      <stop offset="0" stop-color="#7F00FF" stop-opacity="1"/>
      <stop offset="1" stop-color="#7F00FF" stop-opacity="0"/>
    </radialGradient>
    <radialGradient id="grad_4" cx="0.5121" cy="0.5" r="0.66573">
      <stop offset="0" stop-color="#7F00FF" stop-opacity="1"/>
      <stop offset="1" stop-color="#7F00FF" stop-opacity="0"/>
    </radialGradient>
    <radialGradient id="grad_5" cx="0.5121" cy="0.5" r="0.66573">
      <stop offset="0" stop-color="#7F00FF" stop-opacity="1"/>
      <stop offset="1" stop-color="#7F00FF" stop-opacity="0"/>
    </radialGradient>
    <radialGradient id="grad_6" cx="0.5121" cy="0.5" r="0.66573">
      <stop offset="0" stop-color="#7F00FF" stop-opacity="1"/>
      <stop offset="1" stop-color="#7F00FF" stop-opacity="0"/>
    </radialGradient>
    <radialGradient id="grad_7" cx="0.5121" cy="0.5" r="0.66573">
      <stop offset="0" stop-color="#7F00FF" stop-opacity="1"/>
      <stop offset="1" stop-color="#7F00FF" stop-opacity="0"/>
    </radialGradient>
    <radialGradient id="grad_8" cx="0.5121" cy="0.5" r="0.66573">
      <stop offset="0" stop-color="#7F00FF" stop-opacity="1"/>
      <stop offset="1" stop-color="#7F00FF" stop-opacity="0"/>
    </radialGradient>
    <radialGradient id="grad_9" cx="0.5121" cy="0.5" r="0.66573">
      <stop offset="0" stop-color="#7F00FF" stop-opacity="1"/>
      <stop offset="1" stop-color="#7F00FF" stop-opacity="0"/>
    </radialGradient>
    <radialGradient id="grad_10" cx="0.5121" cy="0.5" r="0.66573">
      <stop offset="0" stop-color="#7F00FF" stop-opacity="1"/>
      <stop offset="1" stop-color="#7F00FF" stop-opacity="0"/>
    </radialGradient>
    <radialGradient id="grad_11" cx="0.5121" cy="0.5" r="0.66573">
      <stop offset="0" stop-color="#7F00FF" stop-opacity="1"/>
      <stop offset="1" stop-color="#7F00FF" stop-opacity="0"/>
    </radialGradient>
    <radialGradient id="grad_12" cx="0.5121" cy="0.5" r="0.66573">
      <stop offset="0" stop-color="#7F00FF" stop-opacity="1"/>
      <stop offset="1" stop-color="#7F00FF" stop-opacity="0"/>
    </radialGradient>
    <radialGradient id="grad_13" cx="0.5121" cy="0.5" r="0.66573">
      <stop offset="0" stop-color="#7F00FF" stop-opacity="1"/>
      <stop offset="1" stop-color="#7F00FF" stop-opacity="0"/>
    </radialGradient>
    <radialGradient id="grad_14" cx="0.5121" cy="0.5" r="0.66573">
      <stop offset="0" stop-color="#7F00FF" stop-opacity="1"/>
      <stop offset="1" stop-color="#7F00FF" stop-opacity="0"/>
    </radialGradient>
    <radialGradient id="grad_15" cx="0.5121" cy="0.5" r="0.66573">
      <stop offset="0" stop-color="#7F00FF" stop-opacity="1"/>
      <stop offset="1" stop-color="#7F00FF" stop-opacity="0"/>
    </radialGradient>
    <radialGradient id="grad_16" cx="0.5121" cy="0.5" r="0.66573">
      <stop offset="0" stop-color="#7F00FF" stop-opacity="1"/>
      <stop offset="1" stop-color="#7F00FF" stop-opacity="0"/>
    </radialGradient>
    <radialGradient id="grad_17" cx="0.5121" cy="0.5" r="0.66573">
      <stop offset="0" stop-color="#7F00FF" stop-opacity="1"/>
      <stop offset="1" stop-color="#7F00FF" stop-opacity="0"/>
    </radialGradient>
    <radialGradient id="grad_18" cx="0.5121" cy="0.5" r="0.66573">
      <stop offset="0" stop-color="#7F00FF" stop-opacity="1"/>
      <stop offset="1" stop-color="#7F00FF" stop-opacity="0"/>
    </radialGradient>
    <linearGradient id="grad_19" x2="1">
      <stop offset="0" stop-color="#E63EFF" stop-opacity="0"/>
      <stop offset="1" stop-color="#E63EFF" stop-opacity="1"/>
    </linearGradient>
  </defs>
  <!-- Exported by Scratch - http://scratch.mit.edu/ -->
  <path id="ID0.9009842611849308" fill="none" stroke="#FF00BF" stroke-width="2" stroke-linecap="round" d="M 245.750 179.750 C 245.750 179.750 244.549 180.966 244.500 181.750 C 244.454 182.493 245.117 183.112 245.500 183.750 C 245.868 184.364 246.805 184.786 246.750 185.500 C 246.696 186.204 245.444 186.321 245.250 187 C 245.061 187.660 245.338 188.451 245.750 189 C 246.153 189.537 247.442 189.359 247.500 190 C 247.567 190.734 246.446 191.125 246 191.750 C 245.610 192.296 244.952 192.831 245 193.500 C 245.051 194.214 246.368 194.544 246.250 195.250 C 246.132 195.956 244.916 195.917 244.500 196.500 C 244.363 196.692 245 197 245 197 " transform="matrix(1, 0, 0, 1, -204.5, -175.25)"/>
  <path id="ID0.2766700047068298" fill="none" stroke="#FF00BF" stroke-width="2" stroke-linecap="round" d="M 236.750 177 C 236.750 177 236.117 178.517 235.750 179.250 C 235.450 179.850 234.587 180.349 234.750 181 C 234.924 181.695 236.160 181.619 236.500 182.250 C 236.816 182.836 236.816 183.664 236.500 184.250 C 236.160 184.881 235.090 184.869 234.750 185.500 C 234.434 186.086 234.503 186.882 234.750 187.500 C 235.035 188.213 235.965 188.537 236.250 189.250 C 236.497 189.868 236.461 190.618 236.250 191.250 C 236.024 191.929 235.226 192.321 235 193 C 234.789 193.632 234.738 194.388 235 195 C 235.278 195.649 236.562 195.817 236.500 196.500 C 236.437 197.192 235.391 197.430 234.750 197.750 C 234.527 197.862 234 197.750 234 197.750 " transform="matrix(1, 0, 0, 1, -204.5, -175.25)"/>
  <path id="ID0.3017851007170975" fill="url(#grad_1)" stroke="none" d="M 206.375 209.500 C 207.789 209.500 209.070 209.976 209.998 210.746 C 210.926 211.515 211.500 212.577 211.500 213.750 C 211.500 214.923 210.926 215.985 209.998 216.754 C 209.070 217.524 207.789 218 206.375 218 C 204.961 218 203.680 217.524 202.752 216.754 C 201.824 215.985 201.250 214.923 201.250 213.750 C 201.250 212.577 201.824 211.515 202.752 210.746 C 203.680 209.976 204.961 209.500 206.375 209.500 Z " transform="matrix(1, 0, 0, 1, -185.25, -204)"/>
  <path id="ID0.3017851007170975" fill="url(#grad_2)" stroke="none" d="M 206.375 209.500 C 207.789 209.500 209.070 209.976 209.998 210.746 C 210.926 211.515 211.500 212.577 211.500 213.750 C 211.500 214.923 210.926 215.985 209.998 216.754 C 209.070 217.524 207.789 218 206.375 218 C 204.961 218 203.680 217.524 202.752 216.754 C 201.824 215.985 201.250 214.923 201.250 213.750 C 201.250 212.577 201.824 211.515 202.752 210.746 C 203.680 209.976 204.961 209.500 206.375 209.500 Z " transform="matrix(1, 0, 0, 1, -186.1, -199)"/>
  <path id="ID0.3017851007170975" fill="url(#grad_3)" stroke="none" d="M 206.375 209.500 C 207.789 209.500 209.070 209.976 209.998 210.746 C 210.926 211.515 211.500 212.577 211.500 213.750 C 211.500 214.923 210.926 215.985 209.998 216.754 C 209.070 217.524 207.789 218 206.375 218 C 204.961 218 203.680 217.524 202.752 216.754 C 201.824 215.985 201.250 214.923 201.250 213.750 C 201.250 212.577 201.824 211.515 202.752 210.746 C 203.680 209.976 204.961 209.500 206.375 209.500 Z " transform="matrix(1, 0, 0, 1, -188.75, -201.75)"/>
  <path id="ID0.3017851007170975" fill="url(#grad_4)" stroke="none" d="M 206.375 209.500 C 207.789 209.500 209.070 209.976 209.998 210.746 C 210.926 211.515 211.500 212.577 211.500 213.750 C 211.500 214.923 210.926 215.985 209.998 216.754 C 209.070 217.524 207.789 218 206.375 218 C 204.961 218 203.680 217.524 202.752 216.754 C 201.824 215.985 201.250 214.923 201.250 213.750 C 201.250 212.577 201.824 211.515 202.752 210.746 C 203.680 209.976 204.961 209.500 206.375 209.500 Z " transform="matrix(1, 0, 0, 1, -195.95, -203.5)"/>
  <path id="ID0.3017851007170975" fill="url(#grad_5)" stroke="none" d="M 206.375 209.500 C 207.789 209.500 209.070 209.976 209.998 210.746 C 210.926 211.515 211.500 212.577 211.500 213.750 C 211.500 214.923 210.926 215.985 209.998 216.754 C 209.070 217.524 207.789 218 206.375 218 C 204.961 218 203.680 217.524 202.752 216.754 C 201.824 215.985 201.250 214.923 201.250 213.750 C 201.250 212.577 201.824 211.515 202.752 210.746 C 203.680 209.976 204.961 209.500 206.375 209.500 Z " transform="matrix(1, 0, 0, 1, -195.1, -201.75)"/>
  <path id="ID0.3017851007170975" fill="url(#grad_6)" stroke="none" d="M 206.375 209.500 C 207.789 209.500 209.070 209.976 209.998 210.746 C 210.926 211.515 211.500 212.577 211.500 213.750 C 211.500 214.923 210.926 215.985 209.998 216.754 C 209.070 217.524 207.789 218 206.375 218 C 204.961 218 203.680 217.524 202.752 216.754 C 201.824 215.985 201.250 214.923 201.250 213.750 C 201.250 212.577 201.824 211.515 202.752 210.746 C 203.680 209.976 204.961 209.500 206.375 209.500 Z " transform="matrix(1, 0, 0, 1, -191.95, -201)"/>
  <path id="ID0.3017851007170975" fill="url(#grad_7)" stroke="none" d="M 206.375 209.500 C 207.789 209.500 209.070 209.976 209.998 210.746 C 210.926 211.515 211.500 212.577 211.500 213.750 C 211.500 214.923 210.926 215.985 209.998 216.754 C 209.070 217.524 207.789 218 206.375 218 C 204.961 218 203.680 217.524 202.752 216.754 C 201.824 215.985 201.250 214.923 201.250 213.750 C 201.250 212.577 201.824 211.515 202.752 210.746 C 203.680 209.976 204.961 209.500 206.375 209.500 Z " transform="matrix(1, 0, 0, 1, -190.75, -208)"/>
  <path id="ID0.3017851007170975" fill="url(#grad_8)" stroke="none" d="M 206.375 209.500 C 207.789 209.500 209.070 209.976 209.998 210.746 C 210.926 211.515 211.500 212.577 211.500 213.750 C 211.500 214.923 210.926 215.985 209.998 216.754 C 209.070 217.524 207.789 218 206.375 218 C 204.961 218 203.680 217.524 202.752 216.754 C 201.824 215.985 201.250 214.923 201.250 213.750 C 201.250 212.577 201.824 211.515 202.752 210.746 C 203.680 209.976 204.961 209.500 206.375 209.500 Z " transform="matrix(1, 0, 0, 1, -195.5, -208)"/>
  <path id="ID0.3017851007170975" fill="url(#grad_9)" stroke="none" d="M 206.375 209.500 C 207.789 209.500 209.070 209.976 209.998 210.746 C 210.926 211.515 211.500 212.577 211.500 213.750 C 211.500 214.923 210.926 215.985 209.998 216.754 C 209.070 217.524 207.789 218 206.375 218 C 204.961 218 203.680 217.524 202.752 216.754 C 201.824 215.985 201.250 214.923 201.250 213.750 C 201.250 212.577 201.824 211.515 202.752 210.746 C 203.680 209.976 204.961 209.500 206.375 209.500 Z " transform="matrix(1, 0, 0, 1, -200, -204.75)"/>
  <path id="ID0.3017851007170975" fill="url(#grad_10)" stroke="none" d="M 206.375 209.500 C 207.789 209.500 209.070 209.976 209.998 210.746 C 210.926 211.515 211.500 212.577 211.500 213.750 C 211.500 214.923 210.926 215.985 209.998 216.754 C 209.070 217.524 207.789 218 206.375 218 C 204.961 218 203.680 217.524 202.752 216.754 C 201.824 215.985 201.250 214.923 201.250 213.750 C 201.250 212.577 201.824 211.515 202.752 210.746 C 203.680 209.976 204.961 209.500 206.375 209.500 Z " transform="matrix(1, 0, 0, 1, -199.75, -201)"/>
  <path id="ID0.3017851007170975" fill="url(#grad_11)" stroke="none" d="M 206.375 209.500 C 207.789 209.500 209.070 209.976 209.998 210.746 C 210.926 211.515 211.500 212.577 211.500 213.750 C 211.500 214.923 210.926 215.985 209.998 216.754 C 209.070 217.524 207.789 218 206.375 218 C 204.961 218 203.680 217.524 202.752 216.754 C 201.824 215.985 201.250 214.923 201.250 213.750 C 201.250 212.577 201.824 211.515 202.752 210.746 C 203.680 209.976 204.961 209.500 206.375 209.500 Z " transform="matrix(1, 0, 0, 1, -201.25, -200)"/>
  <path id="ID0.3017851007170975" fill="url(#grad_12)" stroke="none" d="M 206.375 209.500 C 207.789 209.500 209.070 209.976 209.998 210.746 C 210.926 211.515 211.500 212.577 211.500 213.750 C 211.500 214.923 210.926 215.985 209.998 216.754 C 209.070 217.524 207.789 218 206.375 218 C 204.961 218 203.680 217.524 202.752 216.754 C 201.824 215.985 201.250 214.923 201.250 213.750 C 201.250 212.577 201.824 211.515 202.752 210.746 C 203.680 209.976 204.961 209.500 206.375 209.500 Z " transform="matrix(1, 0, 0, 1, -196.45, -199.75)"/>
  <path id="ID0.3017851007170975" fill="url(#grad_13)" stroke="none" d="M 206.375 209.500 C 207.789 209.500 209.070 209.976 209.998 210.746 C 210.926 211.515 211.500 212.577 211.500 213.750 C 211.500 214.923 210.926 215.985 209.998 216.754 C 209.070 217.524 207.789 218 206.375 218 C 204.961 218 203.680 217.524 202.752 216.754 C 201.824 215.985 201.250 214.923 201.250 213.750 C 201.250 212.577 201.824 211.515 202.752 210.746 C 203.680 209.976 204.961 209.500 206.375 209.500 Z " transform="matrix(1, 0, 0, 1, -192.25, -198.5)"/>
  <path id="ID0.3017851007170975" fill="url(#grad_14)" stroke="none" d="M 206.375 209.500 C 207.789 209.500 209.070 209.976 209.998 210.746 C 210.926 211.515 211.500 212.577 211.500 213.750 C 211.500 214.923 210.926 215.985 209.998 216.754 C 209.070 217.524 207.789 218 206.375 218 C 204.961 218 203.680 217.524 202.752 216.754 C 201.824 215.985 201.250 214.923 201.250 213.750 C 201.250 212.577 201.824 211.515 202.752 210.746 C 203.680 209.976 204.961 209.500 206.375 209.500 Z " transform="matrix(1, 0, 0, 1, -187.45, -198.25)"/>
  <path id="ID0.3017851007170975" fill="url(#grad_15)" stroke="none" d="M 206.375 209.500 C 207.789 209.500 209.070 209.976 209.998 210.746 C 210.926 211.515 211.500 212.577 211.500 213.750 C 211.500 214.923 210.926 215.985 209.998 216.754 C 209.070 217.524 207.789 218 206.375 218 C 204.961 218 203.680 217.524 202.752 216.754 C 201.824 215.985 201.250 214.923 201.250 213.750 C 201.250 212.577 201.824 211.515 202.752 210.746 C 203.680 209.976 204.961 209.500 206.375 209.500 Z " transform="matrix(1, 0, 0, 1, -181.95, -197)"/>
  <path id="ID0.3017851007170975" fill="url(#grad_16)" stroke="none" d="M 206.375 209.500 C 207.789 209.500 209.070 209.976 209.998 210.746 C 210.926 211.515 211.500 212.577 211.500 213.750 C 211.500 214.923 210.926 215.985 209.998 216.754 C 209.070 217.524 207.789 218 206.375 218 C 204.961 218 203.680 217.524 202.752 216.754 C 201.824 215.985 201.250 214.923 201.250 213.750 C 201.250 212.577 201.824 211.515 202.752 210.746 C 203.680 209.976 204.961 209.500 206.375 209.500 Z " transform="matrix(1, 0, 0, 1, -180.1, -202.5)"/>
  <path id="ID0.3017851007170975" fill="url(#grad_17)" stroke="none" d="M 206.375 209.500 C 207.789 209.500 209.070 209.976 209.998 210.746 C 210.926 211.515 211.500 212.577 211.500 213.750 C 211.500 214.923 210.926 215.985 209.998 216.754 C 209.070 217.524 207.789 218 206.375 218 C 204.961 218 203.680 217.524 202.752 216.754 C 201.824 215.985 201.250 214.923 201.250 213.750 C 201.250 212.577 201.824 211.515 202.752 210.746 C 203.680 209.976 204.961 209.500 206.375 209.500 Z " transform="matrix(1, 0, 0, 1, -180, -205.5)"/>
  <path id="ID0.3017851007170975" fill="url(#grad_18)" stroke="none" d="M 206.375 209.500 C 207.789 209.500 209.070 209.976 209.998 210.746 C 210.926 211.515 211.500 212.577 211.500 213.750 C 211.500 214.923 210.926 215.985 209.998 216.754 C 209.070 217.524 207.789 218 206.375 218 C 204.961 218 203.680 217.524 202.752 216.754 C 201.824 215.985 201.250 214.923 201.250 213.750 C 201.250 212.577 201.824 211.515 202.752 210.746 C 203.680 209.976 204.961 209.500 206.375 209.500 Z " transform="matrix(1, 0, 0, 1, -184.1, -205.25)"/>
  <path id="ID0.7532532340846956" fill="url(#grad_19)" stroke="#FF00BF" stroke-width="2" stroke-linecap="round" d="M 235.500 176.600 C 237.217 176.174 238.151 176.501 239.100 176.700 C 239.899 176.867 240.704 177.019 241.500 177.200 C 242.169 177.352 242.887 177.391 243.500 177.700 C 244.824 178.368 246.060 179.216 247.250 180.100 C 247.817 180.521 248.326 181.035 248.750 181.600 C 249.581 182.708 250.441 183.832 251 185.100 C 251.570 186.393 251.970 187.792 252.100 189.200 C 252.223 190.531 251.905 191.872 251.750 193.200 C 251.672 193.872 251.750 194.622 251.400 195.200 C 251.037 195.798 250.363 196.164 249.750 196.500 C 249.131 196.839 248.426 196.997 247.750 197.200 C 247.092 197.397 246.431 197.615 245.750 197.700 C 245.089 197.783 244.416 197.700 243.750 197.700 C 243.084 197.700 242.595 197.672 241.750 197.700 C 238.369 197.811 234.983 198.100 231.600 198.100 C 230.261 198.100 228.909 197.980 227.600 197.700 C 226.937 197.558 226.376 197.110 225.750 196.850 C 225.093 196.577 223.905 196.734 223.750 196.100 C 223.580 195.409 224.469 194.652 225.100 194.200 C 225.658 193.800 226.635 194.205 227.100 193.700 C 227.556 193.204 227.769 192.264 227.400 191.700 C 227.019 191.118 226.057 191.327 225.400 191.100 C 224.757 190.877 223.809 190.956 223.500 190.350 C 223.189 189.738 223.491 188.810 224 188.350 C 224.526 187.875 225.393 188.055 226.100 188 C 226.897 187.938 227.897 188.524 228.500 188 C 229.003 187.562 228.712 186.589 228.400 186 C 228.072 185.382 227.329 185.092 226.750 184.700 C 226.194 184.324 225.149 184.354 225 183.700 C 224.841 183.001 225.510 182.258 226.100 181.850 C 226.745 181.404 227.689 181.679 228.400 181.350 C 229.056 181.047 230.074 180.680 230.100 180 C 230.124 179.355 229.124 178.986 228.500 178.700 C 227.885 178.418 226.622 178.802 226.500 178.350 C 226.372 177.877 227.356 177.139 228 176.850 C 228.733 176.521 229.599 176.662 230.400 176.600 C 231.764 176.495 233.137 176.466 234.500 176.350 C 235.087 176.300 235.663 176.055 236.250 176.100 Z " transform="matrix(1, 0, 0, 1, -204.5, -175)"/>
</svg>