<svg version="1.1" width="258" height="212" viewBox="-1 2 258 212" xmlns="http://www.w3.org/2000/svg" xmlns:xlink="http://www.w3.org/1999/xlink">
  <!-- Exported by Scratch - http://scratch.mit.edu/ -->
  <g id="ID0.7189635708928108" transform="matrix(1, 0, 0, 1, -233.5, -165.25)">
    <g id="ID0.4140386381186545" transform="matrix(1, 0, 0, 1, 231.25, 164.35)">
      <path id="ID0.2714980561286211" fill="#7F7F7F" stroke="none" d="M 237.050 176.250 L 241.400 176.250 L 241.400 185.150 L 237.050 185.150 L 237.050 176.250 Z " transform="matrix(0.59915691614151, 0.8006316423416138, -0.8006316423416138, 0.59915691614151, 9.3, -289.25)"/>
      <path id="ID0.8718285732902586" fill="none" stroke="#FF0000" stroke-width="2" stroke-linecap="round" d="M 237.900 176.750 L 239.500 171.250 L 243.100 171.600 L 245.200 168.600 " transform="matrix(0.59915691614151, 0.8006316423416138, -0.8006316423416138, 0.59915691614151, 9.3, -289.25)"/>
      <path id="ID0.6281241672113538" fill="none" stroke="#00FF55" stroke-width="2" stroke-linecap="round" d="M 239.300 176.700 L 242.300 174.250 Z " transform="matrix(0.59915691614151, 0.8006316423416138, -0.8006316423416138, 0.59915691614151, 9.3, -289.25)"/>
      <path id="ID0.18158068228513002" fill="none" stroke="#00FF55" stroke-width="2" stroke-linecap="round" d="M 242.300 174.250 L 243.600 175.650 Z " transform="matrix(0.59915691614151, 0.8006316423416138, -0.8006316423416138, 0.59915691614151, 9.3, -289.25)"/>
      <path id="ID0.6405185796320438" fill="none" stroke="#00FF55" stroke-width="2" stroke-linecap="round" d="M 243.600 175.650 L 245.300 175.950 Z " transform="matrix(0.59915691614151, 0.8006316423416138, -0.8006316423416138, 0.59915691614151, 9.3, -289.25)"/>
      <path id="ID0.01941651152446866" fill="none" stroke="#FFFF00" stroke-width="2" stroke-linecap="round" d="M 239.300 175.500 L 246 172.200 L 247.900 172.450 " transform="matrix(0.59915691614151, 0.8006316423416138, -0.8006316423416138, 0.59915691614151, 9.3, -289.25)"/>
    </g>
    <path id="ID0.2835057736374438" fill="#666666" stroke="none" d="M 243.050 183 L 248.400 183 L 248.400 187.950 L 243.050 187.950 L 243.050 183 Z " transform="matrix(0.7783625721931458, -0.6278150677680969, 0.6278150677680969, 0.7783625721931458, -61.6, 193)"/>
    <path id="ID0.5918740201741457" fill="#CCCCCC" stroke="none" d="M 246.850 181.650 C 247.209 181.650 247.534 181.798 247.769 182.038 C 248.004 182.278 248.150 182.609 248.150 182.975 C 248.150 183.341 248.004 183.672 247.769 183.912 C 247.534 184.152 247.209 184.300 246.850 184.300 C 246.491 184.300 246.166 184.152 245.931 183.912 C 245.696 183.672 245.550 183.341 245.550 182.975 C 245.550 182.609 245.696 182.278 245.931 182.038 C 246.166 181.798 246.491 181.650 246.850 181.650 Z " transform="matrix(1, 0, 0, 1, -0.65, 0.4)"/>
    <path id="ID0.7824528277851641" fill="none" stroke="#CCCCCC" stroke-width="2" stroke-linecap="round" d="M 230.300 182.150 L 235.800 182.650 L 236.350 187.300 " transform="matrix(1, 0, 0, 1, 4.55, 0.55)"/>
    <path id="ID0.028172099962830544" fill="none" stroke="#CCCCCC" stroke-width="2" stroke-linecap="round" d="M 255.300 175.100 L 252.200 177.150 Z "/>
    <path id="ID0.11676258035004139" fill="none" stroke="#CCCCCC" stroke-width="2" stroke-linecap="round" d="M 252.200 177.150 L 252.300 180.650 Z "/>
    <path id="ID0.8066252036951482" fill="none" stroke="#CCCCCC" stroke-width="2" stroke-linecap="round" d="M 255.850 175.950 L 256.900 178.400 Z "/>
    <path id="ID0.019243980292230844" fill="none" stroke="#CCCCCC" stroke-width="2" stroke-linecap="round" d="M 252.700 180.500 L 256.150 179 Z "/>
    <g id="ID0.05800126353278756" transform="matrix(0.28538283705711365, 0, 0, 0.28538283705711365, 181, 130.85)">
      <path id="ID0.522936328779906" fill="#E5E5E5" stroke="#B2B2B2" stroke-width="2" stroke-linecap="round" d="M 257.900 205.200 L 254.150 201.400 L 254.650 197.200 L 249.500 195.900 L 250.500 191 L 242.650 197.600 L 239.150 199.600 L 241.300 202.200 L 239.800 205.800 L 242.400 210 L 248.150 210.700 L 249.150 213.500 L 256 210.800 L 255.650 208.500 Z "/>
      <path id="ID0.6849206299521029" fill="none" stroke="#CCCCCC" stroke-width="2" stroke-linecap="round" d="M 253.900 202.100 L 250.300 203.200 Z "/>
      <path id="ID0.9963786494918168" fill="none" stroke="#CCCCCC" stroke-width="2" stroke-linecap="round" d="M 241.900 200.850 L 245.800 202.100 "/>
      <path id="ID0.8601991534233093" fill="none" stroke="#CCCCCC" stroke-width="2" stroke-linecap="round" d="M 255 207.350 L 250.800 205.500 L 244.800 208.100 "/>
      <path id="ID0.8860311480239034" fill="none" stroke="#CCCCCC" stroke-width="2" stroke-linecap="round" d="M 248 197.600 L 247.800 200.350 Z "/>
      <path id="ID0.5813264166936278" fill="none" stroke="#CCCCCC" stroke-width="2" stroke-linecap="round" d="M 241.300 206.850 L 246.300 203.500 "/>
      <path id="ID0.13540751859545708" fill="none" stroke="#CCCCCC" stroke-width="2" stroke-linecap="round" d="M 252.400 198.600 L 248.900 198 Z "/>
      <path id="ID0.994350572116673" fill="none" stroke="#CCCCCC" stroke-width="2" stroke-linecap="round" d="M 250.900 211 L 249.800 207.100 "/>
      <path id="ID0.8472590711899102" fill="none" stroke="#CCCCCC" stroke-width="2" stroke-linecap="round" d="M 249 203.600 L 246.800 201 Z "/>
      <path id="ID0.12197789922356606" fill="none" stroke="#CCCCCC" stroke-width="2" stroke-linecap="round" d="M 245.800 198 L 246.900 196.350 Z "/>
    </g>
  </g>
</svg>