<svg version="1.1" width="55" height="54" viewBox="-1 -1 55 54" xmlns="http://www.w3.org/2000/svg" xmlns:xlink="http://www.w3.org/1999/xlink">
  <defs>
    <linearGradient id="grad_1" y2="1">
      <stop offset="0" stop-color="#FFFFCC" stop-opacity="1"/>
      <stop offset="1" stop-color="#FFFF00" stop-opacity="1"/>
    </linearGradient>
    <linearGradient id="grad_2" y2="1">
      <stop offset="0" stop-color="#00FFFF" stop-opacity="1"/>
      <stop offset="1" stop-color="#FF0000" stop-opacity="1"/>
    </linearGradient>
    <linearGradient id="grad_3" y2="1">
      <stop offset="0" stop-color="#B2B2B2" stop-opacity="1"/>
      <stop offset="1" stop-color="#FFFFFF" stop-opacity="1"/>
    </linearGradient>
    <linearGradient id="grad_4" y2="1">
      <stop offset="0" stop-color="#FFFFFF" stop-opacity="1"/>
      <stop offset="1" stop-color="#B2B2B2" stop-opacity="1"/>
    </linearGradient>
    <linearGradient id="grad_5" y2="1">
      <stop offset="0" stop-color="#FFFFFF" stop-opacity="1"/>
      <stop offset="1" stop-color="#B2B2B2" stop-opacity="1"/>
    </linearGradient>
    <linearGradient id="grad_6" y2="1">
      <stop offset="0" stop-color="#B2B2B2" stop-opacity="1"/>
      <stop offset="1" stop-color="#FFFFFF" stop-opacity="1"/>
    </linearGradient>
    <linearGradient id="grad_7" y2="1">
      <stop offset="0" stop-color="#FFFFFF" stop-opacity="1"/>
      <stop offset="1" stop-color="#B2B2B2" stop-opacity="1"/>
    </linearGradient>
    <linearGradient id="grad_8" y2="1">
      <stop offset="0" stop-color="#00FFFF" stop-opacity="1"/>
      <stop offset="1" stop-color="#FF0000" stop-opacity="1"/>
    </linearGradient>
  </defs>
  <!-- Exported by Scratch - http://scratch.mit.edu/ -->
  <path id="ID0.22965509304776788" fill="url(#grad_1)" stroke="url(#grad_2)" stroke-width="2" d="M 229.350 172.400 L 255.250 172.400 L 255.250 189.400 L 229.350 189.400 L 229.350 172.400 Z " transform="matrix(1.9236842393875122, 0, 0, 1.9236842393875122, -438.6, -328.75)"/>
  <g id="ID0.4877609070390463">
    <path id="ID0.23091162228956819" fill="#FFFFFF" stroke="url(#grad_3)" stroke-width="2" stroke-linecap="round" d="M 216 176 C 216.726 173.922 219.231 172.473 220.250 170.250 C 221.429 166.253 220.284 161.321 222.750 157.850 C 224.581 155.222 229.100 155.547 231.250 153.500 C 233.414 151.455 232.707 147.283 235.250 145.500 C 241.111 141.406 252.247 136.218 255.250 137.650 C 257.715 138.842 248.259 146.152 245.750 151.100 C 245.342 152.552 247.548 154.246 247 155.750 C 245.829 158.954 241.179 160.477 240.250 163.850 C 239.773 167.226 243.566 170.467 243.250 173.750 C 243.080 175.446 239.938 175.856 239.750 177.550 C 239.670 183.175 242.580 188.641 242.500 194.250 C 242.480 195.652 239.658 196.184 240 197.500 C 240.533 199.474 243.990 199.842 245 201.850 C 245.886 204.086 243.925 207.172 245.250 209.250 C 247.284 212.435 251.289 213.694 253.750 216.400 C 255.334 217.907 256.189 219.909 257.250 221.750 C 257.736 222.600 257.453 224.079 258.250 224.800 C 259.367 225.514 261.041 224.900 262.250 225.500 C 263.632 226.185 264.702 227.428 265.500 228.800 C 268.279 233.702 269.913 236.805 272.750 240.350 C 275.272 243.497 283.458 247.618 281.250 248.550 C 277.780 250.227 267.726 247.247 261 245.750 C 255.125 244.442 251.325 243.539 243.750 240.350 C 239.682 238.575 236.076 235.421 233.500 231.800 C 228.718 225.077 225.809 217.296 221.750 210.150 C 220.480 207.452 217.694 205.190 217.500 202.250 C 217.370 200.203 221.531 199.409 221.250 197.350 C 220.540 194.783 216.076 194.196 215.250 191.750 C 214.799 190.365 217.022 189.355 217.250 187.800 C 217.365 184.039 215.459 180.113 216.250 176.250 Z " transform="matrix(-0.2608014643192291, 0, 0, 0.3269125819206238, 98.3, -38.65)"/>
    <path id="ID0.005961917340755463" fill="#FFFFFF" stroke="url(#grad_4)" stroke-width="2" stroke-linecap="round" d="M 233.250 192.250 C 233.956 194.442 234.971 195.117 235.750 196 C 236.224 196.537 236.734 197.085 237 197.750 C 237.249 198.373 237.250 199.079 237.250 199.750 C 237.250 201.085 236.889 202.420 237 203.750 C 237.059 204.459 237.432 205.114 237.750 205.750 C 238.101 206.452 238.515 207.132 239 207.750 C 239.436 208.305 240.021 208.731 240.500 209.250 C 241.021 209.814 241.605 210.342 242 211 C 242.366 211.610 242.619 212.301 242.750 213 C 242.873 213.655 242.588 214.354 242.750 215 C 242.931 215.722 243.290 216.414 243.750 217 C 244.224 217.604 245.436 217.735 245.500 218.500 C 245.559 219.204 244.436 219.445 244 220 C 243.515 220.618 242.972 221.247 242.750 222 C 242.539 222.719 242.627 223.511 242.750 224.250 C 242.880 225.029 243.147 225.794 243.500 226.500 C 243.820 227.141 244.308 227.687 244.750 228.250 C 245.224 228.854 245.686 229.479 246.250 230 C 246.776 230.486 247.398 230.863 248 231.250 C 248.565 231.613 249.113 232.038 249.750 232.250 C 250.387 232.462 251.084 232.583 251.750 232.500 C 252.456 232.412 253.247 232.253 253.750 231.750 C 254.253 231.247 254.772 230.407 254.500 229.750 C 253.679 227.765 251.512 226.119 250.750 224.500 C 250.512 223.994 251.968 225.091 252.500 225.500 C 253.060 225.931 253.500 226.500 254 227 C 254.500 227.500 254.906 228.118 255.500 228.500 C 256.098 228.885 256.789 229.250 257.500 229.250 C 258.211 229.250 259.254 229.167 259.500 228.500 C 259.961 227.248 259.723 225.748 259.250 224.500 C 258.766 223.223 257.816 222.103 256.750 221.250 C 255.674 220.389 253 220.375 253 219.500 C 253 218.625 255.776 218.724 256.750 217.750 C 257.221 217.279 257.048 216.346 256.750 215.750 C 256.407 215.064 255.583 214.750 255 214.250 C 254.417 213.750 253.946 213.075 253.250 212.750 C 252.642 212.466 251.873 212.749 251.250 212.500 C 250.585 212.234 250.026 211.736 249.500 211.250 C 248.936 210.729 248.426 210.139 248 209.500 C 247.587 208.880 247.365 208.149 247 207.500 C 246.615 206.815 246.305 206.055 245.750 205.500 C 245.195 204.945 244.368 204.735 243.750 204.250 C 243.195 203.814 242.613 203.356 242.250 202.750 C 241.844 202.073 241.681 201.269 241.500 200.500 C 241.346 199.847 241.292 199.170 241.250 198.500 C 241.208 197.835 241.333 197.161 241.250 196.500 C 241.165 195.819 241.040 195.122 240.750 194.500 C 240.447 193.851 239.947 193.309 239.500 192.750 C 238.614 191.643 237.884 190.351 236.750 189.500 C 236.136 189.039 235.174 188.632 234.500 189 C 233.897 189.329 234.167 190.334 234 191 C 233.833 191.666 233.697 192.342 233.500 193 C 233.447 193.178 233.073 193.265 233.250 193.500 Z " transform="matrix(-0.18269804120063782, 0, 0, 0.18269804120063782, 79.7, -6.7)"/>
    <path id="ID0.25329854991286993" fill="#000000" stroke="#000000" stroke-width="2" stroke-linecap="round" d="M 199.500 214.500 L 204.500 194.500 L 209 188 L 209.500 181.500 L 206 175 L 213.500 177 L 219.500 185.500 L 220.500 190.500 L 218.500 199 L 219 207 L 222 212.500 L 222 218.500 L 220 226 L 221.500 233 L 218 241 L 205 228 L 202 244 L 186 228.500 L 178 247 L 163.500 230.500 L 155 246 L 145 192 L 156 215 L 164.500 192 L 176.500 214.500 L 187.500 192.500 L 198.500 215.500 Z " transform="matrix(-0.07465962320566177, 0, 0, 0.07465962320566177, 53, 8.6)"/>
    <g id="ID0.9368052235804498">
      <path id="ID0.8351161554455757" fill="#000000" stroke="#000000" stroke-width="2" stroke-linecap="round" d="M 250.500 169.900 L 265 161.600 L 266.600 168 L 265.750 170.750 L 263.600 174.100 L 260.100 177 L 254.100 175.250 L 250.750 170.400 Z " transform="matrix(-0.17893876135349274, 0, 0, 0.17893876135349274, 84.85, -10.65)"/>
      <path id="ID0.6134866434149444" fill="#FF0000" stroke="none" d="M 258.250 165.600 C 258.622 165.600 258.960 166.267 259.204 167.344 C 259.449 168.421 259.600 169.908 259.600 171.550 C 259.600 173.192 259.449 174.679 259.204 175.756 C 258.960 176.833 258.622 177.500 258.250 177.500 C 257.878 177.500 257.540 176.833 257.296 175.756 C 257.051 174.679 256.900 173.192 256.900 171.550 C 256.900 169.908 257.051 168.421 257.296 167.344 C 257.540 166.267 257.878 165.600 258.250 165.600 Z " transform="matrix(-0.17893876135349274, 0, 0, 0.17893876135349274, 84.85, -10.65)"/>
    </g>
    <path id="ID0.6895877583883703" fill="#000000" stroke="none" d="M 220.875 168.500 C 221.185 168.500 221.467 168.822 221.670 169.343 C 221.874 169.863 222 170.582 222 171.375 C 222 172.168 221.874 172.887 221.670 173.407 C 221.467 173.928 221.185 174.250 220.875 174.250 C 220.565 174.250 220.283 173.928 220.080 173.407 C 219.876 172.887 219.750 172.168 219.750 171.375 C 219.750 170.582 219.876 169.863 220.080 169.343 C 220.283 168.822 220.565 168.500 220.875 168.500 Z " transform="matrix(-0.1757575124502182, 0, 0, 0.1757575124502182, 79.3, -8.25)"/>
    <path id="ID0.6895877583883703" fill="#000000" stroke="none" d="M 220.875 168.500 C 221.185 168.500 221.467 168.822 221.670 169.343 C 221.874 169.863 222 170.582 222 171.375 C 222 172.168 221.874 172.887 221.670 173.407 C 221.467 173.928 221.185 174.250 220.875 174.250 C 220.565 174.250 220.283 173.928 220.080 173.407 C 219.876 172.887 219.750 172.168 219.750 171.375 C 219.750 170.582 219.876 169.863 220.080 169.343 C 220.283 168.822 220.565 168.500 220.875 168.500 Z " transform="matrix(-0.1757575124502182, 0, 0, 0.1757575124502182, 79.95, -8.25)"/>
    <g id="ID0.959263410884887">
      <path id="ID0.005961917340755463" fill="#CCCCCC" stroke="url(#grad_5)" stroke-width="2" stroke-linecap="round" d="M 233.250 192.250 C 233.956 194.442 234.971 195.117 235.750 196 C 236.224 196.537 236.734 197.085 237 197.750 C 237.249 198.373 237.250 199.079 237.250 199.750 C 237.250 201.085 236.889 202.420 237 203.750 C 237.059 204.459 237.432 205.114 237.750 205.750 C 238.101 206.452 238.515 207.132 239 207.750 C 239.436 208.305 240.021 208.731 240.500 209.250 C 241.021 209.814 241.605 210.342 242 211 C 242.366 211.610 242.619 212.301 242.750 213 C 242.873 213.655 242.588 214.354 242.750 215 C 242.931 215.722 243.290 216.414 243.750 217 C 244.224 217.604 245.436 217.735 245.500 218.500 C 245.559 219.204 244.436 219.445 244 220 C 243.515 220.618 242.972 221.247 242.750 222 C 242.539 222.719 242.627 223.511 242.750 224.250 C 242.880 225.029 243.147 225.794 243.500 226.500 C 243.820 227.141 244.308 227.687 244.750 228.250 C 245.224 228.854 245.686 229.479 246.250 230 C 246.776 230.486 247.398 230.863 248 231.250 C 248.565 231.613 249.113 232.038 249.750 232.250 C 250.387 232.462 251.084 232.583 251.750 232.500 C 252.456 232.412 253.247 232.253 253.750 231.750 C 254.253 231.247 254.772 230.407 254.500 229.750 C 253.679 227.765 251.512 226.119 250.750 224.500 C 250.512 223.994 251.968 225.091 252.500 225.500 C 253.060 225.931 253.500 226.500 254 227 C 254.500 227.500 254.906 228.118 255.500 228.500 C 256.098 228.885 256.789 229.250 257.500 229.250 C 258.211 229.250 259.254 229.167 259.500 228.500 C 259.961 227.248 259.723 225.748 259.250 224.500 C 258.766 223.223 257.816 222.103 256.750 221.250 C 255.674 220.389 253 220.375 253 219.500 C 253 218.625 255.776 218.724 256.750 217.750 C 257.221 217.279 257.048 216.346 256.750 215.750 C 256.407 215.064 255.583 214.750 255 214.250 C 254.417 213.750 253.946 213.075 253.250 212.750 C 252.642 212.466 251.873 212.749 251.250 212.500 C 250.585 212.234 250.026 211.736 249.500 211.250 C 248.936 210.729 248.426 210.139 248 209.500 C 247.587 208.880 247.365 208.149 247 207.500 C 246.615 206.815 246.305 206.055 245.750 205.500 C 245.195 204.945 244.368 204.735 243.750 204.250 C 243.195 203.814 242.613 203.356 242.250 202.750 C 241.844 202.073 241.681 201.269 241.500 200.500 C 241.346 199.847 241.292 199.170 241.250 198.500 C 241.208 197.835 241.333 197.161 241.250 196.500 C 241.165 195.819 241.040 195.122 240.750 194.500 C 240.447 193.851 239.947 193.309 239.500 192.750 C 238.614 191.643 237.884 190.351 236.750 189.500 C 236.136 189.039 235.174 188.632 234.500 189 C 233.897 189.329 234.167 190.334 234 191 C 233.833 191.666 233.697 192.342 233.500 193 C 233.447 193.178 233.073 193.265 233.250 193.500 Z " transform="matrix(0.1890954077243805, 0.05625588446855545, -0.14475278556346893, 0.4865640103816986, 1.85, -92.45)"/>
      <path id="ID0.23091162228956819" fill="#FFFFFF" stroke="url(#grad_6)" stroke-width="2" stroke-linecap="round" d="M 216 176 C 216.726 173.922 219.231 172.473 220.250 170.250 C 221.429 166.253 220.284 161.321 222.750 157.850 C 224.581 155.222 229.100 155.547 231.250 153.500 C 233.414 151.455 232.707 147.283 235.250 145.500 C 241.111 141.406 252.247 136.218 255.250 137.650 C 257.715 138.842 248.259 146.152 245.750 151.100 C 245.342 152.552 247.548 154.246 247 155.750 C 245.829 158.954 241.179 160.477 240.250 163.850 C 239.773 167.226 243.566 170.467 243.250 173.750 C 243.080 175.446 239.938 175.856 239.750 177.550 C 239.670 183.175 242.580 188.641 242.500 194.250 C 242.480 195.652 239.658 196.184 240 197.500 C 240.533 199.474 243.990 199.842 245 201.850 C 245.886 204.086 243.925 207.172 245.250 209.250 C 247.284 212.435 251.289 213.694 253.750 216.400 C 255.334 217.907 256.189 219.909 257.250 221.750 C 257.736 222.600 257.453 224.079 258.250 224.800 C 259.367 225.514 261.041 224.900 262.250 225.500 C 263.632 226.185 264.702 227.428 265.500 228.800 C 268.279 233.702 269.913 236.805 272.750 240.350 C 275.272 243.497 283.458 247.618 281.250 248.550 C 277.780 250.227 267.726 247.247 261 245.750 C 255.125 244.442 251.325 243.539 243.750 240.350 C 239.682 238.575 236.076 235.421 233.500 231.800 C 228.718 225.077 225.809 217.296 221.750 210.150 C 220.480 207.452 217.694 205.190 217.500 202.250 C 217.370 200.203 221.531 199.409 221.250 197.350 C 220.540 194.783 216.076 194.196 215.250 191.750 C 214.799 190.365 217.022 189.355 217.250 187.800 C 217.365 184.039 215.459 180.113 216.250 176.250 Z " transform="matrix(0.07910977303981781, -3.882287170850665e-17, -1.2628939635739457e-16, 0.3269125819206238, 1.3, -40.15)"/>
      <path id="ID0.005961917340755463" fill="#FFFFFF" stroke="url(#grad_7)" stroke-width="2" stroke-linecap="round" d="M 233.250 192.250 C 233.956 194.442 234.971 195.117 235.750 196 C 236.224 196.537 236.734 197.085 237 197.750 C 237.249 198.373 237.250 199.079 237.250 199.750 C 237.250 201.085 236.889 202.420 237 203.750 C 237.059 204.459 237.432 205.114 237.750 205.750 C 238.101 206.452 238.515 207.132 239 207.750 C 239.436 208.305 240.021 208.731 240.500 209.250 C 241.021 209.814 241.605 210.342 242 211 C 242.366 211.610 242.619 212.301 242.750 213 C 242.873 213.655 242.588 214.354 242.750 215 C 242.931 215.722 243.290 216.414 243.750 217 C 244.224 217.604 245.436 217.735 245.500 218.500 C 245.559 219.204 244.436 219.445 244 220 C 243.515 220.618 242.972 221.247 242.750 222 C 242.539 222.719 242.627 223.511 242.750 224.250 C 242.880 225.029 243.147 225.794 243.500 226.500 C 243.820 227.141 244.308 227.687 244.750 228.250 C 245.224 228.854 245.686 229.479 246.250 230 C 246.776 230.486 247.398 230.863 248 231.250 C 248.565 231.613 249.113 232.038 249.750 232.250 C 250.387 232.462 251.084 232.583 251.750 232.500 C 252.456 232.412 253.247 232.253 253.750 231.750 C 254.253 231.247 254.772 230.407 254.500 229.750 C 253.679 227.765 251.512 226.119 250.750 224.500 C 250.512 223.994 251.968 225.091 252.500 225.500 C 253.060 225.931 253.500 226.500 254 227 C 254.500 227.500 254.906 228.118 255.500 228.500 C 256.098 228.885 256.789 229.250 257.500 229.250 C 258.211 229.250 259.254 229.167 259.500 228.500 C 259.961 227.248 259.723 225.748 259.250 224.500 C 258.766 223.223 257.816 222.103 256.750 221.250 C 255.674 220.389 253 220.375 253 219.500 C 253 218.625 255.776 218.724 256.750 217.750 C 257.221 217.279 257.048 216.346 256.750 215.750 C 256.407 215.064 255.583 214.750 255 214.250 C 254.417 213.750 253.946 213.075 253.250 212.750 C 252.642 212.466 251.873 212.749 251.250 212.500 C 250.585 212.234 250.026 211.736 249.500 211.250 C 248.936 210.729 248.426 210.139 248 209.500 C 247.587 208.880 247.365 208.149 247 207.500 C 246.615 206.815 246.305 206.055 245.750 205.500 C 245.195 204.945 244.368 204.735 243.750 204.250 C 243.195 203.814 242.613 203.356 242.250 202.750 C 241.844 202.073 241.681 201.269 241.500 200.500 C 241.346 199.847 241.292 199.170 241.250 198.500 C 241.208 197.835 241.333 197.161 241.250 196.500 C 241.165 195.819 241.040 195.122 240.750 194.500 C 240.447 193.851 239.947 193.309 239.500 192.750 C 238.614 191.643 237.884 190.351 236.750 189.500 C 236.136 189.039 235.174 188.632 234.500 189 C 233.897 189.329 234.167 190.334 234 191 C 233.833 191.666 233.697 192.342 233.500 193 C 233.447 193.178 233.073 193.265 233.250 193.500 Z " transform="matrix(0.19728608429431915, -3.800733449025592e-17, -3.800733449025592e-17, 0.5076395273208618, -26, -78.5)"/>
      <g id="ID0.19045853288844228">
        <g id="ID0.4911339618265629">
          <path id="ID0.43543971981853247" fill="#000000" stroke="none" d="M 269 138.200 C 269.966 138.200 270.841 138.601 271.474 139.248 C 272.108 139.895 272.500 140.789 272.500 141.775 C 272.500 142.761 272.108 143.655 271.474 144.302 C 270.841 144.949 269.966 145.350 269 145.350 C 268.034 145.350 267.159 144.949 266.526 144.302 C 265.892 143.655 265.500 142.761 265.500 141.775 C 265.500 140.789 265.892 139.895 266.526 139.248 C 267.159 138.601 268.034 138.200 269 138.200 Z " transform="matrix(-0.31476452946662903, 0, 0, 0.31476452946662903, 105, -31.8)"/>
          <path id="ID0.43543971981853247" fill="#000000" stroke="none" d="M 269 138.200 C 269.966 138.200 270.841 138.601 271.474 139.248 C 272.108 139.895 272.500 140.789 272.500 141.775 C 272.500 142.761 272.108 143.655 271.474 144.302 C 270.841 144.949 269.966 145.350 269 145.350 C 268.034 145.350 267.159 144.949 266.526 144.302 C 265.892 143.655 265.500 142.761 265.500 141.775 C 265.500 140.789 265.892 139.895 266.526 139.248 C 267.159 138.601 268.034 138.200 269 138.200 Z " transform="matrix(-0.31476452946662903, 0, 0, 0.31476452946662903, 102.6, -32)"/>
        </g>
        <path id="ID0.3574093491770327" fill="none" stroke="#000000" stroke-width="1" stroke-linecap="round" d="M 285.150 145.200 L 290.800 144.500 " transform="matrix(-0.3968770205974579, 0, 0, 0.3968770205974579, 133.2, -42.35)"/>
        <path id="ID0.8017133981920779" fill="#FFFF99" stroke="#FFFF99" stroke-width="1" stroke-linecap="round" d="M 289.400 145 L 287.500 145.350 L 287.900 148.600 L 290.800 148 L 289.400 145 Z " transform="matrix(-0.3968770205974579, 0, 0, 0.3968770205974579, 133.2, -42.35)"/>
      </g>
    </g>
  </g>
  <path id="ID0.9680157378315926" fill="#000000" stroke="url(#grad_8)" stroke-width="3" d="M 213.050 193.050 L 266.400 193.050 L 266.400 217.500 L 213.050 217.500 L 213.050 193.050 Z " transform="matrix(0.9503105282783508, 0, 0, 0.8397085666656494, -200.5, -130.45)"/>
  <text id="ID0.3952616755850613" fill="#FFFFFF" x="223.1" y="205.29999999999998" text-anchor="start" font-family="Helvetica" font-size="22" transform="matrix(0.22334450483322144, 0, 0, 0.22334450483322144, 3.05, 39.15)">EDGAR AND FROD</text>
</svg>