<svg version="1.1" width="55" height="54" viewBox="-1 -1 55 54" xmlns="http://www.w3.org/2000/svg" xmlns:xlink="http://www.w3.org/1999/xlink">
  <defs>
    <linearGradient id="grad_1" y2="1">
      <stop offset="0" stop-color="#FFFFCC" stop-opacity="1"/>
      <stop offset="1" stop-color="#FFFF00" stop-opacity="1"/>
    </linearGradient>
    <linearGradient id="grad_2" y2="1">
      <stop offset="0" stop-color="#00FFFF" stop-opacity="1"/>
      <stop offset="1" stop-color="#FF0000" stop-opacity="1"/>
    </linearGradient>
    <linearGradient id="grad_3" y2="1">
      <stop offset="0" stop-color="#00FFFF" stop-opacity="1"/>
      <stop offset="1" stop-color="#FF0000" stop-opacity="1"/>
    </linearGradient>
  </defs>
  <!-- Exported by Scratch - http://scratch.mit.edu/ -->
  <path id="ID0.22965509304776788" fill="url(#grad_1)" stroke="url(#grad_2)" stroke-width="2" d="M 229.350 172.400 L 255.250 172.400 L 255.250 189.400 L 229.350 189.400 L 229.350 172.400 Z " transform="matrix(1.9236842393875122, 0, 0, 1.9236842393875122, -438.6, -328.75)"/>
  <g id="ID0.1351962462067604">
    <path id="ID0.5099258632399142" fill="#009933" stroke="#006622" stroke-width="2" stroke-linecap="round" d="M 232 176 C 231.209 174.762 231.462 174.349 231.350 174 C 231.121 173.291 230.697 172.659 230.350 172 C 230.031 171.393 229.750 170.757 229.350 170.200 C 228.514 169.036 227.663 167.863 226.650 166.850 C 225.653 165.853 224.639 164.771 223.350 164.200 C 221.926 163.569 220.301 163.491 218.750 163.350 C 218.082 163.289 217.370 163.342 216.750 163.600 C 216.126 163.860 215.593 164.339 215.150 164.850 C 214.710 165.357 214.420 165.986 214.150 166.600 C 213.868 167.241 213.568 167.903 213.500 168.600 C 213.432 169.301 213.535 170.029 213.750 170.700 C 213.959 171.353 214.299 171.983 214.750 172.500 C 215.234 173.054 215.958 173.352 216.500 173.850 C 216.995 174.305 217.336 174.917 217.850 175.350 C 218.394 175.808 219.006 176.199 219.650 176.500 C 221.610 177.417 223.699 178.063 225.650 179 C 226.275 179.300 226.812 179.763 227.350 180.200 C 227.880 180.631 228.289 181.209 228.850 181.600 C 229.400 181.983 229.984 182.578 230.650 182.500 C 231.332 182.420 231.813 181.729 232.250 181.200 C 232.696 180.660 233.160 180.044 233.250 179.350 C 233.338 178.669 233.030 177.977 232.750 177.350 C 232.390 176.544 231.690 175.914 231.350 175.100 Z " transform="matrix(-0.31521686911582947, 0, 0, 0.31521686911582947, 96.55, -48.3)"/>
    <path id="ID0.5099258632399142" fill="#009933" stroke="#006622" stroke-width="2" stroke-linecap="round" d="M 232 176 C 231.209 174.762 231.462 174.349 231.350 174 C 231.121 173.291 230.697 172.659 230.350 172 C 230.031 171.393 229.750 170.757 229.350 170.200 C 228.514 169.036 227.663 167.863 226.650 166.850 C 225.653 165.853 224.639 164.771 223.350 164.200 C 221.926 163.569 220.301 163.491 218.750 163.350 C 218.082 163.289 217.370 163.342 216.750 163.600 C 216.126 163.860 215.593 164.339 215.150 164.850 C 214.710 165.357 214.420 165.986 214.150 166.600 C 213.868 167.241 213.568 167.903 213.500 168.600 C 213.432 169.301 213.535 170.029 213.750 170.700 C 213.959 171.353 214.299 171.983 214.750 172.500 C 215.234 173.054 215.958 173.352 216.500 173.850 C 216.995 174.305 217.336 174.917 217.850 175.350 C 218.394 175.808 219.006 176.199 219.650 176.500 C 221.610 177.417 223.699 178.063 225.650 179 C 226.275 179.300 226.812 179.763 227.350 180.200 C 227.880 180.631 228.289 181.209 228.850 181.600 C 229.400 181.983 229.984 182.578 230.650 182.500 C 231.332 182.420 231.813 181.729 232.250 181.200 C 232.696 180.660 233.160 180.044 233.250 179.350 C 233.338 178.669 233.030 177.977 232.750 177.350 C 232.390 176.544 231.690 175.914 231.350 175.100 Z " transform="matrix(0.3152168393135071, 0, 0, 0.3152168393135071, -49.1, -48.1)"/>
    <path id="ID0.5099258632399142" fill="#009933" stroke="#006622" stroke-width="2" stroke-linecap="round" d="M 232 176 C 231.209 174.762 231.462 174.349 231.350 174 C 231.121 173.291 230.697 172.659 230.350 172 C 230.031 171.393 229.750 170.757 229.350 170.200 C 228.514 169.036 227.663 167.863 226.650 166.850 C 225.653 165.853 224.639 164.771 223.350 164.200 C 221.926 163.569 220.301 163.491 218.750 163.350 C 218.082 163.289 217.370 163.342 216.750 163.600 C 216.126 163.860 215.593 164.339 215.150 164.850 C 214.710 165.357 214.420 165.986 214.150 166.600 C 213.868 167.241 213.568 167.903 213.500 168.600 C 213.432 169.301 213.535 170.029 213.750 170.700 C 213.959 171.353 214.299 171.983 214.750 172.500 C 215.234 173.054 215.958 173.352 216.500 173.850 C 216.995 174.305 217.336 174.917 217.850 175.350 C 218.394 175.808 219.006 176.199 219.650 176.500 C 221.610 177.417 223.699 178.063 225.650 179 C 226.275 179.300 226.812 179.763 227.350 180.200 C 227.880 180.631 228.289 181.209 228.850 181.600 C 229.400 181.983 229.984 182.578 230.650 182.500 C 231.332 182.420 231.813 181.729 232.250 181.200 C 232.696 180.660 233.160 180.044 233.250 179.350 C 233.338 178.669 233.030 177.977 232.750 177.350 C 232.390 176.544 231.690 175.914 231.350 175.100 Z " transform="matrix(-0.3152168393135071, 0, 0, 0.3152168393135071, 97.1, -46.2)"/>
    <path id="ID0.5099258632399142" fill="#009933" stroke="#006622" stroke-width="2" stroke-linecap="round" d="M 232 176 C 231.209 174.762 231.462 174.349 231.350 174 C 231.121 173.291 230.697 172.659 230.350 172 C 230.031 171.393 229.750 170.757 229.350 170.200 C 228.514 169.036 227.663 167.863 226.650 166.850 C 225.653 165.853 224.639 164.771 223.350 164.200 C 221.926 163.569 220.301 163.491 218.750 163.350 C 218.082 163.289 217.370 163.342 216.750 163.600 C 216.126 163.860 215.593 164.339 215.150 164.850 C 214.710 165.357 214.420 165.986 214.150 166.600 C 213.868 167.241 213.568 167.903 213.500 168.600 C 213.432 169.301 213.535 170.029 213.750 170.700 C 213.959 171.353 214.299 171.983 214.750 172.500 C 215.234 173.054 215.958 173.352 216.500 173.850 C 216.995 174.305 217.336 174.917 217.850 175.350 C 218.394 175.808 219.006 176.199 219.650 176.500 C 221.610 177.417 223.699 178.063 225.650 179 C 226.275 179.300 226.812 179.763 227.350 180.200 C 227.880 180.631 228.289 181.209 228.850 181.600 C 229.400 181.983 229.984 182.578 230.650 182.500 C 231.332 182.420 231.813 181.729 232.250 181.200 C 232.696 180.660 233.160 180.044 233.250 179.350 C 233.338 178.669 233.030 177.977 232.750 177.350 C 232.390 176.544 231.690 175.914 231.350 175.100 Z " transform="matrix(0.3152168393135071, 0, 0, 0.3152168393135071, -49.7, -46.05)"/>
    <path id="ID0.5099258632399142" fill="#009933" stroke="#006622" stroke-width="2" stroke-linecap="round" d="M 232 176 C 231.209 174.762 231.462 174.349 231.350 174 C 231.121 173.291 230.697 172.659 230.350 172 C 230.031 171.393 229.750 170.757 229.350 170.200 C 228.514 169.036 227.663 167.863 226.650 166.850 C 225.653 165.853 224.639 164.771 223.350 164.200 C 221.926 163.569 220.301 163.491 218.750 163.350 C 218.082 163.289 217.370 163.342 216.750 163.600 C 216.126 163.860 215.593 164.339 215.150 164.850 C 214.710 165.357 214.420 165.986 214.150 166.600 C 213.868 167.241 213.568 167.903 213.500 168.600 C 213.432 169.301 213.535 170.029 213.750 170.700 C 213.959 171.353 214.299 171.983 214.750 172.500 C 215.234 173.054 215.958 173.352 216.500 173.850 C 216.995 174.305 217.336 174.917 217.850 175.350 C 218.394 175.808 219.006 176.199 219.650 176.500 C 221.610 177.417 223.699 178.063 225.650 179 C 226.275 179.300 226.812 179.763 227.350 180.200 C 227.880 180.631 228.289 181.209 228.850 181.600 C 229.400 181.983 229.984 182.578 230.650 182.500 C 231.332 182.420 231.813 181.729 232.250 181.200 C 232.696 180.660 233.160 180.044 233.250 179.350 C 233.338 178.669 233.030 177.977 232.750 177.350 C 232.390 176.544 231.690 175.914 231.350 175.100 Z " transform="matrix(0.3152168393135071, 0, 0, 0.3152168393135071, -53.4, -44.85)"/>
    <path id="ID0.5099258632399142" fill="#009933" stroke="#006622" stroke-width="2" stroke-linecap="round" d="M 232 176 C 231.209 174.762 231.462 174.349 231.350 174 C 231.121 173.291 230.697 172.659 230.350 172 C 230.031 171.393 229.750 170.757 229.350 170.200 C 228.514 169.036 227.663 167.863 226.650 166.850 C 225.653 165.853 224.639 164.771 223.350 164.200 C 221.926 163.569 220.301 163.491 218.750 163.350 C 218.082 163.289 217.370 163.342 216.750 163.600 C 216.126 163.860 215.593 164.339 215.150 164.850 C 214.710 165.357 214.420 165.986 214.150 166.600 C 213.868 167.241 213.568 167.903 213.500 168.600 C 213.432 169.301 213.535 170.029 213.750 170.700 C 213.959 171.353 214.299 171.983 214.750 172.500 C 215.234 173.054 215.958 173.352 216.500 173.850 C 216.995 174.305 217.336 174.917 217.850 175.350 C 218.394 175.808 219.006 176.199 219.650 176.500 C 221.610 177.417 223.699 178.063 225.650 179 C 226.275 179.300 226.812 179.763 227.350 180.200 C 227.880 180.631 228.289 181.209 228.850 181.600 C 229.400 181.983 229.984 182.578 230.650 182.500 C 231.332 182.420 231.813 181.729 232.250 181.200 C 232.696 180.660 233.160 180.044 233.250 179.350 C 233.338 178.669 233.030 177.977 232.750 177.350 C 232.390 176.544 231.690 175.914 231.350 175.100 Z " transform="matrix(-0.3152168393135071, 0, 0, 0.3152168393135071, 100.65, -44.7)"/>
    <path id="ID0.22532706055790186" fill="#E9FF51" stroke="#D0E448" stroke-width="2" d="M 239.500 153 C 250.122 153 259.747 158.491 266.716 167.361 C 273.686 176.231 278 188.481 278 202 C 278 215.519 273.686 227.769 266.716 236.639 C 259.747 245.509 250.122 251 239.500 251 C 228.878 251 219.253 245.509 212.284 236.639 C 205.314 227.769 201 215.519 201 202 C 201 188.481 205.314 176.231 212.284 167.361 C 219.253 158.491 228.878 153 239.500 153 Z " transform="matrix(-0.24871134757995605, 0, 0, 0.24871134757995605, 82.8, -23.15)"/>
    <path id="ID0.8235992449335754" fill="none" stroke="#D0E448" stroke-width="2" stroke-linecap="round" d="M 213.250 189.400 L 219.850 183.500 L 226.250 189.500 L 234 183 L 240.150 189.400 L 247.250 182.700 L 254.350 190.150 " transform="matrix(-0.2809583842754364, 0, 0, 0.2809583842754364, 88.85, -35.3)"/>
    <path id="ID0.5099258632399142" fill="#009933" stroke="#006622" stroke-width="2" stroke-linecap="round" d="M 232 176 C 231.209 174.762 231.462 174.349 231.350 174 C 231.121 173.291 230.697 172.659 230.350 172 C 230.031 171.393 229.750 170.757 229.350 170.200 C 228.514 169.036 227.663 167.863 226.650 166.850 C 225.653 165.853 224.639 164.771 223.350 164.200 C 221.926 163.569 220.301 163.491 218.750 163.350 C 218.082 163.289 217.370 163.342 216.750 163.600 C 216.126 163.860 215.593 164.339 215.150 164.850 C 214.710 165.357 214.420 165.986 214.150 166.600 C 213.868 167.241 213.568 167.903 213.500 168.600 C 213.432 169.301 213.535 170.029 213.750 170.700 C 213.959 171.353 214.299 171.983 214.750 172.500 C 215.234 173.054 215.958 173.352 216.500 173.850 C 216.995 174.305 217.336 174.917 217.850 175.350 C 218.394 175.808 219.006 176.199 219.650 176.500 C 221.610 177.417 223.699 178.063 225.650 179 C 226.275 179.300 226.812 179.763 227.350 180.200 C 227.880 180.631 228.289 181.209 228.850 181.600 C 229.400 181.983 229.984 182.578 230.650 182.500 C 231.332 182.420 231.813 181.729 232.250 181.200 C 232.696 180.660 233.160 180.044 233.250 179.350 C 233.338 178.669 233.030 177.977 232.750 177.350 C 232.390 176.544 231.690 175.914 231.350 175.100 Z " transform="matrix(-0.3152168393135071, 0, 0, 0.3152168393135071, 99.55, -40.95)"/>
    <path id="ID0.5099258632399142" fill="#009933" stroke="#006622" stroke-width="2" stroke-linecap="round" d="M 232 176 C 231.209 174.762 231.462 174.349 231.350 174 C 231.121 173.291 230.697 172.659 230.350 172 C 230.031 171.393 229.750 170.757 229.350 170.200 C 228.514 169.036 227.663 167.863 226.650 166.850 C 225.653 165.853 224.639 164.771 223.350 164.200 C 221.926 163.569 220.301 163.491 218.750 163.350 C 218.082 163.289 217.370 163.342 216.750 163.600 C 216.126 163.860 215.593 164.339 215.150 164.850 C 214.710 165.357 214.420 165.986 214.150 166.600 C 213.868 167.241 213.568 167.903 213.500 168.600 C 213.432 169.301 213.535 170.029 213.750 170.700 C 213.959 171.353 214.299 171.983 214.750 172.500 C 215.234 173.054 215.958 173.352 216.500 173.850 C 216.995 174.305 217.336 174.917 217.850 175.350 C 218.394 175.808 219.006 176.199 219.650 176.500 C 221.610 177.417 223.699 178.063 225.650 179 C 226.275 179.300 226.812 179.763 227.350 180.200 C 227.880 180.631 228.289 181.209 228.850 181.600 C 229.400 181.983 229.984 182.578 230.650 182.500 C 231.332 182.420 231.813 181.729 232.250 181.200 C 232.696 180.660 233.160 180.044 233.250 179.350 C 233.338 178.669 233.030 177.977 232.750 177.350 C 232.390 176.544 231.690 175.914 231.350 175.100 Z " transform="matrix(0.3152168393135071, 0, 0, 0.3152168393135071, -53.55, -40.9)"/>
    <path id="ID0.5099258632399142" fill="#009933" stroke="#006622" stroke-width="2" stroke-linecap="round" d="M 232 176 C 231.209 174.762 231.462 174.349 231.350 174 C 231.121 173.291 230.697 172.659 230.350 172 C 230.031 171.393 229.750 170.757 229.350 170.200 C 228.514 169.036 227.663 167.863 226.650 166.850 C 225.653 165.853 224.639 164.771 223.350 164.200 C 221.926 163.569 220.301 163.491 218.750 163.350 C 218.082 163.289 217.370 163.342 216.750 163.600 C 216.126 163.860 215.593 164.339 215.150 164.850 C 214.710 165.357 214.420 165.986 214.150 166.600 C 213.868 167.241 213.568 167.903 213.500 168.600 C 213.432 169.301 213.535 170.029 213.750 170.700 C 213.959 171.353 214.299 171.983 214.750 172.500 C 215.234 173.054 215.958 173.352 216.500 173.850 C 216.995 174.305 217.336 174.917 217.850 175.350 C 218.394 175.808 219.006 176.199 219.650 176.500 C 221.610 177.417 223.699 178.063 225.650 179 C 226.275 179.300 226.812 179.763 227.350 180.200 C 227.880 180.631 228.289 181.209 228.850 181.600 C 229.400 181.983 229.984 182.578 230.650 182.500 C 231.332 182.420 231.813 181.729 232.250 181.200 C 232.696 180.660 233.160 180.044 233.250 179.350 C 233.338 178.669 233.030 177.977 232.750 177.350 C 232.390 176.544 231.690 175.914 231.350 175.100 Z " transform="matrix(-0.3152168393135071, 0, 0, 0.3152168393135071, 97.5, -42.05)"/>
    <path id="ID0.5099258632399142" fill="#009933" stroke="#006622" stroke-width="2" stroke-linecap="round" d="M 232 176 C 231.209 174.762 231.462 174.349 231.350 174 C 231.121 173.291 230.697 172.659 230.350 172 C 230.031 171.393 229.750 170.757 229.350 170.200 C 228.514 169.036 227.663 167.863 226.650 166.850 C 225.653 165.853 224.639 164.771 223.350 164.200 C 221.926 163.569 220.301 163.491 218.750 163.350 C 218.082 163.289 217.370 163.342 216.750 163.600 C 216.126 163.860 215.593 164.339 215.150 164.850 C 214.710 165.357 214.420 165.986 214.150 166.600 C 213.868 167.241 213.568 167.903 213.500 168.600 C 213.432 169.301 213.535 170.029 213.750 170.700 C 213.959 171.353 214.299 171.983 214.750 172.500 C 215.234 173.054 215.958 173.352 216.500 173.850 C 216.995 174.305 217.336 174.917 217.850 175.350 C 218.394 175.808 219.006 176.199 219.650 176.500 C 221.610 177.417 223.699 178.063 225.650 179 C 226.275 179.300 226.812 179.763 227.350 180.200 C 227.880 180.631 228.289 181.209 228.850 181.600 C 229.400 181.983 229.984 182.578 230.650 182.500 C 231.332 182.420 231.813 181.729 232.250 181.200 C 232.696 180.660 233.160 180.044 233.250 179.350 C 233.338 178.669 233.030 177.977 232.750 177.350 C 232.390 176.544 231.690 175.914 231.350 175.100 Z " transform="matrix(0.3152168393135071, 0, 0, 0.3152168393135071, -51.35, -41.95)"/>
    <path id="ID0.5099258632399142" fill="#009933" stroke="#006622" stroke-width="2" stroke-linecap="round" d="M 232 176 C 231.209 174.762 231.462 174.349 231.350 174 C 231.121 173.291 230.697 172.659 230.350 172 C 230.031 171.393 229.750 170.757 229.350 170.200 C 228.514 169.036 227.663 167.863 226.650 166.850 C 225.653 165.853 224.639 164.771 223.350 164.200 C 221.926 163.569 220.301 163.491 218.750 163.350 C 218.082 163.289 217.370 163.342 216.750 163.600 C 216.126 163.860 215.593 164.339 215.150 164.850 C 214.710 165.357 214.420 165.986 214.150 166.600 C 213.868 167.241 213.568 167.903 213.500 168.600 C 213.432 169.301 213.535 170.029 213.750 170.700 C 213.959 171.353 214.299 171.983 214.750 172.500 C 215.234 173.054 215.958 173.352 216.500 173.850 C 216.995 174.305 217.336 174.917 217.850 175.350 C 218.394 175.808 219.006 176.199 219.650 176.500 C 221.610 177.417 223.699 178.063 225.650 179 C 226.275 179.300 226.812 179.763 227.350 180.200 C 227.880 180.631 228.289 181.209 228.850 181.600 C 229.400 181.983 229.984 182.578 230.650 182.500 C 231.332 182.420 231.813 181.729 232.250 181.200 C 232.696 180.660 233.160 180.044 233.250 179.350 C 233.338 178.669 233.030 177.977 232.750 177.350 C 232.390 176.544 231.690 175.914 231.350 175.100 Z " transform="matrix(-0.3152168393135071, 0, 0, 0.3152168393135071, 95.65, -42.3)"/>
    <path id="ID0.5099258632399142" fill="#009933" stroke="#006622" stroke-width="2" stroke-linecap="round" d="M 232 176 C 231.209 174.762 231.462 174.349 231.350 174 C 231.121 173.291 230.697 172.659 230.350 172 C 230.031 171.393 229.750 170.757 229.350 170.200 C 228.514 169.036 227.663 167.863 226.650 166.850 C 225.653 165.853 224.639 164.771 223.350 164.200 C 221.926 163.569 220.301 163.491 218.750 163.350 C 218.082 163.289 217.370 163.342 216.750 163.600 C 216.126 163.860 215.593 164.339 215.150 164.850 C 214.710 165.357 214.420 165.986 214.150 166.600 C 213.868 167.241 213.568 167.903 213.500 168.600 C 213.432 169.301 213.535 170.029 213.750 170.700 C 213.959 171.353 214.299 171.983 214.750 172.500 C 215.234 173.054 215.958 173.352 216.500 173.850 C 216.995 174.305 217.336 174.917 217.850 175.350 C 218.394 175.808 219.006 176.199 219.650 176.500 C 221.610 177.417 223.699 178.063 225.650 179 C 226.275 179.300 226.812 179.763 227.350 180.200 C 227.880 180.631 228.289 181.209 228.850 181.600 C 229.400 181.983 229.984 182.578 230.650 182.500 C 231.332 182.420 231.813 181.729 232.250 181.200 C 232.696 180.660 233.160 180.044 233.250 179.350 C 233.338 178.669 233.030 177.977 232.750 177.350 C 232.390 176.544 231.690 175.914 231.350 175.100 Z " transform="matrix(0.3152168393135071, 0, 0, 0.3152168393135071, -49.5, -42.25)"/>
    <path id="ID0.8235992449335754" fill="none" stroke="#D0E448" stroke-width="2" stroke-linecap="round" d="M 213.250 189.400 L 219.850 183.500 L 226.250 189.500 L 234 183 L 240.150 189.400 L 247.250 182.700 L 254.350 190.150 " transform="matrix(-0.2809583842754364, 0, 0, 0.2809583842754364, 88.85, -16.85)"/>
    <path id="ID0.8235992449335754" fill="none" stroke="#D0E448" stroke-width="2" stroke-linecap="round" d="M 213.250 189.400 L 219.850 183.500 L 226.250 189.500 L 234 183 L 240.150 189.400 L 247.250 182.700 L 254.350 190.150 " transform="matrix(-0.3962481915950775, 0, 0, 0.2809583842754364, 115.85, -20)"/>
    <path id="ID0.8235992449335754" fill="none" stroke="#D0E448" stroke-width="2" stroke-linecap="round" d="M 213.250 189.400 L 219.850 183.500 L 226.250 189.500 L 234 183 L 240.150 189.400 L 247.250 182.700 L 254.350 190.150 " transform="matrix(-0.43596985936164856, 0, 0, 0.2809583842754364, 125.2, -23.45)"/>
    <path id="ID0.8235992449335754" fill="none" stroke="#D0E448" stroke-width="2" stroke-linecap="round" d="M 213.250 189.400 L 219.850 183.500 L 226.250 189.500 L 234 183 L 240.150 189.400 L 247.250 182.700 L 254.350 190.150 " transform="matrix(-0.44275161623954773, 0, 0, 0.2809583842754364, 126.7, -26.5)"/>
    <path id="ID0.8235992449335754" fill="none" stroke="#D0E448" stroke-width="2" stroke-linecap="round" d="M 213.250 189.400 L 219.850 183.500 L 226.250 189.500 L 234 183 L 240.150 189.400 L 247.250 182.700 L 254.350 190.150 " transform="matrix(-0.43596985936164856, 0, 0, 0.2809583842754364, 125.3, -29.2)"/>
    <path id="ID0.8235992449335754" fill="none" stroke="#D0E448" stroke-width="2" stroke-linecap="round" d="M 213.250 189.400 L 219.850 183.500 L 226.250 189.500 L 234 183 L 240.150 189.400 L 247.250 182.700 L 254.350 190.150 " transform="matrix(-0.3962481915950775, 0, 0, 0.2809583842754364, 115.8, -32.2)"/>
    <path id="ID0.6061547710560262" fill="#000000" stroke="#000000" stroke-width="2" stroke-linecap="round" d="M 222.100 186.850 L 218.600 177.250 L 239.350 177.250 L 236.700 186.350 L 222.100 186.850 Z " transform="matrix(-0.42958518862724304, 0, 0, 0.42958518862724304, 127.85, -54.9)"/>
    <path id="ID0.6061547710560262" fill="#000000" stroke="#000000" stroke-width="2" stroke-linecap="round" d="M 222.100 186.850 L 218.600 177.250 L 239.350 177.250 L 236.700 186.350 L 222.100 186.850 Z " transform="matrix(-0.42958518862724304, 0, 0, 0.42958518862724304, 117, -55.05)"/>
    <path id="ID0.7489708689972758" fill="#000000" stroke="none" d="M 236.500 173.750 L 241.350 173.750 L 241.350 175.250 L 236.500 175.250 L 236.500 173.750 Z " transform="matrix(-0.8360933661460876, 0, 0, 0.8360933661460876, 223.9, -123.3)"/>
    <path id="ID0.2612604680471122" fill="#FFFFFF" stroke="none" d="M 213.200 176.650 L 215.100 176.650 L 215.100 188.350 L 213.200 188.350 L 213.200 176.650 Z " transform="matrix(-0.2790220379829407, -0.17626972496509552, -0.17626972496509552, 0.2790220379829407, 124.35, 10.15)"/>
    <path id="ID0.2612604680471122" fill="#FFFFFF" stroke="none" d="M 213.200 176.650 L 215.100 176.650 L 215.100 188.350 L 213.200 188.350 L 213.200 176.650 Z " transform="matrix(-0.2790220379829407, -0.17626972496509552, -0.17626972496509552, 0.2790220379829407, 113.2, 9.65)"/>
    <path id="ID0.6025561904534698" fill="none" stroke="#000000" stroke-width="2" stroke-linecap="round" d="M 235.850 194.350 L 231.350 200.850 L 237.350 206.150 L 227.100 206.250 " transform="matrix(-0.8360933661460876, 0, 0, 0.8360933661460876, 223.9, -123.3)"/>
    <path id="ID0.6025561904534698" fill="none" stroke="#000000" stroke-width="2" stroke-linecap="round" d="M 235.850 194.350 L 231.350 200.850 L 237.350 206.150 L 227.100 206.250 " transform="matrix(0.8360933661460876, 0, 0, 0.8360933661460876, -177.65, -123.3)"/>
    <g id="ID0.5903293360024691">
      <path id="ID0.7179879313334823" fill="none" stroke="#000000" stroke-width="2" stroke-linecap="round" d="M 253.200 179.750 L 265.500 184.850 L 255 190.350 " transform="matrix(-0.5644962191581726, 0, 0, 0.5644962191581726, 155.95, -73.75)"/>
      <path id="ID0.26264452934265137" fill="none" stroke="#000000" stroke-width="2" stroke-linecap="round" d="M 268.500 169.150 L 260.150 164.500 L 259.600 173.750 " transform="matrix(0.04235266149044037, 0.4600055515766144, 0.4600055515766144, -0.04235266149044037, -74.75, -79.65)"/>
      <path id="ID0.1994128692895174" fill="none" stroke="#000000" stroke-width="2" stroke-linecap="round" d="M 260.850 165.500 L 264.500 173.250 " transform="matrix(0.04235266149044037, 0.4600055515766144, 0.4600055515766144, -0.04235266149044037, -74.75, -79.65)"/>
    </g>
    <g id="ID0.5903293360024691">
      <path id="ID0.7179879313334823" fill="none" stroke="#000000" stroke-width="2" stroke-linecap="round" d="M 253.200 179.750 L 265.500 184.850 L 255 190.350 " transform="matrix(0.5644962191581726, 0, 0, 0.5644962191581726, -109.75, -73.65)"/>
      <path id="ID0.26264452934265137" fill="none" stroke="#000000" stroke-width="2" stroke-linecap="round" d="M 268.500 169.150 L 260.150 164.500 L 259.600 173.750 " transform="matrix(-0.04235266149044037, 0.4600055515766144, -0.4600055515766144, -0.04235266149044037, 120.95, -79.55)"/>
      <path id="ID0.1994128692895174" fill="none" stroke="#000000" stroke-width="2" stroke-linecap="round" d="M 260.850 165.500 L 264.500 173.250 " transform="matrix(-0.04235266149044037, 0.4600055515766144, -0.4600055515766144, -0.04235266149044037, 120.95, -79.55)"/>
    </g>
  </g>
  <path id="ID0.9680157378315926" fill="#000000" stroke="url(#grad_3)" stroke-width="3" d="M 213.050 193.050 L 266.400 193.050 L 266.400 217.500 L 213.050 217.500 L 213.050 193.050 Z " transform="matrix(0.9503105282783508, 0, 0, 0.8397085666656494, -200.45, -130.45)"/>
  <text id="ID0.3952616755850613" fill="#FFFFFF" x="223.1" y="205.29999999999998" text-anchor="start" font-family="Helvetica" font-size="22" transform="matrix(0.24372217059135437, 0, 0, 0.24372217059135437, 5.05, 36.25)">MR. AVOCADOTHE PINEAPPLE</text>
  <path id="ID0.8365832129493356" fill="none" stroke="#666666" stroke-width="2" stroke-linecap="round" d="M 177.350 190 " transform="matrix(1, 0, 0, 1, -289, -217)"/>
  <path id="ID0.8365832129493356" fill="none" stroke="#666666" stroke-width="2" stroke-linecap="round" d="M 177.350 190 " transform="matrix(1, 0, 0, 1, -447, -283)"/>
  <path id="ID0.8365832129493356" fill="none" stroke="#666666" stroke-width="2" stroke-linecap="round" d="M 177.350 190 " transform="matrix(1, 0, 0, 1, -408, -124)"/>
  <path id="ID0.8365832129493356" fill="none" stroke="#666666" stroke-width="2" stroke-linecap="round" d="M 177.350 190 " transform="matrix(1, 0, 0, 1, -293, -327)"/>
  <path id="ID0.8365832129493356" fill="none" stroke="#666666" stroke-width="2" stroke-linecap="round" d="M 177.350 190 " transform="matrix(1, 0, 0, 1, -102, -76)"/>
  <path id="ID0.8365832129493356" fill="none" stroke="#666666" stroke-width="2" stroke-linecap="round" d="M 177.350 190 " transform="matrix(1, 0, 0, 1, -287, -154)"/>
  <path id="ID0.8365832129493356" fill="none" stroke="#666666" stroke-width="2" stroke-linecap="round" d="M 177.350 190 " transform="matrix(1, 0, 0, 1, -88, -84)"/>
  <path id="ID0.8365832129493356" fill="none" stroke="#666666" stroke-width="2" stroke-linecap="round" d="M 177.350 190 " transform="matrix(1, 0, 0, 1, -299, -74)"/>
</svg>