<svg version="1.1" width="235" height="212" viewBox="-1 -1 235 212" xmlns="http://www.w3.org/2000/svg" xmlns:xlink="http://www.w3.org/1999/xlink">
  <defs>
    <linearGradient id="grad_1" y2="1">
      <stop offset="0" stop-color="#006622" stop-opacity="1"/>
      <stop offset="1" stop-color="#00FF55" stop-opacity="1"/>
    </linearGradient>
    <linearGradient id="grad_2" y2="1">
      <stop offset="0" stop-color="#00FFFF" stop-opacity="1"/>
      <stop offset="1" stop-color="#FF0000" stop-opacity="1"/>
    </linearGradient>
    <linearGradient id="grad_3" y2="1">
      <stop offset="0" stop-color="#00FFFF" stop-opacity="1"/>
      <stop offset="1" stop-color="#FF0000" stop-opacity="1"/>
    </linearGradient>
  </defs>
  <!-- Exported by Scratch - http://scratch.mit.edu/ -->
  <path id="ID0.22965509304776788" fill="url(#grad_1)" stroke="url(#grad_2)" stroke-width="2" d="M 229.350 172.400 L 255.250 172.400 L 255.250 189.400 L 229.350 189.400 L 229.350 172.400 Z " transform="matrix(1.9236842393875122, 0, 0, 1.9236842393875122, -438.6, -328.75)"/>
  <g id="ID0.11868203664198518" transform="matrix(0.3925451338291168, 0, 0, 0.3925451338291168, -44.8, -42.05)">
    <path id="ID0.8865274041891098" fill="#000000" stroke="#000000" stroke-width="2" stroke-linecap="round" d="M 206.500 158.750 L 204.500 163.500 L 201 175 L 195.750 173 L 199.250 161.500 L 177.900 156.800 L 179.650 151.700 L 206.500 158.750 Z " transform="matrix(-0.5684754252433777, 0, 0, 0.7394790053367615, 334.7, 45.15)"/>
    <path id="ID0.8865274041891098" fill="#000000" stroke="#000000" stroke-width="2" stroke-linecap="round" d="M 206.500 158.750 L 204.500 163.500 L 201 175 L 195.750 173 L 199.250 161.500 L 177.900 156.800 L 179.650 151.700 L 206.500 158.750 Z " transform="matrix(0.5684754252433777, 0, 0, 0.7394789457321167, 34.55, 44.3)"/>
    <path id="ID0.08809070056304336" fill="#CC0000" stroke="#CC0000" stroke-width="2" stroke-linecap="round" d="M 246 185.300 C 245.980 186.048 246.001 186.757 246 187.550 C 245.996 188.249 245.967 188.955 246 189.650 C 246.032 190.318 246.202 190.981 246.200 191.650 C 246.195 193.388 245.679 195.206 246.050 196.950 C 246.209 197.783 246.958 198.439 247.700 198.950 C 248.390 199.425 249.264 199.689 250.100 199.700 C 250.987 199.672 251.919 199.407 252.650 198.900 C 253.338 198.420 254.043 197.780 254.150 197 C 254.561 193.880 254.151 190.691 254.150 187.600 C 254.150 186.827 254.142 186.200 254.150 185.500 C 253.991 181.252 254.228 180.358 253.900 178.850 C 253.715 178.142 253.282 177.502 252.700 177.150 C 251.952 176.691 251.161 176.494 250.350 176.500 C 249.410 176.507 248.387 176.551 247.600 177.050 C 246.923 177.494 246.549 178.360 246.350 179.150 C 246.053 182.515 246.050 183.695 246 185.300 Z " transform="matrix(-2.6007323265075684, 0, 0, 3.0955862998962402, 834.65, -417.25)"/>
    <g id="ID0.1477178898639977" transform="matrix(1, 0, 0, 1, 134, 126)">
      <path id="ID0.5619839346036315" fill="#CC0000" stroke="#990000" stroke-width="2" stroke-linecap="round" d="M 282.550 231 C 306.841 200.371 308.320 199.171 315.500 193 C 318.114 191.163 320.546 191.730 322.500 193 C 324.499 194.299 326.520 196.941 325.500 199.500 C 309.865 219.642 303.238 227.753 292 235 C 288.841 236.950 281.120 234.340 282.550 231 Z " transform="matrix(-0.2651574909687042, -0.2573777735233307, 0.393661230802536, -0.40556031465530396, 70.85, 207.2)"/>
      <path id="ID0.6155663500539958" fill="#990000" stroke="#660000" stroke-width="2" d="M 241.250 209 C 243.526 209 245.589 209.924 247.082 211.418 C 248.576 212.911 249.500 214.974 249.500 217.250 C 249.500 219.526 248.576 221.589 247.082 223.082 C 245.589 224.576 243.526 225.500 241.250 225.500 C 238.974 225.500 236.911 224.576 235.418 223.082 C 233.924 221.589 233 219.526 233 217.250 C 233 214.974 233.924 212.911 235.418 211.418 C 236.911 209.924 238.974 209 241.250 209 Z " transform="matrix(-0.15840548276901245, -0.49700650572776794, 0.4819457232952118, -0.15360532701015472, 20, 191.7)"/>
    </g>
    <g id="ID0.1477178898639977" transform="matrix(1, 0, 0, 1, 134, 126)">
      <path id="ID0.5619839346036315" fill="#CC0000" stroke="#990000" stroke-width="2" stroke-linecap="round" d="M 282.550 231 C 306.841 200.371 308.320 199.171 315.500 193 C 318.114 191.163 320.546 191.730 322.500 193 C 324.499 194.299 326.520 196.941 325.500 199.500 C 309.865 219.642 303.238 227.753 292 235 C 288.841 236.950 281.120 234.340 282.550 231 Z " transform="matrix(0.2778973877429962, -0.24356694519519806, -0.3725374937057495, -0.4250461459159851, 21.55, 207.2)"/>
      <path id="ID0.6155663500539958" fill="#990000" stroke="#660000" stroke-width="2" d="M 241.250 209 C 243.526 209 245.589 209.924 247.082 211.418 C 248.576 212.911 249.500 214.974 249.500 217.250 C 249.500 219.526 248.576 221.589 247.082 223.082 C 245.589 224.576 243.526 225.500 241.250 225.500 C 238.974 225.500 236.911 224.576 235.418 223.082 C 233.924 221.589 233 219.526 233 217.250 C 233 214.974 233.924 212.911 235.418 211.418 C 236.911 209.924 238.974 209 241.250 209 Z " transform="matrix(0.18346385657787323, -0.4883121848106384, -0.4735149145126343, -0.17790435254573822, 73.1, 194.3)"/>
    </g>
    <path id="ID0.5486297779716551" fill="#000000" stroke="#000000" stroke-width="6" stroke-linecap="round" d="M 319.350 238.550 C 307.238 245.500 295.597 266.776 302 278 C 311.189 288.839 325.526 285.577 337.700 286.950 C 347.701 288.070 358.478 286.995 368.500 283.850 C 376.746 282.212 390.961 281.771 391.550 272.850 C 392.439 259.122 383.380 242.675 371 237 C 355.369 229.848 334.427 229.344 319.350 238.550 Z " transform="matrix(-0.20238818228244781, 0.0034631520975381136, 0.003740547224879265, 0.2185988575220108, 246.35, 147)"/>
    <path id="ID0.5486297779716551" fill="#000000" stroke="#000000" stroke-width="6" stroke-linecap="round" d="M 319.350 238.550 C 307.238 245.500 295.597 266.776 302 278 C 311.189 288.839 325.526 285.577 337.700 286.950 C 347.701 288.070 358.478 286.995 368.500 283.850 C 376.746 282.212 390.961 281.771 391.550 272.850 C 392.439 259.122 383.380 242.675 371 237 C 355.369 229.848 334.427 229.344 319.350 238.550 Z " transform="matrix(-0.20238818228244781, 0.0034631520975381136, 0.003740547224879265, 0.2185988575220108, 261.05, 147.05)"/>
    <path id="ID0.643749819137156" fill="#FF9400" stroke="#000000" stroke-width="2" d="M 234.750 143.750 C 236.336 143.750 237.774 144.576 238.815 145.911 C 239.856 147.247 240.500 149.090 240.500 151.125 C 240.500 153.160 239.856 155.003 238.815 156.339 C 237.774 157.674 236.336 158.500 234.750 158.500 C 233.164 158.500 231.726 157.674 230.685 156.339 C 229.644 155.003 229 153.160 229 151.125 C 229 149.090 229.644 147.247 230.685 145.911 C 231.726 144.576 233.164 143.750 234.750 143.750 Z " transform="matrix(-0.6308979988098145, 0, 0, 0.6308979988098145, 336.35, 52.7)"/>
    <path id="ID0.643749819137156" fill="#FF9400" stroke="#000000" stroke-width="2" d="M 234.750 143.750 C 236.336 143.750 237.774 144.576 238.815 145.911 C 239.856 147.247 240.500 149.090 240.500 151.125 C 240.500 153.160 239.856 155.003 238.815 156.339 C 237.774 157.674 236.336 158.500 234.750 158.500 C 233.164 158.500 231.726 157.674 230.685 156.339 C 229.644 155.003 229 153.160 229 151.125 C 229 149.090 229.644 147.247 230.685 145.911 C 231.726 144.576 233.164 143.750 234.750 143.750 Z " transform="matrix(-0.6308979988098145, 0, 0, 0.6308979988098145, 330.6, 52.45)"/>
    <path id="ID0.8540973095223308" fill="none" stroke="#000000" stroke-width="2" stroke-linecap="round" d="M 255.250 160.850 C 255.250 160.850 253.312 160.956 252.400 161.250 C 251.731 161.466 251.089 161.846 250.600 162.350 C 250.012 162.957 249.545 163.708 249.250 164.500 C 248.999 165.176 249.042 165.930 249 166.650 C 248.959 167.348 248.664 168.136 249 168.750 C 249.330 169.354 250.102 169.617 250.750 169.850 C 251.430 170.094 252.182 170.234 252.900 170.150 C 253.936 170.029 255.900 169.250 255.900 169.250 " transform="matrix(-0.4261791706085205, 0, 0, 0.4261791706085205, 293.6, 83.7)"/>
  </g>
  <path id="ID0.9680157378315926" fill="#000000" stroke="url(#grad_3)" stroke-width="3" d="M 213.050 193.050 L 266.400 193.050 L 266.400 217.500 L 213.050 217.500 L 213.050 193.050 Z " transform="matrix(0.9503105282783508, 0, 0, 0.8397085666656494, -200.5, -130.45)"/>
  <text id="ID0.3952616755850613" fill="#FFFFFF" x="223.1" y="205.29999999999998" text-anchor="start" font-family="Helvetica" font-size="22" transform="matrix(0.3118898570537567, 0, 0, 0.3118898570537567, 6.5, 38.05)">TRICKSTER</text>
  <path id="ID0.8365832129493356" fill="none" stroke="#666666" stroke-width="2" stroke-linecap="round" d="M 177.350 190 " transform="matrix(1, 0, 0, 1, -139, -182)"/>
</svg>