<svg version="1.1" width="55" height="54" viewBox="-1 -1 55 54" xmlns="http://www.w3.org/2000/svg" xmlns:xlink="http://www.w3.org/1999/xlink">
  <defs>
    <linearGradient id="grad_1" y2="1">
      <stop offset="0" stop-color="#006622" stop-opacity="1"/>
      <stop offset="1" stop-color="#00FF55" stop-opacity="1"/>
    </linearGradient>
    <linearGradient id="grad_2" y2="1">
      <stop offset="0" stop-color="#00FFFF" stop-opacity="1"/>
      <stop offset="1" stop-color="#FF0000" stop-opacity="1"/>
    </linearGradient>
    <linearGradient id="grad_3" y2="1">
      <stop offset="0" stop-color="#00FFFF" stop-opacity="1"/>
      <stop offset="1" stop-color="#FF0000" stop-opacity="1"/>
    </linearGradient>
  </defs>
  <!-- Exported by Scratch - http://scratch.mit.edu/ -->
  <path id="ID0.22965509304776788" fill="url(#grad_1)" stroke="url(#grad_2)" stroke-width="2" d="M 229.350 172.400 L 255.250 172.400 L 255.250 189.400 L 229.350 189.400 L 229.350 172.400 Z " transform="matrix(1.9236842393875122, 0, 0, 1.9236842393875122, -438.6, -328.75)"/>
  <g id="ID0.5797000122256577">
    <path id="ID0.5619839346036315" fill="#0033CC" stroke="#002699" stroke-width="2" stroke-linecap="round" d="M 282.550 231 C 306.841 200.371 308.320 199.171 315.500 193 C 318.114 191.163 320.546 191.730 322.500 193 C 324.499 194.299 326.520 196.941 325.500 199.500 C 309.865 219.642 303.238 227.753 292 235 C 288.841 236.950 281.120 234.340 282.550 231 Z " transform="matrix(0.1333857923746109, -0.16930146515369415, 0.25894781947135925, 0.20401456952095032, -66.9, 43.3)"/>
    <path id="ID0.08809070056304336" fill="#FFD499" stroke="#FFD499" stroke-width="2" stroke-linecap="round" d="M 246 185.300 C 245.980 186.048 246.001 186.757 246 187.550 C 245.996 188.249 245.967 188.955 246 189.650 C 246.032 190.318 246.125 190.985 246.200 191.650 C 246.275 192.317 246.350 192.986 246.450 193.650 C 246.550 194.319 246.487 195.051 246.800 195.650 C 247.116 196.255 247.648 196.777 248.250 197.100 C 248.849 197.421 249.571 197.509 250.250 197.500 C 250.916 197.492 251.639 197.409 252.200 197.050 C 252.769 196.685 253.158 196.060 253.450 195.450 C 253.738 194.849 253.850 194.164 253.900 193.500 C 254.047 191.545 254.095 189.568 254.150 187.600 C 254.143 186.901 254.142 186.200 254.150 185.500 C 253.991 181.252 254.228 180.358 253.900 178.850 C 253.715 178.142 253.282 177.502 252.700 177.150 C 251.952 176.691 251.161 176.494 250.350 176.500 C 249.410 176.507 248.387 176.551 247.600 177.050 C 246.923 177.494 246.549 178.360 246.350 179.150 C 246.053 182.515 246.050 183.695 246 185.300 Z " transform="matrix(-1.4834433794021606, 0.31691452860832214, 0.3772153854370117, 1.7657053470611572, 318.75, -383.6)"/>
    <path id="ID0.0726902256719768" fill="#003FFF" stroke="#0032CC" stroke-width="2" stroke-linecap="round" d="M 209.500 227.500 L 209 179.500 L 215.100 179.250 L 219.300 189.750 L 224.600 179.250 L 240.500 179.500 L 241.500 227.500 L 239 231.500 L 233.500 233.500 L 224 234.500 L 213.500 232.500 L 209.500 227.500 Z " transform="matrix(-0.4735558331012726, 0.10116781294345856, 0.0768786370754242, 0.35986074805259705, 111.6, -57.35)"/>
    <path id="ID0.8850112343207002" fill="none" stroke="#000000" stroke-width="2" stroke-linecap="round" d="M 240.500 194 L 240.800 194.300 " transform="matrix(-0.35986074805259705, 0.0768786370754242, 0.0768786370754242, 0.35986074805259705, 95.1, -54.4)"/>
    <path id="ID0.16972909634932876" fill="none" stroke="#000000" stroke-width="2" stroke-linecap="round" d="M 240.500 199.500 L 240.800 199.800 " transform="matrix(-0.35986074805259705, 0.0768786370754242, 0.0768786370754242, 0.35986074805259705, 95.1, -54.4)"/>
    <path id="ID0.5619839346036315" fill="#003FFF" stroke="#0033CC" stroke-width="2" stroke-linecap="round" d="M 282.550 231 C 306.841 200.371 308.320 199.171 315.500 193 C 318.114 191.163 320.546 191.730 322.500 193 C 324.499 194.299 326.520 196.941 325.500 199.500 C 309.865 219.642 303.238 227.753 292 235 C 288.841 236.950 281.120 234.340 282.550 231 Z " transform="matrix(-0.1944122165441513, -0.09305185824632645, -0.14232347905635834, 0.29735493659973145, 102.6, 3.4)"/>
    <path id="ID0.643749819137156" fill="#FFFFFF" stroke="#000000" stroke-width="2" d="M 232.200 145.250 C 235.335 146.777 238.997 148.250 240.500 151.125 C 241.333 152.742 239.876 154.977 238.815 156.339 C 237.799 157.643 236.336 158.500 234.750 158.500 C 233.164 158.500 231.726 157.674 230.685 156.339 C 229.644 155.003 229 153.160 229 151.125 C 229 149.090 229.725 147.454 230.685 145.911 C 231.125 145.241 231.626 144.806 232.200 145.250 Z " transform="matrix(-0.35986074805259705, 0.0768786370754242, 0.0768786370754242, 0.35986074805259705, 92.75, -55.3)"/>
    <path id="ID0.643749819137156" fill="#FFFFFF" stroke="#000000" stroke-width="2" d="M 238.300 145.650 C 239.104 145.084 238.660 145.480 238.815 145.911 C 239.432 147.626 240.500 149.090 240.500 151.125 C 240.500 153.160 239.856 155.003 238.815 156.339 C 237.774 157.674 236.336 158.500 234.750 158.500 C 233.164 158.500 231.726 157.674 230.685 156.339 C 229.644 155.003 227.947 152.614 229 151.125 C 231.126 148.120 235.108 147.207 238.300 145.650 Z " transform="matrix(-0.35986074805259705, 0.0768786370754242, 0.0768786370754242, 0.35986074805259705, 89.35, -54.65)"/>
    <path id="ID0.7692075585946441" fill="none" stroke="#000000" stroke-width="2" stroke-linecap="round" d="M 233.750 150.250 L 234.050 150.550 " transform="matrix(-0.35986074805259705, 0.0768786370754242, 0.0768786370754242, 0.35986074805259705, 92.55, -55.25)"/>
    <path id="ID0.731148752849549" fill="none" stroke="#000000" stroke-width="2" stroke-linecap="round" d="M 242.500 150 L 242.800 150.300 " transform="matrix(-0.35986074805259705, 0.0768786370754242, 0.0768786370754242, 0.35986074805259705, 92.55, -55.25)"/>
    <path id="ID0.17161718104034662" fill="none" stroke="#000000" stroke-width="2" stroke-linecap="round" d="M 219.500 178 L 268 177.500 " transform="matrix(-0.24221308529376984, 0.05982942506670952, 0.1261291652917862, 0.5106205344200134, 55.85, -80.85)"/>
    <path id="ID0.8540973095223308" fill="none" stroke="#000000" stroke-width="2" stroke-linecap="round" d="M 255.250 160.850 C 255.250 160.850 253.312 160.956 252.400 161.250 C 251.731 161.466 251.089 161.846 250.600 162.350 C 250.012 162.957 249.545 163.708 249.250 164.500 C 248.999 165.176 249.042 165.930 249 166.650 C 248.959 167.348 248.664 168.136 249 168.750 C 249.330 169.354 250.102 169.617 250.750 169.850 C 251.430 170.094 252.182 170.234 252.900 170.150 C 253.936 170.029 255.900 169.250 255.900 169.250 " transform="matrix(-0.24309024214744568, 0.0519324354827404, 0.0519324354827404, 0.24309024214744568, 72, -32.3)"/>
  </g>
  <path id="ID0.9680157378315926" fill="#000000" stroke="url(#grad_3)" stroke-width="3" d="M 213.050 193.050 L 266.400 193.050 L 266.400 217.500 L 213.050 217.500 L 213.050 193.050 Z " transform="matrix(0.9503105282783508, 0, 0, 0.8397085666656494, -200.45, -130.45)"/>
  <text id="ID0.3952616755850613" fill="#FFFFFF" x="223.1" y="205.29999999999998" text-anchor="start" font-family="Helvetica" font-size="22" transform="matrix(0.4020797312259674, 0, 0, 0.4020797312259674, 14.8, 36.9)">BILL</text>
</svg>