<svg version="1.1" width="395" height="91" viewBox="-1 -1 395 91" xmlns="http://www.w3.org/2000/svg" xmlns:xlink="http://www.w3.org/1999/xlink">
  <defs>
    <linearGradient id="grad_1" y2="1">
      <stop offset="0" stop-color="#003FFF" stop-opacity="1"/>
      <stop offset="1" stop-color="#001966" stop-opacity="1"/>
    </linearGradient>
    <linearGradient id="grad_2" y2="1">
      <stop offset="0" stop-color="#00FFFF" stop-opacity="1"/>
      <stop offset="1" stop-color="#FF0000" stop-opacity="1"/>
    </linearGradient>
    <radialGradient id="grad_3" cx="0.5283" cy="0.4228" r="0.75036">
      <stop offset="0" stop-color="#FFFFFF" stop-opacity="1"/>
      <stop offset="1" stop-color="#000000" stop-opacity="1"/>
    </radialGradient>
    <radialGradient id="grad_4" cx="0.5283" cy="0.4228" r="0.75036">
      <stop offset="0" stop-color="#FFFFFF" stop-opacity="1"/>
      <stop offset="1" stop-color="#000000" stop-opacity="1"/>
    </radialGradient>
    <linearGradient id="grad_5" y2="1">
      <stop offset="0" stop-color="#00FFFF" stop-opacity="1"/>
      <stop offset="1" stop-color="#FF0000" stop-opacity="1"/>
    </linearGradient>
  </defs>
  <!-- Exported by Scratch - http://scratch.mit.edu/ -->
  <path id="ID0.22965509304776788" fill="url(#grad_1)" stroke="url(#grad_2)" stroke-width="2" d="M 229.350 172.400 L 255.250 172.400 L 255.250 189.400 L 229.350 189.400 L 229.350 172.400 Z " transform="matrix(1.9236842393875122, 0, 0, 1.9236842393875122, -438.6, -328.75)"/>
  <g id="ID0.46054664393886924" transform="matrix(-0.5363893508911133, 0.13054978847503662, 0.13054978847503662, 0.5363893508911133, 214.5, -57.55)">
    <g id="ID0.8552954299375415">
      <path id="ID0.41049800580367446" fill="#CC99FF" stroke="#7F00FF" stroke-width="2" stroke-linecap="round" d="M 255.750 148.100 L 219 160.500 L 253.500 176 L 290.500 162.500 L 255.750 148.100 Z " transform="matrix(0.718137264251709, 0, 0, 0.8730924725532532, 183.5, -96.3)"/>
      <path id="ID0.3551975656300783" fill="#CC99FF" stroke="#7F00FF" stroke-width="2" stroke-linecap="round" d="M 218.250 160.900 L 252.750 176.500 L 253 212.700 L 216.250 197.200 L 218.250 160.900 Z " transform="matrix(0.718137264251709, 0, 0, 0.8730924725532532, 183.5, -96.3)"/>
      <path id="ID0.22761756414547563" fill="#CC99FF" stroke="#7F00FF" stroke-width="2" stroke-linecap="round" d="M 252.750 175.500 L 290.500 162.500 L 290.250 202.700 L 254 212.700 L 252.750 175.500 Z " transform="matrix(0.718137264251709, 0, 0, 0.8730924725532532, 183.5, -96.3)"/>
    </g>
    <path id="ID0.5875303484499454" fill="none" stroke="#000000" stroke-width="2" stroke-linecap="round" d="M 212 166.500 L 240.750 179.250 " transform="matrix(0.718137264251709, 0, 0, 0.718137264251709, 189, -68.5)"/>
    <path id="ID0.2296458501368761" fill="url(#grad_3)" stroke="#000000" stroke-width="2" stroke-linecap="round" d="M 215.250 168.500 C 214.711 169.595 215.170 170.829 215.250 172 C 215.295 172.664 215.250 173.334 215.250 174 C 215.250 174.666 214.779 175.529 215.250 176 C 215.721 176.471 216.675 176.336 217.250 176 C 217.830 175.662 218.077 174.899 218.250 174.250 C 218.422 173.606 218.250 172.916 218.250 172.250 C 218.250 171.584 218.422 170.894 218.250 170.250 C 218.077 169.601 217.830 168.838 217.250 168.500 C 216.675 168.164 215.748 168.211 215.250 168.500 Z " transform="matrix(0.718137264251709, 0, 0, 0.718137264251709, 188.1, -68.5)"/>
    <path id="ID0.2296458501368761" fill="url(#grad_4)" stroke="#000000" stroke-width="2" stroke-linecap="round" d="M 215.250 168.500 C 214.711 169.595 215.170 170.829 215.250 172 C 215.295 172.664 215.250 173.334 215.250 174 C 215.250 174.666 214.779 175.529 215.250 176 C 215.721 176.471 216.675 176.336 217.250 176 C 217.830 175.662 218.077 174.899 218.250 174.250 C 218.422 173.606 218.250 172.916 218.250 172.250 C 218.250 171.584 218.422 170.894 218.250 170.250 C 218.077 169.601 217.830 168.838 217.250 168.500 C 216.675 168.164 215.748 168.211 215.250 168.500 Z " transform="matrix(0.718137264251709, 0, 0, 0.718137264251709, 202.35, -62.35)"/>
    <path id="ID0.9655489576980472" fill="none" stroke="#000000" stroke-width="2" stroke-linecap="round" d="M 211.500 186.250 L 239.750 197.500 " transform="matrix(0.718137264251709, 0, 0, 0.718137264251709, 189, -68.5)"/>
  </g>
  <path id="ID0.9680157378315926" fill="#000000" stroke="url(#grad_5)" stroke-width="3" d="M 213.050 193.050 L 266.400 193.050 L 266.400 217.500 L 213.050 217.500 L 213.050 193.050 Z " transform="matrix(0.9503105282783508, 0, 0, 0.8397085666656494, -200.5, -130.35)"/>
  <text id="ID0.3952616755850613" fill="#FFFFFF" x="223.1" y="205.29999999999998" text-anchor="start" font-family="Helvetica" font-size="22" transform="matrix(0.3119584321975708, 0, 0, 0.3119584321975708, 12.5, 39.05)">DA BOX</text>
  <path id="ID0.8365832129493356" fill="none" stroke="#666666" stroke-width="2" stroke-linecap="round" d="M 177.350 190 " transform="matrix(1, 0, 0, 1, -606.5, -141)"/>
  <path id="ID0.8365832129493356" fill="none" stroke="#666666" stroke-width="2" stroke-linecap="round" d="M 177.350 190 " transform="matrix(1, 0, 0, 1, -304, -234)"/>
  <path id="ID0.8365832129493356" fill="none" stroke="#666666" stroke-width="2" stroke-linecap="round" d="M 177.350 190 " transform="matrix(1, 0, 0, 1, -462, -300)"/>
  <path id="ID0.8365832129493356" fill="none" stroke="#666666" stroke-width="2" stroke-linecap="round" d="M 177.350 190 " transform="matrix(1, 0, 0, 1, -423, -141)"/>
  <path id="ID0.8365832129493356" fill="none" stroke="#666666" stroke-width="2" stroke-linecap="round" d="M 177.350 190 " transform="matrix(1, 0, 0, 1, -308, -344)"/>
  <path id="ID0.8365832129493356" fill="none" stroke="#666666" stroke-width="2" stroke-linecap="round" d="M 177.350 190 " transform="matrix(1, 0, 0, 1, -117, -93)"/>
  <path id="ID0.8365832129493356" fill="none" stroke="#666666" stroke-width="2" stroke-linecap="round" d="M 177.350 190 " transform="matrix(1, 0, 0, 1, -302, -171)"/>
  <path id="ID0.8365832129493356" fill="none" stroke="#666666" stroke-width="2" stroke-linecap="round" d="M 177.350 190 " transform="matrix(1, 0, 0, 1, -103, -101)"/>
  <path id="ID0.8365832129493356" fill="none" stroke="#666666" stroke-width="2" stroke-linecap="round" d="M 177.350 190 " transform="matrix(1, 0, 0, 1, -314, -91)"/>
</svg>