<svg version="1.1" width="148" height="277" viewBox="-1 -1 148 277" xmlns="http://www.w3.org/2000/svg" xmlns:xlink="http://www.w3.org/1999/xlink">
  <defs>
    <linearGradient id="grad_1" y2="1">
      <stop offset="0" stop-color="#006622" stop-opacity="1"/>
      <stop offset="1" stop-color="#00FF55" stop-opacity="1"/>
    </linearGradient>
    <linearGradient id="grad_2" y2="1">
      <stop offset="0" stop-color="#00FFFF" stop-opacity="1"/>
      <stop offset="1" stop-color="#FF0000" stop-opacity="1"/>
    </linearGradient>
    <linearGradient id="grad_3" y2="1">
      <stop offset="0" stop-color="#00FFFF" stop-opacity="1"/>
      <stop offset="1" stop-color="#FF0000" stop-opacity="1"/>
    </linearGradient>
  </defs>
  <!-- Exported by Scratch - http://scratch.mit.edu/ -->
  <path id="ID0.22965509304776788" fill="url(#grad_1)" stroke="url(#grad_2)" stroke-width="2" d="M 229.350 172.400 L 255.250 172.400 L 255.250 189.400 L 229.350 189.400 L 229.350 172.400 Z " transform="matrix(1.9236842393875122, 0, 0, 1.9236842393875122, -438.6, -328.75)"/>
  <g id="ID0.37841376895084977" transform="matrix(0.5728542804718018, 0, 0, 0.5728542804718018, -37.9, -123.8)">
    <path id="ID0.8092106799595058" fill="#FFD499" stroke="none" d="M 242.925 158.500 C 247.801 158.500 252.220 160.621 255.420 164.047 C 258.619 167.472 260.600 172.204 260.600 177.425 C 260.600 182.646 258.619 187.378 255.420 190.803 C 252.220 194.229 247.801 196.350 242.925 196.350 C 238.049 196.350 233.630 194.229 230.430 190.803 C 227.231 187.378 225.250 182.646 225.250 177.425 C 225.250 172.204 227.231 167.472 230.430 164.047 C 233.630 160.621 238.049 158.500 242.925 158.500 Z " transform="matrix(1.1581677198410034, 0, 0, 0.9795541167259216, -171.6, 73.85)"/>
    <path id="ID0.14808626752346754" fill="none" stroke="#000000" stroke-width="1" stroke-linecap="round" d="M 231.250 175.750 L 246.800 175.800 " transform="matrix(0.9216576218605042, 0, 0, 0.7795189023017883, -104.3, 107.75)"/>
    <path id="ID0.5513844583183527" fill="#FFFFFF" stroke="#000000" stroke-width="1" d="M 233.125 160 C 234.332 160 235.426 160.476 236.218 161.246 C 237.010 162.015 237.500 163.077 237.500 164.250 C 237.500 165.423 237.010 166.485 236.218 167.254 C 235.426 168.024 234.332 168.500 233.125 168.500 C 231.918 168.500 230.824 168.024 230.032 167.254 C 229.240 166.485 228.750 165.423 228.750 164.250 C 228.750 163.077 229.240 162.015 230.032 161.246 C 230.824 160.476 231.918 160 233.125 160 Z " transform="matrix(0.9216576218605042, 0, 0, 0.7795189023017883, -103.95, 108.65)"/>
    <path id="ID0.5513844583183527" fill="#FFFFFF" stroke="#000000" stroke-width="1" d="M 233.125 160 C 234.332 160 235.426 160.476 236.218 161.246 C 237.010 162.015 237.500 163.077 237.500 164.250 C 237.500 165.423 237.010 166.485 236.218 167.254 C 235.426 168.024 234.332 168.500 233.125 168.500 C 231.918 168.500 230.824 168.024 230.032 167.254 C 229.240 166.485 228.750 165.423 228.750 164.250 C 228.750 163.077 229.240 162.015 230.032 161.246 C 230.824 160.476 231.918 160 233.125 160 Z " transform="matrix(0.7241291999816895, 0, 0, 0.7838256359100342, -47.8, 108.45)"/>
    <path id="ID0.7196033955551684" fill="none" stroke="#000000" stroke-width="2" stroke-linecap="round" d="M 233 166.500 L 233.300 166.800 " transform="matrix(0.9216576218605042, 0, 0, 0.7795189023017883, -101.9, 107.15)"/>
    <path id="ID0.286019139457494" fill="none" stroke="#000000" stroke-width="2" stroke-linecap="round" d="M 247.500 166.250 L 247.800 166.550 " transform="matrix(0.7241291999816895, 0, 0, 0.8296633958816528, -57.1, 99.85)"/>
    <path id="ID0.032828168012201786" fill="#0138B1" stroke="#023993" stroke-width="1" d="M 208.125 174 C 211.263 174 214.107 174.462 216.166 175.209 C 218.225 175.956 219.500 176.987 219.500 178.125 C 219.500 179.263 218.225 180.294 216.166 181.041 C 214.107 181.788 211.263 182.250 208.125 182.250 C 204.987 182.250 202.143 181.788 200.084 181.041 C 198.025 180.294 196.750 179.263 196.750 178.125 C 196.750 176.987 198.025 175.956 200.084 175.209 C 202.143 174.462 204.987 174 208.125 174 Z " transform="matrix(-0.6236862540245056, -0.6965456604957581, -0.734740138053894, 0.4706135094165802, 396, 317.3)"/>
    <path id="ID0.10849038045853376" fill="#C5A377" stroke="#B4956C" stroke-width="2" d="M 205.375 191.250 C 206.927 191.250 208.333 191.852 209.351 192.825 C 210.370 193.798 211 195.142 211 196.625 C 211 198.108 210.370 199.452 209.351 200.425 C 208.333 201.398 206.927 202 205.375 202 C 203.823 202 202.417 201.398 201.399 200.425 C 200.380 199.452 199.750 198.108 199.750 196.625 C 199.750 195.142 200.380 193.798 201.399 192.825 C 202.417 191.852 203.823 191.250 205.375 191.250 Z " transform="matrix(0.9216576218605042, 0, 0, 0.7795189023017883, -48.8, 109.95)"/>
    <path id="ID0.3222357570193708" fill="none" stroke="#000000" stroke-width="1" stroke-linecap="round" d="M 332.100 155.250 C 332.100 155.250 331.336 155.529 331 155.750 C 330.695 155.951 330.401 156.195 330.200 156.500 C 330.006 156.795 329.885 157.149 329.850 157.500 C 329.816 157.835 329.833 158.208 330 158.500 C 330.187 158.828 330.537 159.039 330.850 159.250 C 331.158 159.458 331.483 159.689 331.850 159.750 C 332.034 159.781 332.350 159.500 332.350 159.500 " transform="matrix(-1.1387827396392822, 0, 0, 0.8489106297492981, 494.05, 107.4)"/>
    <path id="ID0.8092106799595058" fill="#003FFF" stroke="#0142D2" stroke-width="2" d="M 226.550 179.700 C 237.434 178.545 248.476 178.630 259.600 178.750 C 262.374 178.771 260.758 178.370 260.650 180.050 C 260.219 186.765 260.127 193.669 258.150 200.100 C 257.515 202.165 255.447 204.120 253.350 204.550 C 246.917 205.594 240.210 205.349 233.850 204.300 C 230.985 203.828 227.483 202.523 226.350 199.850 C 224.056 194.436 224.924 188.230 224.900 182.400 C 224.877 180.942 223.706 179.989 226.550 179.700 Z " transform="matrix(1.1581677198410034, 0, 0, 0.9795541167259216, -171.35, 74.35)"/>
    <g id="ID0.8711371798999608" transform="matrix(1, 0, 0, 1, 71, 229)">
      <path id="ID0.032828168012201786" fill="#119AD9" stroke="#0F89C1" stroke-width="1" d="M 208.125 174 C 211.263 174 214.107 174.462 216.166 175.209 C 218.225 175.956 219.500 176.987 219.500 178.125 C 219.500 179.263 218.225 180.294 216.166 181.041 C 214.107 181.788 211.263 182.250 208.125 182.250 C 204.987 182.250 202.143 181.788 200.084 181.041 C 198.025 180.294 196.750 179.263 196.750 178.125 C 196.750 176.987 198.025 175.956 200.084 175.209 C 202.143 174.462 204.987 174 208.125 174 Z " transform="matrix(0.6236862540245056, -0.6965456604957581, 0.7347400784492493, 0.4706135094165802, -247.6, 89.1)"/>
      <path id="ID0.10849038045853376" fill="#FFD499" stroke="#DCB684" stroke-width="2" d="M 205.375 191.250 C 206.927 191.250 208.333 191.852 209.351 192.825 C 210.370 193.798 211 195.142 211 196.625 C 211 198.108 210.370 199.452 209.351 200.425 C 208.333 201.398 206.927 202 205.375 202 C 203.823 202 202.417 201.398 201.399 200.425 C 200.380 199.452 199.750 198.108 199.750 196.625 C 199.750 195.142 200.380 193.798 201.399 192.825 C 202.417 191.852 203.823 191.250 205.375 191.250 Z " transform="matrix(0.9216576814651489, 0, 0, 0.7795189023017883, -182.75, -119.15)"/>
    </g>
  </g>
  <path id="ID0.9680157378315926" fill="#000000" stroke="url(#grad_3)" stroke-width="3" d="M 213.050 193.050 L 266.400 193.050 L 266.400 217.500 L 213.050 217.500 L 213.050 193.050 Z " transform="matrix(0.9503105282783508, 0, 0, 0.8397085666656494, -200.5, -130.45)"/>
  <text id="ID0.3952616755850613" fill="#FFFFFF" x="223.1" y="205.29999999999998" text-anchor="start" font-family="Helvetica" font-size="22" transform="matrix(0.28423064947128296, 0, 0, 0.28423064947128296, 6.65, 35.65)">GEORGE THEBURGERMAN</text>
  <path id="ID0.8365832129493356" fill="none" stroke="#666666" stroke-width="2" stroke-linecap="round" d="M 177.350 190 " transform="matrix(1, 0, 0, 1, -139, -182)"/>
  <path id="ID0.8365832129493356" fill="none" stroke="#666666" stroke-width="2" stroke-linecap="round" d="M 177.350 190 " transform="matrix(1, 0, 0, 1, -352, -94)"/>
  <path id="ID0.8365832129493356" fill="none" stroke="#666666" stroke-width="2" stroke-linecap="round" d="M 177.350 190 " transform="matrix(1, 0, 0, 1, -346, -127)"/>
  <path id="ID0.8365832129493356" fill="none" stroke="#666666" stroke-width="2" stroke-linecap="round" d="M 177.350 190 " transform="matrix(1, 0, 0, 1, -504, -193)"/>
  <path id="ID0.8365832129493356" fill="none" stroke="#666666" stroke-width="2" stroke-linecap="round" d="M 177.350 190 " transform="matrix(1, 0, 0, 1, -465, -34)"/>
  <path id="ID0.8365832129493356" fill="none" stroke="#666666" stroke-width="2" stroke-linecap="round" d="M 177.350 190 " transform="matrix(1, 0, 0, 1, -350, -237)"/>
  <path id="ID0.8365832129493356" fill="none" stroke="#666666" stroke-width="2" stroke-linecap="round" d="M 177.350 190 " transform="matrix(1, 0, 0, 1, -159, 14)"/>
  <path id="ID0.8365832129493356" fill="none" stroke="#666666" stroke-width="2" stroke-linecap="round" d="M 177.350 190 " transform="matrix(1, 0, 0, 1, -344, -64)"/>
  <path id="ID0.8365832129493356" fill="none" stroke="#666666" stroke-width="2" stroke-linecap="round" d="M 177.350 190 " transform="matrix(1, 0, 0, 1, -145, 6)"/>
  <path id="ID0.8365832129493356" fill="none" stroke="#666666" stroke-width="2" stroke-linecap="round" d="M 177.350 190 " transform="matrix(1, 0, 0, 1, -356, 16)"/>
</svg>