<svg version="1.1" width="56" height="84" viewBox="-1 -1 56 84" xmlns="http://www.w3.org/2000/svg" xmlns:xlink="http://www.w3.org/1999/xlink">
  <defs>
    <linearGradient id="grad_1" y2="1">
      <stop offset="0" stop-color="#003FFF" stop-opacity="1"/>
      <stop offset="1" stop-color="#001966" stop-opacity="1"/>
    </linearGradient>
    <linearGradient id="grad_2" y2="1">
      <stop offset="0" stop-color="#00FFFF" stop-opacity="1"/>
      <stop offset="1" stop-color="#FF0000" stop-opacity="1"/>
    </linearGradient>
    <linearGradient id="grad_3" y2="1">
      <stop offset="0" stop-color="#00FFFF" stop-opacity="1"/>
      <stop offset="1" stop-color="#FF0000" stop-opacity="1"/>
    </linearGradient>
  </defs>
  <!-- Exported by Scratch - http://scratch.mit.edu/ -->
  <path id="ID0.22965509304776788" fill="url(#grad_1)" stroke="url(#grad_2)" stroke-width="2" d="M 229.350 172.400 L 255.250 172.400 L 255.250 189.400 L 229.350 189.400 L 229.350 172.400 Z " transform="matrix(1.9236842393875122, 0, 0, 1.9236842393875122, -438.6, -328.75)"/>
  <g id="ID0.639668230433017" transform="matrix(0.46439439058303833, 0, 0, 0.46439439058303833, 17.4, 5.15)">
    <path id="ID0.8366301110945642" fill="#B2B2B2" stroke="#666666" stroke-width="5" d="M 198.200 15.550 C 210.556 5.197 233.039 4.358 246.550 13.150 C 258.582 20.979 269.590 45.709 259 54.750 C 241.816 68.908 209.079 71.312 191 59.550 C 179.049 51.773 186.970 24.961 198.200 15.550 Z " transform="matrix(0.36934173107147217, 0, 0, 0.36858314275741577, -58.65, 8.5)"/>
    <g id="ID0.3631938132457435">
      <path id="ID0.5572792924940586" fill="#DE8D3C" stroke="#A86918" stroke-width="5" stroke-linecap="round" d="M 234.500 118.850 C 250.235 144.953 255.541 181.720 243.450 209.600 C 236.970 225.071 209.187 220.712 193.456 214.657 C 184.158 211.077 183.396 196.511 183.200 186.550 C 182.793 165.709 179.276 140.706 192.100 124.050 C 200.950 112.562 227.156 106.667 234.500 118.850 Z " transform="matrix(0.4754708707332611, 0, 0, 0.4754708707332611, -78.1, -23.1)"/>
      <path id="ID0.016682670917361975" fill="none" stroke="#A86918" stroke-width="2" stroke-linecap="round" d="M 198.750 111.750 L 199.050 112.050 " transform="matrix(0.3536560535430908, 0, 0, 0.3536560535430908, -56.4, 5.55)"/>
      <path id="ID0.7049690308049321" fill="none" stroke="#A86918" stroke-width="2" stroke-linecap="round" d="M 198.750 104.500 L 199.050 104.800 " transform="matrix(0.3536560535430908, 0, 0, 0.3536560535430908, -56.4, 5.55)"/>
      <path id="ID0.7048652451485395" fill="none" stroke="#A86918" stroke-width="2" stroke-linecap="round" d="M 205.250 112.500 L 205.550 112.800 " transform="matrix(0.3536560535430908, 0, 0, 0.3536560535430908, -56.4, 5.55)"/>
      <path id="ID0.8833530377596617" fill="none" stroke="#A86918" stroke-width="2" stroke-linecap="round" d="M 198.750 118 L 199.050 118.300 " transform="matrix(0.3536560535430908, 0, 0, 0.3536560535430908, -56.4, 5.55)"/>
      <path id="ID0.24868457997217774" fill="none" stroke="#A86918" stroke-width="2" stroke-linecap="round" d="M 202.500 109.750 L 202.800 110.050 " transform="matrix(0.3536560535430908, 0, 0, 0.3536560535430908, -56.4, 5.55)"/>
      <path id="ID0.29956846218556166" fill="none" stroke="#A86918" stroke-width="2" stroke-linecap="round" d="M 205.500 120.500 L 205.800 120.800 " transform="matrix(0.3536560535430908, 0, 0, 0.3536560535430908, -56.4, 5.55)"/>
      <path id="ID0.7811749093234539" fill="none" stroke="#A86918" stroke-width="2" stroke-linecap="round" d="M 201.500 115 L 201.800 115.300 " transform="matrix(0.3536560535430908, 0, 0, 0.3536560535430908, -56.4, 5.55)"/>
      <path id="ID0.6264482238329947" fill="none" stroke="#A86918" stroke-width="2" stroke-linecap="round" d="M 195 117 L 195.300 117.300 " transform="matrix(0.3536560535430908, 0, 0, 0.3536560535430908, -56.4, 5.55)"/>
      <path id="ID0.2810212359763682" fill="none" stroke="#A86918" stroke-width="2" stroke-linecap="round" d="M 201 124.250 L 201.300 124.550 " transform="matrix(0.3536560535430908, 0, 0, 0.3536560535430908, -56.4, 5.55)"/>
      <path id="ID0.31352446181699634" fill="none" stroke="#A86918" stroke-width="2" stroke-linecap="round" d="M 193.750 126.750 L 194.050 127.050 " transform="matrix(0.3536560535430908, 0, 0, 0.3536560535430908, -56.4, 5.55)"/>
      <path id="ID0.27679612999781966" fill="none" stroke="#A86918" stroke-width="2" stroke-linecap="round" d="M 267 135 L 267.300 135.300 " transform="matrix(0.3536560535430908, 0, 0, 0.3536560535430908, -56.4, 5.55)"/>
      <path id="ID0.6569257876835763" fill="none" stroke="#A86918" stroke-width="2" stroke-linecap="round" d="M 260 136.750 L 260.300 137.050 " transform="matrix(0.3536560535430908, 0, 0, 0.3536560535430908, -56.4, 5.55)"/>
      <path id="ID0.3189958641305566" fill="none" stroke="#A86918" stroke-width="2" stroke-linecap="round" d="M 264.250 149.750 L 264.550 150.050 " transform="matrix(0.3536560535430908, 0, 0, 0.3536560535430908, -56.4, 5.55)"/>
      <path id="ID0.8018308924511075" fill="none" stroke="#A86918" stroke-width="2" stroke-linecap="round" d="M 257 147.750 L 257.300 148.050 " transform="matrix(0.3536560535430908, 0, 0, 0.3536560535430908, -56.4, 5.55)"/>
      <path id="ID0.7024056790396571" fill="none" stroke="#A86918" stroke-width="2" stroke-linecap="round" d="M 265 154.250 L 265.300 154.550 " transform="matrix(0.3536560535430908, 0, 0, 0.3536560535430908, -56.4, 5.55)"/>
      <path id="ID0.7216222900897264" fill="none" stroke="#A86918" stroke-width="2" stroke-linecap="round" d="M 266.250 143 L 266.550 143.300 " transform="matrix(0.3536560535430908, 0, 0, 0.3536560535430908, -56.4, 5.55)"/>
    </g>
    <path id="ID0.9350994252599776" fill="#B2B2B2" stroke="#666666" stroke-width="5" stroke-linecap="round" d="M 166 93.500 L 238.500 91.500 L 260 122.500 L 160.500 122.500 L 166 93.500 Z " transform="matrix(0.34458795189857483, 0, 0, 0.2374396175146103, -46.65, 13.2)"/>
    <g id="ID0.06357535580173135">
      <path id="ID0.9293448464013636" fill="#B2B2B2" stroke="#666666" stroke-width="5" stroke-linecap="round" d="M 186 36.500 L 278 17.500 L 260 81.500 L 189 84 L 186 36.500 Z " transform="matrix(0.34458795189857483, 0, 0, 0.1275138556957245, -54.35, 24.5)"/>
      <path id="ID0.7479636957868934" fill="none" stroke="#666666" stroke-width="5" stroke-linecap="round" d="M 264 71.500 L 256.500 93 " transform="matrix(0.3536560535430908, 0, 0, 0.1899263858795166, -56.4, 15.05)"/>
      <path id="ID0.6136549152433872" fill="none" stroke="#666666" stroke-width="5" stroke-linecap="round" d="M 254.500 71.500 L 246 93.500 " transform="matrix(0.3536560535430908, 0, 0, 0.1899263858795166, -56.4, 15.05)"/>
      <path id="ID0.06584620848298073" fill="none" stroke="#666666" stroke-width="5" stroke-linecap="round" d="M 245 75 L 237.500 96.500 " transform="matrix(0.3536560535430908, 0, 0, 0.1899263858795166, -56.4, 15.05)"/>
    </g>
    <path id="ID0.015420790296047926" fill="none" stroke="#666666" stroke-width="5" stroke-linecap="round" d="M 255.500 63 L 260 74.500 " transform="matrix(0.3536560535430908, 0, 0, 0.3536560535430908, -56.4, -2.3)"/>
    <path id="ID0.9947405806742609" fill="none" stroke="#666666" stroke-width="5" stroke-linecap="round" d="M 249 65.500 L 252.500 76.500 " transform="matrix(0.3536560535430908, 0, 0, 0.3536560535430908, -56.4, -2.3)"/>
    <path id="ID0.2647411753423512" fill="none" stroke="#666666" stroke-width="5" stroke-linecap="round" d="M 240.500 69 L 244 79.500 " transform="matrix(0.3536560535430908, 0, 0, 0.3536560535430908, -56.4, -2.3)"/>
    <path id="ID0.559016996063292" fill="none" stroke="#660000" stroke-width="5" stroke-linecap="round" d="M 162 33.500 C 162 33.500 168.250 30.700 171.500 29.500 C 173.100 28.850 174.750 28.300 176.500 28 C 179.950 27.300 183.450 26.650 187 26.500 C 190.800 26.300 194.650 26.500 198.500 27 C 200.200 27.200 201.850 27.800 203.500 28.500 C 205.050 29.150 206.450 30.200 208 31 C 210.100 32.050 212.350 32.900 214.500 34 C 216.550 35.050 220.500 37.500 220.500 37.500 C 221.500 35.500 219.342 32.342 218 31 C 216.823 29.823 215.588 28.501 214 28 C 212.254 27.448 210.324 28.166 208.500 28 C 206.646 27.831 204.819 27.395 203 27 C 200.988 26.563 198.983 26.055 197 25.500 C 194.819 24.889 192.702 24.029 190.500 23.500 C 188.530 23.027 186.465 22.991 184.500 22.500 C 182.457 21.989 180.516 21.111 178.500 20.500 C 175.020 19.445 171.547 18.301 168 17.500 C 166.368 17.131 163 17 163 17 " transform="matrix(0.3536560535430908, 0, 0, 0.3536560535430908, -56.4, -2.3)"/>
    <path id="ID0.6662429538555443" fill="none" stroke="#660000" stroke-width="5" stroke-linecap="round" d="M 173 42.500 C 173 42.500 170.150 41.100 170.500 40 C 170.900 38.350 173.050 37.900 174.500 37 C 177.750 34.900 180.750 32 184.500 31 C 189.300 29.650 194.450 30 199.500 30 C 201.500 30 203.450 30.750 205.500 31 C 207.950 31.250 213 31.500 213 31.500 C 211 32.500 206.353 31.587 204 31.500 C 201.831 31.420 199.569 31.342 197.500 32 C 195.784 32.546 194.510 34.018 193 35 C 191.180 36.183 189.362 37.383 187.500 38.500 C 186.030 39.382 184.123 39.705 183 41 C 181.826 42.355 181.352 44.242 181 46 C 180.833 46.833 181.500 48.500 181.500 48.500 " transform="matrix(0.3536560535430908, 0, 0, 0.3536560535430908, -56.4, -2.3)"/>
    <path id="ID0.49239646596834064" fill="none" stroke="#660000" stroke-width="5" stroke-linecap="round" d="M 184.500 15 C 184.500 15 185.750 14 186.500 14 C 188.500 13.850 190.500 14.100 192.500 14.500 C 194.200 14.800 195.900 15.250 197.500 16 C 200.600 17.400 203.450 19.400 206.500 21 C 208.250 21.900 210.600 22 212 23.500 C 213.150 24.750 213.650 26.750 213.500 28.500 C 213.300 30.500 211 34 211 34 C 214 31.500 216.543 27.606 217.500 25.500 C 218.219 23.917 218.659 22.205 219 20.500 C 219.328 18.859 220.171 17.033 219.500 15.500 C 218.833 13.975 216.989 13.245 215.500 12.500 C 213.945 11.723 212.177 11.457 210.500 11 C 210.081 10.886 210 11 210 11 " transform="matrix(0.3536560535430908, 0, 0, 0.3536560535430908, -56.4, -2.3)"/>
    <path id="ID0.5315802698023617" fill="none" stroke="#660000" stroke-width="5" stroke-linecap="round" d="M 212.500 35.500 C 212.500 35.500 208.246 33.793 206 33.500 C 204.341 33.284 202.542 33.351 201 34 C 199.250 34.737 198.102 36.481 196.500 37.500 C 194.426 38.820 192.310 40.160 190 41 C 186.774 42.173 183.242 42.372 180 43.500 C 179.190 43.782 178.500 45 178.500 45 " transform="matrix(0.3536560535430908, 0, 0, 0.3536560535430908, -56.4, -2.3)"/>
  </g>
  <path id="ID0.9680157378315926" fill="#000000" stroke="url(#grad_3)" stroke-width="3" d="M 213.050 193.050 L 266.400 193.050 L 266.400 217.500 L 213.050 217.500 L 213.050 193.050 Z " transform="matrix(0.9503105282783508, 0, 0, 0.8397085666656494, -200.5, -130.35)"/>
  <text id="ID0.3952616755850613" fill="#FFFFFF" x="223.1" y="205.29999999999998" text-anchor="start" font-family="Helvetica" font-size="22" transform="matrix(0.19227556884288788, 0, 0, 0.19227556884288788, 7.15, 39)">KNIGHTLY POTATO</text>
  <path id="ID0.8365832129493356" fill="none" stroke="#666666" stroke-width="2" stroke-linecap="round" d="M 177.350 190 " transform="matrix(1, 0, 0, 1, -606.5, -141)"/>
  <path id="ID0.8365832129493356" fill="none" stroke="#666666" stroke-width="2" stroke-linecap="round" d="M 177.350 190 " transform="matrix(1, 0, 0, 1, -304, -234)"/>
  <path id="ID0.8365832129493356" fill="none" stroke="#666666" stroke-width="2" stroke-linecap="round" d="M 177.350 190 " transform="matrix(1, 0, 0, 1, -462, -300)"/>
  <path id="ID0.8365832129493356" fill="none" stroke="#666666" stroke-width="2" stroke-linecap="round" d="M 177.350 190 " transform="matrix(1, 0, 0, 1, -423, -141)"/>
  <path id="ID0.8365832129493356" fill="none" stroke="#666666" stroke-width="2" stroke-linecap="round" d="M 177.350 190 " transform="matrix(1, 0, 0, 1, -308, -344)"/>
  <path id="ID0.8365832129493356" fill="none" stroke="#666666" stroke-width="2" stroke-linecap="round" d="M 177.350 190 " transform="matrix(1, 0, 0, 1, -117, -93)"/>
  <path id="ID0.8365832129493356" fill="none" stroke="#666666" stroke-width="2" stroke-linecap="round" d="M 177.350 190 " transform="matrix(1, 0, 0, 1, -302, -171)"/>
  <path id="ID0.8365832129493356" fill="none" stroke="#666666" stroke-width="2" stroke-linecap="round" d="M 177.350 190 " transform="matrix(1, 0, 0, 1, -103, -101)"/>
  <path id="ID0.8365832129493356" fill="none" stroke="#666666" stroke-width="2" stroke-linecap="round" d="M 177.350 190 " transform="matrix(1, 0, 0, 1, -314, -91)"/>
  <path id="ID0.8365832129493356" fill="none" stroke="#666666" stroke-width="2" stroke-linecap="round" d="M 177.350 190 " transform="matrix(1, 0, 0, 1, -317, -225)"/>
  <path id="ID0.8365832129493356" fill="none" stroke="#666666" stroke-width="2" stroke-linecap="round" d="M 177.350 190 " transform="matrix(1, 0, 0, 1, -475, -291)"/>
  <path id="ID0.8365832129493356" fill="none" stroke="#666666" stroke-width="2" stroke-linecap="round" d="M 177.350 190 " transform="matrix(1, 0, 0, 1, -436, -132)"/>
  <path id="ID0.8365832129493356" fill="none" stroke="#666666" stroke-width="2" stroke-linecap="round" d="M 177.350 190 " transform="matrix(1, 0, 0, 1, -321, -335)"/>
  <path id="ID0.8365832129493356" fill="none" stroke="#666666" stroke-width="2" stroke-linecap="round" d="M 177.350 190 " transform="matrix(1, 0, 0, 1, -130, -84)"/>
  <path id="ID0.8365832129493356" fill="none" stroke="#666666" stroke-width="2" stroke-linecap="round" d="M 177.350 190 " transform="matrix(1, 0, 0, 1, -315, -162)"/>
  <path id="ID0.8365832129493356" fill="none" stroke="#666666" stroke-width="2" stroke-linecap="round" d="M 177.350 190 " transform="matrix(1, 0, 0, 1, -116, -92)"/>
  <path id="ID0.8365832129493356" fill="none" stroke="#666666" stroke-width="2" stroke-linecap="round" d="M 177.350 190 " transform="matrix(1, 0, 0, 1, -327, -82)"/>
</svg>