<svg version="1.1" width="88" height="254" viewBox="-1 -1 88 254" xmlns="http://www.w3.org/2000/svg" xmlns:xlink="http://www.w3.org/1999/xlink">
  <defs>
    <linearGradient id="grad_1" y2="1">
      <stop offset="0" stop-color="#003FFF" stop-opacity="1"/>
      <stop offset="1" stop-color="#001966" stop-opacity="1"/>
    </linearGradient>
    <linearGradient id="grad_2" y2="1">
      <stop offset="0" stop-color="#00FFFF" stop-opacity="1"/>
      <stop offset="1" stop-color="#FF0000" stop-opacity="1"/>
    </linearGradient>
    <linearGradient id="grad_3" y2="1">
      <stop offset="0" stop-color="#00FFFF" stop-opacity="1"/>
      <stop offset="1" stop-color="#FF0000" stop-opacity="1"/>
    </linearGradient>
  </defs>
  <!-- Exported by Scratch - http://scratch.mit.edu/ -->
  <path id="ID0.22965509304776788" fill="url(#grad_1)" stroke="url(#grad_2)" stroke-width="2" d="M 229.350 172.400 L 255.250 172.400 L 255.250 189.400 L 229.350 189.400 L 229.350 172.400 Z " transform="matrix(1.9236842393875122, 0, 0, 1.9236842393875122, -438.6, -328.75)"/>
  <g id="ID0.7658414584584534" transform="matrix(0.16218891739845276, -0.05268796160817146, 0.05268796160817146, 0.16218891739845276, 14.75, 7.8)">
    <path id="ID0.6069741295650601" fill="#003FFF" stroke="#000000" stroke-width="2" d="M 220 212.500 L 260 212.500 L 260 278 L 254.900 282.550 L 249.400 284.550 L 243.900 285.550 L 235.900 285.550 L 229.900 284.550 L 224.400 281.550 L 220 278 L 220 212.500 Z " transform="matrix(1, 0, 0, 1.3077948093414307, -196.45, -211.45)"/>
    <path id="ID0.3618726124987006" fill="none" stroke="#000000" stroke-width="2" stroke-linecap="round" d="M 260.850 213.500 C 260.850 213.500 274.820 232.791 280.950 242.950 C 282.479 245.509 282.440 245.037 280.950 247.450 C 274.991 257.101 266.313 266.718 260.950 277.450 C 259.575 280.219 262.050 282.950 262.050 282.950 " transform="matrix(-1, 0, 0, 1, 283.85, -146.15)"/>
    <path id="ID0.6990157160907984" fill="none" stroke="#000000" stroke-width="2" stroke-linecap="round" d="M 220 276 C 220 276 220.776 339.869 221.100 371.750 C 221.181 379.720 222.153 374.712 221.100 375.050 C 217.847 376.052 212.200 375.050 212.200 375.050 " transform="matrix(1, 0, 0, 1, -196, -125.65)"/>
    <g id="ID0.8066711132414639">
      <path id="ID0.5763716981746256" fill="#CC0000" stroke="#000000" stroke-width="2" d="M 228.500 148 C 239.122 148 248.747 152.118 255.716 158.771 C 262.686 165.423 267 174.611 267 184.750 C 267 194.889 262.686 204.077 255.716 210.729 C 248.747 217.382 239.122 221.500 228.500 221.500 C 217.878 221.500 208.253 217.382 201.284 210.729 C 194.314 204.077 190 194.889 190 184.750 C 190 174.611 194.314 165.423 201.284 158.771 C 208.253 152.118 217.878 148 228.500 148 Z " transform="matrix(0.8929008841514587, 0, 0, 0.9679991602897644, -161.15, -141.15)"/>
      <path id="ID0.33080768724903464" fill="none" stroke="#003FFF" stroke-width="2" stroke-linecap="round" d="M 230 87.650 L 230 163 " transform="matrix(0.8929008841514587, 0, 0, 0.8929008841514587, -171.5, -75)"/>
      <path id="ID0.29563110787421465" fill="none" stroke="#003FFF" stroke-width="2" stroke-linecap="round" d="M 247 87 L 248 164 " transform="matrix(0.8929008841514587, 0, 0, 0.8929008841514587, -171.5, -75)"/>
      <path id="ID0.3557395921088755" fill="none" stroke="#003FFF" stroke-width="2" stroke-linecap="round" d="M 223 90.650 L 224 160.650 " transform="matrix(0.8929008841514587, 0, 0, 0.8929008841514587, -171.5, -75)"/>
      <path id="ID0.45717029785737395" fill="none" stroke="#003FFF" stroke-width="2" stroke-linecap="round" d="M 254 89 L 255 163 " transform="matrix(0.8929008841514587, 0, 0, 0.8929008841514587, -171.5, -75)"/>
      <path id="ID0.5075077214278281" fill="none" stroke="#000000" stroke-width="2" stroke-linecap="round" d="M 212 99.650 L 212 153 " transform="matrix(0.8929008841514587, 0, 0, 0.8929008841514587, -171.5, -75)"/>
      <path id="ID0.07860057288780808" fill="none" stroke="#000000" stroke-width="2" stroke-linecap="round" d="M 269 100 L 270 152 " transform="matrix(0.8929008841514587, 0, 0, 0.8929008841514587, -171.5, -75)"/>
    </g>
    <g id="ID0.8066711132414639">
      <path id="ID0.5763716981746256" fill="none" stroke="#000000" stroke-width="2" d="M 228.500 148 C 239.122 148 248.747 152.118 255.716 158.771 C 262.686 165.423 267 174.611 267 184.750 C 267 194.889 262.686 204.077 255.716 210.729 C 248.747 217.382 239.122 221.500 228.500 221.500 C 217.878 221.500 208.253 217.382 201.284 210.729 C 194.314 204.077 190 194.889 190 184.750 C 190 174.611 194.314 165.423 201.284 158.771 C 208.253 152.118 217.878 148 228.500 148 Z " transform="matrix(-0.012979775667190552, 0.9306499361991882, -0.9525414705276489, -0.013285096734762192, 221.2, -172.7)"/>
      <path id="ID0.33080768724903464" fill="none" stroke="#003FFF" stroke-width="2" stroke-linecap="round" d="M 230 87.650 L 230 163 " transform="matrix(-0.012979775667190552, 0.9306499361991882, -0.8786423802375793, -0.012254426255822182, 156.25, -184.4)"/>
      <path id="ID0.29563110787421465" fill="none" stroke="#003FFF" stroke-width="2" stroke-linecap="round" d="M 247 87 L 248 164 " transform="matrix(-0.012979775667190552, 0.9306499361991882, -0.8786423802375793, -0.012254426255822182, 156.25, -184.4)"/>
      <path id="ID0.3557395921088755" fill="none" stroke="#003FFF" stroke-width="2" stroke-linecap="round" d="M 223 90.650 L 224 160.650 " transform="matrix(-0.012979775667190552, 0.9306499361991882, -0.8786423802375793, -0.012254426255822182, 156.25, -184.4)"/>
      <path id="ID0.45717029785737395" fill="none" stroke="#003FFF" stroke-width="2" stroke-linecap="round" d="M 254 89 L 255 163 " transform="matrix(-0.012979775667190552, 0.9306499361991882, -0.8786423802375793, -0.012254426255822182, 156.25, -184.4)"/>
      <path id="ID0.5075077214278281" fill="none" stroke="#000000" stroke-width="2" stroke-linecap="round" d="M 212 99.650 L 212 153 " transform="matrix(-0.012979775667190552, 0.9306499361991882, -0.8786423802375793, -0.012254426255822182, 156.25, -184.4)"/>
      <path id="ID0.07860057288780808" fill="none" stroke="#000000" stroke-width="2" stroke-linecap="round" d="M 269 100 L 270 152 " transform="matrix(-0.012979775667190552, 0.9306499361991882, -0.8786423802375793, -0.012254426255822182, 156.25, -184.4)"/>
    </g>
    <path id="ID0.8970635286532342" fill="#000000" stroke="#000000" stroke-width="2" d="M 225.500 173.600 C 228.530 174.709 233.165 174.703 234.350 177.850 C 235.480 180.848 232.874 184.442 230.540 186.686 C 228.177 188.958 224.937 190.350 221.350 190.350 C 217.763 190.350 214.513 188.949 212.160 186.686 C 209.807 184.424 208.350 181.299 208.350 177.850 C 208.350 174.401 209.073 169.865 212.160 169.014 C 216.626 167.785 221.124 171.760 225.500 173.600 Z " transform="matrix(0.8929008841514587, 0, 0, 0.8929008841514587, -170.85, -126)"/>
    <path id="ID0.8970635286532342" fill="#000000" stroke="#000000" stroke-width="2" d="M 216.250 173.350 C 220.916 171.405 225.741 167.771 230.540 169.014 C 233.640 169.820 234.350 174.462 234.350 177.850 C 234.350 181.238 232.893 184.424 230.540 186.686 C 228.187 188.949 224.937 190.350 221.350 190.350 C 217.763 190.350 214.513 188.949 212.160 186.686 C 209.807 184.424 207.429 180.917 208.350 177.850 C 209.237 174.923 213.477 174.367 216.250 173.350 Z " transform="matrix(0.8929008841514587, 0, 0, 0.8929008841514587, -140.1, -126.05)"/>
    <g id="ID0.6260323864407837">
      <path id="ID0.570734029635787" fill="#FFFFFF" stroke="#000000" stroke-width="2" stroke-linecap="round" d="M 253.100 197.750 C 257.585 200.107 261.064 203.944 264.600 207.750 C 265.484 208.701 265.160 208.752 264.600 209.250 C 262.565 210.995 260.217 212.384 257.600 213.250 C 252.270 215.011 246.997 216.791 241.100 216.750 C 235.515 216.708 229.902 215.059 224.798 212.807 C 221.688 211.425 218.870 209.266 216.600 206.750 C 216.032 206.120 217.398 205.379 218.100 204.750 C 220.906 202.234 224.025 199.381 227.600 197.750 C 231.904 195.788 236.468 194.380 241.100 194.250 C 245.272 194.134 249.548 195.489 253.100 197.750 Z " transform="matrix(0.8929008841514587, 0, 0, 0.8929008841514587, -173.65, -120.7)"/>
      <path id="ID0.8104396956041455" fill="none" stroke="#000000" stroke-width="2" stroke-linecap="round" d="M 224.850 198.500 L 225.150 213.850 " transform="matrix(0.8929008841514587, 0, 0, 0.8929008841514587, -172.3, -121.15)"/>
      <path id="ID0.09764078725129366" fill="none" stroke="#000000" stroke-width="2" stroke-linecap="round" d="M 234.650 196.350 L 234.850 215.500 " transform="matrix(0.8929008841514587, 0, 0, 0.8929008841514587, -172.3, -121.15)"/>
      <path id="ID0.38310798816382885" fill="none" stroke="#000000" stroke-width="2" stroke-linecap="round" d="M 246.150 196.850 L 245.850 216.500 L 248.150 216.350 " transform="matrix(0.8929008841514587, 0, 0, 0.8929008841514587, -172.3, -121.15)"/>
      <path id="ID0.3697171122767031" fill="none" stroke="#000000" stroke-width="2" stroke-linecap="round" d="M 256.850 201.500 L 256.650 213.850 " transform="matrix(0.8929008841514587, 0, 0, 0.8929008841514587, -172.3, -121.15)"/>
    </g>
    <path id="ID0.8970635286532342" fill="#000000" stroke="#000000" stroke-width="2" d="M 221.500 170.500 C 223.275 170.525 225.067 171.398 226.350 172.600 C 228.054 174.207 229.482 176.217 230.200 178.500 C 231.048 181.109 232.433 186.115 230.540 186.686 C 228.061 187.432 224.947 181.428 221.500 181.300 C 217.894 181.428 215.019 187.520 212.160 186.686 C 209.898 186.026 211.446 181.141 212.100 178.500 C 212.691 176.059 214.468 174.168 216.300 172.600 C 217.755 171.353 219.652 170.525 221.500 170.500 Z " transform="matrix(0.4819546639919281, 0, 0, 0.4819546639919281, -64.5, -42.05)"/>
    <path id="ID0.6990157160907984" fill="none" stroke="#000000" stroke-width="2" stroke-linecap="round" d="M 220 276 C 220 276 220.776 339.869 221.100 371.750 C 221.181 379.720 222.153 374.712 221.100 375.050 C 217.847 376.052 212.200 375.050 212.200 375.050 " transform="matrix(-1, 0, 0, 1, 283.9, -124.5)"/>
    <path id="ID0.3618726124987006" fill="none" stroke="#000000" stroke-width="2" stroke-linecap="round" d="M 260.850 213.500 C 260.850 213.500 274.820 232.791 280.950 242.950 C 282.479 245.509 282.440 245.037 280.950 247.450 C 274.991 257.101 266.313 266.718 260.950 277.450 C 259.575 280.219 262.050 282.950 262.050 282.950 " transform="matrix(1, 0, 0, 1, -196.45, -146.9)"/>
  </g>
  <path id="ID0.9680157378315926" fill="#000000" stroke="url(#grad_3)" stroke-width="3" d="M 213.050 193.050 L 266.400 193.050 L 266.400 217.500 L 213.050 217.500 L 213.050 193.050 Z " transform="matrix(0.9503105282783508, 0, 0, 0.8397085666656494, -200.5, -130.35)"/>
  <text id="ID0.3952616755850613" fill="#FFFFFF" x="223.1" y="205.29999999999998" text-anchor="start" font-family="Helvetica" font-size="22" transform="matrix(0.3119584321975708, 0, 0, 0.3119584321975708, 4, 39.55)">PLAID SKULL</text>
  <path id="ID0.8365832129493356" fill="none" stroke="#666666" stroke-width="2" stroke-linecap="round" d="M 177.350 190 " transform="matrix(1, 0, 0, 1, -606.5, -141)"/>
  <path id="ID0.8365832129493356" fill="none" stroke="#666666" stroke-width="2" stroke-linecap="round" d="M 177.350 190 " transform="matrix(1, 0, 0, 1, -304, -234)"/>
  <path id="ID0.8365832129493356" fill="none" stroke="#666666" stroke-width="2" stroke-linecap="round" d="M 177.350 190 " transform="matrix(1, 0, 0, 1, -462, -300)"/>
  <path id="ID0.8365832129493356" fill="none" stroke="#666666" stroke-width="2" stroke-linecap="round" d="M 177.350 190 " transform="matrix(1, 0, 0, 1, -423, -141)"/>
  <path id="ID0.8365832129493356" fill="none" stroke="#666666" stroke-width="2" stroke-linecap="round" d="M 177.350 190 " transform="matrix(1, 0, 0, 1, -308, -344)"/>
  <path id="ID0.8365832129493356" fill="none" stroke="#666666" stroke-width="2" stroke-linecap="round" d="M 177.350 190 " transform="matrix(1, 0, 0, 1, -117, -93)"/>
  <path id="ID0.8365832129493356" fill="none" stroke="#666666" stroke-width="2" stroke-linecap="round" d="M 177.350 190 " transform="matrix(1, 0, 0, 1, -302, -171)"/>
  <path id="ID0.8365832129493356" fill="none" stroke="#666666" stroke-width="2" stroke-linecap="round" d="M 177.350 190 " transform="matrix(1, 0, 0, 1, -103, -101)"/>
  <path id="ID0.8365832129493356" fill="none" stroke="#666666" stroke-width="2" stroke-linecap="round" d="M 177.350 190 " transform="matrix(1, 0, 0, 1, -314, -91)"/>
</svg>