<svg version="1.1" width="55" height="54" viewBox="-1 -1 55 54" xmlns="http://www.w3.org/2000/svg" xmlns:xlink="http://www.w3.org/1999/xlink">
  <defs>
    <linearGradient id="grad_1" y2="1">
      <stop offset="0" stop-color="#003FFF" stop-opacity="1"/>
      <stop offset="1" stop-color="#001966" stop-opacity="1"/>
    </linearGradient>
    <linearGradient id="grad_2" y2="1">
      <stop offset="0" stop-color="#00FFFF" stop-opacity="1"/>
      <stop offset="1" stop-color="#FF0000" stop-opacity="1"/>
    </linearGradient>
    <linearGradient id="grad_3" y2="1">
      <stop offset="0" stop-color="#00FFFF" stop-opacity="1"/>
      <stop offset="1" stop-color="#FF0000" stop-opacity="1"/>
    </linearGradient>
  </defs>
  <!-- Exported by Scratch - http://scratch.mit.edu/ -->
  <path id="ID0.22965509304776788" fill="url(#grad_1)" stroke="url(#grad_2)" stroke-width="2" d="M 229.350 172.400 L 255.250 172.400 L 255.250 189.400 L 229.350 189.400 L 229.350 172.400 Z " transform="matrix(1.9236842393875122, 0, 0, 1.9236842393875122, -438.6, -328.75)"/>
  <g id="ID0.28619488701224327">
    <g id="ID0.8552954299375415">
      <path id="ID0.41049800580367446" fill="#000000" stroke="#00FF55" stroke-width="2" stroke-linecap="round" d="M 255.750 148.100 L 219 160.500 L 253.500 176 L 290.500 162.500 L 255.750 148.100 Z " transform="matrix(-0.4259483218193054, -0.07070396840572357, -0.0859600380063057, 0.5178568363189697, 150.9, -51.9)"/>
      <path id="ID0.3551975656300783" fill="#000000" stroke="#00FF55" stroke-width="2" stroke-linecap="round" d="M 218.250 160.900 L 252.750 176.500 L 253 212.700 L 216.250 197.200 L 218.250 160.900 Z " transform="matrix(-0.4259483218193054, -0.07070396840572357, -0.0859600380063057, 0.5178568363189697, 150.9, -51.9)"/>
      <path id="ID0.22761756414547563" fill="#000000" stroke="#00FF55" stroke-width="2" stroke-linecap="round" d="M 252.750 175.500 L 290.500 162.500 L 290.250 202.700 L 254 212.700 L 252.750 175.500 Z " transform="matrix(-0.4259483218193054, -0.07070396840572357, -0.0859600380063057, 0.5178568363189697, 150.9, -51.9)"/>
    </g>
    <path id="ID0.9655489576980472" fill="none" stroke="#000000" stroke-width="2" stroke-linecap="round" d="M 211.500 186.250 L 239.750 197.500 " transform="matrix(-0.4259483218193054, -0.07070396840572357, -0.07070396840572357, 0.4259483218193054, 144.85, -36)"/>
    <path id="ID0.8383444133214653" fill="none" stroke="#00FF55" stroke-width="2" stroke-linecap="round" d="M 227.750 160.250 L 226.950 187.750 " transform="matrix(0.6801836490631104, 0.11290497332811356, -0.11290497332811356, 0.6801836490631104, -119.05, -119.5)"/>
    <path id="ID0.9951706202700734" fill="none" stroke="#00FF55" stroke-width="2" stroke-linecap="round" d="M 236.650 163.350 L 235.850 190.850 " transform="matrix(0.6801836490631104, 0.11290497332811356, -0.11290497332811356, 0.6801836490631104, -119.05, -119.5)"/>
    <path id="ID0.6341423019766808" fill="none" stroke="#00FF55" stroke-width="2" stroke-linecap="round" d="M 245.250 175 L 265.550 164.450 " transform="matrix(0.6801836490631104, 0.11290497332811356, -0.11290497332811356, 0.6801836490631104, -119.05, -119.5)"/>
    <path id="ID0.3360525486059487" fill="none" stroke="#00FF55" stroke-width="2" stroke-linecap="round" d="M 244.450 186.650 L 265.550 176.100 " transform="matrix(0.6801836490631104, 0.11290497332811356, -0.11290497332811356, 0.6801836490631104, -119.05, -119.5)"/>
    <path id="ID0.2048395606689155" fill="none" stroke="#00FF55" stroke-width="2" stroke-linecap="round" d="M 254.700 151.650 L 237.450 162.150 " transform="matrix(0.6801836490631104, 0.11290497332811356, -0.11290497332811356, 0.6801836490631104, -119.05, -119.5)"/>
    <path id="ID0.009745481889694929" fill="none" stroke="#00FF55" stroke-width="2" stroke-linecap="round" d="M 228 158.850 L 246.100 148.050 " transform="matrix(0.6801836490631104, 0.11290497332811356, -0.11290497332811356, 0.6801836490631104, -119.05, -119.5)"/>
    <path id="ID0.31273932894691825" fill="none" stroke="#00FF55" stroke-width="2" stroke-linecap="round" d="M 221.950 166.950 L 243.050 173.900 " transform="matrix(0.6801836490631104, 0.11290497332811356, -0.11290497332811356, 0.6801836490631104, -119.05, -119.5)"/>
    <path id="ID0.39500094344839454" fill="none" stroke="#00FF55" stroke-width="2" stroke-linecap="round" d="M 220.850 176.950 L 243.050 185.250 " transform="matrix(0.6801836490631104, 0.11290497332811356, -0.11290497332811356, 0.6801836490631104, -119.05, -119.5)"/>
    <path id="ID0.31194655830040574" fill="none" stroke="#00FF55" stroke-width="2" stroke-linecap="round" d="M 251.650 163.600 L 251.950 189.150 " transform="matrix(0.6801836490631104, 0.11290497332811356, -0.11290497332811356, 0.6801836490631104, -119.05, -119.5)"/>
    <path id="ID0.3169479933567345" fill="none" stroke="#00FF55" stroke-width="2" stroke-linecap="round" d="M 259.700 158.900 L 259.450 185.550 " transform="matrix(0.6801836490631104, 0.11290497332811356, -0.11290497332811356, 0.6801836490631104, -119.05, -119.5)"/>
    <path id="ID0.5133769060485065" fill="none" stroke="#00FF55" stroke-width="2" stroke-linecap="round" d="M 228.600 153.600 L 250.850 162.200 " transform="matrix(0.6801836490631104, 0.11290497332811356, -0.11290497332811356, 0.6801836490631104, -119.05, -119.5)"/>
    <path id="ID0.7448801780119538" fill="none" stroke="#00FF55" stroke-width="2" stroke-linecap="round" d="M 236.950 148.350 L 258.350 158.050 " transform="matrix(0.6801836490631104, 0.11290497332811356, -0.11290497332811356, 0.6801836490631104, -119.05, -119.5)"/>
    <path id="ID0.5875303484499454" fill="none" stroke="#FFFFFF" stroke-width="2" stroke-linecap="round" d="M 212 166.500 L 240.750 179.250 " transform="matrix(-0.4259483218193054, -0.07070396840572357, -0.07070396840572357, 0.4259483218193054, 144.85, -36)"/>
    <path id="ID0.2296458501368761" fill="#FFFFFF" stroke="#FFFFFF" stroke-width="2" stroke-linecap="round" d="M 215.250 168.500 C 214.711 169.595 215.170 170.829 215.250 172 C 215.295 172.664 215.250 173.334 215.250 174 C 215.250 174.666 214.779 175.529 215.250 176 C 215.721 176.471 216.675 176.336 217.250 176 C 217.830 175.662 218.077 174.899 218.250 174.250 C 218.422 173.606 218.250 172.916 218.250 172.250 C 218.250 171.584 218.422 170.894 218.250 170.250 C 218.077 169.601 217.830 168.838 217.250 168.500 C 216.675 168.164 215.748 168.211 215.250 168.500 Z " transform="matrix(-0.4259483218193054, -0.07070396840572357, -0.07070396840572357, 0.4259483218193054, 145.35, -35.9)"/>
    <path id="ID0.2296458501368761" fill="#FFFFFF" stroke="#FFFFFF" stroke-width="2" stroke-linecap="round" d="M 215.250 168.500 C 214.711 169.595 215.170 170.829 215.250 172 C 215.295 172.664 215.250 173.334 215.250 174 C 215.250 174.666 214.779 175.529 215.250 176 C 215.721 176.471 216.675 176.336 217.250 176 C 217.830 175.662 218.077 174.899 218.250 174.250 C 218.422 173.606 218.250 172.916 218.250 172.250 C 218.250 171.584 218.422 170.894 218.250 170.250 C 218.077 169.601 217.830 168.838 217.250 168.500 C 216.675 168.164 215.748 168.211 215.250 168.500 Z " transform="matrix(-0.4259483218193054, -0.07070396840572357, -0.07070396840572357, 0.4259483218193054, 136.35, -33.65)"/>
  </g>
  <path id="ID0.9680157378315926" fill="#000000" stroke="url(#grad_3)" stroke-width="3" d="M 213.050 193.050 L 266.400 193.050 L 266.400 217.500 L 213.050 217.500 L 213.050 193.050 Z " transform="matrix(0.9503105282783508, 0, 0, 0.8397085666656494, -200.5, -130.35)"/>
  <text id="ID0.3952616755850613" fill="#FFFFFF" x="223.1" y="205.29999999999998" text-anchor="start" font-family="Helvetica" font-size="22" transform="matrix(0.243215411901474, 0, 0, 0.243215411901474, 5.8, 39.15)">RETRO DA BOX</text>
  <path id="ID0.8365832129493356" fill="none" stroke="#666666" stroke-width="2" stroke-linecap="round" d="M 177.350 190 " transform="matrix(1, 0, 0, 1, -606.5, -141)"/>
  <path id="ID0.8365832129493356" fill="none" stroke="#666666" stroke-width="2" stroke-linecap="round" d="M 177.350 190 " transform="matrix(1, 0, 0, 1, -304, -234)"/>
  <path id="ID0.8365832129493356" fill="none" stroke="#666666" stroke-width="2" stroke-linecap="round" d="M 177.350 190 " transform="matrix(1, 0, 0, 1, -462, -300)"/>
  <path id="ID0.8365832129493356" fill="none" stroke="#666666" stroke-width="2" stroke-linecap="round" d="M 177.350 190 " transform="matrix(1, 0, 0, 1, -423, -141)"/>
  <path id="ID0.8365832129493356" fill="none" stroke="#666666" stroke-width="2" stroke-linecap="round" d="M 177.350 190 " transform="matrix(1, 0, 0, 1, -308, -344)"/>
  <path id="ID0.8365832129493356" fill="none" stroke="#666666" stroke-width="2" stroke-linecap="round" d="M 177.350 190 " transform="matrix(1, 0, 0, 1, -117, -93)"/>
  <path id="ID0.8365832129493356" fill="none" stroke="#666666" stroke-width="2" stroke-linecap="round" d="M 177.350 190 " transform="matrix(1, 0, 0, 1, -302, -171)"/>
  <path id="ID0.8365832129493356" fill="none" stroke="#666666" stroke-width="2" stroke-linecap="round" d="M 177.350 190 " transform="matrix(1, 0, 0, 1, -103, -101)"/>
  <path id="ID0.8365832129493356" fill="none" stroke="#666666" stroke-width="2" stroke-linecap="round" d="M 177.350 190 " transform="matrix(1, 0, 0, 1, -314, -91)"/>
  <path id="ID0.8365832129493356" fill="none" stroke="#666666" stroke-width="2" stroke-linecap="round" d="M 177.350 190 " transform="matrix(1, 0, 0, 1, -483.5, -141)"/>
  <path id="ID0.8365832129493356" fill="none" stroke="#666666" stroke-width="2" stroke-linecap="round" d="M 177.350 190 " transform="matrix(1, 0, 0, 1, -643.5, -57)"/>
  <path id="ID0.8365832129493356" fill="none" stroke="#666666" stroke-width="2" stroke-linecap="round" d="M 177.350 190 " transform="matrix(1, 0, 0, 1, -341, -150)"/>
  <path id="ID0.8365832129493356" fill="none" stroke="#666666" stroke-width="2" stroke-linecap="round" d="M 177.350 190 " transform="matrix(1, 0, 0, 1, -499, -216)"/>
  <path id="ID0.8365832129493356" fill="none" stroke="#666666" stroke-width="2" stroke-linecap="round" d="M 177.350 190 " transform="matrix(1, 0, 0, 1, -460, -57)"/>
  <path id="ID0.8365832129493356" fill="none" stroke="#666666" stroke-width="2" stroke-linecap="round" d="M 177.350 190 " transform="matrix(1, 0, 0, 1, -345, -260)"/>
  <path id="ID0.8365832129493356" fill="none" stroke="#666666" stroke-width="2" stroke-linecap="round" d="M 177.350 190 " transform="matrix(1, 0, 0, 1, -154, -9)"/>
  <path id="ID0.8365832129493356" fill="none" stroke="#666666" stroke-width="2" stroke-linecap="round" d="M 177.350 190 " transform="matrix(1, 0, 0, 1, -339, -87)"/>
  <path id="ID0.8365832129493356" fill="none" stroke="#666666" stroke-width="2" stroke-linecap="round" d="M 177.350 190 " transform="matrix(1, 0, 0, 1, -140, -17)"/>
  <path id="ID0.8365832129493356" fill="none" stroke="#666666" stroke-width="2" stroke-linecap="round" d="M 177.350 190 " transform="matrix(1, 0, 0, 1, -351, -7)"/>
  <path id="ID0.8365832129493356" fill="none" stroke="#666666" stroke-width="2" stroke-linecap="round" d="M 177.350 190 " transform="matrix(1, 0, 0, 1, -313, -236)"/>
  <path id="ID0.8365832129493356" fill="none" stroke="#666666" stroke-width="2" stroke-linecap="round" d="M 177.350 190 " transform="matrix(1, 0, 0, 1, -471, -302)"/>
  <path id="ID0.8365832129493356" fill="none" stroke="#666666" stroke-width="2" stroke-linecap="round" d="M 177.350 190 " transform="matrix(1, 0, 0, 1, -432, -143)"/>
  <path id="ID0.8365832129493356" fill="none" stroke="#666666" stroke-width="2" stroke-linecap="round" d="M 177.350 190 " transform="matrix(1, 0, 0, 1, -317, -346)"/>
  <path id="ID0.8365832129493356" fill="none" stroke="#666666" stroke-width="2" stroke-linecap="round" d="M 177.350 190 " transform="matrix(1, 0, 0, 1, -126, -95)"/>
  <path id="ID0.8365832129493356" fill="none" stroke="#666666" stroke-width="2" stroke-linecap="round" d="M 177.350 190 " transform="matrix(1, 0, 0, 1, -311, -173)"/>
  <path id="ID0.8365832129493356" fill="none" stroke="#666666" stroke-width="2" stroke-linecap="round" d="M 177.350 190 " transform="matrix(1, 0, 0, 1, -112, -103)"/>
  <path id="ID0.8365832129493356" fill="none" stroke="#666666" stroke-width="2" stroke-linecap="round" d="M 177.350 190 " transform="matrix(1, 0, 0, 1, -323, -93)"/>
</svg>