<svg version="1.1" width="655" height="581" viewBox="-1 -1 655 581" xmlns="http://www.w3.org/2000/svg" xmlns:xlink="http://www.w3.org/1999/xlink">
  <defs>
    <linearGradient id="grad_1" y2="1">
      <stop offset="0" stop-color="#666666" stop-opacity="1"/>
      <stop offset="1" stop-color="#7F7F7F" stop-opacity="1"/>
    </linearGradient>
    <linearGradient id="grad_2" y2="1">
      <stop offset="0" stop-color="#666666" stop-opacity="1"/>
      <stop offset="1" stop-color="#7F7F7F" stop-opacity="1"/>
    </linearGradient>
    <linearGradient id="grad_3" y2="1">
      <stop offset="0" stop-color="#7FFF97" stop-opacity="1"/>
      <stop offset="1" stop-color="#C68DFF" stop-opacity="1"/>
    </linearGradient>
    <linearGradient id="grad_4" y2="1">
      <stop offset="0" stop-color="#666666" stop-opacity="1"/>
      <stop offset="1" stop-color="#7F7F7F" stop-opacity="1"/>
    </linearGradient>
    <linearGradient id="grad_5" y2="1">
      <stop offset="0" stop-color="#666666" stop-opacity="1"/>
      <stop offset="1" stop-color="#7F7F7F" stop-opacity="1"/>
    </linearGradient>
  </defs>
  <!-- Exported by Scratch - http://scratch.mit.edu/ -->
  <path id="ID0.331587637308985" fill="#666666" stroke="none" d="M 397 0 L 459 0 L 459 101 L 397 101 L 397 0 Z " transform="matrix(1, 0, 0, 1, 80, 25)"/>
  <g id="ID0.649569439701736">
    <path id="ID0.013224039692431688" fill="#7F7F7F" stroke="none" d="M 240 176 L 286 176 L 286 245 L 240 245 L 240 176 Z " transform="matrix(1, 0, 0, 1, 80, 25)"/>
    <path id="ID0.43157049221917987" fill="url(#grad_1)" stroke="none" d="M 363 110 L 434 110 L 434 218 L 363 218 L 363 110 Z " transform="matrix(-0.7210184931755066, -2.1675310134887695, 0.3429313004016876, -0.11407441645860672, 396.05, 1194.45)"/>
    <path id="ID0.43157049221917987" fill="url(#grad_2)" stroke="none" d="M 363 110 L 434 110 L 434 218 L 363 218 L 363 110 Z " transform="matrix(-0.7210184931755066, -2.1675310134887695, 0.3429313004016876, -0.11407441645860672, 441.2, 1131.25)"/>
    <path id="ID0.827340776566416" fill="url(#grad_3)" stroke="none" d="M 264.500 87 C 303.263 87 338.388 102.295 363.822 127.006 C 389.256 151.716 405 185.841 405 223.500 C 405 261.159 389.256 295.284 363.822 319.994 C 338.388 344.705 303.263 360 264.500 360 C 225.737 360 190.612 344.705 165.178 319.994 C 139.744 295.284 124 261.159 124 223.500 C 124 185.841 139.744 151.716 165.178 127.006 C 190.612 102.295 225.737 87 264.500 87 Z " transform="matrix(2.3254146575927734, 0, 0, 1.2436033487319946, -287.65, 132.25)"/>
    <path id="ID0.43157049221917987" fill="url(#grad_4)" stroke="none" d="M 363 110 L 434 110 L 434 218 L 363 218 L 363 110 Z " transform="matrix(2.179807424545288, 0.6830062866210938, -0.10806038230657578, 0.3448736071586609, -350.05, -68.1)"/>
    <path id="ID0.7033835165202618" fill="url(#grad_5)" stroke="none" d="M 145 33 L 265 33 L 265 210 L 145 210 L 145 33 Z " transform="matrix(0.9481695294380188, 0.31776490807533264, -0.4214226007461548, 1.257470726966858, 396.9, -86.6)"/>
    <path id="ID0.8254298348911107" fill="#666666" stroke="none" d="M 137 152 L 240 152 L 240 169 L 137 169 L 137 152 Z " transform="matrix(0.9451901912689209, 0.32652026414871216, -0.32652026414871216, 0.9451901912689209, 307.7, -106.6)"/>
    <path id="ID0.16514390520751476" fill="#7F7F7F" stroke="none" d="M 56 100 L 179 100 L 179 112 L 56 112 L 56 100 Z " transform="matrix(0.9529258012771606, -0.30320367217063904, 0.30320367217063904, 0.9529258012771606, 79.5, 92.6)"/>
  </g>
  <path id="ID0.3634779374115169" fill="none" stroke="#B2B2B2" stroke-width="2" stroke-linecap="round" d="M 428 105 L 449 177 " transform="matrix(1, 0, 0, 1, 80, 25)"/>
  <path id="ID0.94520473619923" fill="none" stroke="#B2B2B2" stroke-width="2" stroke-linecap="round" d="M 437 69 L 472 206 " transform="matrix(1, 0, 0, 1, 80, 25)"/>
  <path id="ID0.3049511443823576" fill="none" stroke="#B2B2B2" stroke-width="2" stroke-linecap="round" d="M 391 174 L 402 208 " transform="matrix(1, 0, 0, 1, 80, 25)"/>
  <path id="ID0.41372556425631046" fill="none" stroke="#B2B2B2" stroke-width="2" stroke-linecap="round" d="M 399 136 L 413 179 " transform="matrix(1, 0, 0, 1, 80, 25)"/>
  <path id="ID0.5472511011175811" fill="none" stroke="#B2B2B2" stroke-width="2" stroke-linecap="round" d="M 434 197 L 440 222 " transform="matrix(1, 0, 0, 1, 80, 25)"/>
  <path id="ID0.2802432239986956" fill="none" stroke="#B2B2B2" stroke-width="2" stroke-linecap="round" d="M 458 3 L 475 62 " transform="matrix(1, 0, 0, 1, 80, 25)"/>
  <path id="ID0.22852817364037037" fill="none" stroke="#B2B2B2" stroke-width="2" stroke-linecap="round" d="M 77 209 L 55 239 " transform="matrix(1, 0, 0, 1, 80, 25)"/>
  <path id="ID0.8126235934905708" fill="none" stroke="#B2B2B2" stroke-width="2" stroke-linecap="round" d="M 79 220 L 68 235 " transform="matrix(1, 0, 0, 1, 80, 25)"/>
  <path id="ID0.0007186192087829113" fill="none" stroke="#B2B2B2" stroke-width="2" stroke-linecap="round" d="M 96 175 L 109 154 " transform="matrix(1, 0, 0, 1, 80, 25)"/>
  <path id="ID0.7693007616326213" fill="none" stroke="#B2B2B2" stroke-width="2" stroke-linecap="round" d="M 121 153 L 109 174 " transform="matrix(1, 0, 0, 1, 80, 25)"/>
  <path id="ID0.5861179842613637" fill="none" stroke="#B2B2B2" stroke-width="2" stroke-linecap="round" d="M 116 220 L 129 190 " transform="matrix(1, 0, 0, 1, 80, 25)"/>
  <path id="ID0.7905394253320992" fill="none" stroke="#B2B2B2" stroke-width="2" stroke-linecap="round" d="M 131 217 L 135 211 " transform="matrix(1, 0, 0, 1, 80, 25)"/>
  <path id="ID0.6968261548317969" fill="none" stroke="#B2B2B2" stroke-width="2" stroke-linecap="round" d="M 261 179 L 241 198 " transform="matrix(1, 0, 0, 1, 80, 25)"/>
  <path id="ID0.7153950738720596" fill="none" stroke="#B2B2B2" stroke-width="2" stroke-linecap="round" d="M 279 183 L 253 204 " transform="matrix(1, 0, 0, 1, 80, 25)"/>
  <path id="ID0.8558206874877214" fill="none" stroke="#B2B2B2" stroke-width="2" stroke-linecap="round" d="M 268 211 L 275 203 " transform="matrix(1, 0, 0, 1, 80, 25)"/>
  <path id="ID0.11483157891780138" fill="#8AC3A3" stroke="#73A28A" stroke-width="2" stroke-linecap="round" d="M 211.500 222.500 C 211.338 222.534 211.581 220.990 211.250 220.250 C 210.956 219.600 210.200 219.200 209.750 218.750 C 208.650 217.650 207.600 216.500 206.500 215.500 C 205.950 215 205.350 214.600 204.750 214.250 C 204.100 213.850 202.750 213.750 202.750 213.250 C 202.750 212.750 204 212.400 204.750 212.250 C 205.550 212 206.400 212 207.250 212 C 208.550 212 209.950 211.850 211.250 212.250 C 211.950 212.450 212.400 213.250 213 213.750 C 213.550 214.200 214.150 214.750 214.750 215.250 C 215.400 215.750 216.150 216.150 216.750 216.750 C 217.250 217.250 217.300 218.300 218 218.500 C 218.650 218.650 219.400 218.050 219.750 217.500 C 220.050 216.900 219.750 216.150 219.750 215.500 C 219.750 214.800 219.750 214.150 219.750 213.500 C 219.750 212.800 219.850 212.150 219.750 211.500 C 219.600 210.800 218.750 209.650 219 209.500 C 219.200 209.300 220.250 210.200 220.750 210.750 C 221.750 211.800 222.800 212.900 223.500 214.250 C 223.750 214.800 223.600 215.550 223.500 216.250 C 223.350 217 222.250 218.500 222.750 218.500 C 223.600 218.400 225 216.700 226.250 216 C 226.850 215.600 227.550 215.350 228.250 215.250 C 229.700 214.950 231.250 214.900 232.750 214.750 C 233.400 214.650 235.050 213.950 234.750 214.500 C 233.650 216.100 231.600 217.500 230 219 C 229.400 219.500 228.800 220 228.250 220.500 C 227.650 220.950 227 221.400 226.500 222 C 226.150 222.350 225.750 223.250 225.750 223.250 C 225 222.750 223.063 223.794 222 224 C 220.445 224.301 218.833 224.309 217.250 224.250 C 216.564 224.225 215.925 223.877 215.250 223.750 C 214.590 223.626 213.919 223.548 213.250 223.500 C 212.752 223.464 211.881 223.713 211.750 223.500 Z " transform="matrix(1, 0, 0, 1, -46, 63)"/>
  <path id="ID0.11483157891780138" fill="#8AC3A3" stroke="#73A28A" stroke-width="2" stroke-linecap="round" d="M 211.500 222.500 C 211.338 222.534 211.581 220.990 211.250 220.250 C 210.956 219.600 210.200 219.200 209.750 218.750 C 208.650 217.650 207.600 216.500 206.500 215.500 C 205.950 215 205.350 214.600 204.750 214.250 C 204.100 213.850 202.750 213.750 202.750 213.250 C 202.750 212.750 204 212.400 204.750 212.250 C 205.550 212 206.400 212 207.250 212 C 208.550 212 209.950 211.850 211.250 212.250 C 211.950 212.450 212.400 213.250 213 213.750 C 213.550 214.200 214.150 214.750 214.750 215.250 C 215.400 215.750 216.150 216.150 216.750 216.750 C 217.250 217.250 217.300 218.300 218 218.500 C 218.650 218.650 219.400 218.050 219.750 217.500 C 220.050 216.900 219.750 216.150 219.750 215.500 C 219.750 214.800 219.750 214.150 219.750 213.500 C 219.750 212.800 219.850 212.150 219.750 211.500 C 219.600 210.800 218.750 209.650 219 209.500 C 219.200 209.300 220.250 210.200 220.750 210.750 C 221.750 211.800 222.800 212.900 223.500 214.250 C 223.750 214.800 223.600 215.550 223.500 216.250 C 223.350 217 222.250 218.500 222.750 218.500 C 223.600 218.400 225 216.700 226.250 216 C 226.850 215.600 227.550 215.350 228.250 215.250 C 229.700 214.950 231.250 214.900 232.750 214.750 C 233.400 214.650 235.050 213.950 234.750 214.500 C 233.650 216.100 231.600 217.500 230 219 C 229.400 219.500 228.800 220 228.250 220.500 C 227.650 220.950 227 221.400 226.500 222 C 226.150 222.350 225.750 223.250 225.750 223.250 C 225 222.750 223.063 223.794 222 224 C 220.445 224.301 218.833 224.309 217.250 224.250 C 216.564 224.225 215.925 223.877 215.250 223.750 C 214.590 223.626 213.919 223.548 213.250 223.500 C 212.752 223.464 211.881 223.713 211.750 223.500 Z " transform="matrix(1, 0, 0, 1, 115.8, 36.85)"/>
  <path id="ID0.11483157891780138" fill="#8AC3A3" stroke="#73A28A" stroke-width="2" stroke-linecap="round" d="M 211.500 222.500 C 211.338 222.534 211.581 220.990 211.250 220.250 C 210.956 219.600 210.200 219.200 209.750 218.750 C 208.650 217.650 207.600 216.500 206.500 215.500 C 205.950 215 205.350 214.600 204.750 214.250 C 204.100 213.850 202.750 213.750 202.750 213.250 C 202.750 212.750 204 212.400 204.750 212.250 C 205.550 212 206.400 212 207.250 212 C 208.550 212 209.950 211.850 211.250 212.250 C 211.950 212.450 212.400 213.250 213 213.750 C 213.550 214.200 214.150 214.750 214.750 215.250 C 215.400 215.750 216.150 216.150 216.750 216.750 C 217.250 217.250 217.300 218.300 218 218.500 C 218.650 218.650 219.400 218.050 219.750 217.500 C 220.050 216.900 219.750 216.150 219.750 215.500 C 219.750 214.800 219.750 214.150 219.750 213.500 C 219.750 212.800 219.850 212.150 219.750 211.500 C 219.600 210.800 218.750 209.650 219 209.500 C 219.200 209.300 220.250 210.200 220.750 210.750 C 221.750 211.800 222.800 212.900 223.500 214.250 C 223.750 214.800 223.600 215.550 223.500 216.250 C 223.350 217 222.250 218.500 222.750 218.500 C 223.600 218.400 225 216.700 226.250 216 C 226.850 215.600 227.550 215.350 228.250 215.250 C 229.700 214.950 231.250 214.900 232.750 214.750 C 233.400 214.650 235.050 213.950 234.750 214.500 C 233.650 216.100 231.600 217.500 230 219 C 229.400 219.500 228.800 220 228.250 220.500 C 227.650 220.950 227 221.400 226.500 222 C 226.150 222.350 225.750 223.250 225.750 223.250 C 225 222.750 223.063 223.794 222 224 C 220.445 224.301 218.833 224.309 217.250 224.250 C 216.564 224.225 215.925 223.877 215.250 223.750 C 214.590 223.626 213.919 223.548 213.250 223.500 C 212.752 223.464 211.881 223.713 211.750 223.500 Z " transform="matrix(1, 0, 0, 1, 79.5, 46.25)"/>
  <path id="ID0.11483157891780138" fill="#8AC3A3" stroke="#73A28A" stroke-width="2" stroke-linecap="round" d="M 211.500 222.500 C 211.338 222.534 211.581 220.990 211.250 220.250 C 210.956 219.600 210.200 219.200 209.750 218.750 C 208.650 217.650 207.600 216.500 206.500 215.500 C 205.950 215 205.350 214.600 204.750 214.250 C 204.100 213.850 202.750 213.750 202.750 213.250 C 202.750 212.750 204 212.400 204.750 212.250 C 205.550 212 206.400 212 207.250 212 C 208.550 212 209.950 211.850 211.250 212.250 C 211.950 212.450 212.400 213.250 213 213.750 C 213.550 214.200 214.150 214.750 214.750 215.250 C 215.400 215.750 216.150 216.150 216.750 216.750 C 217.250 217.250 217.300 218.300 218 218.500 C 218.650 218.650 219.400 218.050 219.750 217.500 C 220.050 216.900 219.750 216.150 219.750 215.500 C 219.750 214.800 219.750 214.150 219.750 213.500 C 219.750 212.800 219.850 212.150 219.750 211.500 C 219.600 210.800 218.750 209.650 219 209.500 C 219.200 209.300 220.250 210.200 220.750 210.750 C 221.750 211.800 222.800 212.900 223.500 214.250 C 223.750 214.800 223.600 215.550 223.500 216.250 C 223.350 217 222.250 218.500 222.750 218.500 C 223.600 218.400 225 216.700 226.250 216 C 226.850 215.600 227.550 215.350 228.250 215.250 C 229.700 214.950 231.250 214.900 232.750 214.750 C 233.400 214.650 235.050 213.950 234.750 214.500 C 233.650 216.100 231.600 217.500 230 219 C 229.400 219.500 228.800 220 228.250 220.500 C 227.650 220.950 227 221.400 226.500 222 C 226.150 222.350 225.750 223.250 225.750 223.250 C 225 222.750 223.063 223.794 222 224 C 220.445 224.301 218.833 224.309 217.250 224.250 C 216.564 224.225 215.925 223.877 215.250 223.750 C 214.590 223.626 213.919 223.548 213.250 223.500 C 212.752 223.464 211.881 223.713 211.750 223.500 Z " transform="matrix(1, 0, 0, 1, 116.55, 57.05)"/>
  <path id="ID0.11483157891780138" fill="#8AC3A3" stroke="#73A28A" stroke-width="2" stroke-linecap="round" d="M 211.500 222.500 C 211.338 222.534 211.581 220.990 211.250 220.250 C 210.956 219.600 210.200 219.200 209.750 218.750 C 208.650 217.650 207.600 216.500 206.500 215.500 C 205.950 215 205.350 214.600 204.750 214.250 C 204.100 213.850 202.750 213.750 202.750 213.250 C 202.750 212.750 204 212.400 204.750 212.250 C 205.550 212 206.400 212 207.250 212 C 208.550 212 209.950 211.850 211.250 212.250 C 211.950 212.450 212.400 213.250 213 213.750 C 213.550 214.200 214.150 214.750 214.750 215.250 C 215.400 215.750 216.150 216.150 216.750 216.750 C 217.250 217.250 217.300 218.300 218 218.500 C 218.650 218.650 219.400 218.050 219.750 217.500 C 220.050 216.900 219.750 216.150 219.750 215.500 C 219.750 214.800 219.750 214.150 219.750 213.500 C 219.750 212.800 219.850 212.150 219.750 211.500 C 219.600 210.800 218.750 209.650 219 209.500 C 219.200 209.300 220.250 210.200 220.750 210.750 C 221.750 211.800 222.800 212.900 223.500 214.250 C 223.750 214.800 223.600 215.550 223.500 216.250 C 223.350 217 222.250 218.500 222.750 218.500 C 223.600 218.400 225 216.700 226.250 216 C 226.850 215.600 227.550 215.350 228.250 215.250 C 229.700 214.950 231.250 214.900 232.750 214.750 C 233.400 214.650 235.050 213.950 234.750 214.500 C 233.650 216.100 231.600 217.500 230 219 C 229.400 219.500 228.800 220 228.250 220.500 C 227.650 220.950 227 221.400 226.500 222 C 226.150 222.350 225.750 223.250 225.750 223.250 C 225 222.750 223.063 223.794 222 224 C 220.445 224.301 218.833 224.309 217.250 224.250 C 216.564 224.225 215.925 223.877 215.250 223.750 C 214.590 223.626 213.919 223.548 213.250 223.500 C 212.752 223.464 211.881 223.713 211.750 223.500 Z " transform="matrix(1, 0, 0, 1, 282.5, 121.65)"/>
  <path id="ID0.11483157891780138" fill="#8AC3A3" stroke="#73A28A" stroke-width="2" stroke-linecap="round" d="M 211.500 222.500 C 211.338 222.534 211.581 220.990 211.250 220.250 C 210.956 219.600 210.200 219.200 209.750 218.750 C 208.650 217.650 207.600 216.500 206.500 215.500 C 205.950 215 205.350 214.600 204.750 214.250 C 204.100 213.850 202.750 213.750 202.750 213.250 C 202.750 212.750 204 212.400 204.750 212.250 C 205.550 212 206.400 212 207.250 212 C 208.550 212 209.950 211.850 211.250 212.250 C 211.950 212.450 212.400 213.250 213 213.750 C 213.550 214.200 214.150 214.750 214.750 215.250 C 215.400 215.750 216.150 216.150 216.750 216.750 C 217.250 217.250 217.300 218.300 218 218.500 C 218.650 218.650 219.400 218.050 219.750 217.500 C 220.050 216.900 219.750 216.150 219.750 215.500 C 219.750 214.800 219.750 214.150 219.750 213.500 C 219.750 212.800 219.850 212.150 219.750 211.500 C 219.600 210.800 218.750 209.650 219 209.500 C 219.200 209.300 220.250 210.200 220.750 210.750 C 221.750 211.800 222.800 212.900 223.500 214.250 C 223.750 214.800 223.600 215.550 223.500 216.250 C 223.350 217 222.250 218.500 222.750 218.500 C 223.600 218.400 225 216.700 226.250 216 C 226.850 215.600 227.550 215.350 228.250 215.250 C 229.700 214.950 231.250 214.900 232.750 214.750 C 233.400 214.650 235.050 213.950 234.750 214.500 C 233.650 216.100 231.600 217.500 230 219 C 229.400 219.500 228.800 220 228.250 220.500 C 227.650 220.950 227 221.400 226.500 222 C 226.150 222.350 225.750 223.250 225.750 223.250 C 225 222.750 223.063 223.794 222 224 C 220.445 224.301 218.833 224.309 217.250 224.250 C 216.564 224.225 215.925 223.877 215.250 223.750 C 214.590 223.626 213.919 223.548 213.250 223.500 C 212.752 223.464 211.881 223.713 211.750 223.500 Z " transform="matrix(1, 0, 0, 1, 237.8, 145.3)"/>
  <path id="ID0.11483157891780138" fill="#8AC3A3" stroke="#73A28A" stroke-width="2" stroke-linecap="round" d="M 211.500 222.500 C 211.338 222.534 211.581 220.990 211.250 220.250 C 210.956 219.600 210.200 219.200 209.750 218.750 C 208.650 217.650 207.600 216.500 206.500 215.500 C 205.950 215 205.350 214.600 204.750 214.250 C 204.100 213.850 202.750 213.750 202.750 213.250 C 202.750 212.750 204 212.400 204.750 212.250 C 205.550 212 206.400 212 207.250 212 C 208.550 212 209.950 211.850 211.250 212.250 C 211.950 212.450 212.400 213.250 213 213.750 C 213.550 214.200 214.150 214.750 214.750 215.250 C 215.400 215.750 216.150 216.150 216.750 216.750 C 217.250 217.250 217.300 218.300 218 218.500 C 218.650 218.650 219.400 218.050 219.750 217.500 C 220.050 216.900 219.750 216.150 219.750 215.500 C 219.750 214.800 219.750 214.150 219.750 213.500 C 219.750 212.800 219.850 212.150 219.750 211.500 C 219.600 210.800 218.750 209.650 219 209.500 C 219.200 209.300 220.250 210.200 220.750 210.750 C 221.750 211.800 222.800 212.900 223.500 214.250 C 223.750 214.800 223.600 215.550 223.500 216.250 C 223.350 217 222.250 218.500 222.750 218.500 C 223.600 218.400 225 216.700 226.250 216 C 226.850 215.600 227.550 215.350 228.250 215.250 C 229.700 214.950 231.250 214.900 232.750 214.750 C 233.400 214.650 235.050 213.950 234.750 214.500 C 233.650 216.100 231.600 217.500 230 219 C 229.400 219.500 228.800 220 228.250 220.500 C 227.650 220.950 227 221.400 226.500 222 C 226.150 222.350 225.750 223.250 225.750 223.250 C 225 222.750 223.063 223.794 222 224 C 220.445 224.301 218.833 224.309 217.250 224.250 C 216.564 224.225 215.925 223.877 215.250 223.750 C 214.590 223.626 213.919 223.548 213.250 223.500 C 212.752 223.464 211.881 223.713 211.750 223.500 Z " transform="matrix(1, 0, 0, 1, 247.5, 110.15)"/>
  <path id="ID0.11483157891780138" fill="#8AC3A3" stroke="#73A28A" stroke-width="2" stroke-linecap="round" d="M 211.500 222.500 C 211.338 222.534 211.581 220.990 211.250 220.250 C 210.956 219.600 210.200 219.200 209.750 218.750 C 208.650 217.650 207.600 216.500 206.500 215.500 C 205.950 215 205.350 214.600 204.750 214.250 C 204.100 213.850 202.750 213.750 202.750 213.250 C 202.750 212.750 204 212.400 204.750 212.250 C 205.550 212 206.400 212 207.250 212 C 208.550 212 209.950 211.850 211.250 212.250 C 211.950 212.450 212.400 213.250 213 213.750 C 213.550 214.200 214.150 214.750 214.750 215.250 C 215.400 215.750 216.150 216.150 216.750 216.750 C 217.250 217.250 217.300 218.300 218 218.500 C 218.650 218.650 219.400 218.050 219.750 217.500 C 220.050 216.900 219.750 216.150 219.750 215.500 C 219.750 214.800 219.750 214.150 219.750 213.500 C 219.750 212.800 219.850 212.150 219.750 211.500 C 219.600 210.800 218.750 209.650 219 209.500 C 219.200 209.300 220.250 210.200 220.750 210.750 C 221.750 211.800 222.800 212.900 223.500 214.250 C 223.750 214.800 223.600 215.550 223.500 216.250 C 223.350 217 222.250 218.500 222.750 218.500 C 223.600 218.400 225 216.700 226.250 216 C 226.850 215.600 227.550 215.350 228.250 215.250 C 229.700 214.950 231.250 214.900 232.750 214.750 C 233.400 214.650 235.050 213.950 234.750 214.500 C 233.650 216.100 231.600 217.500 230 219 C 229.400 219.500 228.800 220 228.250 220.500 C 227.650 220.950 227 221.400 226.500 222 C 226.150 222.350 225.750 223.250 225.750 223.250 C 225 222.750 223.063 223.794 222 224 C 220.445 224.301 218.833 224.309 217.250 224.250 C 216.564 224.225 215.925 223.877 215.250 223.750 C 214.590 223.626 213.919 223.548 213.250 223.500 C 212.752 223.464 211.881 223.713 211.750 223.500 Z " transform="matrix(1, 0, 0, 1, -118.35, 153.8)"/>
  <path id="ID0.11483157891780138" fill="#8AC3A3" stroke="#73A28A" stroke-width="2" stroke-linecap="round" d="M 211.500 222.500 C 211.338 222.534 211.581 220.990 211.250 220.250 C 210.956 219.600 210.200 219.200 209.750 218.750 C 208.650 217.650 207.600 216.500 206.500 215.500 C 205.950 215 205.350 214.600 204.750 214.250 C 204.100 213.850 202.750 213.750 202.750 213.250 C 202.750 212.750 204 212.400 204.750 212.250 C 205.550 212 206.400 212 207.250 212 C 208.550 212 209.950 211.850 211.250 212.250 C 211.950 212.450 212.400 213.250 213 213.750 C 213.550 214.200 214.150 214.750 214.750 215.250 C 215.400 215.750 216.150 216.150 216.750 216.750 C 217.250 217.250 217.300 218.300 218 218.500 C 218.650 218.650 219.400 218.050 219.750 217.500 C 220.050 216.900 219.750 216.150 219.750 215.500 C 219.750 214.800 219.750 214.150 219.750 213.500 C 219.750 212.800 219.850 212.150 219.750 211.500 C 219.600 210.800 218.750 209.650 219 209.500 C 219.200 209.300 220.250 210.200 220.750 210.750 C 221.750 211.800 222.800 212.900 223.500 214.250 C 223.750 214.800 223.600 215.550 223.500 216.250 C 223.350 217 222.250 218.500 222.750 218.500 C 223.600 218.400 225 216.700 226.250 216 C 226.850 215.600 227.550 215.350 228.250 215.250 C 229.700 214.950 231.250 214.900 232.750 214.750 C 233.400 214.650 235.050 213.950 234.750 214.500 C 233.650 216.100 231.600 217.500 230 219 C 229.400 219.500 228.800 220 228.250 220.500 C 227.650 220.950 227 221.400 226.500 222 C 226.150 222.350 225.750 223.250 225.750 223.250 C 225 222.750 223.063 223.794 222 224 C 220.445 224.301 218.833 224.309 217.250 224.250 C 216.564 224.225 215.925 223.877 215.250 223.750 C 214.590 223.626 213.919 223.548 213.250 223.500 C 212.752 223.464 211.881 223.713 211.750 223.500 Z " transform="matrix(1, 0, 0, 1, -80.15, 143.6)"/>
  <path id="ID0.11483157891780138" fill="#8AC3A3" stroke="#73A28A" stroke-width="2" stroke-linecap="round" d="M 211.500 222.500 C 211.338 222.534 211.581 220.990 211.250 220.250 C 210.956 219.600 210.200 219.200 209.750 218.750 C 208.650 217.650 207.600 216.500 206.500 215.500 C 205.950 215 205.350 214.600 204.750 214.250 C 204.100 213.850 202.750 213.750 202.750 213.250 C 202.750 212.750 204 212.400 204.750 212.250 C 205.550 212 206.400 212 207.250 212 C 208.550 212 209.950 211.850 211.250 212.250 C 211.950 212.450 212.400 213.250 213 213.750 C 213.550 214.200 214.150 214.750 214.750 215.250 C 215.400 215.750 216.150 216.150 216.750 216.750 C 217.250 217.250 217.300 218.300 218 218.500 C 218.650 218.650 219.400 218.050 219.750 217.500 C 220.050 216.900 219.750 216.150 219.750 215.500 C 219.750 214.800 219.750 214.150 219.750 213.500 C 219.750 212.800 219.850 212.150 219.750 211.500 C 219.600 210.800 218.750 209.650 219 209.500 C 219.200 209.300 220.250 210.200 220.750 210.750 C 221.750 211.800 222.800 212.900 223.500 214.250 C 223.750 214.800 223.600 215.550 223.500 216.250 C 223.350 217 222.250 218.500 222.750 218.500 C 223.600 218.400 225 216.700 226.250 216 C 226.850 215.600 227.550 215.350 228.250 215.250 C 229.700 214.950 231.250 214.900 232.750 214.750 C 233.400 214.650 235.050 213.950 234.750 214.500 C 233.650 216.100 231.600 217.500 230 219 C 229.400 219.500 228.800 220 228.250 220.500 C 227.650 220.950 227 221.400 226.500 222 C 226.150 222.350 225.750 223.250 225.750 223.250 C 225 222.750 223.063 223.794 222 224 C 220.445 224.301 218.833 224.309 217.250 224.250 C 216.564 224.225 215.925 223.877 215.250 223.750 C 214.590 223.626 213.919 223.548 213.250 223.500 C 212.752 223.464 211.881 223.713 211.750 223.500 Z " transform="matrix(1, 0, 0, 1, -116.2, 120.45)"/>
  <path id="ID0.11483157891780138" fill="#8AC3A3" stroke="#73A28A" stroke-width="2" stroke-linecap="round" d="M 211.500 222.500 C 211.338 222.534 211.581 220.990 211.250 220.250 C 210.956 219.600 210.200 219.200 209.750 218.750 C 208.650 217.650 207.600 216.500 206.500 215.500 C 205.950 215 205.350 214.600 204.750 214.250 C 204.100 213.850 202.750 213.750 202.750 213.250 C 202.750 212.750 204 212.400 204.750 212.250 C 205.550 212 206.400 212 207.250 212 C 208.550 212 209.950 211.850 211.250 212.250 C 211.950 212.450 212.400 213.250 213 213.750 C 213.550 214.200 214.150 214.750 214.750 215.250 C 215.400 215.750 216.150 216.150 216.750 216.750 C 217.250 217.250 217.300 218.300 218 218.500 C 218.650 218.650 219.400 218.050 219.750 217.500 C 220.050 216.900 219.750 216.150 219.750 215.500 C 219.750 214.800 219.750 214.150 219.750 213.500 C 219.750 212.800 219.850 212.150 219.750 211.500 C 219.600 210.800 218.750 209.650 219 209.500 C 219.200 209.300 220.250 210.200 220.750 210.750 C 221.750 211.800 222.800 212.900 223.500 214.250 C 223.750 214.800 223.600 215.550 223.500 216.250 C 223.350 217 222.250 218.500 222.750 218.500 C 223.600 218.400 225 216.700 226.250 216 C 226.850 215.600 227.550 215.350 228.250 215.250 C 229.700 214.950 231.250 214.900 232.750 214.750 C 233.400 214.650 235.050 213.950 234.750 214.500 C 233.650 216.100 231.600 217.500 230 219 C 229.400 219.500 228.800 220 228.250 220.500 C 227.650 220.950 227 221.400 226.500 222 C 226.150 222.350 225.750 223.250 225.750 223.250 C 225 222.750 223.063 223.794 222 224 C 220.445 224.301 218.833 224.309 217.250 224.250 C 216.564 224.225 215.925 223.877 215.250 223.750 C 214.590 223.626 213.919 223.548 213.250 223.500 C 212.752 223.464 211.881 223.713 211.750 223.500 Z " transform="matrix(1, 0, 0, 1, 34.35, 165.55)"/>
  <path id="ID0.11483157891780138" fill="#8AC3A3" stroke="#73A28A" stroke-width="2" stroke-linecap="round" d="M 211.500 222.500 C 211.338 222.534 211.581 220.990 211.250 220.250 C 210.956 219.600 210.200 219.200 209.750 218.750 C 208.650 217.650 207.600 216.500 206.500 215.500 C 205.950 215 205.350 214.600 204.750 214.250 C 204.100 213.850 202.750 213.750 202.750 213.250 C 202.750 212.750 204 212.400 204.750 212.250 C 205.550 212 206.400 212 207.250 212 C 208.550 212 209.950 211.850 211.250 212.250 C 211.950 212.450 212.400 213.250 213 213.750 C 213.550 214.200 214.150 214.750 214.750 215.250 C 215.400 215.750 216.150 216.150 216.750 216.750 C 217.250 217.250 217.300 218.300 218 218.500 C 218.650 218.650 219.400 218.050 219.750 217.500 C 220.050 216.900 219.750 216.150 219.750 215.500 C 219.750 214.800 219.750 214.150 219.750 213.500 C 219.750 212.800 219.850 212.150 219.750 211.500 C 219.600 210.800 218.750 209.650 219 209.500 C 219.200 209.300 220.250 210.200 220.750 210.750 C 221.750 211.800 222.800 212.900 223.500 214.250 C 223.750 214.800 223.600 215.550 223.500 216.250 C 223.350 217 222.250 218.500 222.750 218.500 C 223.600 218.400 225 216.700 226.250 216 C 226.850 215.600 227.550 215.350 228.250 215.250 C 229.700 214.950 231.250 214.900 232.750 214.750 C 233.400 214.650 235.050 213.950 234.750 214.500 C 233.650 216.100 231.600 217.500 230 219 C 229.400 219.500 228.800 220 228.250 220.500 C 227.650 220.950 227 221.400 226.500 222 C 226.150 222.350 225.750 223.250 225.750 223.250 C 225 222.750 223.063 223.794 222 224 C 220.445 224.301 218.833 224.309 217.250 224.250 C 216.564 224.225 215.925 223.877 215.250 223.750 C 214.590 223.626 213.919 223.548 213.250 223.500 C 212.752 223.464 211.881 223.713 211.750 223.500 Z " transform="matrix(1, 0, 0, 1, 121.2, 159.5)"/>
  <path id="ID0.11483157891780138" fill="#8AC3A3" stroke="#73A28A" stroke-width="2" stroke-linecap="round" d="M 211.500 222.500 C 211.338 222.534 211.581 220.990 211.250 220.250 C 210.956 219.600 210.200 219.200 209.750 218.750 C 208.650 217.650 207.600 216.500 206.500 215.500 C 205.950 215 205.350 214.600 204.750 214.250 C 204.100 213.850 202.750 213.750 202.750 213.250 C 202.750 212.750 204 212.400 204.750 212.250 C 205.550 212 206.400 212 207.250 212 C 208.550 212 209.950 211.850 211.250 212.250 C 211.950 212.450 212.400 213.250 213 213.750 C 213.550 214.200 214.150 214.750 214.750 215.250 C 215.400 215.750 216.150 216.150 216.750 216.750 C 217.250 217.250 217.300 218.300 218 218.500 C 218.650 218.650 219.400 218.050 219.750 217.500 C 220.050 216.900 219.750 216.150 219.750 215.500 C 219.750 214.800 219.750 214.150 219.750 213.500 C 219.750 212.800 219.850 212.150 219.750 211.500 C 219.600 210.800 218.750 209.650 219 209.500 C 219.200 209.300 220.250 210.200 220.750 210.750 C 221.750 211.800 222.800 212.900 223.500 214.250 C 223.750 214.800 223.600 215.550 223.500 216.250 C 223.350 217 222.250 218.500 222.750 218.500 C 223.600 218.400 225 216.700 226.250 216 C 226.850 215.600 227.550 215.350 228.250 215.250 C 229.700 214.950 231.250 214.900 232.750 214.750 C 233.400 214.650 235.050 213.950 234.750 214.500 C 233.650 216.100 231.600 217.500 230 219 C 229.400 219.500 228.800 220 228.250 220.500 C 227.650 220.950 227 221.400 226.500 222 C 226.150 222.350 225.750 223.250 225.750 223.250 C 225 222.750 223.063 223.794 222 224 C 220.445 224.301 218.833 224.309 217.250 224.250 C 216.564 224.225 215.925 223.877 215.250 223.750 C 214.590 223.626 213.919 223.548 213.250 223.500 C 212.752 223.464 211.881 223.713 211.750 223.500 Z " transform="matrix(1, 0, 0, 1, 96.9, 127.35)"/>
  <path id="ID0.11483157891780138" fill="#8AC3A3" stroke="#73A28A" stroke-width="2" stroke-linecap="round" d="M 211.500 222.500 C 211.338 222.534 211.581 220.990 211.250 220.250 C 210.956 219.600 210.200 219.200 209.750 218.750 C 208.650 217.650 207.600 216.500 206.500 215.500 C 205.950 215 205.350 214.600 204.750 214.250 C 204.100 213.850 202.750 213.750 202.750 213.250 C 202.750 212.750 204 212.400 204.750 212.250 C 205.550 212 206.400 212 207.250 212 C 208.550 212 209.950 211.850 211.250 212.250 C 211.950 212.450 212.400 213.250 213 213.750 C 213.550 214.200 214.150 214.750 214.750 215.250 C 215.400 215.750 216.150 216.150 216.750 216.750 C 217.250 217.250 217.300 218.300 218 218.500 C 218.650 218.650 219.400 218.050 219.750 217.500 C 220.050 216.900 219.750 216.150 219.750 215.500 C 219.750 214.800 219.750 214.150 219.750 213.500 C 219.750 212.800 219.850 212.150 219.750 211.500 C 219.600 210.800 218.750 209.650 219 209.500 C 219.200 209.300 220.250 210.200 220.750 210.750 C 221.750 211.800 222.800 212.900 223.500 214.250 C 223.750 214.800 223.600 215.550 223.500 216.250 C 223.350 217 222.250 218.500 222.750 218.500 C 223.600 218.400 225 216.700 226.250 216 C 226.850 215.600 227.550 215.350 228.250 215.250 C 229.700 214.950 231.250 214.900 232.750 214.750 C 233.400 214.650 235.050 213.950 234.750 214.500 C 233.650 216.100 231.600 217.500 230 219 C 229.400 219.500 228.800 220 228.250 220.500 C 227.650 220.950 227 221.400 226.500 222 C 226.150 222.350 225.750 223.250 225.750 223.250 C 225 222.750 223.063 223.794 222 224 C 220.445 224.301 218.833 224.309 217.250 224.250 C 216.564 224.225 215.925 223.877 215.250 223.750 C 214.590 223.626 213.919 223.548 213.250 223.500 C 212.752 223.464 211.881 223.713 211.750 223.500 Z " transform="matrix(1, 0, 0, 1, 5.25, 93.95)"/>
  <path id="ID0.11483157891780138" fill="#8AC3A3" stroke="#73A28A" stroke-width="2" stroke-linecap="round" d="M 211.500 222.500 C 211.338 222.534 211.581 220.990 211.250 220.250 C 210.956 219.600 210.200 219.200 209.750 218.750 C 208.650 217.650 207.600 216.500 206.500 215.500 C 205.950 215 205.350 214.600 204.750 214.250 C 204.100 213.850 202.750 213.750 202.750 213.250 C 202.750 212.750 204 212.400 204.750 212.250 C 205.550 212 206.400 212 207.250 212 C 208.550 212 209.950 211.850 211.250 212.250 C 211.950 212.450 212.400 213.250 213 213.750 C 213.550 214.200 214.150 214.750 214.750 215.250 C 215.400 215.750 216.150 216.150 216.750 216.750 C 217.250 217.250 217.300 218.300 218 218.500 C 218.650 218.650 219.400 218.050 219.750 217.500 C 220.050 216.900 219.750 216.150 219.750 215.500 C 219.750 214.800 219.750 214.150 219.750 213.500 C 219.750 212.800 219.850 212.150 219.750 211.500 C 219.600 210.800 218.750 209.650 219 209.500 C 219.200 209.300 220.250 210.200 220.750 210.750 C 221.750 211.800 222.800 212.900 223.500 214.250 C 223.750 214.800 223.600 215.550 223.500 216.250 C 223.350 217 222.250 218.500 222.750 218.500 C 223.600 218.400 225 216.700 226.250 216 C 226.850 215.600 227.550 215.350 228.250 215.250 C 229.700 214.950 231.250 214.900 232.750 214.750 C 233.400 214.650 235.050 213.950 234.750 214.500 C 233.650 216.100 231.600 217.500 230 219 C 229.400 219.500 228.800 220 228.250 220.500 C 227.650 220.950 227 221.400 226.500 222 C 226.150 222.350 225.750 223.250 225.750 223.250 C 225 222.750 223.063 223.794 222 224 C 220.445 224.301 218.833 224.309 217.250 224.250 C 216.564 224.225 215.925 223.877 215.250 223.750 C 214.590 223.626 213.919 223.548 213.250 223.500 C 212.752 223.464 211.881 223.713 211.750 223.500 Z " transform="matrix(1, 0, 0, 1, 294.55, 69.8)"/>
  <path id="ID0.11483157891780138" fill="#8AC3A3" stroke="#73A28A" stroke-width="2" stroke-linecap="round" d="M 211.500 222.500 C 211.338 222.534 211.581 220.990 211.250 220.250 C 210.956 219.600 210.200 219.200 209.750 218.750 C 208.650 217.650 207.600 216.500 206.500 215.500 C 205.950 215 205.350 214.600 204.750 214.250 C 204.100 213.850 202.750 213.750 202.750 213.250 C 202.750 212.750 204 212.400 204.750 212.250 C 205.550 212 206.400 212 207.250 212 C 208.550 212 209.950 211.850 211.250 212.250 C 211.950 212.450 212.400 213.250 213 213.750 C 213.550 214.200 214.150 214.750 214.750 215.250 C 215.400 215.750 216.150 216.150 216.750 216.750 C 217.250 217.250 217.300 218.300 218 218.500 C 218.650 218.650 219.400 218.050 219.750 217.500 C 220.050 216.900 219.750 216.150 219.750 215.500 C 219.750 214.800 219.750 214.150 219.750 213.500 C 219.750 212.800 219.850 212.150 219.750 211.500 C 219.600 210.800 218.750 209.650 219 209.500 C 219.200 209.300 220.250 210.200 220.750 210.750 C 221.750 211.800 222.800 212.900 223.500 214.250 C 223.750 214.800 223.600 215.550 223.500 216.250 C 223.350 217 222.250 218.500 222.750 218.500 C 223.600 218.400 225 216.700 226.250 216 C 226.850 215.600 227.550 215.350 228.250 215.250 C 229.700 214.950 231.250 214.900 232.750 214.750 C 233.400 214.650 235.050 213.950 234.750 214.500 C 233.650 216.100 231.600 217.500 230 219 C 229.400 219.500 228.800 220 228.250 220.500 C 227.650 220.950 227 221.400 226.500 222 C 226.150 222.350 225.750 223.250 225.750 223.250 C 225 222.750 223.063 223.794 222 224 C 220.445 224.301 218.833 224.309 217.250 224.250 C 216.564 224.225 215.925 223.877 215.250 223.750 C 214.590 223.626 213.919 223.548 213.250 223.500 C 212.752 223.464 211.881 223.713 211.750 223.500 Z " transform="matrix(1, 0, 0, 1, 222.65, 50.9)"/>
  <path id="ID0.11483157891780138" fill="#8AC3A3" stroke="#73A28A" stroke-width="2" stroke-linecap="round" d="M 211.500 222.500 C 211.338 222.534 211.581 220.990 211.250 220.250 C 210.956 219.600 210.200 219.200 209.750 218.750 C 208.650 217.650 207.600 216.500 206.500 215.500 C 205.950 215 205.350 214.600 204.750 214.250 C 204.100 213.850 202.750 213.750 202.750 213.250 C 202.750 212.750 204 212.400 204.750 212.250 C 205.550 212 206.400 212 207.250 212 C 208.550 212 209.950 211.850 211.250 212.250 C 211.950 212.450 212.400 213.250 213 213.750 C 213.550 214.200 214.150 214.750 214.750 215.250 C 215.400 215.750 216.150 216.150 216.750 216.750 C 217.250 217.250 217.300 218.300 218 218.500 C 218.650 218.650 219.400 218.050 219.750 217.500 C 220.050 216.900 219.750 216.150 219.750 215.500 C 219.750 214.800 219.750 214.150 219.750 213.500 C 219.750 212.800 219.850 212.150 219.750 211.500 C 219.600 210.800 218.750 209.650 219 209.500 C 219.200 209.300 220.250 210.200 220.750 210.750 C 221.750 211.800 222.800 212.900 223.500 214.250 C 223.750 214.800 223.600 215.550 223.500 216.250 C 223.350 217 222.250 218.500 222.750 218.500 C 223.600 218.400 225 216.700 226.250 216 C 226.850 215.600 227.550 215.350 228.250 215.250 C 229.700 214.950 231.250 214.900 232.750 214.750 C 233.400 214.650 235.050 213.950 234.750 214.500 C 233.650 216.100 231.600 217.500 230 219 C 229.400 219.500 228.800 220 228.250 220.500 C 227.650 220.950 227 221.400 226.500 222 C 226.150 222.350 225.750 223.250 225.750 223.250 C 225 222.750 223.063 223.794 222 224 C 220.445 224.301 218.833 224.309 217.250 224.250 C 216.564 224.225 215.925 223.877 215.250 223.750 C 214.590 223.626 213.919 223.548 213.250 223.500 C 212.752 223.464 211.881 223.713 211.750 223.500 Z " transform="matrix(1, 0, 0, 1, 249.35, 53.7)"/>
  <path id="ID0.11483157891780138" fill="#8AC3A3" stroke="#73A28A" stroke-width="2" stroke-linecap="round" d="M 211.500 222.500 C 211.338 222.534 211.581 220.990 211.250 220.250 C 210.956 219.600 210.200 219.200 209.750 218.750 C 208.650 217.650 207.600 216.500 206.500 215.500 C 205.950 215 205.350 214.600 204.750 214.250 C 204.100 213.850 202.750 213.750 202.750 213.250 C 202.750 212.750 204 212.400 204.750 212.250 C 205.550 212 206.400 212 207.250 212 C 208.550 212 209.950 211.850 211.250 212.250 C 211.950 212.450 212.400 213.250 213 213.750 C 213.550 214.200 214.150 214.750 214.750 215.250 C 215.400 215.750 216.150 216.150 216.750 216.750 C 217.250 217.250 217.300 218.300 218 218.500 C 218.650 218.650 219.400 218.050 219.750 217.500 C 220.050 216.900 219.750 216.150 219.750 215.500 C 219.750 214.800 219.750 214.150 219.750 213.500 C 219.750 212.800 219.850 212.150 219.750 211.500 C 219.600 210.800 218.750 209.650 219 209.500 C 219.200 209.300 220.250 210.200 220.750 210.750 C 221.750 211.800 222.800 212.900 223.500 214.250 C 223.750 214.800 223.600 215.550 223.500 216.250 C 223.350 217 222.250 218.500 222.750 218.500 C 223.600 218.400 225 216.700 226.250 216 C 226.850 215.600 227.550 215.350 228.250 215.250 C 229.700 214.950 231.250 214.900 232.750 214.750 C 233.400 214.650 235.050 213.950 234.750 214.500 C 233.650 216.100 231.600 217.500 230 219 C 229.400 219.500 228.800 220 228.250 220.500 C 227.650 220.950 227 221.400 226.500 222 C 226.150 222.350 225.750 223.250 225.750 223.250 C 225 222.750 223.063 223.794 222 224 C 220.445 224.301 218.833 224.309 217.250 224.250 C 216.564 224.225 215.925 223.877 215.250 223.750 C 214.590 223.626 213.919 223.548 213.250 223.500 C 212.752 223.464 211.881 223.713 211.750 223.500 Z " transform="matrix(1, 0, 0, 1, -14.9, 30.3)"/>
  <path id="ID0.11483157891780138" fill="#8AC3A3" stroke="#73A28A" stroke-width="2" stroke-linecap="round" d="M 211.500 222.500 C 211.338 222.534 211.581 220.990 211.250 220.250 C 210.956 219.600 210.200 219.200 209.750 218.750 C 208.650 217.650 207.600 216.500 206.500 215.500 C 205.950 215 205.350 214.600 204.750 214.250 C 204.100 213.850 202.750 213.750 202.750 213.250 C 202.750 212.750 204 212.400 204.750 212.250 C 205.550 212 206.400 212 207.250 212 C 208.550 212 209.950 211.850 211.250 212.250 C 211.950 212.450 212.400 213.250 213 213.750 C 213.550 214.200 214.150 214.750 214.750 215.250 C 215.400 215.750 216.150 216.150 216.750 216.750 C 217.250 217.250 217.300 218.300 218 218.500 C 218.650 218.650 219.400 218.050 219.750 217.500 C 220.050 216.900 219.750 216.150 219.750 215.500 C 219.750 214.800 219.750 214.150 219.750 213.500 C 219.750 212.800 219.850 212.150 219.750 211.500 C 219.600 210.800 218.750 209.650 219 209.500 C 219.200 209.300 220.250 210.200 220.750 210.750 C 221.750 211.800 222.800 212.900 223.500 214.250 C 223.750 214.800 223.600 215.550 223.500 216.250 C 223.350 217 222.250 218.500 222.750 218.500 C 223.600 218.400 225 216.700 226.250 216 C 226.850 215.600 227.550 215.350 228.250 215.250 C 229.700 214.950 231.250 214.900 232.750 214.750 C 233.400 214.650 235.050 213.950 234.750 214.500 C 233.650 216.100 231.600 217.500 230 219 C 229.400 219.500 228.800 220 228.250 220.500 C 227.650 220.950 227 221.400 226.500 222 C 226.150 222.350 225.750 223.250 225.750 223.250 C 225 222.750 223.063 223.794 222 224 C 220.445 224.301 218.833 224.309 217.250 224.250 C 216.564 224.225 215.925 223.877 215.250 223.750 C 214.590 223.626 213.919 223.548 213.250 223.500 C 212.752 223.464 211.881 223.713 211.750 223.500 Z " transform="matrix(1, 0, 0, 1, 13.25, 40.1)"/>
  <path id="ID0.11483157891780138" fill="#8AC3A3" stroke="#73A28A" stroke-width="2" stroke-linecap="round" d="M 211.500 222.500 C 211.338 222.534 211.581 220.990 211.250 220.250 C 210.956 219.600 210.200 219.200 209.750 218.750 C 208.650 217.650 207.600 216.500 206.500 215.500 C 205.950 215 205.350 214.600 204.750 214.250 C 204.100 213.850 202.750 213.750 202.750 213.250 C 202.750 212.750 204 212.400 204.750 212.250 C 205.550 212 206.400 212 207.250 212 C 208.550 212 209.950 211.850 211.250 212.250 C 211.950 212.450 212.400 213.250 213 213.750 C 213.550 214.200 214.150 214.750 214.750 215.250 C 215.400 215.750 216.150 216.150 216.750 216.750 C 217.250 217.250 217.300 218.300 218 218.500 C 218.650 218.650 219.400 218.050 219.750 217.500 C 220.050 216.900 219.750 216.150 219.750 215.500 C 219.750 214.800 219.750 214.150 219.750 213.500 C 219.750 212.800 219.850 212.150 219.750 211.500 C 219.600 210.800 218.750 209.650 219 209.500 C 219.200 209.300 220.250 210.200 220.750 210.750 C 221.750 211.800 222.800 212.900 223.500 214.250 C 223.750 214.800 223.600 215.550 223.500 216.250 C 223.350 217 222.250 218.500 222.750 218.500 C 223.600 218.400 225 216.700 226.250 216 C 226.850 215.600 227.550 215.350 228.250 215.250 C 229.700 214.950 231.250 214.900 232.750 214.750 C 233.400 214.650 235.050 213.950 234.750 214.500 C 233.650 216.100 231.600 217.500 230 219 C 229.400 219.500 228.800 220 228.250 220.500 C 227.650 220.950 227 221.400 226.500 222 C 226.150 222.350 225.750 223.250 225.750 223.250 C 225 222.750 223.063 223.794 222 224 C 220.445 224.301 218.833 224.309 217.250 224.250 C 216.564 224.225 215.925 223.877 215.250 223.750 C 214.590 223.626 213.919 223.548 213.250 223.500 C 212.752 223.464 211.881 223.713 211.750 223.500 Z " transform="matrix(1, 0, 0, 1, -69.4, 57.9)"/>
  <path id="ID0.11483157891780138" fill="#8AC3A3" stroke="#73A28A" stroke-width="2" stroke-linecap="round" d="M 211.500 222.500 C 211.338 222.534 211.581 220.990 211.250 220.250 C 210.956 219.600 210.200 219.200 209.750 218.750 C 208.650 217.650 207.600 216.500 206.500 215.500 C 205.950 215 205.350 214.600 204.750 214.250 C 204.100 213.850 202.750 213.750 202.750 213.250 C 202.750 212.750 204 212.400 204.750 212.250 C 205.550 212 206.400 212 207.250 212 C 208.550 212 209.950 211.850 211.250 212.250 C 211.950 212.450 212.400 213.250 213 213.750 C 213.550 214.200 214.150 214.750 214.750 215.250 C 215.400 215.750 216.150 216.150 216.750 216.750 C 217.250 217.250 217.300 218.300 218 218.500 C 218.650 218.650 219.400 218.050 219.750 217.500 C 220.050 216.900 219.750 216.150 219.750 215.500 C 219.750 214.800 219.750 214.150 219.750 213.500 C 219.750 212.800 219.850 212.150 219.750 211.500 C 219.600 210.800 218.750 209.650 219 209.500 C 219.200 209.300 220.250 210.200 220.750 210.750 C 221.750 211.800 222.800 212.900 223.500 214.250 C 223.750 214.800 223.600 215.550 223.500 216.250 C 223.350 217 222.250 218.500 222.750 218.500 C 223.600 218.400 225 216.700 226.250 216 C 226.850 215.600 227.550 215.350 228.250 215.250 C 229.700 214.950 231.250 214.900 232.750 214.750 C 233.400 214.650 235.050 213.950 234.750 214.500 C 233.650 216.100 231.600 217.500 230 219 C 229.400 219.500 228.800 220 228.250 220.500 C 227.650 220.950 227 221.400 226.500 222 C 226.150 222.350 225.750 223.250 225.750 223.250 C 225 222.750 223.063 223.794 222 224 C 220.445 224.301 218.833 224.309 217.250 224.250 C 216.564 224.225 215.925 223.877 215.250 223.750 C 214.590 223.626 213.919 223.548 213.250 223.500 C 212.752 223.464 211.881 223.713 211.750 223.500 Z " transform="matrix(1, 0, 0, 1, 319.8, 153.75)"/>
</svg>