<svg version="1.1" width="484" height="281" viewBox="-1 -1 484 281" xmlns="http://www.w3.org/2000/svg" xmlns:xlink="http://www.w3.org/1999/xlink">
  <!-- Exported by Scratch - http://scratch.mit.edu/ -->
  <g id="ID0.45573594234883785" transform="matrix(1, 0, 0, 1, 1, -82)">
    <path id="ID0.030868766829371452" fill="#000000" stroke="#FFFFFF" stroke-width="2" d="M 253 269 L 308 269 L 308 345 L 253 345 L 253 269 Z " transform="matrix(1, 0, 0, 1, 169.5, -186)"/>
    <path id="ID0.030868766829371452" fill="#000000" stroke="#FFFFFF" stroke-width="2" d="M 253 269 L 308 269 L 308 345 L 253 345 L 253 269 Z "/>
    <path id="ID0.22664008056744933" fill="#000000" stroke="#FFFFFF" stroke-width="2" d="M 353 153 L 480 153 L 480 360 L 353 360 L 353 153 Z "/>
    <path id="ID0.9402774777263403" fill="#000000" stroke="#FFFFFF" stroke-width="2" d="M 0 188 L 199 188 L 199 356 L 0 356 L 0 188 Z "/>
    <path id="ID0.006212519481778145" fill="#000000" stroke="#FFFFFF" stroke-width="2" d="M 0 340 L 480 340 L 480 360 L 0 360 L 0 340 Z "/>
    <path id="ID0.3580272742547095" fill="#000000" stroke="#FFFFFF" stroke-width="2" d="M 241 103 L 311 103 L 311 122 L 241 122 L 241 103 Z " transform="matrix(1, 0, 0, 1, -2, -20)"/>
  </g>
</svg>