<svg version="1.1" width="61" height="76" viewBox="6 0 61 76" xmlns="http://www.w3.org/2000/svg" xmlns:xlink="http://www.w3.org/1999/xlink">
  <!-- Exported by Scratch - http://scratch.mit.edu/ -->
  <g id="ID0.1477178898639977" transform="matrix(0.7622787356376648, -0.6472488641738892, 0.6472488641738892, 0.7622787356376648, -17.8, 33.3)">
    <path id="ID0.5619839346036315" fill="#0033CC" stroke="#002699" stroke-width="2" stroke-linecap="round" d="M 282.550 231 C 306.841 200.371 308.320 199.171 315.500 193 C 318.114 191.163 320.546 191.730 322.500 193 C 324.499 194.299 326.520 196.941 325.500 199.500 C 309.865 219.642 303.238 227.753 292 235 C 288.841 236.950 281.120 234.340 282.550 231 Z " transform="matrix(0.24025429785251617, -0.19951805472373962, 0.30516430735588074, 0.36747074127197266, -102.25, 29.75)"/>
    <path id="ID0.6155663500539958" fill="#FFD499" stroke="none" d="M 241.250 209 C 243.526 209 245.589 209.924 247.082 211.418 C 248.576 212.911 249.500 214.974 249.500 217.250 C 249.500 219.526 248.576 221.589 247.082 223.082 C 245.589 224.576 243.526 225.500 241.250 225.500 C 238.974 225.500 236.911 224.576 235.418 223.082 C 233.924 221.589 233 219.526 233 217.250 C 233 214.974 233.924 212.911 235.418 211.418 C 236.911 209.924 238.974 209 241.250 209 Z " transform="matrix(0.43194839358329773, -0.08813900500535965, 0.08546812832355499, 0.41885906457901, -84.65, -11.6)"/>
  </g>
  <path id="ID0.5486297779716551" fill="#935301" stroke="#663B00" stroke-width="6" stroke-linecap="round" d="M 319.350 238.550 C 307.238 245.500 295.597 266.776 302 278 C 311.189 288.839 325.526 285.577 337.700 286.950 C 347.701 288.070 358.478 286.995 368.500 283.850 C 376.746 282.212 390.961 281.771 391.550 272.850 C 392.439 259.122 383.380 242.675 371 237 C 355.369 229.848 334.427 229.344 319.350 238.550 Z " transform="matrix(-0.17104271054267883, 0.002926786197349429, 0.0031612187158316374, 0.18474271893501282, 86.1, 20.05)"/>
  <path id="ID0.08809070056304336" fill="#FFD499" stroke="#FFD499" stroke-width="2" stroke-linecap="round" d="M 246 185.300 C 245.980 186.048 246.001 186.757 246 187.550 C 245.996 188.249 245.967 188.955 246 189.650 C 246.032 190.318 246.125 190.985 246.200 191.650 C 246.275 192.317 246.350 192.986 246.450 193.650 C 246.550 194.319 246.487 195.051 246.800 195.650 C 247.116 196.255 247.648 196.777 248.250 197.100 C 248.849 197.421 249.571 197.509 250.250 197.500 C 250.916 197.492 251.639 197.409 252.200 197.050 C 252.769 196.685 253.158 196.060 253.450 195.450 C 253.738 194.849 253.850 194.164 253.900 193.500 C 254.047 191.545 254.095 189.568 254.150 187.600 C 254.143 186.901 254.142 186.200 254.150 185.500 C 253.991 181.252 254.228 180.358 253.900 178.850 C 253.715 178.142 253.282 177.502 252.700 177.150 C 251.952 176.691 251.161 176.494 250.350 176.500 C 249.410 176.507 248.387 176.551 247.600 177.050 C 246.923 177.494 246.549 178.360 246.350 179.150 C 246.053 182.515 246.050 183.695 246 185.300 Z " transform="matrix(-2.178910255432129, -0.28857213258743286, -0.3434801399707794, 2.5935020446777344, 635.95, -381.5)"/>
  <path id="ID0.0726902256719768" fill="#003FFF" stroke="#0032CC" stroke-width="2" stroke-linecap="round" d="M 209.500 227.500 L 209 179.500 L 215.100 179.250 L 219.300 189.750 L 224.600 179.250 L 240.500 179.500 L 241.500 227.500 L 239 231.500 L 233.500 233.500 L 224 234.500 L 213.500 232.500 L 209.500 227.500 Z " transform="matrix(-0.6955679655075073, -0.09212014079093933, -0.0700032040476799, 0.5285704135894775, 194.55, -37.45)"/>
  <path id="ID0.8850112343207002" fill="none" stroke="#000000" stroke-width="2" stroke-linecap="round" d="M 240.500 194 L 240.800 194.300 " transform="matrix(-0.5285704135894775, -0.0700032040476799, -0.0700032040476799, 0.5285704135894775, 170.5, -41.45)"/>
  <path id="ID0.16972909634932876" fill="none" stroke="#000000" stroke-width="2" stroke-linecap="round" d="M 240.500 199.500 L 240.800 199.800 " transform="matrix(-0.5285704135894775, -0.0700032040476799, -0.0700032040476799, 0.5285704135894775, 170.5, -41.45)"/>
  <g id="ID0.1477178898639977" transform="matrix(0.9913436770439148, 0.13129231333732605, -0.13129231333732605, 0.9913436770439148, 7.15, -2.8)">
    <path id="ID0.5619839346036315" fill="#003FFF" stroke="#0033CC" stroke-width="2" stroke-linecap="round" d="M 282.550 231 C 306.841 200.371 308.320 199.171 315.500 193 C 318.114 191.163 320.546 191.730 322.500 193 C 324.499 194.299 326.520 196.941 325.500 199.500 C 309.865 219.642 303.238 227.753 292 235 C 288.841 236.950 281.120 234.340 282.550 231 Z " transform="matrix(-0.24730902910232544, -0.19070352613925934, -0.2916824221611023, 0.3782610297203064, 150.05, 24.5)"/>
    <path id="ID0.6155663500539958" fill="#FFD499" stroke="none" d="M 241.250 209 C 243.526 209 245.589 209.924 247.082 211.418 C 248.576 212.911 249.500 214.974 249.500 217.250 C 249.500 219.526 248.576 221.589 247.082 223.082 C 245.589 224.576 243.526 225.500 241.250 225.500 C 238.974 225.500 236.911 224.576 235.418 223.082 C 233.924 221.589 233 219.526 233 217.250 C 233 214.974 233.924 212.911 235.418 211.418 C 236.911 209.924 238.974 209 241.250 209 Z " transform="matrix(-0.4348520040512085, -0.07246831804513931, -0.070272296667099, 0.4216746985912323, 130.95, -16.15)"/>
  </g>
  <path id="ID0.5486297779716551" fill="#935301" stroke="#663B00" stroke-width="6" stroke-linecap="round" d="M 319.350 238.550 C 307.238 245.500 295.597 266.776 302 278 C 311.189 288.839 325.526 285.577 337.700 286.950 C 347.701 288.070 358.478 286.995 368.500 283.850 C 376.746 282.212 390.961 281.771 391.550 272.850 C 392.439 259.122 383.380 242.675 371 237 C 355.369 229.848 334.427 229.344 319.350 238.550 Z " transform="matrix(-0.17104271054267883, 0.002926786197349429, 0.0031612187158316374, 0.18474271893501282, 73.75, 20.4)"/>
  <path id="ID0.643749819137156" fill="#FFFFFF" stroke="#000000" stroke-width="2" d="M 234.750 143.750 C 236.336 143.750 237.774 144.576 238.815 145.911 C 239.856 147.247 240.500 149.090 240.500 151.125 C 240.500 153.160 239.856 155.003 238.815 156.339 C 237.774 157.674 236.336 158.500 234.750 158.500 C 233.164 158.500 231.726 157.674 230.685 156.339 C 229.644 155.003 229 153.160 229 151.125 C 229 149.090 229.644 147.247 230.685 145.911 C 231.726 144.576 233.164 143.750 234.750 143.750 Z " transform="matrix(-0.5285704135894775, -0.0700032040476799, -0.0700032040476799, 0.5285704135894775, 167.6, -43.7)"/>
  <path id="ID0.643749819137156" fill="#FFFFFF" stroke="#000000" stroke-width="2" d="M 234.750 143.750 C 236.336 143.750 237.774 144.576 238.815 145.911 C 239.856 147.247 240.500 149.090 240.500 151.125 C 240.500 153.160 239.856 155.003 238.815 156.339 C 237.774 157.674 236.336 158.500 234.750 158.500 C 233.164 158.500 231.726 157.674 230.685 156.339 C 229.644 155.003 229 153.160 229 151.125 C 229 149.090 229.644 147.247 230.685 145.911 C 231.726 144.576 233.164 143.750 234.750 143.750 Z " transform="matrix(-0.5285704135894775, -0.0700032040476799, -0.0700032040476799, 0.5285704135894775, 162.75, -44.55)"/>
  <path id="ID0.7692075585946441" fill="none" stroke="#000000" stroke-width="2" stroke-linecap="round" d="M 233.750 150.250 L 234.050 150.550 " transform="matrix(-0.5285704135894775, -0.0700032040476799, -0.0700032040476799, 0.5285704135894775, 167.35, -43.8)"/>
  <path id="ID0.731148752849549" fill="none" stroke="#000000" stroke-width="2" stroke-linecap="round" d="M 242.500 150 L 242.800 150.300 " transform="matrix(-0.5285704135894775, -0.0700032040476799, -0.0700032040476799, 0.5285704135894775, 167.35, -43.8)"/>
  <path id="ID0.17161718104034662" fill="none" stroke="#000000" stroke-width="2" stroke-linecap="round" d="M 219.500 178 L 268 177.500 " transform="matrix(-0.3596973419189453, -0.03608247637748718, -0.07606712728738785, 0.7582945227622986, 129.85, -96.55)"/>
  <path id="ID0.8540973095223308" fill="none" stroke="#000000" stroke-width="2" stroke-linecap="round" d="M 255.250 160.850 C 255.250 160.850 253.312 160.956 252.400 161.250 C 251.731 161.466 251.089 161.846 250.600 162.350 C 250.012 162.957 249.545 163.708 249.250 164.500 C 248.999 165.176 249.042 165.930 249 166.650 C 248.959 167.348 248.664 168.136 249 168.750 C 249.330 169.354 250.102 169.617 250.750 169.850 C 251.430 170.094 252.182 170.234 252.900 170.150 C 253.936 170.029 255.900 169.250 255.900 169.250 " transform="matrix(-0.3570556342601776, -0.04728799685835838, -0.04728799685835838, 0.3570556342601776, 128.25, -22.25)"/>
  <path id="ID0.38323956495150924" fill="none" stroke="#FFFF00" stroke-width="2" stroke-linecap="round" d="M 269.500 176 L 281.500 170 L 274.500 179 L 284.500 179 L 276 186.500 L 282 188 L 270 191.500 L 271.500 198 L 263.500 192.500 " transform="matrix(1, 0, 0, 1, -220, -131)"/>
</svg>