<svg version="1.1" width="39" height="75" viewBox="-1 -1 39 75" xmlns="http://www.w3.org/2000/svg" xmlns:xlink="http://www.w3.org/1999/xlink">
  <!-- Exported by Scratch - http://scratch.mit.edu/ -->
  <path id="ID0.5486297779716551" fill="#935301" stroke="#663B00" stroke-width="6" stroke-linecap="round" d="M 319.350 238.550 C 307.238 245.500 295.597 266.776 302 278 C 311.189 288.839 325.526 285.577 337.700 286.950 C 347.701 288.070 358.478 286.995 368.500 283.850 C 376.746 282.212 390.961 281.771 391.550 272.850 C 392.439 259.122 383.380 242.675 371 237 C 355.369 229.848 334.427 229.344 319.350 238.550 Z " transform="matrix(-0.17072734236717224, 0.01078648678958416, 0.011650457978248596, 0.18440209329128265, 73.1, 14.75)"/>
  <g id="ID0.39669643621891737" transform="matrix(1, 0, 0, 1, 0, -0.5)">
    <path id="ID0.5619839346036315" fill="#0033CC" stroke="#002699" stroke-width="2" stroke-linecap="round" d="M 304.450 237.100 C 295.591 232.651 284.077 223.186 286.650 214.150 C 289.943 202.722 305.706 198.977 315.500 193 C 317.954 191.503 320.546 191.730 322.500 193 C 324.499 194.299 327.069 197.676 325.500 199.500 C 319.268 206.732 303.139 206.868 301.500 215.800 C 300.118 223.421 320.062 226.040 320.450 232.250 C 320.663 236.782 309.097 239.884 304.450 237.100 Z " transform="matrix(0.15463165938854218, -0.27132755517959595, 0.4149974584579468, 0.2365102767944336, -114.3, 78.85)"/>
    <path id="ID0.6155663500539958" fill="#FFD499" stroke="none" d="M 241.250 209 C 243.526 209 245.589 209.924 247.082 211.418 C 248.576 212.911 249.500 214.974 249.500 217.250 C 249.500 219.526 248.576 221.589 247.082 223.082 C 245.589 224.576 243.526 225.500 241.250 225.500 C 238.974 225.500 236.911 224.576 235.418 223.082 C 233.924 221.589 233 219.526 233 217.250 C 233 214.974 233.924 212.911 235.418 211.418 C 236.911 209.924 238.974 209 241.250 209 Z " transform="matrix(0.37326493859291077, -0.23456598818302155, 0.2274579405784607, 0.36195388436317444, -106.7, 26.95)"/>
  </g>
  <path id="ID0.08809070056304336" fill="#FFD499" stroke="#FFD499" stroke-width="2" stroke-linecap="round" d="M 246 185.300 C 245.980 186.048 246.001 186.757 246 187.550 C 245.996 188.249 245.967 188.955 246 189.650 C 246.032 190.318 246.125 190.985 246.200 191.650 C 246.275 192.317 246.350 192.986 246.450 193.650 C 246.550 194.319 246.487 195.051 246.800 195.650 C 247.116 196.255 247.648 196.777 248.250 197.100 C 248.849 197.421 249.571 197.509 250.250 197.500 C 250.916 197.492 251.639 197.409 252.200 197.050 C 252.769 196.685 253.158 196.060 253.450 195.450 C 253.738 194.849 253.850 194.164 253.900 193.500 C 254.047 191.545 254.095 189.568 254.150 187.600 C 254.143 186.901 254.142 186.200 254.150 185.500 C 253.991 181.252 254.228 180.358 253.900 178.850 C 253.715 178.142 253.282 177.502 252.700 177.150 C 251.952 176.691 251.161 176.494 250.350 176.500 C 249.410 176.507 248.387 176.551 247.600 177.050 C 246.923 177.494 246.549 178.360 246.350 179.150 C 246.053 182.515 246.050 183.695 246 185.300 Z " transform="matrix(-2.1979362964630127, 0, 0, 2.6161482334136963, 562.5, -459)"/>
  <path id="ID0.0726902256719768" fill="#003FFF" stroke="#0032CC" stroke-width="2" stroke-linecap="round" d="M 209.500 227.500 L 209 179.500 L 215.100 179.250 L 219.300 189.750 L 224.600 179.250 L 240.500 179.500 L 241.500 227.500 L 239 231.500 L 233.500 233.500 L 224 234.500 L 213.500 232.500 L 209.500 227.500 Z " transform="matrix(-0.7016415596008301, 0, 0, 0.5331858396530151, 170.25, -59.35)"/>
  <path id="ID0.8850112343207002" fill="none" stroke="#000000" stroke-width="2" stroke-linecap="round" d="M 240.500 194 L 240.800 194.300 " transform="matrix(-0.5331858396530151, 0, 0, 0.5331858396530151, 145.85, -60.15)"/>
  <path id="ID0.16972909634932876" fill="none" stroke="#000000" stroke-width="2" stroke-linecap="round" d="M 240.500 199.500 L 240.800 199.800 " transform="matrix(-0.5331858396530151, 0, 0, 0.5331858396530151, 145.85, -60.15)"/>
  <path id="ID0.643749819137156" fill="#FFFFFF" stroke="#000000" stroke-width="2" d="M 234.750 143.750 C 236.336 143.750 237.774 144.576 238.815 145.911 C 239.856 147.247 240.500 149.090 240.500 151.125 C 240.500 153.160 239.856 155.003 238.815 156.339 C 237.774 157.674 236.336 158.500 234.750 158.500 C 233.164 158.500 231.726 157.674 230.685 156.339 C 229.644 155.003 229 153.160 229 151.125 C 229 149.090 229.644 147.247 230.685 145.911 C 231.726 144.576 233.164 143.750 234.750 143.750 Z " transform="matrix(-0.5331858396530151, 0, 0, 0.5331858396530151, 142.8, -62.15)"/>
  <path id="ID0.643749819137156" fill="#FFFFFF" stroke="#000000" stroke-width="2" d="M 234.750 143.750 C 236.336 143.750 237.774 144.576 238.815 145.911 C 239.856 147.247 240.500 149.090 240.500 151.125 C 240.500 153.160 239.856 155.003 238.815 156.339 C 237.774 157.674 236.336 158.500 234.750 158.500 C 233.164 158.500 231.726 157.674 230.685 156.339 C 229.644 155.003 229 153.160 229 151.125 C 229 149.090 229.644 147.247 230.685 145.911 C 231.726 144.576 233.164 143.750 234.750 143.750 Z " transform="matrix(-0.5331858396530151, 0, 0, 0.5331858396530151, 137.8, -62.3)"/>
  <path id="ID0.7692075585946441" fill="none" stroke="#000000" stroke-width="2" stroke-linecap="round" d="M 233.750 150.250 L 234.050 150.550 " transform="matrix(-0.5331858396530151, 0, 0, 0.5331858396530151, 142.5, -62.15)"/>
  <path id="ID0.731148752849549" fill="none" stroke="#000000" stroke-width="2" stroke-linecap="round" d="M 242.500 150 L 242.800 150.300 " transform="matrix(-0.5331858396530151, 0, 0, 0.5331858396530151, 142.5, -62.15)"/>
  <path id="ID0.17161718104034662" fill="none" stroke="#000000" stroke-width="2" stroke-linecap="round" d="M 219.500 178 L 268 177.500 " transform="matrix(-0.36132103204727173, 0.011455358937382698, 0.024149566888809204, 0.7617174983024597, 98.35, -109.5)"/>
  <path id="ID0.8540973095223308" fill="none" stroke="#000000" stroke-width="2" stroke-linecap="round" d="M 255.250 160.850 C 255.250 160.850 253.312 160.956 252.400 161.250 C 251.731 161.466 251.089 161.846 250.600 162.350 C 250.012 162.957 249.545 163.708 249.250 164.500 C 248.999 165.176 249.042 165.930 249 166.650 C 248.959 167.348 248.664 168.136 249 168.750 C 249.330 169.354 250.102 169.617 250.750 169.850 C 251.430 170.094 252.182 170.234 252.900 170.150 C 253.936 170.029 255.900 169.250 255.900 169.250 " transform="matrix(-0.36017340421676636, 0, 0, 0.36017340421676636, 106.5, -35.9)"/>
  <g id="ID0.39669643621891737" transform="matrix(1, 0, 0, 1, 0, -0.5)">
    <path id="ID0.5619839346036315" fill="#003FFF" stroke="#0032CC" stroke-width="2" stroke-linecap="round" d="M 304.450 237.100 C 295.591 232.651 284.077 223.186 286.650 214.150 C 289.943 202.722 305.706 198.977 315.500 193 C 317.954 191.503 320.546 191.730 322.500 193 C 324.499 194.299 327.069 197.676 325.500 199.500 C 319.268 206.732 303.139 206.868 301.500 215.800 C 300.118 223.421 320.062 226.040 320.450 232.250 C 320.663 236.782 309.097 239.884 304.450 237.100 Z " transform="matrix(0.20733165740966797, -0.23354479670524597, 0.3572084605693817, 0.31711530685424805, -125.05, 51.2)"/>
    <path id="ID0.6155663500539958" fill="#FFD499" stroke="none" d="M 241.250 209 C 243.526 209 245.589 209.924 247.082 211.418 C 248.576 212.911 249.500 214.974 249.500 217.250 C 249.500 219.526 248.576 221.589 247.082 223.082 C 245.589 224.576 243.526 225.500 241.250 225.500 C 238.974 225.500 236.911 224.576 235.418 223.082 C 233.924 221.589 233 219.526 233 217.250 C 233 214.974 233.924 212.911 235.418 211.418 C 236.911 209.924 238.974 209 241.250 209 Z " transform="matrix(0.41366007924079895, -0.15242454409599304, 0.14780563116073608, 0.4011249542236328, -106.9, 2)"/>
  </g>
  <path id="ID0.5486297779716551" fill="#935301" stroke="#663B00" stroke-width="6" stroke-linecap="round" d="M 319.350 238.550 C 307.238 245.500 295.597 266.776 302 278 C 311.189 288.839 325.526 285.577 337.700 286.950 C 347.701 288.070 358.478 286.995 368.500 283.850 C 376.746 282.212 390.961 281.771 391.550 272.850 C 392.439 259.122 383.380 242.675 371 237 C 355.369 229.848 334.427 229.344 319.350 238.550 Z " transform="matrix(-0.17055052518844604, 0.013292498886585236, 0.014357194304466248, 0.1842111200094223, 64.85, 15.05)"/>
</svg>