<svg version="1.1" width="482" height="195" viewBox="-1 -1 482 195" xmlns="http://www.w3.org/2000/svg" xmlns:xlink="http://www.w3.org/1999/xlink">
  <defs>
    <linearGradient id="grad_1" y2="1">
      <stop offset="0" stop-color="#B2B2B2" stop-opacity="1"/>
      <stop offset="1" stop-color="#FFFFFF" stop-opacity="1"/>
    </linearGradient>
    <linearGradient id="grad_2" y2="1">
      <stop offset="0" stop-color="#B2B2B2" stop-opacity="1"/>
      <stop offset="1" stop-color="#FFFFFF" stop-opacity="1"/>
    </linearGradient>
    <linearGradient id="grad_3" y2="1">
      <stop offset="0" stop-color="#B2B2B2" stop-opacity="1"/>
      <stop offset="1" stop-color="#FFFFFF" stop-opacity="1"/>
    </linearGradient>
    <linearGradient id="grad_4" y2="1">
      <stop offset="0" stop-color="#B2B2B2" stop-opacity="1"/>
      <stop offset="1" stop-color="#FFFFFF" stop-opacity="1"/>
    </linearGradient>
  </defs>
  <!-- Exported by Scratch - http://scratch.mit.edu/ -->
  <g id="ID0.18573415512219071" transform="matrix(1, 0, 0, 1, 0, -167)">
    <path id="ID0.8883415944874287" fill="url(#grad_1)" stroke="none" d="M 0 338 L 480 338 L 480 360 L 0 360 L 0 338 Z "/>
    <path id="ID0.7256244132295251" fill="url(#grad_2)" stroke="none" d="M 64 249 L 170 249 L 170 265 L 64 265 L 64 249 Z "/>
    <path id="ID0.7256244132295251" fill="url(#grad_3)" stroke="none" d="M 64 249 L 170 249 L 170 265 L 64 265 L 64 249 Z " transform="matrix(1, 0, 0, 1, 235, -1)"/>
    <path id="ID0.7256244132295251" fill="url(#grad_4)" stroke="none" d="M 64 249 L 170 249 L 170 265 L 64 265 L 64 249 Z " transform="matrix(1, 0, 0, 1, 118, -82)"/>
  </g>
</svg>