<svg version="1.1" width="106" height="83" viewBox="3 -1 106 83" xmlns="http://www.w3.org/2000/svg" xmlns:xlink="http://www.w3.org/1999/xlink">
  <defs>
    <linearGradient id="grad_1" y2="1">
      <stop offset="0" stop-color="#FFFF00" stop-opacity="1"/>
      <stop offset="1" stop-color="#666600" stop-opacity="1"/>
    </linearGradient>
    <linearGradient id="grad_2" y2="1">
      <stop offset="0" stop-color="#666600" stop-opacity="1"/>
      <stop offset="1" stop-color="#FFFF00" stop-opacity="1"/>
    </linearGradient>
  </defs>
  <!-- Exported by Scratch - http://scratch.mit.edu/ -->
  <g id="ID0.1477178898639977">
    <path id="ID0.5619839346036315" fill="#0033CC" stroke="#002699" stroke-width="2" stroke-linecap="round" d="M 282.550 231 C 306.841 200.371 308.320 199.171 315.500 193 C 318.114 191.163 320.546 191.730 322.500 193 C 324.499 194.299 326.520 196.941 325.500 199.500 C 309.865 219.642 303.238 227.753 292 235 C 288.841 236.950 281.120 234.340 282.550 231 Z " transform="matrix(-0.23719465732574463, -0.20314593613147736, 0.3107132315635681, -0.36279094219207764, 51.25, 182.55)"/>
    <path id="ID0.6155663500539958" fill="#FFD499" stroke="none" d="M 241.250 209 C 243.526 209 245.589 209.924 247.082 211.418 C 248.576 212.911 249.500 214.974 249.500 217.250 C 249.500 219.526 248.576 221.589 247.082 223.082 C 245.589 224.576 243.526 225.500 241.250 225.500 C 238.974 225.500 236.911 224.576 235.418 223.082 C 233.924 221.589 233 219.526 233 217.250 C 233 214.974 233.924 212.911 235.418 211.418 C 236.911 209.924 238.974 209 241.250 209 Z " transform="matrix(-0.15975618362426758, -0.41088423132896423, 0.39843320846557617, -0.15491509437561035, 7.5, 172.15)"/>
  </g>
  <path id="ID0.5486297779716551" fill="#935301" stroke="#663B00" stroke-width="6" stroke-linecap="round" d="M 319.350 238.550 C 307.238 245.500 295.597 266.776 302 278 C 311.189 288.839 325.526 285.577 337.700 286.950 C 347.701 288.070 358.478 286.995 368.500 283.850 C 376.746 282.212 390.961 281.771 391.550 272.850 C 392.439 259.122 383.380 242.675 371 237 C 355.369 229.848 334.427 229.344 319.350 238.550 Z " transform="matrix(-0.17104271054267883, 0.002926786197349429, 0.0031612187158316374, 0.18474271893501282, 92.1, 27.05)"/>
  <path id="ID0.08809070056304336" fill="#FFD499" stroke="#FFD499" stroke-width="2" stroke-linecap="round" d="M 246 185.300 C 245.980 186.048 246.001 186.757 246 187.550 C 245.996 188.249 245.967 188.955 246 189.650 C 246.032 190.318 246.125 190.985 246.200 191.650 C 246.275 192.317 246.350 192.986 246.450 193.650 C 246.550 194.319 246.487 195.051 246.800 195.650 C 247.116 196.255 247.648 196.777 248.250 197.100 C 248.849 197.421 249.571 197.509 250.250 197.500 C 250.916 197.492 251.639 197.409 252.200 197.050 C 252.769 196.685 253.158 196.060 253.450 195.450 C 253.738 194.849 253.850 194.164 253.900 193.500 C 254.047 191.545 254.095 189.568 254.150 187.600 C 254.143 186.901 254.142 186.200 254.150 185.500 C 253.991 181.252 254.228 180.358 253.900 178.850 C 253.715 178.142 253.282 177.502 252.700 177.150 C 251.952 176.691 251.161 176.494 250.350 176.500 C 249.410 176.507 248.387 176.551 247.600 177.050 C 246.923 177.494 246.549 178.360 246.350 179.150 C 246.053 182.515 246.050 183.695 246 185.300 Z " transform="matrix(-2.1864967346191406, 0.22395557165145874, 0.26656869053840637, 2.602531909942627, 523.5, -504.15)"/>
  <path id="ID0.0726902256719768" fill="#003FFF" stroke="#0032CC" stroke-width="2" stroke-linecap="round" d="M 209.500 227.500 L 209 179.500 L 215.100 179.250 L 219.300 189.750 L 224.600 179.250 L 240.500 179.500 L 241.500 227.500 L 239 231.500 L 233.500 233.500 L 224 234.500 L 213.500 232.500 L 209.500 227.500 Z " transform="matrix(-0.6979897618293762, 0.07149277627468109, 0.054328206926584244, 0.5304107666015625, 173.75, -67.5)"/>
  <path id="ID0.8850112343207002" fill="none" stroke="#000000" stroke-width="2" stroke-linecap="round" d="M 240.500 194 L 240.800 194.300 " transform="matrix(-0.5304107666015625, 0.054328206926584244, 0.054328206926584244, 0.5304107666015625, 149.35, -65.85)"/>
  <path id="ID0.16972909634932876" fill="none" stroke="#000000" stroke-width="2" stroke-linecap="round" d="M 240.500 199.500 L 240.800 199.800 " transform="matrix(-0.5304107666015625, 0.054328206926584244, 0.054328206926584244, 0.5304107666015625, 149.35, -65.85)"/>
  <g id="ID0.1477178898639977">
    <path id="ID0.5619839346036315" fill="#003FFF" stroke="#0033CC" stroke-width="2" stroke-linecap="round" d="M 282.550 231 C 306.841 200.371 308.320 199.171 315.500 193 C 318.114 191.163 320.546 191.730 322.500 193 C 324.499 194.299 326.520 196.941 325.500 199.500 C 309.865 219.642 303.238 227.753 292 235 C 288.841 236.950 281.120 234.340 282.550 231 Z " transform="matrix(-0.17661544680595398, -0.2575588524341583, -0.39393818378448486, 0.27013468742370605, 151.1, 76.45)"/>
    <path id="ID0.6155663500539958" fill="#FFD499" stroke="none" d="M 241.250 209 C 243.526 209 245.589 209.924 247.082 211.418 C 248.576 212.911 249.500 214.974 249.500 217.250 C 249.500 219.526 248.576 221.589 247.082 223.082 C 245.589 224.576 243.526 225.500 241.250 225.500 C 238.974 225.500 236.911 224.576 235.418 223.082 C 233.924 221.589 233 219.526 233 217.250 C 233 214.974 233.924 212.911 235.418 211.418 C 236.911 209.924 238.974 209 241.250 209 Z " transform="matrix(-0.39144375920295715, -0.20277993381023407, -0.19663509726524353, 0.37958186864852905, 145.4, 32)"/>
  </g>
  <path id="ID0.5486297779716551" fill="#935301" stroke="#663B00" stroke-width="6" stroke-linecap="round" d="M 319.350 238.550 C 307.238 245.500 295.597 266.776 302 278 C 311.189 288.839 325.526 285.577 337.700 286.950 C 347.701 288.070 358.478 286.995 368.500 283.850 C 376.746 282.212 390.961 281.771 391.550 272.850 C 392.439 259.122 383.380 242.675 371 237 C 355.369 229.848 334.427 229.344 319.350 238.550 Z " transform="matrix(-0.17104271054267883, 0.002926786197349429, 0.0031612187158316374, 0.18474271893501282, 79.75, 27.4)"/>
  <path id="ID0.643749819137156" fill="#FFFFFF" stroke="#000000" stroke-width="2" d="M 234.750 143.750 C 236.336 143.750 237.774 144.576 238.815 145.911 C 239.856 147.247 240.500 149.090 240.500 151.125 C 240.500 153.160 239.856 155.003 238.815 156.339 C 237.774 157.674 236.336 158.500 234.750 158.500 C 233.164 158.500 231.726 157.674 230.685 156.339 C 229.644 155.003 229 153.160 229 151.125 C 229 149.090 229.644 147.247 230.685 145.911 C 231.726 144.576 233.164 143.750 234.750 143.750 Z " transform="matrix(-0.5304107666015625, 0.054328206926584244, 0.054328206926584244, 0.5304107666015625, 146, -67.35)"/>
  <path id="ID0.643749819137156" fill="#FFFFFF" stroke="#000000" stroke-width="2" d="M 234.750 143.750 C 236.336 143.750 237.774 144.576 238.815 145.911 C 239.856 147.247 240.500 149.090 240.500 151.125 C 240.500 153.160 239.856 155.003 238.815 156.339 C 237.774 157.674 236.336 158.500 234.750 158.500 C 233.164 158.500 231.726 157.674 230.685 156.339 C 229.644 155.003 229 153.160 229 151.125 C 229 149.090 229.644 147.247 230.685 145.911 C 231.726 144.576 233.164 143.750 234.750 143.750 Z " transform="matrix(-0.5304107666015625, 0.054328206926584244, 0.054328206926584244, 0.5304107666015625, 141.1, -67)"/>
  <path id="ID0.7692075585946441" fill="none" stroke="#000000" stroke-width="2" stroke-linecap="round" d="M 233.750 150.250 L 234.050 150.550 " transform="matrix(-0.5304107666015625, 0.054328206926584244, 0.054328206926584244, 0.5304107666015625, 145.75, -67.35)"/>
  <path id="ID0.731148752849549" fill="none" stroke="#000000" stroke-width="2" stroke-linecap="round" d="M 242.500 150 L 242.800 150.300 " transform="matrix(-0.5304107666015625, 0.054328206926584244, 0.054328206926584244, 0.5304107666015625, 145.75, -67.35)"/>
  <path id="ID0.17161718104034662" fill="none" stroke="#000000" stroke-width="2" stroke-linecap="round" d="M 219.500 178 L 268 177.500 " transform="matrix(-0.3582732379436493, 0.04821202903985977, 0.10163800418376923, 0.7552923560142517, 97.1, -110.05)"/>
  <path id="ID0.8540973095223308" fill="none" stroke="#000000" stroke-width="2" stroke-linecap="round" d="M 255.250 160.850 C 255.250 160.850 253.312 160.956 252.400 161.250 C 251.731 161.466 251.089 161.846 250.600 162.350 C 250.012 162.957 249.545 163.708 249.250 164.500 C 248.999 165.176 249.042 165.930 249 166.650 C 248.959 167.348 248.664 168.136 249 168.750 C 249.330 169.354 250.102 169.617 250.750 169.850 C 251.430 170.094 252.182 170.234 252.900 170.150 C 253.936 170.029 255.900 169.250 255.900 169.250 " transform="matrix(-0.35829880833625793, 0.036699358373880386, 0.036699358373880386, 0.35829880833625793, 112.75, -37.3)"/>
  <path id="ID0.27251396887004375" fill="url(#grad_1)" stroke="url(#grad_2)" stroke-width="2" stroke-linecap="round" d="M 156.500 184 L 187 125 L 177 177.500 L 197.500 174 L 178.500 229 L 174 189.500 L 156.500 184 Z " transform="matrix(0.3604651391506195, 0, 0, 0.3604651391506195, -5.05, -29.95)"/>
  <path id="ID0.31742648780345917" fill="none" stroke="#FFFF00" stroke-width="2" d="M 286.250 130 C 294.044 130 301.106 133.081 306.220 138.060 C 311.334 143.038 314.500 149.913 314.500 157.500 C 314.500 165.087 311.334 171.962 306.220 176.940 C 301.106 181.919 294.044 185 286.250 185 C 278.456 185 271.394 181.919 266.280 176.940 C 261.166 171.962 258 165.087 258 157.500 C 258 149.913 261.166 143.038 266.280 138.060 C 271.394 133.081 278.456 130 286.250 130 Z " transform="matrix(1, 0, 0, 1, -214, -124)"/>
  <path id="ID0.28412464866414666" fill="none" stroke="#FFFF00" stroke-width="2" d="M 283.750 142 C 288.371 142 292.559 143.653 295.591 146.323 C 298.623 148.993 300.500 152.681 300.500 156.750 C 300.500 160.819 298.623 164.507 295.591 167.177 C 292.559 169.847 288.371 171.500 283.750 171.500 C 279.129 171.500 274.941 169.847 271.909 167.177 C 268.877 164.507 267 160.819 267 156.750 C 267 152.681 268.877 148.993 271.909 146.323 C 274.941 143.653 279.129 142 283.750 142 Z " transform="matrix(1, 0, 0, 1, -214, -124)"/>
  <path id="ID0.36277323588728905" fill="none" stroke="#FFFF00" stroke-width="2" stroke-linecap="round" d="M 311 131 C 311 131 308.634 131.933 307.500 132.500 C 306.632 132.934 305.808 133.461 305 134 C 304.307 134.462 303.700 135.050 303 135.500 C 301.367 136.550 297.080 137.856 298 138.500 C 299.446 139.512 304.676 138.734 308 139 C 308.846 139.068 310.088 138.758 310.500 139.500 C 311.147 140.664 310.955 142.248 310.500 143.500 C 310.215 144.282 309.261 144.662 308.500 145 C 307.724 145.345 306 145.500 306 145.500 " transform="matrix(-1, 0, 0, 1, 394.7, -124)"/>
  <path id="ID0.9104754510335624" fill="none" stroke="#FFFF00" stroke-width="2" stroke-linecap="round" d="M 271 135 C 271 135 269.818 137.436 269 138.500 C 268.139 139.620 267.145 140.673 266 141.500 C 264.125 142.854 262.008 143.852 260 145 C 258.512 145.850 255.979 147.141 255.500 147.500 C 255.157 147.758 257.149 146.784 258 146.500 C 259.150 146.117 260.331 145.819 261.500 145.500 C 262.162 145.319 262.817 144.932 263.500 145 C 264.548 145.105 266.500 146 266.500 146 " transform="matrix(-1, 0, 0, 1, 312.1, -124)"/>
  <path id="ID0.3892116229981184" fill="none" stroke="#FFFF00" stroke-width="2" stroke-linecap="round" d="M 268 184 C 268 184 269.573 180.022 271 178.500 C 272.172 177.249 273.967 176.767 275.500 176 C 277.299 175.100 279.101 174.165 281 173.500 C 282.449 172.993 283.980 172.717 285.500 172.500 C 286.324 172.382 287.307 172.038 288 172.500 C 288.571 172.881 288.829 173.897 288.500 174.500 C 287.711 175.947 285 178 285 178 " transform="matrix(-1, 0, 0, 1, 338.7, -121)"/>
  <path id="ID0.29588385205715895" fill="none" stroke="#FFFF00" stroke-width="2" stroke-linecap="round" d="M 301.500 176.500 C 301.500 176.500 302.315 178.212 302 179 C 301.563 180.093 300.480 180.847 299.500 181.500 C 298.929 181.881 297.500 182 297.500 182 C 297.500 182 298.838 181.681 299.500 181.500 C 300.669 181.181 301.814 180.750 303 180.500 C 304.982 180.083 306.984 179.692 309 179.500 C 310.492 179.358 312.012 179.325 313.500 179.500 C 314.864 179.660 317.500 180.500 317.500 180.500 " transform="matrix(1, 0, 0, 1, -216, -116)"/>
  <path id="ID0.0331617072224617" fill="none" stroke="#FFFF00" stroke-width="2" stroke-linecap="round" d="M 276 130.500 C 276 130.500 279.634 128.433 281.500 127.500 C 282.634 126.933 283.808 126.433 285 126 C 285.645 125.765 286.925 125.575 287 125.500 C 287.075 125.425 285.500 125.500 285.500 125.500 " transform="matrix(-1, 0, 0, 1, 348.7, -124)"/>
  <path id="ID0.08183983946219087" fill="none" stroke="#FFFF00" stroke-width="2" stroke-linecap="round" d="M 282 178 C 282 178 281.374 179.995 281.500 181 C 281.716 182.725 282.482 184.341 283 186 C 283.314 187.005 283.595 188.028 284 189 C 284.430 190.031 284.900 191.058 285.500 192 C 286.072 192.899 286.798 193.698 287.500 194.500 C 287.965 195.032 289.227 195.773 289 196 C 288.773 196.227 287.313 195.744 286.500 195.500 C 285.641 195.242 284.832 194.833 284 194.500 C 283.792 194.417 284 194.500 284 194.500 " transform="matrix(-1, 0, 0, 1, 356.2, -124)"/>
  <path id="ID0.9462360600009561" fill="none" stroke="#FFFF00" stroke-width="2" stroke-linecap="round" d="M 262 166.500 C 262.168 168.333 261.337 168.678 260.500 169 C 259.172 169.511 257.098 170.051 256.500 170.500 C 256.181 170.739 257.876 170.734 258.500 170.500 C 259.279 170.208 259.772 169.404 260.500 169 C 261.284 168.565 262.168 168.333 263 168 C 263.208 167.917 263.208 167.917 263 168 Z " transform="matrix(1, 0, 0, 1, -214, -124)"/>
  <path id="ID0.4633661531843245" fill="none" stroke="#FFFF00" stroke-width="2" stroke-linecap="round" d="M 312.500 158 C 312.500 158 315.469 156.589 317 156 C 317.641 155.754 319.086 155.068 319 155.500 C 318.840 156.302 317.420 157.580 316.500 158.500 C 315.911 159.089 315.228 159.596 314.500 160 C 313.716 160.435 312.819 160.636 312 161 C 311.320 161.302 310 161.500 310 162 C 310 162.500 311.278 162.819 312 163 C 312.646 163.162 313.334 163 314 163 C 314.666 163 315.334 163 316 163 C 316.832 163 317.668 163 318.500 163 C 318.708 163 318.500 163 318.500 163 " transform="matrix(-1, 0, 0, 1, 418, -126.95)"/>
  <path id="ID0.6146926903165877" fill="none" stroke="#FFFF00" stroke-width="2" stroke-linecap="round" d="M 295 183 C 295 183 293.950 180.350 293.500 179 C 293.283 178.349 292.548 177.452 293 177 C 293.548 176.452 294.668 177 295.500 177 C 296.166 177 296.854 176.838 297.500 177 C 298.222 177.181 298.894 177.567 299.500 178 C 300.075 178.411 300.722 178.851 301 179.500 C 301.262 180.112 301.471 181.029 301 181.500 C 300.529 181.971 299 181.500 299 181.500 " transform="matrix(-1, 0, 0, 1, 380, -124)"/>
</svg>