<svg version="1.1" width="90" height="52" viewBox="-1 -1 90 52" xmlns="http://www.w3.org/2000/svg" xmlns:xlink="http://www.w3.org/1999/xlink">
  <defs>
    <linearGradient id="grad_1" y2="1">
      <stop offset="0" stop-color="#FFFFFF" stop-opacity="1"/>
      <stop offset="1" stop-color="#00FFFF" stop-opacity="1"/>
    </linearGradient>
    <linearGradient id="grad_2" y2="1">
      <stop offset="0" stop-color="#FFFFFF" stop-opacity="1"/>
      <stop offset="1" stop-color="#00FFFF" stop-opacity="1"/>
    </linearGradient>
    <linearGradient id="grad_3" y2="1">
      <stop offset="0" stop-color="#FFFFFF" stop-opacity="1"/>
      <stop offset="1" stop-color="#00FFFF" stop-opacity="1"/>
    </linearGradient>
    <linearGradient id="grad_4" y2="1">
      <stop offset="0" stop-color="#FFFFFF" stop-opacity="1"/>
      <stop offset="1" stop-color="#00FFFF" stop-opacity="1"/>
    </linearGradient>
    <linearGradient id="grad_5" y2="1">
      <stop offset="0" stop-color="#FFFFFF" stop-opacity="1"/>
      <stop offset="1" stop-color="#00FFFF" stop-opacity="1"/>
    </linearGradient>
    <linearGradient id="grad_6" y2="1">
      <stop offset="0" stop-color="#FFFFFF" stop-opacity="1"/>
      <stop offset="1" stop-color="#00FFFF" stop-opacity="1"/>
    </linearGradient>
    <linearGradient id="grad_7" y2="1">
      <stop offset="0" stop-color="#FFFFFF" stop-opacity="1"/>
      <stop offset="1" stop-color="#00FFFF" stop-opacity="1"/>
    </linearGradient>
    <linearGradient id="grad_8" y2="1">
      <stop offset="0" stop-color="#FFFFFF" stop-opacity="1"/>
      <stop offset="1" stop-color="#00FFFF" stop-opacity="1"/>
    </linearGradient>
  </defs>
  <!-- Exported by Scratch - http://scratch.mit.edu/ -->
  <g id="ID0.54539924999699">
    <path id="ID0.3208729512989521" fill="url(#grad_1)" stroke="#003FFF" stroke-width="2" stroke-linecap="round" d="M 273.750 175.500 C 273.421 176.467 273.582 177.979 273.500 179.250 C 273.414 180.582 273.644 181.920 273.750 183.250 C 273.810 184.001 273.914 184.751 274 185.500 C 274.163 186.916 274.275 188.343 274.500 189.750 C 274.608 190.428 274.815 191.089 275 191.750 C 275.398 193.171 275.274 194.894 276.250 196 C 276.801 196.624 277.953 196.239 278.750 196 C 279.680 195.721 280.373 194.916 281.250 194.500 C 281.964 194.162 282.742 193.973 283.500 193.750 C 284.159 193.556 284.830 193.399 285.500 193.250 C 287.078 192.899 288.711 192.745 290.250 192.250 C 291.066 191.988 291.754 191.422 292.500 191 C 293.669 190.339 294.859 189.707 296 189 C 296.609 188.623 297.034 187.750 297.750 187.750 C 298.466 187.750 298.851 188.697 299.500 189 C 300.122 189.290 300.845 189.295 301.500 189.500 C 302.179 189.712 302.794 190.167 303.500 190.250 C 304.249 190.338 305.044 190.265 305.750 190 C 306.421 189.749 306.937 189.192 307.500 188.750 C 308.104 188.276 308.729 187.814 309.250 187.250 C 309.736 186.724 310.195 186.148 310.500 185.500 C 310.870 184.714 311.103 183.857 311.250 183 C 311.604 180.934 311.810 178.838 312 176.750 C 312.060 176.087 312.150 175.399 312 174.750 C 311.645 173.211 311.351 171.580 310.500 170.250 C 309.952 169.394 308.879 169.009 308 168.500 C 307.290 168.089 306.565 167.593 305.750 167.500 C 302.854 167.171 299.881 166.807 297 167.250 C 296.280 167.361 296.363 168.435 296 169 C 295.613 169.602 295.070 170.109 294.750 170.750 C 294.397 171.456 294.406 172.323 294 173 C 293.637 173.606 293.088 174.108 292.500 174.500 C 291.818 174.955 291.037 175.269 290.250 175.500 C 289.606 175.689 288.910 175.626 288.250 175.750 C 287.575 175.877 286.935 176.199 286.250 176.250 C 284.673 176.367 283.082 176.250 281.500 176.250 C 280.668 176.250 279.828 176.333 279 176.250 C 278.155 176.166 277.339 175.882 276.500 175.750 C 275.755 175.632 274.741 174.928 274.250 175.500 Z " transform="matrix(0.7032057642936707, 0, 0, 0.7032057642936707, -152.2, -113)"/>
    <path id="ID0.25557765224948525" fill="url(#grad_2)" stroke="#003FFF" stroke-width="2" stroke-linecap="round" d="M 307.250 168.750 C 304.342 169.776 302.377 170.124 300.500 170.750 C 299.863 170.962 299.225 171.275 298.750 171.750 C 298.275 172.225 297.661 172.835 297.750 173.500 C 297.860 174.325 298.468 175.215 299.250 175.500 C 300.502 175.955 301.919 175.555 303.250 175.500 C 303.921 175.472 304.593 175.387 305.250 175.250 C 306.594 174.970 307.896 174.476 309.250 174.250 C 309.907 174.141 310.606 174.422 311.250 174.250 C 311.899 174.077 312.700 173.850 313 173.250 C 313.300 172.650 312.950 171.891 312.750 171.250 C 312.528 170.539 312.322 169.727 311.750 169.250 C 311.223 168.811 310.431 168.835 309.750 168.750 C 309.089 168.667 308.409 168.656 307.750 168.750 C 307.229 168.824 306.758 169.110 306.250 169.250 Z " transform="matrix(0.7032057642936707, 0, 0, 0.7032057642936707, -152.2, -113)"/>
    <path id="ID0.25557765224948525" fill="url(#grad_3)" stroke="#003FFF" stroke-width="2" stroke-linecap="round" d="M 307.250 168.750 C 304.342 169.776 302.377 170.124 300.500 170.750 C 299.863 170.962 299.225 171.275 298.750 171.750 C 298.275 172.225 297.661 172.835 297.750 173.500 C 297.860 174.325 298.468 175.215 299.250 175.500 C 300.502 175.955 301.919 175.555 303.250 175.500 C 303.921 175.472 304.593 175.387 305.250 175.250 C 306.594 174.970 307.896 174.476 309.250 174.250 C 309.907 174.141 310.606 174.422 311.250 174.250 C 311.899 174.077 312.700 173.850 313 173.250 C 313.300 172.650 312.950 171.891 312.750 171.250 C 312.528 170.539 312.322 169.727 311.750 169.250 C 311.223 168.811 310.431 168.835 309.750 168.750 C 309.089 168.667 308.409 168.656 307.750 168.750 C 307.229 168.824 306.758 169.110 306.250 169.250 Z " transform="matrix(0.7032057642936707, 0, 0, 0.7032057642936707, -151.2, -108.35)"/>
    <path id="ID0.25557765224948525" fill="url(#grad_4)" stroke="#003FFF" stroke-width="2" stroke-linecap="round" d="M 307.250 168.750 C 304.342 169.776 302.377 170.124 300.500 170.750 C 299.863 170.962 299.225 171.275 298.750 171.750 C 298.275 172.225 297.661 172.835 297.750 173.500 C 297.860 174.325 298.468 175.215 299.250 175.500 C 300.502 175.955 301.919 175.555 303.250 175.500 C 303.921 175.472 304.593 175.387 305.250 175.250 C 306.594 174.970 307.896 174.476 309.250 174.250 C 309.907 174.141 310.606 174.422 311.250 174.250 C 311.899 174.077 312.700 173.850 313 173.250 C 313.300 172.650 312.950 171.891 312.750 171.250 C 312.528 170.539 312.322 169.727 311.750 169.250 C 311.223 168.811 310.431 168.835 309.750 168.750 C 309.089 168.667 308.409 168.656 307.750 168.750 C 307.229 168.824 306.758 169.110 306.250 169.250 Z " transform="matrix(0.7032057642936707, 0, 0, 0.7032057642936707, -151.1, -104.5)"/>
    <path id="ID0.9362355130724609" fill="none" stroke="#003FFF" stroke-width="2" stroke-linecap="round" d="M 273.250 194.750 C 273.250 194.750 273.533 196.363 274 197 C 274.492 197.671 275.192 198.298 276 198.500 C 276.666 198.667 277.423 198.371 278 198 C 278.646 197.585 278.834 196.631 279.500 196.250 C 280.083 195.917 280.877 195.751 281.500 196 C 282.265 196.306 282.522 197.364 283.250 197.750 C 284 198.147 284.924 198.444 285.750 198.250 C 286.497 198.074 286.922 197.255 287.500 196.750 C 287.644 196.624 287.750 196.500 287.750 196.500 " transform="matrix(0.7032057642936707, 0, 0, 0.7032057642936707, -152.2, -113)"/>
    <path id="ID0.9728505699895322" fill="none" stroke="#003FFF" stroke-width="2" stroke-linecap="round" d="M 270.750 177.250 C 270.750 177.250 272.006 175.638 272.500 174.750 C 272.845 174.128 272.915 173.378 273.250 172.750 C 273.587 172.118 273.972 171.484 274.500 171 C 274.995 170.546 275.580 170.042 276.250 170 C 277.038 169.951 277.776 170.433 278.500 170.750 C 279.115 171.019 279.586 171.845 280.250 171.750 C 281.010 171.641 281.394 170.721 282 170.250 C 282.151 170.132 282.500 170 282.500 170 " transform="matrix(0.7032057642936707, 0, 0, 0.7032057642936707, -152.2, -113)"/>
    <path id="ID0.3704644553363323" fill="none" stroke="#003FFF" stroke-width="2" stroke-linecap="round" d="M 289 171.750 C 289 171.750 290.222 169.610 290.750 168.500 C 291.056 167.858 290.915 166.905 291.500 166.500 C 292.188 166.024 293.183 166.431 294 166.250 C 294.694 166.096 295.474 165.978 296 165.500 C 296.469 165.074 296.750 163.750 296.750 163.750 " transform="matrix(0.7032057642936707, 0, 0, 0.7032057642936707, -152.2, -113)"/>
    <path id="ID0.9712254568003118" fill="none" stroke="#003FFF" stroke-width="2" stroke-linecap="round" d="M 306 162.750 C 306 162.750 308.408 162.584 309.500 163 C 310.270 163.293 310.503 164.401 311.250 164.750 C 311.854 165.032 312.604 164.588 313.250 164.750 C 313.412 164.790 313.250 165.250 313.250 165.250 " transform="matrix(0.7032057642936707, 0, 0, 0.7032057642936707, -152.2, -113)"/>
    <path id="ID0.15795342344790697" fill="none" stroke="#003FFF" stroke-width="2" stroke-linecap="round" d="M 314.250 171.500 C 314.250 171.500 316.468 172.304 317 173.250 C 317.376 173.919 316.545 174.734 316.500 175.500 C 316.461 176.170 316.676 176.833 316.750 177.500 C 316.769 177.667 316.750 177.750 316.750 177.750 " transform="matrix(0.7032057642936707, 0, 0, 0.7032057642936707, -152.2, -113)"/>
    <path id="ID0.2639711629599333" fill="none" stroke="#003FFF" stroke-width="2" stroke-linecap="round" d="M 316.500 183.250 C 316.500 183.250 317.172 185.027 316.750 185.750 C 316.404 186.343 315.346 185.909 314.750 186.250 C 314.137 186.600 313.731 187.232 313.250 187.750 C 312.648 188.398 311.568 188.868 311.500 189.750 C 311.450 190.398 313 191 313 191 " transform="matrix(0.7032057642936707, 0, 0, 0.7032057642936707, -152.2, -113)"/>
    <path id="ID0.010769736487418413" fill="none" stroke="#003FFF" stroke-width="2" stroke-linecap="round" d="M 302.750 193 C 302.750 193 300.741 192.601 299.750 192.750 C 299.014 192.860 298.482 193.613 297.750 193.750 C 297.090 193.874 296.416 193.583 295.750 193.500 C 295.084 193.417 294.416 193.333 293.750 193.250 C 293.584 193.229 293.750 193.250 293.750 193.250 " transform="matrix(0.7032057642936707, 0, 0, 0.7032057642936707, -152.2, -113)"/>
  </g>
  <path id="ID0.3712550294585526" fill="#00FFFF" stroke="#00CCCC" stroke-width="2" d="M 313.675 77.350 C 350.182 77.350 383.264 91.805 407.218 115.157 C 431.172 138.510 446 170.760 446 206.350 C 446 241.940 431.172 274.190 407.218 297.543 C 383.264 320.895 350.182 335.350 313.675 335.350 C 277.168 335.350 244.086 320.895 220.132 297.543 C 196.178 274.190 181.350 241.940 181.350 206.350 C 181.350 170.760 196.178 138.510 220.132 115.157 C 244.086 91.805 277.168 77.350 313.675 77.350 Z " transform="matrix(0.19269107282161713, 0, 0, 0.19269107282161713, -34.3, -14.65)"/>
  <path id="ID0.7472577039152384" fill="#FFFFFF" stroke="#00CCCC" stroke-width="2" d="M 231.350 64 C 237.420 64 242.920 66.765 246.902 71.232 C 250.885 75.699 253.350 81.867 253.350 88.675 C 253.350 95.483 250.885 101.651 246.902 106.118 C 242.920 110.585 237.420 113.350 231.350 113.350 C 225.280 113.350 219.780 110.585 215.798 106.118 C 211.815 101.651 209.350 95.483 209.350 88.675 C 209.350 81.867 211.815 75.699 215.798 71.232 C 219.780 66.765 225.280 64 231.350 64 Z " transform="matrix(0.19269107282161713, 0, 0, 0.19269107282161713, -20.05, 0.55)"/>
  <path id="ID0.7472577039152384" fill="#FFFFFF" stroke="#00CCCC" stroke-width="2" d="M 231.350 64 C 237.420 64 242.920 66.765 246.902 71.232 C 250.885 75.699 253.350 81.867 253.350 88.675 C 253.350 95.483 250.885 101.651 246.902 106.118 C 242.920 110.585 237.420 113.350 231.350 113.350 C 225.280 113.350 219.780 110.585 215.798 106.118 C 211.815 101.651 209.350 95.483 209.350 88.675 C 209.350 81.867 211.815 75.699 215.798 71.232 C 219.780 66.765 225.280 64 231.350 64 Z " transform="matrix(0.19269107282161713, 0, 0, 0.19269107282161713, -2.4, 0.25)"/>
  <path id="ID0.8638461250811815" fill="#000000" stroke="#000000" stroke-width="2" d="M 186.675 88.650 C 187.413 88.650 188.082 89.025 188.566 89.632 C 189.050 90.238 189.350 91.076 189.350 92 C 189.350 92.924 189.050 93.762 188.566 94.368 C 188.082 94.975 187.413 95.350 186.675 95.350 C 185.937 95.350 185.268 94.975 184.784 94.368 C 184.300 93.762 184 92.924 184 92 C 184 91.076 184.300 90.238 184.784 89.632 C 185.268 89.025 185.937 88.650 186.675 88.650 Z " transform="matrix(0.19269107282161713, 0, 0, 0.19269107282161713, -10.15, -0.3)"/>
  <path id="ID0.8638461250811815" fill="#000000" stroke="#000000" stroke-width="2" d="M 186.675 88.650 C 187.413 88.650 188.082 89.025 188.566 89.632 C 189.050 90.238 189.350 91.076 189.350 92 C 189.350 92.924 189.050 93.762 188.566 94.368 C 188.082 94.975 187.413 95.350 186.675 95.350 C 185.937 95.350 185.268 94.975 184.784 94.368 C 184.300 93.762 184 92.924 184 92 C 184 91.076 184.300 90.238 184.784 89.632 C 185.268 89.025 185.937 88.650 186.675 88.650 Z " transform="matrix(0.19269107282161713, 0, 0, 0.19269107282161713, 7.55, -0.3)"/>
  <path id="ID0.33346087811514735" fill="none" stroke="#FFFFFF" stroke-width="2" d="M 215.500 184.350 L 284.850 184.350 L 284.850 184.350 L 215.500 184.350 L 215.500 184.350 Z " transform="matrix(0.5138556957244873, 0, 0, 7.442074775695801, -97.85, -1339.6)"/>
  <g id="ID0.54539924999699">
    <path id="ID0.3208729512989521" fill="url(#grad_5)" stroke="#003FFF" stroke-width="2" stroke-linecap="round" d="M 273.750 175.500 C 273.421 176.467 273.582 177.979 273.500 179.250 C 273.414 180.582 273.644 181.920 273.750 183.250 C 273.810 184.001 273.914 184.751 274 185.500 C 274.163 186.916 274.275 188.343 274.500 189.750 C 274.608 190.428 274.815 191.089 275 191.750 C 275.398 193.171 275.274 194.894 276.250 196 C 276.801 196.624 277.953 196.239 278.750 196 C 279.680 195.721 280.373 194.916 281.250 194.500 C 281.964 194.162 282.742 193.973 283.500 193.750 C 284.159 193.556 284.830 193.399 285.500 193.250 C 287.078 192.899 288.711 192.745 290.250 192.250 C 291.066 191.988 291.754 191.422 292.500 191 C 293.669 190.339 294.859 189.707 296 189 C 296.609 188.623 297.034 187.750 297.750 187.750 C 298.466 187.750 298.851 188.697 299.500 189 C 300.122 189.290 300.845 189.295 301.500 189.500 C 302.179 189.712 302.794 190.167 303.500 190.250 C 304.249 190.338 305.044 190.265 305.750 190 C 306.421 189.749 306.937 189.192 307.500 188.750 C 308.104 188.276 308.729 187.814 309.250 187.250 C 309.736 186.724 310.195 186.148 310.500 185.500 C 310.870 184.714 311.103 183.857 311.250 183 C 311.604 180.934 311.810 178.838 312 176.750 C 312.060 176.087 312.150 175.399 312 174.750 C 311.645 173.211 311.351 171.580 310.500 170.250 C 309.952 169.394 308.879 169.009 308 168.500 C 307.290 168.089 306.565 167.593 305.750 167.500 C 302.854 167.171 299.881 166.807 297 167.250 C 296.280 167.361 296.363 168.435 296 169 C 295.613 169.602 295.070 170.109 294.750 170.750 C 294.397 171.456 294.406 172.323 294 173 C 293.637 173.606 293.088 174.108 292.500 174.500 C 291.818 174.955 291.037 175.269 290.250 175.500 C 289.606 175.689 288.910 175.626 288.250 175.750 C 287.575 175.877 286.935 176.199 286.250 176.250 C 284.673 176.367 283.082 176.250 281.500 176.250 C 280.668 176.250 279.828 176.333 279 176.250 C 278.155 176.166 277.339 175.882 276.500 175.750 C 275.755 175.632 274.741 174.928 274.250 175.500 Z " transform="matrix(0.7032057642936707, 0, 0, 0.7032057642936707, -134.95, -101.45)"/>
    <path id="ID0.25557765224948525" fill="url(#grad_6)" stroke="#003FFF" stroke-width="2" stroke-linecap="round" d="M 307.250 168.750 C 304.342 169.776 302.377 170.124 300.500 170.750 C 299.863 170.962 299.225 171.275 298.750 171.750 C 298.275 172.225 297.661 172.835 297.750 173.500 C 297.860 174.325 298.468 175.215 299.250 175.500 C 300.502 175.955 301.919 175.555 303.250 175.500 C 303.921 175.472 304.593 175.387 305.250 175.250 C 306.594 174.970 307.896 174.476 309.250 174.250 C 309.907 174.141 310.606 174.422 311.250 174.250 C 311.899 174.077 312.700 173.850 313 173.250 C 313.300 172.650 312.950 171.891 312.750 171.250 C 312.528 170.539 312.322 169.727 311.750 169.250 C 311.223 168.811 310.431 168.835 309.750 168.750 C 309.089 168.667 308.409 168.656 307.750 168.750 C 307.229 168.824 306.758 169.110 306.250 169.250 Z " transform="matrix(0.7032057642936707, 0, 0, 0.7032057642936707, -134.95, -101.45)"/>
    <path id="ID0.25557765224948525" fill="url(#grad_7)" stroke="#003FFF" stroke-width="2" stroke-linecap="round" d="M 307.250 168.750 C 304.342 169.776 302.377 170.124 300.500 170.750 C 299.863 170.962 299.225 171.275 298.750 171.750 C 298.275 172.225 297.661 172.835 297.750 173.500 C 297.860 174.325 298.468 175.215 299.250 175.500 C 300.502 175.955 301.919 175.555 303.250 175.500 C 303.921 175.472 304.593 175.387 305.250 175.250 C 306.594 174.970 307.896 174.476 309.250 174.250 C 309.907 174.141 310.606 174.422 311.250 174.250 C 311.899 174.077 312.700 173.850 313 173.250 C 313.300 172.650 312.950 171.891 312.750 171.250 C 312.528 170.539 312.322 169.727 311.750 169.250 C 311.223 168.811 310.431 168.835 309.750 168.750 C 309.089 168.667 308.409 168.656 307.750 168.750 C 307.229 168.824 306.758 169.110 306.250 169.250 Z " transform="matrix(0.7032057642936707, 0, 0, 0.7032057642936707, -133.95, -96.8)"/>
    <path id="ID0.25557765224948525" fill="url(#grad_8)" stroke="#003FFF" stroke-width="2" stroke-linecap="round" d="M 307.250 168.750 C 304.342 169.776 302.377 170.124 300.500 170.750 C 299.863 170.962 299.225 171.275 298.750 171.750 C 298.275 172.225 297.661 172.835 297.750 173.500 C 297.860 174.325 298.468 175.215 299.250 175.500 C 300.502 175.955 301.919 175.555 303.250 175.500 C 303.921 175.472 304.593 175.387 305.250 175.250 C 306.594 174.970 307.896 174.476 309.250 174.250 C 309.907 174.141 310.606 174.422 311.250 174.250 C 311.899 174.077 312.700 173.850 313 173.250 C 313.300 172.650 312.950 171.891 312.750 171.250 C 312.528 170.539 312.322 169.727 311.750 169.250 C 311.223 168.811 310.431 168.835 309.750 168.750 C 309.089 168.667 308.409 168.656 307.750 168.750 C 307.229 168.824 306.758 169.110 306.250 169.250 Z " transform="matrix(0.7032057642936707, 0, 0, 0.7032057642936707, -133.85, -92.95)"/>
    <path id="ID0.9362355130724609" fill="none" stroke="#003FFF" stroke-width="2" stroke-linecap="round" d="M 273.250 194.750 C 273.250 194.750 273.533 196.363 274 197 C 274.492 197.671 275.192 198.298 276 198.500 C 276.666 198.667 277.423 198.371 278 198 C 278.646 197.585 278.834 196.631 279.500 196.250 C 280.083 195.917 280.877 195.751 281.500 196 C 282.265 196.306 282.522 197.364 283.250 197.750 C 284 198.147 284.924 198.444 285.750 198.250 C 286.497 198.074 286.922 197.255 287.500 196.750 C 287.644 196.624 287.750 196.500 287.750 196.500 " transform="matrix(0.7032057642936707, 0, 0, 0.7032057642936707, -134.95, -101.45)"/>
    <path id="ID0.9728505699895322" fill="none" stroke="#003FFF" stroke-width="2" stroke-linecap="round" d="M 270.750 177.250 C 270.750 177.250 272.006 175.638 272.500 174.750 C 272.845 174.128 272.915 173.378 273.250 172.750 C 273.587 172.118 273.972 171.484 274.500 171 C 274.995 170.546 275.580 170.042 276.250 170 C 277.038 169.951 277.776 170.433 278.500 170.750 C 279.115 171.019 279.586 171.845 280.250 171.750 C 281.010 171.641 281.394 170.721 282 170.250 C 282.151 170.132 282.500 170 282.500 170 " transform="matrix(0.7032057642936707, 0, 0, 0.7032057642936707, -134.95, -101.45)"/>
    <path id="ID0.3704644553363323" fill="none" stroke="#003FFF" stroke-width="2" stroke-linecap="round" d="M 289 171.750 C 289 171.750 290.222 169.610 290.750 168.500 C 291.056 167.858 290.915 166.905 291.500 166.500 C 292.188 166.024 293.183 166.431 294 166.250 C 294.694 166.096 295.474 165.978 296 165.500 C 296.469 165.074 296.750 163.750 296.750 163.750 " transform="matrix(0.7032057642936707, 0, 0, 0.7032057642936707, -134.95, -101.45)"/>
    <path id="ID0.9712254568003118" fill="none" stroke="#003FFF" stroke-width="2" stroke-linecap="round" d="M 306 162.750 C 306 162.750 308.408 162.584 309.500 163 C 310.270 163.293 310.503 164.401 311.250 164.750 C 311.854 165.032 312.604 164.588 313.250 164.750 C 313.412 164.790 313.250 165.250 313.250 165.250 " transform="matrix(0.7032057642936707, 0, 0, 0.7032057642936707, -134.95, -101.45)"/>
    <path id="ID0.15795342344790697" fill="none" stroke="#003FFF" stroke-width="2" stroke-linecap="round" d="M 314.250 171.500 C 314.250 171.500 316.468 172.304 317 173.250 C 317.376 173.919 316.545 174.734 316.500 175.500 C 316.461 176.170 316.676 176.833 316.750 177.500 C 316.769 177.667 316.750 177.750 316.750 177.750 " transform="matrix(0.7032057642936707, 0, 0, 0.7032057642936707, -134.95, -101.45)"/>
    <path id="ID0.2639711629599333" fill="none" stroke="#003FFF" stroke-width="2" stroke-linecap="round" d="M 316.500 183.250 C 316.500 183.250 317.172 185.027 316.750 185.750 C 316.404 186.343 315.346 185.909 314.750 186.250 C 314.137 186.600 313.731 187.232 313.250 187.750 C 312.648 188.398 311.568 188.868 311.500 189.750 C 311.450 190.398 313 191 313 191 " transform="matrix(0.7032057642936707, 0, 0, 0.7032057642936707, -134.95, -101.45)"/>
    <path id="ID0.010769736487418413" fill="none" stroke="#003FFF" stroke-width="2" stroke-linecap="round" d="M 302.750 193 C 302.750 193 300.741 192.601 299.750 192.750 C 299.014 192.860 298.482 193.613 297.750 193.750 C 297.090 193.874 296.416 193.583 295.750 193.500 C 295.084 193.417 294.416 193.333 293.750 193.250 C 293.584 193.229 293.750 193.250 293.750 193.250 " transform="matrix(0.7032057642936707, 0, 0, 0.7032057642936707, -134.95, -101.45)"/>
  </g>
  <path id="ID0.66283252928406" fill="none" stroke="#000000" stroke-width="2" stroke-linecap="round" d="M 225.950 183.300 L 261 183.450 " transform="matrix(1, 0, 0, 1, -213, -151)"/>
</svg>