<svg version="1.1" width="54" height="41" viewBox="2 3 54 41" xmlns="http://www.w3.org/2000/svg" xmlns:xlink="http://www.w3.org/1999/xlink">
  <!-- Exported by Scratch - http://scratch.mit.edu/ -->
  <path id="ID0.3712550294585526" fill="#00FFFF" stroke="#00CCCC" stroke-width="2" d="M 313.675 77.350 C 350.182 77.350 383.264 91.805 407.218 115.157 C 431.172 138.510 446 170.760 446 206.350 C 446 241.940 431.172 274.190 407.218 297.543 C 383.264 320.895 350.182 335.350 313.675 335.350 C 277.168 335.350 244.086 320.895 220.132 297.543 C 196.178 274.190 181.350 241.940 181.350 206.350 C 181.350 170.760 196.178 138.510 220.132 115.157 C 244.086 91.805 277.168 77.350 313.675 77.350 Z " transform="matrix(0.18891648948192596, 0.0379527285695076, -0.02822621539235115, 0.14050103724002838, -24.55, -16.65)"/>
  <path id="ID0.7472577039152384" fill="#FFFFFF" stroke="#00CCCC" stroke-width="2" d="M 231.350 64 C 237.420 64 242.920 66.765 246.902 71.232 C 250.885 75.699 253.350 81.867 253.350 88.675 C 253.350 95.483 250.885 101.651 246.902 106.118 C 242.920 110.585 237.420 113.350 231.350 113.350 C 225.280 113.350 219.780 110.585 215.798 106.118 C 211.815 101.651 209.350 95.483 209.350 88.675 C 209.350 81.867 211.815 75.699 215.798 71.232 C 219.780 66.765 225.280 64 231.350 64 Z " transform="matrix(0.18891648948192596, 0.0379527285695076, -0.02822621539235115, 0.14050103724002838, -12.8, -2.75)"/>
  <path id="ID0.7472577039152384" fill="#FFFFFF" stroke="#00CCCC" stroke-width="2" d="M 231.350 64 C 237.420 64 242.920 66.765 246.902 71.232 C 250.885 75.699 253.350 81.867 253.350 88.675 C 253.350 95.483 250.885 101.651 246.902 106.118 C 242.920 110.585 237.420 113.350 231.350 113.350 C 225.280 113.350 219.780 110.585 215.798 106.118 C 211.815 101.651 209.350 95.483 209.350 88.675 C 209.350 81.867 211.815 75.699 215.798 71.232 C 219.780 66.765 225.280 64 231.350 64 Z " transform="matrix(0.18891648948192596, 0.0379527285695076, -0.02822621539235115, 0.14050103724002838, 4.5, 0.4)"/>
  <path id="ID0.8638461250811815" fill="#000000" stroke="#000000" stroke-width="2" d="M 186.675 88.650 C 187.413 88.650 188.082 89.025 188.566 89.632 C 189.050 90.238 189.350 91.076 189.350 92 C 189.350 92.924 189.050 93.762 188.566 94.368 C 188.082 94.975 187.413 95.350 186.675 95.350 C 185.937 95.350 185.268 94.975 184.784 94.368 C 184.300 93.762 184 92.924 184 92 C 184 91.076 184.300 90.238 184.784 89.632 C 185.268 89.025 185.937 88.650 186.675 88.650 Z " transform="matrix(0.18891648948192596, 0.0379527285695076, -0.02822621539235115, 0.14050103724002838, -3.15, -3.05)"/>
  <path id="ID0.8638461250811815" fill="#000000" stroke="#000000" stroke-width="2" d="M 186.675 88.650 C 187.413 88.650 188.082 89.025 188.566 89.632 C 189.050 90.238 189.350 91.076 189.350 92 C 189.350 92.924 189.050 93.762 188.566 94.368 C 188.082 94.975 187.413 95.350 186.675 95.350 C 185.937 95.350 185.268 94.975 184.784 94.368 C 184.300 93.762 184 92.924 184 92 C 184 91.076 184.300 90.238 184.784 89.632 C 185.268 89.025 185.937 88.650 186.675 88.650 Z " transform="matrix(0.18891648948192596, 0.0379527285695076, -0.02822621539235115, 0.14050103724002838, 14.55, 0.5)"/>
  <path id="ID0.33346087811514735" fill="none" stroke="#000000" stroke-width="2" d="M 215.500 184.350 L 284.850 184.350 L 284.850 184.350 L 215.500 184.350 L 215.500 184.350 Z " transform="matrix(0.5037899017333984, 0.10120980441570282, -0.11667125672101974, 0.5807520151138306, -70.25, -103.35)"/>
  <path id="ID0.7876987680792809" fill="#003FFF" stroke="#003FFF" stroke-width="2" stroke-linecap="round" d="M 242 136.250 C 240.365 137.131 238.697 138.603 237 140 C 235.863 140.936 234.941 142.134 233.750 143 C 233.087 143.482 232.283 143.755 231.500 144 C 229.611 144.590 227.650 144.948 225.750 145.500 C 225.067 145.698 224.429 146.038 223.750 146.250 C 223.095 146.455 222.348 146.413 221.750 146.750 C 220.979 147.184 220.268 147.783 219.750 148.500 C 219.161 149.315 218.969 150.360 218.500 151.250 C 218.134 151.945 217.565 152.530 217.250 153.250 C 216.975 153.879 216.750 154.564 216.750 155.250 C 216.750 156.099 216.870 156.991 217.250 157.750 C 217.566 158.382 218.083 159.018 218.750 159.250 C 220.096 159.718 221.585 159.580 223 159.750 C 223.666 159.830 224.330 159.963 225 160 C 225.831 160.046 226.667 160 227.500 160 C 228.832 160 230.169 160.055 231.500 160 C 232.171 159.972 232.863 159.962 233.500 159.750 C 234.137 159.538 234.775 159.225 235.250 158.750 C 235.887 158.113 236.160 157.180 236.750 156.500 C 237.253 155.920 238 155.583 238.500 155 C 239.011 154.404 239.305 153.647 239.750 153 C 240.222 152.314 240.842 151.726 241.250 151 C 241.599 150.380 241.788 149.679 242 149 C 242.205 148.345 242.415 147.681 242.500 147 C 242.583 146.339 242.500 145.666 242.500 145 C 242.500 144.334 242.500 143.666 242.500 143 C 242.500 142.334 242.500 141.666 242.500 141 C 242.500 140.334 242.583 139.661 242.500 139 C 242.415 138.319 242.057 137.684 242 137 C 241.971 136.658 242.721 135.717 242.250 136 Z " transform="matrix(0.20683453977108002, 0, 0, 0.20683453977108002, -29.3, -20.8)"/>
  <path id="ID0.0935239652171731" fill="#FFFFFF" stroke="none" d="M 226.875 167.500 C 227.116 167.500 227.335 167.598 227.494 167.756 C 227.652 167.915 227.750 168.134 227.750 168.375 C 227.750 168.616 227.652 168.835 227.494 168.994 C 227.335 169.152 227.116 169.250 226.875 169.250 C 226.634 169.250 226.415 169.152 226.256 168.994 C 226.098 168.835 226 168.616 226 168.375 C 226 168.134 226.098 167.915 226.256 167.756 C 226.415 167.598 226.634 167.500 226.875 167.500 Z " transform="matrix(1, 0, 0, 1, -209.5, -158)"/>
</svg>